  0
SECTION
  2
HEADER
  9
$ACADVER
  1
AC1009
  9
$INSBASE
 10
0.0
 20
0.0
 30
0.0
  9
$EXTMIN
 10
0.0
 20
0.0
 30
0.0
  9
$EXTMAX
 10
0.0
 20
0.0
 30
0.0
  0
ENDSEC
  0
SECTION
  2
TABLES
  0
TABLE
  2
VPORT
 70
0
  0
ENDTAB
  0
TABLE
  2
LTYPE
 70
1
  0
LTYPE
  2
CONTINUOUS
 70
0
  3
Solid line
 72
65
 73
0
 40
0.0
  0
ENDTAB
  0
TABLE
  2
LAYER
 70
1
  0
LAYER
  2
0
 70
64
 62
7
  6
continuous
  0
ENDTAB
  0
TABLE
  2
STYLE
 70
1
  0
STYLE
  2
STANDARD
 70
0
 40
0
 41
1.0
 50
0.0
 71
0
 42
1
 3
ARIAL.TTF
 4

  0
ENDTAB
  0
TABLE
  2
VIEW
 70
0
  0
ENDTAB
  0
ENDSEC
  0
SECTION
  2
BLOCKS
  0
BLOCK
  8
0
  2
SKETCH
 70
0
 10
0.0
 20
0.0
 30
0.0
  3
SKETCH
  0
POLYLINE
  8
0
 62
0
 70
1
 66
1
 10
0.0
 20
0.0
 30
0.0
  0
VERTEX
  8
0
 10
5.32
 20
2.8999511350680884
 30
9.882522284503343e-30
  0
VERTEX
  8
0
 10
5.32
 20
2.099951135068
 30
0.0
 42
0.9999999999997032
  0
VERTEX
  8
0
 10
5.92
 20
2.0999511350679096
 30
-9.882522284503343e-30
  0
VERTEX
  8
0
 10
5.92
 20
2.899951135067999
 30
0.0
 42
0.9999999999997032
  0
SEQEND
  8
0
  0
POLYLINE
  8
0
 62
0
 70
1
 66
1
 10
0.0
 20
0.0
 30
0.0
  0
VERTEX
  8
0
 10
6.12
 20
2.8999511350681475
 30
1.6464072318805004e-29
 42
0.9999999999997032
  0
VERTEX
  8
0
 10
5.12
 20
2.8999511350679996
 30
0.0
  0
VERTEX
  8
0
 10
5.12
 20
2.099951135067851
 30
-1.6464072318805004e-29
 42
0.9999999999997032
  0
VERTEX
  8
0
 10
6.12
 20
2.0999511350679994
 30
0.0
  0
SEQEND
  8
0
  0
POLYLINE
  8
0
 62
0
 70
1
 66
1
 10
0.0
 20
0.0
 30
0.0
  0
VERTEX
  8
0
 10
-5.32
 20
2.8999511350680005
 30
0.0
 42
0.9999999999997032
  0
VERTEX
  8
0
 10
-5.92
 20
2.8999511350680898
 30
9.882522284503343e-30
  0
VERTEX
  8
0
 10
-5.92
 20
2.099951135068001
 30
0.0
 42
0.9999999999997032
  0
VERTEX
  8
0
 10
-5.32
 20
2.099951135067911
 30
-9.882522284503343e-30
  0
SEQEND
  8
0
  0
POLYLINE
  8
0
 62
0
 70
1
 66
1
 10
0.0
 20
0.0
 30
0.0
  0
VERTEX
  8
0
 10
-5.12
 20
2.899951135068149
 30
1.6464072318805004e-29
 42
0.9999999999997032
  0
VERTEX
  8
0
 10
-6.12
 20
2.899951135068001
 30
0.0
  0
VERTEX
  8
0
 10
-6.12
 20
2.0999511350678524
 30
-1.6464072318805004e-29
 42
0.9999999999997032
  0
VERTEX
  8
0
 10
-5.12
 20
2.0999511350680007
 30
0.0
  0
SEQEND
  8
0
  0
POLYLINE
  8
0
 62
0
 70
1
 66
1
 10
0.0
 20
0.0
 30
0.0
  0
VERTEX
  8
0
 10
3.5000000000000004
 20
2.8999511350679996
 30
0.0
  0
VERTEX
  8
0
 10
3.5000000000000004
 20
4.199951135068
 30
0.0
  0
VERTEX
  8
0
 10
2.9000000000000004
 20
4.199951135068
 30
0.0
  0
VERTEX
  8
0
 10
2.9000000000000004
 20
2.8999511350679996
 30
0.0
  0
SEQEND
  8
0
  0
POLYLINE
  8
0
 62
0
 70
1
 66
1
 10
0.0
 20
0.0
 30
0.0
  0
VERTEX
  8
0
 10
2.7000000000000006
 20
2.8999511350679996
 30
0.0
  0
VERTEX
  8
0
 10
2.7000000000000006
 20
4.199951135068
 30
0.0
  0
VERTEX
  8
0
 10
2.1000000000000005
 20
4.199951135068
 30
0.0
  0
VERTEX
  8
0
 10
2.1000000000000005
 20
2.8999511350679996
 30
0.0
  0
SEQEND
  8
0
  0
POLYLINE
  8
0
 62
0
 70
1
 66
1
 10
0.0
 20
0.0
 30
0.0
  0
VERTEX
  8
0
 10
1.9000000000000004
 20
2.8999511350679996
 30
0.0
  0
VERTEX
  8
0
 10
1.9000000000000004
 20
4.199951135068
 30
0.0
  0
VERTEX
  8
0
 10
1.6000000000000005
 20
4.199951135068
 30
0.0
  0
VERTEX
  8
0
 10
1.6000000000000005
 20
2.899951135068
 30
0.0
  0
SEQEND
  8
0
  0
POLYLINE
  8
0
 62
0
 70
1
 66
1
 10
0.0
 20
0.0
 30
0.0
  0
VERTEX
  8
0
 10
-1.5999999999999996
 20
2.899951135068
 30
0.0
  0
VERTEX
  8
0
 10
-1.5999999999999996
 20
4.199951135068
 30
0.0
  0
VERTEX
  8
0
 10
-1.8999999999999995
 20
4.199951135068
 30
0.0
  0
VERTEX
  8
0
 10
-1.8999999999999995
 20
2.8999511350680005
 30
0.0
  0
SEQEND
  8
0
  0
POLYLINE
  8
0
 62
0
 70
1
 66
1
 10
0.0
 20
0.0
 30
0.0
  0
VERTEX
  8
0
 10
-2.0999999999999996
 20
2.8999511350680005
 30
0.0
  0
VERTEX
  8
0
 10
-2.0999999999999996
 20
4.199951135068
 30
0.0
  0
VERTEX
  8
0
 10
-2.6999999999999997
 20
4.199951135068
 30
0.0
  0
VERTEX
  8
0
 10
-2.6999999999999997
 20
2.8999511350680005
 30
0.0
  0
SEQEND
  8
0
  0
POLYLINE
  8
0
 62
0
 70
1
 66
1
 10
0.0
 20
0.0
 30
0.0
  0
VERTEX
  8
0
 10
-2.8999999999999995
 20
2.8999511350680005
 30
0.0
  0
VERTEX
  8
0
 10
-2.8999999999999995
 20
4.199951135068
 30
0.0
  0
VERTEX
  8
0
 10
-3.4999999999999996
 20
4.199951135068
 30
0.0
  0
VERTEX
  8
0
 10
-3.4999999999999996
 20
2.8999511350680005
 30
0.0
  0
SEQEND
  8
0
  0
POLYLINE
  8
0
 62
0
 70
1
 66
1
 10
0.0
 20
0.0
 30
0.0
  0
VERTEX
  8
0
 10
1.4000000000000004
 20
4.199951135068
 30
0.0
  0
VERTEX
  8
0
 10
1.4000000000000004
 20
2.899951135068
 30
0.0
  0
VERTEX
  8
0
 10
1.1000000000000005
 20
2.899951135068
 30
0.0
  0
VERTEX
  8
0
 10
1.1000000000000005
 20
4.199951135068
 30
0.0
  0
SEQEND
  8
0
  0
POLYLINE
  8
0
 62
0
 70
1
 66
1
 10
0.0
 20
0.0
 30
0.0
  0
VERTEX
  8
0
 10
0.9000000000000005
 20
4.199951135068
 30
0.0
  0
VERTEX
  8
0
 10
0.9000000000000004
 20
2.899951135068
 30
0.0
  0
VERTEX
  8
0
 10
0.6000000000000004
 20
2.899951135068
 30
0.0
  0
VERTEX
  8
0
 10
0.6000000000000005
 20
4.199951135068
 30
0.0
  0
SEQEND
  8
0
  0
POLYLINE
  8
0
 62
0
 70
1
 66
1
 10
0.0
 20
0.0
 30
0.0
  0
VERTEX
  8
0
 10
0.4000000000000005
 20
4.199951135068
 30
0.0
  0
VERTEX
  8
0
 10
0.40000000000000036
 20
2.899951135068
 30
0.0
  0
VERTEX
  8
0
 10
0.10000000000000038
 20
2.899951135068
 30
0.0
  0
VERTEX
  8
0
 10
0.10000000000000052
 20
4.199951135068
 30
0.0
  0
SEQEND
  8
0
  0
POLYLINE
  8
0
 62
0
 70
1
 66
1
 10
0.0
 20
0.0
 30
0.0
  0
VERTEX
  8
0
 10
-1.3999999999999995
 20
4.199951135068
 30
0.0
  0
VERTEX
  8
0
 10
-1.0999999999999996
 20
4.199951135068
 30
0.0
  0
VERTEX
  8
0
 10
-1.0999999999999996
 20
2.899951135068
 30
0.0
  0
VERTEX
  8
0
 10
-1.3999999999999995
 20
2.899951135068
 30
0.0
  0
SEQEND
  8
0
  0
POLYLINE
  8
0
 62
0
 70
1
 66
1
 10
0.0
 20
0.0
 30
0.0
  0
VERTEX
  8
0
 10
-0.8999999999999995
 20
4.199951135068
 30
0.0
  0
VERTEX
  8
0
 10
-0.5999999999999995
 20
4.199951135068
 30
0.0
  0
VERTEX
  8
0
 10
-0.5999999999999996
 20
2.899951135068
 30
0.0
  0
VERTEX
  8
0
 10
-0.8999999999999996
 20
2.899951135068
 30
0.0
  0
SEQEND
  8
0
  0
POLYLINE
  8
0
 62
0
 70
1
 66
1
 10
0.0
 20
0.0
 30
0.0
  0
VERTEX
  8
0
 10
-0.3999999999999995
 20
4.199951135068
 30
0.0
  0
VERTEX
  8
0
 10
-0.0999999999999995
 20
4.199951135068
 30
0.0
  0
VERTEX
  8
0
 10
-0.09999999999999964
 20
2.899951135068
 30
0.0
  0
VERTEX
  8
0
 10
-0.3999999999999997
 20
2.899951135068
 30
0.0
  0
SEQEND
  8
0
  0
POLYLINE
  8
0
 62
0
 70
1
 66
1
 10
0.0
 20
0.0
 30
0.0
  0
VERTEX
  8
0
 10
5.32
 20
-0.9000488649319115
 30
9.882522284503343e-30
  0
VERTEX
  8
0
 10
5.32
 20
-2.1000488649320004
 30
0.0
 42
0.9999999999997032
  0
VERTEX
  8
0
 10
5.92
 20
-2.1000488649320896
 30
-9.882522284503343e-30
  0
VERTEX
  8
0
 10
5.92
 20
-0.9000488649320008
 30
0.0
 42
0.9999999999997032
  0
SEQEND
  8
0
  0
POLYLINE
  8
0
 62
0
 70
1
 66
1
 10
0.0
 20
0.0
 30
0.0
  0
VERTEX
  8
0
 10
6.12
 20
-0.9000488649318524
 30
1.6464072318805004e-29
 42
0.9999999999997032
  0
VERTEX
  8
0
 10
5.12
 20
-0.9000488649320004
 30
0.0
  0
VERTEX
  8
0
 10
5.12
 20
-2.1000488649321487
 30
-1.6464072318805004e-29
 42
0.9999999999997032
  0
VERTEX
  8
0
 10
6.12
 20
-2.100048864932001
 30
0.0
  0
SEQEND
  8
0
  0
POLYLINE
  8
0
 62
0
 70
1
 66
1
 10
0.0
 20
0.0
 30
0.0
  0
VERTEX
  8
0
 10
-5.32
 20
-0.9000488649319993
 30
0.0
 42
0.9999999999997032
  0
VERTEX
  8
0
 10
-5.92
 20
-0.90004886493191
 30
9.882522284503343e-30
  0
VERTEX
  8
0
 10
-5.92
 20
-2.100048864931999
 30
0.0
 42
0.9999999999997032
  0
VERTEX
  8
0
 10
-5.32
 20
-2.1000488649320883
 30
-9.882522284503343e-30
  0
SEQEND
  8
0
  0
POLYLINE
  8
0
 62
0
 70
1
 66
1
 10
0.0
 20
0.0
 30
0.0
  0
VERTEX
  8
0
 10
-5.12
 20
-0.900048864931851
 30
1.6464072318805004e-29
 42
0.9999999999997032
  0
VERTEX
  8
0
 10
-6.12
 20
-0.9000488649319991
 30
0.0
  0
VERTEX
  8
0
 10
-6.12
 20
-2.1000488649321474
 30
-1.6464072318805004e-29
 42
0.9999999999997032
  0
VERTEX
  8
0
 10
-5.12
 20
-2.1000488649319995
 30
0.0
  0
SEQEND
  8
0
  0
ENDBLK
  0
ENDSEC
  0
SECTION
  2
ENTITIES
  0
INSERT
  2
SKETCH
  8
0
 62
0
 10
0.0
 20
0.0
 30
0.0
  0
ENDSEC
  0
EOF
