%TF.GenerationSoftware,KiCad,Pcbnew,(6.0.7)*%
%TF.CreationDate,2022-11-21T20:11:54+01:00*%
%TF.ProjectId,Arbolito Tronco 2,4172626f-6c69-4746-9f20-54726f6e636f,rev?*%
%TF.SameCoordinates,Original*%
%TF.FileFunction,Legend,Bot*%
%TF.FilePolarity,Positive*%
%FSLAX46Y46*%
G04 Gerber Fmt 4.6, Leading zero omitted, Abs format (unit mm)*
G04 Created by KiCad (PCBNEW (6.0.7)) date 2022-11-21 20:11:54*
%MOMM*%
%LPD*%
G01*
G04 APERTURE LIST*
%ADD10C,3.000000*%
%ADD11C,1.000000*%
%ADD12C,0.500000*%
%ADD13C,0.150000*%
%ADD14C,0.120000*%
G04 APERTURE END LIST*
D10*
X155080000Y-99730000D02*
G75*
G03*
X155080000Y-99730000I-700000J0D01*
G01*
D11*
X146359997Y-58380013D02*
G75*
G03*
X159610000Y-54450000I3240503J13375813D01*
G01*
D12*
X135400000Y-32500000D02*
X137075000Y-27350000D01*
D10*
X131790000Y-69337039D02*
G75*
G03*
X131790000Y-69337039I-700000J0D01*
G01*
D11*
X140140010Y-30229997D02*
G75*
G03*
X159600000Y-54590000I45538590J16425697D01*
G01*
D10*
X128170000Y-96150000D02*
G75*
G03*
X128170000Y-96150000I-700000J0D01*
G01*
X148780000Y-49500000D02*
G75*
G03*
X148780000Y-49500000I-700000J0D01*
G01*
D12*
X141100000Y-24150000D02*
X139400000Y-19050000D01*
D11*
X149660000Y-86259979D02*
G75*
G03*
X162980000Y-81880000I46400J22302679D01*
G01*
D12*
X138325000Y-29950000D02*
X135075000Y-32375000D01*
D11*
X119499998Y-53770002D02*
G75*
G03*
X132350000Y-58390000I10553302J9172402D01*
G01*
X115672613Y-81641887D02*
G75*
G03*
X129570000Y-86480000I14630187J19645887D01*
G01*
X118610000Y-54830000D02*
G75*
G03*
X138700000Y-30210000I-22892700J39187270D01*
G01*
D10*
X150290000Y-72650000D02*
G75*
G03*
X150290000Y-72650000I-700000J0D01*
G01*
D12*
X138325000Y-29950000D02*
X140575000Y-29950000D01*
D11*
X146310003Y-58349999D02*
G75*
G03*
X162630000Y-82060000I39062967J9416039D01*
G01*
X105790002Y-109769997D02*
G75*
G03*
X131590000Y-117400000I21373948J24838707D01*
G01*
X116079999Y-82229998D02*
G75*
G03*
X132560000Y-58400000I-23341309J33755538D01*
G01*
D12*
X132725000Y-24000000D02*
X137075000Y-27350000D01*
X140650000Y-29950000D02*
X143850000Y-32300000D01*
D10*
X134453668Y-45267039D02*
G75*
G03*
X134453668Y-45267039I-700000J0D01*
G01*
D12*
X142125000Y-27300000D02*
X146475000Y-24000000D01*
D11*
X147060876Y-117529988D02*
G75*
G03*
X173060000Y-110230000I4600224J33564488D01*
G01*
D12*
X143775000Y-32400000D02*
X142125000Y-27300000D01*
X146550000Y-24250000D02*
X141150000Y-24250000D01*
X132700000Y-24200000D02*
X138050000Y-24275000D01*
D11*
X106050000Y-110520001D02*
G75*
G03*
X129570000Y-86500000I-19967980J43077531D01*
G01*
X149720006Y-86279998D02*
G75*
G03*
X173020000Y-110280000I41529594J17008098D01*
G01*
D12*
X139750000Y-19175000D02*
X138050000Y-24275000D01*
D13*
%TO.C,U3*%
X155461904Y-76902380D02*
X155461904Y-77711904D01*
X155414285Y-77807142D01*
X155366666Y-77854761D01*
X155271428Y-77902380D01*
X155080952Y-77902380D01*
X154985714Y-77854761D01*
X154938095Y-77807142D01*
X154890476Y-77711904D01*
X154890476Y-76902380D01*
X154509523Y-76902380D02*
X153890476Y-76902380D01*
X154223809Y-77283333D01*
X154080952Y-77283333D01*
X153985714Y-77330952D01*
X153938095Y-77378571D01*
X153890476Y-77473809D01*
X153890476Y-77711904D01*
X153938095Y-77807142D01*
X153985714Y-77854761D01*
X154080952Y-77902380D01*
X154366666Y-77902380D01*
X154461904Y-77854761D01*
X154509523Y-77807142D01*
X155894285Y-80792380D02*
X156465714Y-80792380D01*
X156180000Y-80792380D02*
X156180000Y-79792380D01*
X156275238Y-79935238D01*
X156370476Y-80030476D01*
X156465714Y-80078095D01*
%TO.C,U6*%
X128611904Y-49502380D02*
X128611904Y-50311904D01*
X128564285Y-50407142D01*
X128516666Y-50454761D01*
X128421428Y-50502380D01*
X128230952Y-50502380D01*
X128135714Y-50454761D01*
X128088095Y-50407142D01*
X128040476Y-50311904D01*
X128040476Y-49502380D01*
X127135714Y-49502380D02*
X127326190Y-49502380D01*
X127421428Y-49550000D01*
X127469047Y-49597619D01*
X127564285Y-49740476D01*
X127611904Y-49930952D01*
X127611904Y-50311904D01*
X127564285Y-50407142D01*
X127516666Y-50454761D01*
X127421428Y-50502380D01*
X127230952Y-50502380D01*
X127135714Y-50454761D01*
X127088095Y-50407142D01*
X127040476Y-50311904D01*
X127040476Y-50073809D01*
X127088095Y-49978571D01*
X127135714Y-49930952D01*
X127230952Y-49883333D01*
X127421428Y-49883333D01*
X127516666Y-49930952D01*
X127564285Y-49978571D01*
X127611904Y-50073809D01*
X129054285Y-53402380D02*
X129625714Y-53402380D01*
X129340000Y-53402380D02*
X129340000Y-52402380D01*
X129435238Y-52545238D01*
X129530476Y-52640476D01*
X129625714Y-52688095D01*
%TO.C,U2*%
X117861904Y-105952380D02*
X117861904Y-106761904D01*
X117814285Y-106857142D01*
X117766666Y-106904761D01*
X117671428Y-106952380D01*
X117480952Y-106952380D01*
X117385714Y-106904761D01*
X117338095Y-106857142D01*
X117290476Y-106761904D01*
X117290476Y-105952380D01*
X116861904Y-106047619D02*
X116814285Y-106000000D01*
X116719047Y-105952380D01*
X116480952Y-105952380D01*
X116385714Y-106000000D01*
X116338095Y-106047619D01*
X116290476Y-106142857D01*
X116290476Y-106238095D01*
X116338095Y-106380952D01*
X116909523Y-106952380D01*
X116290476Y-106952380D01*
X118324285Y-109852380D02*
X118895714Y-109852380D01*
X118610000Y-109852380D02*
X118610000Y-108852380D01*
X118705238Y-108995238D01*
X118800476Y-109090476D01*
X118895714Y-109138095D01*
%TO.C,G\u002A\u002A\u002A*%
G36*
X130868043Y-67716670D02*
G01*
X130928171Y-67751984D01*
X131041016Y-67837474D01*
X131168811Y-67937163D01*
X131275670Y-68023914D01*
X131357659Y-68094429D01*
X131410841Y-68145409D01*
X131431281Y-68173556D01*
X131422603Y-68214887D01*
X131393026Y-68264954D01*
X131348576Y-68321221D01*
X131570633Y-68494168D01*
X131575515Y-68497979D01*
X131660693Y-68567551D01*
X131731408Y-68630849D01*
X131780416Y-68681032D01*
X131800474Y-68711258D01*
X131801129Y-68715274D01*
X131799113Y-68753476D01*
X131775937Y-68793762D01*
X131724494Y-68849022D01*
X131713767Y-68861782D01*
X131710771Y-68879363D01*
X131724777Y-68902728D01*
X131760578Y-68937139D01*
X131822964Y-68987857D01*
X131916728Y-69060147D01*
X131926658Y-69067740D01*
X132020853Y-69141337D01*
X132084567Y-69195589D01*
X132123642Y-69236534D01*
X132143913Y-69270210D01*
X132151221Y-69302657D01*
X132151954Y-69319310D01*
X132143493Y-69359640D01*
X132112699Y-69397856D01*
X132051120Y-69446066D01*
X132005849Y-69480033D01*
X131962941Y-69516348D01*
X131946943Y-69536038D01*
X131964198Y-69554540D01*
X132010213Y-69594541D01*
X132077972Y-69650137D01*
X132160459Y-69715435D01*
X132259166Y-69795234D01*
X132338777Y-69871226D01*
X132378381Y-69931581D01*
X132380118Y-69934227D01*
X132383224Y-69989960D01*
X132348135Y-70044152D01*
X132274891Y-70102524D01*
X132163528Y-70170803D01*
X132124048Y-70191935D01*
X132028085Y-70236967D01*
X131915419Y-70284253D01*
X131802984Y-70326481D01*
X131573517Y-70406634D01*
X131603519Y-70576784D01*
X131630500Y-70729800D01*
X131504530Y-70761018D01*
X131452637Y-70772965D01*
X131372324Y-70788328D01*
X131313461Y-70795850D01*
X131300430Y-70796758D01*
X131229258Y-70804694D01*
X131151342Y-70816571D01*
X131054324Y-70833677D01*
X130996870Y-70507841D01*
X130763334Y-70510167D01*
X130711326Y-70510083D01*
X130586044Y-70506105D01*
X130465317Y-70497866D01*
X130369367Y-70486577D01*
X130278157Y-70469762D01*
X131173077Y-70469762D01*
X131204358Y-70647167D01*
X131426114Y-70608065D01*
X131394833Y-70430660D01*
X131173077Y-70469762D01*
X130278157Y-70469762D01*
X130255191Y-70465528D01*
X130157268Y-70437128D01*
X130098062Y-70400085D01*
X130075625Y-70349233D01*
X130086325Y-70288914D01*
X130272314Y-70288914D01*
X130288748Y-70301034D01*
X130342417Y-70316096D01*
X130424478Y-70330102D01*
X130525814Y-70341552D01*
X130637309Y-70348946D01*
X130642083Y-70349128D01*
X130735997Y-70347317D01*
X130863241Y-70337605D01*
X131013670Y-70320943D01*
X131177138Y-70298284D01*
X131194472Y-70295629D01*
X131414410Y-70257736D01*
X131600381Y-70216195D01*
X131762708Y-70167969D01*
X131911717Y-70110024D01*
X132057734Y-70039320D01*
X132203412Y-69962432D01*
X132137584Y-69907349D01*
X132099875Y-69876857D01*
X132032235Y-69823662D01*
X131947672Y-69758092D01*
X131856250Y-69687994D01*
X131855380Y-69687331D01*
X131771865Y-69622295D01*
X131703247Y-69566290D01*
X131656599Y-69525270D01*
X131638998Y-69505190D01*
X131639438Y-69503264D01*
X131663406Y-69482694D01*
X131716740Y-69450552D01*
X131789534Y-69412912D01*
X131802007Y-69406799D01*
X131873433Y-69368722D01*
X131924562Y-69336280D01*
X131945027Y-69315942D01*
X131940096Y-69307012D01*
X131906554Y-69272973D01*
X131846473Y-69220081D01*
X131765904Y-69153569D01*
X131670890Y-69078674D01*
X131615483Y-69035666D01*
X131527185Y-68965996D01*
X131456185Y-68908513D01*
X131408656Y-68868251D01*
X131390774Y-68850248D01*
X131397408Y-68841569D01*
X131434657Y-68818342D01*
X131494197Y-68789718D01*
X131533519Y-68771491D01*
X131580262Y-68745480D01*
X131597125Y-68729274D01*
X131591104Y-68722347D01*
X131555741Y-68691490D01*
X131494144Y-68641276D01*
X131412532Y-68576733D01*
X131317124Y-68502890D01*
X131263101Y-68461178D01*
X131174471Y-68391258D01*
X131103104Y-68333024D01*
X131055234Y-68291616D01*
X131037098Y-68272169D01*
X131051457Y-68256027D01*
X131094521Y-68241226D01*
X131142843Y-68230230D01*
X131184969Y-68213473D01*
X131196233Y-68190655D01*
X131175077Y-68156904D01*
X131119947Y-68107348D01*
X131029282Y-68037118D01*
X130832746Y-67888853D01*
X130699147Y-68095330D01*
X130653425Y-68167209D01*
X130610893Y-68241444D01*
X130594755Y-68287693D01*
X130605186Y-68311067D01*
X130642358Y-68316684D01*
X130706447Y-68309654D01*
X130749428Y-68308915D01*
X130771290Y-68320792D01*
X130768470Y-68330155D01*
X130746432Y-68372699D01*
X130706060Y-68442091D01*
X130651488Y-68531330D01*
X130586849Y-68633412D01*
X130550412Y-68690388D01*
X130490654Y-68785467D01*
X130443043Y-68863361D01*
X130411729Y-68917224D01*
X130400862Y-68940208D01*
X130409973Y-68946118D01*
X130452794Y-68955224D01*
X130518469Y-68961765D01*
X130561628Y-68965430D01*
X130614671Y-68973856D01*
X130636357Y-68983272D01*
X130633046Y-68992120D01*
X130610417Y-69033604D01*
X130569857Y-69102262D01*
X130515445Y-69191251D01*
X130451260Y-69293727D01*
X130414124Y-69353142D01*
X130356040Y-69449617D01*
X130310864Y-69529317D01*
X130282489Y-69585256D01*
X130274805Y-69610447D01*
X130275896Y-69611861D01*
X130306951Y-69624306D01*
X130369290Y-69637232D01*
X130450821Y-69648053D01*
X130461582Y-69649170D01*
X130541805Y-69658611D01*
X130601739Y-69667554D01*
X130629103Y-69674196D01*
X130627943Y-69682116D01*
X130608836Y-69721929D01*
X130571272Y-69789056D01*
X130519050Y-69876819D01*
X130455973Y-69978532D01*
X130419370Y-70036872D01*
X130360411Y-70132655D01*
X130313533Y-70211180D01*
X130282809Y-70265562D01*
X130272314Y-70288914D01*
X130086325Y-70288914D01*
X130088011Y-70279407D01*
X130133274Y-70185444D01*
X130209469Y-70062177D01*
X130263238Y-69977822D01*
X130308990Y-69902234D01*
X130339200Y-69847811D01*
X130349124Y-69822689D01*
X130335146Y-69811329D01*
X130287909Y-69790921D01*
X130219617Y-69769009D01*
X130189474Y-69760220D01*
X130127681Y-69736545D01*
X130094053Y-69708797D01*
X130076504Y-69668485D01*
X130075821Y-69665900D01*
X130072393Y-69632703D01*
X130081020Y-69593311D01*
X130105125Y-69540035D01*
X130148135Y-69465189D01*
X130213474Y-69361084D01*
X130368367Y-69119120D01*
X130289860Y-69077294D01*
X130276451Y-69069582D01*
X130227416Y-69030141D01*
X130203699Y-68992057D01*
X130203534Y-68990605D01*
X130213818Y-68953206D01*
X130244138Y-68887716D01*
X130290046Y-68802951D01*
X130347099Y-68707726D01*
X130395330Y-68630310D01*
X130440857Y-68554248D01*
X130466570Y-68504318D01*
X130475127Y-68473809D01*
X130469180Y-68456015D01*
X130451388Y-68444225D01*
X130420544Y-68427194D01*
X130387745Y-68395489D01*
X130378341Y-68353701D01*
X130393248Y-68295351D01*
X130433381Y-68213960D01*
X130499659Y-68103049D01*
X130527261Y-68058784D01*
X130603694Y-67936937D01*
X130661409Y-67846957D01*
X130704115Y-67783856D01*
X130735526Y-67742643D01*
X130759352Y-67718329D01*
X130779304Y-67705921D01*
X130799094Y-67700433D01*
X130813520Y-67700168D01*
X130868043Y-67716670D01*
G37*
G36*
X131757820Y-67157965D02*
G01*
X131910546Y-67212727D01*
X132190989Y-67346217D01*
X132444144Y-67510990D01*
X132668831Y-67703520D01*
X132863870Y-67920281D01*
X133028083Y-68157748D01*
X133160291Y-68412395D01*
X133259312Y-68680698D01*
X133298201Y-68848161D01*
X133323971Y-68959128D01*
X133353084Y-69244161D01*
X133345475Y-69532271D01*
X133299963Y-69819932D01*
X133215369Y-70103621D01*
X133090515Y-70379808D01*
X132924219Y-70644971D01*
X132858247Y-70732377D01*
X132650750Y-70964826D01*
X132421980Y-71159810D01*
X132166995Y-71321155D01*
X131880854Y-71452687D01*
X131750617Y-71496907D01*
X131506722Y-71553259D01*
X131246644Y-71584761D01*
X130984729Y-71589976D01*
X130735324Y-71567467D01*
X130657032Y-71553896D01*
X130357417Y-71474072D01*
X130073094Y-71354192D01*
X129808015Y-71197264D01*
X129566125Y-71006297D01*
X129351372Y-70784302D01*
X129167704Y-70534284D01*
X129019067Y-70259256D01*
X128915240Y-69983028D01*
X128846660Y-69683430D01*
X128827265Y-69466578D01*
X129004712Y-69466578D01*
X129043814Y-69751838D01*
X129121193Y-70024770D01*
X129234109Y-70282260D01*
X129379821Y-70521199D01*
X129555587Y-70738471D01*
X129758669Y-70930967D01*
X129986323Y-71095573D01*
X130235810Y-71229179D01*
X130504388Y-71328671D01*
X130789317Y-71390938D01*
X131087856Y-71412869D01*
X131234614Y-71407832D01*
X131526287Y-71365590D01*
X131806741Y-71282749D01*
X132071917Y-71162082D01*
X132317758Y-71006364D01*
X132540202Y-70818367D01*
X132735191Y-70600863D01*
X132898665Y-70356625D01*
X133026567Y-70088429D01*
X133079168Y-69937612D01*
X133135729Y-69705948D01*
X133169017Y-69451785D01*
X133172583Y-69297304D01*
X133156273Y-69092527D01*
X133120318Y-68879526D01*
X133067516Y-68674240D01*
X133000665Y-68492602D01*
X132991564Y-68472491D01*
X132908414Y-68312934D01*
X132806623Y-68149599D01*
X132696623Y-67998152D01*
X132588850Y-67874260D01*
X132432696Y-67734596D01*
X132234246Y-67592667D01*
X132017725Y-67467364D01*
X131796393Y-67366297D01*
X131583507Y-67297079D01*
X131545845Y-67288178D01*
X131273357Y-67248351D01*
X130990281Y-67246428D01*
X130705418Y-67280869D01*
X130427568Y-67350132D01*
X130165527Y-67452676D01*
X129928097Y-67586962D01*
X129906645Y-67601660D01*
X129703177Y-67766094D01*
X129513195Y-67963565D01*
X129346031Y-68183304D01*
X129211019Y-68414539D01*
X129132454Y-68593135D01*
X129063148Y-68816582D01*
X129018096Y-69062854D01*
X129006630Y-69172100D01*
X129004712Y-69466578D01*
X128827265Y-69466578D01*
X128819580Y-69380653D01*
X128832941Y-69078920D01*
X128885689Y-68782451D01*
X128976764Y-68495472D01*
X129105109Y-68222204D01*
X129269667Y-67966870D01*
X129469382Y-67733691D01*
X129703195Y-67526892D01*
X129875736Y-67394510D01*
X129838402Y-67181242D01*
X129828367Y-67122154D01*
X129816589Y-67037230D01*
X129815938Y-67019499D01*
X130000659Y-67019499D01*
X130007016Y-67086635D01*
X130019213Y-67167743D01*
X130027688Y-67213239D01*
X130042160Y-67271535D01*
X130056679Y-67296199D01*
X130074448Y-67294589D01*
X130081585Y-67290365D01*
X130210667Y-67228020D01*
X130371178Y-67170684D01*
X130550377Y-67121861D01*
X130735520Y-67085054D01*
X130913864Y-67063768D01*
X130966350Y-67060473D01*
X131076640Y-67056395D01*
X131175063Y-67056200D01*
X131245136Y-67060071D01*
X131351489Y-67072657D01*
X131324323Y-66918591D01*
X131311192Y-66850718D01*
X131293485Y-66789941D01*
X131270141Y-66751116D01*
X131235273Y-66721192D01*
X131202580Y-66701771D01*
X131133283Y-66678226D01*
X131042830Y-66667904D01*
X130923757Y-66670222D01*
X130768598Y-66684594D01*
X130642062Y-66702754D01*
X130480609Y-66736404D01*
X130332637Y-66778657D01*
X130204426Y-66827057D01*
X130102257Y-66879148D01*
X130032412Y-66932475D01*
X130001171Y-66984582D01*
X130000659Y-67019499D01*
X129815938Y-67019499D01*
X129814442Y-66978776D01*
X129821955Y-66935296D01*
X129839163Y-66895295D01*
X129857340Y-66861893D01*
X129900387Y-66798833D01*
X129953298Y-66751370D01*
X130032129Y-66703548D01*
X130088974Y-66668522D01*
X130113871Y-66639837D01*
X130110780Y-66610805D01*
X130100346Y-66573103D01*
X130099485Y-66487827D01*
X130100666Y-66481065D01*
X130285854Y-66481065D01*
X130289031Y-66536995D01*
X130299498Y-66568636D01*
X130301274Y-66569596D01*
X130335099Y-66569635D01*
X130402511Y-66561032D01*
X130494722Y-66545104D01*
X130602943Y-66523169D01*
X130889272Y-66461248D01*
X130870550Y-66395954D01*
X130855196Y-66354772D01*
X130790763Y-66269440D01*
X130689333Y-66209684D01*
X130660047Y-66199947D01*
X130553546Y-66191152D01*
X130453992Y-66219777D01*
X130370301Y-66280020D01*
X130311388Y-66366074D01*
X130286167Y-66472138D01*
X130285854Y-66481065D01*
X130100666Y-66481065D01*
X130116845Y-66388457D01*
X130149264Y-66290343D01*
X130193581Y-66208836D01*
X130234615Y-66159168D01*
X130339607Y-66075575D01*
X130458622Y-66026332D01*
X130584255Y-66010025D01*
X130709099Y-66025238D01*
X130825747Y-66070555D01*
X130926789Y-66144562D01*
X131004820Y-66245840D01*
X131052433Y-66372976D01*
X131059031Y-66402395D01*
X131067744Y-66429779D01*
X131075808Y-66455128D01*
X131097957Y-66479376D01*
X131133874Y-66486876D01*
X131161248Y-66490123D01*
X131260231Y-66520580D01*
X131352879Y-66573197D01*
X131419857Y-66637772D01*
X131441365Y-66674477D01*
X131474895Y-66766687D01*
X131503590Y-66897873D01*
X131528893Y-67041376D01*
X131536946Y-67087047D01*
X131757820Y-67157965D01*
G37*
D14*
%TO.C,U3*%
X158350000Y-78200000D02*
X151050000Y-78200000D01*
X158350000Y-83700000D02*
X151050000Y-83700000D01*
X151050000Y-83700000D02*
X151050000Y-82550000D01*
%TO.C,C13*%
X121965000Y-109588748D02*
X121965000Y-110111252D01*
X123435000Y-109588748D02*
X123435000Y-110111252D01*
%TO.C,U6*%
X131500000Y-50800000D02*
X124200000Y-50800000D01*
X124200000Y-56300000D02*
X124200000Y-55150000D01*
X131500000Y-56300000D02*
X124200000Y-56300000D01*
%TO.C,G\u002A\u002A\u002A*%
G36*
X154212709Y-101235677D02*
G01*
X154159860Y-101229154D01*
X154079136Y-101216123D01*
X154021250Y-101203058D01*
X154008694Y-101199454D01*
X153939100Y-101182570D01*
X153861821Y-101167081D01*
X153764803Y-101149974D01*
X153786658Y-101026026D01*
X153969579Y-101026026D01*
X154191335Y-101065128D01*
X154222616Y-100887723D01*
X154000860Y-100848621D01*
X153969579Y-101026026D01*
X153786658Y-101026026D01*
X153822256Y-100824138D01*
X153602009Y-100746449D01*
X153553166Y-100728583D01*
X153436800Y-100681996D01*
X153326172Y-100632962D01*
X153239870Y-100589537D01*
X153139778Y-100530708D01*
X153057474Y-100470529D01*
X153014508Y-100415470D01*
X153011522Y-100370601D01*
X153216274Y-100370601D01*
X153227572Y-100387611D01*
X153272853Y-100420120D01*
X153345174Y-100461348D01*
X153436483Y-100506766D01*
X153538725Y-100551849D01*
X153543149Y-100553652D01*
X153632018Y-100584071D01*
X153754910Y-100618465D01*
X153901966Y-100654258D01*
X154063325Y-100688874D01*
X154080522Y-100692308D01*
X154300157Y-100731924D01*
X154489120Y-100756493D01*
X154658151Y-100766695D01*
X154817993Y-100763208D01*
X154979386Y-100746709D01*
X155142576Y-100724283D01*
X155099557Y-100650007D01*
X155074551Y-100608457D01*
X155029184Y-100535335D01*
X154972148Y-100444797D01*
X154910214Y-100347659D01*
X154909623Y-100346738D01*
X154853389Y-100257061D01*
X154808063Y-100180964D01*
X154778258Y-100126464D01*
X154768586Y-100101575D01*
X154769659Y-100099915D01*
X154799217Y-100088784D01*
X154860327Y-100076822D01*
X154941605Y-100066348D01*
X154955416Y-100064870D01*
X155035558Y-100053518D01*
X155094699Y-100040520D01*
X155120887Y-100028408D01*
X155119307Y-100018330D01*
X155099429Y-99974871D01*
X155061062Y-99904621D01*
X155008100Y-99814564D01*
X154944432Y-99711688D01*
X154907076Y-99652324D01*
X154847932Y-99556656D01*
X154800874Y-99478356D01*
X154769982Y-99424267D01*
X154759336Y-99401233D01*
X154768538Y-99395346D01*
X154811484Y-99386260D01*
X154877223Y-99379726D01*
X154920408Y-99376047D01*
X154973229Y-99367592D01*
X154994618Y-99358131D01*
X154991329Y-99349562D01*
X154968653Y-99308471D01*
X154927944Y-99240218D01*
X154873329Y-99151655D01*
X154808931Y-99049633D01*
X154772432Y-98991960D01*
X154713061Y-98895944D01*
X154665915Y-98816813D01*
X154635095Y-98761529D01*
X154624703Y-98737052D01*
X154643717Y-98726795D01*
X154689246Y-98727615D01*
X154738415Y-98733809D01*
X154783732Y-98732471D01*
X154802120Y-98714881D01*
X154793785Y-98675930D01*
X154758928Y-98610507D01*
X154697751Y-98513503D01*
X154563777Y-98306960D01*
X154367616Y-98455292D01*
X154300067Y-98507198D01*
X154234711Y-98562409D01*
X154203728Y-98600349D01*
X154205534Y-98625882D01*
X154238544Y-98643873D01*
X154301172Y-98659187D01*
X154341814Y-98673194D01*
X154358295Y-98691832D01*
X154352443Y-98699665D01*
X154317183Y-98732105D01*
X154255513Y-98783505D01*
X154173710Y-98848698D01*
X154078055Y-98922515D01*
X154024329Y-98963594D01*
X153935656Y-99032500D01*
X153864275Y-99089412D01*
X153816427Y-99129316D01*
X153798354Y-99147198D01*
X153804895Y-99155868D01*
X153842019Y-99179070D01*
X153901495Y-99207679D01*
X153940798Y-99225884D01*
X153987761Y-99251943D01*
X154004919Y-99268209D01*
X153998780Y-99275391D01*
X153963329Y-99306634D01*
X153901732Y-99357279D01*
X153820165Y-99422291D01*
X153724802Y-99496635D01*
X153669585Y-99539765D01*
X153582007Y-99610556D01*
X153512297Y-99669998D01*
X153466500Y-99712859D01*
X153450665Y-99733903D01*
X153451206Y-99735605D01*
X153476132Y-99757921D01*
X153530290Y-99791388D01*
X153603203Y-99829442D01*
X153612933Y-99834172D01*
X153685089Y-99870482D01*
X153738350Y-99899384D01*
X153761792Y-99914984D01*
X153757993Y-99922030D01*
X153726421Y-99952906D01*
X153668164Y-100003138D01*
X153589075Y-100067747D01*
X153495014Y-100141753D01*
X153440664Y-100184055D01*
X153352502Y-100253897D01*
X153281594Y-100311653D01*
X153234123Y-100352247D01*
X153216274Y-100370601D01*
X153011522Y-100370601D01*
X153010817Y-100360011D01*
X153046338Y-100298632D01*
X153121008Y-100225817D01*
X153234767Y-100136044D01*
X153314145Y-100075166D01*
X153382991Y-100019784D01*
X153429993Y-99978976D01*
X153447910Y-99958763D01*
X153438660Y-99943307D01*
X153401253Y-99907975D01*
X153344573Y-99864027D01*
X153319254Y-99845458D01*
X153269285Y-99802077D01*
X153247175Y-99764501D01*
X153244472Y-99720618D01*
X153244714Y-99717954D01*
X153252847Y-99685588D01*
X153274426Y-99651522D01*
X153315299Y-99609703D01*
X153381315Y-99554081D01*
X153478319Y-99478602D01*
X153706627Y-99304206D01*
X153647160Y-99238052D01*
X153637198Y-99226219D01*
X153604610Y-99172385D01*
X153595348Y-99128486D01*
X153595690Y-99127066D01*
X153618145Y-99095440D01*
X153669035Y-99044269D01*
X153741166Y-98980317D01*
X153827347Y-98910348D01*
X153899148Y-98854098D01*
X153967943Y-98798194D01*
X154009183Y-98760069D01*
X154027658Y-98734327D01*
X154028156Y-98715571D01*
X154015469Y-98698407D01*
X153992310Y-98671854D01*
X153972333Y-98630843D01*
X153977788Y-98588359D01*
X154011753Y-98538627D01*
X154077304Y-98475870D01*
X154177519Y-98394316D01*
X154218595Y-98362162D01*
X154332093Y-98273804D01*
X154417102Y-98208991D01*
X154478815Y-98164301D01*
X154522427Y-98136317D01*
X154553132Y-98121618D01*
X154576125Y-98116783D01*
X154596598Y-98118394D01*
X154610245Y-98123079D01*
X154655835Y-98157234D01*
X154700259Y-98210983D01*
X154777060Y-98329913D01*
X154863051Y-98467298D01*
X154933796Y-98585366D01*
X154986722Y-98679669D01*
X155019261Y-98745765D01*
X155028842Y-98779205D01*
X155006551Y-98815075D01*
X154961634Y-98852007D01*
X154900620Y-98889678D01*
X155050134Y-99128143D01*
X155053418Y-99133394D01*
X155109664Y-99227903D01*
X155154465Y-99311569D01*
X155183354Y-99375488D01*
X155191865Y-99410750D01*
X155191107Y-99414749D01*
X155176146Y-99449958D01*
X155140590Y-99479887D01*
X155073349Y-99514220D01*
X155058905Y-99522542D01*
X155050076Y-99538038D01*
X155055246Y-99564784D01*
X155077119Y-99609364D01*
X155118396Y-99678361D01*
X155181781Y-99778360D01*
X155188515Y-99788892D01*
X155251857Y-99890267D01*
X155293174Y-99963039D01*
X155315888Y-100014879D01*
X155323419Y-100053457D01*
X155319189Y-100086446D01*
X155314182Y-100102346D01*
X155292437Y-100137350D01*
X155250430Y-100162729D01*
X155176076Y-100186970D01*
X155121917Y-100203405D01*
X155069177Y-100222855D01*
X155047409Y-100235886D01*
X155057296Y-100259173D01*
X155086855Y-100312500D01*
X155131512Y-100387919D01*
X155186691Y-100477490D01*
X155252153Y-100586237D01*
X155300972Y-100684875D01*
X155317545Y-100755135D01*
X155318272Y-100758216D01*
X155302128Y-100811650D01*
X155250621Y-100850573D01*
X155161829Y-100880374D01*
X155033830Y-100906446D01*
X154989503Y-100912801D01*
X154883926Y-100922296D01*
X154761882Y-100928196D01*
X154641785Y-100929422D01*
X154398742Y-100926259D01*
X154368740Y-101096409D01*
X154341759Y-101249426D01*
X154212709Y-101235677D01*
G37*
G36*
X155683040Y-97936545D02*
G01*
X155807827Y-98040239D01*
X156025700Y-98261596D01*
X156207232Y-98503016D01*
X156352520Y-98760783D01*
X156461660Y-99031179D01*
X156534752Y-99310489D01*
X156571892Y-99594997D01*
X156573177Y-99880986D01*
X156552444Y-100051650D01*
X156538707Y-100164739D01*
X156468578Y-100442540D01*
X156362887Y-100710672D01*
X156221735Y-100965419D01*
X156045215Y-101203066D01*
X155833429Y-101419895D01*
X155586471Y-101612190D01*
X155494583Y-101671761D01*
X155220097Y-101819224D01*
X154938435Y-101924205D01*
X154643645Y-101988610D01*
X154329773Y-102014343D01*
X154192266Y-102011353D01*
X153943806Y-101980890D01*
X153688639Y-101921540D01*
X153440736Y-101836860D01*
X153214070Y-101730407D01*
X153145141Y-101690877D01*
X152890896Y-101513392D01*
X152664722Y-101303498D01*
X152469301Y-101065372D01*
X152307314Y-100803190D01*
X152181439Y-100521133D01*
X152094358Y-100223375D01*
X152048751Y-99914096D01*
X152046809Y-99728680D01*
X152224916Y-99728680D01*
X152242956Y-100009262D01*
X152298159Y-100283627D01*
X152389014Y-100547911D01*
X152514011Y-100798256D01*
X152671637Y-101030798D01*
X152860382Y-101241676D01*
X153078734Y-101427027D01*
X153325183Y-101582991D01*
X153598217Y-101705705D01*
X153737847Y-101751166D01*
X154026378Y-101811229D01*
X154318252Y-101829306D01*
X154608707Y-101806612D01*
X154892980Y-101744367D01*
X155166308Y-101643787D01*
X155423929Y-101506091D01*
X155661078Y-101332494D01*
X155872995Y-101124217D01*
X155974006Y-101000485D01*
X156106390Y-100802137D01*
X156224599Y-100574688D01*
X156280786Y-100430743D01*
X156335498Y-100232737D01*
X156374561Y-100020285D01*
X156395156Y-99809319D01*
X156394461Y-99615771D01*
X156392787Y-99593760D01*
X156369223Y-99415387D01*
X156329434Y-99227087D01*
X156277866Y-99047152D01*
X156218966Y-98893870D01*
X156119998Y-98709221D01*
X155982058Y-98507978D01*
X155821451Y-98316177D01*
X155648034Y-98145505D01*
X155471661Y-98007650D01*
X155439314Y-97986405D01*
X155196881Y-97855783D01*
X154931534Y-97757159D01*
X154652071Y-97692094D01*
X154367287Y-97662149D01*
X154085978Y-97668886D01*
X153816937Y-97713867D01*
X153791752Y-97720342D01*
X153544315Y-97805270D01*
X153298251Y-97925854D01*
X153066014Y-98075168D01*
X152860057Y-98246280D01*
X152725147Y-98387235D01*
X152583597Y-98573503D01*
X152457031Y-98789514D01*
X152408893Y-98888249D01*
X152306374Y-99164312D01*
X152245553Y-99445743D01*
X152224916Y-99728680D01*
X152046809Y-99728680D01*
X152045660Y-99619016D01*
X152083685Y-99314030D01*
X152161794Y-99020251D01*
X152277549Y-98741284D01*
X152428513Y-98480735D01*
X152612248Y-98242213D01*
X152826317Y-98029321D01*
X153068280Y-97845668D01*
X153335702Y-97694858D01*
X153626144Y-97580499D01*
X153833557Y-97515114D01*
X153843971Y-97456475D01*
X154032005Y-97456475D01*
X154037212Y-97484617D01*
X154054460Y-97489182D01*
X154062611Y-97487653D01*
X154205232Y-97473217D01*
X154375673Y-97474237D01*
X154560763Y-97489648D01*
X154747330Y-97518383D01*
X154922199Y-97559378D01*
X154972647Y-97574233D01*
X155077679Y-97608122D01*
X155170234Y-97641602D01*
X155234757Y-97669206D01*
X155330391Y-97717408D01*
X155357558Y-97563341D01*
X155368433Y-97495071D01*
X155372580Y-97431903D01*
X155363923Y-97387435D01*
X155341392Y-97347391D01*
X155317313Y-97317959D01*
X155260248Y-97272133D01*
X155178781Y-97231497D01*
X155066095Y-97192949D01*
X154915379Y-97153388D01*
X154790263Y-97127174D01*
X154627037Y-97103575D01*
X154473537Y-97092670D01*
X154336505Y-97094301D01*
X154222681Y-97108306D01*
X154138810Y-97134528D01*
X154091631Y-97172808D01*
X154079208Y-97205444D01*
X154062219Y-97270705D01*
X154045940Y-97351094D01*
X154038344Y-97396745D01*
X154032005Y-97456475D01*
X153843971Y-97456475D01*
X153871417Y-97301938D01*
X153882196Y-97242982D01*
X153900174Y-97159151D01*
X153918148Y-97103487D01*
X153940080Y-97065199D01*
X153969931Y-97033496D01*
X153998436Y-97008325D01*
X154060455Y-96963791D01*
X154126409Y-96937287D01*
X154216841Y-96919311D01*
X154282238Y-96905839D01*
X154315444Y-96887400D01*
X154316292Y-96883981D01*
X154514228Y-96883981D01*
X154515569Y-96885491D01*
X154547341Y-96897096D01*
X154613630Y-96912068D01*
X154705728Y-96928639D01*
X154814925Y-96945040D01*
X155105164Y-96984784D01*
X155109903Y-96917025D01*
X155109559Y-96873074D01*
X155078198Y-96770851D01*
X155003322Y-96680007D01*
X154979133Y-96660842D01*
X154882062Y-96616152D01*
X154778722Y-96609001D01*
X154679474Y-96636986D01*
X154594682Y-96697701D01*
X154534706Y-96788743D01*
X154531358Y-96797024D01*
X154515215Y-96850668D01*
X154514228Y-96883981D01*
X154316292Y-96883981D01*
X154322469Y-96859062D01*
X154325559Y-96820065D01*
X154353916Y-96739637D01*
X154404216Y-96652197D01*
X154468237Y-96571088D01*
X154537758Y-96509654D01*
X154593305Y-96477016D01*
X154720555Y-96434373D01*
X154849235Y-96428805D01*
X154972869Y-96456451D01*
X155084981Y-96513446D01*
X155179094Y-96595925D01*
X155248731Y-96700027D01*
X155287417Y-96821886D01*
X155288676Y-96957639D01*
X155284814Y-96987541D01*
X155283635Y-97016253D01*
X155282543Y-97042832D01*
X155295063Y-97073193D01*
X155326249Y-97092525D01*
X155350862Y-97104938D01*
X155433459Y-97167413D01*
X155502523Y-97248544D01*
X155543375Y-97332133D01*
X155551033Y-97373980D01*
X155551003Y-97472098D01*
X155533099Y-97605186D01*
X155507796Y-97748689D01*
X155499743Y-97794360D01*
X155683040Y-97936545D01*
G37*
G36*
X147912709Y-51005677D02*
G01*
X147859860Y-50999154D01*
X147779136Y-50986123D01*
X147721250Y-50973058D01*
X147708694Y-50969454D01*
X147639100Y-50952570D01*
X147561821Y-50937081D01*
X147464803Y-50919974D01*
X147486658Y-50796026D01*
X147669579Y-50796026D01*
X147891335Y-50835128D01*
X147922616Y-50657723D01*
X147700860Y-50618621D01*
X147669579Y-50796026D01*
X147486658Y-50796026D01*
X147522256Y-50594138D01*
X147302009Y-50516449D01*
X147253166Y-50498583D01*
X147136800Y-50451996D01*
X147026172Y-50402962D01*
X146939870Y-50359537D01*
X146839778Y-50300708D01*
X146757474Y-50240529D01*
X146714508Y-50185470D01*
X146711522Y-50140601D01*
X146916274Y-50140601D01*
X146927572Y-50157611D01*
X146972853Y-50190120D01*
X147045174Y-50231348D01*
X147136483Y-50276766D01*
X147238725Y-50321849D01*
X147243149Y-50323652D01*
X147332018Y-50354071D01*
X147454910Y-50388465D01*
X147601966Y-50424258D01*
X147763325Y-50458874D01*
X147780522Y-50462308D01*
X148000157Y-50501924D01*
X148189120Y-50526493D01*
X148358151Y-50536695D01*
X148517993Y-50533208D01*
X148679386Y-50516709D01*
X148842576Y-50494283D01*
X148799557Y-50420007D01*
X148774551Y-50378457D01*
X148729184Y-50305335D01*
X148672148Y-50214797D01*
X148610214Y-50117659D01*
X148609623Y-50116738D01*
X148553389Y-50027061D01*
X148508063Y-49950964D01*
X148478258Y-49896464D01*
X148468586Y-49871575D01*
X148469659Y-49869915D01*
X148499217Y-49858784D01*
X148560327Y-49846822D01*
X148641605Y-49836348D01*
X148655416Y-49834870D01*
X148735558Y-49823518D01*
X148794699Y-49810520D01*
X148820887Y-49798408D01*
X148819307Y-49788330D01*
X148799429Y-49744871D01*
X148761062Y-49674621D01*
X148708100Y-49584564D01*
X148644432Y-49481688D01*
X148607076Y-49422324D01*
X148547932Y-49326656D01*
X148500874Y-49248356D01*
X148469982Y-49194267D01*
X148459336Y-49171233D01*
X148468538Y-49165346D01*
X148511484Y-49156260D01*
X148577223Y-49149726D01*
X148620408Y-49146047D01*
X148673229Y-49137592D01*
X148694618Y-49128131D01*
X148691329Y-49119562D01*
X148668653Y-49078471D01*
X148627944Y-49010218D01*
X148573329Y-48921655D01*
X148508931Y-48819633D01*
X148472432Y-48761960D01*
X148413061Y-48665944D01*
X148365915Y-48586813D01*
X148335095Y-48531529D01*
X148324703Y-48507052D01*
X148343717Y-48496795D01*
X148389246Y-48497615D01*
X148438415Y-48503809D01*
X148483732Y-48502471D01*
X148502120Y-48484881D01*
X148493785Y-48445930D01*
X148458928Y-48380507D01*
X148397751Y-48283503D01*
X148263777Y-48076960D01*
X148067616Y-48225292D01*
X148000067Y-48277198D01*
X147934711Y-48332409D01*
X147903728Y-48370349D01*
X147905534Y-48395882D01*
X147938544Y-48413873D01*
X148001172Y-48429187D01*
X148041814Y-48443194D01*
X148058295Y-48461832D01*
X148052443Y-48469665D01*
X148017183Y-48502105D01*
X147955513Y-48553505D01*
X147873710Y-48618698D01*
X147778055Y-48692515D01*
X147724329Y-48733594D01*
X147635656Y-48802500D01*
X147564275Y-48859412D01*
X147516427Y-48899316D01*
X147498354Y-48917198D01*
X147504895Y-48925868D01*
X147542019Y-48949070D01*
X147601495Y-48977679D01*
X147640798Y-48995884D01*
X147687761Y-49021943D01*
X147704919Y-49038209D01*
X147698780Y-49045391D01*
X147663329Y-49076634D01*
X147601732Y-49127279D01*
X147520165Y-49192291D01*
X147424802Y-49266635D01*
X147369585Y-49309765D01*
X147282007Y-49380556D01*
X147212297Y-49439998D01*
X147166500Y-49482859D01*
X147150665Y-49503903D01*
X147151206Y-49505605D01*
X147176132Y-49527921D01*
X147230290Y-49561388D01*
X147303203Y-49599442D01*
X147312933Y-49604172D01*
X147385089Y-49640482D01*
X147438350Y-49669384D01*
X147461792Y-49684984D01*
X147457993Y-49692030D01*
X147426421Y-49722906D01*
X147368164Y-49773138D01*
X147289075Y-49837747D01*
X147195014Y-49911753D01*
X147140664Y-49954055D01*
X147052502Y-50023897D01*
X146981594Y-50081653D01*
X146934123Y-50122247D01*
X146916274Y-50140601D01*
X146711522Y-50140601D01*
X146710817Y-50130011D01*
X146746338Y-50068632D01*
X146821008Y-49995817D01*
X146934767Y-49906044D01*
X147014145Y-49845166D01*
X147082991Y-49789784D01*
X147129993Y-49748976D01*
X147147910Y-49728763D01*
X147138660Y-49713307D01*
X147101253Y-49677975D01*
X147044573Y-49634027D01*
X147019254Y-49615458D01*
X146969285Y-49572077D01*
X146947175Y-49534501D01*
X146944472Y-49490618D01*
X146944714Y-49487954D01*
X146952847Y-49455588D01*
X146974426Y-49421522D01*
X147015299Y-49379703D01*
X147081315Y-49324081D01*
X147178319Y-49248602D01*
X147406627Y-49074206D01*
X147347160Y-49008052D01*
X147337198Y-48996219D01*
X147304610Y-48942385D01*
X147295348Y-48898486D01*
X147295690Y-48897066D01*
X147318145Y-48865440D01*
X147369035Y-48814269D01*
X147441166Y-48750317D01*
X147527347Y-48680348D01*
X147599148Y-48624098D01*
X147667943Y-48568194D01*
X147709183Y-48530069D01*
X147727658Y-48504327D01*
X147728156Y-48485571D01*
X147715469Y-48468407D01*
X147692310Y-48441854D01*
X147672333Y-48400843D01*
X147677788Y-48358359D01*
X147711753Y-48308627D01*
X147777304Y-48245870D01*
X147877519Y-48164316D01*
X147918595Y-48132162D01*
X148032093Y-48043804D01*
X148117102Y-47978991D01*
X148178815Y-47934301D01*
X148222427Y-47906317D01*
X148253132Y-47891618D01*
X148276125Y-47886783D01*
X148296598Y-47888394D01*
X148310245Y-47893079D01*
X148355835Y-47927234D01*
X148400259Y-47980983D01*
X148477060Y-48099913D01*
X148563051Y-48237298D01*
X148633796Y-48355366D01*
X148686722Y-48449669D01*
X148719261Y-48515765D01*
X148728842Y-48549205D01*
X148706551Y-48585075D01*
X148661634Y-48622007D01*
X148600620Y-48659678D01*
X148750134Y-48898143D01*
X148753418Y-48903394D01*
X148809664Y-48997903D01*
X148854465Y-49081569D01*
X148883354Y-49145488D01*
X148891865Y-49180750D01*
X148891107Y-49184749D01*
X148876146Y-49219958D01*
X148840590Y-49249887D01*
X148773349Y-49284220D01*
X148758905Y-49292542D01*
X148750076Y-49308038D01*
X148755246Y-49334784D01*
X148777119Y-49379364D01*
X148818396Y-49448361D01*
X148881781Y-49548360D01*
X148888515Y-49558892D01*
X148951857Y-49660267D01*
X148993174Y-49733039D01*
X149015888Y-49784879D01*
X149023419Y-49823457D01*
X149019189Y-49856446D01*
X149014182Y-49872346D01*
X148992437Y-49907350D01*
X148950430Y-49932729D01*
X148876076Y-49956970D01*
X148821917Y-49973405D01*
X148769177Y-49992855D01*
X148747409Y-50005886D01*
X148757296Y-50029173D01*
X148786855Y-50082500D01*
X148831512Y-50157919D01*
X148886691Y-50247490D01*
X148952153Y-50356237D01*
X149000972Y-50454875D01*
X149017545Y-50525135D01*
X149018272Y-50528216D01*
X149002128Y-50581650D01*
X148950621Y-50620573D01*
X148861829Y-50650374D01*
X148733830Y-50676446D01*
X148689503Y-50682801D01*
X148583926Y-50692296D01*
X148461882Y-50698196D01*
X148341785Y-50699422D01*
X148098742Y-50696259D01*
X148068740Y-50866409D01*
X148041759Y-51019426D01*
X147912709Y-51005677D01*
G37*
G36*
X149383040Y-47706545D02*
G01*
X149507827Y-47810239D01*
X149725700Y-48031596D01*
X149907232Y-48273016D01*
X150052520Y-48530783D01*
X150161660Y-48801179D01*
X150234752Y-49080489D01*
X150271892Y-49364997D01*
X150273177Y-49650986D01*
X150252444Y-49821650D01*
X150238707Y-49934739D01*
X150168578Y-50212540D01*
X150062887Y-50480672D01*
X149921735Y-50735419D01*
X149745215Y-50973066D01*
X149533429Y-51189895D01*
X149286471Y-51382190D01*
X149194583Y-51441761D01*
X148920097Y-51589224D01*
X148638435Y-51694205D01*
X148343645Y-51758610D01*
X148029773Y-51784343D01*
X147892266Y-51781353D01*
X147643806Y-51750890D01*
X147388639Y-51691540D01*
X147140736Y-51606860D01*
X146914070Y-51500407D01*
X146845141Y-51460877D01*
X146590896Y-51283392D01*
X146364722Y-51073498D01*
X146169301Y-50835372D01*
X146007314Y-50573190D01*
X145881439Y-50291133D01*
X145794358Y-49993375D01*
X145748751Y-49684096D01*
X145746809Y-49498680D01*
X145924916Y-49498680D01*
X145942956Y-49779262D01*
X145998159Y-50053627D01*
X146089014Y-50317911D01*
X146214011Y-50568256D01*
X146371637Y-50800798D01*
X146560382Y-51011676D01*
X146778734Y-51197027D01*
X147025183Y-51352991D01*
X147298217Y-51475705D01*
X147437847Y-51521166D01*
X147726378Y-51581229D01*
X148018252Y-51599306D01*
X148308707Y-51576612D01*
X148592980Y-51514367D01*
X148866308Y-51413787D01*
X149123929Y-51276091D01*
X149361078Y-51102494D01*
X149572995Y-50894217D01*
X149674006Y-50770485D01*
X149806390Y-50572137D01*
X149924599Y-50344688D01*
X149980786Y-50200743D01*
X150035498Y-50002737D01*
X150074561Y-49790285D01*
X150095156Y-49579319D01*
X150094461Y-49385771D01*
X150092787Y-49363760D01*
X150069223Y-49185387D01*
X150029434Y-48997087D01*
X149977866Y-48817152D01*
X149918966Y-48663870D01*
X149819998Y-48479221D01*
X149682058Y-48277978D01*
X149521451Y-48086177D01*
X149348034Y-47915505D01*
X149171661Y-47777650D01*
X149139314Y-47756405D01*
X148896881Y-47625783D01*
X148631534Y-47527159D01*
X148352071Y-47462094D01*
X148067287Y-47432149D01*
X147785978Y-47438886D01*
X147516937Y-47483867D01*
X147491752Y-47490342D01*
X147244315Y-47575270D01*
X146998251Y-47695854D01*
X146766014Y-47845168D01*
X146560057Y-48016280D01*
X146425147Y-48157235D01*
X146283597Y-48343503D01*
X146157031Y-48559514D01*
X146108893Y-48658249D01*
X146006374Y-48934312D01*
X145945553Y-49215743D01*
X145924916Y-49498680D01*
X145746809Y-49498680D01*
X145745660Y-49389016D01*
X145783685Y-49084030D01*
X145861794Y-48790251D01*
X145977549Y-48511284D01*
X146128513Y-48250735D01*
X146312248Y-48012213D01*
X146526317Y-47799321D01*
X146768280Y-47615668D01*
X147035702Y-47464858D01*
X147326144Y-47350499D01*
X147533557Y-47285114D01*
X147543971Y-47226475D01*
X147732005Y-47226475D01*
X147737212Y-47254617D01*
X147754460Y-47259182D01*
X147762611Y-47257653D01*
X147905232Y-47243217D01*
X148075673Y-47244237D01*
X148260763Y-47259648D01*
X148447330Y-47288383D01*
X148622199Y-47329378D01*
X148672647Y-47344233D01*
X148777679Y-47378122D01*
X148870234Y-47411602D01*
X148934757Y-47439206D01*
X149030391Y-47487408D01*
X149057558Y-47333341D01*
X149068433Y-47265071D01*
X149072580Y-47201903D01*
X149063923Y-47157435D01*
X149041392Y-47117391D01*
X149017313Y-47087959D01*
X148960248Y-47042133D01*
X148878781Y-47001497D01*
X148766095Y-46962949D01*
X148615379Y-46923388D01*
X148490263Y-46897174D01*
X148327037Y-46873575D01*
X148173537Y-46862670D01*
X148036505Y-46864301D01*
X147922681Y-46878306D01*
X147838810Y-46904528D01*
X147791631Y-46942808D01*
X147779208Y-46975444D01*
X147762219Y-47040705D01*
X147745940Y-47121094D01*
X147738344Y-47166745D01*
X147732005Y-47226475D01*
X147543971Y-47226475D01*
X147571417Y-47071938D01*
X147582196Y-47012982D01*
X147600174Y-46929151D01*
X147618148Y-46873487D01*
X147640080Y-46835199D01*
X147669931Y-46803496D01*
X147698436Y-46778325D01*
X147760455Y-46733791D01*
X147826409Y-46707287D01*
X147916841Y-46689311D01*
X147982238Y-46675839D01*
X148015444Y-46657400D01*
X148016292Y-46653981D01*
X148214228Y-46653981D01*
X148215569Y-46655491D01*
X148247341Y-46667096D01*
X148313630Y-46682068D01*
X148405728Y-46698639D01*
X148514925Y-46715040D01*
X148805164Y-46754784D01*
X148809903Y-46687025D01*
X148809559Y-46643074D01*
X148778198Y-46540851D01*
X148703322Y-46450007D01*
X148679133Y-46430842D01*
X148582062Y-46386152D01*
X148478722Y-46379001D01*
X148379474Y-46406986D01*
X148294682Y-46467701D01*
X148234706Y-46558743D01*
X148231358Y-46567024D01*
X148215215Y-46620668D01*
X148214228Y-46653981D01*
X148016292Y-46653981D01*
X148022469Y-46629062D01*
X148025559Y-46590065D01*
X148053916Y-46509637D01*
X148104216Y-46422197D01*
X148168237Y-46341088D01*
X148237758Y-46279654D01*
X148293305Y-46247016D01*
X148420555Y-46204373D01*
X148549235Y-46198805D01*
X148672869Y-46226451D01*
X148784981Y-46283446D01*
X148879094Y-46365925D01*
X148948731Y-46470027D01*
X148987417Y-46591886D01*
X148988676Y-46727639D01*
X148984814Y-46757541D01*
X148983635Y-46786253D01*
X148982543Y-46812832D01*
X148995063Y-46843193D01*
X149026249Y-46862525D01*
X149050862Y-46874938D01*
X149133459Y-46937413D01*
X149202523Y-47018544D01*
X149243375Y-47102133D01*
X149251033Y-47143980D01*
X149251003Y-47242098D01*
X149233099Y-47375186D01*
X149207796Y-47518689D01*
X149199743Y-47564360D01*
X149383040Y-47706545D01*
G37*
G36*
X149422709Y-74155677D02*
G01*
X149369860Y-74149154D01*
X149289136Y-74136123D01*
X149231250Y-74123058D01*
X149218694Y-74119454D01*
X149149100Y-74102570D01*
X149071821Y-74087081D01*
X148974803Y-74069974D01*
X148996658Y-73946026D01*
X149179579Y-73946026D01*
X149401335Y-73985128D01*
X149432616Y-73807723D01*
X149210860Y-73768621D01*
X149179579Y-73946026D01*
X148996658Y-73946026D01*
X149032256Y-73744138D01*
X148812009Y-73666449D01*
X148763166Y-73648583D01*
X148646800Y-73601996D01*
X148536172Y-73552962D01*
X148449870Y-73509537D01*
X148349778Y-73450708D01*
X148267474Y-73390529D01*
X148224508Y-73335470D01*
X148221522Y-73290601D01*
X148426274Y-73290601D01*
X148437572Y-73307611D01*
X148482853Y-73340120D01*
X148555174Y-73381348D01*
X148646483Y-73426766D01*
X148748725Y-73471849D01*
X148753149Y-73473652D01*
X148842018Y-73504071D01*
X148964910Y-73538465D01*
X149111966Y-73574258D01*
X149273325Y-73608874D01*
X149290522Y-73612308D01*
X149510157Y-73651924D01*
X149699120Y-73676493D01*
X149868151Y-73686695D01*
X150027993Y-73683208D01*
X150189386Y-73666709D01*
X150352576Y-73644283D01*
X150309557Y-73570007D01*
X150284551Y-73528457D01*
X150239184Y-73455335D01*
X150182148Y-73364797D01*
X150120214Y-73267659D01*
X150119623Y-73266738D01*
X150063389Y-73177061D01*
X150018063Y-73100964D01*
X149988258Y-73046464D01*
X149978586Y-73021575D01*
X149979659Y-73019915D01*
X150009217Y-73008784D01*
X150070327Y-72996822D01*
X150151605Y-72986348D01*
X150165416Y-72984870D01*
X150245558Y-72973518D01*
X150304699Y-72960520D01*
X150330887Y-72948408D01*
X150329307Y-72938330D01*
X150309429Y-72894871D01*
X150271062Y-72824621D01*
X150218100Y-72734564D01*
X150154432Y-72631688D01*
X150117076Y-72572324D01*
X150057932Y-72476656D01*
X150010874Y-72398356D01*
X149979982Y-72344267D01*
X149969336Y-72321233D01*
X149978538Y-72315346D01*
X150021484Y-72306260D01*
X150087223Y-72299726D01*
X150130408Y-72296047D01*
X150183229Y-72287592D01*
X150204618Y-72278131D01*
X150201329Y-72269562D01*
X150178653Y-72228471D01*
X150137944Y-72160218D01*
X150083329Y-72071655D01*
X150018931Y-71969633D01*
X149982432Y-71911960D01*
X149923061Y-71815944D01*
X149875915Y-71736813D01*
X149845095Y-71681529D01*
X149834703Y-71657052D01*
X149853717Y-71646795D01*
X149899246Y-71647615D01*
X149948415Y-71653809D01*
X149993732Y-71652471D01*
X150012120Y-71634881D01*
X150003785Y-71595930D01*
X149968928Y-71530507D01*
X149907751Y-71433503D01*
X149773777Y-71226960D01*
X149577616Y-71375292D01*
X149510067Y-71427198D01*
X149444711Y-71482409D01*
X149413728Y-71520349D01*
X149415534Y-71545882D01*
X149448544Y-71563873D01*
X149511172Y-71579187D01*
X149551814Y-71593194D01*
X149568295Y-71611832D01*
X149562443Y-71619665D01*
X149527183Y-71652105D01*
X149465513Y-71703505D01*
X149383710Y-71768698D01*
X149288055Y-71842515D01*
X149234329Y-71883594D01*
X149145656Y-71952500D01*
X149074275Y-72009412D01*
X149026427Y-72049316D01*
X149008354Y-72067198D01*
X149014895Y-72075868D01*
X149052019Y-72099070D01*
X149111495Y-72127679D01*
X149150798Y-72145884D01*
X149197761Y-72171943D01*
X149214919Y-72188209D01*
X149208780Y-72195391D01*
X149173329Y-72226634D01*
X149111732Y-72277279D01*
X149030165Y-72342291D01*
X148934802Y-72416635D01*
X148879585Y-72459765D01*
X148792007Y-72530556D01*
X148722297Y-72589998D01*
X148676500Y-72632859D01*
X148660665Y-72653903D01*
X148661206Y-72655605D01*
X148686132Y-72677921D01*
X148740290Y-72711388D01*
X148813203Y-72749442D01*
X148822933Y-72754172D01*
X148895089Y-72790482D01*
X148948350Y-72819384D01*
X148971792Y-72834984D01*
X148967993Y-72842030D01*
X148936421Y-72872906D01*
X148878164Y-72923138D01*
X148799075Y-72987747D01*
X148705014Y-73061753D01*
X148650664Y-73104055D01*
X148562502Y-73173897D01*
X148491594Y-73231653D01*
X148444123Y-73272247D01*
X148426274Y-73290601D01*
X148221522Y-73290601D01*
X148220817Y-73280011D01*
X148256338Y-73218632D01*
X148331008Y-73145817D01*
X148444767Y-73056044D01*
X148524145Y-72995166D01*
X148592991Y-72939784D01*
X148639993Y-72898976D01*
X148657910Y-72878763D01*
X148648660Y-72863307D01*
X148611253Y-72827975D01*
X148554573Y-72784027D01*
X148529254Y-72765458D01*
X148479285Y-72722077D01*
X148457175Y-72684501D01*
X148454472Y-72640618D01*
X148454714Y-72637954D01*
X148462847Y-72605588D01*
X148484426Y-72571522D01*
X148525299Y-72529703D01*
X148591315Y-72474081D01*
X148688319Y-72398602D01*
X148916627Y-72224206D01*
X148857160Y-72158052D01*
X148847198Y-72146219D01*
X148814610Y-72092385D01*
X148805348Y-72048486D01*
X148805690Y-72047066D01*
X148828145Y-72015440D01*
X148879035Y-71964269D01*
X148951166Y-71900317D01*
X149037347Y-71830348D01*
X149109148Y-71774098D01*
X149177943Y-71718194D01*
X149219183Y-71680069D01*
X149237658Y-71654327D01*
X149238156Y-71635571D01*
X149225469Y-71618407D01*
X149202310Y-71591854D01*
X149182333Y-71550843D01*
X149187788Y-71508359D01*
X149221753Y-71458627D01*
X149287304Y-71395870D01*
X149387519Y-71314316D01*
X149428595Y-71282162D01*
X149542093Y-71193804D01*
X149627102Y-71128991D01*
X149688815Y-71084301D01*
X149732427Y-71056317D01*
X149763132Y-71041618D01*
X149786125Y-71036783D01*
X149806598Y-71038394D01*
X149820245Y-71043079D01*
X149865835Y-71077234D01*
X149910259Y-71130983D01*
X149987060Y-71249913D01*
X150073051Y-71387298D01*
X150143796Y-71505366D01*
X150196722Y-71599669D01*
X150229261Y-71665765D01*
X150238842Y-71699205D01*
X150216551Y-71735075D01*
X150171634Y-71772007D01*
X150110620Y-71809678D01*
X150260134Y-72048143D01*
X150263418Y-72053394D01*
X150319664Y-72147903D01*
X150364465Y-72231569D01*
X150393354Y-72295488D01*
X150401865Y-72330750D01*
X150401107Y-72334749D01*
X150386146Y-72369958D01*
X150350590Y-72399887D01*
X150283349Y-72434220D01*
X150268905Y-72442542D01*
X150260076Y-72458038D01*
X150265246Y-72484784D01*
X150287119Y-72529364D01*
X150328396Y-72598361D01*
X150391781Y-72698360D01*
X150398515Y-72708892D01*
X150461857Y-72810267D01*
X150503174Y-72883039D01*
X150525888Y-72934879D01*
X150533419Y-72973457D01*
X150529189Y-73006446D01*
X150524182Y-73022346D01*
X150502437Y-73057350D01*
X150460430Y-73082729D01*
X150386076Y-73106970D01*
X150331917Y-73123405D01*
X150279177Y-73142855D01*
X150257409Y-73155886D01*
X150267296Y-73179173D01*
X150296855Y-73232500D01*
X150341512Y-73307919D01*
X150396691Y-73397490D01*
X150462153Y-73506237D01*
X150510972Y-73604875D01*
X150527545Y-73675135D01*
X150528272Y-73678216D01*
X150512128Y-73731650D01*
X150460621Y-73770573D01*
X150371829Y-73800374D01*
X150243830Y-73826446D01*
X150199503Y-73832801D01*
X150093926Y-73842296D01*
X149971882Y-73848196D01*
X149851785Y-73849422D01*
X149608742Y-73846259D01*
X149578740Y-74016409D01*
X149551759Y-74169426D01*
X149422709Y-74155677D01*
G37*
G36*
X150893040Y-70856545D02*
G01*
X151017827Y-70960239D01*
X151235700Y-71181596D01*
X151417232Y-71423016D01*
X151562520Y-71680783D01*
X151671660Y-71951179D01*
X151744752Y-72230489D01*
X151781892Y-72514997D01*
X151783177Y-72800986D01*
X151762444Y-72971650D01*
X151748707Y-73084739D01*
X151678578Y-73362540D01*
X151572887Y-73630672D01*
X151431735Y-73885419D01*
X151255215Y-74123066D01*
X151043429Y-74339895D01*
X150796471Y-74532190D01*
X150704583Y-74591761D01*
X150430097Y-74739224D01*
X150148435Y-74844205D01*
X149853645Y-74908610D01*
X149539773Y-74934343D01*
X149402266Y-74931353D01*
X149153806Y-74900890D01*
X148898639Y-74841540D01*
X148650736Y-74756860D01*
X148424070Y-74650407D01*
X148355141Y-74610877D01*
X148100896Y-74433392D01*
X147874722Y-74223498D01*
X147679301Y-73985372D01*
X147517314Y-73723190D01*
X147391439Y-73441133D01*
X147304358Y-73143375D01*
X147258751Y-72834096D01*
X147256809Y-72648680D01*
X147434916Y-72648680D01*
X147452956Y-72929262D01*
X147508159Y-73203627D01*
X147599014Y-73467911D01*
X147724011Y-73718256D01*
X147881637Y-73950798D01*
X148070382Y-74161676D01*
X148288734Y-74347027D01*
X148535183Y-74502991D01*
X148808217Y-74625705D01*
X148947847Y-74671166D01*
X149236378Y-74731229D01*
X149528252Y-74749306D01*
X149818707Y-74726612D01*
X150102980Y-74664367D01*
X150376308Y-74563787D01*
X150633929Y-74426091D01*
X150871078Y-74252494D01*
X151082995Y-74044217D01*
X151184006Y-73920485D01*
X151316390Y-73722137D01*
X151434599Y-73494688D01*
X151490786Y-73350743D01*
X151545498Y-73152737D01*
X151584561Y-72940285D01*
X151605156Y-72729319D01*
X151604461Y-72535771D01*
X151602787Y-72513760D01*
X151579223Y-72335387D01*
X151539434Y-72147087D01*
X151487866Y-71967152D01*
X151428966Y-71813870D01*
X151329998Y-71629221D01*
X151192058Y-71427978D01*
X151031451Y-71236177D01*
X150858034Y-71065505D01*
X150681661Y-70927650D01*
X150649314Y-70906405D01*
X150406881Y-70775783D01*
X150141534Y-70677159D01*
X149862071Y-70612094D01*
X149577287Y-70582149D01*
X149295978Y-70588886D01*
X149026937Y-70633867D01*
X149001752Y-70640342D01*
X148754315Y-70725270D01*
X148508251Y-70845854D01*
X148276014Y-70995168D01*
X148070057Y-71166280D01*
X147935147Y-71307235D01*
X147793597Y-71493503D01*
X147667031Y-71709514D01*
X147618893Y-71808249D01*
X147516374Y-72084312D01*
X147455553Y-72365743D01*
X147434916Y-72648680D01*
X147256809Y-72648680D01*
X147255660Y-72539016D01*
X147293685Y-72234030D01*
X147371794Y-71940251D01*
X147487549Y-71661284D01*
X147638513Y-71400735D01*
X147822248Y-71162213D01*
X148036317Y-70949321D01*
X148278280Y-70765668D01*
X148545702Y-70614858D01*
X148836144Y-70500499D01*
X149043557Y-70435114D01*
X149053971Y-70376475D01*
X149242005Y-70376475D01*
X149247212Y-70404617D01*
X149264460Y-70409182D01*
X149272611Y-70407653D01*
X149415232Y-70393217D01*
X149585673Y-70394237D01*
X149770763Y-70409648D01*
X149957330Y-70438383D01*
X150132199Y-70479378D01*
X150182647Y-70494233D01*
X150287679Y-70528122D01*
X150380234Y-70561602D01*
X150444757Y-70589206D01*
X150540391Y-70637408D01*
X150567558Y-70483341D01*
X150578433Y-70415071D01*
X150582580Y-70351903D01*
X150573923Y-70307435D01*
X150551392Y-70267391D01*
X150527313Y-70237959D01*
X150470248Y-70192133D01*
X150388781Y-70151497D01*
X150276095Y-70112949D01*
X150125379Y-70073388D01*
X150000263Y-70047174D01*
X149837037Y-70023575D01*
X149683537Y-70012670D01*
X149546505Y-70014301D01*
X149432681Y-70028306D01*
X149348810Y-70054528D01*
X149301631Y-70092808D01*
X149289208Y-70125444D01*
X149272219Y-70190705D01*
X149255940Y-70271094D01*
X149248344Y-70316745D01*
X149242005Y-70376475D01*
X149053971Y-70376475D01*
X149081417Y-70221938D01*
X149092196Y-70162982D01*
X149110174Y-70079151D01*
X149128148Y-70023487D01*
X149150080Y-69985199D01*
X149179931Y-69953496D01*
X149208436Y-69928325D01*
X149270455Y-69883791D01*
X149336409Y-69857287D01*
X149426841Y-69839311D01*
X149492238Y-69825839D01*
X149525444Y-69807400D01*
X149526292Y-69803981D01*
X149724228Y-69803981D01*
X149725569Y-69805491D01*
X149757341Y-69817096D01*
X149823630Y-69832068D01*
X149915728Y-69848639D01*
X150024925Y-69865040D01*
X150315164Y-69904784D01*
X150319903Y-69837025D01*
X150319559Y-69793074D01*
X150288198Y-69690851D01*
X150213322Y-69600007D01*
X150189133Y-69580842D01*
X150092062Y-69536152D01*
X149988722Y-69529001D01*
X149889474Y-69556986D01*
X149804682Y-69617701D01*
X149744706Y-69708743D01*
X149741358Y-69717024D01*
X149725215Y-69770668D01*
X149724228Y-69803981D01*
X149526292Y-69803981D01*
X149532469Y-69779062D01*
X149535559Y-69740065D01*
X149563916Y-69659637D01*
X149614216Y-69572197D01*
X149678237Y-69491088D01*
X149747758Y-69429654D01*
X149803305Y-69397016D01*
X149930555Y-69354373D01*
X150059235Y-69348805D01*
X150182869Y-69376451D01*
X150294981Y-69433446D01*
X150389094Y-69515925D01*
X150458731Y-69620027D01*
X150497417Y-69741886D01*
X150498676Y-69877639D01*
X150494814Y-69907541D01*
X150493635Y-69936253D01*
X150492543Y-69962832D01*
X150505063Y-69993193D01*
X150536249Y-70012525D01*
X150560862Y-70024938D01*
X150643459Y-70087413D01*
X150712523Y-70168544D01*
X150753375Y-70252133D01*
X150761033Y-70293980D01*
X150761003Y-70392098D01*
X150743099Y-70525186D01*
X150717796Y-70668689D01*
X150709743Y-70714360D01*
X150893040Y-70856545D01*
G37*
%TO.C,U2*%
X113450000Y-112750000D02*
X113450000Y-111600000D01*
X120750000Y-107250000D02*
X113450000Y-107250000D01*
X120750000Y-112750000D02*
X113450000Y-112750000D01*
%TO.C,G\u002A\u002A\u002A*%
G36*
X149189948Y-105841079D02*
G01*
X149264451Y-105869423D01*
X149271154Y-105873525D01*
X149294755Y-105889096D01*
X149313754Y-105906007D01*
X149328713Y-105927741D01*
X149340197Y-105957781D01*
X149348768Y-105999610D01*
X149354990Y-106056710D01*
X149359425Y-106132566D01*
X149362638Y-106230658D01*
X149365192Y-106354472D01*
X149367650Y-106507489D01*
X149375822Y-107038499D01*
X149473892Y-106923566D01*
X149499206Y-106893843D01*
X149553703Y-106829663D01*
X149619397Y-106752136D01*
X149690175Y-106668477D01*
X149759928Y-106585899D01*
X149839617Y-106493718D01*
X149912827Y-106414952D01*
X149968972Y-106362282D01*
X150008627Y-106335128D01*
X150031297Y-106326051D01*
X150108227Y-106314465D01*
X150180504Y-106329516D01*
X150243520Y-106366542D01*
X150292667Y-106420877D01*
X150323340Y-106487856D01*
X150330930Y-106562816D01*
X150310832Y-106641093D01*
X150305115Y-106651266D01*
X150279200Y-106688381D01*
X150238120Y-106741988D01*
X150186181Y-106806550D01*
X150127689Y-106876533D01*
X150101937Y-106906772D01*
X149975315Y-107055496D01*
X149867630Y-107182042D01*
X149776963Y-107288681D01*
X149701389Y-107377683D01*
X149638989Y-107451319D01*
X149587840Y-107511858D01*
X149546020Y-107561571D01*
X149511608Y-107602728D01*
X149482681Y-107637600D01*
X149457318Y-107668457D01*
X149367280Y-107778511D01*
X149375822Y-109106081D01*
X149416685Y-109084358D01*
X149440728Y-109071084D01*
X149489042Y-109043704D01*
X149551652Y-109007800D01*
X149620996Y-108967691D01*
X149682526Y-108931977D01*
X149836311Y-108842940D01*
X149988760Y-108754972D01*
X150133154Y-108671938D01*
X150262779Y-108597702D01*
X150370917Y-108536130D01*
X150427649Y-108502414D01*
X150485236Y-108464498D01*
X150526847Y-108432794D01*
X150546040Y-108411871D01*
X150548531Y-108405439D01*
X150561420Y-108370489D01*
X150583498Y-108309718D01*
X150613535Y-108226539D01*
X150650302Y-108124369D01*
X150692567Y-108006621D01*
X150739103Y-107876710D01*
X150788679Y-107738052D01*
X150811351Y-107674700D01*
X150860056Y-107539396D01*
X150905458Y-107414321D01*
X150946289Y-107302906D01*
X150981279Y-107208583D01*
X151009161Y-107134781D01*
X151028666Y-107084931D01*
X151038524Y-107062465D01*
X151061333Y-107036351D01*
X151112729Y-107001381D01*
X151174054Y-106975474D01*
X151231935Y-106965346D01*
X151291819Y-106974584D01*
X151362823Y-107007584D01*
X151417077Y-107057724D01*
X151432822Y-107081247D01*
X151447483Y-107112097D01*
X151455034Y-107146852D01*
X151454815Y-107189311D01*
X151446163Y-107243277D01*
X151428419Y-107312550D01*
X151400920Y-107400930D01*
X151363007Y-107512218D01*
X151314017Y-107650216D01*
X151312693Y-107653906D01*
X151273690Y-107763236D01*
X151238892Y-107861869D01*
X151209683Y-107945796D01*
X151187446Y-108011008D01*
X151173565Y-108053498D01*
X151169422Y-108069256D01*
X151172451Y-108068191D01*
X151198154Y-108054802D01*
X151247149Y-108027730D01*
X151315980Y-107988931D01*
X151401187Y-107940362D01*
X151499314Y-107883978D01*
X151606903Y-107821737D01*
X151647114Y-107798486D01*
X151755323Y-107736782D01*
X151855196Y-107681045D01*
X151942770Y-107633410D01*
X152014087Y-107596008D01*
X152065183Y-107570974D01*
X152092099Y-107560440D01*
X152134278Y-107556415D01*
X152209573Y-107570250D01*
X152273196Y-107608061D01*
X152321210Y-107664433D01*
X152349679Y-107733952D01*
X152354667Y-107811203D01*
X152332237Y-107890772D01*
X152330124Y-107895215D01*
X152320651Y-107913866D01*
X152309478Y-107930863D01*
X152293645Y-107948201D01*
X152270190Y-107967869D01*
X152236152Y-107991861D01*
X152188570Y-108022169D01*
X152124483Y-108060783D01*
X152040929Y-108109697D01*
X151934947Y-108170903D01*
X151803576Y-108246391D01*
X151770494Y-108265403D01*
X151668362Y-108324294D01*
X151577530Y-108376965D01*
X151501413Y-108421414D01*
X151443427Y-108455641D01*
X151406989Y-108477644D01*
X151395514Y-108485423D01*
X151395951Y-108485458D01*
X151416833Y-108488841D01*
X151465234Y-108497225D01*
X151536968Y-108509867D01*
X151627847Y-108526027D01*
X151733685Y-108544964D01*
X151850294Y-108565936D01*
X151890820Y-108573252D01*
X152021965Y-108597295D01*
X152125693Y-108617489D01*
X152205780Y-108635209D01*
X152265999Y-108651831D01*
X152310125Y-108668728D01*
X152341933Y-108687275D01*
X152365196Y-108708846D01*
X152383688Y-108734817D01*
X152401185Y-108766561D01*
X152422527Y-108832396D01*
X152420100Y-108907865D01*
X152393085Y-108977841D01*
X152345427Y-109035856D01*
X152281068Y-109075440D01*
X152203953Y-109090124D01*
X152192288Y-109089346D01*
X152147342Y-109083669D01*
X152075895Y-109073005D01*
X151981664Y-109057966D01*
X151868368Y-109039163D01*
X151739722Y-109017209D01*
X151599444Y-108992713D01*
X151451252Y-108966289D01*
X150763471Y-108842393D01*
X150631860Y-108921341D01*
X150621421Y-108927572D01*
X150566540Y-108959872D01*
X150489477Y-109004762D01*
X150395125Y-109059411D01*
X150288375Y-109120992D01*
X150174119Y-109186676D01*
X150057248Y-109253634D01*
X150003246Y-109284578D01*
X149898579Y-109344914D01*
X149805289Y-109399170D01*
X149726785Y-109445335D01*
X149666478Y-109481395D01*
X149627778Y-109505339D01*
X149614094Y-109515153D01*
X149621563Y-109521138D01*
X149653625Y-109541616D01*
X149707423Y-109574232D01*
X149779104Y-109616688D01*
X149864817Y-109666688D01*
X149960712Y-109721933D01*
X149994021Y-109741017D01*
X150110787Y-109807988D01*
X150231692Y-109877433D01*
X150348605Y-109944676D01*
X150453398Y-110005043D01*
X150537941Y-110053860D01*
X150768399Y-110187178D01*
X151453507Y-110063649D01*
X151528939Y-110050119D01*
X151673332Y-110024621D01*
X151807939Y-110001365D01*
X151929034Y-109980964D01*
X152032890Y-109964032D01*
X152115778Y-109951182D01*
X152173972Y-109943027D01*
X152203744Y-109940182D01*
X152245196Y-109943846D01*
X152314773Y-109969910D01*
X152367731Y-110015997D01*
X152403046Y-110076152D01*
X152419698Y-110144424D01*
X152416662Y-110214857D01*
X152392918Y-110281499D01*
X152347442Y-110338396D01*
X152279211Y-110379594D01*
X152267695Y-110383099D01*
X152224357Y-110393295D01*
X152156772Y-110407443D01*
X152070112Y-110424511D01*
X151969548Y-110443466D01*
X151860250Y-110463275D01*
X151799673Y-110474108D01*
X151694946Y-110493172D01*
X151601993Y-110510513D01*
X151525920Y-110525158D01*
X151471836Y-110536132D01*
X151444848Y-110542463D01*
X151441806Y-110543595D01*
X151436258Y-110549761D01*
X151441654Y-110560282D01*
X151460503Y-110576824D01*
X151495309Y-110601057D01*
X151548580Y-110634648D01*
X151622822Y-110679265D01*
X151720541Y-110736576D01*
X151844244Y-110808248D01*
X151888347Y-110833834D01*
X151996193Y-110897451D01*
X152094357Y-110956812D01*
X152179081Y-111009553D01*
X152246608Y-111053312D01*
X152293183Y-111085724D01*
X152315048Y-111104428D01*
X152338103Y-111147898D01*
X152353747Y-111220085D01*
X152350536Y-111294481D01*
X152327770Y-111357154D01*
X152310168Y-111382498D01*
X152247620Y-111440795D01*
X152173868Y-111468758D01*
X152090520Y-111466020D01*
X151999181Y-111432214D01*
X151972451Y-111417752D01*
X151916699Y-111386608D01*
X151841988Y-111344268D01*
X151753541Y-111293741D01*
X151656581Y-111238038D01*
X151556330Y-111180166D01*
X151458012Y-111123137D01*
X151366849Y-111069960D01*
X151288066Y-111023645D01*
X151226884Y-110987200D01*
X151209061Y-110976878D01*
X151177917Y-110961531D01*
X151165591Y-110959843D01*
X151169340Y-110972271D01*
X151182962Y-111011891D01*
X151205115Y-111074473D01*
X151234292Y-111155800D01*
X151268988Y-111251654D01*
X151307699Y-111357821D01*
X151315505Y-111379200D01*
X151365582Y-111519331D01*
X151403748Y-111633374D01*
X151430651Y-111724898D01*
X151446940Y-111797472D01*
X151453265Y-111854665D01*
X151450273Y-111900044D01*
X151438614Y-111937178D01*
X151418937Y-111969636D01*
X151375633Y-112013248D01*
X151306702Y-112049393D01*
X151230798Y-112062077D01*
X151155526Y-112051469D01*
X151088491Y-112017741D01*
X151037299Y-111961064D01*
X151024073Y-111933877D01*
X151001372Y-111879518D01*
X150972570Y-111805666D01*
X150940018Y-111718363D01*
X150906063Y-111623647D01*
X150898664Y-111602618D01*
X150859860Y-111492992D01*
X150814102Y-111364559D01*
X150764869Y-111227041D01*
X150715639Y-111090157D01*
X150669890Y-110963627D01*
X150534214Y-110589644D01*
X150330951Y-110472062D01*
X150321966Y-110466864D01*
X150124177Y-110352489D01*
X149953146Y-110253671D01*
X149807429Y-110169583D01*
X149685580Y-110099396D01*
X149586154Y-110042281D01*
X149507705Y-109997409D01*
X149448788Y-109963951D01*
X149407957Y-109941079D01*
X149383767Y-109927963D01*
X149374773Y-109923776D01*
X149374116Y-109926606D01*
X149372620Y-109955065D01*
X149371254Y-110011349D01*
X149370054Y-110092033D01*
X149369057Y-110193689D01*
X149368300Y-110312891D01*
X149367819Y-110446210D01*
X149367650Y-110590221D01*
X149367650Y-111256666D01*
X149839335Y-111814517D01*
X149911138Y-111899741D01*
X150004902Y-112011992D01*
X150090601Y-112115684D01*
X150166040Y-112208101D01*
X150229023Y-112286529D01*
X150277355Y-112348251D01*
X150308842Y-112390552D01*
X150321287Y-112410716D01*
X150330959Y-112489715D01*
X150314531Y-112571072D01*
X150272037Y-112638833D01*
X150206696Y-112688104D01*
X150121728Y-112713995D01*
X150119244Y-112714317D01*
X150081427Y-112715840D01*
X150044731Y-112708863D01*
X150006143Y-112690903D01*
X149962650Y-112659478D01*
X149911239Y-112612105D01*
X149848897Y-112546300D01*
X149772610Y-112459580D01*
X149679365Y-112349463D01*
X149633321Y-112294634D01*
X149564215Y-112212890D01*
X149502756Y-112140842D01*
X149452259Y-112082348D01*
X149416040Y-112041265D01*
X149397415Y-112021451D01*
X149393761Y-112018290D01*
X149386237Y-112014139D01*
X149380316Y-112017382D01*
X149375806Y-112031181D01*
X149372516Y-112058698D01*
X149370253Y-112103095D01*
X149368827Y-112167535D01*
X149368045Y-112255178D01*
X149367717Y-112369187D01*
X149367650Y-112512723D01*
X149367649Y-112534007D01*
X149367435Y-112683991D01*
X149366465Y-112805232D01*
X149364182Y-112901234D01*
X149360030Y-112975498D01*
X149353452Y-113031527D01*
X149343892Y-113072823D01*
X149330793Y-113102890D01*
X149313599Y-113125228D01*
X149291754Y-113143341D01*
X149264701Y-113160731D01*
X149209605Y-113183076D01*
X149138821Y-113192637D01*
X149074184Y-113184635D01*
X149012942Y-113160731D01*
X149010003Y-113158935D01*
X148983440Y-113141586D01*
X148962051Y-113123152D01*
X148945275Y-113100123D01*
X148932554Y-113068987D01*
X148923326Y-113026231D01*
X148917032Y-112968345D01*
X148913112Y-112891816D01*
X148911005Y-112793133D01*
X148910152Y-112668784D01*
X148909992Y-112515257D01*
X148909886Y-112447580D01*
X148909141Y-112326979D01*
X148907760Y-112219641D01*
X148905836Y-112129451D01*
X148903462Y-112060296D01*
X148900730Y-112016059D01*
X148897734Y-112000626D01*
X148896608Y-112001190D01*
X148879447Y-112018056D01*
X148845467Y-112055491D01*
X148797972Y-112109614D01*
X148740272Y-112176546D01*
X148675672Y-112252409D01*
X148607479Y-112333323D01*
X148539000Y-112415409D01*
X148473543Y-112494788D01*
X148414414Y-112567580D01*
X148379615Y-112606464D01*
X148308650Y-112665659D01*
X148235434Y-112704673D01*
X148167814Y-112718695D01*
X148123792Y-112712593D01*
X148056560Y-112680743D01*
X147999740Y-112628126D01*
X147960449Y-112562077D01*
X147945804Y-112489928D01*
X147945725Y-112481903D01*
X147945391Y-112465407D01*
X147946008Y-112450162D01*
X147949011Y-112434292D01*
X147955834Y-112415921D01*
X147967911Y-112393171D01*
X147986678Y-112364166D01*
X148013568Y-112327028D01*
X148050017Y-112279882D01*
X148097458Y-112220849D01*
X148157326Y-112148054D01*
X148231055Y-112059618D01*
X148320081Y-111953667D01*
X148425837Y-111828322D01*
X148549758Y-111681707D01*
X148693279Y-111511945D01*
X148909706Y-111255886D01*
X148909849Y-110589831D01*
X148909839Y-110528710D01*
X148909637Y-110388785D01*
X148909204Y-110260982D01*
X148908567Y-110148729D01*
X148907755Y-110055454D01*
X148906794Y-109984585D01*
X148905712Y-109939549D01*
X148904536Y-109923776D01*
X148901652Y-109925150D01*
X148875956Y-109939276D01*
X148826188Y-109967311D01*
X148755354Y-110007541D01*
X148666459Y-110058253D01*
X148562510Y-110117734D01*
X148446511Y-110184271D01*
X148321469Y-110256149D01*
X147743858Y-110588522D01*
X147640724Y-110873170D01*
X147626654Y-110912047D01*
X147586671Y-111022833D01*
X147540311Y-111151628D01*
X147490812Y-111289420D01*
X147441413Y-111427196D01*
X147395352Y-111555945D01*
X147368015Y-111632025D01*
X147323424Y-111752834D01*
X147285996Y-111847672D01*
X147253792Y-111919873D01*
X147224872Y-111972770D01*
X147197296Y-112009696D01*
X147169126Y-112033985D01*
X147138421Y-112048970D01*
X147103243Y-112057985D01*
X147029833Y-112062930D01*
X146951182Y-112041955D01*
X146882178Y-111990330D01*
X146857449Y-111961929D01*
X146837459Y-111928699D01*
X146826209Y-111890581D01*
X146824207Y-111843947D01*
X146831957Y-111785165D01*
X146849967Y-111710608D01*
X146878741Y-111616644D01*
X146918786Y-111499646D01*
X146970607Y-111355982D01*
X147003770Y-111264830D01*
X147038722Y-111167526D01*
X147068113Y-111084339D01*
X147090500Y-111019404D01*
X147104439Y-110976858D01*
X147108486Y-110960837D01*
X147107251Y-110960851D01*
X147086301Y-110970390D01*
X147043859Y-110993075D01*
X146985243Y-111025999D01*
X146915770Y-111066252D01*
X146783342Y-111143897D01*
X146637508Y-111228982D01*
X146516354Y-111299087D01*
X146418015Y-111355267D01*
X146340623Y-111398575D01*
X146282313Y-111430066D01*
X146241217Y-111450795D01*
X146215468Y-111461815D01*
X146212261Y-111462902D01*
X146134642Y-111472494D01*
X146058683Y-111453324D01*
X145991758Y-111408626D01*
X145941243Y-111341632D01*
X145929192Y-111308908D01*
X145922409Y-111238113D01*
X145933798Y-111165235D01*
X145962024Y-111105458D01*
X145971666Y-111095109D01*
X145991733Y-111078662D01*
X146023179Y-111056460D01*
X146068137Y-111027206D01*
X146128736Y-110989602D01*
X146207108Y-110942348D01*
X146305384Y-110884148D01*
X146425694Y-110813701D01*
X146570170Y-110729711D01*
X146740943Y-110630878D01*
X146769572Y-110614014D01*
X146818645Y-110583273D01*
X146850930Y-110560413D01*
X146860540Y-110549442D01*
X146844463Y-110544891D01*
X146800236Y-110535317D01*
X146732227Y-110521657D01*
X146644733Y-110504757D01*
X146542055Y-110485459D01*
X146428491Y-110464609D01*
X146384130Y-110456478D01*
X146251157Y-110431032D01*
X146139609Y-110407957D01*
X146052213Y-110387868D01*
X145991696Y-110371379D01*
X145960783Y-110359106D01*
X145913554Y-110318901D01*
X145872838Y-110254591D01*
X145856181Y-110183656D01*
X145861928Y-110112112D01*
X145888428Y-110045976D01*
X145934026Y-109991265D01*
X145997070Y-109953995D01*
X146075905Y-109940182D01*
X146078713Y-109940227D01*
X146112922Y-109943367D01*
X146172526Y-109951549D01*
X146258363Y-109964915D01*
X146371272Y-109983611D01*
X146512089Y-110007778D01*
X146681654Y-110037562D01*
X146880803Y-110073105D01*
X147110375Y-110114550D01*
X147371207Y-110162042D01*
X147507776Y-110186994D01*
X147853382Y-109988013D01*
X147885643Y-109969443D01*
X148002347Y-109902320D01*
X148123461Y-109832735D01*
X148240801Y-109765385D01*
X148346185Y-109704967D01*
X148431431Y-109656178D01*
X148486374Y-109624545D01*
X148556971Y-109583135D01*
X148613255Y-109549191D01*
X148650506Y-109525576D01*
X148664002Y-109515153D01*
X148663797Y-109514486D01*
X148652418Y-109505018D01*
X148622212Y-109485573D01*
X148571216Y-109454994D01*
X148497468Y-109412122D01*
X148399008Y-109355799D01*
X148273874Y-109284868D01*
X148265676Y-109280216D01*
X148221747Y-109255058D01*
X148156616Y-109217557D01*
X148075726Y-109170854D01*
X147984519Y-109118090D01*
X147888435Y-109062405D01*
X147852913Y-109041813D01*
X147762222Y-108989367D01*
X147681007Y-108942578D01*
X147613963Y-108904139D01*
X147565787Y-108876747D01*
X147541172Y-108863096D01*
X147526239Y-108857093D01*
X147492873Y-108852892D01*
X147443189Y-108856623D01*
X147369550Y-108868528D01*
X147182517Y-108902576D01*
X146963104Y-108942352D01*
X146772690Y-108976642D01*
X146609493Y-109005752D01*
X146471734Y-109029988D01*
X146357632Y-109049656D01*
X146265407Y-109065063D01*
X146193279Y-109076513D01*
X146139467Y-109084312D01*
X146102192Y-109088768D01*
X146079672Y-109090185D01*
X146019478Y-109082547D01*
X145951316Y-109050857D01*
X145900161Y-109000114D01*
X145867740Y-108936352D01*
X145855780Y-108865602D01*
X145866006Y-108793899D01*
X145900146Y-108727275D01*
X145959926Y-108671761D01*
X145969075Y-108667262D01*
X146011903Y-108653600D01*
X146082389Y-108635964D01*
X146177291Y-108615084D01*
X146293369Y-108591690D01*
X146427382Y-108566510D01*
X146536430Y-108546442D01*
X146639763Y-108526978D01*
X146728109Y-108509871D01*
X146797170Y-108495968D01*
X146842647Y-108486116D01*
X146860241Y-108481163D01*
X146858244Y-108478548D01*
X146834742Y-108461971D01*
X146787729Y-108432144D01*
X146720546Y-108391096D01*
X146636535Y-108340854D01*
X146539038Y-108283446D01*
X146431397Y-108220902D01*
X146388760Y-108196169D01*
X146281153Y-108132702D01*
X146183148Y-108073437D01*
X146098516Y-108020748D01*
X146031032Y-107977008D01*
X145984466Y-107944594D01*
X145962594Y-107925878D01*
X145953985Y-107911938D01*
X145934511Y-107861453D01*
X145923306Y-107804240D01*
X145922247Y-107784171D01*
X145936478Y-107702740D01*
X145979767Y-107633923D01*
X146049958Y-107581511D01*
X146066185Y-107573589D01*
X146095792Y-107562936D01*
X146127085Y-107558850D01*
X146163362Y-107562606D01*
X146207920Y-107575477D01*
X146264059Y-107598737D01*
X146335074Y-107633659D01*
X146424264Y-107681518D01*
X146534927Y-107743587D01*
X146670361Y-107821140D01*
X146724656Y-107852361D01*
X146828894Y-107912112D01*
X146921786Y-107965108D01*
X146999940Y-108009431D01*
X147059963Y-108043160D01*
X147098464Y-108064376D01*
X147112051Y-108071158D01*
X147112050Y-108071140D01*
X147106658Y-108054874D01*
X147091722Y-108011904D01*
X147068662Y-107946263D01*
X147038899Y-107861984D01*
X147003854Y-107763098D01*
X146964947Y-107653637D01*
X146927533Y-107546929D01*
X146891956Y-107442163D01*
X146861731Y-107349695D01*
X146838327Y-107274125D01*
X146823208Y-107220056D01*
X146817843Y-107192090D01*
X146821651Y-107153377D01*
X146850464Y-107080546D01*
X146902204Y-107020738D01*
X146970466Y-106980242D01*
X147048842Y-106965346D01*
X147074822Y-106967436D01*
X147137947Y-106985351D01*
X147195869Y-107016246D01*
X147234845Y-107053600D01*
X147240234Y-107064471D01*
X147256938Y-107104721D01*
X147282155Y-107169455D01*
X147314405Y-107254743D01*
X147352210Y-107356654D01*
X147394088Y-107471258D01*
X147438560Y-107594625D01*
X147458041Y-107649025D01*
X147505040Y-107780246D01*
X147550648Y-107907554D01*
X147592940Y-108025576D01*
X147629991Y-108128939D01*
X147659874Y-108212271D01*
X147680665Y-108270199D01*
X147685985Y-108284967D01*
X147712597Y-108356030D01*
X147733837Y-108403974D01*
X147753844Y-108435585D01*
X147776756Y-108457652D01*
X147806710Y-108476964D01*
X147905948Y-108534439D01*
X148066355Y-108627223D01*
X148219079Y-108715421D01*
X148361548Y-108797554D01*
X148491187Y-108872144D01*
X148605424Y-108937713D01*
X148701685Y-108992783D01*
X148777395Y-109035874D01*
X148829982Y-109065509D01*
X148856871Y-109080210D01*
X148909992Y-109107369D01*
X148909992Y-107772664D01*
X148744567Y-107577403D01*
X148716107Y-107543834D01*
X148656662Y-107473872D01*
X148603575Y-107411589D01*
X148561763Y-107362747D01*
X148536141Y-107333107D01*
X148534815Y-107331593D01*
X148501804Y-107293249D01*
X148457621Y-107241157D01*
X148411444Y-107186134D01*
X148394695Y-107166107D01*
X148347000Y-107109348D01*
X148287024Y-107038216D01*
X148220776Y-106959834D01*
X148154265Y-106881322D01*
X148114684Y-106834053D01*
X148058415Y-106764621D01*
X148011569Y-106704121D01*
X147978162Y-106657789D01*
X147962212Y-106630867D01*
X147952214Y-106597872D01*
X147948073Y-106519497D01*
X147969020Y-106448055D01*
X148010288Y-106387808D01*
X148067109Y-106343016D01*
X148134715Y-106317941D01*
X148208338Y-106316844D01*
X148283210Y-106343986D01*
X148302273Y-106357838D01*
X148345992Y-106398060D01*
X148403210Y-106457268D01*
X148469950Y-106531286D01*
X148542232Y-106615935D01*
X148597042Y-106681479D01*
X148666110Y-106763302D01*
X148730433Y-106838714D01*
X148784658Y-106901448D01*
X148823431Y-106945234D01*
X148908491Y-107038898D01*
X148909303Y-106515861D01*
X148909330Y-106498700D01*
X148909687Y-106356600D01*
X148910375Y-106243110D01*
X148911602Y-106154550D01*
X148913578Y-106087236D01*
X148916512Y-106037487D01*
X148920614Y-106001621D01*
X148926093Y-105975955D01*
X148933159Y-105956807D01*
X148942020Y-105940496D01*
X148970342Y-105904656D01*
X149034042Y-105860647D01*
X149110195Y-105838804D01*
X149189948Y-105841079D01*
G37*
G36*
X127248043Y-94529631D02*
G01*
X127308171Y-94564945D01*
X127421016Y-94650435D01*
X127548811Y-94750124D01*
X127655670Y-94836875D01*
X127737659Y-94907390D01*
X127790841Y-94958370D01*
X127811281Y-94986517D01*
X127802603Y-95027848D01*
X127773026Y-95077915D01*
X127728576Y-95134182D01*
X127950633Y-95307129D01*
X127955515Y-95310940D01*
X128040693Y-95380512D01*
X128111408Y-95443810D01*
X128160416Y-95493993D01*
X128180474Y-95524219D01*
X128181129Y-95528235D01*
X128179113Y-95566437D01*
X128155937Y-95606723D01*
X128104494Y-95661983D01*
X128093767Y-95674743D01*
X128090771Y-95692324D01*
X128104777Y-95715689D01*
X128140578Y-95750100D01*
X128202964Y-95800818D01*
X128296728Y-95873108D01*
X128306658Y-95880701D01*
X128400853Y-95954298D01*
X128464567Y-96008550D01*
X128503642Y-96049495D01*
X128523913Y-96083171D01*
X128531221Y-96115618D01*
X128531954Y-96132271D01*
X128523493Y-96172601D01*
X128492699Y-96210817D01*
X128431120Y-96259027D01*
X128385849Y-96292994D01*
X128342941Y-96329309D01*
X128326943Y-96348999D01*
X128344198Y-96367501D01*
X128390213Y-96407502D01*
X128457972Y-96463098D01*
X128540459Y-96528396D01*
X128639166Y-96608195D01*
X128718777Y-96684187D01*
X128758381Y-96744542D01*
X128760118Y-96747188D01*
X128763224Y-96802921D01*
X128728135Y-96857113D01*
X128654891Y-96915485D01*
X128543528Y-96983764D01*
X128504048Y-97004896D01*
X128408085Y-97049928D01*
X128295419Y-97097214D01*
X128182984Y-97139442D01*
X127953517Y-97219595D01*
X127983519Y-97389745D01*
X128010500Y-97542761D01*
X127884530Y-97573979D01*
X127832637Y-97585926D01*
X127752324Y-97601289D01*
X127693461Y-97608811D01*
X127680430Y-97609719D01*
X127609258Y-97617655D01*
X127531342Y-97629532D01*
X127434324Y-97646638D01*
X127376870Y-97320802D01*
X127143334Y-97323128D01*
X127091326Y-97323044D01*
X126966044Y-97319066D01*
X126845317Y-97310827D01*
X126749367Y-97299538D01*
X126658157Y-97282723D01*
X127553077Y-97282723D01*
X127584358Y-97460128D01*
X127806114Y-97421026D01*
X127774833Y-97243621D01*
X127553077Y-97282723D01*
X126658157Y-97282723D01*
X126635191Y-97278489D01*
X126537268Y-97250089D01*
X126478062Y-97213046D01*
X126455625Y-97162194D01*
X126466325Y-97101875D01*
X126652314Y-97101875D01*
X126668748Y-97113995D01*
X126722417Y-97129057D01*
X126804478Y-97143063D01*
X126905814Y-97154513D01*
X127017309Y-97161907D01*
X127022083Y-97162089D01*
X127115997Y-97160278D01*
X127243241Y-97150566D01*
X127393670Y-97133904D01*
X127557138Y-97111245D01*
X127574472Y-97108590D01*
X127794410Y-97070697D01*
X127980381Y-97029156D01*
X128142708Y-96980930D01*
X128291717Y-96922985D01*
X128437734Y-96852281D01*
X128583412Y-96775393D01*
X128517584Y-96720310D01*
X128479875Y-96689818D01*
X128412235Y-96636623D01*
X128327672Y-96571053D01*
X128236250Y-96500955D01*
X128235380Y-96500292D01*
X128151865Y-96435256D01*
X128083247Y-96379251D01*
X128036599Y-96338231D01*
X128018998Y-96318151D01*
X128019438Y-96316225D01*
X128043406Y-96295655D01*
X128096740Y-96263513D01*
X128169534Y-96225873D01*
X128182007Y-96219760D01*
X128253433Y-96181683D01*
X128304562Y-96149241D01*
X128325027Y-96128903D01*
X128320096Y-96119973D01*
X128286554Y-96085934D01*
X128226473Y-96033042D01*
X128145904Y-95966530D01*
X128050890Y-95891635D01*
X127995483Y-95848627D01*
X127907185Y-95778957D01*
X127836185Y-95721474D01*
X127788656Y-95681212D01*
X127770774Y-95663209D01*
X127777408Y-95654530D01*
X127814657Y-95631303D01*
X127874197Y-95602679D01*
X127913519Y-95584452D01*
X127960262Y-95558441D01*
X127977125Y-95542235D01*
X127971104Y-95535308D01*
X127935741Y-95504451D01*
X127874144Y-95454237D01*
X127792532Y-95389694D01*
X127697124Y-95315851D01*
X127643101Y-95274139D01*
X127554471Y-95204219D01*
X127483104Y-95145985D01*
X127435234Y-95104577D01*
X127417098Y-95085130D01*
X127431457Y-95068988D01*
X127474521Y-95054187D01*
X127522843Y-95043191D01*
X127564969Y-95026434D01*
X127576233Y-95003616D01*
X127555077Y-94969865D01*
X127499947Y-94920309D01*
X127409282Y-94850079D01*
X127212746Y-94701814D01*
X127079147Y-94908291D01*
X127033425Y-94980170D01*
X126990893Y-95054405D01*
X126974755Y-95100654D01*
X126985186Y-95124028D01*
X127022358Y-95129645D01*
X127086447Y-95122615D01*
X127129428Y-95121876D01*
X127151290Y-95133753D01*
X127148470Y-95143116D01*
X127126432Y-95185660D01*
X127086060Y-95255052D01*
X127031488Y-95344291D01*
X126966849Y-95446373D01*
X126930412Y-95503349D01*
X126870654Y-95598428D01*
X126823043Y-95676322D01*
X126791729Y-95730185D01*
X126780862Y-95753169D01*
X126789973Y-95759079D01*
X126832794Y-95768185D01*
X126898469Y-95774726D01*
X126941628Y-95778391D01*
X126994671Y-95786817D01*
X127016357Y-95796233D01*
X127013046Y-95805081D01*
X126990417Y-95846565D01*
X126949857Y-95915223D01*
X126895445Y-96004212D01*
X126831260Y-96106688D01*
X126794124Y-96166103D01*
X126736040Y-96262578D01*
X126690864Y-96342278D01*
X126662489Y-96398217D01*
X126654805Y-96423408D01*
X126655896Y-96424822D01*
X126686951Y-96437267D01*
X126749290Y-96450193D01*
X126830821Y-96461014D01*
X126841582Y-96462131D01*
X126921805Y-96471572D01*
X126981739Y-96480515D01*
X127009103Y-96487157D01*
X127007943Y-96495077D01*
X126988836Y-96534890D01*
X126951272Y-96602017D01*
X126899050Y-96689780D01*
X126835973Y-96791493D01*
X126799370Y-96849833D01*
X126740411Y-96945616D01*
X126693533Y-97024141D01*
X126662809Y-97078523D01*
X126652314Y-97101875D01*
X126466325Y-97101875D01*
X126468011Y-97092368D01*
X126513274Y-96998405D01*
X126589469Y-96875138D01*
X126643238Y-96790783D01*
X126688990Y-96715195D01*
X126719200Y-96660772D01*
X126729124Y-96635650D01*
X126715146Y-96624290D01*
X126667909Y-96603882D01*
X126599617Y-96581970D01*
X126569474Y-96573181D01*
X126507681Y-96549506D01*
X126474053Y-96521758D01*
X126456504Y-96481446D01*
X126455821Y-96478861D01*
X126452393Y-96445664D01*
X126461020Y-96406272D01*
X126485125Y-96352996D01*
X126528135Y-96278150D01*
X126593474Y-96174045D01*
X126748367Y-95932081D01*
X126669860Y-95890255D01*
X126656451Y-95882543D01*
X126607416Y-95843102D01*
X126583699Y-95805018D01*
X126583534Y-95803566D01*
X126593818Y-95766167D01*
X126624138Y-95700677D01*
X126670046Y-95615912D01*
X126727099Y-95520687D01*
X126775330Y-95443271D01*
X126820857Y-95367209D01*
X126846570Y-95317279D01*
X126855127Y-95286770D01*
X126849180Y-95268976D01*
X126831388Y-95257186D01*
X126800544Y-95240155D01*
X126767745Y-95208450D01*
X126758341Y-95166662D01*
X126773248Y-95108312D01*
X126813381Y-95026921D01*
X126879659Y-94916010D01*
X126907261Y-94871745D01*
X126983694Y-94749898D01*
X127041409Y-94659918D01*
X127084115Y-94596817D01*
X127115526Y-94555604D01*
X127139352Y-94531290D01*
X127159304Y-94518882D01*
X127179094Y-94513394D01*
X127193520Y-94513129D01*
X127248043Y-94529631D01*
G37*
G36*
X128137820Y-93970926D02*
G01*
X128290546Y-94025688D01*
X128570989Y-94159178D01*
X128824144Y-94323951D01*
X129048831Y-94516481D01*
X129243870Y-94733242D01*
X129408083Y-94970709D01*
X129540291Y-95225356D01*
X129639312Y-95493659D01*
X129678201Y-95661122D01*
X129703971Y-95772089D01*
X129733084Y-96057122D01*
X129725475Y-96345232D01*
X129679963Y-96632893D01*
X129595369Y-96916582D01*
X129470515Y-97192769D01*
X129304219Y-97457932D01*
X129238247Y-97545338D01*
X129030750Y-97777787D01*
X128801980Y-97972771D01*
X128546995Y-98134116D01*
X128260854Y-98265648D01*
X128130617Y-98309868D01*
X127886722Y-98366220D01*
X127626644Y-98397722D01*
X127364729Y-98402937D01*
X127115324Y-98380428D01*
X127037032Y-98366857D01*
X126737417Y-98287033D01*
X126453094Y-98167153D01*
X126188015Y-98010225D01*
X125946125Y-97819258D01*
X125731372Y-97597263D01*
X125547704Y-97347245D01*
X125399067Y-97072217D01*
X125295240Y-96795989D01*
X125226660Y-96496391D01*
X125207265Y-96279539D01*
X125384712Y-96279539D01*
X125423814Y-96564799D01*
X125501193Y-96837731D01*
X125614109Y-97095221D01*
X125759821Y-97334160D01*
X125935587Y-97551432D01*
X126138669Y-97743928D01*
X126366323Y-97908534D01*
X126615810Y-98042140D01*
X126884388Y-98141632D01*
X127169317Y-98203899D01*
X127467856Y-98225830D01*
X127614614Y-98220793D01*
X127906287Y-98178551D01*
X128186741Y-98095710D01*
X128451917Y-97975043D01*
X128697758Y-97819325D01*
X128920202Y-97631328D01*
X129115191Y-97413824D01*
X129278665Y-97169586D01*
X129406567Y-96901390D01*
X129459168Y-96750573D01*
X129515729Y-96518909D01*
X129549017Y-96264746D01*
X129552583Y-96110265D01*
X129536273Y-95905488D01*
X129500318Y-95692487D01*
X129447516Y-95487201D01*
X129380665Y-95305563D01*
X129371564Y-95285452D01*
X129288414Y-95125895D01*
X129186623Y-94962560D01*
X129076623Y-94811113D01*
X128968850Y-94687221D01*
X128812696Y-94547557D01*
X128614246Y-94405628D01*
X128397725Y-94280325D01*
X128176393Y-94179258D01*
X127963507Y-94110040D01*
X127925845Y-94101139D01*
X127653357Y-94061312D01*
X127370281Y-94059389D01*
X127085418Y-94093830D01*
X126807568Y-94163093D01*
X126545527Y-94265637D01*
X126308097Y-94399923D01*
X126286645Y-94414621D01*
X126083177Y-94579055D01*
X125893195Y-94776526D01*
X125726031Y-94996265D01*
X125591019Y-95227500D01*
X125512454Y-95406096D01*
X125443148Y-95629543D01*
X125398096Y-95875815D01*
X125386630Y-95985061D01*
X125384712Y-96279539D01*
X125207265Y-96279539D01*
X125199580Y-96193614D01*
X125212941Y-95891881D01*
X125265689Y-95595412D01*
X125356764Y-95308433D01*
X125485109Y-95035165D01*
X125649667Y-94779831D01*
X125849382Y-94546652D01*
X126083195Y-94339853D01*
X126255736Y-94207471D01*
X126218402Y-93994203D01*
X126208367Y-93935115D01*
X126196589Y-93850191D01*
X126195938Y-93832460D01*
X126380659Y-93832460D01*
X126387016Y-93899596D01*
X126399213Y-93980704D01*
X126407688Y-94026200D01*
X126422160Y-94084496D01*
X126436679Y-94109160D01*
X126454448Y-94107550D01*
X126461585Y-94103326D01*
X126590667Y-94040981D01*
X126751178Y-93983645D01*
X126930377Y-93934822D01*
X127115520Y-93898015D01*
X127293864Y-93876729D01*
X127346350Y-93873434D01*
X127456640Y-93869356D01*
X127555063Y-93869161D01*
X127625136Y-93873032D01*
X127731489Y-93885618D01*
X127704323Y-93731552D01*
X127691192Y-93663679D01*
X127673485Y-93602902D01*
X127650141Y-93564077D01*
X127615273Y-93534153D01*
X127582580Y-93514732D01*
X127513283Y-93491187D01*
X127422830Y-93480865D01*
X127303757Y-93483183D01*
X127148598Y-93497555D01*
X127022062Y-93515715D01*
X126860609Y-93549365D01*
X126712637Y-93591618D01*
X126584426Y-93640018D01*
X126482257Y-93692109D01*
X126412412Y-93745436D01*
X126381171Y-93797543D01*
X126380659Y-93832460D01*
X126195938Y-93832460D01*
X126194442Y-93791737D01*
X126201955Y-93748257D01*
X126219163Y-93708256D01*
X126237340Y-93674854D01*
X126280387Y-93611794D01*
X126333298Y-93564331D01*
X126412129Y-93516509D01*
X126468974Y-93481483D01*
X126493871Y-93452798D01*
X126490780Y-93423766D01*
X126480346Y-93386064D01*
X126479485Y-93300788D01*
X126480666Y-93294026D01*
X126665854Y-93294026D01*
X126669031Y-93349956D01*
X126679498Y-93381597D01*
X126681274Y-93382557D01*
X126715099Y-93382596D01*
X126782511Y-93373993D01*
X126874722Y-93358065D01*
X126982943Y-93336130D01*
X127269272Y-93274209D01*
X127250550Y-93208915D01*
X127235196Y-93167733D01*
X127170763Y-93082401D01*
X127069333Y-93022645D01*
X127040047Y-93012908D01*
X126933546Y-93004113D01*
X126833992Y-93032738D01*
X126750301Y-93092981D01*
X126691388Y-93179035D01*
X126666167Y-93285099D01*
X126665854Y-93294026D01*
X126480666Y-93294026D01*
X126496845Y-93201418D01*
X126529264Y-93103304D01*
X126573581Y-93021797D01*
X126614615Y-92972129D01*
X126719607Y-92888536D01*
X126838622Y-92839293D01*
X126964255Y-92822986D01*
X127089099Y-92838199D01*
X127205747Y-92883516D01*
X127306789Y-92957523D01*
X127384820Y-93058801D01*
X127432433Y-93185937D01*
X127439031Y-93215356D01*
X127447744Y-93242740D01*
X127455808Y-93268089D01*
X127477957Y-93292337D01*
X127513874Y-93299837D01*
X127541248Y-93303084D01*
X127640231Y-93333541D01*
X127732879Y-93386158D01*
X127799857Y-93450733D01*
X127821365Y-93487438D01*
X127854895Y-93579648D01*
X127883590Y-93710834D01*
X127908893Y-93854337D01*
X127916946Y-93900008D01*
X128137820Y-93970926D01*
G37*
%TO.C,C15*%
X132865000Y-53138748D02*
X132865000Y-53661252D01*
X134335000Y-53138748D02*
X134335000Y-53661252D01*
%TO.C,C11*%
X149785000Y-80088748D02*
X149785000Y-80611252D01*
X148315000Y-80088748D02*
X148315000Y-80611252D01*
%TO.C,G\u002A\u002A\u002A*%
G36*
X133531711Y-43646670D02*
G01*
X133591839Y-43681984D01*
X133704684Y-43767474D01*
X133832479Y-43867163D01*
X133939338Y-43953914D01*
X134021327Y-44024429D01*
X134074509Y-44075409D01*
X134094949Y-44103556D01*
X134086271Y-44144887D01*
X134056694Y-44194954D01*
X134012244Y-44251221D01*
X134234301Y-44424168D01*
X134239183Y-44427979D01*
X134324361Y-44497551D01*
X134395076Y-44560849D01*
X134444084Y-44611032D01*
X134464142Y-44641258D01*
X134464797Y-44645274D01*
X134462781Y-44683476D01*
X134439605Y-44723762D01*
X134388162Y-44779022D01*
X134377435Y-44791782D01*
X134374439Y-44809363D01*
X134388445Y-44832728D01*
X134424246Y-44867139D01*
X134486632Y-44917857D01*
X134580396Y-44990147D01*
X134590326Y-44997740D01*
X134684521Y-45071337D01*
X134748235Y-45125589D01*
X134787310Y-45166534D01*
X134807581Y-45200210D01*
X134814889Y-45232657D01*
X134815622Y-45249310D01*
X134807161Y-45289640D01*
X134776367Y-45327856D01*
X134714788Y-45376066D01*
X134669517Y-45410033D01*
X134626609Y-45446348D01*
X134610611Y-45466038D01*
X134627866Y-45484540D01*
X134673881Y-45524541D01*
X134741640Y-45580137D01*
X134824127Y-45645435D01*
X134922834Y-45725234D01*
X135002445Y-45801226D01*
X135042049Y-45861581D01*
X135043786Y-45864227D01*
X135046892Y-45919960D01*
X135011803Y-45974152D01*
X134938559Y-46032524D01*
X134827196Y-46100803D01*
X134787716Y-46121935D01*
X134691753Y-46166967D01*
X134579087Y-46214253D01*
X134466652Y-46256481D01*
X134237185Y-46336634D01*
X134267187Y-46506784D01*
X134294168Y-46659800D01*
X134168198Y-46691018D01*
X134116305Y-46702965D01*
X134035992Y-46718328D01*
X133977129Y-46725850D01*
X133964098Y-46726758D01*
X133892926Y-46734694D01*
X133815010Y-46746571D01*
X133717992Y-46763677D01*
X133660538Y-46437841D01*
X133427002Y-46440167D01*
X133374994Y-46440083D01*
X133249712Y-46436105D01*
X133128985Y-46427866D01*
X133033035Y-46416577D01*
X132941825Y-46399762D01*
X133836745Y-46399762D01*
X133868026Y-46577167D01*
X134089782Y-46538065D01*
X134058501Y-46360660D01*
X133836745Y-46399762D01*
X132941825Y-46399762D01*
X132918859Y-46395528D01*
X132820936Y-46367128D01*
X132761730Y-46330085D01*
X132739293Y-46279233D01*
X132749993Y-46218914D01*
X132935982Y-46218914D01*
X132952416Y-46231034D01*
X133006085Y-46246096D01*
X133088146Y-46260102D01*
X133189482Y-46271552D01*
X133300977Y-46278946D01*
X133305751Y-46279128D01*
X133399665Y-46277317D01*
X133526909Y-46267605D01*
X133677338Y-46250943D01*
X133840806Y-46228284D01*
X133858140Y-46225629D01*
X134078078Y-46187736D01*
X134264049Y-46146195D01*
X134426376Y-46097969D01*
X134575385Y-46040024D01*
X134721402Y-45969320D01*
X134867080Y-45892432D01*
X134801252Y-45837349D01*
X134763543Y-45806857D01*
X134695903Y-45753662D01*
X134611340Y-45688092D01*
X134519918Y-45617994D01*
X134519048Y-45617331D01*
X134435533Y-45552295D01*
X134366915Y-45496290D01*
X134320267Y-45455270D01*
X134302666Y-45435190D01*
X134303106Y-45433264D01*
X134327074Y-45412694D01*
X134380408Y-45380552D01*
X134453202Y-45342912D01*
X134465675Y-45336799D01*
X134537101Y-45298722D01*
X134588230Y-45266280D01*
X134608695Y-45245942D01*
X134603764Y-45237012D01*
X134570222Y-45202973D01*
X134510141Y-45150081D01*
X134429572Y-45083569D01*
X134334558Y-45008674D01*
X134279151Y-44965666D01*
X134190853Y-44895996D01*
X134119853Y-44838513D01*
X134072324Y-44798251D01*
X134054442Y-44780248D01*
X134061076Y-44771569D01*
X134098325Y-44748342D01*
X134157865Y-44719718D01*
X134197187Y-44701491D01*
X134243930Y-44675480D01*
X134260793Y-44659274D01*
X134254772Y-44652347D01*
X134219409Y-44621490D01*
X134157812Y-44571276D01*
X134076200Y-44506733D01*
X133980792Y-44432890D01*
X133926769Y-44391178D01*
X133838139Y-44321258D01*
X133766772Y-44263024D01*
X133718902Y-44221616D01*
X133700766Y-44202169D01*
X133715125Y-44186027D01*
X133758189Y-44171226D01*
X133806511Y-44160230D01*
X133848637Y-44143473D01*
X133859901Y-44120655D01*
X133838745Y-44086904D01*
X133783615Y-44037348D01*
X133692950Y-43967118D01*
X133496414Y-43818853D01*
X133362815Y-44025330D01*
X133317093Y-44097209D01*
X133274561Y-44171444D01*
X133258423Y-44217693D01*
X133268854Y-44241067D01*
X133306026Y-44246684D01*
X133370115Y-44239654D01*
X133413096Y-44238915D01*
X133434958Y-44250792D01*
X133432138Y-44260155D01*
X133410100Y-44302699D01*
X133369728Y-44372091D01*
X133315156Y-44461330D01*
X133250517Y-44563412D01*
X133214080Y-44620388D01*
X133154322Y-44715467D01*
X133106711Y-44793361D01*
X133075397Y-44847224D01*
X133064530Y-44870208D01*
X133073641Y-44876118D01*
X133116462Y-44885224D01*
X133182137Y-44891765D01*
X133225296Y-44895430D01*
X133278339Y-44903856D01*
X133300025Y-44913272D01*
X133296714Y-44922120D01*
X133274085Y-44963604D01*
X133233525Y-45032262D01*
X133179113Y-45121251D01*
X133114928Y-45223727D01*
X133077792Y-45283142D01*
X133019708Y-45379617D01*
X132974532Y-45459317D01*
X132946157Y-45515256D01*
X132938473Y-45540447D01*
X132939564Y-45541861D01*
X132970619Y-45554306D01*
X133032958Y-45567232D01*
X133114489Y-45578053D01*
X133125250Y-45579170D01*
X133205473Y-45588611D01*
X133265407Y-45597554D01*
X133292771Y-45604196D01*
X133291611Y-45612116D01*
X133272504Y-45651929D01*
X133234940Y-45719056D01*
X133182718Y-45806819D01*
X133119641Y-45908532D01*
X133083038Y-45966872D01*
X133024079Y-46062655D01*
X132977201Y-46141180D01*
X132946477Y-46195562D01*
X132935982Y-46218914D01*
X132749993Y-46218914D01*
X132751679Y-46209407D01*
X132796942Y-46115444D01*
X132873137Y-45992177D01*
X132926906Y-45907822D01*
X132972658Y-45832234D01*
X133002868Y-45777811D01*
X133012792Y-45752689D01*
X132998814Y-45741329D01*
X132951577Y-45720921D01*
X132883285Y-45699009D01*
X132853142Y-45690220D01*
X132791349Y-45666545D01*
X132757721Y-45638797D01*
X132740172Y-45598485D01*
X132739489Y-45595900D01*
X132736061Y-45562703D01*
X132744688Y-45523311D01*
X132768793Y-45470035D01*
X132811803Y-45395189D01*
X132877142Y-45291084D01*
X133032035Y-45049120D01*
X132953528Y-45007294D01*
X132940119Y-44999582D01*
X132891084Y-44960141D01*
X132867367Y-44922057D01*
X132867202Y-44920605D01*
X132877486Y-44883206D01*
X132907806Y-44817716D01*
X132953714Y-44732951D01*
X133010767Y-44637726D01*
X133058998Y-44560310D01*
X133104525Y-44484248D01*
X133130238Y-44434318D01*
X133138795Y-44403809D01*
X133132848Y-44386015D01*
X133115056Y-44374225D01*
X133084212Y-44357194D01*
X133051413Y-44325489D01*
X133042009Y-44283701D01*
X133056916Y-44225351D01*
X133097049Y-44143960D01*
X133163327Y-44033049D01*
X133190929Y-43988784D01*
X133267362Y-43866937D01*
X133325077Y-43776957D01*
X133367783Y-43713856D01*
X133399194Y-43672643D01*
X133423020Y-43648329D01*
X133442972Y-43635921D01*
X133462762Y-43630433D01*
X133477188Y-43630168D01*
X133531711Y-43646670D01*
G37*
G36*
X134421488Y-43087965D02*
G01*
X134574214Y-43142727D01*
X134854657Y-43276217D01*
X135107812Y-43440990D01*
X135332499Y-43633520D01*
X135527538Y-43850281D01*
X135691751Y-44087748D01*
X135823959Y-44342395D01*
X135922980Y-44610698D01*
X135961869Y-44778161D01*
X135987639Y-44889128D01*
X136016752Y-45174161D01*
X136009143Y-45462271D01*
X135963631Y-45749932D01*
X135879037Y-46033621D01*
X135754183Y-46309808D01*
X135587887Y-46574971D01*
X135521915Y-46662377D01*
X135314418Y-46894826D01*
X135085648Y-47089810D01*
X134830663Y-47251155D01*
X134544522Y-47382687D01*
X134414285Y-47426907D01*
X134170390Y-47483259D01*
X133910312Y-47514761D01*
X133648397Y-47519976D01*
X133398992Y-47497467D01*
X133320700Y-47483896D01*
X133021085Y-47404072D01*
X132736762Y-47284192D01*
X132471683Y-47127264D01*
X132229793Y-46936297D01*
X132015040Y-46714302D01*
X131831372Y-46464284D01*
X131682735Y-46189256D01*
X131578908Y-45913028D01*
X131510328Y-45613430D01*
X131490933Y-45396578D01*
X131668380Y-45396578D01*
X131707482Y-45681838D01*
X131784861Y-45954770D01*
X131897777Y-46212260D01*
X132043489Y-46451199D01*
X132219255Y-46668471D01*
X132422337Y-46860967D01*
X132649991Y-47025573D01*
X132899478Y-47159179D01*
X133168056Y-47258671D01*
X133452985Y-47320938D01*
X133751524Y-47342869D01*
X133898282Y-47337832D01*
X134189955Y-47295590D01*
X134470409Y-47212749D01*
X134735585Y-47092082D01*
X134981426Y-46936364D01*
X135203870Y-46748367D01*
X135398859Y-46530863D01*
X135562333Y-46286625D01*
X135690235Y-46018429D01*
X135742836Y-45867612D01*
X135799397Y-45635948D01*
X135832685Y-45381785D01*
X135836251Y-45227304D01*
X135819941Y-45022527D01*
X135783986Y-44809526D01*
X135731184Y-44604240D01*
X135664333Y-44422602D01*
X135655232Y-44402491D01*
X135572082Y-44242934D01*
X135470291Y-44079599D01*
X135360291Y-43928152D01*
X135252518Y-43804260D01*
X135096364Y-43664596D01*
X134897914Y-43522667D01*
X134681393Y-43397364D01*
X134460061Y-43296297D01*
X134247175Y-43227079D01*
X134209513Y-43218178D01*
X133937025Y-43178351D01*
X133653949Y-43176428D01*
X133369086Y-43210869D01*
X133091236Y-43280132D01*
X132829195Y-43382676D01*
X132591765Y-43516962D01*
X132570313Y-43531660D01*
X132366845Y-43696094D01*
X132176863Y-43893565D01*
X132009699Y-44113304D01*
X131874687Y-44344539D01*
X131796122Y-44523135D01*
X131726816Y-44746582D01*
X131681764Y-44992854D01*
X131670298Y-45102100D01*
X131668380Y-45396578D01*
X131490933Y-45396578D01*
X131483248Y-45310653D01*
X131496609Y-45008920D01*
X131549357Y-44712451D01*
X131640432Y-44425472D01*
X131768777Y-44152204D01*
X131933335Y-43896870D01*
X132133050Y-43663691D01*
X132366863Y-43456892D01*
X132539404Y-43324510D01*
X132502070Y-43111242D01*
X132492035Y-43052154D01*
X132480257Y-42967230D01*
X132479606Y-42949499D01*
X132664327Y-42949499D01*
X132670684Y-43016635D01*
X132682881Y-43097743D01*
X132691356Y-43143239D01*
X132705828Y-43201535D01*
X132720347Y-43226199D01*
X132738116Y-43224589D01*
X132745253Y-43220365D01*
X132874335Y-43158020D01*
X133034846Y-43100684D01*
X133214045Y-43051861D01*
X133399188Y-43015054D01*
X133577532Y-42993768D01*
X133630018Y-42990473D01*
X133740308Y-42986395D01*
X133838731Y-42986200D01*
X133908804Y-42990071D01*
X134015157Y-43002657D01*
X133987991Y-42848591D01*
X133974860Y-42780718D01*
X133957153Y-42719941D01*
X133933809Y-42681116D01*
X133898941Y-42651192D01*
X133866248Y-42631771D01*
X133796951Y-42608226D01*
X133706498Y-42597904D01*
X133587425Y-42600222D01*
X133432266Y-42614594D01*
X133305730Y-42632754D01*
X133144277Y-42666404D01*
X132996305Y-42708657D01*
X132868094Y-42757057D01*
X132765925Y-42809148D01*
X132696080Y-42862475D01*
X132664839Y-42914582D01*
X132664327Y-42949499D01*
X132479606Y-42949499D01*
X132478110Y-42908776D01*
X132485623Y-42865296D01*
X132502831Y-42825295D01*
X132521008Y-42791893D01*
X132564055Y-42728833D01*
X132616966Y-42681370D01*
X132695797Y-42633548D01*
X132752642Y-42598522D01*
X132777539Y-42569837D01*
X132774448Y-42540805D01*
X132764014Y-42503103D01*
X132763153Y-42417827D01*
X132764334Y-42411065D01*
X132949522Y-42411065D01*
X132952699Y-42466995D01*
X132963166Y-42498636D01*
X132964942Y-42499596D01*
X132998767Y-42499635D01*
X133066179Y-42491032D01*
X133158390Y-42475104D01*
X133266611Y-42453169D01*
X133552940Y-42391248D01*
X133534218Y-42325954D01*
X133518864Y-42284772D01*
X133454431Y-42199440D01*
X133353001Y-42139684D01*
X133323715Y-42129947D01*
X133217214Y-42121152D01*
X133117660Y-42149777D01*
X133033969Y-42210020D01*
X132975056Y-42296074D01*
X132949835Y-42402138D01*
X132949522Y-42411065D01*
X132764334Y-42411065D01*
X132780513Y-42318457D01*
X132812932Y-42220343D01*
X132857249Y-42138836D01*
X132898283Y-42089168D01*
X133003275Y-42005575D01*
X133122290Y-41956332D01*
X133247923Y-41940025D01*
X133372767Y-41955238D01*
X133489415Y-42000555D01*
X133590457Y-42074562D01*
X133668488Y-42175840D01*
X133716101Y-42302976D01*
X133722699Y-42332395D01*
X133731412Y-42359779D01*
X133739476Y-42385128D01*
X133761625Y-42409376D01*
X133797542Y-42416876D01*
X133824916Y-42420123D01*
X133923899Y-42450580D01*
X134016547Y-42503197D01*
X134083525Y-42567772D01*
X134105033Y-42604477D01*
X134138563Y-42696687D01*
X134167258Y-42827873D01*
X134192561Y-42971376D01*
X134200614Y-43017047D01*
X134421488Y-43087965D01*
G37*
G36*
X136381127Y-87845926D02*
G01*
X136455630Y-87874270D01*
X136462333Y-87878372D01*
X136485934Y-87893943D01*
X136504933Y-87910854D01*
X136519892Y-87932588D01*
X136531376Y-87962628D01*
X136539947Y-88004457D01*
X136546169Y-88061557D01*
X136550604Y-88137413D01*
X136553817Y-88235505D01*
X136556371Y-88359319D01*
X136558829Y-88512336D01*
X136567001Y-89043346D01*
X136665071Y-88928413D01*
X136690385Y-88898690D01*
X136744882Y-88834510D01*
X136810576Y-88756983D01*
X136881354Y-88673324D01*
X136951107Y-88590746D01*
X137030796Y-88498565D01*
X137104006Y-88419799D01*
X137160151Y-88367129D01*
X137199806Y-88339975D01*
X137222476Y-88330898D01*
X137299406Y-88319312D01*
X137371683Y-88334363D01*
X137434699Y-88371389D01*
X137483846Y-88425724D01*
X137514519Y-88492703D01*
X137522109Y-88567663D01*
X137502011Y-88645940D01*
X137496294Y-88656113D01*
X137470379Y-88693228D01*
X137429299Y-88746835D01*
X137377360Y-88811397D01*
X137318868Y-88881380D01*
X137293116Y-88911619D01*
X137166494Y-89060343D01*
X137058809Y-89186889D01*
X136968142Y-89293528D01*
X136892568Y-89382530D01*
X136830168Y-89456166D01*
X136779019Y-89516705D01*
X136737199Y-89566418D01*
X136702787Y-89607575D01*
X136673860Y-89642447D01*
X136648497Y-89673304D01*
X136558459Y-89783358D01*
X136567001Y-91110928D01*
X136607864Y-91089205D01*
X136631907Y-91075931D01*
X136680221Y-91048551D01*
X136742831Y-91012647D01*
X136812175Y-90972538D01*
X136873705Y-90936824D01*
X137027490Y-90847787D01*
X137179939Y-90759819D01*
X137324333Y-90676785D01*
X137453958Y-90602549D01*
X137562096Y-90540977D01*
X137618828Y-90507261D01*
X137676415Y-90469345D01*
X137718026Y-90437641D01*
X137737219Y-90416718D01*
X137739710Y-90410286D01*
X137752599Y-90375336D01*
X137774677Y-90314565D01*
X137804714Y-90231386D01*
X137841481Y-90129216D01*
X137883746Y-90011468D01*
X137930282Y-89881557D01*
X137979858Y-89742899D01*
X138002530Y-89679547D01*
X138051235Y-89544243D01*
X138096637Y-89419168D01*
X138137468Y-89307753D01*
X138172458Y-89213430D01*
X138200340Y-89139628D01*
X138219845Y-89089778D01*
X138229703Y-89067312D01*
X138252512Y-89041198D01*
X138303908Y-89006228D01*
X138365233Y-88980321D01*
X138423114Y-88970193D01*
X138482998Y-88979431D01*
X138554002Y-89012431D01*
X138608256Y-89062571D01*
X138624001Y-89086094D01*
X138638662Y-89116944D01*
X138646213Y-89151699D01*
X138645994Y-89194158D01*
X138637342Y-89248124D01*
X138619598Y-89317397D01*
X138592099Y-89405777D01*
X138554186Y-89517065D01*
X138505196Y-89655063D01*
X138503872Y-89658753D01*
X138464869Y-89768083D01*
X138430071Y-89866716D01*
X138400862Y-89950643D01*
X138378625Y-90015855D01*
X138364744Y-90058345D01*
X138360601Y-90074103D01*
X138363630Y-90073038D01*
X138389333Y-90059649D01*
X138438328Y-90032577D01*
X138507159Y-89993778D01*
X138592366Y-89945209D01*
X138690493Y-89888825D01*
X138798082Y-89826584D01*
X138838293Y-89803333D01*
X138946502Y-89741629D01*
X139046375Y-89685892D01*
X139133949Y-89638257D01*
X139205266Y-89600855D01*
X139256362Y-89575821D01*
X139283278Y-89565287D01*
X139325457Y-89561262D01*
X139400752Y-89575097D01*
X139464375Y-89612908D01*
X139512389Y-89669280D01*
X139540858Y-89738799D01*
X139545846Y-89816050D01*
X139523416Y-89895619D01*
X139521303Y-89900062D01*
X139511830Y-89918713D01*
X139500657Y-89935710D01*
X139484824Y-89953048D01*
X139461369Y-89972716D01*
X139427331Y-89996708D01*
X139379749Y-90027016D01*
X139315662Y-90065630D01*
X139232108Y-90114544D01*
X139126126Y-90175750D01*
X138994755Y-90251238D01*
X138961673Y-90270250D01*
X138859541Y-90329141D01*
X138768709Y-90381812D01*
X138692592Y-90426261D01*
X138634606Y-90460488D01*
X138598168Y-90482491D01*
X138586693Y-90490270D01*
X138587130Y-90490305D01*
X138608012Y-90493688D01*
X138656413Y-90502072D01*
X138728147Y-90514714D01*
X138819026Y-90530874D01*
X138924864Y-90549811D01*
X139041473Y-90570783D01*
X139081999Y-90578099D01*
X139213144Y-90602142D01*
X139316872Y-90622336D01*
X139396959Y-90640056D01*
X139457178Y-90656678D01*
X139501304Y-90673575D01*
X139533112Y-90692122D01*
X139556375Y-90713693D01*
X139574867Y-90739664D01*
X139592364Y-90771408D01*
X139613706Y-90837243D01*
X139611279Y-90912712D01*
X139584264Y-90982688D01*
X139536606Y-91040703D01*
X139472247Y-91080287D01*
X139395132Y-91094971D01*
X139383467Y-91094193D01*
X139338521Y-91088516D01*
X139267074Y-91077852D01*
X139172843Y-91062813D01*
X139059547Y-91044010D01*
X138930901Y-91022056D01*
X138790623Y-90997560D01*
X138642431Y-90971136D01*
X137954650Y-90847240D01*
X137823039Y-90926188D01*
X137812600Y-90932419D01*
X137757719Y-90964719D01*
X137680656Y-91009609D01*
X137586304Y-91064258D01*
X137479554Y-91125839D01*
X137365298Y-91191523D01*
X137248427Y-91258481D01*
X137194425Y-91289425D01*
X137089758Y-91349761D01*
X136996468Y-91404017D01*
X136917964Y-91450182D01*
X136857657Y-91486242D01*
X136818957Y-91510186D01*
X136805273Y-91520000D01*
X136812742Y-91525985D01*
X136844804Y-91546463D01*
X136898602Y-91579079D01*
X136970283Y-91621535D01*
X137055996Y-91671535D01*
X137151891Y-91726780D01*
X137185200Y-91745864D01*
X137301966Y-91812835D01*
X137422871Y-91882280D01*
X137539784Y-91949523D01*
X137644577Y-92009890D01*
X137729120Y-92058707D01*
X137959578Y-92192025D01*
X138644686Y-92068496D01*
X138720118Y-92054966D01*
X138864511Y-92029468D01*
X138999118Y-92006212D01*
X139120213Y-91985811D01*
X139224069Y-91968879D01*
X139306957Y-91956029D01*
X139365151Y-91947874D01*
X139394923Y-91945029D01*
X139436375Y-91948693D01*
X139505952Y-91974757D01*
X139558910Y-92020844D01*
X139594225Y-92080999D01*
X139610877Y-92149271D01*
X139607841Y-92219704D01*
X139584097Y-92286346D01*
X139538621Y-92343243D01*
X139470390Y-92384441D01*
X139458874Y-92387946D01*
X139415536Y-92398142D01*
X139347951Y-92412290D01*
X139261291Y-92429358D01*
X139160727Y-92448313D01*
X139051429Y-92468122D01*
X138990852Y-92478955D01*
X138886125Y-92498019D01*
X138793172Y-92515360D01*
X138717099Y-92530005D01*
X138663015Y-92540979D01*
X138636027Y-92547310D01*
X138632985Y-92548442D01*
X138627437Y-92554608D01*
X138632833Y-92565129D01*
X138651682Y-92581671D01*
X138686488Y-92605904D01*
X138739759Y-92639495D01*
X138814001Y-92684112D01*
X138911720Y-92741423D01*
X139035423Y-92813095D01*
X139079526Y-92838681D01*
X139187372Y-92902298D01*
X139285536Y-92961659D01*
X139370260Y-93014400D01*
X139437787Y-93058159D01*
X139484362Y-93090571D01*
X139506227Y-93109275D01*
X139529282Y-93152745D01*
X139544926Y-93224932D01*
X139541715Y-93299328D01*
X139518949Y-93362001D01*
X139501347Y-93387345D01*
X139438799Y-93445642D01*
X139365047Y-93473605D01*
X139281699Y-93470867D01*
X139190360Y-93437061D01*
X139163630Y-93422599D01*
X139107878Y-93391455D01*
X139033167Y-93349115D01*
X138944720Y-93298588D01*
X138847760Y-93242885D01*
X138747509Y-93185013D01*
X138649191Y-93127984D01*
X138558028Y-93074807D01*
X138479245Y-93028492D01*
X138418063Y-92992047D01*
X138400240Y-92981725D01*
X138369096Y-92966378D01*
X138356770Y-92964690D01*
X138360519Y-92977118D01*
X138374141Y-93016738D01*
X138396294Y-93079320D01*
X138425471Y-93160647D01*
X138460167Y-93256501D01*
X138498878Y-93362668D01*
X138506684Y-93384047D01*
X138556761Y-93524178D01*
X138594927Y-93638221D01*
X138621830Y-93729745D01*
X138638119Y-93802319D01*
X138644444Y-93859512D01*
X138641452Y-93904891D01*
X138629793Y-93942025D01*
X138610116Y-93974483D01*
X138566812Y-94018095D01*
X138497881Y-94054240D01*
X138421977Y-94066924D01*
X138346705Y-94056316D01*
X138279670Y-94022588D01*
X138228478Y-93965911D01*
X138215252Y-93938724D01*
X138192551Y-93884365D01*
X138163749Y-93810513D01*
X138131197Y-93723210D01*
X138097242Y-93628494D01*
X138089843Y-93607465D01*
X138051039Y-93497839D01*
X138005281Y-93369406D01*
X137956048Y-93231888D01*
X137906818Y-93095004D01*
X137861069Y-92968474D01*
X137725393Y-92594491D01*
X137522130Y-92476909D01*
X137513145Y-92471711D01*
X137315356Y-92357336D01*
X137144325Y-92258518D01*
X136998608Y-92174430D01*
X136876759Y-92104243D01*
X136777333Y-92047128D01*
X136698884Y-92002256D01*
X136639967Y-91968798D01*
X136599136Y-91945926D01*
X136574946Y-91932810D01*
X136565952Y-91928623D01*
X136565295Y-91931453D01*
X136563799Y-91959912D01*
X136562433Y-92016196D01*
X136561233Y-92096880D01*
X136560236Y-92198536D01*
X136559479Y-92317738D01*
X136558998Y-92451057D01*
X136558829Y-92595068D01*
X136558829Y-93261513D01*
X137030514Y-93819364D01*
X137102317Y-93904588D01*
X137196081Y-94016839D01*
X137281780Y-94120531D01*
X137357219Y-94212948D01*
X137420202Y-94291376D01*
X137468534Y-94353098D01*
X137500021Y-94395399D01*
X137512466Y-94415563D01*
X137522138Y-94494562D01*
X137505710Y-94575919D01*
X137463216Y-94643680D01*
X137397875Y-94692951D01*
X137312907Y-94718842D01*
X137310423Y-94719164D01*
X137272606Y-94720687D01*
X137235910Y-94713710D01*
X137197322Y-94695750D01*
X137153829Y-94664325D01*
X137102418Y-94616952D01*
X137040076Y-94551147D01*
X136963789Y-94464427D01*
X136870544Y-94354310D01*
X136824500Y-94299481D01*
X136755394Y-94217737D01*
X136693935Y-94145689D01*
X136643438Y-94087195D01*
X136607219Y-94046112D01*
X136588594Y-94026298D01*
X136584940Y-94023137D01*
X136577416Y-94018986D01*
X136571495Y-94022229D01*
X136566985Y-94036028D01*
X136563695Y-94063545D01*
X136561432Y-94107942D01*
X136560006Y-94172382D01*
X136559224Y-94260025D01*
X136558896Y-94374034D01*
X136558829Y-94517570D01*
X136558828Y-94538854D01*
X136558614Y-94688838D01*
X136557644Y-94810079D01*
X136555361Y-94906081D01*
X136551209Y-94980345D01*
X136544631Y-95036374D01*
X136535071Y-95077670D01*
X136521972Y-95107737D01*
X136504778Y-95130075D01*
X136482933Y-95148188D01*
X136455880Y-95165578D01*
X136400784Y-95187923D01*
X136330000Y-95197484D01*
X136265363Y-95189482D01*
X136204121Y-95165578D01*
X136201182Y-95163782D01*
X136174619Y-95146433D01*
X136153230Y-95127999D01*
X136136454Y-95104970D01*
X136123733Y-95073834D01*
X136114505Y-95031078D01*
X136108211Y-94973192D01*
X136104291Y-94896663D01*
X136102184Y-94797980D01*
X136101331Y-94673631D01*
X136101171Y-94520104D01*
X136101065Y-94452427D01*
X136100320Y-94331826D01*
X136098939Y-94224488D01*
X136097015Y-94134298D01*
X136094641Y-94065143D01*
X136091909Y-94020906D01*
X136088913Y-94005473D01*
X136087787Y-94006037D01*
X136070626Y-94022903D01*
X136036646Y-94060338D01*
X135989151Y-94114461D01*
X135931451Y-94181393D01*
X135866851Y-94257256D01*
X135798658Y-94338170D01*
X135730179Y-94420256D01*
X135664722Y-94499635D01*
X135605593Y-94572427D01*
X135570794Y-94611311D01*
X135499829Y-94670506D01*
X135426613Y-94709520D01*
X135358993Y-94723542D01*
X135314971Y-94717440D01*
X135247739Y-94685590D01*
X135190919Y-94632973D01*
X135151628Y-94566924D01*
X135136983Y-94494775D01*
X135136904Y-94486750D01*
X135136570Y-94470254D01*
X135137187Y-94455009D01*
X135140190Y-94439139D01*
X135147013Y-94420768D01*
X135159090Y-94398018D01*
X135177857Y-94369013D01*
X135204747Y-94331875D01*
X135241196Y-94284729D01*
X135288637Y-94225696D01*
X135348505Y-94152901D01*
X135422234Y-94064465D01*
X135511260Y-93958514D01*
X135617016Y-93833169D01*
X135740937Y-93686554D01*
X135884458Y-93516792D01*
X136100885Y-93260733D01*
X136101028Y-92594678D01*
X136101018Y-92533557D01*
X136100816Y-92393632D01*
X136100383Y-92265829D01*
X136099746Y-92153576D01*
X136098934Y-92060301D01*
X136097973Y-91989432D01*
X136096891Y-91944396D01*
X136095715Y-91928623D01*
X136092831Y-91929997D01*
X136067135Y-91944123D01*
X136017367Y-91972158D01*
X135946533Y-92012388D01*
X135857638Y-92063100D01*
X135753689Y-92122581D01*
X135637690Y-92189118D01*
X135512648Y-92260996D01*
X134935037Y-92593369D01*
X134831903Y-92878017D01*
X134817833Y-92916894D01*
X134777850Y-93027680D01*
X134731490Y-93156475D01*
X134681991Y-93294267D01*
X134632592Y-93432043D01*
X134586531Y-93560792D01*
X134559194Y-93636872D01*
X134514603Y-93757681D01*
X134477175Y-93852519D01*
X134444971Y-93924720D01*
X134416051Y-93977617D01*
X134388475Y-94014543D01*
X134360305Y-94038832D01*
X134329600Y-94053817D01*
X134294422Y-94062832D01*
X134221012Y-94067777D01*
X134142361Y-94046802D01*
X134073357Y-93995177D01*
X134048628Y-93966776D01*
X134028638Y-93933546D01*
X134017388Y-93895428D01*
X134015386Y-93848794D01*
X134023136Y-93790012D01*
X134041146Y-93715455D01*
X134069920Y-93621491D01*
X134109965Y-93504493D01*
X134161786Y-93360829D01*
X134194949Y-93269677D01*
X134229901Y-93172373D01*
X134259292Y-93089186D01*
X134281679Y-93024251D01*
X134295618Y-92981705D01*
X134299665Y-92965684D01*
X134298430Y-92965698D01*
X134277480Y-92975237D01*
X134235038Y-92997922D01*
X134176422Y-93030846D01*
X134106949Y-93071099D01*
X133974521Y-93148744D01*
X133828687Y-93233829D01*
X133707533Y-93303934D01*
X133609194Y-93360114D01*
X133531802Y-93403422D01*
X133473492Y-93434913D01*
X133432396Y-93455642D01*
X133406647Y-93466662D01*
X133403440Y-93467749D01*
X133325821Y-93477341D01*
X133249862Y-93458171D01*
X133182937Y-93413473D01*
X133132422Y-93346479D01*
X133120371Y-93313755D01*
X133113588Y-93242960D01*
X133124977Y-93170082D01*
X133153203Y-93110305D01*
X133162845Y-93099956D01*
X133182912Y-93083509D01*
X133214358Y-93061307D01*
X133259316Y-93032053D01*
X133319915Y-92994449D01*
X133398287Y-92947195D01*
X133496563Y-92888995D01*
X133616873Y-92818548D01*
X133761349Y-92734558D01*
X133932122Y-92635725D01*
X133960751Y-92618861D01*
X134009824Y-92588120D01*
X134042109Y-92565260D01*
X134051719Y-92554289D01*
X134035642Y-92549738D01*
X133991415Y-92540164D01*
X133923406Y-92526504D01*
X133835912Y-92509604D01*
X133733234Y-92490306D01*
X133619670Y-92469456D01*
X133575309Y-92461325D01*
X133442336Y-92435879D01*
X133330788Y-92412804D01*
X133243392Y-92392715D01*
X133182875Y-92376226D01*
X133151962Y-92363953D01*
X133104733Y-92323748D01*
X133064017Y-92259438D01*
X133047360Y-92188503D01*
X133053107Y-92116959D01*
X133079607Y-92050823D01*
X133125205Y-91996112D01*
X133188249Y-91958842D01*
X133267084Y-91945029D01*
X133269892Y-91945074D01*
X133304101Y-91948214D01*
X133363705Y-91956396D01*
X133449542Y-91969762D01*
X133562451Y-91988458D01*
X133703268Y-92012625D01*
X133872833Y-92042409D01*
X134071982Y-92077952D01*
X134301554Y-92119397D01*
X134562386Y-92166889D01*
X134698955Y-92191841D01*
X135044561Y-91992860D01*
X135076822Y-91974290D01*
X135193526Y-91907167D01*
X135314640Y-91837582D01*
X135431980Y-91770232D01*
X135537364Y-91709814D01*
X135622610Y-91661025D01*
X135677553Y-91629392D01*
X135748150Y-91587982D01*
X135804434Y-91554038D01*
X135841685Y-91530423D01*
X135855181Y-91520000D01*
X135854976Y-91519333D01*
X135843597Y-91509865D01*
X135813391Y-91490420D01*
X135762395Y-91459841D01*
X135688647Y-91416969D01*
X135590187Y-91360646D01*
X135465053Y-91289715D01*
X135456855Y-91285063D01*
X135412926Y-91259905D01*
X135347795Y-91222404D01*
X135266905Y-91175701D01*
X135175698Y-91122937D01*
X135079614Y-91067252D01*
X135044092Y-91046660D01*
X134953401Y-90994214D01*
X134872186Y-90947425D01*
X134805142Y-90908986D01*
X134756966Y-90881594D01*
X134732351Y-90867943D01*
X134717418Y-90861940D01*
X134684052Y-90857739D01*
X134634368Y-90861470D01*
X134560729Y-90873375D01*
X134373696Y-90907423D01*
X134154283Y-90947199D01*
X133963869Y-90981489D01*
X133800672Y-91010599D01*
X133662913Y-91034835D01*
X133548811Y-91054503D01*
X133456586Y-91069910D01*
X133384458Y-91081360D01*
X133330646Y-91089159D01*
X133293371Y-91093615D01*
X133270851Y-91095032D01*
X133210657Y-91087394D01*
X133142495Y-91055704D01*
X133091340Y-91004961D01*
X133058919Y-90941199D01*
X133046959Y-90870449D01*
X133057185Y-90798746D01*
X133091325Y-90732122D01*
X133151105Y-90676608D01*
X133160254Y-90672109D01*
X133203082Y-90658447D01*
X133273568Y-90640811D01*
X133368470Y-90619931D01*
X133484548Y-90596537D01*
X133618561Y-90571357D01*
X133727609Y-90551289D01*
X133830942Y-90531825D01*
X133919288Y-90514718D01*
X133988349Y-90500815D01*
X134033826Y-90490963D01*
X134051420Y-90486010D01*
X134049423Y-90483395D01*
X134025921Y-90466818D01*
X133978908Y-90436991D01*
X133911725Y-90395943D01*
X133827714Y-90345701D01*
X133730217Y-90288293D01*
X133622576Y-90225749D01*
X133579939Y-90201016D01*
X133472332Y-90137549D01*
X133374327Y-90078284D01*
X133289695Y-90025595D01*
X133222211Y-89981855D01*
X133175645Y-89949441D01*
X133153773Y-89930725D01*
X133145164Y-89916785D01*
X133125690Y-89866300D01*
X133114485Y-89809087D01*
X133113426Y-89789018D01*
X133127657Y-89707587D01*
X133170946Y-89638770D01*
X133241137Y-89586358D01*
X133257364Y-89578436D01*
X133286971Y-89567783D01*
X133318264Y-89563697D01*
X133354541Y-89567453D01*
X133399099Y-89580324D01*
X133455238Y-89603584D01*
X133526253Y-89638506D01*
X133615443Y-89686365D01*
X133726106Y-89748434D01*
X133861540Y-89825987D01*
X133915835Y-89857208D01*
X134020073Y-89916959D01*
X134112965Y-89969955D01*
X134191119Y-90014278D01*
X134251142Y-90048007D01*
X134289643Y-90069223D01*
X134303230Y-90076005D01*
X134303229Y-90075987D01*
X134297837Y-90059721D01*
X134282901Y-90016751D01*
X134259841Y-89951110D01*
X134230078Y-89866831D01*
X134195033Y-89767945D01*
X134156126Y-89658484D01*
X134118712Y-89551776D01*
X134083135Y-89447010D01*
X134052910Y-89354542D01*
X134029506Y-89278972D01*
X134014387Y-89224903D01*
X134009022Y-89196937D01*
X134012830Y-89158224D01*
X134041643Y-89085393D01*
X134093383Y-89025585D01*
X134161645Y-88985089D01*
X134240021Y-88970193D01*
X134266001Y-88972283D01*
X134329126Y-88990198D01*
X134387048Y-89021093D01*
X134426024Y-89058447D01*
X134431413Y-89069318D01*
X134448117Y-89109568D01*
X134473334Y-89174302D01*
X134505584Y-89259590D01*
X134543389Y-89361501D01*
X134585267Y-89476105D01*
X134629739Y-89599472D01*
X134649220Y-89653872D01*
X134696219Y-89785093D01*
X134741827Y-89912401D01*
X134784119Y-90030423D01*
X134821170Y-90133786D01*
X134851053Y-90217118D01*
X134871844Y-90275046D01*
X134877164Y-90289814D01*
X134903776Y-90360877D01*
X134925016Y-90408821D01*
X134945023Y-90440432D01*
X134967935Y-90462499D01*
X134997889Y-90481811D01*
X135097127Y-90539286D01*
X135257534Y-90632070D01*
X135410258Y-90720268D01*
X135552727Y-90802401D01*
X135682366Y-90876991D01*
X135796603Y-90942560D01*
X135892864Y-90997630D01*
X135968574Y-91040721D01*
X136021161Y-91070356D01*
X136048050Y-91085057D01*
X136101171Y-91112216D01*
X136101171Y-89777511D01*
X135935746Y-89582250D01*
X135907286Y-89548681D01*
X135847841Y-89478719D01*
X135794754Y-89416436D01*
X135752942Y-89367594D01*
X135727320Y-89337954D01*
X135725994Y-89336440D01*
X135692983Y-89298096D01*
X135648800Y-89246004D01*
X135602623Y-89190981D01*
X135585874Y-89170954D01*
X135538179Y-89114195D01*
X135478203Y-89043063D01*
X135411955Y-88964681D01*
X135345444Y-88886169D01*
X135305863Y-88838900D01*
X135249594Y-88769468D01*
X135202748Y-88708968D01*
X135169341Y-88662636D01*
X135153391Y-88635714D01*
X135143393Y-88602719D01*
X135139252Y-88524344D01*
X135160199Y-88452902D01*
X135201467Y-88392655D01*
X135258288Y-88347863D01*
X135325894Y-88322788D01*
X135399517Y-88321691D01*
X135474389Y-88348833D01*
X135493452Y-88362685D01*
X135537171Y-88402907D01*
X135594389Y-88462115D01*
X135661129Y-88536133D01*
X135733411Y-88620782D01*
X135788221Y-88686326D01*
X135857289Y-88768149D01*
X135921612Y-88843561D01*
X135975837Y-88906295D01*
X136014610Y-88950081D01*
X136099670Y-89043745D01*
X136100482Y-88520708D01*
X136100509Y-88503547D01*
X136100866Y-88361447D01*
X136101554Y-88247957D01*
X136102781Y-88159397D01*
X136104757Y-88092083D01*
X136107691Y-88042334D01*
X136111793Y-88006468D01*
X136117272Y-87980802D01*
X136124338Y-87961654D01*
X136133199Y-87945343D01*
X136161521Y-87909503D01*
X136225221Y-87865494D01*
X136301374Y-87843651D01*
X136381127Y-87845926D01*
G37*
%TD*%
M02*
