%
M48
METRIC,000.000
T01C0.60
T02C0.90
T03C3.20
T10C0.40
T11C1.00
T12C1.02
T13C3.18
%
T01
X184109Y104549
X189890Y104549
X181285Y104564G85X181285Y103365
X192733Y104564G85X192733Y103365
X181275Y108630G85X181275Y107431
X192715Y108839G85X192715Y107640
T02
X147300Y042400
X154099Y042400
T03
X138001Y041000
X198001Y041000
X138001Y108000
X198001Y108000
T10
X180330Y055252
X183462Y055463
X183230Y057254
X138699Y057698
X184201Y058498
X161999Y061998
X161999Y065001
X150701Y065199
X144300Y066901
X152999Y069199
X191150Y070469
X166299Y072250
X170099Y072301
X188028Y073980
X191000Y075999
X191999Y075999
X170200Y077099
X166299Y077200
X197061Y077449
X177000Y078000
X191000Y078999
X191999Y078999
X188001Y079999
X191000Y079999
X191999Y079999
X188001Y081998
X173799Y082100
X164099Y084099
X171699Y084099
X177000Y088000
X190701Y089499
X181999Y089999
X138001Y090299
X142900Y090401
X157000Y091998
X171600Y092199
X171999Y094000
X156700Y094500
X190500Y095600
X148100Y095999
X171999Y095999
X161790Y096390
X142900Y096400
X138100Y096499
X166400Y097398
X171999Y098000
X181000Y099999
X194399Y100899
X188999Y101000
X167889Y101089
X181000Y101998
X188001Y101998
X068751Y097450
X068700Y100699
X066350Y099050
X063300Y097899
X063300Y099850
X058149Y044250
X058050Y040899
X055649Y042550
X053998Y116500
X052401Y041450
X052401Y043350
X050998Y116500
X048900Y051100
X048900Y054001
X048900Y057099
X047999Y116500
X044999Y116500
X044100Y051100
X044100Y054100
X044100Y057099
X041999Y116500
X039000Y116500
X037001Y070351
X036950Y068400
X033749Y069949
X030950Y068349
X030899Y071600
X078248Y031549
X078299Y028300
X080649Y029949
X083699Y031100
X083699Y029149
X088850Y084749
X088949Y088100
X091350Y086449
X094598Y087549
X094598Y085649
X098099Y077899
X098099Y074998
X098099Y071900
X102899Y077899
X102899Y074899
X102899Y071900
X109998Y058648
X110049Y060599
X113250Y059050
X116049Y060650
X116100Y057399
T11
X140200Y081899
X142740Y081899
X145280Y081899
X147820Y081899
X150360Y081899
X152900Y081899
T12
X178879Y047040
X191579Y047040
T13
X140779Y073710
X195580Y073710
M30