%MOIN*%
%OFA0B0*%
%FSLAX46Y46*%
%IPPOS*%
%LPD*%
%AMRoundRect0*
4,1,4,
-0.078740157480314946,-0.11811023622047247,
-0.15748031496062992,-0.19685039370078744,
-0.23622047244094485,-0.27559055118110243,
-0.31496062992125984,-0.35433070866141742,
-0.078740157480314946,-0.11811023622047247,
0*
1,1,$1,$2,$3*
1,1,$1,$2,$3*
1,1,$1,$2,$3*
1,1,$1,$2,$3*
20,1,$1,$2,$3,$4,$5,-180*
20,1,$1,$2,$3,$4,$5,-180*
20,1,$1,$2,$3,$4,$5,-180*
20,1,$1,$2,$3,$4,$5,-180*%
%AMREC510*
4,1,3,
0.029527559055118106,0.019685039370078747,
-0.029527559055118117,0.019685039370078736,
-0.029527559055118106,-0.019685039370078747,
0.029527559055118117,-0.019685039370078736,
0*%
%AMCOMP520*
4,1,3,
0.018700787401574805,-0.0098425196850393682,
0.0187007874015748,0.0098425196850393734,
-0.018700787401574805,0.0098425196850393682,
-0.0187007874015748,-0.0098425196850393734,
0*
4,1,19,
0.018700787401574805,-0.01968503937007874,
0.015659281551427685,-0.019203312168259386,
0.012915499485310306,-0.017805285377706176,
0.010738021708907999,-0.015627807601303868,
0.0093399949183547888,-0.012884025535186489,
0.0088582677165354329,-0.00984251968503937,
0.0093399949183547871,-0.00680101383489225,
0.010738021708907997,-0.0040572317687748707,
0.012915499485310301,-0.001879753992372564,
0.015659281551427682,-0.0004817272018193531,
0.0187007874015748,0.0000000000000000022901103073449965,
0.021742293251721927,-0.00048172720181935234,
0.0244860753178393,-0.0018797539923725605,
0.026663553094241611,-0.0040572317687748664,
0.02806157988479482,-0.0068010138348922455,
0.028543307086614175,-0.0098425196850393647,
0.02806157988479482,-0.012884025535186484,
0.026663553094241611,-0.015627807601303865,
0.024486075317839306,-0.017805285377706176,
0.021742293251721927,-0.019203312168259386,
0*
4,1,19,
0.018700787401574805,0.0000000000000000022901103073449965,
0.015659281551427682,0.00048172720181935695,
0.012915499485310303,0.0018797539923725661,
0.010738021708907997,0.0040572317687748724,
0.0093399949183547871,0.0068010138348922507,
0.0088582677165354312,0.00984251968503937,
0.0093399949183547853,0.012884025535186494,
0.010738021708907995,0.015627807601303872,
0.0129154994853103,0.017805285377706179,
0.015659281551427682,0.019203312168259389,
0.018700787401574798,0.019685039370078747,
0.021742293251721924,0.019203312168259389,
0.0244860753178393,0.017805285377706179,
0.026663553094241611,0.015627807601303875,
0.02806157988479482,0.012884025535186496,
0.028543307086614175,0.0098425196850393769,
0.02806157988479482,0.006801013834892255,
0.026663553094241611,0.0040572317687748768,
0.024486075317839306,0.0018797539923725687,
0.021742293251721924,0.00048172720181935771,
0*
4,1,19,
-0.018700787401574805,-0.0000000000000000022901103073449965,
-0.021742293251721924,0.00048172720181935234,
-0.0244860753178393,0.0018797539923725616,
-0.026663553094241611,0.0040572317687748672,
-0.02806157988479482,0.0068010138348922463,
-0.028543307086614175,0.0098425196850393665,
-0.02806157988479482,0.012884025535186487,
-0.026663553094241611,0.015627807601303865,
-0.024486075317839306,0.017805285377706176,
-0.021742293251721927,0.019203312168259386,
-0.018700787401574808,0.01968503937007874,
-0.015659281551427682,0.019203312168259386,
-0.012915499485310308,0.017805285377706176,
-0.010738021708907999,0.015627807601303872,
-0.0093399949183547888,0.012884025535186489,
-0.0088582677165354329,0.0098425196850393734,
-0.0093399949183547871,0.0068010138348922507,
-0.010738021708907997,0.0040572317687748724,
-0.012915499485310301,0.001879753992372564,
-0.015659281551427682,0.0004817272018193531,
0*
4,1,19,
-0.0187007874015748,-0.019685039370078747,
-0.02174229325172192,-0.019203312168259389,
-0.0244860753178393,-0.017805285377706179,
-0.026663553094241611,-0.015627807601303872,
-0.02806157988479482,-0.012884025535186496,
-0.028543307086614175,-0.0098425196850393751,
-0.02806157988479482,-0.0068010138348922541,
-0.026663553094241611,-0.004057231768774875,
-0.024486075317839306,-0.0018797539923725687,
-0.021742293251721924,-0.00048172720181935771,
-0.018700787401574805,-0.0000000000000000022901103073449973,
-0.015659281551427682,-0.00048172720181935695,
-0.012915499485310306,-0.001879753992372565,
-0.010738021708907997,-0.0040572317687748707,
-0.0093399949183547871,-0.00680101383489225,
-0.0088582677165354312,-0.00984251968503937,
-0.0093399949183547853,-0.012884025535186491,
-0.010738021708907995,-0.015627807601303872,
-0.0129154994853103,-0.017805285377706179,
-0.015659281551427678,-0.019203312168259389,
0*
4,1,3,
0.028543307086614175,-0.0098425196850393682,
0.0088582677165354329,-0.0098425196850393682,
0.0088582677165354312,0.00984251968503937,
0.028543307086614175,0.0098425196850393734,
0*
4,1,3,
0.0187007874015748,0.019685039370078747,
0.018700787401574805,0.0000000000000000022901103073449965,
-0.018700787401574805,-0.0000000000000000022901103073449965,
-0.018700787401574805,0.01968503937007874,
0*
4,1,3,
-0.028543307086614175,0.0098425196850393682,
-0.0088582677165354329,0.0098425196850393682,
-0.0088582677165354312,-0.00984251968503937,
-0.028543307086614175,-0.0098425196850393734,
0*
4,1,3,
-0.0187007874015748,-0.019685039370078747,
-0.018700787401574805,-0.0000000000000000022901103073449965,
0.018700787401574805,0.0000000000000000022901103073449965,
0.018700787401574805,-0.01968503937007874,
0*%
%AMRoundRect1*
4,1,4,
0.07874015748031496,0.11811023622047245,
0.15748031496062992,0.19685039370078741,
0.23622047244094491,0.27559055118110237,
0.31496062992125984,0.35433070866141736,
0.07874015748031496,0.11811023622047245,
0*
1,1,$1,$2,$3*
1,1,$1,$2,$3*
1,1,$1,$2,$3*
1,1,$1,$2,$3*
20,1,$1,$2,$3,$4,$5,0*
20,1,$1,$2,$3,$4,$5,0*
20,1,$1,$2,$3,$4,$5,0*
20,1,$1,$2,$3,$4,$5,0*%
%AMCOMP620*
4,1,3,
-0.018700787401574805,0.00984251968503937,
-0.018700787401574805,-0.00984251968503937,
0.018700787401574805,-0.00984251968503937,
0.018700787401574805,0.00984251968503937,
0*
4,1,19,
-0.018700787401574805,0.01968503937007874,
-0.015659281551427682,0.019203312168259386,
-0.012915499485310303,0.017805285377706176,
-0.010738021708907997,0.015627807601303872,
-0.0093399949183547871,0.012884025535186491,
-0.0088582677165354329,0.00984251968503937,
-0.0093399949183547871,0.0068010138348922507,
-0.010738021708907997,0.0040572317687748724,
-0.012915499485310301,0.0018797539923725657,
-0.015659281551427682,0.00048172720181935506,
-0.0187007874015748,0,
-0.021742293251721927,0.00048172720181935506,
-0.0244860753178393,0.0018797539923725635,
-0.026663553094241611,0.00405723176877487,
-0.02806157988479482,0.0068010138348922489,
-0.028543307086614175,0.0098425196850393682,
-0.02806157988479482,0.012884025535186489,
-0.026663553094241611,0.015627807601303868,
-0.024486075317839306,0.017805285377706176,
-0.021742293251721924,0.019203312168259386,
0*
4,1,19,
-0.018700787401574805,0,
-0.015659281551427682,-0.00048172720181935506,
-0.012915499485310303,-0.0018797539923725646,
-0.010738021708907997,-0.0040572317687748707,
-0.0093399949183547871,-0.00680101383489225,
-0.0088582677165354329,-0.00984251968503937,
-0.0093399949183547871,-0.012884025535186491,
-0.010738021708907997,-0.015627807601303868,
-0.012915499485310301,-0.017805285377706176,
-0.015659281551427682,-0.019203312168259386,
-0.0187007874015748,-0.01968503937007874,
-0.021742293251721927,-0.019203312168259386,
-0.0244860753178393,-0.017805285377706176,
-0.026663553094241611,-0.015627807601303872,
-0.02806157988479482,-0.012884025535186491,
-0.028543307086614175,-0.0098425196850393734,
-0.02806157988479482,-0.0068010138348922524,
-0.026663553094241611,-0.0040572317687748733,
-0.024486075317839306,-0.0018797539923725657,
-0.021742293251721924,-0.00048172720181935506,
0*
4,1,19,
0.018700787401574805,0,
0.021742293251721924,-0.00048172720181935506,
0.0244860753178393,-0.0018797539923725646,
0.026663553094241611,-0.0040572317687748707,
0.02806157988479482,-0.00680101383489225,
0.028543307086614175,-0.00984251968503937,
0.02806157988479482,-0.012884025535186491,
0.026663553094241611,-0.015627807601303868,
0.024486075317839306,-0.017805285377706176,
0.021742293251721924,-0.019203312168259386,
0.018700787401574805,-0.01968503937007874,
0.015659281551427682,-0.019203312168259386,
0.012915499485310306,-0.017805285377706176,
0.010738021708907997,-0.015627807601303872,
0.0093399949183547871,-0.012884025535186491,
0.0088582677165354329,-0.0098425196850393734,
0.0093399949183547871,-0.0068010138348922524,
0.010738021708907997,-0.0040572317687748733,
0.012915499485310301,-0.0018797539923725657,
0.015659281551427682,-0.00048172720181935506,
0*
4,1,19,
0.018700787401574805,0.01968503937007874,
0.021742293251721924,0.019203312168259386,
0.0244860753178393,0.017805285377706176,
0.026663553094241611,0.015627807601303872,
0.02806157988479482,0.012884025535186491,
0.028543307086614175,0.00984251968503937,
0.02806157988479482,0.0068010138348922507,
0.026663553094241611,0.0040572317687748724,
0.024486075317839306,0.0018797539923725657,
0.021742293251721924,0.00048172720181935506,
0.018700787401574805,0,
0.015659281551427682,0.00048172720181935506,
0.012915499485310306,0.0018797539923725635,
0.010738021708907997,0.00405723176877487,
0.0093399949183547871,0.0068010138348922489,
0.0088582677165354329,0.0098425196850393682,
0.0093399949183547871,0.012884025535186489,
0.010738021708907997,0.015627807601303868,
0.012915499485310301,0.017805285377706176,
0.015659281551427682,0.019203312168259386,
0*
4,1,3,
-0.028543307086614175,0.00984251968503937,
-0.0088582677165354329,0.00984251968503937,
-0.0088582677165354329,-0.00984251968503937,
-0.028543307086614175,-0.00984251968503937,
0*
4,1,3,
-0.018700787401574805,-0.01968503937007874,
-0.018700787401574805,0,
0.018700787401574805,0,
0.018700787401574805,-0.01968503937007874,
0*
4,1,3,
0.028543307086614175,-0.00984251968503937,
0.0088582677165354329,-0.00984251968503937,
0.0088582677165354329,0.00984251968503937,
0.028543307086614175,0.00984251968503937,
0*
4,1,3,
0.018700787401574805,0.01968503937007874,
0.018700787401574805,0,
-0.018700787401574805,0,
-0.018700787401574805,0.01968503937007874,
0*%
%ADD10C,0.12598425196850396*%
%ADD11C,0.035433070866141732*%
%ADD12C,0.023622047244094488*%
%ADD13O,0.03937007874015748X0.086614173228346469*%
%ADD14R,0.066929133858267723X0.066929133858267723*%
%ADD15O,0.066929133858267723X0.066929133858267723*%
%ADD16C,0.090000000000000011*%
%ADD17C,0.15748031496062992*%
%ADD28C,0.005905511811023622*%
%AMCOMP69*
4,1,3,
0.029527559055118106,0.019685039370078747,
-0.029527559055118117,0.019685039370078736,
-0.029527559055118106,-0.019685039370078747,
0.029527559055118117,-0.019685039370078736,
0*%
%ADD29COMP69*%
%AMCOMP70*
4,1,3,
0.018700787401574805,-0.0098425196850393682,
0.0187007874015748,0.0098425196850393734,
-0.018700787401574805,0.0098425196850393682,
-0.0187007874015748,-0.0098425196850393734,
0*
4,1,19,
0.018700787401574805,-0.01968503937007874,
0.015659281551427685,-0.019203312168259386,
0.012915499485310306,-0.017805285377706176,
0.010738021708907999,-0.015627807601303868,
0.0093399949183547888,-0.012884025535186489,
0.0088582677165354329,-0.00984251968503937,
0.0093399949183547871,-0.00680101383489225,
0.010738021708907997,-0.0040572317687748707,
0.012915499485310301,-0.001879753992372564,
0.015659281551427682,-0.0004817272018193531,
0.0187007874015748,0.0000000000000000022901103073449965,
0.021742293251721927,-0.00048172720181935234,
0.0244860753178393,-0.0018797539923725605,
0.026663553094241611,-0.0040572317687748664,
0.02806157988479482,-0.0068010138348922455,
0.028543307086614175,-0.0098425196850393647,
0.02806157988479482,-0.012884025535186484,
0.026663553094241611,-0.015627807601303865,
0.024486075317839306,-0.017805285377706176,
0.021742293251721927,-0.019203312168259386,
0*
4,1,19,
0.018700787401574805,0.0000000000000000022901103073449965,
0.015659281551427682,0.00048172720181935695,
0.012915499485310303,0.0018797539923725661,
0.010738021708907997,0.0040572317687748724,
0.0093399949183547871,0.0068010138348922507,
0.0088582677165354312,0.00984251968503937,
0.0093399949183547853,0.012884025535186494,
0.010738021708907995,0.015627807601303872,
0.0129154994853103,0.017805285377706179,
0.015659281551427682,0.019203312168259389,
0.018700787401574798,0.019685039370078747,
0.021742293251721924,0.019203312168259389,
0.0244860753178393,0.017805285377706179,
0.026663553094241611,0.015627807601303875,
0.02806157988479482,0.012884025535186496,
0.028543307086614175,0.0098425196850393769,
0.02806157988479482,0.006801013834892255,
0.026663553094241611,0.0040572317687748768,
0.024486075317839306,0.0018797539923725687,
0.021742293251721924,0.00048172720181935771,
0*
4,1,19,
-0.018700787401574805,-0.0000000000000000022901103073449965,
-0.021742293251721924,0.00048172720181935234,
-0.0244860753178393,0.0018797539923725616,
-0.026663553094241611,0.0040572317687748672,
-0.02806157988479482,0.0068010138348922463,
-0.028543307086614175,0.0098425196850393665,
-0.02806157988479482,0.012884025535186487,
-0.026663553094241611,0.015627807601303865,
-0.024486075317839306,0.017805285377706176,
-0.021742293251721927,0.019203312168259386,
-0.018700787401574808,0.01968503937007874,
-0.015659281551427682,0.019203312168259386,
-0.012915499485310308,0.017805285377706176,
-0.010738021708907999,0.015627807601303872,
-0.0093399949183547888,0.012884025535186489,
-0.0088582677165354329,0.0098425196850393734,
-0.0093399949183547871,0.0068010138348922507,
-0.010738021708907997,0.0040572317687748724,
-0.012915499485310301,0.001879753992372564,
-0.015659281551427682,0.0004817272018193531,
0*
4,1,19,
-0.0187007874015748,-0.019685039370078747,
-0.02174229325172192,-0.019203312168259389,
-0.0244860753178393,-0.017805285377706179,
-0.026663553094241611,-0.015627807601303872,
-0.02806157988479482,-0.012884025535186496,
-0.028543307086614175,-0.0098425196850393751,
-0.02806157988479482,-0.0068010138348922541,
-0.026663553094241611,-0.004057231768774875,
-0.024486075317839306,-0.0018797539923725687,
-0.021742293251721924,-0.00048172720181935771,
-0.018700787401574805,-0.0000000000000000022901103073449973,
-0.015659281551427682,-0.00048172720181935695,
-0.012915499485310306,-0.001879753992372565,
-0.010738021708907997,-0.0040572317687748707,
-0.0093399949183547871,-0.00680101383489225,
-0.0088582677165354312,-0.00984251968503937,
-0.0093399949183547853,-0.012884025535186491,
-0.010738021708907995,-0.015627807601303872,
-0.0129154994853103,-0.017805285377706179,
-0.015659281551427678,-0.019203312168259389,
0*
4,1,3,
0.028543307086614175,-0.0098425196850393682,
0.0088582677165354329,-0.0098425196850393682,
0.0088582677165354312,0.00984251968503937,
0.028543307086614175,0.0098425196850393734,
0*
4,1,3,
0.0187007874015748,0.019685039370078747,
0.018700787401574805,0.0000000000000000022901103073449965,
-0.018700787401574805,-0.0000000000000000022901103073449965,
-0.018700787401574805,0.01968503937007874,
0*
4,1,3,
-0.028543307086614175,0.0098425196850393682,
-0.0088582677165354329,0.0098425196850393682,
-0.0088582677165354312,-0.00984251968503937,
-0.028543307086614175,-0.0098425196850393734,
0*
4,1,3,
-0.0187007874015748,-0.019685039370078747,
-0.018700787401574805,-0.0000000000000000022901103073449965,
0.018700787401574805,0.0000000000000000022901103073449965,
0.018700787401574805,-0.01968503937007874,
0*%
%ADD30COMP70,0.25X-0.475X0.25X-0.475X-0.25X0.475X-0.25X0.475X0.25X0*%
%ADD31C,0.005905511811023622*%
%ADD32R,0.059055118110236227X0.03937007874015748*%
%AMCOMP77*
4,1,3,
-0.018700787401574805,0.00984251968503937,
-0.018700787401574805,-0.00984251968503937,
0.018700787401574805,-0.00984251968503937,
0.018700787401574805,0.00984251968503937,
0*
4,1,19,
-0.018700787401574805,0.01968503937007874,
-0.015659281551427682,0.019203312168259386,
-0.012915499485310303,0.017805285377706176,
-0.010738021708907997,0.015627807601303872,
-0.0093399949183547871,0.012884025535186491,
-0.0088582677165354329,0.00984251968503937,
-0.0093399949183547871,0.0068010138348922507,
-0.010738021708907997,0.0040572317687748724,
-0.012915499485310301,0.0018797539923725657,
-0.015659281551427682,0.00048172720181935506,
-0.0187007874015748,0,
-0.021742293251721927,0.00048172720181935506,
-0.0244860753178393,0.0018797539923725635,
-0.026663553094241611,0.00405723176877487,
-0.02806157988479482,0.0068010138348922489,
-0.028543307086614175,0.0098425196850393682,
-0.02806157988479482,0.012884025535186489,
-0.026663553094241611,0.015627807601303868,
-0.024486075317839306,0.017805285377706176,
-0.021742293251721924,0.019203312168259386,
0*
4,1,19,
-0.018700787401574805,0,
-0.015659281551427682,-0.00048172720181935506,
-0.012915499485310303,-0.0018797539923725646,
-0.010738021708907997,-0.0040572317687748707,
-0.0093399949183547871,-0.00680101383489225,
-0.0088582677165354329,-0.00984251968503937,
-0.0093399949183547871,-0.012884025535186491,
-0.010738021708907997,-0.015627807601303868,
-0.012915499485310301,-0.017805285377706176,
-0.015659281551427682,-0.019203312168259386,
-0.0187007874015748,-0.01968503937007874,
-0.021742293251721927,-0.019203312168259386,
-0.0244860753178393,-0.017805285377706176,
-0.026663553094241611,-0.015627807601303872,
-0.02806157988479482,-0.012884025535186491,
-0.028543307086614175,-0.0098425196850393734,
-0.02806157988479482,-0.0068010138348922524,
-0.026663553094241611,-0.0040572317687748733,
-0.024486075317839306,-0.0018797539923725657,
-0.021742293251721924,-0.00048172720181935506,
0*
4,1,19,
0.018700787401574805,0,
0.021742293251721924,-0.00048172720181935506,
0.0244860753178393,-0.0018797539923725646,
0.026663553094241611,-0.0040572317687748707,
0.02806157988479482,-0.00680101383489225,
0.028543307086614175,-0.00984251968503937,
0.02806157988479482,-0.012884025535186491,
0.026663553094241611,-0.015627807601303868,
0.024486075317839306,-0.017805285377706176,
0.021742293251721924,-0.019203312168259386,
0.018700787401574805,-0.01968503937007874,
0.015659281551427682,-0.019203312168259386,
0.012915499485310306,-0.017805285377706176,
0.010738021708907997,-0.015627807601303872,
0.0093399949183547871,-0.012884025535186491,
0.0088582677165354329,-0.0098425196850393734,
0.0093399949183547871,-0.0068010138348922524,
0.010738021708907997,-0.0040572317687748733,
0.012915499485310301,-0.0018797539923725657,
0.015659281551427682,-0.00048172720181935506,
0*
4,1,19,
0.018700787401574805,0.01968503937007874,
0.021742293251721924,0.019203312168259386,
0.0244860753178393,0.017805285377706176,
0.026663553094241611,0.015627807601303872,
0.02806157988479482,0.012884025535186491,
0.028543307086614175,0.00984251968503937,
0.02806157988479482,0.0068010138348922507,
0.026663553094241611,0.0040572317687748724,
0.024486075317839306,0.0018797539923725657,
0.021742293251721924,0.00048172720181935506,
0.018700787401574805,0,
0.015659281551427682,0.00048172720181935506,
0.012915499485310306,0.0018797539923725635,
0.010738021708907997,0.00405723176877487,
0.0093399949183547871,0.0068010138348922489,
0.0088582677165354329,0.0098425196850393682,
0.0093399949183547871,0.012884025535186489,
0.010738021708907997,0.015627807601303868,
0.012915499485310301,0.017805285377706176,
0.015659281551427682,0.019203312168259386,
0*
4,1,3,
-0.028543307086614175,0.00984251968503937,
-0.0088582677165354329,0.00984251968503937,
-0.0088582677165354329,-0.00984251968503937,
-0.028543307086614175,-0.00984251968503937,
0*
4,1,3,
-0.018700787401574805,-0.01968503937007874,
-0.018700787401574805,0,
0.018700787401574805,0,
0.018700787401574805,-0.01968503937007874,
0*
4,1,3,
0.028543307086614175,-0.00984251968503937,
0.0088582677165354329,-0.00984251968503937,
0.0088582677165354329,0.00984251968503937,
0.028543307086614175,0.00984251968503937,
0*
4,1,3,
0.018700787401574805,0.01968503937007874,
0.018700787401574805,0,
-0.018700787401574805,0,
-0.018700787401574805,0.01968503937007874,
0*%
%ADD33COMP77,0.25X-0.475X0.25X-0.475X-0.25X0.475X-0.25X0.475X0.25X0*%
G01*
D10*
X0002874015Y-0002637795D02*
X0007795275Y0004251968D03*
D11*
X0005799212Y0001669291D03*
X0006066929Y0001669291D03*
D10*
X0005433070Y0004251968D03*
D12*
X0007248425Y0004116141D03*
X0007475984Y0004116141D03*
D13*
X0007136811Y0004253228D03*
X0007137204Y0004093082D03*
X0007587888Y0004093082D03*
X0007587204Y0004261417D03*
D10*
X0005433070Y0001614173D03*
D14*
X0006019685Y0003224409D03*
D15*
X0005919685Y0003224409D03*
X0005819685Y0003224409D03*
X0005719685Y0003224409D03*
X0005619685Y0003224409D03*
X0005519685Y0003224409D03*
D10*
X0007795275Y0001614173D03*
D16*
X0007042519Y0001851968D03*
X0007542519Y0001851968D03*
D17*
X0005542519Y0002901968D03*
X0007700000Y0002901968D03*
G04 next file*
G04 Gerber Fmt 4.6, Leading zero omitted, Abs format (unit mm)*
G04 Created by KiCad (PCBNEW (6.0.7)) date 2022-11-21 20:09:17*
G01*
G04 APERTURE LIST*
G04 Aperture macros list*
G04 Aperture macros list end*
G04 APERTURE END LIST*
D28*
G36*
X0001736220Y0002287401D02*
G01*
X0001775590Y0002287401D01*
X0001775590Y0002208661D01*
X0001736220Y0002208661D01*
X0001736220Y0002287401D01*
G37*
X0001736220Y0002287401D02*
X0001775590Y0002287401D01*
X0001775590Y0002208661D01*
X0001736220Y0002208661D01*
X0001736220Y0002287401D01*
G36*
X0001732283Y0004625984D02*
G01*
X0001811023Y0004625984D01*
X0001811023Y0004586614D01*
X0001732283Y0004586614D01*
X0001732283Y0004625984D01*
G37*
X0001732283Y0004625984D02*
X0001811023Y0004625984D01*
X0001811023Y0004586614D01*
X0001732283Y0004586614D01*
X0001732283Y0004625984D01*
G36*
X0001496062Y0004625984D02*
G01*
X0001574803Y0004625984D01*
X0001574803Y0004586614D01*
X0001496062Y0004586614D01*
X0001496062Y0004625984D01*
G37*
X0001496062Y0004625984D02*
X0001574803Y0004625984D01*
X0001574803Y0004586614D01*
X0001496062Y0004586614D01*
X0001496062Y0004625984D01*
G36*
X0001736220Y0002051181D02*
G01*
X0001775590Y0002051181D01*
X0001775590Y0001972440D01*
X0001736220Y0001972440D01*
X0001736220Y0002051181D01*
G37*
X0001736220Y0002051181D02*
X0001775590Y0002051181D01*
X0001775590Y0001972440D01*
X0001736220Y0001972440D01*
X0001736220Y0002051181D01*
G36*
X0001736220Y0002169291D02*
G01*
X0001775590Y0002169291D01*
X0001775590Y0002090551D01*
X0001736220Y0002090551D01*
X0001736220Y0002169291D01*
G37*
X0001736220Y0002169291D02*
X0001775590Y0002169291D01*
X0001775590Y0002090551D01*
X0001736220Y0002090551D01*
X0001736220Y0002169291D01*
G36*
X0001885826Y0002169291D02*
G01*
X0001925196Y0002169291D01*
X0001925196Y0002090551D01*
X0001885826Y0002090551D01*
X0001885826Y0002169291D01*
G37*
X0001885826Y0002169291D02*
X0001925196Y0002169291D01*
X0001925196Y0002090551D01*
X0001885826Y0002090551D01*
X0001885826Y0002169291D01*
G36*
X0001850393Y0004625984D02*
G01*
X0001929133Y0004625984D01*
X0001929133Y0004586614D01*
X0001850393Y0004586614D01*
X0001850393Y0004625984D01*
G37*
X0001850393Y0004625984D02*
X0001929133Y0004625984D01*
X0001929133Y0004586614D01*
X0001850393Y0004586614D01*
X0001850393Y0004625984D01*
G36*
X0001465931Y0004570507D02*
G01*
X0002218041Y0004570462D01*
X0002158986Y0004227942D01*
X0001470049Y0004224402D01*
X0001465931Y0004570507D01*
G37*
X0001465931Y0004570507D02*
X0002218041Y0004570462D01*
X0002158986Y0004227942D01*
X0001470049Y0004224402D01*
X0001465931Y0004570507D01*
G36*
X0002086614Y0004625984D02*
G01*
X0002165354Y0004625984D01*
X0002165354Y0004586614D01*
X0002086614Y0004586614D01*
X0002086614Y0004625984D01*
G37*
X0002086614Y0004625984D02*
X0002165354Y0004625984D01*
X0002165354Y0004586614D01*
X0002086614Y0004586614D01*
X0002086614Y0004625984D01*
G36*
X0001885826Y0002051181D02*
G01*
X0001925196Y0002051181D01*
X0001925196Y0001972440D01*
X0001885826Y0001972440D01*
X0001885826Y0002051181D01*
G37*
X0001885826Y0002051181D02*
X0001925196Y0002051181D01*
X0001925196Y0001972440D01*
X0001885826Y0001972440D01*
X0001885826Y0002051181D01*
G36*
X0001968503Y0004625984D02*
G01*
X0002047244Y0004625984D01*
X0002047244Y0004586614D01*
X0001968503Y0004586614D01*
X0001968503Y0004625984D01*
G37*
X0001968503Y0004625984D02*
X0002047244Y0004625984D01*
X0002047244Y0004586614D01*
X0001968503Y0004586614D01*
X0001968503Y0004625984D01*
G36*
X0001885826Y0002287401D02*
G01*
X0001925196Y0002287401D01*
X0001925196Y0002208661D01*
X0001885826Y0002208661D01*
X0001885826Y0002287401D01*
G37*
X0001885826Y0002287401D02*
X0001925196Y0002287401D01*
X0001925196Y0002208661D01*
X0001885826Y0002208661D01*
X0001885826Y0002287401D01*
G36*
X0001614173Y0004625984D02*
G01*
X0001692913Y0004625984D01*
X0001692913Y0004586614D01*
X0001614173Y0004586614D01*
X0001614173Y0004625984D01*
G37*
X0001614173Y0004625984D02*
X0001692913Y0004625984D01*
X0001692913Y0004586614D01*
X0001614173Y0004586614D01*
X0001614173Y0004625984D01*
G36*
X0002130976Y0003701749D02*
G01*
X0002129366Y0003702426D01*
X0002129231Y0003702520D01*
X0002127630Y0003703939D01*
X0002126685Y0003705562D01*
X0002126269Y0003707596D01*
X0002126246Y0003708043D01*
X0002126540Y0003710211D01*
X0002127447Y0003712119D01*
X0002128869Y0003713614D01*
X0002130708Y0003714541D01*
X0002131958Y0003714826D01*
X0002133673Y0003714808D01*
X0002135478Y0003714207D01*
X0002136663Y0003713519D01*
X0002138145Y0003712038D01*
X0002139078Y0003710233D01*
X0002139442Y0003708259D01*
X0002139218Y0003706269D01*
X0002138385Y0003704419D01*
X0002136925Y0003702863D01*
X0002136628Y0003702653D01*
X0002134882Y0003701879D01*
X0002132906Y0003701572D01*
X0002130976Y0003701749D01*
G37*
G36*
X0002143572Y0003831468D02*
G01*
X0002145112Y0003833329D01*
X0002147244Y0003834815D01*
X0002147261Y0003834823D01*
X0002148605Y0003835233D01*
X0002150346Y0003835409D01*
X0002152134Y0003835340D01*
X0002153616Y0003835015D01*
X0002153904Y0003834886D01*
X0002154978Y0003834218D01*
X0002156052Y0003833341D01*
X0002157323Y0003831860D01*
X0002158408Y0003829678D01*
X0002158726Y0003827869D01*
X0002153788Y0003827869D01*
X0002153273Y0003829157D01*
X0002152179Y0003830110D01*
X0002151136Y0003830563D01*
X0002150191Y0003830636D01*
X0002149212Y0003830233D01*
X0002148690Y0003829890D01*
X0002147755Y0003828771D01*
X0002147453Y0003827245D01*
X0002147461Y0003826975D01*
X0002147884Y0003825594D01*
X0002148812Y0003824611D01*
X0002150053Y0003824111D01*
X0002151417Y0003824180D01*
X0002152712Y0003824901D01*
X0002152987Y0003825178D01*
X0002153700Y0003826469D01*
X0002153788Y0003827869D01*
X0002158726Y0003827869D01*
X0002158815Y0003827365D01*
X0002158545Y0003825055D01*
X0002157599Y0003822883D01*
X0002155978Y0003820982D01*
X0002155811Y0003820840D01*
X0002153704Y0003819546D01*
X0002151426Y0003818971D01*
X0002149102Y0003819110D01*
X0002146856Y0003819958D01*
X0002144812Y0003821507D01*
X0002143783Y0003822736D01*
X0002142730Y0003824864D01*
X0002142358Y0003827112D01*
X0002142375Y0003827245D01*
X0002142646Y0003829354D01*
X0002143572Y0003831468D01*
G37*
G36*
X0002166678Y0003700914D02*
G01*
X0002164621Y0003701718D01*
X0002164019Y0003702116D01*
X0002162507Y0003703666D01*
X0002161562Y0003705568D01*
X0002161251Y0003707645D01*
X0002161639Y0003709718D01*
X0002161640Y0003709722D01*
X0002162524Y0003711237D01*
X0002163863Y0003712640D01*
X0002165354Y0003713615D01*
X0002166002Y0003713862D01*
X0002168044Y0003714145D01*
X0002170027Y0003713772D01*
X0002171813Y0003712834D01*
X0002173263Y0003711422D01*
X0002174238Y0003709626D01*
X0002174599Y0003707539D01*
X0002174424Y0003705924D01*
X0002173641Y0003703967D01*
X0002172346Y0003702414D01*
X0002170669Y0003701337D01*
X0002168736Y0003700812D01*
X0002166678Y0003700914D01*
G37*
G36*
X0002011506Y0003786569D02*
G01*
X0002012597Y0003791196D01*
X0002014366Y0003795612D01*
X0002016759Y0003799749D01*
X0002019720Y0003803536D01*
X0002023194Y0003806903D01*
X0002027126Y0003809782D01*
X0002031461Y0003812102D01*
X0002036143Y0003813794D01*
X0002036401Y0003813865D01*
X0002037001Y0003814013D01*
X0002037682Y0003814154D01*
X0002038495Y0003814291D01*
X0002039490Y0003814430D01*
X0002040717Y0003814574D01*
X0002042226Y0003814729D01*
X0002044068Y0003814897D01*
X0002046294Y0003815083D01*
X0002048952Y0003815293D01*
X0002052095Y0003815529D01*
X0002055771Y0003815797D01*
X0002060032Y0003816100D01*
X0002064927Y0003816443D01*
X0002070508Y0003816830D01*
X0002076824Y0003817265D01*
X0002078960Y0003817412D01*
X0002082714Y0003817675D01*
X0002085793Y0003817906D01*
X0002088271Y0003818119D01*
X0002090223Y0003818330D01*
X0002091722Y0003818552D01*
X0002092843Y0003818802D01*
X0002093660Y0003819092D01*
X0002094246Y0003819440D01*
X0002094677Y0003819858D01*
X0002095025Y0003820363D01*
X0002095365Y0003820968D01*
X0002095448Y0003821127D01*
X0002095676Y0003821709D01*
X0002095840Y0003822469D01*
X0002095949Y0003823528D01*
X0002096014Y0003825009D01*
X0002096043Y0003827034D01*
X0002096047Y0003829724D01*
X0002096019Y0003831949D01*
X0002095850Y0003835745D01*
X0002095511Y0003839517D01*
X0002094980Y0003843390D01*
X0002094235Y0003847489D01*
X0002093256Y0003851940D01*
X0002092021Y0003856869D01*
X0002090509Y0003862401D01*
X0002089330Y0003866415D01*
X0002087887Y0003871033D01*
X0002086249Y0003876042D01*
X0002084451Y0003881348D01*
X0002082528Y0003886855D01*
X0002080517Y0003892467D01*
X0002078452Y0003898089D01*
X0002076369Y0003903626D01*
X0002074303Y0003908983D01*
X0002072290Y0003914063D01*
X0002070366Y0003918772D01*
X0002068565Y0003923015D01*
X0002066924Y0003926695D01*
X0002065478Y0003929717D01*
X0002064266Y0003932167D01*
X0002062550Y0003935847D01*
X0002061212Y0003939065D01*
X0002060219Y0003941947D01*
X0002059534Y0003944613D01*
X0002059123Y0003947189D01*
X0002058951Y0003949796D01*
X0002058982Y0003952559D01*
X0002059281Y0003956278D01*
X0002059899Y0003959635D01*
X0002060903Y0003962803D01*
X0002062365Y0003966068D01*
X0002064597Y0003969889D01*
X0002067725Y0003973851D01*
X0002071376Y0003977243D01*
X0002075506Y0003980031D01*
X0002080074Y0003982183D01*
X0002085039Y0003983666D01*
X0002086524Y0003983933D01*
X0002089776Y0003984214D01*
X0002093295Y0003984196D01*
X0002096783Y0003983886D01*
X0002099939Y0003983292D01*
X0002102408Y0003982558D01*
X0002106850Y0003980673D01*
X0002110984Y0003978186D01*
X0002114703Y0003975177D01*
X0002117900Y0003971726D01*
X0002120469Y0003967913D01*
X0002120584Y0003967694D01*
X0002121073Y0003966685D01*
X0002121840Y0003965039D01*
X0002122861Y0003962816D01*
X0002124108Y0003960074D01*
X0002125554Y0003956874D01*
X0002127172Y0003953273D01*
X0002128937Y0003949331D01*
X0002130821Y0003945107D01*
X0002132797Y0003940661D01*
X0002134840Y0003936052D01*
X0002135772Y0003933944D01*
X0002137769Y0003929436D01*
X0002139675Y0003925137D01*
X0002141467Y0003921101D01*
X0002143119Y0003917387D01*
X0002144604Y0003914052D01*
X0002145899Y0003911152D01*
X0002146977Y0003908745D01*
X0002147813Y0003906887D01*
X0002148381Y0003905636D01*
X0002148657Y0003905048D01*
X0002149214Y0003904115D01*
X0002149828Y0003903652D01*
X0002150734Y0003903543D01*
X0002151790Y0003903720D01*
X0002152647Y0003904232D01*
X0002152782Y0003904466D01*
X0002153235Y0003905378D01*
X0002153967Y0003906920D01*
X0002154954Y0003909037D01*
X0002156171Y0003911675D01*
X0002157594Y0003914780D01*
X0002159197Y0003918299D01*
X0002160957Y0003922178D01*
X0002162848Y0003926362D01*
X0002164846Y0003930798D01*
X0002166927Y0003935433D01*
X0002168218Y0003938310D01*
X0002170283Y0003942898D01*
X0002172266Y0003947286D01*
X0002174141Y0003951417D01*
X0002175881Y0003955232D01*
X0002177459Y0003958674D01*
X0002178850Y0003961686D01*
X0002180026Y0003964209D01*
X0002180961Y0003966187D01*
X0002181628Y0003967560D01*
X0002182002Y0003968272D01*
X0002182716Y0003969363D01*
X0002184471Y0003971613D01*
X0002186571Y0003973916D01*
X0002188797Y0003976039D01*
X0002190934Y0003977752D01*
X0002193733Y0003979546D01*
X0002198130Y0003981676D01*
X0002202629Y0003983099D01*
X0002207171Y0003983846D01*
X0002211696Y0003983948D01*
X0002216144Y0003983435D01*
X0002220455Y0003982337D01*
X0002224569Y0003980686D01*
X0002228426Y0003978510D01*
X0002231967Y0003975842D01*
X0002235131Y0003972711D01*
X0002237859Y0003969148D01*
X0002240090Y0003965182D01*
X0002241766Y0003960846D01*
X0002242825Y0003956168D01*
X0002243208Y0003951181D01*
X0002243205Y0003950359D01*
X0002243049Y0003947247D01*
X0002242618Y0003944349D01*
X0002241860Y0003941454D01*
X0002240725Y0003938355D01*
X0002239160Y0003934842D01*
X0002236023Y0003928112D01*
X0002231739Y0003918525D01*
X0002227687Y0003908982D01*
X0002223889Y0003899552D01*
X0002220370Y0003890301D01*
X0002217154Y0003881296D01*
X0002214264Y0003872605D01*
X0002211723Y0003864295D01*
X0002209557Y0003856433D01*
X0002207788Y0003849087D01*
X0002206441Y0003842322D01*
X0002206334Y0003841674D01*
X0002206021Y0003839265D01*
X0002205776Y0003836561D01*
X0002205599Y0003833697D01*
X0002205493Y0003830809D01*
X0002205460Y0003828030D01*
X0002205503Y0003825495D01*
X0002205622Y0003823340D01*
X0002205821Y0003821698D01*
X0002206102Y0003820704D01*
X0002206113Y0003820682D01*
X0002206362Y0003820188D01*
X0002206601Y0003819761D01*
X0002206888Y0003819391D01*
X0002207279Y0003819069D01*
X0002207831Y0003818787D01*
X0002208601Y0003818535D01*
X0002209645Y0003818303D01*
X0002211021Y0003818084D01*
X0002212784Y0003817867D01*
X0002214992Y0003817644D01*
X0002217702Y0003817406D01*
X0002220969Y0003817143D01*
X0002224851Y0003816846D01*
X0002229405Y0003816507D01*
X0002234687Y0003816116D01*
X0002235717Y0003816039D01*
X0002241182Y0003815630D01*
X0002245934Y0003815263D01*
X0002250035Y0003814933D01*
X0002253547Y0003814632D01*
X0002256531Y0003814351D01*
X0002259051Y0003814085D01*
X0002261167Y0003813824D01*
X0002262941Y0003813562D01*
X0002264436Y0003813291D01*
X0002265714Y0003813003D01*
X0002266835Y0003812692D01*
X0002267863Y0003812349D01*
X0002268859Y0003811967D01*
X0002272807Y0003810013D01*
X0002276724Y0003807327D01*
X0002280312Y0003804100D01*
X0002283458Y0003800449D01*
X0002286047Y0003796491D01*
X0002287966Y0003792342D01*
X0002288456Y0003790916D01*
X0002289606Y0003786104D01*
X0002289969Y0003781515D01*
X0002283267Y0003781515D01*
X0002283148Y0003783575D01*
X0002282457Y0003787191D01*
X0002281224Y0003790831D01*
X0002279537Y0003794260D01*
X0002277480Y0003797244D01*
X0002276556Y0003798308D01*
X0002273402Y0003801289D01*
X0002269877Y0003803771D01*
X0002266132Y0003805660D01*
X0002262317Y0003806861D01*
X0002262209Y0003806883D01*
X0002261166Y0003807033D01*
X0002259421Y0003807230D01*
X0002257044Y0003807467D01*
X0002254107Y0003807740D01*
X0002250678Y0003808040D01*
X0002246829Y0003808363D01*
X0002242630Y0003808703D01*
X0002238151Y0003809051D01*
X0002233464Y0003809404D01*
X0002228926Y0003809742D01*
X0002223952Y0003810121D01*
X0002219685Y0003810457D01*
X0002216082Y0003810755D01*
X0002213100Y0003811018D01*
X0002210694Y0003811250D01*
X0002208821Y0003811456D01*
X0002207439Y0003811640D01*
X0002206502Y0003811805D01*
X0002205969Y0003811955D01*
X0002205524Y0003812150D01*
X0002203230Y0003813527D01*
X0002201432Y0003815358D01*
X0002200091Y0003817707D01*
X0002199169Y0003820637D01*
X0002198629Y0003824212D01*
X0002198613Y0003824384D01*
X0002198443Y0003829099D01*
X0002198701Y0003834434D01*
X0002199377Y0003840353D01*
X0002200460Y0003846824D01*
X0002201940Y0003853812D01*
X0002203807Y0003861283D01*
X0002206052Y0003869204D01*
X0002208663Y0003877541D01*
X0002211632Y0003886260D01*
X0002214947Y0003895326D01*
X0002218599Y0003904707D01*
X0002222578Y0003914367D01*
X0002226873Y0003924274D01*
X0002231475Y0003934394D01*
X0002231576Y0003934612D01*
X0002233059Y0003937855D01*
X0002234216Y0003940538D01*
X0002235082Y0003942791D01*
X0002235694Y0003944744D01*
X0002236087Y0003946527D01*
X0002236296Y0003948272D01*
X0002236357Y0003950108D01*
X0002236304Y0003952165D01*
X0002236113Y0003954543D01*
X0002235259Y0003958801D01*
X0002233736Y0003962691D01*
X0002231507Y0003966292D01*
X0002228537Y0003969685D01*
X0002228333Y0003969885D01*
X0002225392Y0003972398D01*
X0002222252Y0003974341D01*
X0002218635Y0003975887D01*
X0002217919Y0003976134D01*
X0002216749Y0003976482D01*
X0002215596Y0003976709D01*
X0002214261Y0003976843D01*
X0002212541Y0003976907D01*
X0002210236Y0003976927D01*
X0002208683Y0003976925D01*
X0002206796Y0003976890D01*
X0002205367Y0003976794D01*
X0002204198Y0003976613D01*
X0002203087Y0003976323D01*
X0002201836Y0003975898D01*
X0002200163Y0003975232D01*
X0002198278Y0003974372D01*
X0002196718Y0003973551D01*
X0002195478Y0003972721D01*
X0002193658Y0003971247D01*
X0002191774Y0003969495D01*
X0002190006Y0003967646D01*
X0002188533Y0003965877D01*
X0002187534Y0003964369D01*
X0002187433Y0003964168D01*
X0002186980Y0003963215D01*
X0002186242Y0003961625D01*
X0002185248Y0003959459D01*
X0002184021Y0003956773D01*
X0002182590Y0003953625D01*
X0002180980Y0003950075D01*
X0002179218Y0003946178D01*
X0002177330Y0003941995D01*
X0002175343Y0003937582D01*
X0002173282Y0003932997D01*
X0002172385Y0003931001D01*
X0002170354Y0003926482D01*
X0002168407Y0003922160D01*
X0002166573Y0003918091D01*
X0002164876Y0003914334D01*
X0002163344Y0003910947D01*
X0002162002Y0003907988D01*
X0002160877Y0003905516D01*
X0002159995Y0003903587D01*
X0002159382Y0003902261D01*
X0002159066Y0003901596D01*
X0002158121Y0003900115D01*
X0002156316Y0003898380D01*
X0002154139Y0003897203D01*
X0002151740Y0003896634D01*
X0002149266Y0003896723D01*
X0002146863Y0003897518D01*
X0002146524Y0003897691D01*
X0002145966Y0003898004D01*
X0002145445Y0003898367D01*
X0002144933Y0003898831D01*
X0002144404Y0003899447D01*
X0002143829Y0003900268D01*
X0002143183Y0003901344D01*
X0002142436Y0003902728D01*
X0002141563Y0003904472D01*
X0002140535Y0003906625D01*
X0002139326Y0003909242D01*
X0002137908Y0003912372D01*
X0002136254Y0003916067D01*
X0002134336Y0003920380D01*
X0002132128Y0003925361D01*
X0002131416Y0003926969D01*
X0002129481Y0003931336D01*
X0002127583Y0003935624D01*
X0002125757Y0003939752D01*
X0002124038Y0003943641D01*
X0002122460Y0003947211D01*
X0002121061Y0003950381D01*
X0002119875Y0003953071D01*
X0002118937Y0003955202D01*
X0002118283Y0003956692D01*
X0002117571Y0003958284D01*
X0002116480Y0003960606D01*
X0002115412Y0003962759D01*
X0002114459Y0003964558D01*
X0002113715Y0003965816D01*
X0002111228Y0003969000D01*
X0002107970Y0003971976D01*
X0002104204Y0003974392D01*
X0002099996Y0003976197D01*
X0002097800Y0003976829D01*
X0002095551Y0003977214D01*
X0002092913Y0003977401D01*
X0002090191Y0003977402D01*
X0002086800Y0003977028D01*
X0002083545Y0003976158D01*
X0002080118Y0003974729D01*
X0002079538Y0003974446D01*
X0002077948Y0003973578D01*
X0002076552Y0003972618D01*
X0002075118Y0003971394D01*
X0002073414Y0003969733D01*
X0002071732Y0003967914D01*
X0002069437Y0003964833D01*
X0002067723Y0003961556D01*
X0002066464Y0003957873D01*
X0002066363Y0003957473D01*
X0002065970Y0003955082D01*
X0002065785Y0003952334D01*
X0002065809Y0003949509D01*
X0002066040Y0003946885D01*
X0002066480Y0003944742D01*
X0002066607Y0003944371D01*
X0002067062Y0003943199D01*
X0002067783Y0003941425D01*
X0002068740Y0003939122D01*
X0002069902Y0003936366D01*
X0002071236Y0003933231D01*
X0002072711Y0003929792D01*
X0002074296Y0003926123D01*
X0002075959Y0003922301D01*
X0002076554Y0003920936D01*
X0002078298Y0003916906D01*
X0002080014Y0003912908D01*
X0002081660Y0003909038D01*
X0002083195Y0003905397D01*
X0002084577Y0003902082D01*
X0002085765Y0003899191D01*
X0002086718Y0003896824D01*
X0002087394Y0003895078D01*
X0002089927Y0003888117D01*
X0002092926Y0003879297D01*
X0002095556Y0003870856D01*
X0002097807Y0003862828D01*
X0002099673Y0003855249D01*
X0002101146Y0003848153D01*
X0002102217Y0003841575D01*
X0002102879Y0003835551D01*
X0002103124Y0003830114D01*
X0002102944Y0003825301D01*
X0002102840Y0003824224D01*
X0002102624Y0003822377D01*
X0002102394Y0003820803D01*
X0002102185Y0003819760D01*
X0002101667Y0003818319D01*
X0002100239Y0003816001D01*
X0002098268Y0003814053D01*
X0002095901Y0003812604D01*
X0002093284Y0003811784D01*
X0002093158Y0003811765D01*
X0002092178Y0003811656D01*
X0002090505Y0003811502D01*
X0002088211Y0003811308D01*
X0002085370Y0003811081D01*
X0002082057Y0003810825D01*
X0002078345Y0003810547D01*
X0002074307Y0003810251D01*
X0002070018Y0003809945D01*
X0002065551Y0003809634D01*
X0002063976Y0003809525D01*
X0002058612Y0003809144D01*
X0002053779Y0003808787D01*
X0002049515Y0003808455D01*
X0002045856Y0003808153D01*
X0002042838Y0003807884D01*
X0002040497Y0003807649D01*
X0002038869Y0003807453D01*
X0002037992Y0003807299D01*
X0002037051Y0003807020D01*
X0002033399Y0003805518D01*
X0002029858Y0003803438D01*
X0002026649Y0003800926D01*
X0002023994Y0003798126D01*
X0002022802Y0003796521D01*
X0002020610Y0003792781D01*
X0002019063Y0003788877D01*
X0002018187Y0003784910D01*
X0002018009Y0003780981D01*
X0002018555Y0003777190D01*
X0002018832Y0003776169D01*
X0002020414Y0003772121D01*
X0002022641Y0003768466D01*
X0002025448Y0003765265D01*
X0002028771Y0003762583D01*
X0002032548Y0003760483D01*
X0002036714Y0003759029D01*
X0002037796Y0003758770D01*
X0002039388Y0003758482D01*
X0002040994Y0003758337D01*
X0002042766Y0003758338D01*
X0002044854Y0003758487D01*
X0002047412Y0003758786D01*
X0002050590Y0003759237D01*
X0002051781Y0003759413D01*
X0002056759Y0003760123D01*
X0002061190Y0003760693D01*
X0002065259Y0003761138D01*
X0002069149Y0003761473D01*
X0002073046Y0003761711D01*
X0002077132Y0003761866D01*
X0002081593Y0003761952D01*
X0002086614Y0003761984D01*
X0002088490Y0003761986D01*
X0002092469Y0003761973D01*
X0002095822Y0003761931D01*
X0002098660Y0003761849D01*
X0002101097Y0003761719D01*
X0002103246Y0003761532D01*
X0002105220Y0003761279D01*
X0002107132Y0003760951D01*
X0002109094Y0003760539D01*
X0002111220Y0003760035D01*
X0002114012Y0003759285D01*
X0002116322Y0003758495D01*
X0002117990Y0003757676D01*
X0002119090Y0003756783D01*
X0002119696Y0003755768D01*
X0002119881Y0003754584D01*
X0002119796Y0003754064D01*
X0002119448Y0003753354D01*
X0002118757Y0003752417D01*
X0002117648Y0003751147D01*
X0002116043Y0003749443D01*
X0002115776Y0003749163D01*
X0002111660Y0003744366D01*
X0002108299Y0003739416D01*
X0002105668Y0003734255D01*
X0002103743Y0003728826D01*
X0002102496Y0003723070D01*
X0002101904Y0003716929D01*
X0002101912Y0003712611D01*
X0002102565Y0003706672D01*
X0002103932Y0003700933D01*
X0002105974Y0003695448D01*
X0002108654Y0003690271D01*
X0002111933Y0003685457D01*
X0002115772Y0003681060D01*
X0002120133Y0003677135D01*
X0002124977Y0003673737D01*
X0002130266Y0003670919D01*
X0002135962Y0003668736D01*
X0002140287Y0003667605D01*
X0002146175Y0003666740D01*
X0002152121Y0003666599D01*
X0002158032Y0003667170D01*
X0002163813Y0003668443D01*
X0002169370Y0003670408D01*
X0002174608Y0003673053D01*
X0002174697Y0003673106D01*
X0002179967Y0003676662D01*
X0002184639Y0003680707D01*
X0002188691Y0003685203D01*
X0002192100Y0003690114D01*
X0002194846Y0003695405D01*
X0002196906Y0003701039D01*
X0002198257Y0003706978D01*
X0002198879Y0003713188D01*
X0002198882Y0003713262D01*
X0002198892Y0003717908D01*
X0002198514Y0003722159D01*
X0002197704Y0003726323D01*
X0002196419Y0003730707D01*
X0002195670Y0003732810D01*
X0002193711Y0003737264D01*
X0002191310Y0003741408D01*
X0002188361Y0003745412D01*
X0002184757Y0003749447D01*
X0002184516Y0003749698D01*
X0002183119Y0003751180D01*
X0002182189Y0003752262D01*
X0002181635Y0003753071D01*
X0002181368Y0003753734D01*
X0002181299Y0003754380D01*
X0002181299Y0003754384D01*
X0002181472Y0003755582D01*
X0002181887Y0003756569D01*
X0002181891Y0003756576D01*
X0002182839Y0003757379D01*
X0002184491Y0003758173D01*
X0002186765Y0003758942D01*
X0002189579Y0003759667D01*
X0002192850Y0003760334D01*
X0002196496Y0003760924D01*
X0002200434Y0003761421D01*
X0002204582Y0003761808D01*
X0002208858Y0003762069D01*
X0002209662Y0003762099D01*
X0002213536Y0003762133D01*
X0002218018Y0003762019D01*
X0002222972Y0003761766D01*
X0002228267Y0003761386D01*
X0002233769Y0003760890D01*
X0002239345Y0003760286D01*
X0002244862Y0003759587D01*
X0002250187Y0003758803D01*
X0002251643Y0003758579D01*
X0002255095Y0003758127D01*
X0002257979Y0003757892D01*
X0002260428Y0003757872D01*
X0002262578Y0003758062D01*
X0002264566Y0003758460D01*
X0002267936Y0003759599D01*
X0002271590Y0003761512D01*
X0002274871Y0003763973D01*
X0002277710Y0003766897D01*
X0002280038Y0003770197D01*
X0002281786Y0003773791D01*
X0002282885Y0003777592D01*
X0002283267Y0003781515D01*
X0002289969Y0003781515D01*
X0002289982Y0003781345D01*
X0002289596Y0003776685D01*
X0002288457Y0003772172D01*
X0002286576Y0003767852D01*
X0002283963Y0003763771D01*
X0002280630Y0003759977D01*
X0002279477Y0003758903D01*
X0002275946Y0003756223D01*
X0002272042Y0003754030D01*
X0002267902Y0003752372D01*
X0002263659Y0003751297D01*
X0002259450Y0003750853D01*
X0002255411Y0003751086D01*
X0002254770Y0003751183D01*
X0002252996Y0003751449D01*
X0002250773Y0003751783D01*
X0002248322Y0003752151D01*
X0002245866Y0003752520D01*
X0002238742Y0003753491D01*
X0002229668Y0003754440D01*
X0002220885Y0003755035D01*
X0002212526Y0003755265D01*
X0002204724Y0003755124D01*
X0002202886Y0003755026D01*
X0002200097Y0003754820D01*
X0002197480Y0003754559D01*
X0002195156Y0003754261D01*
X0002193251Y0003753943D01*
X0002191885Y0003753620D01*
X0002191184Y0003753309D01*
X0002191180Y0003753304D01*
X0002191363Y0003752930D01*
X0002191942Y0003752139D01*
X0002192797Y0003751092D01*
X0002195237Y0003747989D01*
X0002198654Y0003742646D01*
X0002201474Y0003736871D01*
X0002203654Y0003730762D01*
X0002205147Y0003724414D01*
X0002205431Y0003722321D01*
X0002205657Y0003719204D01*
X0002205740Y0003715770D01*
X0002205681Y0003712273D01*
X0002205479Y0003708966D01*
X0002205134Y0003706103D01*
X0002204268Y0003702018D01*
X0002202629Y0003696773D01*
X0002200461Y0003691582D01*
X0002197861Y0003686671D01*
X0002194926Y0003682267D01*
X0002194294Y0003681453D01*
X0002192004Y0003678787D01*
X0002189356Y0003676038D01*
X0002186544Y0003673392D01*
X0002183765Y0003671036D01*
X0002181213Y0003669157D01*
X0002178604Y0003667531D01*
X0002173158Y0003664721D01*
X0002167409Y0003662450D01*
X0002161614Y0003660827D01*
X0002160642Y0003660638D01*
X0002157861Y0003660271D01*
X0002154627Y0003660031D01*
X0002151167Y0003659921D01*
X0002147712Y0003659947D01*
X0002144490Y0003660113D01*
X0002141730Y0003660424D01*
X0002138382Y0003661054D01*
X0002132167Y0003662809D01*
X0002126277Y0003665244D01*
X0002120755Y0003668320D01*
X0002115644Y0003671995D01*
X0002110986Y0003676227D01*
X0002106824Y0003680977D01*
X0002103201Y0003686203D01*
X0002100159Y0003691865D01*
X0002097741Y0003697921D01*
X0002095990Y0003704330D01*
X0002095778Y0003705527D01*
X0002095490Y0003708115D01*
X0002095310Y0003711157D01*
X0002095237Y0003714446D01*
X0002095271Y0003717776D01*
X0002095412Y0003720943D01*
X0002095659Y0003723740D01*
X0002096012Y0003725963D01*
X0002096179Y0003726704D01*
X0002097737Y0003732192D01*
X0002099803Y0003737532D01*
X0002102302Y0003742572D01*
X0002105161Y0003747158D01*
X0002108305Y0003751139D01*
X0002108370Y0003751212D01*
X0002109242Y0003752228D01*
X0002109823Y0003752986D01*
X0002109991Y0003753326D01*
X0002109962Y0003753344D01*
X0002109405Y0003753510D01*
X0002108314Y0003753769D01*
X0002106889Y0003754073D01*
X0002106489Y0003754153D01*
X0002102275Y0003754793D01*
X0002097397Y0003755223D01*
X0002091939Y0003755445D01*
X0002085988Y0003755462D01*
X0002079627Y0003755276D01*
X0002072942Y0003754890D01*
X0002066019Y0003754305D01*
X0002058941Y0003753524D01*
X0002051794Y0003752550D01*
X0002048867Y0003752142D01*
X0002045135Y0003751747D01*
X0002041912Y0003751598D01*
X0002039053Y0003751702D01*
X0002036414Y0003752065D01*
X0002033850Y0003752696D01*
X0002031217Y0003753601D01*
X0002027524Y0003755324D01*
X0002023514Y0003757958D01*
X0002019931Y0003761174D01*
X0002016872Y0003764881D01*
X0002014436Y0003768989D01*
X0002013878Y0003770161D01*
X0002012569Y0003773326D01*
X0002011718Y0003776240D01*
X0002011265Y0003779145D01*
X0002011199Y0003780981D01*
X0002011151Y0003782283D01*
X0002011506Y0003786569D01*
G37*
G36*
X0002167199Y0003726779D02*
G01*
X0002166404Y0003726907D01*
X0002165621Y0003727275D01*
X0002164660Y0003727988D01*
X0002163333Y0003729152D01*
X0002162924Y0003729518D01*
X0002160254Y0003731656D01*
X0002157722Y0003733160D01*
X0002155150Y0003734100D01*
X0002152362Y0003734543D01*
X0002149180Y0003734555D01*
X0002146489Y0003734253D01*
X0002143545Y0003733411D01*
X0002140842Y0003731971D01*
X0002138181Y0003729846D01*
X0002137932Y0003729619D01*
X0002136717Y0003728556D01*
X0002135660Y0003727702D01*
X0002134966Y0003727224D01*
X0002134805Y0003727144D01*
X0002133261Y0003726796D01*
X0002131781Y0003727110D01*
X0002130526Y0003727980D01*
X0002129656Y0003729299D01*
X0002129330Y0003730963D01*
X0002129346Y0003731234D01*
X0002129844Y0003732680D01*
X0002130963Y0003734268D01*
X0002132596Y0003735918D01*
X0002134636Y0003737552D01*
X0002136975Y0003739088D01*
X0002139506Y0003740450D01*
X0002142121Y0003741556D01*
X0002144713Y0003742327D01*
X0002145430Y0003742469D01*
X0002148124Y0003742746D01*
X0002151377Y0003742761D01*
X0002154157Y0003742543D01*
X0002158111Y0003741719D01*
X0002161759Y0003740257D01*
X0002165216Y0003738108D01*
X0002168596Y0003735222D01*
X0002168732Y0003735090D01*
X0002169993Y0003733841D01*
X0002170791Y0003732948D01*
X0002171231Y0003732246D01*
X0002171417Y0003731573D01*
X0002171456Y0003730763D01*
X0002171295Y0003729533D01*
X0002170534Y0003728075D01*
X0002169251Y0003727116D01*
X0002167557Y0003726771D01*
X0002167199Y0003726779D01*
G37*
G36*
X0002143690Y0003802452D02*
G01*
X0002145217Y0003804249D01*
X0002147240Y0003805564D01*
X0002149518Y0003806205D01*
X0002151921Y0003806151D01*
X0002154224Y0003805411D01*
X0002156250Y0003804014D01*
X0002157330Y0003802775D01*
X0002158384Y0003800698D01*
X0002158807Y0003798461D01*
X0002158758Y0003797871D01*
X0002153929Y0003797871D01*
X0002153710Y0003799038D01*
X0002152825Y0003800295D01*
X0002152188Y0003800803D01*
X0002150866Y0003801193D01*
X0002149471Y0003801015D01*
X0002148296Y0003800269D01*
X0002148031Y0003799951D01*
X0002147452Y0003798625D01*
X0002147504Y0003797267D01*
X0002148102Y0003796065D01*
X0002149167Y0003795211D01*
X0002150615Y0003794894D01*
X0002151656Y0003795013D01*
X0002152902Y0003795678D01*
X0002153713Y0003796977D01*
X0002153929Y0003797871D01*
X0002158758Y0003797871D01*
X0002158618Y0003796212D01*
X0002157836Y0003794097D01*
X0002156479Y0003792264D01*
X0002154567Y0003790859D01*
X0002153218Y0003790280D01*
X0002150781Y0003789818D01*
X0002148429Y0003790068D01*
X0002146279Y0003790989D01*
X0002144453Y0003792541D01*
X0002143069Y0003794685D01*
X0002142680Y0003795714D01*
X0002142363Y0003798030D01*
X0002142455Y0003798625D01*
X0002142719Y0003800328D01*
X0002143690Y0003802452D01*
G37*
D29*
X0001135826Y0002690944D03*
X0001135826Y0002816929D03*
X0001328740Y0002816929D03*
X0001328740Y0002690944D03*
D30*
X0002492125Y0003854330D03*
X0002492125Y0003929133D03*
D29*
X0002192913Y0001612204D03*
X0002192913Y0001738188D03*
X0002385826Y0001738188D03*
X0002385826Y0001612204D03*
X0002616141Y0003834645D03*
X0002616141Y0003960629D03*
X0002809055Y0003960629D03*
X0002809055Y0003834645D03*
D30*
X0002062992Y0001631889D03*
X0002062992Y0001706692D03*
X0001454724Y0002692913D03*
X0001454724Y0002767716D03*
G04 next file*
G04 Gerber Fmt 4.6, Leading zero omitted, Abs format (unit mm)*
G04 Created by KiCad (PCBNEW (6.0.7)) date 2022-11-21 20:11:54*
G01*
G04 APERTURE LIST*
G04 Aperture macros list*
G04 Aperture macros list end*
G04 APERTURE END LIST*
D31*
G36*
X0004051181Y0002791338D02*
G01*
X0004011811Y0002791338D01*
X0004011811Y0002870078D01*
X0004051181Y0002870078D01*
X0004051181Y0002791338D01*
G37*
X0004051181Y0002791338D02*
X0004011811Y0002791338D01*
X0004011811Y0002870078D01*
X0004051181Y0002870078D01*
X0004051181Y0002791338D01*
G36*
X0004314354Y0000514918D02*
G01*
X0003562244Y0000514963D01*
X0003621299Y0000857483D01*
X0004310236Y0000861023D01*
X0004314354Y0000514918D01*
G37*
X0004314354Y0000514918D02*
X0003562244Y0000514963D01*
X0003621299Y0000857483D01*
X0004310236Y0000861023D01*
X0004314354Y0000514918D01*
G36*
X0004051181Y0003027559D02*
G01*
X0004011811Y0003027559D01*
X0004011811Y0003106299D01*
X0004051181Y0003106299D01*
X0004051181Y0003027559D01*
G37*
X0004051181Y0003027559D02*
X0004011811Y0003027559D01*
X0004011811Y0003106299D01*
X0004051181Y0003106299D01*
X0004051181Y0003027559D01*
G36*
X0004051181Y0002909448D02*
G01*
X0004011811Y0002909448D01*
X0004011811Y0002988188D01*
X0004051181Y0002988188D01*
X0004051181Y0002909448D01*
G37*
X0004051181Y0002909448D02*
X0004011811Y0002909448D01*
X0004011811Y0002988188D01*
X0004051181Y0002988188D01*
X0004051181Y0002909448D01*
G36*
X0003901574Y0002909448D02*
G01*
X0003862204Y0002909448D01*
X0003862204Y0002988188D01*
X0003901574Y0002988188D01*
X0003901574Y0002909448D01*
G37*
X0003901574Y0002909448D02*
X0003862204Y0002909448D01*
X0003862204Y0002988188D01*
X0003901574Y0002988188D01*
X0003901574Y0002909448D01*
G36*
X0003783464Y0000468503D02*
G01*
X0003622047Y0000468503D01*
X0003622047Y0000507874D01*
X0003783464Y0000507874D01*
X0003783464Y0000468503D01*
G37*
X0003783464Y0000468503D02*
X0003622047Y0000468503D01*
X0003622047Y0000507874D01*
X0003783464Y0000507874D01*
X0003783464Y0000468503D01*
G36*
X0003901574Y0003027559D02*
G01*
X0003862204Y0003027559D01*
X0003862204Y0003106299D01*
X0003901574Y0003106299D01*
X0003901574Y0003027559D01*
G37*
X0003901574Y0003027559D02*
X0003862204Y0003027559D01*
X0003862204Y0003106299D01*
X0003901574Y0003106299D01*
X0003901574Y0003027559D01*
G36*
X0004498031Y0004346456D02*
G01*
X0004114173Y0004196850D01*
X0004001968Y0004336614D01*
X0003913385Y0004336614D01*
X0003775590Y0004194881D01*
X0003507874Y0004763779D01*
X0004059055Y0004785433D01*
X0004498031Y0004346456D01*
G37*
X0004498031Y0004346456D02*
X0004114173Y0004196850D01*
X0004001968Y0004336614D01*
X0003913385Y0004336614D01*
X0003775590Y0004194881D01*
X0003507874Y0004763779D01*
X0004059055Y0004785433D01*
X0004498031Y0004346456D01*
G36*
X0003901574Y0002791338D02*
G01*
X0003862204Y0002791338D01*
X0003862204Y0002870078D01*
X0003901574Y0002870078D01*
X0003901574Y0002791338D01*
G37*
X0003901574Y0002791338D02*
X0003862204Y0002791338D01*
X0003862204Y0002870078D01*
X0003901574Y0002870078D01*
X0003901574Y0002791338D01*
G36*
X0004291338Y0000468503D02*
G01*
X0004129921Y0000468503D01*
X0004129921Y0000507874D01*
X0004291338Y0000507874D01*
X0004291338Y0000468503D01*
G37*
X0004291338Y0000468503D02*
X0004129921Y0000468503D01*
X0004129921Y0000507874D01*
X0004291338Y0000507874D01*
X0004291338Y0000468503D01*
D32*
X0004651574Y0002387795D03*
X0004651574Y0002261811D03*
X0004458661Y0002261811D03*
X0004458661Y0002387795D03*
D33*
X0003295275Y0001224409D03*
X0003295275Y0001149606D03*
D32*
X0003594488Y0003466535D03*
X0003594488Y0003340551D03*
X0003401574Y0003340551D03*
X0003401574Y0003466535D03*
X0003171259Y0001244094D03*
X0003171259Y0001118110D03*
X0002978346Y0001118110D03*
X0002978346Y0001244094D03*
D33*
X0003724409Y0003446850D03*
X0003724409Y0003372047D03*
X0004332677Y0002385826D03*
X0004332677Y0002311023D03*
M02*