%MOIN*%
%OFA0B0*%
%FSLAX46Y46*%
%IPPOS*%
%LPD*%
%AMRoundRect*
4,1,4,
-0.11811023622047245,0.07874015748031496,
-0.19685039370078741,0.15748031496062992,
-0.27559055118110237,0.23622047244094491,
-0.35433070866141736,0.31496062992125984,
-0.11811023622047245,0.07874015748031496,
0*
1,1,$1,$2,$3*
1,1,$1,$2,$3*
1,1,$1,$2,$3*
1,1,$1,$2,$3*
20,1,$1,$2,$3,$4,$5,90*
20,1,$1,$2,$3,$4,$5,90*
20,1,$1,$2,$3,$4,$5,90*
20,1,$1,$2,$3,$4,$5,90*%
%AMFreePoly0*
4,1,22,
0.029527559055118113,0.01968503937007874,
0.029527559055118113,-0.0000000000000000018079818215881557,
0.029332007874015749,-0.0000000000000000017960081606443842,
0.029274330708661419,-0.0031472834645669308,
0.027609960629921264,-0.00847464566929134,
0.024517244094488192,-0.013120708661417325,
0.020244842519685041,-0.016712047244094492,
0.015136220472440945,-0.018959881889763781,
0.00984251968503937,-0.019652125984251971,
0.00984251968503937,-0.01968503937007874,
-0.0098425196850393734,-0.01968503937007874,
-0.0098425196850393734,-0.019652125984251971,
-0.010083031496062994,-0.019683582677165357,
-0.015597874015748034,-0.018824881889763782,
-0.02065003937007874,-0.016452913385826769,
-0.024833425196850396,-0.012758267716535432,
-0.027811692913385828,-0.0080379921259842516,
-0.029345433070866143,-0.0026715748031496049,
-0.029329094488188979,0.0000000000000000017958297731046545,
-0.029527559055118113,0.0000000000000000018079818215881557,
-0.029527559055118113,0.01968503937007874,
0.029527559055118113,0.01968503937007874,
0.029527559055118113,0.01968503937007874,
0*%
%AMFreePoly1*
4,1,20,
-0.029329094488188979,0.0000000000000000017958297731046545,
-0.029311338582677166,0.0029096456692913404,
-0.027712165354330711,0.00825692913385827,
-0.024676456692913386,0.012940472440944885,
-0.020448228346456692,0.016583700787401578,
-0.015367440944881888,0.018893818897637797,
-0.00984251968503937,0.01968503937007874,
0.0098425196850393734,0.01968503937007874,
0.010323464566929137,0.019679173228346458,
0.015827440944881893,0.018753188976377955,
0.02085023622047244,0.016319645669291338,
0.024988188976377956,0.012574173228346456,
0.027908543307086614,0.00781787401574803,
0.029376614173228347,0.0024331102362204707,
0.029332007874015749,-0.0000000000000000017960081606443842,
0.029527559055118113,-0.0000000000000000018079818215881557,
0.029527559055118113,-0.01968503937007874,
-0.029527559055118113,-0.01968503937007874,
-0.029527559055118113,0.0000000000000000018079818215881557,
-0.029329094488188979,0.0000000000000000017958297731046545,
-0.029329094488188979,0.0000000000000000017958297731046545,
0*%
%AMCOMP17*
4,1,3,
-0.0098425196850393734,-0.018700787401574805,
0.00984251968503937,-0.018700787401574805,
0.0098425196850393734,0.018700787401574805,
-0.00984251968503937,0.018700787401574805,
0*
4,1,19,
-0.01968503937007874,-0.0187007874015748,
-0.019203312168259386,-0.015659281551427682,
-0.017805285377706176,-0.012915499485310303,
-0.015627807601303872,-0.010738021708907997,
-0.012884025535186491,-0.0093399949183547871,
-0.00984251968503937,-0.0088582677165354312,
-0.0068010138348922524,-0.0093399949183547871,
-0.0040572317687748724,-0.010738021708907997,
-0.0018797539923725666,-0.012915499485310301,
-0.000481727201819356,-0.015659281551427682,
-0.0000000000000000011450551536724983,-0.0187007874015748,
-0.00048172720181935636,-0.021742293251721927,
-0.0018797539923725648,-0.0244860753178393,
-0.0040572317687748716,-0.026663553094241611,
-0.0068010138348922507,-0.02806157988479482,
-0.00984251968503937,-0.028543307086614175,
-0.012884025535186491,-0.02806157988479482,
-0.015627807601303872,-0.026663553094241611,
-0.017805285377706179,-0.024486075317839306,
-0.019203312168259389,-0.021742293251721924,
0*
4,1,19,
-0.0000000000000000011450551536724983,-0.018700787401574805,
0.00048172720181935408,-0.015659281551427682,
0.0018797539923725637,-0.012915499485310303,
0.0040572317687748707,-0.010738021708907997,
0.0068010138348922489,-0.0093399949183547871,
0.00984251968503937,-0.0088582677165354329,
0.012884025535186491,-0.0093399949183547871,
0.015627807601303868,-0.010738021708907997,
0.017805285377706176,-0.012915499485310301,
0.019203312168259386,-0.015659281551427685,
0.01968503937007874,-0.018700787401574805,
0.019203312168259386,-0.021742293251721927,
0.017805285377706176,-0.0244860753178393,
0.015627807601303872,-0.026663553094241611,
0.012884025535186489,-0.02806157988479482,
0.00984251968503937,-0.028543307086614175,
0.00680101383489225,-0.02806157988479482,
0.0040572317687748716,-0.026663553094241611,
0.0018797539923725642,-0.024486075317839306,
0.00048172720181935375,-0.021742293251721924,
0*
4,1,19,
0.0000000000000000011450551536724983,0.018700787401574805,
0.00048172720181935636,0.021742293251721924,
0.0018797539923725659,0.0244860753178393,
0.0040572317687748724,0.026663553094241611,
0.0068010138348922524,0.02806157988479482,
0.00984251968503937,0.028543307086614175,
0.012884025535186494,0.02806157988479482,
0.015627807601303872,0.026663553094241611,
0.017805285377706179,0.024486075317839306,
0.019203312168259389,0.021742293251721924,
0.01968503937007874,0.018700787401574805,
0.019203312168259386,0.015659281551427678,
0.017805285377706176,0.012915499485310306,
0.015627807601303872,0.010738021708907997,
0.012884025535186491,0.0093399949183547871,
0.0098425196850393734,0.0088582677165354312,
0.0068010138348922533,0.0093399949183547871,
0.0040572317687748733,0.010738021708907997,
0.0018797539923725666,0.012915499485310301,
0.000481727201819356,0.015659281551427682,
0*
4,1,19,
-0.01968503937007874,0.018700787401574805,
-0.019203312168259386,0.021742293251721924,
-0.017805285377706176,0.0244860753178393,
-0.015627807601303868,0.026663553094241611,
-0.012884025535186489,0.02806157988479482,
-0.0098425196850393682,0.028543307086614175,
-0.0068010138348922489,0.02806157988479482,
-0.0040572317687748707,0.026663553094241611,
-0.0018797539923725642,0.024486075317839306,
-0.00048172720181935375,0.021742293251721924,
0.0000000000000000011450551536724986,0.018700787401574805,
-0.00048172720181935408,0.015659281551427682,
-0.0018797539923725627,0.012915499485310306,
-0.004057231768774869,0.010738021708907997,
-0.0068010138348922481,0.0093399949183547871,
-0.0098425196850393682,0.0088582677165354329,
-0.012884025535186489,0.0093399949183547871,
-0.015627807601303868,0.010738021708907997,
-0.017805285377706176,0.012915499485310301,
-0.019203312168259386,0.015659281551427682,
0*
4,1,3,
-0.0098425196850393734,-0.028543307086614175,
-0.00984251968503937,-0.0088582677165354312,
0.00984251968503937,-0.0088582677165354329,
0.0098425196850393682,-0.028543307086614175,
0*
4,1,3,
0.01968503937007874,-0.018700787401574805,
-0.0000000000000000011450551536724983,-0.018700787401574805,
0.0000000000000000011450551536724983,0.018700787401574805,
0.01968503937007874,0.0187007874015748,
0*
4,1,3,
0.0098425196850393734,0.028543307086614175,
0.00984251968503937,0.0088582677165354312,
-0.00984251968503937,0.0088582677165354329,
-0.0098425196850393682,0.028543307086614175,
0*
4,1,3,
-0.01968503937007874,0.018700787401574805,
0.0000000000000000011450551536724983,0.018700787401574805,
-0.0000000000000000011450551536724983,-0.018700787401574805,
-0.01968503937007874,-0.0187007874015748,
0*%
%AMCOMP18*
4,1,3,
-0.013779527559055118,-0.017716535433070866,
0.013779527559055118,-0.017716535433070866,
0.013779527559055118,0.017716535433070866,
-0.013779527559055118,0.017716535433070866,
0*
4,1,19,
-0.023622047244094488,-0.017716535433070866,
-0.023140320042275134,-0.014675029582923745,
-0.021742293251721924,-0.011931247516806366,
-0.019564815475319616,-0.00975376974040406,
-0.016821033409202237,-0.00835574294985085,
-0.013779527559055118,-0.007874015748031496,
-0.010738021708907997,-0.00835574294985085,
-0.0079942396427906213,-0.0097537697404040617,
-0.0058167618663883145,-0.011931247516806368,
-0.0044187350758351038,-0.014675029582923747,
-0.0039370078740157488,-0.017716535433070866,
-0.0044187350758351038,-0.020758041283217992,
-0.0058167618663883119,-0.023501823349335368,
-0.0079942396427906178,-0.025679301125737672,
-0.010738021708907999,-0.027077327916290882,
-0.013779527559055118,-0.027559055118110236,
-0.016821033409202237,-0.027077327916290882,
-0.019564815475319616,-0.025679301125737675,
-0.021742293251721924,-0.023501823349335368,
-0.023140320042275134,-0.020758041283217992,
0*
4,1,19,
0.0039370078740157462,-0.017716535433070866,
0.0044187350758351012,-0.014675029582923747,
0.0058167618663883111,-0.011931247516806368,
0.0079942396427906178,-0.0097537697404040617,
0.010738021708907997,-0.0083557429498508536,
0.013779527559055118,-0.0078740157480314977,
0.016821033409202237,-0.0083557429498508518,
0.019564815475319616,-0.0097537697404040634,
0.021742293251721924,-0.011931247516806369,
0.023140320042275134,-0.014675029582923748,
0.023622047244094488,-0.017716535433070866,
0.023140320042275134,-0.020758041283217992,
0.021742293251721924,-0.023501823349335368,
0.019564815475319616,-0.025679301125737672,
0.016821033409202237,-0.027077327916290882,
0.013779527559055118,-0.027559055118110236,
0.010738021708907997,-0.027077327916290882,
0.00799423964279062,-0.025679301125737675,
0.0058167618663883119,-0.023501823349335368,
0.0044187350758351012,-0.020758041283217992,
0*
4,1,19,
0.0039370078740157488,0.017716535433070866,
0.0044187350758351038,0.020758041283217985,
0.0058167618663883128,0.023501823349335368,
0.00799423964279062,0.025679301125737672,
0.010738021708907999,0.027077327916290882,
0.01377952755905512,0.027559055118110236,
0.016821033409202241,0.027077327916290882,
0.019564815475319616,0.025679301125737672,
0.021742293251721924,0.023501823349335368,
0.023140320042275134,0.020758041283217992,
0.023622047244094488,0.017716535433070866,
0.023140320042275134,0.014675029582923743,
0.021742293251721924,0.011931247516806366,
0.01956481547531962,0.0097537697404040617,
0.016821033409202237,0.00835574294985085,
0.01377952755905512,0.007874015748031496,
0.010738021708907999,0.00835574294985085,
0.0079942396427906213,0.00975376974040406,
0.0058167618663883145,0.011931247516806366,
0.0044187350758351038,0.014675029582923745,
0*
4,1,19,
-0.023622047244094488,0.017716535433070869,
-0.023140320042275134,0.020758041283217985,
-0.021742293251721924,0.023501823349335368,
-0.019564815475319616,0.025679301125737672,
-0.016821033409202237,0.027077327916290882,
-0.013779527559055116,0.027559055118110236,
-0.010738021708907995,0.027077327916290882,
-0.0079942396427906178,0.025679301125737672,
-0.0058167618663883119,0.023501823349335368,
-0.0044187350758351012,0.020758041283217992,
-0.0039370078740157462,0.017716535433070869,
-0.0044187350758351012,0.014675029582923745,
-0.0058167618663883093,0.011931247516806368,
-0.0079942396427906161,0.0097537697404040634,
-0.010738021708907997,0.0083557429498508536,
-0.013779527559055116,0.0078740157480314977,
-0.016821033409202237,0.0083557429498508518,
-0.019564815475319616,0.0097537697404040617,
-0.021742293251721924,0.011931247516806368,
-0.023140320042275134,0.014675029582923747,
0*
4,1,3,
-0.01377952755905512,-0.027559055118110236,
-0.013779527559055118,-0.007874015748031496,
0.013779527559055118,-0.0078740157480314977,
0.013779527559055116,-0.027559055118110236,
0*
4,1,3,
0.023622047244094488,-0.017716535433070869,
0.0039370078740157462,-0.017716535433070866,
0.0039370078740157488,0.017716535433070866,
0.023622047244094488,0.017716535433070866,
0*
4,1,3,
0.01377952755905512,0.027559055118110236,
0.013779527559055118,0.007874015748031496,
-0.013779527559055118,0.0078740157480314977,
-0.013779527559055116,0.027559055118110236,
0*
4,1,3,
-0.023622047244094488,0.017716535433070869,
-0.0039370078740157462,0.017716535433070866,
-0.0039370078740157488,-0.017716535433070866,
-0.023622047244094488,-0.017716535433070866,
0*%
%AMCOMP19*
4,1,3,
-0.01796259842519685,0.0095964566929133879,
-0.01796259842519685,-0.0095964566929133844,
0.01796259842519685,-0.0095964566929133879,
0.01796259842519685,0.0095964566929133844,
0*
4,1,19,
-0.027559055118110236,0.0095964566929133879,
-0.027089371096336367,0.012561924896806831,
-0.025726294975546987,0.015237112411271275,
-0.023603254143554738,0.017360153243263524,
-0.020928066629090292,0.018723229364052903,
-0.01796259842519685,0.019192913385826776,
-0.014997130221303409,0.018723229364052903,
-0.012321942706838965,0.01736015324326352,
-0.010198901874846717,0.015237112411271273,
-0.0088358257540573342,0.012561924896806831,
-0.0083661417322834636,0.0095964566929133879,
-0.0088358257540573359,0.0066309884890199408,
-0.010198901874846714,0.0039558009745555012,
-0.012321942706838963,0.0018327601425632526,
-0.014997130221303409,0.00046968402177387209,
-0.01796259842519685,0.0000000000000000010998556081327944,
-0.020928066629090292,0.00046968402177387139,
-0.023603254143554735,0.001832760142563251,
-0.025726294975546984,0.0039558009745554986,
-0.027089371096336367,0.0066309884890199443,
0*
4,1,19,
-0.027559055118110236,-0.0095964566929133844,
-0.027089371096336367,-0.0066309884890199417,
-0.025726294975546987,-0.0039558009745554977,
-0.023603254143554738,-0.0018327601425632493,
-0.020928066629090292,-0.00046968402177386987,
-0.01796259842519685,0.0000000000000000010998556081327946,
-0.014997130221303411,-0.00046968402177386922,
-0.012321942706838965,-0.00183276014256325,
-0.010198901874846717,-0.0039558009745554977,
-0.0088358257540573359,-0.0066309884890199434,
-0.0083661417322834653,-0.0095964566929133844,
-0.0088358257540573377,-0.012561924896806831,
-0.010198901874846714,-0.015237112411271273,
-0.012321942706838963,-0.01736015324326352,
-0.014997130221303411,-0.0187232293640529,
-0.01796259842519685,-0.019192913385826769,
-0.020928066629090292,-0.0187232293640529,
-0.023603254143554735,-0.01736015324326352,
-0.025726294975546984,-0.015237112411271273,
-0.027089371096336367,-0.012561924896806829,
0*
4,1,19,
0.0083661417322834636,-0.0095964566929133861,
0.0088358257540573359,-0.0066309884890199443,
0.010198901874846714,-0.0039558009745554994,
0.012321942706838963,-0.0018327601425632515,
0.014997130221303409,-0.00046968402177387209,
0.01796259842519685,-0.0000000000000000010998556081327946,
0.020928066629090292,-0.00046968402177387139,
0.023603254143554735,-0.0018327601425632521,
0.025726294975546984,-0.0039558009745554994,
0.027089371096336367,-0.0066309884890199452,
0.027559055118110236,-0.0095964566929133879,
0.027089371096336367,-0.012561924896806832,
0.025726294975546987,-0.015237112411271275,
0.023603254143554738,-0.017360153243263524,
0.020928066629090296,-0.018723229364052903,
0.01796259842519685,-0.019192913385826776,
0.014997130221303409,-0.018723229364052903,
0.012321942706838966,-0.01736015324326352,
0.010198901874846717,-0.015237112411271275,
0.0088358257540573342,-0.012561924896806831,
0*
4,1,19,
0.0083661417322834653,0.0095964566929133861,
0.0088358257540573377,0.012561924896806829,
0.010198901874846714,0.015237112411271273,
0.012321942706838963,0.01736015324326352,
0.014997130221303411,0.0187232293640529,
0.017962598425196853,0.019192913385826769,
0.020928066629090292,0.0187232293640529,
0.023603254143554735,0.01736015324326352,
0.025726294975546984,0.015237112411271271,
0.027089371096336367,0.012561924896806829,
0.027559055118110236,0.0095964566929133844,
0.027089371096336367,0.0066309884890199391,
0.025726294975546987,0.0039558009745554986,
0.023603254143554738,0.0018327601425632504,
0.020928066629090296,0.00046968402177386987,
0.017962598425196853,-0.0000000000000000010998556081327946,
0.014997130221303411,0.00046968402177386922,
0.012321942706838966,0.0018327601425632487,
0.010198901874846717,0.0039558009745554968,
0.0088358257540573359,0.0066309884890199417,
0*
4,1,3,
-0.027559055118110236,0.00959645669291339,
-0.0083661417322834636,0.0095964566929133844,
-0.0083661417322834653,-0.0095964566929133879,
-0.027559055118110236,-0.0095964566929133827,
0*
4,1,3,
-0.017962598425196853,-0.019192913385826769,
-0.01796259842519685,0.0000000000000000010998556081327946,
0.01796259842519685,-0.0000000000000000010998556081327946,
0.01796259842519685,-0.019192913385826776,
0*
4,1,3,
0.027559055118110236,-0.00959645669291339,
0.0083661417322834636,-0.0095964566929133844,
0.0083661417322834653,0.0095964566929133879,
0.027559055118110236,0.0095964566929133827,
0*
4,1,3,
0.017962598425196853,0.019192913385826769,
0.01796259842519685,-0.0000000000000000010998556081327946,
-0.01796259842519685,0.0000000000000000010998556081327946,
-0.01796259842519685,0.019192913385826776,
0*%
%AMCOMP20*
4,1,3,
0.0098425196850393734,0.018700787401574805,
-0.00984251968503937,0.018700787401574805,
-0.0098425196850393734,-0.018700787401574805,
0.00984251968503937,-0.018700787401574805,
0*
4,1,19,
0.0000000000000000011450551536724983,0.018700787401574805,
0.00048172720181935636,0.021742293251721924,
0.0018797539923725659,0.0244860753178393,
0.0040572317687748724,0.026663553094241611,
0.0068010138348922524,0.02806157988479482,
0.00984251968503937,0.028543307086614175,
0.012884025535186494,0.02806157988479482,
0.015627807601303872,0.026663553094241611,
0.017805285377706179,0.024486075317839306,
0.019203312168259389,0.021742293251721924,
0.01968503937007874,0.018700787401574805,
0.019203312168259386,0.015659281551427678,
0.017805285377706176,0.012915499485310306,
0.015627807601303872,0.010738021708907997,
0.012884025535186491,0.0093399949183547871,
0.0098425196850393734,0.0088582677165354312,
0.0068010138348922533,0.0093399949183547871,
0.0040572317687748733,0.010738021708907997,
0.0018797539923725666,0.012915499485310301,
0.000481727201819356,0.015659281551427682,
0*
4,1,19,
-0.01968503937007874,0.018700787401574805,
-0.019203312168259386,0.021742293251721924,
-0.017805285377706176,0.0244860753178393,
-0.015627807601303868,0.026663553094241611,
-0.012884025535186489,0.02806157988479482,
-0.0098425196850393682,0.028543307086614175,
-0.0068010138348922489,0.02806157988479482,
-0.0040572317687748707,0.026663553094241611,
-0.0018797539923725642,0.024486075317839306,
-0.00048172720181935375,0.021742293251721924,
0.0000000000000000011450551536724986,0.018700787401574805,
-0.00048172720181935408,0.015659281551427682,
-0.0018797539923725627,0.012915499485310306,
-0.004057231768774869,0.010738021708907997,
-0.0068010138348922481,0.0093399949183547871,
-0.0098425196850393682,0.0088582677165354329,
-0.012884025535186489,0.0093399949183547871,
-0.015627807601303868,0.010738021708907997,
-0.017805285377706176,0.012915499485310301,
-0.019203312168259386,0.015659281551427682,
0*
4,1,19,
-0.01968503937007874,-0.0187007874015748,
-0.019203312168259386,-0.015659281551427682,
-0.017805285377706176,-0.012915499485310303,
-0.015627807601303872,-0.010738021708907997,
-0.012884025535186491,-0.0093399949183547871,
-0.00984251968503937,-0.0088582677165354312,
-0.0068010138348922524,-0.0093399949183547871,
-0.0040572317687748724,-0.010738021708907997,
-0.0018797539923725666,-0.012915499485310301,
-0.000481727201819356,-0.015659281551427682,
-0.0000000000000000011450551536724983,-0.0187007874015748,
-0.00048172720181935636,-0.021742293251721927,
-0.0018797539923725648,-0.0244860753178393,
-0.0040572317687748716,-0.026663553094241611,
-0.0068010138348922507,-0.02806157988479482,
-0.00984251968503937,-0.028543307086614175,
-0.012884025535186491,-0.02806157988479482,
-0.015627807601303872,-0.026663553094241611,
-0.017805285377706179,-0.024486075317839306,
-0.019203312168259389,-0.021742293251721924,
0*
4,1,19,
-0.0000000000000000011450551536724983,-0.018700787401574805,
0.00048172720181935408,-0.015659281551427682,
0.0018797539923725637,-0.012915499485310303,
0.0040572317687748707,-0.010738021708907997,
0.0068010138348922489,-0.0093399949183547871,
0.00984251968503937,-0.0088582677165354329,
0.012884025535186491,-0.0093399949183547871,
0.015627807601303868,-0.010738021708907997,
0.017805285377706176,-0.012915499485310301,
0.019203312168259386,-0.015659281551427685,
0.01968503937007874,-0.018700787401574805,
0.019203312168259386,-0.021742293251721927,
0.017805285377706176,-0.0244860753178393,
0.015627807601303872,-0.026663553094241611,
0.012884025535186489,-0.02806157988479482,
0.00984251968503937,-0.028543307086614175,
0.00680101383489225,-0.02806157988479482,
0.0040572317687748716,-0.026663553094241611,
0.0018797539923725642,-0.024486075317839306,
0.00048172720181935375,-0.021742293251721924,
0*
4,1,3,
0.0098425196850393734,0.028543307086614175,
0.00984251968503937,0.0088582677165354312,
-0.00984251968503937,0.0088582677165354329,
-0.0098425196850393682,0.028543307086614175,
0*
4,1,3,
-0.01968503937007874,0.018700787401574805,
0.0000000000000000011450551536724983,0.018700787401574805,
-0.0000000000000000011450551536724983,-0.018700787401574805,
-0.01968503937007874,-0.0187007874015748,
0*
4,1,3,
-0.0098425196850393734,-0.028543307086614175,
-0.00984251968503937,-0.0088582677165354312,
0.00984251968503937,-0.0088582677165354329,
0.0098425196850393682,-0.028543307086614175,
0*
4,1,3,
0.01968503937007874,-0.018700787401574805,
-0.0000000000000000011450551536724983,-0.018700787401574805,
0.0000000000000000011450551536724983,0.018700787401574805,
0.01968503937007874,0.0187007874015748,
0*%
%AMCOMP21*
4,1,3,
-0.017716535433070866,0.013779527559055118,
-0.017716535433070866,-0.013779527559055118,
0.017716535433070866,-0.013779527559055118,
0.017716535433070866,0.013779527559055118,
0*
4,1,19,
-0.027559055118110236,0.01377952755905512,
-0.027077327916290882,0.016821033409202241,
-0.025679301125737672,0.01956481547531962,
-0.023501823349335368,0.021742293251721924,
-0.020758041283217985,0.023140320042275134,
-0.017716535433070866,0.023622047244094488,
-0.014675029582923747,0.023140320042275134,
-0.011931247516806366,0.021742293251721924,
-0.0097537697404040617,0.01956481547531962,
-0.00835574294985085,0.016821033409202237,
-0.007874015748031496,0.01377952755905512,
-0.00835574294985085,0.010738021708907995,
-0.00975376974040406,0.0079942396427906213,
-0.011931247516806368,0.0058167618663883145,
-0.014675029582923745,0.0044187350758351038,
-0.017716535433070866,0.0039370078740157488,
-0.020758041283217985,0.0044187350758351021,
-0.023501823349335368,0.0058167618663883119,
-0.025679301125737672,0.0079942396427906178,
-0.027077327916290882,0.010738021708907997,
0*
4,1,19,
-0.027559055118110236,-0.013779527559055116,
-0.027077327916290882,-0.010738021708907995,
-0.025679301125737672,-0.0079942396427906178,
-0.023501823349335368,-0.0058167618663883111,
-0.020758041283217985,-0.0044187350758351012,
-0.017716535433070866,-0.0039370078740157462,
-0.014675029582923748,-0.0044187350758351,
-0.011931247516806368,-0.0058167618663883111,
-0.0097537697404040634,-0.0079942396427906161,
-0.0083557429498508536,-0.010738021708907997,
-0.0078740157480314977,-0.013779527559055116,
-0.0083557429498508536,-0.016821033409202241,
-0.0097537697404040617,-0.019564815475319616,
-0.011931247516806369,-0.021742293251721924,
-0.014675029582923747,-0.023140320042275134,
-0.017716535433070866,-0.023622047244094488,
-0.020758041283217985,-0.023140320042275134,
-0.023501823349335368,-0.021742293251721924,
-0.025679301125737672,-0.019564815475319616,
-0.027077327916290882,-0.016821033409202237,
0*
4,1,19,
0.007874015748031496,-0.013779527559055118,
0.00835574294985085,-0.010738021708907997,
0.0097537697404040617,-0.00799423964279062,
0.011931247516806368,-0.0058167618663883128,
0.014675029582923747,-0.0044187350758351038,
0.017716535433070866,-0.0039370078740157488,
0.020758041283217985,-0.0044187350758351021,
0.023501823349335368,-0.0058167618663883128,
0.025679301125737672,-0.0079942396427906178,
0.027077327916290882,-0.010738021708907999,
0.027559055118110236,-0.013779527559055118,
0.027077327916290882,-0.016821033409202244,
0.025679301125737675,-0.019564815475319616,
0.023501823349335368,-0.021742293251721924,
0.020758041283217992,-0.023140320042275134,
0.017716535433070866,-0.023622047244094488,
0.014675029582923747,-0.023140320042275134,
0.011931247516806368,-0.021742293251721924,
0.0097537697404040617,-0.01956481547531962,
0.00835574294985085,-0.016821033409202241,
0*
4,1,19,
0.0078740157480314977,0.013779527559055118,
0.0083557429498508536,0.016821033409202237,
0.0097537697404040634,0.019564815475319616,
0.011931247516806369,0.021742293251721924,
0.014675029582923748,0.023140320042275134,
0.017716535433070869,0.023622047244094488,
0.020758041283217985,0.023140320042275134,
0.023501823349335368,0.021742293251721924,
0.025679301125737672,0.019564815475319616,
0.027077327916290882,0.016821033409202237,
0.027559055118110236,0.013779527559055118,
0.027077327916290882,0.010738021708907993,
0.025679301125737675,0.0079942396427906178,
0.023501823349335368,0.0058167618663883119,
0.020758041283217992,0.0044187350758351012,
0.017716535433070869,0.0039370078740157462,
0.014675029582923748,0.0044187350758351,
0.011931247516806369,0.0058167618663883093,
0.0097537697404040634,0.0079942396427906143,
0.0083557429498508536,0.010738021708907995,
0*
4,1,3,
-0.027559055118110236,0.01377952755905512,
-0.007874015748031496,0.013779527559055118,
-0.0078740157480314977,-0.013779527559055118,
-0.027559055118110236,-0.013779527559055116,
0*
4,1,3,
-0.017716535433070869,-0.023622047244094488,
-0.017716535433070866,-0.0039370078740157462,
0.017716535433070866,-0.0039370078740157488,
0.017716535433070866,-0.023622047244094488,
0*
4,1,3,
0.027559055118110236,-0.01377952755905512,
0.007874015748031496,-0.013779527559055118,
0.0078740157480314977,0.013779527559055118,
0.027559055118110236,0.013779527559055116,
0*
4,1,3,
0.017716535433070869,0.023622047244094488,
0.017716535433070866,0.0039370078740157462,
-0.017716535433070866,0.0039370078740157488,
-0.017716535433070866,0.023622047244094488,
0*%
%AMCOMP22*
4,1,3,
0.013779527559055118,0.017716535433070866,
-0.013779527559055118,0.017716535433070866,
-0.013779527559055118,-0.017716535433070866,
0.013779527559055118,-0.017716535433070866,
0*
4,1,19,
0.0039370078740157488,0.017716535433070866,
0.0044187350758351038,0.020758041283217985,
0.0058167618663883128,0.023501823349335368,
0.00799423964279062,0.025679301125737672,
0.010738021708907999,0.027077327916290882,
0.01377952755905512,0.027559055118110236,
0.016821033409202241,0.027077327916290882,
0.019564815475319616,0.025679301125737672,
0.021742293251721924,0.023501823349335368,
0.023140320042275134,0.020758041283217992,
0.023622047244094488,0.017716535433070866,
0.023140320042275134,0.014675029582923743,
0.021742293251721924,0.011931247516806366,
0.01956481547531962,0.0097537697404040617,
0.016821033409202237,0.00835574294985085,
0.01377952755905512,0.007874015748031496,
0.010738021708907999,0.00835574294985085,
0.0079942396427906213,0.00975376974040406,
0.0058167618663883145,0.011931247516806366,
0.0044187350758351038,0.014675029582923745,
0*
4,1,19,
-0.023622047244094488,0.017716535433070869,
-0.023140320042275134,0.020758041283217985,
-0.021742293251721924,0.023501823349335368,
-0.019564815475319616,0.025679301125737672,
-0.016821033409202237,0.027077327916290882,
-0.013779527559055116,0.027559055118110236,
-0.010738021708907995,0.027077327916290882,
-0.0079942396427906178,0.025679301125737672,
-0.0058167618663883119,0.023501823349335368,
-0.0044187350758351012,0.020758041283217992,
-0.0039370078740157462,0.017716535433070869,
-0.0044187350758351012,0.014675029582923745,
-0.0058167618663883093,0.011931247516806368,
-0.0079942396427906161,0.0097537697404040634,
-0.010738021708907997,0.0083557429498508536,
-0.013779527559055116,0.0078740157480314977,
-0.016821033409202237,0.0083557429498508518,
-0.019564815475319616,0.0097537697404040617,
-0.021742293251721924,0.011931247516806368,
-0.023140320042275134,0.014675029582923747,
0*
4,1,19,
-0.023622047244094488,-0.017716535433070866,
-0.023140320042275134,-0.014675029582923745,
-0.021742293251721924,-0.011931247516806366,
-0.019564815475319616,-0.00975376974040406,
-0.016821033409202237,-0.00835574294985085,
-0.013779527559055118,-0.007874015748031496,
-0.010738021708907997,-0.00835574294985085,
-0.0079942396427906213,-0.0097537697404040617,
-0.0058167618663883145,-0.011931247516806368,
-0.0044187350758351038,-0.014675029582923747,
-0.0039370078740157488,-0.017716535433070866,
-0.0044187350758351038,-0.020758041283217992,
-0.0058167618663883119,-0.023501823349335368,
-0.0079942396427906178,-0.025679301125737672,
-0.010738021708907999,-0.027077327916290882,
-0.013779527559055118,-0.027559055118110236,
-0.016821033409202237,-0.027077327916290882,
-0.019564815475319616,-0.025679301125737675,
-0.021742293251721924,-0.023501823349335368,
-0.023140320042275134,-0.020758041283217992,
0*
4,1,19,
0.0039370078740157462,-0.017716535433070866,
0.0044187350758351012,-0.014675029582923747,
0.0058167618663883111,-0.011931247516806368,
0.0079942396427906178,-0.0097537697404040617,
0.010738021708907997,-0.0083557429498508536,
0.013779527559055118,-0.0078740157480314977,
0.016821033409202237,-0.0083557429498508518,
0.019564815475319616,-0.0097537697404040634,
0.021742293251721924,-0.011931247516806369,
0.023140320042275134,-0.014675029582923748,
0.023622047244094488,-0.017716535433070866,
0.023140320042275134,-0.020758041283217992,
0.021742293251721924,-0.023501823349335368,
0.019564815475319616,-0.025679301125737672,
0.016821033409202237,-0.027077327916290882,
0.013779527559055118,-0.027559055118110236,
0.010738021708907997,-0.027077327916290882,
0.00799423964279062,-0.025679301125737675,
0.0058167618663883119,-0.023501823349335368,
0.0044187350758351012,-0.020758041283217992,
0*
4,1,3,
0.01377952755905512,0.027559055118110236,
0.013779527559055118,0.007874015748031496,
-0.013779527559055118,0.0078740157480314977,
-0.013779527559055116,0.027559055118110236,
0*
4,1,3,
-0.023622047244094488,0.017716535433070869,
-0.0039370078740157462,0.017716535433070866,
-0.0039370078740157488,-0.017716535433070866,
-0.023622047244094488,-0.017716535433070866,
0*
4,1,3,
-0.01377952755905512,-0.027559055118110236,
-0.013779527559055118,-0.007874015748031496,
0.013779527559055118,-0.0078740157480314977,
0.013779527559055116,-0.027559055118110236,
0*
4,1,3,
0.023622047244094488,-0.017716535433070869,
0.0039370078740157462,-0.017716535433070866,
0.0039370078740157488,0.017716535433070866,
0.023622047244094488,0.017716535433070866,
0*%
%AMCOMP23*
4,1,21,
0.029527559055118113,0.01968503937007874,
0.029527559055118113,-0.0000000000000000018079818215881557,
0.029332007874015749,-0.0000000000000000017960081606443842,
0.029274330708661419,-0.0031472834645669308,
0.027609960629921264,-0.00847464566929134,
0.024517244094488192,-0.013120708661417325,
0.020244842519685041,-0.016712047244094492,
0.015136220472440945,-0.018959881889763781,
0.00984251968503937,-0.019652125984251971,
0.00984251968503937,-0.01968503937007874,
-0.0098425196850393734,-0.01968503937007874,
-0.0098425196850393734,-0.019652125984251971,
-0.010083031496062994,-0.019683582677165357,
-0.015597874015748034,-0.018824881889763782,
-0.02065003937007874,-0.016452913385826769,
-0.024833425196850396,-0.012758267716535432,
-0.027811692913385828,-0.0080379921259842516,
-0.029345433070866143,-0.0026715748031496049,
-0.029329094488188979,0.0000000000000000017958297731046545,
-0.029527559055118113,0.0000000000000000018079818215881557,
-0.029527559055118113,0.01968503937007874,
0.029527559055118113,0.01968503937007874,
0*%
%AMCOMP24*
4,1,19,
-0.029329094488188979,0.0000000000000000017958297731046545,
-0.029311338582677166,0.0029096456692913404,
-0.027712165354330711,0.00825692913385827,
-0.024676456692913386,0.012940472440944885,
-0.020448228346456692,0.016583700787401578,
-0.015367440944881888,0.018893818897637797,
-0.00984251968503937,0.01968503937007874,
0.0098425196850393734,0.01968503937007874,
0.010323464566929137,0.019679173228346458,
0.015827440944881893,0.018753188976377955,
0.02085023622047244,0.016319645669291338,
0.024988188976377956,0.012574173228346456,
0.027908543307086614,0.00781787401574803,
0.029376614173228347,0.0024331102362204707,
0.029332007874015749,-0.0000000000000000017960081606443842,
0.029527559055118113,-0.0000000000000000018079818215881557,
0.029527559055118113,-0.01968503937007874,
-0.029527559055118113,-0.01968503937007874,
-0.029527559055118113,0.0000000000000000018079818215881557,
-0.029329094488188979,0.0000000000000000017958297731046545,
0*%
%AMCOMP25*
4,1,3,
0.02312992125984252,0.0059055118110236211,
-0.02312992125984252,0.0059055118110236228,
-0.02312992125984252,-0.0059055118110236211,
0.02312992125984252,-0.0059055118110236228,
0*
4,1,19,
0.017224409448818898,0.0059055118110236211,
0.017513445769910513,0.007730415321111894,
0.018352261844242438,0.0093766845607823213,
0.019658748510083823,0.010683171226623702,
0.021305017749754251,0.011521987300955628,
0.02312992125984252,0.011811023622047242,
0.024954824769930793,0.011521987300955629,
0.026601094009601218,0.010683171226623702,
0.027907580675442602,0.0093766845607823213,
0.028746396749774531,0.0077304153211118923,
0.029035433070866146,0.0059055118110236211,
0.028746396749774531,0.0040806083009353464,
0.027907580675442606,0.0024343390612649213,
0.026601094009601225,0.0011278523954235378,
0.024954824769930793,0.00028903632109161191,
0.02312992125984252,-0.0000000000000000014162524269107219,
0.021305017749754251,0.00028903632109161109,
0.019658748510083823,0.0011278523954235367,
0.018352261844242438,0.00243433906126492,
0.017513445769910513,0.0040806083009353473,
0*
4,1,19,
-0.029035433070866146,0.0059055118110236246,
-0.028746396749774531,0.0077304153211118967,
-0.027907580675442602,0.0093766845607823248,
-0.026601094009601225,0.010683171226623706,
-0.024954824769930793,0.011521987300955631,
-0.02312992125984252,0.011811023622047246,
-0.021305017749754251,0.011521987300955635,
-0.019658748510083823,0.010683171226623706,
-0.018352261844242438,0.0093766845607823248,
-0.017513445769910513,0.0077304153211118958,
-0.017224409448818898,0.0059055118110236246,
-0.017513445769910513,0.00408060830093535,
-0.018352261844242438,0.0024343390612649239,
-0.019658748510083823,0.0011278523954235406,
-0.021305017749754251,0.00028903632109161478,
-0.02312992125984252,0.0000000000000000014162524269107219,
-0.024954824769930793,0.00028903632109161391,
-0.026601094009601218,0.0011278523954235395,
-0.027907580675442602,0.002434339061264923,
-0.028746396749774531,0.00408060830093535,
0*
4,1,19,
-0.029035433070866146,-0.00590551181102362,
-0.028746396749774531,-0.0040806083009353481,
-0.027907580675442602,-0.0024343390612649209,
-0.026601094009601225,-0.0011278523954235374,
-0.024954824769930793,-0.00028903632109161191,
-0.02312992125984252,0.0000000000000000014162524269107219,
-0.021305017749754251,-0.00028903632109161109,
-0.019658748510083823,-0.0011278523954235378,
-0.018352261844242438,-0.0024343390612649209,
-0.017513445769910513,-0.0040806083009353481,
-0.017224409448818898,-0.00590551181102362,
-0.017513445769910513,-0.0077304153211118949,
-0.018352261844242438,-0.00937668456078232,
-0.019658748510083823,-0.010683171226623702,
-0.021305017749754251,-0.011521987300955628,
-0.02312992125984252,-0.011811023622047242,
-0.024954824769930793,-0.011521987300955629,
-0.026601094009601218,-0.010683171226623704,
-0.027907580675442602,-0.0093766845607823213,
-0.028746396749774531,-0.007730415321111894,
0*
4,1,19,
0.017224409448818898,-0.0059055118110236228,
0.017513445769910513,-0.0040806083009353507,
0.018352261844242438,-0.0024343390612649235,
0.019658748510083823,-0.0011278523954235402,
0.021305017749754251,-0.00028903632109161478,
0.02312992125984252,-0.0000000000000000014162524269107219,
0.024954824769930793,-0.00028903632109161391,
0.026601094009601218,-0.0011278523954235406,
0.027907580675442602,-0.0024343390612649235,
0.028746396749774531,-0.0040806083009353507,
0.029035433070866146,-0.0059055118110236228,
0.028746396749774531,-0.0077304153211118984,
0.027907580675442606,-0.0093766845607823231,
0.026601094009601225,-0.010683171226623706,
0.024954824769930793,-0.011521987300955631,
0.02312992125984252,-0.011811023622047246,
0.021305017749754251,-0.011521987300955635,
0.019658748510083823,-0.010683171226623709,
0.018352261844242438,-0.0093766845607823248,
0.017513445769910513,-0.0077304153211118967,
0*
4,1,3,
0.02312992125984252,0.011811023622047242,
0.02312992125984252,-0.0000000000000000014162524269107219,
-0.02312992125984252,0.0000000000000000014162524269107219,
-0.02312992125984252,0.011811023622047246,
0*
4,1,3,
-0.029035433070866146,0.0059055118110236246,
-0.017224409448818898,0.0059055118110236228,
-0.017224409448818898,-0.0059055118110236211,
-0.029035433070866146,-0.00590551181102362,
0*
4,1,3,
-0.02312992125984252,-0.011811023622047242,
-0.02312992125984252,0.0000000000000000014162524269107219,
0.02312992125984252,-0.0000000000000000014162524269107219,
0.02312992125984252,-0.011811023622047246,
0*
4,1,3,
0.029035433070866146,-0.0059055118110236246,
0.017224409448818898,-0.0059055118110236228,
0.017224409448818898,0.0059055118110236211,
0.029035433070866146,0.00590551181102362,
0*%
%AMCOMP26*
4,1,3,
0.018700787401574805,-0.0098425196850393734,
0.018700787401574805,0.00984251968503937,
-0.018700787401574805,0.0098425196850393734,
-0.018700787401574805,-0.00984251968503937,
0*
4,1,19,
0.0088582677165354312,-0.00984251968503937,
0.0093399949183547871,-0.0068010138348922507,
0.010738021708907997,-0.0040572317687748716,
0.012915499485310303,-0.0018797539923725655,
0.015659281551427682,-0.000481727201819356,
0.018700787401574805,-0.0000000000000000011450551536724983,
0.021742293251721924,-0.00048172720181935522,
0.0244860753178393,-0.0018797539923725659,
0.026663553094241611,-0.0040572317687748716,
0.02806157988479482,-0.0068010138348922524,
0.028543307086614175,-0.00984251968503937,
0.02806157988479482,-0.012884025535186496,
0.026663553094241611,-0.015627807601303872,
0.024486075317839306,-0.017805285377706179,
0.021742293251721924,-0.019203312168259389,
0.018700787401574805,-0.01968503937007874,
0.015659281551427682,-0.019203312168259386,
0.012915499485310306,-0.017805285377706176,
0.010738021708907997,-0.015627807601303872,
0.0093399949183547871,-0.012884025535186494,
0*
4,1,19,
0.0088582677165354329,0.00984251968503937,
0.0093399949183547888,0.012884025535186491,
0.010738021708907997,0.015627807601303872,
0.012915499485310303,0.017805285377706176,
0.015659281551427685,0.019203312168259386,
0.018700787401574805,0.01968503937007874,
0.021742293251721924,0.019203312168259386,
0.0244860753178393,0.017805285377706176,
0.026663553094241611,0.015627807601303872,
0.02806157988479482,0.012884025535186489,
0.028543307086614175,0.00984251968503937,
0.02806157988479482,0.0068010138348922455,
0.026663553094241611,0.0040572317687748707,
0.024486075317839306,0.0018797539923725642,
0.021742293251721924,0.00048172720181935375,
0.018700787401574805,-0.0000000000000000011450551536724986,
0.015659281551427685,0.000481727201819353,
0.012915499485310306,0.0018797539923725627,
0.010738021708907997,0.0040572317687748681,
0.0093399949183547871,0.0068010138348922463,
0*
4,1,19,
-0.028543307086614175,0.0098425196850393734,
-0.02806157988479482,0.012884025535186494,
-0.026663553094241611,0.015627807601303872,
-0.0244860753178393,0.017805285377706179,
-0.021742293251721924,0.019203312168259389,
-0.0187007874015748,0.01968503937007874,
-0.015659281551427682,0.019203312168259386,
-0.012915499485310306,0.017805285377706176,
-0.010738021708907997,0.015627807601303872,
-0.0093399949183547871,0.012884025535186491,
-0.0088582677165354312,0.0098425196850393734,
-0.0093399949183547871,0.0068010138348922489,
-0.010738021708907997,0.0040572317687748724,
-0.012915499485310301,0.0018797539923725666,
-0.015659281551427682,0.000481727201819356,
-0.0187007874015748,0.0000000000000000011450551536724983,
-0.02174229325172192,0.00048172720181935522,
-0.0244860753178393,0.0018797539923725648,
-0.026663553094241611,0.0040572317687748707,
-0.02806157988479482,0.00680101383489225,
0*
4,1,19,
-0.028543307086614175,-0.0098425196850393682,
-0.02806157988479482,-0.0068010138348922481,
-0.026663553094241611,-0.004057231768774869,
-0.0244860753178393,-0.0018797539923725631,
-0.021742293251721924,-0.00048172720181935375,
-0.018700787401574805,0.0000000000000000011450551536724983,
-0.015659281551427682,-0.000481727201819353,
-0.012915499485310306,-0.0018797539923725637,
-0.010738021708907997,-0.004057231768774869,
-0.0093399949183547871,-0.0068010138348922489,
-0.0088582677165354329,-0.00984251968503937,
-0.0093399949183547888,-0.012884025535186494,
-0.010738021708907997,-0.015627807601303868,
-0.012915499485310301,-0.017805285377706176,
-0.015659281551427685,-0.019203312168259386,
-0.018700787401574805,-0.01968503937007874,
-0.02174229325172192,-0.019203312168259386,
-0.0244860753178393,-0.017805285377706176,
-0.026663553094241611,-0.015627807601303872,
-0.02806157988479482,-0.012884025535186491,
0*
4,1,3,
0.028543307086614175,-0.0098425196850393734,
0.0088582677165354312,-0.00984251968503937,
0.0088582677165354329,0.00984251968503937,
0.028543307086614175,0.0098425196850393682,
0*
4,1,3,
0.018700787401574805,0.01968503937007874,
0.018700787401574805,-0.0000000000000000011450551536724983,
-0.018700787401574805,0.0000000000000000011450551536724983,
-0.0187007874015748,0.01968503937007874,
0*
4,1,3,
-0.028543307086614175,0.0098425196850393734,
-0.0088582677165354312,0.00984251968503937,
-0.0088582677165354329,-0.00984251968503937,
-0.028543307086614175,-0.0098425196850393682,
0*
4,1,3,
-0.018700787401574805,-0.01968503937007874,
-0.018700787401574805,0.0000000000000000011450551536724983,
0.018700787401574805,-0.0000000000000000011450551536724983,
0.0187007874015748,-0.01968503937007874,
0*%
%AMCOMP27*
4,1,3,
0.017716535433070866,-0.013779527559055118,
0.017716535433070866,0.013779527559055118,
-0.017716535433070866,0.013779527559055118,
-0.017716535433070866,-0.013779527559055118,
0*
4,1,19,
0.007874015748031496,-0.013779527559055118,
0.00835574294985085,-0.010738021708907997,
0.0097537697404040617,-0.00799423964279062,
0.011931247516806368,-0.0058167618663883128,
0.014675029582923747,-0.0044187350758351038,
0.017716535433070866,-0.0039370078740157488,
0.020758041283217985,-0.0044187350758351021,
0.023501823349335368,-0.0058167618663883128,
0.025679301125737672,-0.0079942396427906178,
0.027077327916290882,-0.010738021708907999,
0.027559055118110236,-0.013779527559055118,
0.027077327916290882,-0.016821033409202244,
0.025679301125737675,-0.019564815475319616,
0.023501823349335368,-0.021742293251721924,
0.020758041283217992,-0.023140320042275134,
0.017716535433070866,-0.023622047244094488,
0.014675029582923747,-0.023140320042275134,
0.011931247516806368,-0.021742293251721924,
0.0097537697404040617,-0.01956481547531962,
0.00835574294985085,-0.016821033409202241,
0*
4,1,19,
0.0078740157480314977,0.013779527559055118,
0.0083557429498508536,0.016821033409202237,
0.0097537697404040634,0.019564815475319616,
0.011931247516806369,0.021742293251721924,
0.014675029582923748,0.023140320042275134,
0.017716535433070869,0.023622047244094488,
0.020758041283217985,0.023140320042275134,
0.023501823349335368,0.021742293251721924,
0.025679301125737672,0.019564815475319616,
0.027077327916290882,0.016821033409202237,
0.027559055118110236,0.013779527559055118,
0.027077327916290882,0.010738021708907993,
0.025679301125737675,0.0079942396427906178,
0.023501823349335368,0.0058167618663883119,
0.020758041283217992,0.0044187350758351012,
0.017716535433070869,0.0039370078740157462,
0.014675029582923748,0.0044187350758351,
0.011931247516806369,0.0058167618663883093,
0.0097537697404040634,0.0079942396427906143,
0.0083557429498508536,0.010738021708907995,
0*
4,1,19,
-0.027559055118110236,0.01377952755905512,
-0.027077327916290882,0.016821033409202241,
-0.025679301125737672,0.01956481547531962,
-0.023501823349335368,0.021742293251721924,
-0.020758041283217985,0.023140320042275134,
-0.017716535433070866,0.023622047244094488,
-0.014675029582923747,0.023140320042275134,
-0.011931247516806366,0.021742293251721924,
-0.0097537697404040617,0.01956481547531962,
-0.00835574294985085,0.016821033409202237,
-0.007874015748031496,0.01377952755905512,
-0.00835574294985085,0.010738021708907995,
-0.00975376974040406,0.0079942396427906213,
-0.011931247516806368,0.0058167618663883145,
-0.014675029582923745,0.0044187350758351038,
-0.017716535433070866,0.0039370078740157488,
-0.020758041283217985,0.0044187350758351021,
-0.023501823349335368,0.0058167618663883119,
-0.025679301125737672,0.0079942396427906178,
-0.027077327916290882,0.010738021708907997,
0*
4,1,19,
-0.027559055118110236,-0.013779527559055116,
-0.027077327916290882,-0.010738021708907995,
-0.025679301125737672,-0.0079942396427906178,
-0.023501823349335368,-0.0058167618663883111,
-0.020758041283217985,-0.0044187350758351012,
-0.017716535433070866,-0.0039370078740157462,
-0.014675029582923748,-0.0044187350758351,
-0.011931247516806368,-0.0058167618663883111,
-0.0097537697404040634,-0.0079942396427906161,
-0.0083557429498508536,-0.010738021708907997,
-0.0078740157480314977,-0.013779527559055116,
-0.0083557429498508536,-0.016821033409202241,
-0.0097537697404040617,-0.019564815475319616,
-0.011931247516806369,-0.021742293251721924,
-0.014675029582923747,-0.023140320042275134,
-0.017716535433070866,-0.023622047244094488,
-0.020758041283217985,-0.023140320042275134,
-0.023501823349335368,-0.021742293251721924,
-0.025679301125737672,-0.019564815475319616,
-0.027077327916290882,-0.016821033409202237,
0*
4,1,3,
0.027559055118110236,-0.01377952755905512,
0.007874015748031496,-0.013779527559055118,
0.0078740157480314977,0.013779527559055118,
0.027559055118110236,0.013779527559055116,
0*
4,1,3,
0.017716535433070869,0.023622047244094488,
0.017716535433070866,0.0039370078740157462,
-0.017716535433070866,0.0039370078740157488,
-0.017716535433070866,0.023622047244094488,
0*
4,1,3,
-0.027559055118110236,0.01377952755905512,
-0.007874015748031496,0.013779527559055118,
-0.0078740157480314977,-0.013779527559055118,
-0.027559055118110236,-0.013779527559055116,
0*
4,1,3,
-0.017716535433070869,-0.023622047244094488,
-0.017716535433070866,-0.0039370078740157462,
0.017716535433070866,-0.0039370078740157488,
0.017716535433070866,-0.023622047244094488,
0*%
%AMCOMP28*
4,1,3,
0.0073818897637795283,0.003444881889763779,
-0.0073818897637795283,0.00344488188976378,
-0.0073818897637795283,-0.003444881889763779,
0.0073818897637795283,-0.00344488188976378,
0*
4,1,19,
0.0039370078740157488,0.0034448818897637795,
0.0041056123946525231,0.0045094089373152717,
0.0045949217713461468,0.0054697326604563551,
0.0053570389930869535,0.0062318498821971611,
0.0063173627162280352,0.0067211592588907855,
0.0073818897637795283,0.006889763779527559,
0.00844641681133102,0.0067211592588907855,
0.0094067405344721022,0.00623184988219716,
0.01016885775621291,0.0054697326604563543,
0.010658167132906533,0.0045094089373152717,
0.010826771653543309,0.0034448818897637795,
0.010658167132906533,0.0023803548422122859,
0.01016885775621291,0.0014200311190712047,
0.009406740534472104,0.00065791389733039726,
0.00844641681133102,0.00016860452063677391,
0.0073818897637795292,-0.00000000000000000045199545539703892,
0.0063173627162280369,0.00016860452063677351,
0.0053570389930869535,0.000657913897330397,
0.0045949217713461459,0.0014200311190712038,
0.0041056123946525231,0.0023803548422122863,
0*
4,1,19,
-0.010826771653543309,0.00344488188976378,
-0.010658167132906533,0.0045094089373152717,
-0.01016885775621291,0.005469732660456356,
-0.0094067405344721022,0.0062318498821971619,
-0.00844641681133102,0.0067211592588907855,
-0.0073818897637795283,0.006889763779527559,
-0.0063173627162280369,0.0067211592588907855,
-0.0053570389930869535,0.0062318498821971611,
-0.0045949217713461459,0.0054697326604563551,
-0.0041056123946525223,0.0045094089373152717,
-0.0039370078740157488,0.00344488188976378,
-0.0041056123946525231,0.0023803548422122868,
-0.0045949217713461459,0.0014200311190712054,
-0.0053570389930869527,0.00065791389733039812,
-0.0063173627162280352,0.00016860452063677481,
-0.0073818897637795266,0.00000000000000000045199545539703883,
-0.00844641681133102,0.0001686045206367744,
-0.0094067405344721022,0.0006579138973303978,
-0.01016885775621291,0.0014200311190712047,
-0.010658167132906533,0.0023803548422122872,
0*
4,1,19,
-0.010826771653543309,-0.003444881889763779,
-0.010658167132906533,-0.0023803548422122872,
-0.01016885775621291,-0.0014200311190712041,
-0.0094067405344721022,-0.00065791389733039726,
-0.00844641681133102,-0.00016860452063677391,
-0.0073818897637795283,0.00000000000000000045199545539703892,
-0.0063173627162280369,-0.00016860452063677351,
-0.0053570389930869535,-0.00065791389733039758,
-0.0045949217713461459,-0.0014200311190712041,
-0.0041056123946525231,-0.0023803548422122868,
-0.0039370078740157488,-0.003444881889763779,
-0.0041056123946525231,-0.0045094089373152726,
-0.0045949217713461459,-0.0054697326604563543,
-0.0053570389930869527,-0.0062318498821971611,
-0.0063173627162280352,-0.0067211592588907855,
-0.0073818897637795266,-0.006889763779527559,
-0.00844641681133102,-0.0067211592588907855,
-0.0094067405344721022,-0.0062318498821971611,
-0.01016885775621291,-0.0054697326604563543,
-0.010658167132906533,-0.0045094089373152717,
0*
4,1,19,
0.0039370078740157488,-0.0034448818897637795,
0.0041056123946525231,-0.0023803548422122876,
0.0045949217713461459,-0.0014200311190712049,
0.0053570389930869535,-0.00065791389733039812,
0.0063173627162280352,-0.00016860452063677481,
0.0073818897637795283,-0.00000000000000000045199545539703892,
0.00844641681133102,-0.0001686045206367744,
0.0094067405344721022,-0.00065791389733039834,
0.01016885775621291,-0.0014200311190712049,
0.010658167132906533,-0.0023803548422122876,
0.010826771653543309,-0.0034448818897637795,
0.010658167132906533,-0.0045094089373152735,
0.01016885775621291,-0.0054697326604563551,
0.009406740534472104,-0.0062318498821971619,
0.00844641681133102,-0.0067211592588907855,
0.0073818897637795292,-0.006889763779527559,
0.0063173627162280369,-0.0067211592588907855,
0.0053570389930869535,-0.0062318498821971619,
0.0045949217713461459,-0.0054697326604563551,
0.0041056123946525223,-0.0045094089373152717,
0*
4,1,3,
0.0073818897637795283,0.006889763779527559,
0.0073818897637795283,-0.00000000000000000045199545539703892,
-0.0073818897637795283,0.00000000000000000045199545539703892,
-0.0073818897637795283,0.006889763779527559,
0*
4,1,3,
-0.010826771653543309,0.00344488188976378,
-0.0039370078740157488,0.0034448818897637795,
-0.0039370078740157488,-0.0034448818897637795,
-0.010826771653543309,-0.003444881889763779,
0*
4,1,3,
-0.0073818897637795283,-0.006889763779527559,
-0.0073818897637795283,0.00000000000000000045199545539703892,
0.0073818897637795283,-0.00000000000000000045199545539703892,
0.0073818897637795283,-0.006889763779527559,
0*
4,1,3,
0.010826771653543309,-0.00344488188976378,
0.0039370078740157488,-0.0034448818897637795,
0.0039370078740157488,0.0034448818897637795,
0.010826771653543309,0.003444881889763779,
0*%
%AMCOMP29*
4,1,3,
0.00688976377952756,0.024606299212598427,
-0.0068897637795275581,0.024606299212598427,
-0.00688976377952756,-0.024606299212598427,
0.0068897637795275581,-0.024606299212598427,
0*
4,1,19,
0.0000000000000000015066515179901296,0.024606299212598427,
0.00033720904127355048,0.026735353307701409,
0.0013158277946607973,0.028656000753983574,
0.0028400622381424107,0.03018023519746519,
0.0047607096844245762,0.031158853950852435,
0.0068897637795275616,0.031496062992125991,
0.0090188178746305452,0.031158853950852439,
0.01093946532091271,0.03018023519746519,
0.012463699764394324,0.028656000753983574,
0.013442318517781573,0.026735353307701409,
0.01377952755905512,0.024606299212598427,
0.013442318517781573,0.02247724511749544,
0.012463699764394327,0.020556597671213279,
0.010939465320912712,0.019032363227731663,
0.0090188178746305452,0.018053744474344418,
0.0068897637795275616,0.017716535433070866,
0.004760709684424577,0.018053744474344414,
0.002840062238142412,0.019032363227731663,
0.0013158277946607969,0.020556597671213272,
0.00033720904127355021,0.02247724511749544,
0*
4,1,19,
-0.013779527559055116,0.024606299212598427,
-0.013442318517781568,0.026735353307701409,
-0.01246369976439432,0.028656000753983574,
-0.010939465320912709,0.03018023519746519,
-0.0090188178746305418,0.031158853950852435,
-0.0068897637795275572,0.031496062992125991,
-0.0047607096844245736,0.031158853950852439,
-0.0028400622381424085,0.03018023519746519,
-0.0013158277946607941,0.028656000753983574,
-0.00033720904127354723,0.026735353307701409,
0.0000000000000000015066515179901296,0.024606299212598427,
-0.0003372090412735475,0.02247724511749544,
-0.0013158277946607932,0.020556597671213279,
-0.0028400622381424077,0.019032363227731663,
-0.0047607096844245727,0.018053744474344418,
-0.0068897637795275572,0.017716535433070866,
-0.00901881787463054,0.018053744474344414,
-0.010939465320912705,0.019032363227731663,
-0.01246369976439432,0.020556597671213272,
-0.013442318517781568,0.02247724511749544,
0*
4,1,19,
-0.01377952755905512,-0.024606299212598427,
-0.013442318517781573,-0.022477245117495444,
-0.012463699764394324,-0.020556597671213279,
-0.010939465320912712,-0.019032363227731663,
-0.0090188178746305452,-0.018053744474344418,
-0.00688976377952756,-0.017716535433070866,
-0.0047607096844245762,-0.018053744474344414,
-0.0028400622381424116,-0.019032363227731663,
-0.0013158277946607969,-0.020556597671213279,
-0.00033720904127355021,-0.022477245117495444,
-0.0000000000000000015066515179901296,-0.024606299212598427,
-0.00033720904127355048,-0.026735353307701413,
-0.0013158277946607962,-0.028656000753983574,
-0.0028400622381424103,-0.03018023519746519,
-0.0047607096844245753,-0.031158853950852435,
-0.00688976377952756,-0.031496062992125991,
-0.0090188178746305435,-0.031158853950852439,
-0.01093946532091271,-0.03018023519746519,
-0.012463699764394324,-0.028656000753983581,
-0.013442318517781573,-0.026735353307701413,
0*
4,1,19,
-0.0000000000000000015066515179901296,-0.024606299212598427,
0.0003372090412735475,-0.022477245117495444,
0.0013158277946607943,-0.020556597671213279,
0.0028400622381424081,-0.019032363227731663,
0.0047607096844245736,-0.018053744474344418,
0.0068897637795275581,-0.017716535433070866,
0.0090188178746305418,-0.018053744474344414,
0.010939465320912705,-0.019032363227731663,
0.01246369976439432,-0.020556597671213279,
0.013442318517781568,-0.022477245117495444,
0.013779527559055116,-0.024606299212598427,
0.013442318517781568,-0.026735353307701413,
0.012463699764394322,-0.028656000753983574,
0.010939465320912709,-0.03018023519746519,
0.0090188178746305418,-0.031158853950852435,
0.0068897637795275581,-0.031496062992125991,
0.0047607096844245744,-0.031158853950852439,
0.0028400622381424094,-0.03018023519746519,
0.0013158277946607941,-0.028656000753983581,
0.00033720904127354723,-0.026735353307701413,
0*
4,1,3,
0.0068897637795275616,0.031496062992125991,
0.00688976377952756,0.017716535433070866,
-0.0068897637795275581,0.017716535433070866,
-0.0068897637795275572,0.031496062992125991,
0*
4,1,3,
-0.013779527559055116,0.024606299212598427,
0.0000000000000000015066515179901296,0.024606299212598427,
-0.0000000000000000015066515179901296,-0.024606299212598427,
-0.01377952755905512,-0.024606299212598427,
0*
4,1,3,
-0.0068897637795275616,-0.031496062992125991,
-0.00688976377952756,-0.017716535433070866,
0.0068897637795275581,-0.017716535433070866,
0.0068897637795275572,-0.031496062992125991,
0*
4,1,3,
0.013779527559055116,-0.024606299212598427,
-0.0000000000000000015066515179901296,-0.024606299212598427,
0.0000000000000000015066515179901296,0.024606299212598427,
0.01377952755905512,0.024606299212598427,
0*%
%AMCOMP30*
4,1,3,
0.0024606299212598421,-0.013779527559055118,
0.0024606299212598438,0.013779527559055118,
-0.0024606299212598421,0.013779527559055118,
-0.0024606299212598438,-0.013779527559055118,
0*
4,1,19,
-0.0000000000000000008437248500744725,-0.013779527559055118,
0.00012043180045483795,-0.013019151096518338,
0.00046993849809314039,-0.012333205579988992,
0.001014307942193717,-0.011788836135888417,
0.0017002534587230616,-0.011439329438250113,
0.0024606299212598416,-0.011318897637795275,
0.0032210063837966223,-0.011439329438250113,
0.0039069519003259662,-0.011788836135888417,
0.004451321344426544,-0.012333205579988992,
0.0048008280420648464,-0.013019151096518338,
0.0049212598425196841,-0.013779527559055118,
0.0048008280420648456,-0.014539904021591898,
0.0044513213444265431,-0.015225849538121243,
0.0039069519003259671,-0.01577021898222182,
0.0032210063837966219,-0.016119725679860121,
0.0024606299212598421,-0.01624015748031496,
0.001700253458723062,-0.016119725679860121,
0.0010143079421937172,-0.01577021898222182,
0.00046993849809314045,-0.015225849538121243,
0.00012043180045483787,-0.014539904021591898,
0*
4,1,19,
0.0000000000000000008437248500744725,0.013779527559055118,
0.00012043180045483964,0.014539904021591898,
0.00046993849809314208,0.015225849538121243,
0.0010143079421937188,0.01577021898222182,
0.0017002534587230635,0.016119725679860121,
0.0024606299212598434,0.01624015748031496,
0.003221006383796624,0.016119725679860121,
0.0039069519003259679,0.01577021898222182,
0.0044513213444265448,0.015225849538121243,
0.0048008280420648482,0.014539904021591898,
0.0049212598425196867,0.013779527559055118,
0.0048008280420648473,0.013019151096518338,
0.0044513213444265448,0.012333205579988992,
0.0039069519003259688,0.011788836135888417,
0.0032210063837966236,0.011439329438250113,
0.0024606299212598438,0.011318897637795275,
0.0017002534587230638,0.011439329438250113,
0.001014307942193719,0.011788836135888417,
0.00046993849809314218,0.012333205579988992,
0.00012043180045483956,0.013019151096518338,
0*
4,1,19,
-0.0049212598425196841,0.013779527559055118,
-0.0048008280420648456,0.014539904021591898,
-0.0044513213444265431,0.015225849538121243,
-0.0039069519003259662,0.01577021898222182,
-0.0032210063837966219,0.016119725679860121,
-0.0024606299212598416,0.01624015748031496,
-0.0017002534587230616,0.016119725679860121,
-0.001014307942193717,0.01577021898222182,
-0.00046993849809314045,0.015225849538121243,
-0.00012043180045483787,0.014539904021591898,
0.0000000000000000008437248500744725,0.013779527559055118,
-0.00012043180045483795,0.013019151096518338,
-0.00046993849809314012,0.012333205579988992,
-0.0010143079421937168,0.011788836135888417,
-0.0017002534587230614,0.011439329438250113,
-0.0024606299212598412,0.011318897637795275,
-0.0032210063837966219,0.011439329438250113,
-0.0039069519003259662,0.011788836135888417,
-0.004451321344426544,0.012333205579988992,
-0.0048008280420648464,0.013019151096518338,
0*
4,1,19,
-0.0049212598425196867,-0.013779527559055118,
-0.0048008280420648473,-0.013019151096518338,
-0.0044513213444265448,-0.012333205579988992,
-0.0039069519003259679,-0.011788836135888417,
-0.0032210063837966236,-0.011439329438250113,
-0.0024606299212598434,-0.011318897637795275,
-0.0017002534587230635,-0.011439329438250113,
-0.0010143079421937188,-0.011788836135888417,
-0.00046993849809314218,-0.012333205579988992,
-0.00012043180045483956,-0.013019151096518338,
-0.0000000000000000008437248500744725,-0.013779527559055118,
-0.00012043180045483964,-0.014539904021591898,
-0.0004699384980931418,-0.015225849538121243,
-0.0010143079421937183,-0.01577021898222182,
-0.0017002534587230633,-0.016119725679860121,
-0.0024606299212598434,-0.01624015748031496,
-0.0032210063837966236,-0.016119725679860121,
-0.0039069519003259679,-0.01577021898222182,
-0.0044513213444265448,-0.015225849538121243,
-0.0048008280420648482,-0.014539904021591898,
0*
4,1,3,
0.0049212598425196841,-0.013779527559055118,
-0.0000000000000000008437248500744725,-0.013779527559055118,
0.0000000000000000008437248500744725,0.013779527559055118,
0.0049212598425196867,0.013779527559055118,
0*
4,1,3,
0.0024606299212598438,0.01624015748031496,
0.0024606299212598434,0.011318897637795275,
-0.0024606299212598421,0.011318897637795275,
-0.0024606299212598412,0.01624015748031496,
0*
4,1,3,
-0.0049212598425196841,0.013779527559055118,
0.0000000000000000008437248500744725,0.013779527559055118,
-0.0000000000000000008437248500744725,-0.013779527559055118,
-0.0049212598425196867,-0.013779527559055118,
0*
4,1,3,
-0.0024606299212598438,-0.01624015748031496,
-0.0024606299212598434,-0.011318897637795275,
0.0024606299212598421,-0.011318897637795275,
0.0024606299212598412,-0.01624015748031496,
0*%
%AMCOMP31*
4,1,3,
0.013779527559055118,-0.0024606299212598438,
0.013779527559055118,0.0024606299212598421,
-0.013779527559055118,0.0024606299212598438,
-0.013779527559055118,-0.0024606299212598421,
0*
4,1,19,
0.011318897637795275,-0.0024606299212598434,
0.011439329438250113,-0.0017002534587230633,
0.011788836135888417,-0.0010143079421937183,
0.012333205579988992,-0.00046993849809314191,
0.013019151096518338,-0.00012043180045483956,
0.013779527559055118,-0.0000000000000000008437248500744725,
0.014539904021591898,-0.00012043180045483937,
0.015225849538121243,-0.00046993849809314208,
0.01577021898222182,-0.0010143079421937183,
0.016119725679860121,-0.0017002534587230635,
0.01624015748031496,-0.0024606299212598434,
0.016119725679860121,-0.0032210063837966245,
0.01577021898222182,-0.0039069519003259679,
0.015225849538121243,-0.0044513213444265448,
0.014539904021591898,-0.0048008280420648482,
0.013779527559055118,-0.0049212598425196867,
0.013019151096518338,-0.0048008280420648473,
0.012333205579988992,-0.0044513213444265448,
0.011788836135888417,-0.0039069519003259688,
0.011439329438250113,-0.003221006383796624,
0*
4,1,19,
0.011318897637795275,0.0024606299212598421,
0.011439329438250113,0.0032210063837966223,
0.011788836135888417,0.0039069519003259671,
0.012333205579988992,0.004451321344426544,
0.013019151096518338,0.0048008280420648464,
0.013779527559055118,0.0049212598425196841,
0.014539904021591898,0.0048008280420648456,
0.015225849538121243,0.0044513213444265431,
0.01577021898222182,0.0039069519003259671,
0.016119725679860121,0.0032210063837966219,
0.01624015748031496,0.0024606299212598421,
0.016119725679860121,0.0017002534587230609,
0.01577021898222182,0.001014307942193717,
0.015225849538121243,0.00046993849809314045,
0.014539904021591898,0.00012043180045483787,
0.013779527559055118,-0.0000000000000000008437248500744725,
0.013019151096518338,0.00012043180045483768,
0.012333205579988992,0.00046993849809314012,
0.011788836135888417,0.0010143079421937166,
0.011439329438250113,0.0017002534587230611,
0*
4,1,19,
-0.01624015748031496,0.0024606299212598438,
-0.016119725679860121,0.003221006383796624,
-0.01577021898222182,0.0039069519003259688,
-0.015225849538121243,0.0044513213444265448,
-0.014539904021591898,0.0048008280420648482,
-0.013779527559055118,0.0049212598425196867,
-0.013019151096518338,0.0048008280420648473,
-0.012333205579988992,0.0044513213444265448,
-0.011788836135888417,0.0039069519003259688,
-0.011439329438250113,0.0032210063837966236,
-0.011318897637795275,0.0024606299212598438,
-0.011439329438250113,0.0017002534587230627,
-0.011788836135888417,0.0010143079421937188,
-0.012333205579988992,0.00046993849809314218,
-0.013019151096518338,0.00012043180045483956,
-0.013779527559055118,0.0000000000000000008437248500744725,
-0.014539904021591898,0.00012043180045483937,
-0.015225849538121243,0.0004699384980931418,
-0.01577021898222182,0.0010143079421937181,
-0.016119725679860121,0.0017002534587230631,
0*
4,1,19,
-0.01624015748031496,-0.0024606299212598416,
-0.016119725679860121,-0.0017002534587230614,
-0.01577021898222182,-0.0010143079421937168,
-0.015225849538121243,-0.00046993849809314018,
-0.014539904021591898,-0.00012043180045483787,
-0.013779527559055118,0.0000000000000000008437248500744725,
-0.013019151096518338,-0.00012043180045483768,
-0.012333205579988992,-0.00046993849809314039,
-0.011788836135888417,-0.0010143079421937168,
-0.011439329438250113,-0.0017002534587230616,
-0.011318897637795275,-0.0024606299212598416,
-0.011439329438250113,-0.0032210063837966227,
-0.011788836135888417,-0.0039069519003259662,
-0.012333205579988992,-0.004451321344426544,
-0.013019151096518338,-0.0048008280420648464,
-0.013779527559055118,-0.0049212598425196841,
-0.014539904021591898,-0.0048008280420648456,
-0.015225849538121243,-0.0044513213444265431,
-0.01577021898222182,-0.0039069519003259671,
-0.016119725679860121,-0.0032210063837966223,
0*
4,1,3,
0.01624015748031496,-0.0024606299212598438,
0.011318897637795275,-0.0024606299212598434,
0.011318897637795275,0.0024606299212598421,
0.01624015748031496,0.0024606299212598412,
0*
4,1,3,
0.013779527559055118,0.0049212598425196841,
0.013779527559055118,-0.0000000000000000008437248500744725,
-0.013779527559055118,0.0000000000000000008437248500744725,
-0.013779527559055118,0.0049212598425196867,
0*
4,1,3,
-0.01624015748031496,0.0024606299212598438,
-0.011318897637795275,0.0024606299212598434,
-0.011318897637795275,-0.0024606299212598421,
-0.01624015748031496,-0.0024606299212598412,
0*
4,1,3,
-0.013779527559055118,-0.0049212598425196841,
-0.013779527559055118,0.0000000000000000008437248500744725,
0.013779527559055118,-0.0000000000000000008437248500744725,
0.013779527559055118,-0.0049212598425196867,
0*%
%AMCOMP32*
4,1,3,
-0.020177165354330708,-0.0059055118110236211,
0.020177165354330708,-0.0059055118110236228,
0.020177165354330708,0.0059055118110236211,
-0.020177165354330708,0.0059055118110236228,
0*
4,1,19,
-0.026082677165354333,-0.0059055118110236211,
-0.025793640844262715,-0.0040806083009353481,
-0.024954824769930793,-0.0024343390612649209,
-0.023648338104089405,-0.0011278523954235374,
-0.02200206886441898,-0.00028903632109161212,
-0.020177165354330708,0.0000000000000000012354542447519063,
-0.018352261844242438,-0.00028903632109161126,
-0.01670599260457201,-0.001127852395423538,
-0.015399505938730625,-0.0024343390612649209,
-0.0145606898643987,-0.0040806083009353481,
-0.014271653543307086,-0.00590551181102362,
-0.0145606898643987,-0.0077304153211118949,
-0.015399505938730622,-0.00937668456078232,
-0.01670599260457201,-0.010683171226623704,
-0.018352261844242435,-0.011521987300955628,
-0.020177165354330708,-0.011811023622047242,
-0.02200206886441898,-0.011521987300955629,
-0.023648338104089405,-0.010683171226623704,
-0.02495482476993079,-0.0093766845607823213,
-0.025793640844262715,-0.0077304153211118949,
0*
4,1,19,
0.014271653543307086,-0.0059055118110236228,
0.0145606898643987,-0.0040806083009353507,
0.015399505938730625,-0.002434339061264923,
0.01670599260457201,-0.00112785239542354,
0.018352261844242438,-0.00028903632109161456,
0.020177165354330708,-0.0000000000000000012354542447519063,
0.02200206886441898,-0.00028903632109161369,
0.023648338104089405,-0.0011278523954235404,
0.02495482476993079,-0.0024343390612649235,
0.025793640844262715,-0.0040806083009353507,
0.026082677165354333,-0.005905511811023622,
0.025793640844262715,-0.0077304153211118967,
0.024954824769930793,-0.0093766845607823213,
0.023648338104089409,-0.010683171226623706,
0.02200206886441898,-0.011521987300955631,
0.020177165354330708,-0.011811023622047246,
0.018352261844242438,-0.011521987300955635,
0.01670599260457201,-0.010683171226623706,
0.015399505938730625,-0.0093766845607823248,
0.0145606898643987,-0.0077304153211118967,
0*
4,1,19,
0.014271653543307086,0.0059055118110236211,
0.0145606898643987,0.007730415321111894,
0.015399505938730625,0.0093766845607823213,
0.01670599260457201,0.010683171226623704,
0.018352261844242438,0.011521987300955628,
0.020177165354330708,0.011811023622047242,
0.02200206886441898,0.011521987300955629,
0.023648338104089405,0.010683171226623702,
0.02495482476993079,0.0093766845607823213,
0.025793640844262715,0.007730415321111894,
0.026082677165354333,0.005905511811023622,
0.025793640844262715,0.0040806083009353464,
0.024954824769930793,0.0024343390612649213,
0.023648338104089409,0.001127852395423538,
0.02200206886441898,0.00028903632109161212,
0.020177165354330708,-0.0000000000000000012354542447519063,
0.018352261844242438,0.00028903632109161126,
0.01670599260457201,0.0011278523954235369,
0.015399505938730625,0.0024343390612649204,
0.0145606898643987,0.0040806083009353473,
0*
4,1,19,
-0.026082677165354333,0.0059055118110236228,
-0.025793640844262715,0.0077304153211118958,
-0.024954824769930793,0.0093766845607823231,
-0.023648338104089405,0.010683171226623706,
-0.02200206886441898,0.011521987300955631,
-0.020177165354330708,0.011811023622047246,
-0.018352261844242438,0.011521987300955635,
-0.01670599260457201,0.010683171226623704,
-0.015399505938730625,0.0093766845607823248,
-0.0145606898643987,0.0077304153211118958,
-0.014271653543307086,0.0059055118110236246,
-0.0145606898643987,0.00408060830093535,
-0.015399505938730622,0.0024343390612649239,
-0.01670599260457201,0.0011278523954235404,
-0.018352261844242435,0.00028903632109161456,
-0.020177165354330708,0.0000000000000000012354542447519063,
-0.02200206886441898,0.00028903632109161369,
-0.023648338104089405,0.0011278523954235393,
-0.02495482476993079,0.002434339061264923,
-0.025793640844262715,0.00408060830093535,
0*
4,1,3,
-0.020177165354330708,-0.011811023622047242,
-0.020177165354330708,0.0000000000000000012354542447519063,
0.020177165354330708,-0.0000000000000000012354542447519063,
0.020177165354330708,-0.011811023622047246,
0*
4,1,3,
0.026082677165354333,-0.0059055118110236228,
0.014271653543307086,-0.0059055118110236228,
0.014271653543307086,0.0059055118110236211,
0.026082677165354333,0.0059055118110236211,
0*
4,1,3,
0.020177165354330708,0.011811023622047242,
0.020177165354330708,-0.0000000000000000012354542447519063,
-0.020177165354330708,0.0000000000000000012354542447519063,
-0.020177165354330708,0.011811023622047246,
0*
4,1,3,
-0.026082677165354333,0.0059055118110236228,
-0.014271653543307086,0.0059055118110236228,
-0.014271653543307086,-0.0059055118110236211,
-0.026082677165354333,-0.0059055118110236211,
0*%
%AMRoundRect0*
4,1,4,
-0.078740157480314946,-0.11811023622047247,
-0.15748031496062992,-0.19685039370078744,
-0.23622047244094485,-0.27559055118110243,
-0.31496062992125984,-0.35433070866141742,
-0.078740157480314946,-0.11811023622047247,
0*
1,1,$1,$2,$3*
1,1,$1,$2,$3*
1,1,$1,$2,$3*
1,1,$1,$2,$3*
20,1,$1,$2,$3,$4,$5,-180*
20,1,$1,$2,$3,$4,$5,-180*
20,1,$1,$2,$3,$4,$5,-180*
20,1,$1,$2,$3,$4,$5,-180*%
%AMCOMP570*
4,1,3,
0.018700787401574805,-0.0098425196850393682,
0.0187007874015748,0.0098425196850393734,
-0.018700787401574805,0.0098425196850393682,
-0.0187007874015748,-0.0098425196850393734,
0*
4,1,19,
0.018700787401574805,-0.01968503937007874,
0.015659281551427685,-0.019203312168259386,
0.012915499485310306,-0.017805285377706176,
0.010738021708907999,-0.015627807601303868,
0.0093399949183547888,-0.012884025535186489,
0.0088582677165354329,-0.00984251968503937,
0.0093399949183547871,-0.00680101383489225,
0.010738021708907997,-0.0040572317687748707,
0.012915499485310301,-0.001879753992372564,
0.015659281551427682,-0.0004817272018193531,
0.0187007874015748,0.0000000000000000022901103073449965,
0.021742293251721927,-0.00048172720181935234,
0.0244860753178393,-0.0018797539923725605,
0.026663553094241611,-0.0040572317687748664,
0.02806157988479482,-0.0068010138348922455,
0.028543307086614175,-0.0098425196850393647,
0.02806157988479482,-0.012884025535186484,
0.026663553094241611,-0.015627807601303865,
0.024486075317839306,-0.017805285377706176,
0.021742293251721927,-0.019203312168259386,
0*
4,1,19,
0.018700787401574805,0.0000000000000000022901103073449965,
0.015659281551427682,0.00048172720181935695,
0.012915499485310303,0.0018797539923725661,
0.010738021708907997,0.0040572317687748724,
0.0093399949183547871,0.0068010138348922507,
0.0088582677165354312,0.00984251968503937,
0.0093399949183547853,0.012884025535186494,
0.010738021708907995,0.015627807601303872,
0.0129154994853103,0.017805285377706179,
0.015659281551427682,0.019203312168259389,
0.018700787401574798,0.019685039370078747,
0.021742293251721924,0.019203312168259389,
0.0244860753178393,0.017805285377706179,
0.026663553094241611,0.015627807601303875,
0.02806157988479482,0.012884025535186496,
0.028543307086614175,0.0098425196850393769,
0.02806157988479482,0.006801013834892255,
0.026663553094241611,0.0040572317687748768,
0.024486075317839306,0.0018797539923725687,
0.021742293251721924,0.00048172720181935771,
0*
4,1,19,
-0.018700787401574805,-0.0000000000000000022901103073449965,
-0.021742293251721924,0.00048172720181935234,
-0.0244860753178393,0.0018797539923725616,
-0.026663553094241611,0.0040572317687748672,
-0.02806157988479482,0.0068010138348922463,
-0.028543307086614175,0.0098425196850393665,
-0.02806157988479482,0.012884025535186487,
-0.026663553094241611,0.015627807601303865,
-0.024486075317839306,0.017805285377706176,
-0.021742293251721927,0.019203312168259386,
-0.018700787401574808,0.01968503937007874,
-0.015659281551427682,0.019203312168259386,
-0.012915499485310308,0.017805285377706176,
-0.010738021708907999,0.015627807601303872,
-0.0093399949183547888,0.012884025535186489,
-0.0088582677165354329,0.0098425196850393734,
-0.0093399949183547871,0.0068010138348922507,
-0.010738021708907997,0.0040572317687748724,
-0.012915499485310301,0.001879753992372564,
-0.015659281551427682,0.0004817272018193531,
0*
4,1,19,
-0.0187007874015748,-0.019685039370078747,
-0.02174229325172192,-0.019203312168259389,
-0.0244860753178393,-0.017805285377706179,
-0.026663553094241611,-0.015627807601303872,
-0.02806157988479482,-0.012884025535186496,
-0.028543307086614175,-0.0098425196850393751,
-0.02806157988479482,-0.0068010138348922541,
-0.026663553094241611,-0.004057231768774875,
-0.024486075317839306,-0.0018797539923725687,
-0.021742293251721924,-0.00048172720181935771,
-0.018700787401574805,-0.0000000000000000022901103073449973,
-0.015659281551427682,-0.00048172720181935695,
-0.012915499485310306,-0.001879753992372565,
-0.010738021708907997,-0.0040572317687748707,
-0.0093399949183547871,-0.00680101383489225,
-0.0088582677165354312,-0.00984251968503937,
-0.0093399949183547853,-0.012884025535186491,
-0.010738021708907995,-0.015627807601303872,
-0.0129154994853103,-0.017805285377706179,
-0.015659281551427678,-0.019203312168259389,
0*
4,1,3,
0.028543307086614175,-0.0098425196850393682,
0.0088582677165354329,-0.0098425196850393682,
0.0088582677165354312,0.00984251968503937,
0.028543307086614175,0.0098425196850393734,
0*
4,1,3,
0.0187007874015748,0.019685039370078747,
0.018700787401574805,0.0000000000000000022901103073449965,
-0.018700787401574805,-0.0000000000000000022901103073449965,
-0.018700787401574805,0.01968503937007874,
0*
4,1,3,
-0.028543307086614175,0.0098425196850393682,
-0.0088582677165354329,0.0098425196850393682,
-0.0088582677165354312,-0.00984251968503937,
-0.028543307086614175,-0.0098425196850393734,
0*
4,1,3,
-0.0187007874015748,-0.019685039370078747,
-0.018700787401574805,-0.0000000000000000022901103073449965,
0.018700787401574805,0.0000000000000000022901103073449965,
0.018700787401574805,-0.01968503937007874,
0*%
%AMREC580*
4,1,3,
0.029527559055118106,0.019685039370078747,
-0.029527559055118117,0.019685039370078736,
-0.029527559055118106,-0.019685039370078747,
0.029527559055118117,-0.019685039370078736,
0*%
%AMRoundRect1*
4,1,4,
0.07874015748031496,0.11811023622047245,
0.15748031496062992,0.19685039370078741,
0.23622047244094491,0.27559055118110237,
0.31496062992125984,0.35433070866141736,
0.07874015748031496,0.11811023622047245,
0*
1,1,$1,$2,$3*
1,1,$1,$2,$3*
1,1,$1,$2,$3*
1,1,$1,$2,$3*
20,1,$1,$2,$3,$4,$5,0*
20,1,$1,$2,$3,$4,$5,0*
20,1,$1,$2,$3,$4,$5,0*
20,1,$1,$2,$3,$4,$5,0*%
%AMCOMP650*
4,1,3,
-0.018700787401574805,0.00984251968503937,
-0.018700787401574805,-0.00984251968503937,
0.018700787401574805,-0.00984251968503937,
0.018700787401574805,0.00984251968503937,
0*
4,1,19,
-0.018700787401574805,0.01968503937007874,
-0.015659281551427682,0.019203312168259386,
-0.012915499485310303,0.017805285377706176,
-0.010738021708907997,0.015627807601303872,
-0.0093399949183547871,0.012884025535186491,
-0.0088582677165354329,0.00984251968503937,
-0.0093399949183547871,0.0068010138348922507,
-0.010738021708907997,0.0040572317687748724,
-0.012915499485310301,0.0018797539923725657,
-0.015659281551427682,0.00048172720181935506,
-0.0187007874015748,0,
-0.021742293251721927,0.00048172720181935506,
-0.0244860753178393,0.0018797539923725635,
-0.026663553094241611,0.00405723176877487,
-0.02806157988479482,0.0068010138348922489,
-0.028543307086614175,0.0098425196850393682,
-0.02806157988479482,0.012884025535186489,
-0.026663553094241611,0.015627807601303868,
-0.024486075317839306,0.017805285377706176,
-0.021742293251721924,0.019203312168259386,
0*
4,1,19,
-0.018700787401574805,0,
-0.015659281551427682,-0.00048172720181935506,
-0.012915499485310303,-0.0018797539923725646,
-0.010738021708907997,-0.0040572317687748707,
-0.0093399949183547871,-0.00680101383489225,
-0.0088582677165354329,-0.00984251968503937,
-0.0093399949183547871,-0.012884025535186491,
-0.010738021708907997,-0.015627807601303868,
-0.012915499485310301,-0.017805285377706176,
-0.015659281551427682,-0.019203312168259386,
-0.0187007874015748,-0.01968503937007874,
-0.021742293251721927,-0.019203312168259386,
-0.0244860753178393,-0.017805285377706176,
-0.026663553094241611,-0.015627807601303872,
-0.02806157988479482,-0.012884025535186491,
-0.028543307086614175,-0.0098425196850393734,
-0.02806157988479482,-0.0068010138348922524,
-0.026663553094241611,-0.0040572317687748733,
-0.024486075317839306,-0.0018797539923725657,
-0.021742293251721924,-0.00048172720181935506,
0*
4,1,19,
0.018700787401574805,0,
0.021742293251721924,-0.00048172720181935506,
0.0244860753178393,-0.0018797539923725646,
0.026663553094241611,-0.0040572317687748707,
0.02806157988479482,-0.00680101383489225,
0.028543307086614175,-0.00984251968503937,
0.02806157988479482,-0.012884025535186491,
0.026663553094241611,-0.015627807601303868,
0.024486075317839306,-0.017805285377706176,
0.021742293251721924,-0.019203312168259386,
0.018700787401574805,-0.01968503937007874,
0.015659281551427682,-0.019203312168259386,
0.012915499485310306,-0.017805285377706176,
0.010738021708907997,-0.015627807601303872,
0.0093399949183547871,-0.012884025535186491,
0.0088582677165354329,-0.0098425196850393734,
0.0093399949183547871,-0.0068010138348922524,
0.010738021708907997,-0.0040572317687748733,
0.012915499485310301,-0.0018797539923725657,
0.015659281551427682,-0.00048172720181935506,
0*
4,1,19,
0.018700787401574805,0.01968503937007874,
0.021742293251721924,0.019203312168259386,
0.0244860753178393,0.017805285377706176,
0.026663553094241611,0.015627807601303872,
0.02806157988479482,0.012884025535186491,
0.028543307086614175,0.00984251968503937,
0.02806157988479482,0.0068010138348922507,
0.026663553094241611,0.0040572317687748724,
0.024486075317839306,0.0018797539923725657,
0.021742293251721924,0.00048172720181935506,
0.018700787401574805,0,
0.015659281551427682,0.00048172720181935506,
0.012915499485310306,0.0018797539923725635,
0.010738021708907997,0.00405723176877487,
0.0093399949183547871,0.0068010138348922489,
0.0088582677165354329,0.0098425196850393682,
0.0093399949183547871,0.012884025535186489,
0.010738021708907997,0.015627807601303868,
0.012915499485310301,0.017805285377706176,
0.015659281551427682,0.019203312168259386,
0*
4,1,3,
-0.028543307086614175,0.00984251968503937,
-0.0088582677165354329,0.00984251968503937,
-0.0088582677165354329,-0.00984251968503937,
-0.028543307086614175,-0.00984251968503937,
0*
4,1,3,
-0.018700787401574805,-0.01968503937007874,
-0.018700787401574805,0,
0.018700787401574805,0,
0.018700787401574805,-0.01968503937007874,
0*
4,1,3,
0.028543307086614175,-0.00984251968503937,
0.0088582677165354329,-0.00984251968503937,
0.0088582677165354329,0.00984251968503937,
0.028543307086614175,0.00984251968503937,
0*
4,1,3,
0.018700787401574805,0.01968503937007874,
0.018700787401574805,0,
-0.018700787401574805,0,
-0.018700787401574805,0.01968503937007874,
0*%
%ADD10C,0.005905511811023622*%
%AMCOMP72*
4,1,3,
-0.0098425196850393734,-0.018700787401574805,
0.00984251968503937,-0.018700787401574805,
0.0098425196850393734,0.018700787401574805,
-0.00984251968503937,0.018700787401574805,
0*
4,1,19,
-0.01968503937007874,-0.0187007874015748,
-0.019203312168259386,-0.015659281551427682,
-0.017805285377706176,-0.012915499485310303,
-0.015627807601303872,-0.010738021708907997,
-0.012884025535186491,-0.0093399949183547871,
-0.00984251968503937,-0.0088582677165354312,
-0.0068010138348922524,-0.0093399949183547871,
-0.0040572317687748724,-0.010738021708907997,
-0.0018797539923725666,-0.012915499485310301,
-0.000481727201819356,-0.015659281551427682,
-0.0000000000000000011450551536724983,-0.0187007874015748,
-0.00048172720181935636,-0.021742293251721927,
-0.0018797539923725648,-0.0244860753178393,
-0.0040572317687748716,-0.026663553094241611,
-0.0068010138348922507,-0.02806157988479482,
-0.00984251968503937,-0.028543307086614175,
-0.012884025535186491,-0.02806157988479482,
-0.015627807601303872,-0.026663553094241611,
-0.017805285377706179,-0.024486075317839306,
-0.019203312168259389,-0.021742293251721924,
0*
4,1,19,
-0.0000000000000000011450551536724983,-0.018700787401574805,
0.00048172720181935408,-0.015659281551427682,
0.0018797539923725637,-0.012915499485310303,
0.0040572317687748707,-0.010738021708907997,
0.0068010138348922489,-0.0093399949183547871,
0.00984251968503937,-0.0088582677165354329,
0.012884025535186491,-0.0093399949183547871,
0.015627807601303868,-0.010738021708907997,
0.017805285377706176,-0.012915499485310301,
0.019203312168259386,-0.015659281551427685,
0.01968503937007874,-0.018700787401574805,
0.019203312168259386,-0.021742293251721927,
0.017805285377706176,-0.0244860753178393,
0.015627807601303872,-0.026663553094241611,
0.012884025535186489,-0.02806157988479482,
0.00984251968503937,-0.028543307086614175,
0.00680101383489225,-0.02806157988479482,
0.0040572317687748716,-0.026663553094241611,
0.0018797539923725642,-0.024486075317839306,
0.00048172720181935375,-0.021742293251721924,
0*
4,1,19,
0.0000000000000000011450551536724983,0.018700787401574805,
0.00048172720181935636,0.021742293251721924,
0.0018797539923725659,0.0244860753178393,
0.0040572317687748724,0.026663553094241611,
0.0068010138348922524,0.02806157988479482,
0.00984251968503937,0.028543307086614175,
0.012884025535186494,0.02806157988479482,
0.015627807601303872,0.026663553094241611,
0.017805285377706179,0.024486075317839306,
0.019203312168259389,0.021742293251721924,
0.01968503937007874,0.018700787401574805,
0.019203312168259386,0.015659281551427678,
0.017805285377706176,0.012915499485310306,
0.015627807601303872,0.010738021708907997,
0.012884025535186491,0.0093399949183547871,
0.0098425196850393734,0.0088582677165354312,
0.0068010138348922533,0.0093399949183547871,
0.0040572317687748733,0.010738021708907997,
0.0018797539923725666,0.012915499485310301,
0.000481727201819356,0.015659281551427682,
0*
4,1,19,
-0.01968503937007874,0.018700787401574805,
-0.019203312168259386,0.021742293251721924,
-0.017805285377706176,0.0244860753178393,
-0.015627807601303868,0.026663553094241611,
-0.012884025535186489,0.02806157988479482,
-0.0098425196850393682,0.028543307086614175,
-0.0068010138348922489,0.02806157988479482,
-0.0040572317687748707,0.026663553094241611,
-0.0018797539923725642,0.024486075317839306,
-0.00048172720181935375,0.021742293251721924,
0.0000000000000000011450551536724986,0.018700787401574805,
-0.00048172720181935408,0.015659281551427682,
-0.0018797539923725627,0.012915499485310306,
-0.004057231768774869,0.010738021708907997,
-0.0068010138348922481,0.0093399949183547871,
-0.0098425196850393682,0.0088582677165354329,
-0.012884025535186489,0.0093399949183547871,
-0.015627807601303868,0.010738021708907997,
-0.017805285377706176,0.012915499485310301,
-0.019203312168259386,0.015659281551427682,
0*
4,1,3,
-0.0098425196850393734,-0.028543307086614175,
-0.00984251968503937,-0.0088582677165354312,
0.00984251968503937,-0.0088582677165354329,
0.0098425196850393682,-0.028543307086614175,
0*
4,1,3,
0.01968503937007874,-0.018700787401574805,
-0.0000000000000000011450551536724983,-0.018700787401574805,
0.0000000000000000011450551536724983,0.018700787401574805,
0.01968503937007874,0.0187007874015748,
0*
4,1,3,
0.0098425196850393734,0.028543307086614175,
0.00984251968503937,0.0088582677165354312,
-0.00984251968503937,0.0088582677165354329,
-0.0098425196850393682,0.028543307086614175,
0*
4,1,3,
-0.01968503937007874,0.018700787401574805,
0.0000000000000000011450551536724983,0.018700787401574805,
-0.0000000000000000011450551536724983,-0.018700787401574805,
-0.01968503937007874,-0.0187007874015748,
0*%
%ADD11COMP72,0.25X-0.475X0.25X-0.475X-0.25X0.475X-0.25X0.475X0.25X0*%
%AMCOMP78*
4,1,3,
-0.013779527559055118,-0.017716535433070866,
0.013779527559055118,-0.017716535433070866,
0.013779527559055118,0.017716535433070866,
-0.013779527559055118,0.017716535433070866,
0*
4,1,19,
-0.023622047244094488,-0.017716535433070866,
-0.023140320042275134,-0.014675029582923745,
-0.021742293251721924,-0.011931247516806366,
-0.019564815475319616,-0.00975376974040406,
-0.016821033409202237,-0.00835574294985085,
-0.013779527559055118,-0.007874015748031496,
-0.010738021708907997,-0.00835574294985085,
-0.0079942396427906213,-0.0097537697404040617,
-0.0058167618663883145,-0.011931247516806368,
-0.0044187350758351038,-0.014675029582923747,
-0.0039370078740157488,-0.017716535433070866,
-0.0044187350758351038,-0.020758041283217992,
-0.0058167618663883119,-0.023501823349335368,
-0.0079942396427906178,-0.025679301125737672,
-0.010738021708907999,-0.027077327916290882,
-0.013779527559055118,-0.027559055118110236,
-0.016821033409202237,-0.027077327916290882,
-0.019564815475319616,-0.025679301125737675,
-0.021742293251721924,-0.023501823349335368,
-0.023140320042275134,-0.020758041283217992,
0*
4,1,19,
0.0039370078740157462,-0.017716535433070866,
0.0044187350758351012,-0.014675029582923747,
0.0058167618663883111,-0.011931247516806368,
0.0079942396427906178,-0.0097537697404040617,
0.010738021708907997,-0.0083557429498508536,
0.013779527559055118,-0.0078740157480314977,
0.016821033409202237,-0.0083557429498508518,
0.019564815475319616,-0.0097537697404040634,
0.021742293251721924,-0.011931247516806369,
0.023140320042275134,-0.014675029582923748,
0.023622047244094488,-0.017716535433070866,
0.023140320042275134,-0.020758041283217992,
0.021742293251721924,-0.023501823349335368,
0.019564815475319616,-0.025679301125737672,
0.016821033409202237,-0.027077327916290882,
0.013779527559055118,-0.027559055118110236,
0.010738021708907997,-0.027077327916290882,
0.00799423964279062,-0.025679301125737675,
0.0058167618663883119,-0.023501823349335368,
0.0044187350758351012,-0.020758041283217992,
0*
4,1,19,
0.0039370078740157488,0.017716535433070866,
0.0044187350758351038,0.020758041283217985,
0.0058167618663883128,0.023501823349335368,
0.00799423964279062,0.025679301125737672,
0.010738021708907999,0.027077327916290882,
0.01377952755905512,0.027559055118110236,
0.016821033409202241,0.027077327916290882,
0.019564815475319616,0.025679301125737672,
0.021742293251721924,0.023501823349335368,
0.023140320042275134,0.020758041283217992,
0.023622047244094488,0.017716535433070866,
0.023140320042275134,0.014675029582923743,
0.021742293251721924,0.011931247516806366,
0.01956481547531962,0.0097537697404040617,
0.016821033409202237,0.00835574294985085,
0.01377952755905512,0.007874015748031496,
0.010738021708907999,0.00835574294985085,
0.0079942396427906213,0.00975376974040406,
0.0058167618663883145,0.011931247516806366,
0.0044187350758351038,0.014675029582923745,
0*
4,1,19,
-0.023622047244094488,0.017716535433070869,
-0.023140320042275134,0.020758041283217985,
-0.021742293251721924,0.023501823349335368,
-0.019564815475319616,0.025679301125737672,
-0.016821033409202237,0.027077327916290882,
-0.013779527559055116,0.027559055118110236,
-0.010738021708907995,0.027077327916290882,
-0.0079942396427906178,0.025679301125737672,
-0.0058167618663883119,0.023501823349335368,
-0.0044187350758351012,0.020758041283217992,
-0.0039370078740157462,0.017716535433070869,
-0.0044187350758351012,0.014675029582923745,
-0.0058167618663883093,0.011931247516806368,
-0.0079942396427906161,0.0097537697404040634,
-0.010738021708907997,0.0083557429498508536,
-0.013779527559055116,0.0078740157480314977,
-0.016821033409202237,0.0083557429498508518,
-0.019564815475319616,0.0097537697404040617,
-0.021742293251721924,0.011931247516806368,
-0.023140320042275134,0.014675029582923747,
0*
4,1,3,
-0.01377952755905512,-0.027559055118110236,
-0.013779527559055118,-0.007874015748031496,
0.013779527559055118,-0.0078740157480314977,
0.013779527559055116,-0.027559055118110236,
0*
4,1,3,
0.023622047244094488,-0.017716535433070869,
0.0039370078740157462,-0.017716535433070866,
0.0039370078740157488,0.017716535433070866,
0.023622047244094488,0.017716535433070866,
0*
4,1,3,
0.01377952755905512,0.027559055118110236,
0.013779527559055118,0.007874015748031496,
-0.013779527559055118,0.0078740157480314977,
-0.013779527559055116,0.027559055118110236,
0*
4,1,3,
-0.023622047244094488,0.017716535433070869,
-0.0039370078740157462,0.017716535433070866,
-0.0039370078740157488,-0.017716535433070866,
-0.023622047244094488,-0.017716535433070866,
0*%
%ADD12COMP78,0.25X-0.45X0.35X-0.45X-0.35X0.45X-0.35X0.45X0.35X0*%
%ADD13C,0.12598425196850396*%
%AMCOMP82*
4,1,3,
-0.01796259842519685,0.0095964566929133879,
-0.01796259842519685,-0.0095964566929133844,
0.01796259842519685,-0.0095964566929133879,
0.01796259842519685,0.0095964566929133844,
0*
4,1,19,
-0.027559055118110236,0.0095964566929133879,
-0.027089371096336367,0.012561924896806831,
-0.025726294975546987,0.015237112411271275,
-0.023603254143554738,0.017360153243263524,
-0.020928066629090292,0.018723229364052903,
-0.01796259842519685,0.019192913385826776,
-0.014997130221303409,0.018723229364052903,
-0.012321942706838965,0.01736015324326352,
-0.010198901874846717,0.015237112411271273,
-0.0088358257540573342,0.012561924896806831,
-0.0083661417322834636,0.0095964566929133879,
-0.0088358257540573359,0.0066309884890199408,
-0.010198901874846714,0.0039558009745555012,
-0.012321942706838963,0.0018327601425632526,
-0.014997130221303409,0.00046968402177387209,
-0.01796259842519685,0.0000000000000000010998556081327944,
-0.020928066629090292,0.00046968402177387139,
-0.023603254143554735,0.001832760142563251,
-0.025726294975546984,0.0039558009745554986,
-0.027089371096336367,0.0066309884890199443,
0*
4,1,19,
-0.027559055118110236,-0.0095964566929133844,
-0.027089371096336367,-0.0066309884890199417,
-0.025726294975546987,-0.0039558009745554977,
-0.023603254143554738,-0.0018327601425632493,
-0.020928066629090292,-0.00046968402177386987,
-0.01796259842519685,0.0000000000000000010998556081327946,
-0.014997130221303411,-0.00046968402177386922,
-0.012321942706838965,-0.00183276014256325,
-0.010198901874846717,-0.0039558009745554977,
-0.0088358257540573359,-0.0066309884890199434,
-0.0083661417322834653,-0.0095964566929133844,
-0.0088358257540573377,-0.012561924896806831,
-0.010198901874846714,-0.015237112411271273,
-0.012321942706838963,-0.01736015324326352,
-0.014997130221303411,-0.0187232293640529,
-0.01796259842519685,-0.019192913385826769,
-0.020928066629090292,-0.0187232293640529,
-0.023603254143554735,-0.01736015324326352,
-0.025726294975546984,-0.015237112411271273,
-0.027089371096336367,-0.012561924896806829,
0*
4,1,19,
0.0083661417322834636,-0.0095964566929133861,
0.0088358257540573359,-0.0066309884890199443,
0.010198901874846714,-0.0039558009745554994,
0.012321942706838963,-0.0018327601425632515,
0.014997130221303409,-0.00046968402177387209,
0.01796259842519685,-0.0000000000000000010998556081327946,
0.020928066629090292,-0.00046968402177387139,
0.023603254143554735,-0.0018327601425632521,
0.025726294975546984,-0.0039558009745554994,
0.027089371096336367,-0.0066309884890199452,
0.027559055118110236,-0.0095964566929133879,
0.027089371096336367,-0.012561924896806832,
0.025726294975546987,-0.015237112411271275,
0.023603254143554738,-0.017360153243263524,
0.020928066629090296,-0.018723229364052903,
0.01796259842519685,-0.019192913385826776,
0.014997130221303409,-0.018723229364052903,
0.012321942706838966,-0.01736015324326352,
0.010198901874846717,-0.015237112411271275,
0.0088358257540573342,-0.012561924896806831,
0*
4,1,19,
0.0083661417322834653,0.0095964566929133861,
0.0088358257540573377,0.012561924896806829,
0.010198901874846714,0.015237112411271273,
0.012321942706838963,0.01736015324326352,
0.014997130221303411,0.0187232293640529,
0.017962598425196853,0.019192913385826769,
0.020928066629090292,0.0187232293640529,
0.023603254143554735,0.01736015324326352,
0.025726294975546984,0.015237112411271271,
0.027089371096336367,0.012561924896806829,
0.027559055118110236,0.0095964566929133844,
0.027089371096336367,0.0066309884890199391,
0.025726294975546987,0.0039558009745554986,
0.023603254143554738,0.0018327601425632504,
0.020928066629090296,0.00046968402177386987,
0.017962598425196853,-0.0000000000000000010998556081327946,
0.014997130221303411,0.00046968402177386922,
0.012321942706838966,0.0018327601425632487,
0.010198901874846717,0.0039558009745554968,
0.0088358257540573359,0.0066309884890199417,
0*
4,1,3,
-0.027559055118110236,0.00959645669291339,
-0.0083661417322834636,0.0095964566929133844,
-0.0083661417322834653,-0.0095964566929133879,
-0.027559055118110236,-0.0095964566929133827,
0*
4,1,3,
-0.017962598425196853,-0.019192913385826769,
-0.01796259842519685,0.0000000000000000010998556081327946,
0.01796259842519685,-0.0000000000000000010998556081327946,
0.01796259842519685,-0.019192913385826776,
0*
4,1,3,
0.027559055118110236,-0.00959645669291339,
0.0083661417322834636,-0.0095964566929133844,
0.0083661417322834653,0.0095964566929133879,
0.027559055118110236,0.0095964566929133827,
0*
4,1,3,
0.017962598425196853,0.019192913385826769,
0.01796259842519685,-0.0000000000000000010998556081327946,
-0.01796259842519685,0.0000000000000000010998556081327946,
-0.01796259842519685,0.019192913385826776,
0*%
%ADD14COMP82,0.24375X0.24375X0.45625X-0.24375X0.45625X-0.24375X-0.45625X0.24375X-0.45625X0*%
%AMCOMP85*
4,1,3,
0.0098425196850393734,0.018700787401574805,
-0.00984251968503937,0.018700787401574805,
-0.0098425196850393734,-0.018700787401574805,
0.00984251968503937,-0.018700787401574805,
0*
4,1,19,
0.0000000000000000011450551536724983,0.018700787401574805,
0.00048172720181935636,0.021742293251721924,
0.0018797539923725659,0.0244860753178393,
0.0040572317687748724,0.026663553094241611,
0.0068010138348922524,0.02806157988479482,
0.00984251968503937,0.028543307086614175,
0.012884025535186494,0.02806157988479482,
0.015627807601303872,0.026663553094241611,
0.017805285377706179,0.024486075317839306,
0.019203312168259389,0.021742293251721924,
0.01968503937007874,0.018700787401574805,
0.019203312168259386,0.015659281551427678,
0.017805285377706176,0.012915499485310306,
0.015627807601303872,0.010738021708907997,
0.012884025535186491,0.0093399949183547871,
0.0098425196850393734,0.0088582677165354312,
0.0068010138348922533,0.0093399949183547871,
0.0040572317687748733,0.010738021708907997,
0.0018797539923725666,0.012915499485310301,
0.000481727201819356,0.015659281551427682,
0*
4,1,19,
-0.01968503937007874,0.018700787401574805,
-0.019203312168259386,0.021742293251721924,
-0.017805285377706176,0.0244860753178393,
-0.015627807601303868,0.026663553094241611,
-0.012884025535186489,0.02806157988479482,
-0.0098425196850393682,0.028543307086614175,
-0.0068010138348922489,0.02806157988479482,
-0.0040572317687748707,0.026663553094241611,
-0.0018797539923725642,0.024486075317839306,
-0.00048172720181935375,0.021742293251721924,
0.0000000000000000011450551536724986,0.018700787401574805,
-0.00048172720181935408,0.015659281551427682,
-0.0018797539923725627,0.012915499485310306,
-0.004057231768774869,0.010738021708907997,
-0.0068010138348922481,0.0093399949183547871,
-0.0098425196850393682,0.0088582677165354329,
-0.012884025535186489,0.0093399949183547871,
-0.015627807601303868,0.010738021708907997,
-0.017805285377706176,0.012915499485310301,
-0.019203312168259386,0.015659281551427682,
0*
4,1,19,
-0.01968503937007874,-0.0187007874015748,
-0.019203312168259386,-0.015659281551427682,
-0.017805285377706176,-0.012915499485310303,
-0.015627807601303872,-0.010738021708907997,
-0.012884025535186491,-0.0093399949183547871,
-0.00984251968503937,-0.0088582677165354312,
-0.0068010138348922524,-0.0093399949183547871,
-0.0040572317687748724,-0.010738021708907997,
-0.0018797539923725666,-0.012915499485310301,
-0.000481727201819356,-0.015659281551427682,
-0.0000000000000000011450551536724983,-0.0187007874015748,
-0.00048172720181935636,-0.021742293251721927,
-0.0018797539923725648,-0.0244860753178393,
-0.0040572317687748716,-0.026663553094241611,
-0.0068010138348922507,-0.02806157988479482,
-0.00984251968503937,-0.028543307086614175,
-0.012884025535186491,-0.02806157988479482,
-0.015627807601303872,-0.026663553094241611,
-0.017805285377706179,-0.024486075317839306,
-0.019203312168259389,-0.021742293251721924,
0*
4,1,19,
-0.0000000000000000011450551536724983,-0.018700787401574805,
0.00048172720181935408,-0.015659281551427682,
0.0018797539923725637,-0.012915499485310303,
0.0040572317687748707,-0.010738021708907997,
0.0068010138348922489,-0.0093399949183547871,
0.00984251968503937,-0.0088582677165354329,
0.012884025535186491,-0.0093399949183547871,
0.015627807601303868,-0.010738021708907997,
0.017805285377706176,-0.012915499485310301,
0.019203312168259386,-0.015659281551427685,
0.01968503937007874,-0.018700787401574805,
0.019203312168259386,-0.021742293251721927,
0.017805285377706176,-0.0244860753178393,
0.015627807601303872,-0.026663553094241611,
0.012884025535186489,-0.02806157988479482,
0.00984251968503937,-0.028543307086614175,
0.00680101383489225,-0.02806157988479482,
0.0040572317687748716,-0.026663553094241611,
0.0018797539923725642,-0.024486075317839306,
0.00048172720181935375,-0.021742293251721924,
0*
4,1,3,
0.0098425196850393734,0.028543307086614175,
0.00984251968503937,0.0088582677165354312,
-0.00984251968503937,0.0088582677165354329,
-0.0098425196850393682,0.028543307086614175,
0*
4,1,3,
-0.01968503937007874,0.018700787401574805,
0.0000000000000000011450551536724983,0.018700787401574805,
-0.0000000000000000011450551536724983,-0.018700787401574805,
-0.01968503937007874,-0.0187007874015748,
0*
4,1,3,
-0.0098425196850393734,-0.028543307086614175,
-0.00984251968503937,-0.0088582677165354312,
0.00984251968503937,-0.0088582677165354329,
0.0098425196850393682,-0.028543307086614175,
0*
4,1,3,
0.01968503937007874,-0.018700787401574805,
-0.0000000000000000011450551536724983,-0.018700787401574805,
0.0000000000000000011450551536724983,0.018700787401574805,
0.01968503937007874,0.0187007874015748,
0*%
%ADD15COMP85,0.25X0.475X-0.25X0.475X0.25X-0.475X0.25X-0.475X-0.25X0*%
%AMCOMP88*
4,1,3,
-0.017716535433070866,0.013779527559055118,
-0.017716535433070866,-0.013779527559055118,
0.017716535433070866,-0.013779527559055118,
0.017716535433070866,0.013779527559055118,
0*
4,1,19,
-0.027559055118110236,0.01377952755905512,
-0.027077327916290882,0.016821033409202241,
-0.025679301125737672,0.01956481547531962,
-0.023501823349335368,0.021742293251721924,
-0.020758041283217985,0.023140320042275134,
-0.017716535433070866,0.023622047244094488,
-0.014675029582923747,0.023140320042275134,
-0.011931247516806366,0.021742293251721924,
-0.0097537697404040617,0.01956481547531962,
-0.00835574294985085,0.016821033409202237,
-0.007874015748031496,0.01377952755905512,
-0.00835574294985085,0.010738021708907995,
-0.00975376974040406,0.0079942396427906213,
-0.011931247516806368,0.0058167618663883145,
-0.014675029582923745,0.0044187350758351038,
-0.017716535433070866,0.0039370078740157488,
-0.020758041283217985,0.0044187350758351021,
-0.023501823349335368,0.0058167618663883119,
-0.025679301125737672,0.0079942396427906178,
-0.027077327916290882,0.010738021708907997,
0*
4,1,19,
-0.027559055118110236,-0.013779527559055116,
-0.027077327916290882,-0.010738021708907995,
-0.025679301125737672,-0.0079942396427906178,
-0.023501823349335368,-0.0058167618663883111,
-0.020758041283217985,-0.0044187350758351012,
-0.017716535433070866,-0.0039370078740157462,
-0.014675029582923748,-0.0044187350758351,
-0.011931247516806368,-0.0058167618663883111,
-0.0097537697404040634,-0.0079942396427906161,
-0.0083557429498508536,-0.010738021708907997,
-0.0078740157480314977,-0.013779527559055116,
-0.0083557429498508536,-0.016821033409202241,
-0.0097537697404040617,-0.019564815475319616,
-0.011931247516806369,-0.021742293251721924,
-0.014675029582923747,-0.023140320042275134,
-0.017716535433070866,-0.023622047244094488,
-0.020758041283217985,-0.023140320042275134,
-0.023501823349335368,-0.021742293251721924,
-0.025679301125737672,-0.019564815475319616,
-0.027077327916290882,-0.016821033409202237,
0*
4,1,19,
0.007874015748031496,-0.013779527559055118,
0.00835574294985085,-0.010738021708907997,
0.0097537697404040617,-0.00799423964279062,
0.011931247516806368,-0.0058167618663883128,
0.014675029582923747,-0.0044187350758351038,
0.017716535433070866,-0.0039370078740157488,
0.020758041283217985,-0.0044187350758351021,
0.023501823349335368,-0.0058167618663883128,
0.025679301125737672,-0.0079942396427906178,
0.027077327916290882,-0.010738021708907999,
0.027559055118110236,-0.013779527559055118,
0.027077327916290882,-0.016821033409202244,
0.025679301125737675,-0.019564815475319616,
0.023501823349335368,-0.021742293251721924,
0.020758041283217992,-0.023140320042275134,
0.017716535433070866,-0.023622047244094488,
0.014675029582923747,-0.023140320042275134,
0.011931247516806368,-0.021742293251721924,
0.0097537697404040617,-0.01956481547531962,
0.00835574294985085,-0.016821033409202241,
0*
4,1,19,
0.0078740157480314977,0.013779527559055118,
0.0083557429498508536,0.016821033409202237,
0.0097537697404040634,0.019564815475319616,
0.011931247516806369,0.021742293251721924,
0.014675029582923748,0.023140320042275134,
0.017716535433070869,0.023622047244094488,
0.020758041283217985,0.023140320042275134,
0.023501823349335368,0.021742293251721924,
0.025679301125737672,0.019564815475319616,
0.027077327916290882,0.016821033409202237,
0.027559055118110236,0.013779527559055118,
0.027077327916290882,0.010738021708907993,
0.025679301125737675,0.0079942396427906178,
0.023501823349335368,0.0058167618663883119,
0.020758041283217992,0.0044187350758351012,
0.017716535433070869,0.0039370078740157462,
0.014675029582923748,0.0044187350758351,
0.011931247516806369,0.0058167618663883093,
0.0097537697404040634,0.0079942396427906143,
0.0083557429498508536,0.010738021708907995,
0*
4,1,3,
-0.027559055118110236,0.01377952755905512,
-0.007874015748031496,0.013779527559055118,
-0.0078740157480314977,-0.013779527559055118,
-0.027559055118110236,-0.013779527559055116,
0*
4,1,3,
-0.017716535433070869,-0.023622047244094488,
-0.017716535433070866,-0.0039370078740157462,
0.017716535433070866,-0.0039370078740157488,
0.017716535433070866,-0.023622047244094488,
0*
4,1,3,
0.027559055118110236,-0.01377952755905512,
0.007874015748031496,-0.013779527559055118,
0.0078740157480314977,0.013779527559055118,
0.027559055118110236,0.013779527559055116,
0*
4,1,3,
0.017716535433070869,0.023622047244094488,
0.017716535433070866,0.0039370078740157462,
-0.017716535433070866,0.0039370078740157488,
-0.017716535433070866,0.023622047244094488,
0*%
%ADD16COMP88,0.25X0.35X0.45X-0.35X0.45X-0.35X-0.45X0.35X-0.45X0*%
%AMCOMP91*
4,1,3,
0.013779527559055118,0.017716535433070866,
-0.013779527559055118,0.017716535433070866,
-0.013779527559055118,-0.017716535433070866,
0.013779527559055118,-0.017716535433070866,
0*
4,1,19,
0.0039370078740157488,0.017716535433070866,
0.0044187350758351038,0.020758041283217985,
0.0058167618663883128,0.023501823349335368,
0.00799423964279062,0.025679301125737672,
0.010738021708907999,0.027077327916290882,
0.01377952755905512,0.027559055118110236,
0.016821033409202241,0.027077327916290882,
0.019564815475319616,0.025679301125737672,
0.021742293251721924,0.023501823349335368,
0.023140320042275134,0.020758041283217992,
0.023622047244094488,0.017716535433070866,
0.023140320042275134,0.014675029582923743,
0.021742293251721924,0.011931247516806366,
0.01956481547531962,0.0097537697404040617,
0.016821033409202237,0.00835574294985085,
0.01377952755905512,0.007874015748031496,
0.010738021708907999,0.00835574294985085,
0.0079942396427906213,0.00975376974040406,
0.0058167618663883145,0.011931247516806366,
0.0044187350758351038,0.014675029582923745,
0*
4,1,19,
-0.023622047244094488,0.017716535433070869,
-0.023140320042275134,0.020758041283217985,
-0.021742293251721924,0.023501823349335368,
-0.019564815475319616,0.025679301125737672,
-0.016821033409202237,0.027077327916290882,
-0.013779527559055116,0.027559055118110236,
-0.010738021708907995,0.027077327916290882,
-0.0079942396427906178,0.025679301125737672,
-0.0058167618663883119,0.023501823349335368,
-0.0044187350758351012,0.020758041283217992,
-0.0039370078740157462,0.017716535433070869,
-0.0044187350758351012,0.014675029582923745,
-0.0058167618663883093,0.011931247516806368,
-0.0079942396427906161,0.0097537697404040634,
-0.010738021708907997,0.0083557429498508536,
-0.013779527559055116,0.0078740157480314977,
-0.016821033409202237,0.0083557429498508518,
-0.019564815475319616,0.0097537697404040617,
-0.021742293251721924,0.011931247516806368,
-0.023140320042275134,0.014675029582923747,
0*
4,1,19,
-0.023622047244094488,-0.017716535433070866,
-0.023140320042275134,-0.014675029582923745,
-0.021742293251721924,-0.011931247516806366,
-0.019564815475319616,-0.00975376974040406,
-0.016821033409202237,-0.00835574294985085,
-0.013779527559055118,-0.007874015748031496,
-0.010738021708907997,-0.00835574294985085,
-0.0079942396427906213,-0.0097537697404040617,
-0.0058167618663883145,-0.011931247516806368,
-0.0044187350758351038,-0.014675029582923747,
-0.0039370078740157488,-0.017716535433070866,
-0.0044187350758351038,-0.020758041283217992,
-0.0058167618663883119,-0.023501823349335368,
-0.0079942396427906178,-0.025679301125737672,
-0.010738021708907999,-0.027077327916290882,
-0.013779527559055118,-0.027559055118110236,
-0.016821033409202237,-0.027077327916290882,
-0.019564815475319616,-0.025679301125737675,
-0.021742293251721924,-0.023501823349335368,
-0.023140320042275134,-0.020758041283217992,
0*
4,1,19,
0.0039370078740157462,-0.017716535433070866,
0.0044187350758351012,-0.014675029582923747,
0.0058167618663883111,-0.011931247516806368,
0.0079942396427906178,-0.0097537697404040617,
0.010738021708907997,-0.0083557429498508536,
0.013779527559055118,-0.0078740157480314977,
0.016821033409202237,-0.0083557429498508518,
0.019564815475319616,-0.0097537697404040634,
0.021742293251721924,-0.011931247516806369,
0.023140320042275134,-0.014675029582923748,
0.023622047244094488,-0.017716535433070866,
0.023140320042275134,-0.020758041283217992,
0.021742293251721924,-0.023501823349335368,
0.019564815475319616,-0.025679301125737672,
0.016821033409202237,-0.027077327916290882,
0.013779527559055118,-0.027559055118110236,
0.010738021708907997,-0.027077327916290882,
0.00799423964279062,-0.025679301125737675,
0.0058167618663883119,-0.023501823349335368,
0.0044187350758351012,-0.020758041283217992,
0*
4,1,3,
0.01377952755905512,0.027559055118110236,
0.013779527559055118,0.007874015748031496,
-0.013779527559055118,0.0078740157480314977,
-0.013779527559055116,0.027559055118110236,
0*
4,1,3,
-0.023622047244094488,0.017716535433070869,
-0.0039370078740157462,0.017716535433070866,
-0.0039370078740157488,-0.017716535433070866,
-0.023622047244094488,-0.017716535433070866,
0*
4,1,3,
-0.01377952755905512,-0.027559055118110236,
-0.013779527559055118,-0.007874015748031496,
0.013779527559055118,-0.0078740157480314977,
0.013779527559055116,-0.027559055118110236,
0*
4,1,3,
0.023622047244094488,-0.017716535433070869,
0.0039370078740157462,-0.017716535433070866,
0.0039370078740157488,0.017716535433070866,
0.023622047244094488,0.017716535433070866,
0*%
%ADD17COMP91,0.25X0.45X-0.35X0.45X0.35X-0.45X0.35X-0.45X-0.35X0*%
%ADD18C,0.035433070866141732*%
%ADD19R,0.03937007874015748X0.062992125984251982*%
%AMCOMP94*
4,1,20,
0.029527559055118113,0.01968503937007874,
0.029527559055118113,-0.0000000000000000018079818215881557,
0.029332007874015749,-0.0000000000000000017960081606443842,
0.029274330708661419,-0.0031472834645669308,
0.027609960629921264,-0.00847464566929134,
0.024517244094488192,-0.013120708661417325,
0.020244842519685041,-0.016712047244094492,
0.015136220472440945,-0.018959881889763781,
0.00984251968503937,-0.019652125984251971,
0.00984251968503937,-0.01968503937007874,
-0.0098425196850393734,-0.01968503937007874,
-0.0098425196850393734,-0.019652125984251971,
-0.010083031496062994,-0.019683582677165357,
-0.015597874015748034,-0.018824881889763782,
-0.02065003937007874,-0.016452913385826769,
-0.024833425196850396,-0.012758267716535432,
-0.027811692913385828,-0.0080379921259842516,
-0.029345433070866143,-0.0026715748031496049,
-0.029329094488188979,0.0000000000000000017958297731046545,
-0.029527559055118113,0.0000000000000000018079818215881557,
-0.029527559055118113,0.01968503937007874,
0*%
%ADD20COMP94,0*%
%AMCOMP95*
4,1,18,
-0.029329094488188979,0.0000000000000000017958297731046545,
-0.029311338582677166,0.0029096456692913404,
-0.027712165354330711,0.00825692913385827,
-0.024676456692913386,0.012940472440944885,
-0.020448228346456692,0.016583700787401578,
-0.015367440944881888,0.018893818897637797,
-0.00984251968503937,0.01968503937007874,
0.0098425196850393734,0.01968503937007874,
0.010323464566929137,0.019679173228346458,
0.015827440944881893,0.018753188976377955,
0.02085023622047244,0.016319645669291338,
0.024988188976377956,0.012574173228346456,
0.027908543307086614,0.00781787401574803,
0.029376614173228347,0.0024331102362204707,
0.029332007874015749,-0.0000000000000000017960081606443842,
0.029527559055118113,-0.0000000000000000018079818215881557,
0.029527559055118113,-0.01968503937007874,
-0.029527559055118113,-0.01968503937007874,
-0.029527559055118113,0.0000000000000000018079818215881557,
0*%
%ADD21COMP95,0*%
%AMCOMP96*
4,1,3,
0.02312992125984252,0.0059055118110236211,
-0.02312992125984252,0.0059055118110236228,
-0.02312992125984252,-0.0059055118110236211,
0.02312992125984252,-0.0059055118110236228,
0*
4,1,19,
0.017224409448818898,0.0059055118110236211,
0.017513445769910513,0.007730415321111894,
0.018352261844242438,0.0093766845607823213,
0.019658748510083823,0.010683171226623702,
0.021305017749754251,0.011521987300955628,
0.02312992125984252,0.011811023622047242,
0.024954824769930793,0.011521987300955629,
0.026601094009601218,0.010683171226623702,
0.027907580675442602,0.0093766845607823213,
0.028746396749774531,0.0077304153211118923,
0.029035433070866146,0.0059055118110236211,
0.028746396749774531,0.0040806083009353464,
0.027907580675442606,0.0024343390612649213,
0.026601094009601225,0.0011278523954235378,
0.024954824769930793,0.00028903632109161191,
0.02312992125984252,-0.0000000000000000014162524269107219,
0.021305017749754251,0.00028903632109161109,
0.019658748510083823,0.0011278523954235367,
0.018352261844242438,0.00243433906126492,
0.017513445769910513,0.0040806083009353473,
0*
4,1,19,
-0.029035433070866146,0.0059055118110236246,
-0.028746396749774531,0.0077304153211118967,
-0.027907580675442602,0.0093766845607823248,
-0.026601094009601225,0.010683171226623706,
-0.024954824769930793,0.011521987300955631,
-0.02312992125984252,0.011811023622047246,
-0.021305017749754251,0.011521987300955635,
-0.019658748510083823,0.010683171226623706,
-0.018352261844242438,0.0093766845607823248,
-0.017513445769910513,0.0077304153211118958,
-0.017224409448818898,0.0059055118110236246,
-0.017513445769910513,0.00408060830093535,
-0.018352261844242438,0.0024343390612649239,
-0.019658748510083823,0.0011278523954235406,
-0.021305017749754251,0.00028903632109161478,
-0.02312992125984252,0.0000000000000000014162524269107219,
-0.024954824769930793,0.00028903632109161391,
-0.026601094009601218,0.0011278523954235395,
-0.027907580675442602,0.002434339061264923,
-0.028746396749774531,0.00408060830093535,
0*
4,1,19,
-0.029035433070866146,-0.00590551181102362,
-0.028746396749774531,-0.0040806083009353481,
-0.027907580675442602,-0.0024343390612649209,
-0.026601094009601225,-0.0011278523954235374,
-0.024954824769930793,-0.00028903632109161191,
-0.02312992125984252,0.0000000000000000014162524269107219,
-0.021305017749754251,-0.00028903632109161109,
-0.019658748510083823,-0.0011278523954235378,
-0.018352261844242438,-0.0024343390612649209,
-0.017513445769910513,-0.0040806083009353481,
-0.017224409448818898,-0.00590551181102362,
-0.017513445769910513,-0.0077304153211118949,
-0.018352261844242438,-0.00937668456078232,
-0.019658748510083823,-0.010683171226623702,
-0.021305017749754251,-0.011521987300955628,
-0.02312992125984252,-0.011811023622047242,
-0.024954824769930793,-0.011521987300955629,
-0.026601094009601218,-0.010683171226623704,
-0.027907580675442602,-0.0093766845607823213,
-0.028746396749774531,-0.007730415321111894,
0*
4,1,19,
0.017224409448818898,-0.0059055118110236228,
0.017513445769910513,-0.0040806083009353507,
0.018352261844242438,-0.0024343390612649235,
0.019658748510083823,-0.0011278523954235402,
0.021305017749754251,-0.00028903632109161478,
0.02312992125984252,-0.0000000000000000014162524269107219,
0.024954824769930793,-0.00028903632109161391,
0.026601094009601218,-0.0011278523954235406,
0.027907580675442602,-0.0024343390612649235,
0.028746396749774531,-0.0040806083009353507,
0.029035433070866146,-0.0059055118110236228,
0.028746396749774531,-0.0077304153211118984,
0.027907580675442606,-0.0093766845607823231,
0.026601094009601225,-0.010683171226623706,
0.024954824769930793,-0.011521987300955631,
0.02312992125984252,-0.011811023622047246,
0.021305017749754251,-0.011521987300955635,
0.019658748510083823,-0.010683171226623709,
0.018352261844242438,-0.0093766845607823248,
0.017513445769910513,-0.0077304153211118967,
0*
4,1,3,
0.02312992125984252,0.011811023622047242,
0.02312992125984252,-0.0000000000000000014162524269107219,
-0.02312992125984252,0.0000000000000000014162524269107219,
-0.02312992125984252,0.011811023622047246,
0*
4,1,3,
-0.029035433070866146,0.0059055118110236246,
-0.017224409448818898,0.0059055118110236228,
-0.017224409448818898,-0.0059055118110236211,
-0.029035433070866146,-0.00590551181102362,
0*
4,1,3,
-0.02312992125984252,-0.011811023622047242,
-0.02312992125984252,0.0000000000000000014162524269107219,
0.02312992125984252,-0.0000000000000000014162524269107219,
0.02312992125984252,-0.011811023622047246,
0*
4,1,3,
0.029035433070866146,-0.0059055118110236246,
0.017224409448818898,-0.0059055118110236228,
0.017224409448818898,0.0059055118110236211,
0.029035433070866146,0.00590551181102362,
0*%
%ADD22COMP96,0.15X0.15X-0.5875X0.15X0.5875X-0.15X0.5875X-0.15X-0.5875X0*%
%ADD23R,0.031496062992125991X0.10629921259842522*%
%AMCOMP101*
4,1,3,
0.018700787401574805,-0.0098425196850393734,
0.018700787401574805,0.00984251968503937,
-0.018700787401574805,0.0098425196850393734,
-0.018700787401574805,-0.00984251968503937,
0*
4,1,19,
0.0088582677165354312,-0.00984251968503937,
0.0093399949183547871,-0.0068010138348922507,
0.010738021708907997,-0.0040572317687748716,
0.012915499485310303,-0.0018797539923725655,
0.015659281551427682,-0.000481727201819356,
0.018700787401574805,-0.0000000000000000011450551536724983,
0.021742293251721924,-0.00048172720181935522,
0.0244860753178393,-0.0018797539923725659,
0.026663553094241611,-0.0040572317687748716,
0.02806157988479482,-0.0068010138348922524,
0.028543307086614175,-0.00984251968503937,
0.02806157988479482,-0.012884025535186496,
0.026663553094241611,-0.015627807601303872,
0.024486075317839306,-0.017805285377706179,
0.021742293251721924,-0.019203312168259389,
0.018700787401574805,-0.01968503937007874,
0.015659281551427682,-0.019203312168259386,
0.012915499485310306,-0.017805285377706176,
0.010738021708907997,-0.015627807601303872,
0.0093399949183547871,-0.012884025535186494,
0*
4,1,19,
0.0088582677165354329,0.00984251968503937,
0.0093399949183547888,0.012884025535186491,
0.010738021708907997,0.015627807601303872,
0.012915499485310303,0.017805285377706176,
0.015659281551427685,0.019203312168259386,
0.018700787401574805,0.01968503937007874,
0.021742293251721924,0.019203312168259386,
0.0244860753178393,0.017805285377706176,
0.026663553094241611,0.015627807601303872,
0.02806157988479482,0.012884025535186489,
0.028543307086614175,0.00984251968503937,
0.02806157988479482,0.0068010138348922455,
0.026663553094241611,0.0040572317687748707,
0.024486075317839306,0.0018797539923725642,
0.021742293251721924,0.00048172720181935375,
0.018700787401574805,-0.0000000000000000011450551536724986,
0.015659281551427685,0.000481727201819353,
0.012915499485310306,0.0018797539923725627,
0.010738021708907997,0.0040572317687748681,
0.0093399949183547871,0.0068010138348922463,
0*
4,1,19,
-0.028543307086614175,0.0098425196850393734,
-0.02806157988479482,0.012884025535186494,
-0.026663553094241611,0.015627807601303872,
-0.0244860753178393,0.017805285377706179,
-0.021742293251721924,0.019203312168259389,
-0.0187007874015748,0.01968503937007874,
-0.015659281551427682,0.019203312168259386,
-0.012915499485310306,0.017805285377706176,
-0.010738021708907997,0.015627807601303872,
-0.0093399949183547871,0.012884025535186491,
-0.0088582677165354312,0.0098425196850393734,
-0.0093399949183547871,0.0068010138348922489,
-0.010738021708907997,0.0040572317687748724,
-0.012915499485310301,0.0018797539923725666,
-0.015659281551427682,0.000481727201819356,
-0.0187007874015748,0.0000000000000000011450551536724983,
-0.02174229325172192,0.00048172720181935522,
-0.0244860753178393,0.0018797539923725648,
-0.026663553094241611,0.0040572317687748707,
-0.02806157988479482,0.00680101383489225,
0*
4,1,19,
-0.028543307086614175,-0.0098425196850393682,
-0.02806157988479482,-0.0068010138348922481,
-0.026663553094241611,-0.004057231768774869,
-0.0244860753178393,-0.0018797539923725631,
-0.021742293251721924,-0.00048172720181935375,
-0.018700787401574805,0.0000000000000000011450551536724983,
-0.015659281551427682,-0.000481727201819353,
-0.012915499485310306,-0.0018797539923725637,
-0.010738021708907997,-0.004057231768774869,
-0.0093399949183547871,-0.0068010138348922489,
-0.0088582677165354329,-0.00984251968503937,
-0.0093399949183547888,-0.012884025535186494,
-0.010738021708907997,-0.015627807601303868,
-0.012915499485310301,-0.017805285377706176,
-0.015659281551427685,-0.019203312168259386,
-0.018700787401574805,-0.01968503937007874,
-0.02174229325172192,-0.019203312168259386,
-0.0244860753178393,-0.017805285377706176,
-0.026663553094241611,-0.015627807601303872,
-0.02806157988479482,-0.012884025535186491,
0*
4,1,3,
0.028543307086614175,-0.0098425196850393734,
0.0088582677165354312,-0.00984251968503937,
0.0088582677165354329,0.00984251968503937,
0.028543307086614175,0.0098425196850393682,
0*
4,1,3,
0.018700787401574805,0.01968503937007874,
0.018700787401574805,-0.0000000000000000011450551536724983,
-0.018700787401574805,0.0000000000000000011450551536724983,
-0.0187007874015748,0.01968503937007874,
0*
4,1,3,
-0.028543307086614175,0.0098425196850393734,
-0.0088582677165354312,0.00984251968503937,
-0.0088582677165354329,-0.00984251968503937,
-0.028543307086614175,-0.0098425196850393682,
0*
4,1,3,
-0.018700787401574805,-0.01968503937007874,
-0.018700787401574805,0.0000000000000000011450551536724983,
0.018700787401574805,-0.0000000000000000011450551536724983,
0.0187007874015748,-0.01968503937007874,
0*%
%ADD24COMP101,0.25X-0.25X-0.475X0.25X-0.475X0.25X0.475X-0.25X0.475X0*%
%AMCOMP104*
4,1,3,
0.017716535433070866,-0.013779527559055118,
0.017716535433070866,0.013779527559055118,
-0.017716535433070866,0.013779527559055118,
-0.017716535433070866,-0.013779527559055118,
0*
4,1,19,
0.007874015748031496,-0.013779527559055118,
0.00835574294985085,-0.010738021708907997,
0.0097537697404040617,-0.00799423964279062,
0.011931247516806368,-0.0058167618663883128,
0.014675029582923747,-0.0044187350758351038,
0.017716535433070866,-0.0039370078740157488,
0.020758041283217985,-0.0044187350758351021,
0.023501823349335368,-0.0058167618663883128,
0.025679301125737672,-0.0079942396427906178,
0.027077327916290882,-0.010738021708907999,
0.027559055118110236,-0.013779527559055118,
0.027077327916290882,-0.016821033409202244,
0.025679301125737675,-0.019564815475319616,
0.023501823349335368,-0.021742293251721924,
0.020758041283217992,-0.023140320042275134,
0.017716535433070866,-0.023622047244094488,
0.014675029582923747,-0.023140320042275134,
0.011931247516806368,-0.021742293251721924,
0.0097537697404040617,-0.01956481547531962,
0.00835574294985085,-0.016821033409202241,
0*
4,1,19,
0.0078740157480314977,0.013779527559055118,
0.0083557429498508536,0.016821033409202237,
0.0097537697404040634,0.019564815475319616,
0.011931247516806369,0.021742293251721924,
0.014675029582923748,0.023140320042275134,
0.017716535433070869,0.023622047244094488,
0.020758041283217985,0.023140320042275134,
0.023501823349335368,0.021742293251721924,
0.025679301125737672,0.019564815475319616,
0.027077327916290882,0.016821033409202237,
0.027559055118110236,0.013779527559055118,
0.027077327916290882,0.010738021708907993,
0.025679301125737675,0.0079942396427906178,
0.023501823349335368,0.0058167618663883119,
0.020758041283217992,0.0044187350758351012,
0.017716535433070869,0.0039370078740157462,
0.014675029582923748,0.0044187350758351,
0.011931247516806369,0.0058167618663883093,
0.0097537697404040634,0.0079942396427906143,
0.0083557429498508536,0.010738021708907995,
0*
4,1,19,
-0.027559055118110236,0.01377952755905512,
-0.027077327916290882,0.016821033409202241,
-0.025679301125737672,0.01956481547531962,
-0.023501823349335368,0.021742293251721924,
-0.020758041283217985,0.023140320042275134,
-0.017716535433070866,0.023622047244094488,
-0.014675029582923747,0.023140320042275134,
-0.011931247516806366,0.021742293251721924,
-0.0097537697404040617,0.01956481547531962,
-0.00835574294985085,0.016821033409202237,
-0.007874015748031496,0.01377952755905512,
-0.00835574294985085,0.010738021708907995,
-0.00975376974040406,0.0079942396427906213,
-0.011931247516806368,0.0058167618663883145,
-0.014675029582923745,0.0044187350758351038,
-0.017716535433070866,0.0039370078740157488,
-0.020758041283217985,0.0044187350758351021,
-0.023501823349335368,0.0058167618663883119,
-0.025679301125737672,0.0079942396427906178,
-0.027077327916290882,0.010738021708907997,
0*
4,1,19,
-0.027559055118110236,-0.013779527559055116,
-0.027077327916290882,-0.010738021708907995,
-0.025679301125737672,-0.0079942396427906178,
-0.023501823349335368,-0.0058167618663883111,
-0.020758041283217985,-0.0044187350758351012,
-0.017716535433070866,-0.0039370078740157462,
-0.014675029582923748,-0.0044187350758351,
-0.011931247516806368,-0.0058167618663883111,
-0.0097537697404040634,-0.0079942396427906161,
-0.0083557429498508536,-0.010738021708907997,
-0.0078740157480314977,-0.013779527559055116,
-0.0083557429498508536,-0.016821033409202241,
-0.0097537697404040617,-0.019564815475319616,
-0.011931247516806369,-0.021742293251721924,
-0.014675029582923747,-0.023140320042275134,
-0.017716535433070866,-0.023622047244094488,
-0.020758041283217985,-0.023140320042275134,
-0.023501823349335368,-0.021742293251721924,
-0.025679301125737672,-0.019564815475319616,
-0.027077327916290882,-0.016821033409202237,
0*
4,1,3,
0.027559055118110236,-0.01377952755905512,
0.007874015748031496,-0.013779527559055118,
0.0078740157480314977,0.013779527559055118,
0.027559055118110236,0.013779527559055116,
0*
4,1,3,
0.017716535433070869,0.023622047244094488,
0.017716535433070866,0.0039370078740157462,
-0.017716535433070866,0.0039370078740157488,
-0.017716535433070866,0.023622047244094488,
0*
4,1,3,
-0.027559055118110236,0.01377952755905512,
-0.007874015748031496,0.013779527559055118,
-0.0078740157480314977,-0.013779527559055118,
-0.027559055118110236,-0.013779527559055116,
0*
4,1,3,
-0.017716535433070869,-0.023622047244094488,
-0.017716535433070866,-0.0039370078740157462,
0.017716535433070866,-0.0039370078740157488,
0.017716535433070866,-0.023622047244094488,
0*%
%ADD25COMP104,0.25X-0.35X-0.45X0.35X-0.45X0.35X0.45X-0.35X0.45X0*%
%AMCOMP107*
4,1,3,
0.0073818897637795283,0.003444881889763779,
-0.0073818897637795283,0.00344488188976378,
-0.0073818897637795283,-0.003444881889763779,
0.0073818897637795283,-0.00344488188976378,
0*
4,1,19,
0.0039370078740157488,0.0034448818897637795,
0.0041056123946525231,0.0045094089373152717,
0.0045949217713461468,0.0054697326604563551,
0.0053570389930869535,0.0062318498821971611,
0.0063173627162280352,0.0067211592588907855,
0.0073818897637795283,0.006889763779527559,
0.00844641681133102,0.0067211592588907855,
0.0094067405344721022,0.00623184988219716,
0.01016885775621291,0.0054697326604563543,
0.010658167132906533,0.0045094089373152717,
0.010826771653543309,0.0034448818897637795,
0.010658167132906533,0.0023803548422122859,
0.01016885775621291,0.0014200311190712047,
0.009406740534472104,0.00065791389733039726,
0.00844641681133102,0.00016860452063677391,
0.0073818897637795292,-0.00000000000000000045199545539703892,
0.0063173627162280369,0.00016860452063677351,
0.0053570389930869535,0.000657913897330397,
0.0045949217713461459,0.0014200311190712038,
0.0041056123946525231,0.0023803548422122863,
0*
4,1,19,
-0.010826771653543309,0.00344488188976378,
-0.010658167132906533,0.0045094089373152717,
-0.01016885775621291,0.005469732660456356,
-0.0094067405344721022,0.0062318498821971619,
-0.00844641681133102,0.0067211592588907855,
-0.0073818897637795283,0.006889763779527559,
-0.0063173627162280369,0.0067211592588907855,
-0.0053570389930869535,0.0062318498821971611,
-0.0045949217713461459,0.0054697326604563551,
-0.0041056123946525223,0.0045094089373152717,
-0.0039370078740157488,0.00344488188976378,
-0.0041056123946525231,0.0023803548422122868,
-0.0045949217713461459,0.0014200311190712054,
-0.0053570389930869527,0.00065791389733039812,
-0.0063173627162280352,0.00016860452063677481,
-0.0073818897637795266,0.00000000000000000045199545539703883,
-0.00844641681133102,0.0001686045206367744,
-0.0094067405344721022,0.0006579138973303978,
-0.01016885775621291,0.0014200311190712047,
-0.010658167132906533,0.0023803548422122872,
0*
4,1,19,
-0.010826771653543309,-0.003444881889763779,
-0.010658167132906533,-0.0023803548422122872,
-0.01016885775621291,-0.0014200311190712041,
-0.0094067405344721022,-0.00065791389733039726,
-0.00844641681133102,-0.00016860452063677391,
-0.0073818897637795283,0.00000000000000000045199545539703892,
-0.0063173627162280369,-0.00016860452063677351,
-0.0053570389930869535,-0.00065791389733039758,
-0.0045949217713461459,-0.0014200311190712041,
-0.0041056123946525231,-0.0023803548422122868,
-0.0039370078740157488,-0.003444881889763779,
-0.0041056123946525231,-0.0045094089373152726,
-0.0045949217713461459,-0.0054697326604563543,
-0.0053570389930869527,-0.0062318498821971611,
-0.0063173627162280352,-0.0067211592588907855,
-0.0073818897637795266,-0.006889763779527559,
-0.00844641681133102,-0.0067211592588907855,
-0.0094067405344721022,-0.0062318498821971611,
-0.01016885775621291,-0.0054697326604563543,
-0.010658167132906533,-0.0045094089373152717,
0*
4,1,19,
0.0039370078740157488,-0.0034448818897637795,
0.0041056123946525231,-0.0023803548422122876,
0.0045949217713461459,-0.0014200311190712049,
0.0053570389930869535,-0.00065791389733039812,
0.0063173627162280352,-0.00016860452063677481,
0.0073818897637795283,-0.00000000000000000045199545539703892,
0.00844641681133102,-0.0001686045206367744,
0.0094067405344721022,-0.00065791389733039834,
0.01016885775621291,-0.0014200311190712049,
0.010658167132906533,-0.0023803548422122876,
0.010826771653543309,-0.0034448818897637795,
0.010658167132906533,-0.0045094089373152735,
0.01016885775621291,-0.0054697326604563551,
0.009406740534472104,-0.0062318498821971619,
0.00844641681133102,-0.0067211592588907855,
0.0073818897637795292,-0.006889763779527559,
0.0063173627162280369,-0.0067211592588907855,
0.0053570389930869535,-0.0062318498821971619,
0.0045949217713461459,-0.0054697326604563551,
0.0041056123946525223,-0.0045094089373152717,
0*
4,1,3,
0.0073818897637795283,0.006889763779527559,
0.0073818897637795283,-0.00000000000000000045199545539703892,
-0.0073818897637795283,0.00000000000000000045199545539703892,
-0.0073818897637795283,0.006889763779527559,
0*
4,1,3,
-0.010826771653543309,0.00344488188976378,
-0.0039370078740157488,0.0034448818897637795,
-0.0039370078740157488,-0.0034448818897637795,
-0.010826771653543309,-0.003444881889763779,
0*
4,1,3,
-0.0073818897637795283,-0.006889763779527559,
-0.0073818897637795283,0.00000000000000000045199545539703892,
0.0073818897637795283,-0.00000000000000000045199545539703892,
0.0073818897637795283,-0.006889763779527559,
0*
4,1,3,
0.010826771653543309,-0.00344488188976378,
0.0039370078740157488,-0.0034448818897637795,
0.0039370078740157488,0.0034448818897637795,
0.010826771653543309,0.003444881889763779,
0*%
%ADD26COMP107,0.0875X0.0875X-0.1875X0.0875X0.1875X-0.0875X0.1875X-0.0875X-0.1875X0*%
%AMCOMP110*
4,1,3,
0.00688976377952756,0.024606299212598427,
-0.0068897637795275581,0.024606299212598427,
-0.00688976377952756,-0.024606299212598427,
0.0068897637795275581,-0.024606299212598427,
0*
4,1,19,
0.0000000000000000015066515179901296,0.024606299212598427,
0.00033720904127355048,0.026735353307701409,
0.0013158277946607973,0.028656000753983574,
0.0028400622381424107,0.03018023519746519,
0.0047607096844245762,0.031158853950852435,
0.0068897637795275616,0.031496062992125991,
0.0090188178746305452,0.031158853950852439,
0.01093946532091271,0.03018023519746519,
0.012463699764394324,0.028656000753983574,
0.013442318517781573,0.026735353307701409,
0.01377952755905512,0.024606299212598427,
0.013442318517781573,0.02247724511749544,
0.012463699764394327,0.020556597671213279,
0.010939465320912712,0.019032363227731663,
0.0090188178746305452,0.018053744474344418,
0.0068897637795275616,0.017716535433070866,
0.004760709684424577,0.018053744474344414,
0.002840062238142412,0.019032363227731663,
0.0013158277946607969,0.020556597671213272,
0.00033720904127355021,0.02247724511749544,
0*
4,1,19,
-0.013779527559055116,0.024606299212598427,
-0.013442318517781568,0.026735353307701409,
-0.01246369976439432,0.028656000753983574,
-0.010939465320912709,0.03018023519746519,
-0.0090188178746305418,0.031158853950852435,
-0.0068897637795275572,0.031496062992125991,
-0.0047607096844245736,0.031158853950852439,
-0.0028400622381424085,0.03018023519746519,
-0.0013158277946607941,0.028656000753983574,
-0.00033720904127354723,0.026735353307701409,
0.0000000000000000015066515179901296,0.024606299212598427,
-0.0003372090412735475,0.02247724511749544,
-0.0013158277946607932,0.020556597671213279,
-0.0028400622381424077,0.019032363227731663,
-0.0047607096844245727,0.018053744474344418,
-0.0068897637795275572,0.017716535433070866,
-0.00901881787463054,0.018053744474344414,
-0.010939465320912705,0.019032363227731663,
-0.01246369976439432,0.020556597671213272,
-0.013442318517781568,0.02247724511749544,
0*
4,1,19,
-0.01377952755905512,-0.024606299212598427,
-0.013442318517781573,-0.022477245117495444,
-0.012463699764394324,-0.020556597671213279,
-0.010939465320912712,-0.019032363227731663,
-0.0090188178746305452,-0.018053744474344418,
-0.00688976377952756,-0.017716535433070866,
-0.0047607096844245762,-0.018053744474344414,
-0.0028400622381424116,-0.019032363227731663,
-0.0013158277946607969,-0.020556597671213279,
-0.00033720904127355021,-0.022477245117495444,
-0.0000000000000000015066515179901296,-0.024606299212598427,
-0.00033720904127355048,-0.026735353307701413,
-0.0013158277946607962,-0.028656000753983574,
-0.0028400622381424103,-0.03018023519746519,
-0.0047607096844245753,-0.031158853950852435,
-0.00688976377952756,-0.031496062992125991,
-0.0090188178746305435,-0.031158853950852439,
-0.01093946532091271,-0.03018023519746519,
-0.012463699764394324,-0.028656000753983581,
-0.013442318517781573,-0.026735353307701413,
0*
4,1,19,
-0.0000000000000000015066515179901296,-0.024606299212598427,
0.0003372090412735475,-0.022477245117495444,
0.0013158277946607943,-0.020556597671213279,
0.0028400622381424081,-0.019032363227731663,
0.0047607096844245736,-0.018053744474344418,
0.0068897637795275581,-0.017716535433070866,
0.0090188178746305418,-0.018053744474344414,
0.010939465320912705,-0.019032363227731663,
0.01246369976439432,-0.020556597671213279,
0.013442318517781568,-0.022477245117495444,
0.013779527559055116,-0.024606299212598427,
0.013442318517781568,-0.026735353307701413,
0.012463699764394322,-0.028656000753983574,
0.010939465320912709,-0.03018023519746519,
0.0090188178746305418,-0.031158853950852435,
0.0068897637795275581,-0.031496062992125991,
0.0047607096844245744,-0.031158853950852439,
0.0028400622381424094,-0.03018023519746519,
0.0013158277946607941,-0.028656000753983581,
0.00033720904127354723,-0.026735353307701413,
0*
4,1,3,
0.0068897637795275616,0.031496062992125991,
0.00688976377952756,0.017716535433070866,
-0.0068897637795275581,0.017716535433070866,
-0.0068897637795275572,0.031496062992125991,
0*
4,1,3,
-0.013779527559055116,0.024606299212598427,
0.0000000000000000015066515179901296,0.024606299212598427,
-0.0000000000000000015066515179901296,-0.024606299212598427,
-0.01377952755905512,-0.024606299212598427,
0*
4,1,3,
-0.0068897637795275616,-0.031496062992125991,
-0.00688976377952756,-0.017716535433070866,
0.0068897637795275581,-0.017716535433070866,
0.0068897637795275572,-0.031496062992125991,
0*
4,1,3,
0.013779527559055116,-0.024606299212598427,
-0.0000000000000000015066515179901296,-0.024606299212598427,
0.0000000000000000015066515179901296,0.024606299212598427,
0.01377952755905512,0.024606299212598427,
0*%
%ADD27COMP110,0.175X0.625X-0.175X0.625X0.175X-0.625X0.175X-0.625X-0.175X0*%
%ADD28R,0.0984251968503937X0.03937007874015748*%
%ADD29R,0.03937007874015748X0.070866141732283464*%
%ADD30R,0.061417322834645675X0.025590551181102365*%
%AMCOMP113*
4,1,3,
0.0024606299212598421,-0.013779527559055118,
0.0024606299212598438,0.013779527559055118,
-0.0024606299212598421,0.013779527559055118,
-0.0024606299212598438,-0.013779527559055118,
0*
4,1,19,
-0.0000000000000000008437248500744725,-0.013779527559055118,
0.00012043180045483795,-0.013019151096518338,
0.00046993849809314039,-0.012333205579988992,
0.001014307942193717,-0.011788836135888417,
0.0017002534587230616,-0.011439329438250113,
0.0024606299212598416,-0.011318897637795275,
0.0032210063837966223,-0.011439329438250113,
0.0039069519003259662,-0.011788836135888417,
0.004451321344426544,-0.012333205579988992,
0.0048008280420648464,-0.013019151096518338,
0.0049212598425196841,-0.013779527559055118,
0.0048008280420648456,-0.014539904021591898,
0.0044513213444265431,-0.015225849538121243,
0.0039069519003259671,-0.01577021898222182,
0.0032210063837966219,-0.016119725679860121,
0.0024606299212598421,-0.01624015748031496,
0.001700253458723062,-0.016119725679860121,
0.0010143079421937172,-0.01577021898222182,
0.00046993849809314045,-0.015225849538121243,
0.00012043180045483787,-0.014539904021591898,
0*
4,1,19,
0.0000000000000000008437248500744725,0.013779527559055118,
0.00012043180045483964,0.014539904021591898,
0.00046993849809314208,0.015225849538121243,
0.0010143079421937188,0.01577021898222182,
0.0017002534587230635,0.016119725679860121,
0.0024606299212598434,0.01624015748031496,
0.003221006383796624,0.016119725679860121,
0.0039069519003259679,0.01577021898222182,
0.0044513213444265448,0.015225849538121243,
0.0048008280420648482,0.014539904021591898,
0.0049212598425196867,0.013779527559055118,
0.0048008280420648473,0.013019151096518338,
0.0044513213444265448,0.012333205579988992,
0.0039069519003259688,0.011788836135888417,
0.0032210063837966236,0.011439329438250113,
0.0024606299212598438,0.011318897637795275,
0.0017002534587230638,0.011439329438250113,
0.001014307942193719,0.011788836135888417,
0.00046993849809314218,0.012333205579988992,
0.00012043180045483956,0.013019151096518338,
0*
4,1,19,
-0.0049212598425196841,0.013779527559055118,
-0.0048008280420648456,0.014539904021591898,
-0.0044513213444265431,0.015225849538121243,
-0.0039069519003259662,0.01577021898222182,
-0.0032210063837966219,0.016119725679860121,
-0.0024606299212598416,0.01624015748031496,
-0.0017002534587230616,0.016119725679860121,
-0.001014307942193717,0.01577021898222182,
-0.00046993849809314045,0.015225849538121243,
-0.00012043180045483787,0.014539904021591898,
0.0000000000000000008437248500744725,0.013779527559055118,
-0.00012043180045483795,0.013019151096518338,
-0.00046993849809314012,0.012333205579988992,
-0.0010143079421937168,0.011788836135888417,
-0.0017002534587230614,0.011439329438250113,
-0.0024606299212598412,0.011318897637795275,
-0.0032210063837966219,0.011439329438250113,
-0.0039069519003259662,0.011788836135888417,
-0.004451321344426544,0.012333205579988992,
-0.0048008280420648464,0.013019151096518338,
0*
4,1,19,
-0.0049212598425196867,-0.013779527559055118,
-0.0048008280420648473,-0.013019151096518338,
-0.0044513213444265448,-0.012333205579988992,
-0.0039069519003259679,-0.011788836135888417,
-0.0032210063837966236,-0.011439329438250113,
-0.0024606299212598434,-0.011318897637795275,
-0.0017002534587230635,-0.011439329438250113,
-0.0010143079421937188,-0.011788836135888417,
-0.00046993849809314218,-0.012333205579988992,
-0.00012043180045483956,-0.013019151096518338,
-0.0000000000000000008437248500744725,-0.013779527559055118,
-0.00012043180045483964,-0.014539904021591898,
-0.0004699384980931418,-0.015225849538121243,
-0.0010143079421937183,-0.01577021898222182,
-0.0017002534587230633,-0.016119725679860121,
-0.0024606299212598434,-0.01624015748031496,
-0.0032210063837966236,-0.016119725679860121,
-0.0039069519003259679,-0.01577021898222182,
-0.0044513213444265448,-0.015225849538121243,
-0.0048008280420648482,-0.014539904021591898,
0*
4,1,3,
0.0049212598425196841,-0.013779527559055118,
-0.0000000000000000008437248500744725,-0.013779527559055118,
0.0000000000000000008437248500744725,0.013779527559055118,
0.0049212598425196867,0.013779527559055118,
0*
4,1,3,
0.0024606299212598438,0.01624015748031496,
0.0024606299212598434,0.011318897637795275,
-0.0024606299212598421,0.011318897637795275,
-0.0024606299212598412,0.01624015748031496,
0*
4,1,3,
-0.0049212598425196841,0.013779527559055118,
0.0000000000000000008437248500744725,0.013779527559055118,
-0.0000000000000000008437248500744725,-0.013779527559055118,
-0.0049212598425196867,-0.013779527559055118,
0*
4,1,3,
-0.0024606299212598438,-0.01624015748031496,
-0.0024606299212598434,-0.011318897637795275,
0.0024606299212598421,-0.011318897637795275,
0.0024606299212598412,-0.01624015748031496,
0*%
%ADD31COMP113,0.0625X-0.35X-0.0625X0.35X-0.0625X0.35X0.0625X-0.35X0.0625X0*%
%AMCOMP116*
4,1,3,
0.013779527559055118,-0.0024606299212598438,
0.013779527559055118,0.0024606299212598421,
-0.013779527559055118,0.0024606299212598438,
-0.013779527559055118,-0.0024606299212598421,
0*
4,1,19,
0.011318897637795275,-0.0024606299212598434,
0.011439329438250113,-0.0017002534587230633,
0.011788836135888417,-0.0010143079421937183,
0.012333205579988992,-0.00046993849809314191,
0.013019151096518338,-0.00012043180045483956,
0.013779527559055118,-0.0000000000000000008437248500744725,
0.014539904021591898,-0.00012043180045483937,
0.015225849538121243,-0.00046993849809314208,
0.01577021898222182,-0.0010143079421937183,
0.016119725679860121,-0.0017002534587230635,
0.01624015748031496,-0.0024606299212598434,
0.016119725679860121,-0.0032210063837966245,
0.01577021898222182,-0.0039069519003259679,
0.015225849538121243,-0.0044513213444265448,
0.014539904021591898,-0.0048008280420648482,
0.013779527559055118,-0.0049212598425196867,
0.013019151096518338,-0.0048008280420648473,
0.012333205579988992,-0.0044513213444265448,
0.011788836135888417,-0.0039069519003259688,
0.011439329438250113,-0.003221006383796624,
0*
4,1,19,
0.011318897637795275,0.0024606299212598421,
0.011439329438250113,0.0032210063837966223,
0.011788836135888417,0.0039069519003259671,
0.012333205579988992,0.004451321344426544,
0.013019151096518338,0.0048008280420648464,
0.013779527559055118,0.0049212598425196841,
0.014539904021591898,0.0048008280420648456,
0.015225849538121243,0.0044513213444265431,
0.01577021898222182,0.0039069519003259671,
0.016119725679860121,0.0032210063837966219,
0.01624015748031496,0.0024606299212598421,
0.016119725679860121,0.0017002534587230609,
0.01577021898222182,0.001014307942193717,
0.015225849538121243,0.00046993849809314045,
0.014539904021591898,0.00012043180045483787,
0.013779527559055118,-0.0000000000000000008437248500744725,
0.013019151096518338,0.00012043180045483768,
0.012333205579988992,0.00046993849809314012,
0.011788836135888417,0.0010143079421937166,
0.011439329438250113,0.0017002534587230611,
0*
4,1,19,
-0.01624015748031496,0.0024606299212598438,
-0.016119725679860121,0.003221006383796624,
-0.01577021898222182,0.0039069519003259688,
-0.015225849538121243,0.0044513213444265448,
-0.014539904021591898,0.0048008280420648482,
-0.013779527559055118,0.0049212598425196867,
-0.013019151096518338,0.0048008280420648473,
-0.012333205579988992,0.0044513213444265448,
-0.011788836135888417,0.0039069519003259688,
-0.011439329438250113,0.0032210063837966236,
-0.011318897637795275,0.0024606299212598438,
-0.011439329438250113,0.0017002534587230627,
-0.011788836135888417,0.0010143079421937188,
-0.012333205579988992,0.00046993849809314218,
-0.013019151096518338,0.00012043180045483956,
-0.013779527559055118,0.0000000000000000008437248500744725,
-0.014539904021591898,0.00012043180045483937,
-0.015225849538121243,0.0004699384980931418,
-0.01577021898222182,0.0010143079421937181,
-0.016119725679860121,0.0017002534587230631,
0*
4,1,19,
-0.01624015748031496,-0.0024606299212598416,
-0.016119725679860121,-0.0017002534587230614,
-0.01577021898222182,-0.0010143079421937168,
-0.015225849538121243,-0.00046993849809314018,
-0.014539904021591898,-0.00012043180045483787,
-0.013779527559055118,0.0000000000000000008437248500744725,
-0.013019151096518338,-0.00012043180045483768,
-0.012333205579988992,-0.00046993849809314039,
-0.011788836135888417,-0.0010143079421937168,
-0.011439329438250113,-0.0017002534587230616,
-0.011318897637795275,-0.0024606299212598416,
-0.011439329438250113,-0.0032210063837966227,
-0.011788836135888417,-0.0039069519003259662,
-0.012333205579988992,-0.004451321344426544,
-0.013019151096518338,-0.0048008280420648464,
-0.013779527559055118,-0.0049212598425196841,
-0.014539904021591898,-0.0048008280420648456,
-0.015225849538121243,-0.0044513213444265431,
-0.01577021898222182,-0.0039069519003259671,
-0.016119725679860121,-0.0032210063837966223,
0*
4,1,3,
0.01624015748031496,-0.0024606299212598438,
0.011318897637795275,-0.0024606299212598434,
0.011318897637795275,0.0024606299212598421,
0.01624015748031496,0.0024606299212598412,
0*
4,1,3,
0.013779527559055118,0.0049212598425196841,
0.013779527559055118,-0.0000000000000000008437248500744725,
-0.013779527559055118,0.0000000000000000008437248500744725,
-0.013779527559055118,0.0049212598425196867,
0*
4,1,3,
-0.01624015748031496,0.0024606299212598438,
-0.011318897637795275,0.0024606299212598434,
-0.011318897637795275,-0.0024606299212598421,
-0.01624015748031496,-0.0024606299212598412,
0*
4,1,3,
-0.013779527559055118,-0.0049212598425196841,
-0.013779527559055118,0.0000000000000000008437248500744725,
0.013779527559055118,-0.0000000000000000008437248500744725,
0.013779527559055118,-0.0049212598425196867,
0*%
%ADD32COMP116,0.0625X-0.0625X-0.35X0.0625X-0.35X0.0625X0.35X-0.0625X0.35X0*%
%ADD33R,0.10236220472440946X0.10236220472440946*%
%ADD34C,0.023622047244094488*%
%ADD35R,0.023622047244094488X0.045669291338582677*%
%ADD36R,0.011811023622047244X0.045669291338582677*%
%ADD37O,0.03937007874015748X0.086614173228346469*%
%ADD38R,0.043307086614173235X0.070866141732283464*%
%ADD39R,0.066929133858267723X0.066929133858267723*%
%ADD40O,0.066929133858267723X0.066929133858267723*%
%AMCOMP119*
4,1,3,
-0.020177165354330708,-0.0059055118110236211,
0.020177165354330708,-0.0059055118110236228,
0.020177165354330708,0.0059055118110236211,
-0.020177165354330708,0.0059055118110236228,
0*
4,1,19,
-0.026082677165354333,-0.0059055118110236211,
-0.025793640844262715,-0.0040806083009353481,
-0.024954824769930793,-0.0024343390612649209,
-0.023648338104089405,-0.0011278523954235374,
-0.02200206886441898,-0.00028903632109161212,
-0.020177165354330708,0.0000000000000000012354542447519063,
-0.018352261844242438,-0.00028903632109161126,
-0.01670599260457201,-0.001127852395423538,
-0.015399505938730625,-0.0024343390612649209,
-0.0145606898643987,-0.0040806083009353481,
-0.014271653543307086,-0.00590551181102362,
-0.0145606898643987,-0.0077304153211118949,
-0.015399505938730622,-0.00937668456078232,
-0.01670599260457201,-0.010683171226623704,
-0.018352261844242435,-0.011521987300955628,
-0.020177165354330708,-0.011811023622047242,
-0.02200206886441898,-0.011521987300955629,
-0.023648338104089405,-0.010683171226623704,
-0.02495482476993079,-0.0093766845607823213,
-0.025793640844262715,-0.0077304153211118949,
0*
4,1,19,
0.014271653543307086,-0.0059055118110236228,
0.0145606898643987,-0.0040806083009353507,
0.015399505938730625,-0.002434339061264923,
0.01670599260457201,-0.00112785239542354,
0.018352261844242438,-0.00028903632109161456,
0.020177165354330708,-0.0000000000000000012354542447519063,
0.02200206886441898,-0.00028903632109161369,
0.023648338104089405,-0.0011278523954235404,
0.02495482476993079,-0.0024343390612649235,
0.025793640844262715,-0.0040806083009353507,
0.026082677165354333,-0.005905511811023622,
0.025793640844262715,-0.0077304153211118967,
0.024954824769930793,-0.0093766845607823213,
0.023648338104089409,-0.010683171226623706,
0.02200206886441898,-0.011521987300955631,
0.020177165354330708,-0.011811023622047246,
0.018352261844242438,-0.011521987300955635,
0.01670599260457201,-0.010683171226623706,
0.015399505938730625,-0.0093766845607823248,
0.0145606898643987,-0.0077304153211118967,
0*
4,1,19,
0.014271653543307086,0.0059055118110236211,
0.0145606898643987,0.007730415321111894,
0.015399505938730625,0.0093766845607823213,
0.01670599260457201,0.010683171226623704,
0.018352261844242438,0.011521987300955628,
0.020177165354330708,0.011811023622047242,
0.02200206886441898,0.011521987300955629,
0.023648338104089405,0.010683171226623702,
0.02495482476993079,0.0093766845607823213,
0.025793640844262715,0.007730415321111894,
0.026082677165354333,0.005905511811023622,
0.025793640844262715,0.0040806083009353464,
0.024954824769930793,0.0024343390612649213,
0.023648338104089409,0.001127852395423538,
0.02200206886441898,0.00028903632109161212,
0.020177165354330708,-0.0000000000000000012354542447519063,
0.018352261844242438,0.00028903632109161126,
0.01670599260457201,0.0011278523954235369,
0.015399505938730625,0.0024343390612649204,
0.0145606898643987,0.0040806083009353473,
0*
4,1,19,
-0.026082677165354333,0.0059055118110236228,
-0.025793640844262715,0.0077304153211118958,
-0.024954824769930793,0.0093766845607823231,
-0.023648338104089405,0.010683171226623706,
-0.02200206886441898,0.011521987300955631,
-0.020177165354330708,0.011811023622047246,
-0.018352261844242438,0.011521987300955635,
-0.01670599260457201,0.010683171226623704,
-0.015399505938730625,0.0093766845607823248,
-0.0145606898643987,0.0077304153211118958,
-0.014271653543307086,0.0059055118110236246,
-0.0145606898643987,0.00408060830093535,
-0.015399505938730622,0.0024343390612649239,
-0.01670599260457201,0.0011278523954235404,
-0.018352261844242435,0.00028903632109161456,
-0.020177165354330708,0.0000000000000000012354542447519063,
-0.02200206886441898,0.00028903632109161369,
-0.023648338104089405,0.0011278523954235393,
-0.02495482476993079,0.002434339061264923,
-0.025793640844262715,0.00408060830093535,
0*
4,1,3,
-0.020177165354330708,-0.011811023622047242,
-0.020177165354330708,0.0000000000000000012354542447519063,
0.020177165354330708,-0.0000000000000000012354542447519063,
0.020177165354330708,-0.011811023622047246,
0*
4,1,3,
0.026082677165354333,-0.0059055118110236228,
0.014271653543307086,-0.0059055118110236228,
0.014271653543307086,0.0059055118110236211,
0.026082677165354333,0.0059055118110236211,
0*
4,1,3,
0.020177165354330708,0.011811023622047242,
0.020177165354330708,-0.0000000000000000012354542447519063,
-0.020177165354330708,0.0000000000000000012354542447519063,
-0.020177165354330708,0.011811023622047246,
0*
4,1,3,
-0.026082677165354333,0.0059055118110236228,
-0.014271653543307086,0.0059055118110236228,
-0.014271653543307086,-0.0059055118110236211,
-0.026082677165354333,-0.0059055118110236211,
0*%
%ADD41COMP119,0.15X-0.15X0.5125X-0.15X-0.5125X0.15X-0.5125X0.15X0.5125X0*%
%ADD42C,0.090000000000000011*%
%ADD43C,0.15748031496062992*%
%ADD54C,0.005905511811023622*%
%AMCOMP122*
4,1,3,
0.018700787401574805,-0.0098425196850393682,
0.0187007874015748,0.0098425196850393734,
-0.018700787401574805,0.0098425196850393682,
-0.0187007874015748,-0.0098425196850393734,
0*
4,1,19,
0.018700787401574805,-0.01968503937007874,
0.015659281551427685,-0.019203312168259386,
0.012915499485310306,-0.017805285377706176,
0.010738021708907999,-0.015627807601303868,
0.0093399949183547888,-0.012884025535186489,
0.0088582677165354329,-0.00984251968503937,
0.0093399949183547871,-0.00680101383489225,
0.010738021708907997,-0.0040572317687748707,
0.012915499485310301,-0.001879753992372564,
0.015659281551427682,-0.0004817272018193531,
0.0187007874015748,0.0000000000000000022901103073449965,
0.021742293251721927,-0.00048172720181935234,
0.0244860753178393,-0.0018797539923725605,
0.026663553094241611,-0.0040572317687748664,
0.02806157988479482,-0.0068010138348922455,
0.028543307086614175,-0.0098425196850393647,
0.02806157988479482,-0.012884025535186484,
0.026663553094241611,-0.015627807601303865,
0.024486075317839306,-0.017805285377706176,
0.021742293251721927,-0.019203312168259386,
0*
4,1,19,
0.018700787401574805,0.0000000000000000022901103073449965,
0.015659281551427682,0.00048172720181935695,
0.012915499485310303,0.0018797539923725661,
0.010738021708907997,0.0040572317687748724,
0.0093399949183547871,0.0068010138348922507,
0.0088582677165354312,0.00984251968503937,
0.0093399949183547853,0.012884025535186494,
0.010738021708907995,0.015627807601303872,
0.0129154994853103,0.017805285377706179,
0.015659281551427682,0.019203312168259389,
0.018700787401574798,0.019685039370078747,
0.021742293251721924,0.019203312168259389,
0.0244860753178393,0.017805285377706179,
0.026663553094241611,0.015627807601303875,
0.02806157988479482,0.012884025535186496,
0.028543307086614175,0.0098425196850393769,
0.02806157988479482,0.006801013834892255,
0.026663553094241611,0.0040572317687748768,
0.024486075317839306,0.0018797539923725687,
0.021742293251721924,0.00048172720181935771,
0*
4,1,19,
-0.018700787401574805,-0.0000000000000000022901103073449965,
-0.021742293251721924,0.00048172720181935234,
-0.0244860753178393,0.0018797539923725616,
-0.026663553094241611,0.0040572317687748672,
-0.02806157988479482,0.0068010138348922463,
-0.028543307086614175,0.0098425196850393665,
-0.02806157988479482,0.012884025535186487,
-0.026663553094241611,0.015627807601303865,
-0.024486075317839306,0.017805285377706176,
-0.021742293251721927,0.019203312168259386,
-0.018700787401574808,0.01968503937007874,
-0.015659281551427682,0.019203312168259386,
-0.012915499485310308,0.017805285377706176,
-0.010738021708907999,0.015627807601303872,
-0.0093399949183547888,0.012884025535186489,
-0.0088582677165354329,0.0098425196850393734,
-0.0093399949183547871,0.0068010138348922507,
-0.010738021708907997,0.0040572317687748724,
-0.012915499485310301,0.001879753992372564,
-0.015659281551427682,0.0004817272018193531,
0*
4,1,19,
-0.0187007874015748,-0.019685039370078747,
-0.02174229325172192,-0.019203312168259389,
-0.0244860753178393,-0.017805285377706179,
-0.026663553094241611,-0.015627807601303872,
-0.02806157988479482,-0.012884025535186496,
-0.028543307086614175,-0.0098425196850393751,
-0.02806157988479482,-0.0068010138348922541,
-0.026663553094241611,-0.004057231768774875,
-0.024486075317839306,-0.0018797539923725687,
-0.021742293251721924,-0.00048172720181935771,
-0.018700787401574805,-0.0000000000000000022901103073449973,
-0.015659281551427682,-0.00048172720181935695,
-0.012915499485310306,-0.001879753992372565,
-0.010738021708907997,-0.0040572317687748707,
-0.0093399949183547871,-0.00680101383489225,
-0.0088582677165354312,-0.00984251968503937,
-0.0093399949183547853,-0.012884025535186491,
-0.010738021708907995,-0.015627807601303872,
-0.0129154994853103,-0.017805285377706179,
-0.015659281551427678,-0.019203312168259389,
0*
4,1,3,
0.028543307086614175,-0.0098425196850393682,
0.0088582677165354329,-0.0098425196850393682,
0.0088582677165354312,0.00984251968503937,
0.028543307086614175,0.0098425196850393734,
0*
4,1,3,
0.0187007874015748,0.019685039370078747,
0.018700787401574805,0.0000000000000000022901103073449965,
-0.018700787401574805,-0.0000000000000000022901103073449965,
-0.018700787401574805,0.01968503937007874,
0*
4,1,3,
-0.028543307086614175,0.0098425196850393682,
-0.0088582677165354329,0.0098425196850393682,
-0.0088582677165354312,-0.00984251968503937,
-0.028543307086614175,-0.0098425196850393734,
0*
4,1,3,
-0.0187007874015748,-0.019685039370078747,
-0.018700787401574805,-0.0000000000000000022901103073449965,
0.018700787401574805,0.0000000000000000022901103073449965,
0.018700787401574805,-0.01968503937007874,
0*%
%ADD55COMP122,0.25X-0.475X0.25X-0.475X-0.25X0.475X-0.25X0.475X0.25X0*%
%AMCOMP125*
4,1,3,
0.029527559055118106,0.019685039370078747,
-0.029527559055118117,0.019685039370078736,
-0.029527559055118106,-0.019685039370078747,
0.029527559055118117,-0.019685039370078736,
0*%
%ADD56COMP125*%
%ADD57C,0.005905511811023622*%
%AMCOMP126*
4,1,3,
-0.018700787401574805,0.00984251968503937,
-0.018700787401574805,-0.00984251968503937,
0.018700787401574805,-0.00984251968503937,
0.018700787401574805,0.00984251968503937,
0*
4,1,19,
-0.018700787401574805,0.01968503937007874,
-0.015659281551427682,0.019203312168259386,
-0.012915499485310303,0.017805285377706176,
-0.010738021708907997,0.015627807601303872,
-0.0093399949183547871,0.012884025535186491,
-0.0088582677165354329,0.00984251968503937,
-0.0093399949183547871,0.0068010138348922507,
-0.010738021708907997,0.0040572317687748724,
-0.012915499485310301,0.0018797539923725657,
-0.015659281551427682,0.00048172720181935506,
-0.0187007874015748,0,
-0.021742293251721927,0.00048172720181935506,
-0.0244860753178393,0.0018797539923725635,
-0.026663553094241611,0.00405723176877487,
-0.02806157988479482,0.0068010138348922489,
-0.028543307086614175,0.0098425196850393682,
-0.02806157988479482,0.012884025535186489,
-0.026663553094241611,0.015627807601303868,
-0.024486075317839306,0.017805285377706176,
-0.021742293251721924,0.019203312168259386,
0*
4,1,19,
-0.018700787401574805,0,
-0.015659281551427682,-0.00048172720181935506,
-0.012915499485310303,-0.0018797539923725646,
-0.010738021708907997,-0.0040572317687748707,
-0.0093399949183547871,-0.00680101383489225,
-0.0088582677165354329,-0.00984251968503937,
-0.0093399949183547871,-0.012884025535186491,
-0.010738021708907997,-0.015627807601303868,
-0.012915499485310301,-0.017805285377706176,
-0.015659281551427682,-0.019203312168259386,
-0.0187007874015748,-0.01968503937007874,
-0.021742293251721927,-0.019203312168259386,
-0.0244860753178393,-0.017805285377706176,
-0.026663553094241611,-0.015627807601303872,
-0.02806157988479482,-0.012884025535186491,
-0.028543307086614175,-0.0098425196850393734,
-0.02806157988479482,-0.0068010138348922524,
-0.026663553094241611,-0.0040572317687748733,
-0.024486075317839306,-0.0018797539923725657,
-0.021742293251721924,-0.00048172720181935506,
0*
4,1,19,
0.018700787401574805,0,
0.021742293251721924,-0.00048172720181935506,
0.0244860753178393,-0.0018797539923725646,
0.026663553094241611,-0.0040572317687748707,
0.02806157988479482,-0.00680101383489225,
0.028543307086614175,-0.00984251968503937,
0.02806157988479482,-0.012884025535186491,
0.026663553094241611,-0.015627807601303868,
0.024486075317839306,-0.017805285377706176,
0.021742293251721924,-0.019203312168259386,
0.018700787401574805,-0.01968503937007874,
0.015659281551427682,-0.019203312168259386,
0.012915499485310306,-0.017805285377706176,
0.010738021708907997,-0.015627807601303872,
0.0093399949183547871,-0.012884025535186491,
0.0088582677165354329,-0.0098425196850393734,
0.0093399949183547871,-0.0068010138348922524,
0.010738021708907997,-0.0040572317687748733,
0.012915499485310301,-0.0018797539923725657,
0.015659281551427682,-0.00048172720181935506,
0*
4,1,19,
0.018700787401574805,0.01968503937007874,
0.021742293251721924,0.019203312168259386,
0.0244860753178393,0.017805285377706176,
0.026663553094241611,0.015627807601303872,
0.02806157988479482,0.012884025535186491,
0.028543307086614175,0.00984251968503937,
0.02806157988479482,0.0068010138348922507,
0.026663553094241611,0.0040572317687748724,
0.024486075317839306,0.0018797539923725657,
0.021742293251721924,0.00048172720181935506,
0.018700787401574805,0,
0.015659281551427682,0.00048172720181935506,
0.012915499485310306,0.0018797539923725635,
0.010738021708907997,0.00405723176877487,
0.0093399949183547871,0.0068010138348922489,
0.0088582677165354329,0.0098425196850393682,
0.0093399949183547871,0.012884025535186489,
0.010738021708907997,0.015627807601303868,
0.012915499485310301,0.017805285377706176,
0.015659281551427682,0.019203312168259386,
0*
4,1,3,
-0.028543307086614175,0.00984251968503937,
-0.0088582677165354329,0.00984251968503937,
-0.0088582677165354329,-0.00984251968503937,
-0.028543307086614175,-0.00984251968503937,
0*
4,1,3,
-0.018700787401574805,-0.01968503937007874,
-0.018700787401574805,0,
0.018700787401574805,0,
0.018700787401574805,-0.01968503937007874,
0*
4,1,3,
0.028543307086614175,-0.00984251968503937,
0.0088582677165354329,-0.00984251968503937,
0.0088582677165354329,0.00984251968503937,
0.028543307086614175,0.00984251968503937,
0*
4,1,3,
0.018700787401574805,0.01968503937007874,
0.018700787401574805,0,
-0.018700787401574805,0,
-0.018700787401574805,0.01968503937007874,
0*%
%ADD58COMP126,0.25X-0.475X0.25X-0.475X-0.25X0.475X-0.25X0.475X0.25X0*%
%ADD59R,0.059055118110236227X0.03937007874015748*%
G01*
D10*
G36*
X0006366141Y0003039370D02*
G01*
X0006366141Y0002999999D01*
X0006287401Y0002999999D01*
X0006287401Y0003039370D01*
X0006366141Y0003039370D01*
G37*
X0006366141Y0003039370D02*
X0006366141Y0002999999D01*
X0006287401Y0002999999D01*
X0006287401Y0003039370D01*
X0006366141Y0003039370D01*
G36*
X0006720472Y0003039370D02*
G01*
X0006720472Y0002999999D01*
X0006677165Y0002999999D01*
X0006677165Y0003039370D01*
X0006720472Y0003039370D01*
G37*
X0006720472Y0003039370D02*
X0006720472Y0002999999D01*
X0006677165Y0002999999D01*
X0006677165Y0003039370D01*
X0006720472Y0003039370D01*
G36*
X0006838582Y0002881889D02*
G01*
X0006838582Y0002842519D01*
X0006759842Y0002842519D01*
X0006759842Y0002881889D01*
X0006838582Y0002881889D01*
G37*
X0006838582Y0002881889D02*
X0006838582Y0002842519D01*
X0006759842Y0002842519D01*
X0006759842Y0002881889D01*
X0006838582Y0002881889D01*
G36*
X0006570817Y0002881841D02*
G01*
X0006570817Y0002842471D01*
X0006523573Y0002842471D01*
X0006523573Y0002881841D01*
X0006570817Y0002881841D01*
G37*
X0006570817Y0002881841D02*
X0006570817Y0002842471D01*
X0006523573Y0002842471D01*
X0006523573Y0002881841D01*
X0006570817Y0002881841D01*
G36*
X0006708661Y0003338582D02*
G01*
X0006708661Y0003224409D01*
X0006665354Y0003224409D01*
X0006665354Y0003338582D01*
X0006708661Y0003338582D01*
G37*
X0006708661Y0003338582D02*
X0006708661Y0003224409D01*
X0006665354Y0003224409D01*
X0006665354Y0003338582D01*
X0006708661Y0003338582D01*
G36*
X0006484251Y0002881889D02*
G01*
X0006484251Y0002842519D01*
X0006405511Y0002842519D01*
X0006405511Y0002881889D01*
X0006484251Y0002881889D01*
G37*
X0006484251Y0002881889D02*
X0006484251Y0002842519D01*
X0006405511Y0002842519D01*
X0006405511Y0002881889D01*
X0006484251Y0002881889D01*
G36*
X0006582677Y0003338582D02*
G01*
X0006582677Y0003224409D01*
X0006539370Y0003224409D01*
X0006539370Y0003338582D01*
X0006582677Y0003338582D01*
G37*
X0006582677Y0003338582D02*
X0006582677Y0003224409D01*
X0006539370Y0003224409D01*
X0006539370Y0003338582D01*
X0006582677Y0003338582D01*
G36*
X0006570866Y0003039370D02*
G01*
X0006570866Y0002999999D01*
X0006523622Y0002999999D01*
X0006523622Y0003039370D01*
X0006570866Y0003039370D01*
G37*
X0006570866Y0003039370D02*
X0006570866Y0002999999D01*
X0006523622Y0002999999D01*
X0006523622Y0003039370D01*
X0006570866Y0003039370D01*
G36*
X0006838582Y0003039370D02*
G01*
X0006838582Y0002999999D01*
X0006759842Y0002999999D01*
X0006759842Y0003039370D01*
X0006838582Y0003039370D01*
G37*
X0006838582Y0003039370D02*
X0006838582Y0002999999D01*
X0006759842Y0002999999D01*
X0006759842Y0003039370D01*
X0006838582Y0003039370D01*
G36*
X0006484251Y0003039370D02*
G01*
X0006484251Y0002999999D01*
X0006405511Y0002999999D01*
X0006405511Y0003039370D01*
X0006484251Y0003039370D01*
G37*
X0006484251Y0003039370D02*
X0006484251Y0002999999D01*
X0006405511Y0002999999D01*
X0006405511Y0003039370D01*
X0006484251Y0003039370D01*
G36*
X0006956692Y0003039370D02*
G01*
X0006956692Y0002999999D01*
X0006877952Y0002999999D01*
X0006877952Y0003039370D01*
X0006956692Y0003039370D01*
G37*
X0006956692Y0003039370D02*
X0006956692Y0002999999D01*
X0006877952Y0002999999D01*
X0006877952Y0003039370D01*
X0006956692Y0003039370D01*
G36*
X0006720472Y0002881889D02*
G01*
X0006720472Y0002842519D01*
X0006677165Y0002842519D01*
X0006677165Y0002881889D01*
X0006720472Y0002881889D01*
G37*
X0006720472Y0002881889D02*
X0006720472Y0002842519D01*
X0006677165Y0002842519D01*
X0006677165Y0002881889D01*
X0006720472Y0002881889D01*
G36*
X0006956692Y0002881889D02*
G01*
X0006956692Y0002842519D01*
X0006877952Y0002842519D01*
X0006877952Y0002881889D01*
X0006956692Y0002881889D01*
G37*
X0006956692Y0002881889D02*
X0006956692Y0002842519D01*
X0006877952Y0002842519D01*
X0006877952Y0002881889D01*
X0006956692Y0002881889D01*
G36*
X0006366141Y0002881889D02*
G01*
X0006366141Y0002842519D01*
X0006287401Y0002842519D01*
X0006287401Y0002881889D01*
X0006366141Y0002881889D01*
G37*
X0006366141Y0002881889D02*
X0006366141Y0002842519D01*
X0006287401Y0002842519D01*
X0006287401Y0002881889D01*
X0006366141Y0002881889D01*
G36*
X0006582677Y0002669291D02*
G01*
X0006582677Y0002555118D01*
X0006539370Y0002555118D01*
X0006539370Y0002669291D01*
X0006582677Y0002669291D01*
G37*
X0006582677Y0002669291D02*
X0006582677Y0002555118D01*
X0006539370Y0002555118D01*
X0006539370Y0002669291D01*
X0006582677Y0002669291D01*
G36*
X0006708661Y0002665354D02*
G01*
X0006708661Y0002551181D01*
X0006665354Y0002551181D01*
X0006665354Y0002665354D01*
X0006708661Y0002665354D01*
G37*
X0006708661Y0002665354D02*
X0006708661Y0002551181D01*
X0006665354Y0002551181D01*
X0006665354Y0002665354D01*
X0006708661Y0002665354D01*
D11*
X0006236614Y0002580314D03*
X0006311417Y0002580314D03*
D12*
X0005884645Y0002799606D03*
X0005963385Y0002799606D03*
D11*
X0007682677Y0003048818D03*
X0007757480Y0003048818D03*
D13*
X0007795275Y0004251968D03*
D14*
X0005744094Y0003725885D03*
X0005744094Y0003652066D03*
D11*
X0006222834Y0001851968D03*
X0006297637Y0001851968D03*
D15*
X0007525984Y0002916929D03*
X0007451181Y0002916929D03*
D16*
X0007691338Y0003205511D03*
X0007691338Y0003126771D03*
X0005744094Y0003570866D03*
X0005744094Y0003492125D03*
D14*
X0005830708Y0003725885D03*
X0005830708Y0003652066D03*
D11*
X0006236614Y0002462204D03*
X0006311417Y0002462204D03*
D12*
X0007519685Y0003976377D03*
X0007598425Y0003976377D03*
D17*
X0007085433Y0003623858D03*
X0007006692Y0003623858D03*
D18*
X0005799212Y0001669291D03*
X0006066929Y0001669291D03*
D19*
X0006031496Y0001622047D03*
X0006031496Y0001716535D03*
X0005933070Y0001622047D03*
X0005933070Y0001716535D03*
X0005834645Y0001622047D03*
X0005834645Y0001716535D03*
D20*
X0006087795Y0001941338D03*
D21*
X0006087795Y0001992519D03*
D22*
X0007096751Y0003037244D03*
X0007096751Y0003112047D03*
X0007022933Y0003074645D03*
D23*
X0006314960Y0002173228D03*
X0006228346Y0002173228D03*
D24*
X0006023622Y0002604330D03*
X0006023622Y0002679133D03*
D16*
X0007291338Y0002255905D03*
X0007291338Y0002177165D03*
D13*
X0005433070Y0004251968D03*
D17*
X0007085433Y0003545118D03*
X0007006692Y0003545118D03*
D25*
X0005940944Y0004055118D03*
X0005940944Y0004133858D03*
D17*
X0007085433Y0003781338D03*
X0007006692Y0003781338D03*
D16*
X0005744094Y0003885826D03*
X0005744094Y0003807086D03*
D12*
X0007256692Y0003114015D03*
X0007335433Y0003114015D03*
D16*
X0005830708Y0003570866D03*
X0005830708Y0003492125D03*
D12*
X0006038582Y0002798818D03*
X0006117322Y0002798818D03*
D17*
X0007085433Y0003702598D03*
X0007006692Y0003702598D03*
D26*
X0007170275Y0002236220D03*
X0007170275Y0002275590D03*
X0007097440Y0002275590D03*
X0007097440Y0002236220D03*
D27*
X0007133858Y0002255905D03*
D28*
X0006275590Y0004035433D03*
X0006275590Y0003956692D03*
X0006275590Y0003877952D03*
X0006275590Y0003799212D03*
X0006275590Y0003720472D03*
X0006275590Y0003641732D03*
X0006275590Y0003562992D03*
X0006275590Y0003484251D03*
D29*
X0006377952Y0003425196D03*
X0006456692Y0003425196D03*
X0006535433Y0003425196D03*
X0006614173Y0003425196D03*
X0006692913Y0003425196D03*
X0006771653Y0003425196D03*
D28*
X0006874015Y0003484251D03*
X0006874015Y0003562992D03*
X0006874015Y0003641732D03*
X0006874015Y0003720472D03*
X0006874015Y0003799212D03*
X0006874015Y0003877952D03*
X0006874015Y0003956692D03*
X0006874015Y0004035433D03*
D15*
X0005938976Y0004251968D03*
X0005864173Y0004251968D03*
D30*
X0005872047Y0002529527D03*
X0005872047Y0002566929D03*
X0005872047Y0002604330D03*
X0005765748Y0002604330D03*
X0005765748Y0002529527D03*
D12*
X0007006692Y0004017559D03*
X0007085433Y0004017559D03*
D31*
X0007496062Y0003059547D03*
X0007515748Y0003059547D03*
X0007535433Y0003059547D03*
X0007555118Y0003059547D03*
X0007574803Y0003059547D03*
X0007594488Y0003059547D03*
D32*
X0007621555Y0003086614D03*
X0007621555Y0003106299D03*
X0007621555Y0003125984D03*
X0007621555Y0003145669D03*
X0007621555Y0003165354D03*
X0007621555Y0003185039D03*
D31*
X0007594488Y0003212106D03*
X0007574803Y0003212106D03*
X0007555118Y0003212106D03*
X0007535433Y0003212106D03*
X0007515748Y0003212106D03*
X0007496062Y0003212106D03*
D32*
X0007468996Y0003185039D03*
X0007468996Y0003165354D03*
X0007468996Y0003145669D03*
X0007468996Y0003125984D03*
X0007468996Y0003106299D03*
X0007468996Y0003086614D03*
D33*
X0007545275Y0003135826D03*
D16*
X0005527559Y0002350393D03*
X0005527559Y0002271653D03*
X0007409448Y0002255905D03*
X0007409448Y0002177165D03*
D34*
X0007248425Y0004116141D03*
X0007475984Y0004116141D03*
D35*
X0007488188Y0004074409D03*
X0007456692Y0004074409D03*
D36*
X0007411417Y0004074409D03*
X0007372047Y0004074409D03*
X0007352362Y0004074409D03*
X0007312992Y0004074409D03*
D35*
X0007267716Y0004074409D03*
X0007236220Y0004074409D03*
X0007236220Y0004074409D03*
X0007267716Y0004074409D03*
D36*
X0007293307Y0004074409D03*
X0007332677Y0004074409D03*
X0007391732Y0004074409D03*
X0007431102Y0004074409D03*
D35*
X0007456692Y0004074409D03*
X0007488188Y0004074409D03*
D37*
X0007136811Y0004253228D03*
X0007137204Y0004093082D03*
X0007587888Y0004093082D03*
X0007587204Y0004261417D03*
D13*
X0005433070Y0001614173D03*
D38*
X0005533464Y0001846456D03*
X0005533464Y0002090551D03*
X0005679133Y0002090551D03*
X0005679133Y0001846456D03*
D24*
X0006326771Y0003238188D03*
X0006326771Y0003312992D03*
D12*
X0006061811Y0003860078D03*
X0006140551Y0003860078D03*
D39*
X0006019685Y0003224409D03*
D40*
X0005919685Y0003224409D03*
X0005819685Y0003224409D03*
X0005719685Y0003224409D03*
X0005619685Y0003224409D03*
X0005519685Y0003224409D03*
D38*
X0007631889Y0003826771D03*
X0007631889Y0003582677D03*
X0007777559Y0003582677D03*
X0007777559Y0003826771D03*
D12*
X0005744094Y0003964566D03*
X0005822834Y0003964566D03*
X0007006692Y0003938818D03*
X0007085433Y0003938818D03*
D13*
X0007795275Y0001614173D03*
D24*
X0006417716Y0001970078D03*
X0006417716Y0002044881D03*
D41*
X0006226870Y0002000629D03*
X0006226870Y0001963228D03*
X0006226870Y0001925826D03*
X0006316437Y0001925826D03*
X0006316437Y0001963228D03*
X0006316437Y0002000629D03*
D24*
X0005685039Y0002513779D03*
X0005685039Y0002588582D03*
D12*
X0007256692Y0003267716D03*
X0007335433Y0003267716D03*
D38*
X0005435039Y0003799212D03*
X0005435039Y0003555118D03*
X0005580708Y0003799212D03*
X0005580708Y0003555118D03*
D22*
X0007096751Y0003194724D03*
X0007096751Y0003269527D03*
X0007022933Y0003232125D03*
D42*
X0007042519Y0001851968D03*
X0007542519Y0001851968D03*
D43*
X0005542519Y0002901968D03*
X0007700000Y0002901968D03*
G04 next file*
G04 Gerber Fmt 4.6, Leading zero omitted, Abs format (unit mm)*
G04 Created by KiCad (PCBNEW (6.0.7)) date 2022-11-21 20:09:17*
G01*
G04 APERTURE LIST*
G04 Aperture macros list*
G04 Aperture macros list end*
G04 APERTURE END LIST*
D54*
G36*
X0001468503Y0004570866D02*
G01*
X0002224409Y0004570866D01*
X0002165354Y0004228346D01*
X0001472621Y0004224761D01*
X0001468503Y0004570866D01*
G37*
X0001468503Y0004570866D02*
X0002224409Y0004570866D01*
X0002165354Y0004228346D01*
X0001472621Y0004224761D01*
X0001468503Y0004570866D01*
G36*
X0001885826Y0002169291D02*
G01*
X0001925196Y0002169291D01*
X0001925196Y0002090551D01*
X0001885826Y0002090551D01*
X0001885826Y0002169291D01*
G37*
X0001885826Y0002169291D02*
X0001925196Y0002169291D01*
X0001925196Y0002090551D01*
X0001885826Y0002090551D01*
X0001885826Y0002169291D01*
G36*
X0002086614Y0004625984D02*
G01*
X0002165354Y0004625984D01*
X0002165354Y0004586614D01*
X0002086614Y0004586614D01*
X0002086614Y0004625984D01*
G37*
X0002086614Y0004625984D02*
X0002165354Y0004625984D01*
X0002165354Y0004586614D01*
X0002086614Y0004586614D01*
X0002086614Y0004625984D01*
G36*
X0001496062Y0004625984D02*
G01*
X0001574803Y0004625984D01*
X0001574803Y0004586614D01*
X0001496062Y0004586614D01*
X0001496062Y0004625984D01*
G37*
X0001496062Y0004625984D02*
X0001574803Y0004625984D01*
X0001574803Y0004586614D01*
X0001496062Y0004586614D01*
X0001496062Y0004625984D01*
G36*
X0001885826Y0002287401D02*
G01*
X0001925196Y0002287401D01*
X0001925196Y0002208661D01*
X0001885826Y0002208661D01*
X0001885826Y0002287401D01*
G37*
X0001885826Y0002287401D02*
X0001925196Y0002287401D01*
X0001925196Y0002208661D01*
X0001885826Y0002208661D01*
X0001885826Y0002287401D01*
G36*
X0001968503Y0004625984D02*
G01*
X0002047244Y0004625984D01*
X0002047244Y0004586614D01*
X0001968503Y0004586614D01*
X0001968503Y0004625984D01*
G37*
X0001968503Y0004625984D02*
X0002047244Y0004625984D01*
X0002047244Y0004586614D01*
X0001968503Y0004586614D01*
X0001968503Y0004625984D01*
G36*
X0001850393Y0004625984D02*
G01*
X0001929133Y0004625984D01*
X0001929133Y0004586614D01*
X0001850393Y0004586614D01*
X0001850393Y0004625984D01*
G37*
X0001850393Y0004625984D02*
X0001929133Y0004625984D01*
X0001929133Y0004586614D01*
X0001850393Y0004586614D01*
X0001850393Y0004625984D01*
G36*
X0001736220Y0002051181D02*
G01*
X0001775590Y0002051181D01*
X0001775590Y0001972440D01*
X0001736220Y0001972440D01*
X0001736220Y0002051181D01*
G37*
X0001736220Y0002051181D02*
X0001775590Y0002051181D01*
X0001775590Y0001972440D01*
X0001736220Y0001972440D01*
X0001736220Y0002051181D01*
G36*
X0001885826Y0002051181D02*
G01*
X0001925196Y0002051181D01*
X0001925196Y0001972440D01*
X0001885826Y0001972440D01*
X0001885826Y0002051181D01*
G37*
X0001885826Y0002051181D02*
X0001925196Y0002051181D01*
X0001925196Y0001972440D01*
X0001885826Y0001972440D01*
X0001885826Y0002051181D01*
G36*
X0001736220Y0002169291D02*
G01*
X0001775590Y0002169291D01*
X0001775590Y0002090551D01*
X0001736220Y0002090551D01*
X0001736220Y0002169291D01*
G37*
X0001736220Y0002169291D02*
X0001775590Y0002169291D01*
X0001775590Y0002090551D01*
X0001736220Y0002090551D01*
X0001736220Y0002169291D01*
G36*
X0001736220Y0002287401D02*
G01*
X0001775590Y0002287401D01*
X0001775590Y0002208661D01*
X0001736220Y0002208661D01*
X0001736220Y0002287401D01*
G37*
X0001736220Y0002287401D02*
X0001775590Y0002287401D01*
X0001775590Y0002208661D01*
X0001736220Y0002208661D01*
X0001736220Y0002287401D01*
G36*
X0001614173Y0004625984D02*
G01*
X0001692913Y0004625984D01*
X0001692913Y0004586614D01*
X0001614173Y0004586614D01*
X0001614173Y0004625984D01*
G37*
X0001614173Y0004625984D02*
X0001692913Y0004625984D01*
X0001692913Y0004586614D01*
X0001614173Y0004586614D01*
X0001614173Y0004625984D01*
G36*
X0001732283Y0004625984D02*
G01*
X0001811023Y0004625984D01*
X0001811023Y0004586614D01*
X0001732283Y0004586614D01*
X0001732283Y0004625984D01*
G37*
X0001732283Y0004625984D02*
X0001811023Y0004625984D01*
X0001811023Y0004586614D01*
X0001732283Y0004586614D01*
X0001732283Y0004625984D01*
D55*
X0001454724Y0002692913D03*
X0001454724Y0002767716D03*
D56*
X0002385826Y0001614173D03*
X0002385826Y0001740157D03*
X0002192913Y0001740157D03*
X0002192913Y0001614173D03*
D55*
X0002062992Y0001631889D03*
X0002062992Y0001706692D03*
D56*
X0002809055Y0003834645D03*
X0002809055Y0003960629D03*
X0002616141Y0003960629D03*
X0002616141Y0003834645D03*
D55*
X0002492125Y0003854330D03*
X0002492125Y0003929133D03*
D56*
X0001328740Y0002690944D03*
X0001328740Y0002816929D03*
X0001135826Y0002816929D03*
X0001135826Y0002690944D03*
G04 next file*
G04 Gerber Fmt 4.6, Leading zero omitted, Abs format (unit mm)*
G04 Created by KiCad (PCBNEW (6.0.7)) date 2022-11-21 20:11:54*
G01*
G04 APERTURE LIST*
G04 Aperture macros list*
G04 Aperture macros list end*
G04 APERTURE END LIST*
D57*
G36*
X0003901574Y0002909448D02*
G01*
X0003862204Y0002909448D01*
X0003862204Y0002988188D01*
X0003901574Y0002988188D01*
X0003901574Y0002909448D01*
G37*
X0003901574Y0002909448D02*
X0003862204Y0002909448D01*
X0003862204Y0002988188D01*
X0003901574Y0002988188D01*
X0003901574Y0002909448D01*
G36*
X0003783464Y0000468503D02*
G01*
X0003622047Y0000468503D01*
X0003622047Y0000507874D01*
X0003783464Y0000507874D01*
X0003783464Y0000468503D01*
G37*
X0003783464Y0000468503D02*
X0003622047Y0000468503D01*
X0003622047Y0000507874D01*
X0003783464Y0000507874D01*
X0003783464Y0000468503D01*
G36*
X0003901574Y0002791338D02*
G01*
X0003862204Y0002791338D01*
X0003862204Y0002870078D01*
X0003901574Y0002870078D01*
X0003901574Y0002791338D01*
G37*
X0003901574Y0002791338D02*
X0003862204Y0002791338D01*
X0003862204Y0002870078D01*
X0003901574Y0002870078D01*
X0003901574Y0002791338D01*
G36*
X0004051181Y0003027559D02*
G01*
X0004011811Y0003027559D01*
X0004011811Y0003106299D01*
X0004051181Y0003106299D01*
X0004051181Y0003027559D01*
G37*
X0004051181Y0003027559D02*
X0004011811Y0003027559D01*
X0004011811Y0003106299D01*
X0004051181Y0003106299D01*
X0004051181Y0003027559D01*
G36*
X0004291338Y0000468503D02*
G01*
X0004129921Y0000468503D01*
X0004129921Y0000507874D01*
X0004291338Y0000507874D01*
X0004291338Y0000468503D01*
G37*
X0004291338Y0000468503D02*
X0004129921Y0000468503D01*
X0004129921Y0000507874D01*
X0004291338Y0000507874D01*
X0004291338Y0000468503D01*
G36*
X0004496062Y0004346456D02*
G01*
X0004112204Y0004196850D01*
X0004000000Y0004336614D01*
X0003911417Y0004336614D01*
X0003773622Y0004194881D01*
X0003505905Y0004763779D01*
X0004057086Y0004785433D01*
X0004496062Y0004346456D01*
G37*
X0004496062Y0004346456D02*
X0004112204Y0004196850D01*
X0004000000Y0004336614D01*
X0003911417Y0004336614D01*
X0003773622Y0004194881D01*
X0003505905Y0004763779D01*
X0004057086Y0004785433D01*
X0004496062Y0004346456D01*
G36*
X0003901574Y0003027559D02*
G01*
X0003862204Y0003027559D01*
X0003862204Y0003106299D01*
X0003901574Y0003106299D01*
X0003901574Y0003027559D01*
G37*
X0003901574Y0003027559D02*
X0003862204Y0003027559D01*
X0003862204Y0003106299D01*
X0003901574Y0003106299D01*
X0003901574Y0003027559D01*
G36*
X0004051181Y0002909448D02*
G01*
X0004011811Y0002909448D01*
X0004011811Y0002988188D01*
X0004051181Y0002988188D01*
X0004051181Y0002909448D01*
G37*
X0004051181Y0002909448D02*
X0004011811Y0002909448D01*
X0004011811Y0002988188D01*
X0004051181Y0002988188D01*
X0004051181Y0002909448D01*
G36*
X0004051181Y0002791338D02*
G01*
X0004011811Y0002791338D01*
X0004011811Y0002870078D01*
X0004051181Y0002870078D01*
X0004051181Y0002791338D01*
G37*
X0004051181Y0002791338D02*
X0004011811Y0002791338D01*
X0004011811Y0002870078D01*
X0004051181Y0002870078D01*
X0004051181Y0002791338D01*
G36*
X0004314288Y0000515409D02*
G01*
X0003562178Y0000515454D01*
X0003621234Y0000857973D01*
X0004310170Y0000861513D01*
X0004314288Y0000515409D01*
G37*
X0004314288Y0000515409D02*
X0003562178Y0000515454D01*
X0003621234Y0000857973D01*
X0004310170Y0000861513D01*
X0004314288Y0000515409D01*
D58*
X0004332677Y0002385826D03*
X0004332677Y0002311023D03*
D59*
X0003401574Y0003464566D03*
X0003401574Y0003338582D03*
X0003594488Y0003338582D03*
X0003594488Y0003464566D03*
D58*
X0003724409Y0003446850D03*
X0003724409Y0003372047D03*
D59*
X0002978346Y0001244094D03*
X0002978346Y0001118110D03*
X0003171259Y0001118110D03*
X0003171259Y0001244094D03*
D58*
X0003295275Y0001224409D03*
X0003295275Y0001149606D03*
D59*
X0004458661Y0002387795D03*
X0004458661Y0002261811D03*
X0004651574Y0002261811D03*
X0004651574Y0002387795D03*
M02*