%MOIN*%
%OFA0B0*%
%FSLAX36Y36*%
%IPPOS*%
%LPD*%
%ADD10C,0*%
D10*
X008228346Y000000000D02*
X008228346Y000000000D01*
X008229471Y000000016D01*
X008230593Y000000063D01*
X008231716Y000000144D01*
X008232834Y000000256D01*
X008233949Y000000400D01*
X008235059Y000000576D01*
X008236165Y000000784D01*
X008237263Y000001022D01*
X008238355Y000001293D01*
X008239437Y000001594D01*
X008240512Y000001926D01*
X008241576Y000002289D01*
X008242629Y000002682D01*
X008243672Y000003105D01*
X008244701Y000003557D01*
X008245717Y000004039D01*
X008246719Y000004550D01*
X008247705Y000005088D01*
X008248677Y000005655D01*
X008249631Y000006249D01*
X008250568Y000006870D01*
X008251488Y000007518D01*
X008252387Y000008192D01*
X008253267Y000008891D01*
X008254128Y000009615D01*
X008254967Y000010364D01*
X008255785Y000011136D01*
X008256579Y000011931D01*
X008257351Y000012749D01*
X008258100Y000013588D01*
X008258823Y000014448D01*
X008259523Y000015328D01*
X008260197Y000016228D01*
X008260845Y000017147D01*
X008261466Y000018085D01*
X008262061Y000019038D01*
X008262628Y000020010D01*
X008263167Y000020997D01*
X008263677Y000021999D01*
X008264158Y000023014D01*
X008264611Y000024044D01*
X008265033Y000025085D01*
X008265426Y000026139D01*
X008265789Y000027203D01*
X008266120Y000028278D01*
X008266423Y000029361D01*
X008266692Y000030452D01*
X008266932Y000031551D01*
X008267140Y000032656D01*
X008267315Y000033766D01*
X008267460Y000034881D01*
X008267571Y000036000D01*
X008267652Y000037122D01*
X008267700Y000038245D01*
X008267716Y000039370D01*
X008267716Y005078740D01*
X008267700Y005079864D01*
X008267652Y005080987D01*
X008267571Y005082109D01*
X008267460Y005083227D01*
X008267315Y005084342D01*
X008267140Y005085453D01*
X008266932Y005086558D01*
X008266692Y005087657D01*
X008266423Y005088749D01*
X008266120Y005089831D01*
X008265789Y005090906D01*
X008265426Y005091970D01*
X008265033Y005093023D01*
X008264611Y005094065D01*
X008264158Y005095095D01*
X008263677Y005096111D01*
X008263167Y005097113D01*
X008262628Y005098098D01*
X008262061Y005099070D01*
X008261466Y005100024D01*
X008260845Y005100961D01*
X008260197Y005101881D01*
X008259523Y005102781D01*
X008258823Y005103661D01*
X008258100Y005104522D01*
X008257351Y005105360D01*
X008256579Y005106178D01*
X008255785Y005106973D01*
X008254967Y005107745D01*
X008254128Y005108494D01*
X008253267Y005109217D01*
X008252387Y005109917D01*
X008251488Y005110591D01*
X008250568Y005111238D01*
X008249631Y005111860D01*
X008248677Y005112454D01*
X008247705Y005113021D01*
X008246719Y005113559D01*
X008245717Y005114070D01*
X008244701Y005114552D01*
X008243672Y005115005D01*
X008242629Y005115427D01*
X008241576Y005115820D01*
X008240512Y005116183D01*
X008239437Y005116514D01*
X008238355Y005116816D01*
X008237263Y005117087D01*
X008236165Y005117326D01*
X008235059Y005117533D01*
X008233949Y005117709D01*
X008232834Y005117853D01*
X008231716Y005117965D01*
X008230593Y005118045D01*
X008229471Y005118093D01*
X008228346Y005118110D01*
X000039370Y005118110D01*
X000038245Y005118093D01*
X000037122Y005118045D01*
X000036000Y005117965D01*
X000034881Y005117853D01*
X000033766Y005117709D01*
X000032656Y005117533D01*
X000031551Y005117326D01*
X000030452Y005117087D01*
X000029361Y005116816D01*
X000028278Y005116514D01*
X000027203Y005116183D01*
X000026139Y005115820D01*
X000025085Y005115427D01*
X000024044Y005115005D01*
X000023014Y005114552D01*
X000021999Y005114070D01*
X000020997Y005113559D01*
X000020010Y005113021D01*
X000019038Y005112454D01*
X000018085Y005111860D01*
X000017147Y005111238D01*
X000016228Y005110591D01*
X000015328Y005109917D01*
X000014448Y005109217D01*
X000013588Y005108494D01*
X000012749Y005107745D01*
X000011931Y005106973D01*
X000011136Y005106178D01*
X000010364Y005105360D01*
X000009615Y005104522D01*
X000008891Y005103661D01*
X000008192Y005102781D01*
X000007518Y005101881D01*
X000006870Y005100961D01*
X000006249Y005100024D01*
X000005655Y005099070D01*
X000005088Y005098098D01*
X000004550Y005097113D01*
X000004039Y005096111D01*
X000003557Y005095095D01*
X000003105Y005094065D01*
X000002682Y005093023D01*
X000002289Y005091970D01*
X000001926Y005090906D01*
X000001594Y005089831D01*
X000001293Y005088749D01*
X000001022Y005087657D01*
X000000784Y005086558D01*
X000000576Y005085453D01*
X000000400Y005084342D01*
X000000256Y005083227D01*
X000000144Y005082109D01*
X000000063Y005080987D01*
X000000016Y005079864D01*
X000000000Y005078740D01*
X000000000Y000039370D01*
X000000016Y000038245D01*
X000000063Y000037122D01*
X000000144Y000036000D01*
X000000256Y000034881D01*
X000000400Y000033766D01*
X000000576Y000032656D01*
X000000784Y000031551D01*
X000001022Y000030452D01*
X000001293Y000029361D01*
X000001594Y000028278D01*
X000001926Y000027203D01*
X000002289Y000026139D01*
X000002682Y000025085D01*
X000003105Y000024044D01*
X000003557Y000023014D01*
X000004039Y000021999D01*
X000004550Y000020997D01*
X000005088Y000020010D01*
X000005655Y000019038D01*
X000006249Y000018085D01*
X000006870Y000017147D01*
X000007518Y000016228D01*
X000008192Y000015328D01*
X000008891Y000014448D01*
X000009615Y000013588D01*
X000010364Y000012749D01*
X000011136Y000011931D01*
X000011931Y000011136D01*
X000012749Y000010364D01*
X000013588Y000009615D01*
X000014448Y000008891D01*
X000015328Y000008192D01*
X000016228Y000007518D01*
X000017147Y000006870D01*
X000018085Y000006249D01*
X000019038Y000005655D01*
X000020010Y000005088D01*
X000020997Y000004550D01*
X000021999Y000004039D01*
X000023014Y000003557D01*
X000024044Y000003105D01*
X000025085Y000002682D01*
X000026139Y000002289D01*
X000027203Y000001926D01*
X000028278Y000001594D01*
X000029361Y000001293D01*
X000030452Y000001022D01*
X000031551Y000000784D01*
X000032656Y000000576D01*
X000033766Y000000400D01*
X000034881Y000000256D01*
X000036000Y000000144D01*
X000037122Y000000063D01*
X000038245Y000000016D01*
X000039370Y000000000D01*
X008228346Y000000000D01*
X007000000Y002909448D02*
X007000000Y002909448D01*
X006657480Y002909448D01*
X006657480Y002665354D01*
X006590551Y002665354D01*
X006590551Y002909448D01*
X006244094Y002909448D01*
X006244094Y002976378D01*
X006590551Y002976378D01*
X006590551Y003224409D01*
X006657480Y003224409D01*
X006657480Y002976378D01*
X007000000Y002976378D01*
X007000000Y002909448D01*
X001975258Y004685039D02*
X001975258Y004685039D01*
X001686158Y004685039D01*
X001684120Y004685092D01*
X001682087Y004685250D01*
X001680064Y004685513D01*
X001678059Y004685881D01*
X001676075Y004686352D01*
X001674118Y004686925D01*
X001672193Y004687599D01*
X001670306Y004688371D01*
X001668461Y004689240D01*
X001666664Y004690204D01*
X001664919Y004691259D01*
X001663231Y004692403D01*
X001661605Y004693633D01*
X001660044Y004694946D01*
X001658554Y004696338D01*
X001657137Y004697805D01*
X001655799Y004699343D01*
X001654541Y004700948D01*
X001653369Y004702617D01*
X001652285Y004704344D01*
X001628964Y004743714D01*
X001627043Y004747384D01*
X001625518Y004751237D01*
X001624407Y004755228D01*
X001623721Y004759313D01*
X001623468Y004763449D01*
X001623652Y004767587D01*
X001624269Y004771684D01*
X001625313Y004775693D01*
X001626773Y004779570D01*
X001628632Y004783273D01*
X001630870Y004786759D01*
X001633462Y004789991D01*
X001636379Y004792933D01*
X001639589Y004795552D01*
X001643057Y004797819D01*
X001646743Y004799709D01*
X001650608Y004801201D01*
X001654609Y004802279D01*
X001658700Y004802931D01*
X001662837Y004803149D01*
X001998579Y004803149D01*
X002002716Y004802931D01*
X002006808Y004802279D01*
X002010808Y004801201D01*
X002014673Y004799709D01*
X002018360Y004797819D01*
X002021827Y004795552D01*
X002025037Y004792933D01*
X002027954Y004789991D01*
X002030546Y004786759D01*
X002032784Y004783273D01*
X002034643Y004779570D01*
X002036103Y004775693D01*
X002037147Y004771684D01*
X002037765Y004767587D01*
X002037948Y004763449D01*
X002037695Y004759313D01*
X002037009Y004755228D01*
X002035898Y004751237D01*
X002034373Y004747384D01*
X002032452Y004743714D01*
X002009132Y004704344D01*
X002008047Y004702617D01*
X002006875Y004700948D01*
X002005618Y004699343D01*
X002004279Y004697805D01*
X002002863Y004696338D01*
X002001372Y004694946D01*
X001999812Y004693633D01*
X001998185Y004692403D01*
X001996497Y004691259D01*
X001994752Y004690204D01*
X001992955Y004689240D01*
X001991111Y004688371D01*
X001989223Y004687599D01*
X001987299Y004686925D01*
X001985342Y004686352D01*
X001983358Y004685881D01*
X001981352Y004685513D01*
X001979330Y004685250D01*
X001977297Y004685092D01*
X001975258Y004685039D01*
X007795275Y001496062D02*
X007795275Y001496062D01*
X007808499Y001496805D01*
X007821557Y001499024D01*
X007834284Y001502690D01*
X007846521Y001507759D01*
X007858113Y001514166D01*
X007868915Y001521830D01*
X007878792Y001530656D01*
X007887617Y001540532D01*
X007895282Y001551334D01*
X007901689Y001562926D01*
X007906757Y001575163D01*
X007910424Y001587890D01*
X007912643Y001600948D01*
X007913385Y001614173D01*
X007913385Y002904091D01*
X007913603Y002908228D01*
X007914255Y002912320D01*
X007915333Y002916320D01*
X007916825Y002920185D01*
X007918715Y002923872D01*
X007920982Y002927339D01*
X007923601Y002930549D01*
X007926543Y002933467D01*
X007929775Y002936058D01*
X007933261Y002938296D01*
X007936964Y002940155D01*
X007940841Y002941615D01*
X007944850Y002942660D01*
X007948947Y002943277D01*
X007953086Y002943460D01*
X007957221Y002943207D01*
X007961307Y002942522D01*
X007965298Y002941410D01*
X007969150Y002939886D01*
X007972821Y002937965D01*
X008012191Y002914643D01*
X008013918Y002913559D01*
X008015586Y002912387D01*
X008017192Y002911129D01*
X008018730Y002909791D01*
X008020197Y002908374D01*
X008021588Y002906884D01*
X008022901Y002905323D01*
X008024131Y002903697D01*
X008025275Y002902009D01*
X008026331Y002900264D01*
X008027294Y002898467D01*
X008028163Y002896622D01*
X008028936Y002894735D01*
X008029609Y002892810D01*
X008030182Y002890853D01*
X008030653Y002888869D01*
X008031021Y002886864D01*
X008031284Y002884842D01*
X008031443Y002882809D01*
X008031496Y002880770D01*
X008031496Y001611411D01*
X008031464Y001610301D01*
X008030256Y001588802D01*
X008030011Y001586615D01*
X008025940Y001562655D01*
X008025449Y001560505D01*
X008018721Y001537153D01*
X008017992Y001535070D01*
X008008693Y001512620D01*
X008007735Y001510633D01*
X007995979Y001489362D01*
X007994804Y001487492D01*
X007980746Y001467679D01*
X007979371Y001465956D01*
X007963176Y001447831D01*
X007961618Y001446273D01*
X007943493Y001430077D01*
X007941767Y001428700D01*
X007921958Y001414645D01*
X007920080Y001413465D01*
X007898817Y001401713D01*
X007896824Y001400752D01*
X007874370Y001391453D01*
X007872295Y001390727D01*
X007848943Y001383999D01*
X007846795Y001383508D01*
X007822833Y001379437D01*
X007820644Y001379190D01*
X007799139Y001377983D01*
X007798034Y001377952D01*
X006741577Y001377952D01*
X006737439Y001378170D01*
X006733348Y001378821D01*
X006729348Y001379899D01*
X006725483Y001381391D01*
X006721796Y001383282D01*
X006718329Y001385549D01*
X006715119Y001388168D01*
X006712201Y001391109D01*
X006709609Y001394341D01*
X006707372Y001397828D01*
X006705512Y001401530D01*
X006704053Y001405407D01*
X006703008Y001409417D01*
X006702391Y001413513D01*
X006702208Y001417652D01*
X006702461Y001421787D01*
X006703146Y001425873D01*
X006704258Y001429864D01*
X006705782Y001433716D01*
X006707703Y001437387D01*
X006731025Y001476758D01*
X006732109Y001478485D01*
X006733282Y001480153D01*
X006734539Y001481759D01*
X006735877Y001483297D01*
X006737294Y001484764D01*
X006738784Y001486155D01*
X006740345Y001487468D01*
X006741971Y001488698D01*
X006743659Y001489842D01*
X006745404Y001490897D01*
X006747201Y001491861D01*
X006749046Y001492730D01*
X006750933Y001493503D01*
X006752858Y001494176D01*
X006754815Y001494749D01*
X006756799Y001495220D01*
X006758805Y001495588D01*
X006760827Y001495851D01*
X006762860Y001496010D01*
X006764898Y001496062D01*
X007795275Y001496062D01*
X005314960Y001614173D02*
X005314960Y001614173D01*
X005315703Y001600948D01*
X005317921Y001587890D01*
X005321588Y001575163D01*
X005326657Y001562926D01*
X005333063Y001551334D01*
X005340728Y001540532D01*
X005349553Y001530656D01*
X005359430Y001521830D01*
X005370232Y001514166D01*
X005381824Y001507759D01*
X005394061Y001502690D01*
X005406788Y001499024D01*
X005419846Y001496805D01*
X005433070Y001496062D01*
X006542187Y001496062D01*
X006544226Y001496010D01*
X006546259Y001495851D01*
X006548281Y001495588D01*
X006550287Y001495220D01*
X006552271Y001494749D01*
X006554228Y001494176D01*
X006556152Y001493503D01*
X006558040Y001492730D01*
X006559884Y001491861D01*
X006561681Y001490897D01*
X006563426Y001489842D01*
X006565114Y001488698D01*
X006566741Y001487468D01*
X006568301Y001486155D01*
X006569792Y001484764D01*
X006571208Y001483297D01*
X006572547Y001481759D01*
X006573804Y001480153D01*
X006574976Y001478485D01*
X006576061Y001476758D01*
X006599382Y001437387D01*
X006601303Y001433717D01*
X006602828Y001429864D01*
X006603939Y001425873D01*
X006604625Y001421787D01*
X006604878Y001417652D01*
X006604694Y001413513D01*
X006604077Y001409417D01*
X006603033Y001405408D01*
X006601573Y001401530D01*
X006599714Y001397828D01*
X006597476Y001394341D01*
X006594884Y001391109D01*
X006591967Y001388168D01*
X006588757Y001385549D01*
X006585289Y001383282D01*
X006581603Y001381392D01*
X006577738Y001379899D01*
X006573738Y001378821D01*
X006569646Y001378170D01*
X006565509Y001377952D01*
X005430314Y001377952D01*
X005429206Y001377983D01*
X005407702Y001379190D01*
X005405516Y001379437D01*
X005381546Y001383509D01*
X005379406Y001383998D01*
X005356045Y001390729D01*
X005353976Y001391453D01*
X005331518Y001400754D01*
X005329530Y001401711D01*
X005308261Y001413467D01*
X005306391Y001414642D01*
X005286576Y001428701D01*
X005284853Y001430076D01*
X005266734Y001446266D01*
X005265164Y001447835D01*
X005248976Y001465952D01*
X005247598Y001467680D01*
X005233538Y001487494D01*
X005232364Y001489363D01*
X005220608Y001510634D01*
X005219651Y001512622D01*
X005210350Y001535079D01*
X005209626Y001537148D01*
X005202896Y001560507D01*
X005202407Y001562648D01*
X005198334Y001586618D01*
X005198087Y001588805D01*
X005196881Y001610308D01*
X005196850Y001611416D01*
X005196850Y002841400D01*
X005196903Y002843438D01*
X005197061Y002845472D01*
X005197324Y002847494D01*
X005197692Y002849499D01*
X005198163Y002851483D01*
X005198736Y002853440D01*
X005199410Y002855365D01*
X005200182Y002857252D01*
X005201051Y002859097D01*
X005202015Y002860894D01*
X005203070Y002862639D01*
X005204214Y002864327D01*
X005205444Y002865953D01*
X005206757Y002867514D01*
X005208149Y002869004D01*
X005209616Y002870421D01*
X005211154Y002871759D01*
X005212759Y002873017D01*
X005214428Y002874189D01*
X005216155Y002875273D01*
X005255525Y002898594D01*
X005259196Y002900515D01*
X005263048Y002902040D01*
X005267039Y002903151D01*
X005271125Y002903837D01*
X005275260Y002904090D01*
X005279399Y002903907D01*
X005283495Y002903289D01*
X005287505Y002902245D01*
X005291382Y002900785D01*
X005295084Y002898926D01*
X005298571Y002896688D01*
X005301803Y002894096D01*
X005304744Y002891179D01*
X005307363Y002887969D01*
X005309630Y002884502D01*
X005311521Y002880815D01*
X005313013Y002876950D01*
X005314091Y002872950D01*
X005314742Y002868858D01*
X005314960Y002864721D01*
X005314960Y001614173D01*
X005433070Y004370078D02*
X005433070Y004370078D01*
X005419846Y004369335D01*
X005406788Y004367117D01*
X005394061Y004363450D01*
X005381824Y004358381D01*
X005370232Y004351974D01*
X005359430Y004344310D01*
X005349553Y004335485D01*
X005340728Y004325608D01*
X005333063Y004314806D01*
X005326657Y004303214D01*
X005321588Y004290978D01*
X005317921Y004278250D01*
X005315703Y004265191D01*
X005314960Y004251968D01*
X005314960Y003040790D01*
X005314742Y003036652D01*
X005314091Y003032561D01*
X005313013Y003028561D01*
X005311521Y003024696D01*
X005309630Y003021009D01*
X005307363Y003017542D01*
X005304744Y003014332D01*
X005301803Y003011414D01*
X005298571Y003008822D01*
X005295084Y003006585D01*
X005291382Y003004725D01*
X005287505Y003003266D01*
X005283495Y003002221D01*
X005279399Y003001604D01*
X005275260Y003001421D01*
X005271125Y003001674D01*
X005267039Y003002359D01*
X005263048Y003003471D01*
X005259196Y003004995D01*
X005255525Y003006916D01*
X005216155Y003030238D01*
X005214428Y003031322D01*
X005212759Y003032494D01*
X005211154Y003033751D01*
X005209616Y003035090D01*
X005208149Y003036506D01*
X005206757Y003037997D01*
X005205444Y003039557D01*
X005204214Y003041184D01*
X005203070Y003042872D01*
X005202015Y003044617D01*
X005201051Y003046414D01*
X005200182Y003048259D01*
X005199410Y003050146D01*
X005198736Y003052070D01*
X005198163Y003054027D01*
X005197692Y003056011D01*
X005197324Y003058017D01*
X005197061Y003060039D01*
X005196903Y003062072D01*
X005196850Y003064111D01*
X005196850Y004254725D01*
X005196881Y004255832D01*
X005198087Y004277336D01*
X005198333Y004279520D01*
X005202406Y004303484D01*
X005202897Y004305635D01*
X005209624Y004328987D01*
X005210354Y004331070D01*
X005219651Y004353516D01*
X005220609Y004355505D01*
X005232364Y004376776D01*
X005233537Y004378642D01*
X005247600Y004398463D01*
X005248975Y004400187D01*
X005265165Y004418306D01*
X005266735Y004419875D01*
X005284854Y004436064D01*
X005286575Y004437436D01*
X005306391Y004451498D01*
X005308262Y004452673D01*
X005329533Y004464430D01*
X005331513Y004465383D01*
X005353969Y004474684D01*
X005356052Y004475413D01*
X005379403Y004482141D01*
X005381553Y004482631D01*
X005405508Y004486701D01*
X005407704Y004486949D01*
X005429203Y004488157D01*
X005430302Y004488188D01*
X006486768Y004488188D01*
X006490906Y004487970D01*
X006494997Y004487319D01*
X006498997Y004486241D01*
X006502862Y004484749D01*
X006506549Y004482859D01*
X006510016Y004480592D01*
X006513227Y004477973D01*
X006516144Y004475031D01*
X006518736Y004471799D01*
X006520974Y004468312D01*
X006522833Y004464610D01*
X006524292Y004460733D01*
X006525337Y004456724D01*
X006525954Y004452627D01*
X006526137Y004448488D01*
X006525884Y004444353D01*
X006525199Y004440267D01*
X006524087Y004436276D01*
X006522563Y004432424D01*
X006520642Y004428753D01*
X006497320Y004389383D01*
X006496236Y004387656D01*
X006495064Y004385988D01*
X006493807Y004384382D01*
X006492468Y004382844D01*
X006491052Y004381377D01*
X006489561Y004379985D01*
X006488001Y004378673D01*
X006486374Y004377443D01*
X006484686Y004376299D01*
X006482941Y004375243D01*
X006481144Y004374280D01*
X006479299Y004373411D01*
X006477412Y004372638D01*
X006475488Y004371965D01*
X006473531Y004371391D01*
X006471547Y004370920D01*
X006469541Y004370553D01*
X006467519Y004370289D01*
X006465486Y004370131D01*
X006463447Y004370078D01*
X005433070Y004370078D01*
X007913385Y004251968D02*
X007913385Y004251968D01*
X007912643Y004265191D01*
X007910424Y004278250D01*
X007906757Y004290978D01*
X007901689Y004303214D01*
X007895282Y004314806D01*
X007887617Y004325608D01*
X007878792Y004335485D01*
X007868915Y004344310D01*
X007858113Y004351974D01*
X007846521Y004358381D01*
X007834284Y004363450D01*
X007821557Y004367117D01*
X007808499Y004369335D01*
X007795275Y004370078D01*
X006686158Y004370078D01*
X006684120Y004370131D01*
X006682087Y004370289D01*
X006680064Y004370553D01*
X006678059Y004370920D01*
X006676075Y004371391D01*
X006674118Y004371965D01*
X006672193Y004372638D01*
X006670306Y004373411D01*
X006668461Y004374280D01*
X006666664Y004375243D01*
X006664919Y004376299D01*
X006663231Y004377443D01*
X006661605Y004378673D01*
X006660044Y004379985D01*
X006658554Y004381377D01*
X006657137Y004382844D01*
X006655799Y004384382D01*
X006654542Y004385988D01*
X006653369Y004387656D01*
X006652285Y004389383D01*
X006628964Y004428753D01*
X006627043Y004432424D01*
X006625518Y004436276D01*
X006624407Y004440267D01*
X006623721Y004444353D01*
X006623468Y004448488D01*
X006623651Y004452627D01*
X006624269Y004456724D01*
X006625313Y004460733D01*
X006626773Y004464610D01*
X006628632Y004468312D01*
X006630870Y004471799D01*
X006633462Y004475031D01*
X006636379Y004477973D01*
X006639589Y004480592D01*
X006643057Y004482859D01*
X006646743Y004484749D01*
X006650608Y004486241D01*
X006654608Y004487319D01*
X006658700Y004487970D01*
X006662837Y004488188D01*
X007798043Y004488188D01*
X007799143Y004488157D01*
X007820642Y004486949D01*
X007822836Y004486702D01*
X007846791Y004482631D01*
X007848943Y004482141D01*
X007872291Y004475414D01*
X007874376Y004474684D01*
X007896827Y004465385D01*
X007898814Y004464428D01*
X007920083Y004452673D01*
X007921954Y004451498D01*
X007941768Y004437438D01*
X007943496Y004436060D01*
X007961612Y004419873D01*
X007963181Y004418305D01*
X007979369Y004400186D01*
X007980746Y004398460D01*
X007994806Y004378645D01*
X007995980Y004376777D01*
X008007736Y004355506D01*
X008008691Y004353524D01*
X008017992Y004331070D01*
X008018721Y004328985D01*
X008025449Y004305636D01*
X008025940Y004303481D01*
X008030011Y004279524D01*
X008030256Y004277338D01*
X008031465Y004255832D01*
X008031496Y004254730D01*
X008031496Y003103481D01*
X008031443Y003101442D01*
X008031284Y003099409D01*
X008031021Y003097387D01*
X008030653Y003095382D01*
X008030182Y003093398D01*
X008029609Y003091441D01*
X008028936Y003089516D01*
X008028163Y003087629D01*
X008027294Y003085784D01*
X008026331Y003083987D01*
X008025275Y003082242D01*
X008024131Y003080554D01*
X008022901Y003078928D01*
X008021588Y003077367D01*
X008020197Y003075877D01*
X008018730Y003074460D01*
X008017192Y003073121D01*
X008015586Y003071864D01*
X008013918Y003070692D01*
X008012191Y003069608D01*
X007972821Y003046286D01*
X007969150Y003044365D01*
X007965298Y003042841D01*
X007961307Y003041729D01*
X007957221Y003041044D01*
X007953086Y003040791D01*
X007948947Y003040974D01*
X007944850Y003041591D01*
X007940841Y003042636D01*
X007936964Y003044095D01*
X007933261Y003045955D01*
X007929775Y003048193D01*
X007926543Y003050784D01*
X007923601Y003053702D01*
X007920982Y003056912D01*
X007918715Y003060379D01*
X007916825Y003064066D01*
X007915333Y003067931D01*
X007914255Y003071931D01*
X007913603Y003076022D01*
X007913385Y003080160D01*
X007913385Y004251968D01*
X002050777Y001113060D02*
X002050777Y001113060D01*
X002053253Y001116567D01*
X002056096Y001119784D01*
X002059273Y001122673D01*
X002062746Y001125198D01*
X002066473Y001127330D01*
X002070410Y001129043D01*
X002074510Y001130318D01*
X002078724Y001131138D01*
X002083003Y001131495D01*
X002087295Y001131384D01*
X002091550Y001130805D01*
X002095716Y001129768D01*
X002099744Y001128282D01*
X002103587Y001126367D01*
X002107198Y001124044D01*
X002110535Y001121343D01*
X002113558Y001118293D01*
X002116231Y001114933D01*
X002118522Y001111302D01*
X002120404Y001107443D01*
X002139170Y001062957D01*
X002139853Y001061225D01*
X002140453Y001059463D01*
X002140969Y001057675D01*
X002141400Y001055864D01*
X002141745Y001054034D01*
X002142003Y001052191D01*
X002142174Y001050337D01*
X002142257Y001048478D01*
X002142251Y001046616D01*
X002142158Y001044757D01*
X002141977Y001042904D01*
X002141709Y001041062D01*
X002141354Y001039235D01*
X002140913Y001037426D01*
X002140387Y001035641D01*
X002139777Y001033882D01*
X002139085Y001032154D01*
X002138312Y001030460D01*
X002137459Y001028805D01*
X002136530Y001027193D01*
X002133629Y001022425D01*
X002133491Y001022195D01*
X002127733Y001012584D01*
X002127595Y001012351D01*
X002121816Y001002550D01*
X002121682Y001002321D01*
X002116023Y000992575D01*
X002115888Y000992340D01*
X002110249Y000982474D01*
X002110117Y000982241D01*
X002104612Y000972454D01*
X002104480Y000972219D01*
X002098968Y000962260D01*
X002098839Y000962026D01*
X002093452Y000952135D01*
X002093325Y000951900D01*
X002087946Y000941862D01*
X002087818Y000941621D01*
X002082553Y000931628D01*
X002082430Y000931393D01*
X002077217Y000921338D01*
X002077094Y000921099D01*
X002071975Y000911057D01*
X002071853Y000910816D01*
X002066785Y000900704D01*
X002066666Y000900465D01*
X002061658Y000890300D01*
X002061539Y000890057D01*
X002056591Y000879837D01*
X002056474Y000879594D01*
X002051629Y000869412D01*
X002051516Y000869172D01*
X002046752Y000858982D01*
X002046638Y000858736D01*
X002041874Y000848362D01*
X002041763Y000848118D01*
X002037126Y000837834D01*
X002037016Y000837589D01*
X002032425Y000827221D01*
X002032318Y000826975D01*
X002027842Y000816677D01*
X002027736Y000816431D01*
X002023272Y000805966D01*
X002023166Y000805716D01*
X002018814Y000795316D01*
X002018712Y000795070D01*
X002014378Y000784512D01*
X002014277Y000784264D01*
X002010080Y000773838D01*
X002009980Y000773588D01*
X002005805Y000763009D01*
X002005707Y000762757D01*
X002001667Y000752313D01*
X002001571Y000752062D01*
X001997516Y000741359D01*
X001997422Y000741109D01*
X001993506Y000730561D01*
X001993413Y000730307D01*
X001989544Y000719661D01*
X001989453Y000719408D01*
X001985667Y000708764D01*
X001985578Y000708510D01*
X001981861Y000697831D01*
X001981774Y000697578D01*
X001950797Y000606575D01*
X001950699Y000606302D01*
X001950429Y000606298D01*
X001679424Y000606298D01*
X001679137Y000606302D01*
X001679133Y000606580D01*
X001679133Y000698278D01*
X001679114Y000699489D01*
X001679059Y000700699D01*
X001678966Y000701906D01*
X001678835Y000703110D01*
X001678668Y000704309D01*
X001678464Y000705503D01*
X001678223Y000706690D01*
X001677947Y000707868D01*
X001677634Y000709038D01*
X001677285Y000710198D01*
X001676901Y000711345D01*
X001673836Y000720056D01*
X001673746Y000720308D01*
X001669903Y000731000D01*
X001669812Y000731249D01*
X001665898Y000741910D01*
X001665805Y000742163D01*
X001661796Y000752855D01*
X001661701Y000753108D01*
X001657640Y000763717D01*
X001657545Y000763962D01*
X001653389Y000774608D01*
X001653290Y000774859D01*
X001649105Y000785368D01*
X001649005Y000785614D01*
X001644691Y000796237D01*
X001644588Y000796487D01*
X001640226Y000807017D01*
X001640124Y000807260D01*
X001635756Y000817611D01*
X001635650Y000817859D01*
X001631090Y000828461D01*
X001630983Y000828707D01*
X001626449Y000839052D01*
X001626342Y000839294D01*
X001621686Y000849727D01*
X001621575Y000849974D01*
X001616853Y000860362D01*
X001616742Y000860605D01*
X001611994Y000870864D01*
X001611882Y000871104D01*
X001607019Y000881430D01*
X001606903Y000881675D01*
X001601969Y000891968D01*
X001601854Y000892206D01*
X001596852Y000902462D01*
X001596733Y000902705D01*
X001591689Y000912870D01*
X001591570Y000913108D01*
X001586467Y000923222D01*
X001586346Y000923461D01*
X001581116Y000933652D01*
X001580993Y000933889D01*
X001575710Y000944012D01*
X001575585Y000944250D01*
X001575250Y000944882D01*
X001574004Y000947452D01*
X001572948Y000950105D01*
X001572087Y000952827D01*
X001571425Y000955605D01*
X001570966Y000958424D01*
X001570713Y000961268D01*
X001570667Y000964123D01*
X001570828Y000966974D01*
X001571195Y000969806D01*
X001571767Y000972604D01*
X001572539Y000975353D01*
X001573509Y000978039D01*
X001574671Y000980647D01*
X001576019Y000983165D01*
X001577546Y000985578D01*
X001579244Y000987874D01*
X001581104Y000990041D01*
X001583116Y000992067D01*
X001585270Y000993942D01*
X001587554Y000995656D01*
X001620111Y001018295D01*
X001622921Y001020077D01*
X001625871Y001021616D01*
X001628940Y001022900D01*
X001632107Y001023920D01*
X001635348Y001024669D01*
X001638642Y001025142D01*
X001641963Y001025336D01*
X001645289Y001025248D01*
X001648596Y001024879D01*
X001651859Y001024233D01*
X001655057Y001023314D01*
X001658165Y001022128D01*
X001661162Y001020683D01*
X001664027Y001018991D01*
X001666738Y001017063D01*
X001669277Y001014913D01*
X001671626Y001012556D01*
X001673767Y001010009D01*
X001675685Y001007291D01*
X001677367Y001004420D01*
X001677367Y001004420D01*
X001680201Y000999078D01*
X001685962Y000988036D01*
X001691648Y000976956D01*
X001697259Y000965837D01*
X001702794Y000954681D01*
X001708253Y000943487D01*
X001713636Y000932257D01*
X001718942Y000920990D01*
X001724172Y000909687D01*
X001729326Y000898349D01*
X001734401Y000886977D01*
X001739401Y000875570D01*
X001744321Y000864129D01*
X001749164Y000852655D01*
X001753930Y000841149D01*
X001758617Y000829611D01*
X001763225Y000818041D01*
X001767755Y000806440D01*
X001772206Y000794808D01*
X001776578Y000783147D01*
X001780870Y000771456D01*
X001785084Y000759736D01*
X001789217Y000747988D01*
X001793271Y000736212D01*
X001797243Y000724410D01*
X001797243Y000724409D01*
X001797244Y000724409D01*
X001797243Y000724410D01*
X001795275Y002692913D01*
X001866141Y002692913D01*
X001866141Y000724409D01*
X001866142Y000724409D01*
X001870134Y000736137D01*
X001874206Y000747838D01*
X001878358Y000759510D01*
X001882590Y000771154D01*
X001886901Y000782769D01*
X001891291Y000794354D01*
X001895760Y000805909D01*
X001900308Y000817433D01*
X001904935Y000828926D01*
X001909640Y000840386D01*
X001914422Y000851815D01*
X001919284Y000863211D01*
X001924222Y000874573D01*
X001929238Y000885902D01*
X001934330Y000897195D01*
X001939501Y000908454D01*
X001944748Y000919677D01*
X001950071Y000930864D01*
X001955470Y000942015D01*
X001960946Y000953128D01*
X001966497Y000964204D01*
X001972123Y000975242D01*
X001977825Y000986241D01*
X001983602Y000997201D01*
X001989453Y001008121D01*
X001995379Y001019001D01*
X002001379Y001029840D01*
X002007452Y001040638D01*
X002013600Y001051394D01*
X002019820Y001062109D01*
X002026114Y001072780D01*
X002032480Y001083409D01*
X002038919Y001093993D01*
X002045429Y001104533D01*
X002050777Y001113060D01*
X002263206Y001207875D02*
X002263206Y001207875D01*
X002262007Y001206450D01*
X002260741Y001205084D01*
X002259412Y001203778D01*
X002258023Y001202538D01*
X002256577Y001201364D01*
X002255076Y001200260D01*
X002253526Y001199228D01*
X002251928Y001198271D01*
X002250287Y001197390D01*
X002248606Y001196588D01*
X002246888Y001195866D01*
X002245139Y001195227D01*
X002243361Y001194671D01*
X002241559Y001194199D01*
X002239737Y001193813D01*
X002237899Y001193514D01*
X002236048Y001193303D01*
X002234190Y001193179D01*
X002232327Y001193143D01*
X002230466Y001193195D01*
X002182260Y001195686D01*
X002177992Y001196141D01*
X002173799Y001197058D01*
X002169730Y001198426D01*
X002165834Y001200229D01*
X002162158Y001202445D01*
X002158745Y001205048D01*
X002155636Y001208008D01*
X002152867Y001211288D01*
X002150472Y001214850D01*
X002148479Y001218652D01*
X002146912Y001222648D01*
X002145789Y001226791D01*
X002145123Y001231031D01*
X002144924Y001235319D01*
X002145192Y001239603D01*
X002145925Y001243833D01*
X002147114Y001247957D01*
X002148746Y001251928D01*
X002150799Y001255697D01*
X002153251Y001259220D01*
X002159146Y001266776D01*
X002166833Y001276492D01*
X002174586Y001286155D01*
X002182405Y001295765D01*
X002190289Y001305322D01*
X002198239Y001314824D01*
X002206253Y001324272D01*
X002214331Y001333665D01*
X002222473Y001343003D01*
X002230679Y001352285D01*
X002238948Y001361510D01*
X002247280Y001370679D01*
X002255674Y001379792D01*
X002264130Y001388846D01*
X002272648Y001397842D01*
X002281226Y001406781D01*
X002289866Y001415660D01*
X002298566Y001424481D01*
X002307326Y001433241D01*
X002316146Y001441942D01*
X002325025Y001450582D01*
X002333963Y001459162D01*
X002342958Y001467680D01*
X002352012Y001476137D01*
X002361123Y001484531D01*
X002370292Y001492864D01*
X002379517Y001501134D01*
X002388798Y001509340D01*
X002398135Y001517483D01*
X002407528Y001525562D01*
X002416975Y001533577D01*
X002426477Y001541527D01*
X002436033Y001549412D01*
X002445642Y001557231D01*
X002455305Y001564985D01*
X002465020Y001572673D01*
X002474788Y001580294D01*
X002484607Y001587849D01*
X002494478Y001595336D01*
X002504400Y001602756D01*
X002514371Y001610107D01*
X002524393Y001617391D01*
X002534465Y001624606D01*
X002544585Y001631752D01*
X002554754Y001638829D01*
X002564971Y001645837D01*
X002575235Y001652774D01*
X002585547Y001659641D01*
X002595905Y001666438D01*
X002606310Y001673164D01*
X002616760Y001679818D01*
X002627255Y001686401D01*
X002637794Y001692912D01*
X002629570Y001702207D01*
X002621150Y001711326D01*
X002612537Y001720262D01*
X002603736Y001729013D01*
X002594751Y001737574D01*
X002585585Y001745943D01*
X002576243Y001754114D01*
X002566729Y001762084D01*
X002557048Y001769850D01*
X002547203Y001777408D01*
X002537199Y001784754D01*
X002527041Y001791886D01*
X002516735Y001798800D01*
X002506282Y001805492D01*
X002495690Y001811961D01*
X002484962Y001818202D01*
X002474104Y001824214D01*
X002463120Y001829992D01*
X002452016Y001835536D01*
X002440796Y001840842D01*
X002429465Y001845908D01*
X002418030Y001850731D01*
X002406494Y001855309D01*
X002394863Y001859641D01*
X002383143Y001863724D01*
X002371338Y001867557D01*
X002359454Y001871137D01*
X002347497Y001874463D01*
X002335472Y001877534D01*
X002323384Y001880348D01*
X002311238Y001882904D01*
X002299042Y001885200D01*
X002286798Y001887237D01*
X002274515Y001889012D01*
X002262196Y001890525D01*
X002249848Y001891775D01*
X002237476Y001892762D01*
X002225086Y001893486D01*
X002212683Y001893945D01*
X002200274Y001894140D01*
X002187862Y001894070D01*
X002175455Y001893737D01*
X002163058Y001893139D01*
X002150677Y001892277D01*
X002138317Y001891151D01*
X002125984Y001889763D01*
X002129273Y001901693D01*
X002132655Y001913596D01*
X002136129Y001925473D01*
X002139695Y001937323D01*
X002143353Y001949145D01*
X002147103Y001960938D01*
X002150944Y001972701D01*
X002154876Y001984434D01*
X002158899Y001996137D01*
X002163014Y002007807D01*
X002167218Y002019446D01*
X002171513Y002031051D01*
X002175897Y002042623D01*
X002180372Y002054161D01*
X002184936Y002065663D01*
X002189589Y002077129D01*
X002194331Y002088559D01*
X002199162Y002099952D01*
X002204081Y002111307D01*
X002209088Y002122624D01*
X002214182Y002133901D01*
X002219365Y002145138D01*
X002224634Y002156335D01*
X002229989Y002167491D01*
X002235432Y002178605D01*
X002240960Y002189676D01*
X002246574Y002200703D01*
X002252274Y002211687D01*
X002258059Y002222627D01*
X002263929Y002233521D01*
X002269883Y002244369D01*
X002275921Y002255171D01*
X002282042Y002265925D01*
X002288247Y002276632D01*
X002294535Y002287290D01*
X002300906Y002297899D01*
X002307358Y002308458D01*
X002313893Y002318966D01*
X002320509Y002329424D01*
X002327206Y002339830D01*
X002333983Y002350184D01*
X002340841Y002360485D01*
X002347778Y002370732D01*
X002354795Y002380925D01*
X002361891Y002391063D01*
X002369065Y002401146D01*
X002376317Y002411172D01*
X002383647Y002421143D01*
X002391054Y002431056D01*
X002398538Y002440911D01*
X002406098Y002450708D01*
X002413734Y002460446D01*
X002421446Y002470124D01*
X002429232Y002479742D01*
X002437092Y002489299D01*
X002445027Y002498795D01*
X002453035Y002508229D01*
X002461116Y002517601D01*
X002469270Y002526909D01*
X002477496Y002536155D01*
X002485793Y002545335D01*
X002494161Y002554451D01*
X002502600Y002563503D01*
X002511109Y002572488D01*
X002519687Y002581407D01*
X002528335Y002590258D01*
X002537050Y002599043D01*
X002545834Y002607759D01*
X002554685Y002616408D01*
X002563603Y002624987D01*
X002572588Y002633496D01*
X002581638Y002641936D01*
X002590753Y002650305D01*
X002599933Y002658603D01*
X002609177Y002666830D01*
X002618485Y002674984D01*
X002627856Y002683067D01*
X002637290Y002691076D01*
X002646785Y002699011D01*
X002656341Y002706873D01*
X002665959Y002714660D01*
X002675636Y002722372D01*
X002685373Y002730009D01*
X002695169Y002737570D01*
X002705024Y002745055D01*
X002714936Y002752463D01*
X002724905Y002759794D01*
X002734932Y002767047D01*
X002745014Y002774222D01*
X002755151Y002781319D01*
X002765344Y002788337D01*
X002775590Y002795275D01*
X002765516Y002802877D01*
X002755339Y002810342D01*
X002745062Y002817668D01*
X002734687Y002824854D01*
X002724215Y002831899D01*
X002723646Y002832271D01*
X002722514Y002833038D01*
X002721410Y002833845D01*
X002720334Y002834689D01*
X002719289Y002835571D01*
X002718274Y002836488D01*
X002717292Y002837439D01*
X002716344Y002838425D01*
X002715431Y002839442D01*
X002714553Y002840491D01*
X002713712Y002841569D01*
X002712910Y002842676D01*
X002712146Y002843811D01*
X002711422Y002844971D01*
X002710739Y002846155D01*
X002710097Y002847363D01*
X002709498Y002848592D01*
X002708941Y002849841D01*
X002708429Y002851109D01*
X002707960Y002852394D01*
X002707537Y002853694D01*
X002689891Y002911273D01*
X002688778Y002915874D01*
X002688226Y002920576D01*
X002688242Y002925310D01*
X002688826Y002930007D01*
X002689970Y002934601D01*
X002691657Y002939024D01*
X002693862Y002943213D01*
X002696555Y002947106D01*
X002699695Y002950649D01*
X002703237Y002953789D01*
X002707131Y002956481D01*
X002711320Y002958686D01*
X002715743Y002960373D01*
X002720337Y002961516D01*
X002725034Y002962100D01*
X002729768Y002962116D01*
X002734470Y002961563D01*
X002739071Y002960451D01*
X002743505Y002958794D01*
X002747709Y002956617D01*
X002753334Y002953259D01*
X002753598Y002953100D01*
X002765484Y002945785D01*
X002765636Y002945690D01*
X002777464Y002938190D01*
X002777715Y002938028D01*
X002789361Y002930420D01*
X002789594Y002930265D01*
X002801148Y002922493D01*
X002801404Y002922318D01*
X002812850Y002914389D01*
X002813089Y002914222D01*
X002824409Y002906153D01*
X002824705Y002905938D01*
X002835908Y002897720D01*
X002836130Y002897556D01*
X002978327Y002790247D01*
X002978553Y002790071D01*
X002978332Y002789918D01*
X002832089Y002690892D01*
X002831835Y002690718D01*
X002822631Y002684381D01*
X002822380Y002684207D01*
X002813258Y002677821D01*
X002813009Y002677645D01*
X002803933Y002671185D01*
X002803686Y002671009D01*
X002794635Y002664462D01*
X002794384Y002664279D01*
X002785349Y002657634D01*
X002785105Y002657453D01*
X002776231Y002650821D01*
X002775985Y002650636D01*
X002767115Y002643898D01*
X002766874Y002643714D01*
X002757999Y002636865D01*
X002757757Y002636676D01*
X002749017Y002629821D01*
X002748778Y002629632D01*
X002740062Y002622686D01*
X002739825Y002622495D01*
X002731121Y002615449D01*
X002730884Y002615255D01*
X002722263Y002608163D01*
X002722028Y002607968D01*
X002713517Y002600855D01*
X002713282Y002600657D01*
X002704763Y002593424D01*
X002704531Y002593226D01*
X002696087Y002585943D01*
X002695857Y002585743D01*
X002687448Y002578376D01*
X002687219Y002578173D01*
X002678933Y002570800D01*
X002678705Y002570596D01*
X002670404Y002563092D01*
X002670176Y002562885D01*
X002661954Y002555335D01*
X002661731Y002555129D01*
X002653625Y002547570D01*
X002653404Y002547362D01*
X002645250Y002539639D01*
X002645026Y002539425D01*
X002636986Y002531691D01*
X002636768Y002531479D01*
X002628819Y002523711D01*
X002628601Y002523497D01*
X002620685Y002515642D01*
X002620469Y002515426D01*
X002612608Y002507503D01*
X002612395Y002507287D01*
X002604601Y002499309D01*
X002604386Y002499088D01*
X002596666Y002491060D01*
X002596456Y002490840D01*
X002588794Y002482749D01*
X002588583Y002482525D01*
X002580949Y002474338D01*
X002580740Y002474112D01*
X002573192Y002465888D01*
X002572989Y002465665D01*
X002565561Y002457446D01*
X002565354Y002457216D01*
X002557892Y002448829D01*
X002557692Y002448602D01*
X002550384Y002440258D01*
X002550181Y002440026D01*
X002542878Y002431556D01*
X002542682Y002431327D01*
X002535468Y002422830D01*
X002535267Y002422592D01*
X002528102Y002414015D01*
X002527908Y002413781D01*
X002520873Y002405228D01*
X002520679Y002404991D01*
X002513627Y002396279D01*
X002513436Y002396042D01*
X002506486Y002387320D01*
X002506298Y002387081D01*
X002499411Y002378299D01*
X002499221Y002378055D01*
X002492390Y002369203D01*
X002492207Y002368963D01*
X002485524Y002360163D01*
X002485338Y002359916D01*
X002478610Y002350911D01*
X002478429Y002350668D01*
X002471850Y002341719D01*
X002471669Y002341470D01*
X002465120Y002332414D01*
X002464942Y002332166D01*
X002458491Y002323101D01*
X002458316Y002322852D01*
X002451889Y002313669D01*
X002451714Y002313418D01*
X002445404Y002304252D01*
X002445231Y002303999D01*
X002439013Y002294814D01*
X002438842Y002294559D01*
X002432624Y002285219D01*
X002432456Y002284965D01*
X002426361Y002275653D01*
X002426194Y002275395D01*
X002420153Y002266008D01*
X002419991Y002265754D01*
X002414060Y002256380D01*
X002413895Y002256118D01*
X002407964Y002246579D01*
X002407803Y002246319D01*
X002402011Y002236841D01*
X002401853Y002236580D01*
X002396102Y002227001D01*
X002395946Y002226740D01*
X002390265Y002217111D01*
X002390110Y002216846D01*
X002384551Y002207255D01*
X002384398Y002206989D01*
X002378855Y002197250D01*
X002378707Y002196987D01*
X002373296Y002187309D01*
X002373148Y002187040D01*
X002367768Y002177238D01*
X002367622Y002176970D01*
X002362319Y002167128D01*
X002362176Y002166860D01*
X002356968Y002157011D01*
X002356825Y002156738D01*
X002351694Y002146850D01*
X002351555Y002146579D01*
X002346498Y002136645D01*
X002346358Y002136370D01*
X002341341Y002126322D01*
X002341209Y002126053D01*
X002336349Y002116131D01*
X002336212Y002115850D01*
X002331383Y002105790D01*
X002331253Y002105516D01*
X002326482Y002095376D01*
X002326354Y002095102D01*
X002321678Y002084964D01*
X002321550Y002084683D01*
X002316997Y002074604D01*
X002316872Y002074326D01*
X002312338Y002064078D01*
X002312214Y002063795D01*
X002307793Y002053589D01*
X002307677Y002053318D01*
X002307294Y002052414D01*
X002306871Y002051377D01*
X002306478Y002050327D01*
X002306115Y002049267D01*
X002305782Y002048198D01*
X002305479Y002047118D01*
X002305208Y002046031D01*
X002304967Y002044937D01*
X002304758Y002043836D01*
X002304581Y002042729D01*
X002304434Y002041619D01*
X002304320Y002040505D01*
X002304236Y002039387D01*
X002304186Y002038268D01*
X002304166Y002037148D01*
X002304180Y002036027D01*
X002304224Y002034907D01*
X002304301Y002033790D01*
X002304409Y002032674D01*
X002304549Y002031562D01*
X002304721Y002030455D01*
X002304924Y002029353D01*
X002305158Y002028258D01*
X002305423Y002027169D01*
X002305719Y002026089D01*
X002306047Y002025017D01*
X002306403Y002023955D01*
X002306791Y002022903D01*
X002307208Y002021863D01*
X002307655Y002020835D01*
X002308130Y002019821D01*
X002308635Y002018821D01*
X002309167Y002017835D01*
X002309728Y002016864D01*
X002310315Y002015910D01*
X002310930Y002014974D01*
X002311570Y002014055D01*
X002312238Y002013154D01*
X002312930Y002012273D01*
X002313647Y002011412D01*
X002314388Y002010572D01*
X002315153Y002009753D01*
X002315941Y002008957D01*
X002316752Y002008183D01*
X002317583Y002007432D01*
X002318437Y002006706D01*
X002319310Y002006004D01*
X002320202Y002005327D01*
X002321115Y002004676D01*
X002322044Y002004051D01*
X002322992Y002003453D01*
X002323956Y002002881D01*
X002324936Y002002338D01*
X002325931Y002001822D01*
X002326940Y002001336D01*
X002327963Y002000878D01*
X002328998Y002000450D01*
X002330045Y002000051D01*
X002331103Y001999682D01*
X002332171Y001999343D01*
X002333248Y001999035D01*
X002334334Y001998757D01*
X002335427Y001998511D01*
X002348730Y001995711D01*
X002349123Y001995624D01*
X002363254Y001992334D01*
X002363698Y001992226D01*
X002377715Y001988647D01*
X002378147Y001988532D01*
X002392133Y001984641D01*
X002392518Y001984529D01*
X002406401Y001980346D01*
X002406818Y001980216D01*
X002420612Y001975738D01*
X002421013Y001975603D01*
X002434696Y001970836D01*
X002435101Y001970691D01*
X002448707Y001965623D01*
X002449094Y001965474D01*
X002462590Y001960117D01*
X002462950Y001959970D01*
X002476336Y001954324D01*
X002476701Y001954166D01*
X002489970Y001948234D01*
X002490332Y001948067D01*
X002503459Y001941859D01*
X002503823Y001941682D01*
X002516842Y001935183D01*
X002517169Y001935016D01*
X002530020Y001928255D01*
X002530404Y001928047D01*
X002543065Y001921037D01*
X002543459Y001920814D01*
X002555991Y001913523D01*
X002556358Y001913304D01*
X002568722Y001905753D01*
X002569102Y001905515D01*
X002581298Y001897707D01*
X002581674Y001897460D01*
X002593677Y001889408D01*
X002594075Y001889135D01*
X002605913Y001880825D01*
X002606274Y001880565D01*
X002617957Y001871984D01*
X002618296Y001871730D01*
X002629801Y001862898D01*
X002630128Y001862642D01*
X002641456Y001853555D01*
X002641768Y001853299D01*
X002652905Y001843968D01*
X002653197Y001843719D01*
X002664139Y001834149D01*
X002664452Y001833869D01*
X002675154Y001824097D01*
X002675467Y001823805D01*
X002685976Y001813793D01*
X002686261Y001813515D01*
X002696557Y001803278D01*
X002696857Y001802973D01*
X002706904Y001792549D01*
X002707218Y001792216D01*
X002717061Y001781557D01*
X002717323Y001781267D01*
X002819000Y001666352D01*
X002819180Y001666142D01*
X002819179Y001666141D01*
X002818959Y001666001D01*
X002689710Y001586153D01*
X002689484Y001586012D01*
X002680039Y001580088D01*
X002679810Y001579944D01*
X002670174Y001573808D01*
X002669946Y001573661D01*
X002660476Y001567540D01*
X002660253Y001567394D01*
X002650811Y001561199D01*
X002650585Y001561049D01*
X002641142Y001554760D01*
X002640922Y001554613D01*
X002631538Y001548271D01*
X002631315Y001548119D01*
X002622015Y001541740D01*
X002621794Y001541588D01*
X002612504Y001535123D01*
X002612286Y001534969D01*
X002603031Y001528435D01*
X002602810Y001528277D01*
X002593596Y001521676D01*
X002593378Y001521519D01*
X002584285Y001514911D01*
X002584071Y001514753D01*
X002574893Y001507987D01*
X002574676Y001507826D01*
X002565649Y001501076D01*
X002565433Y001500913D01*
X002556390Y001494053D01*
X002556177Y001493891D01*
X002547224Y001487003D01*
X002547014Y001486839D01*
X002538142Y001479918D01*
X002537928Y001479750D01*
X002529030Y001472709D01*
X002528822Y001472542D01*
X002519947Y001465420D01*
X002519737Y001465251D01*
X002511000Y001458140D01*
X002510793Y001457971D01*
X002502049Y001450756D01*
X002501845Y001450586D01*
X002493185Y001443341D01*
X002492977Y001443166D01*
X002484361Y001435857D01*
X002484157Y001435683D01*
X002475549Y001428278D01*
X002475346Y001428102D01*
X002466831Y001420676D01*
X002466632Y001420502D01*
X002458147Y001413000D01*
X002457943Y001412818D01*
X002449548Y001405293D01*
X002449349Y001405113D01*
X002440949Y001397478D01*
X002440750Y001397297D01*
X002432474Y001389671D01*
X002432278Y001389489D01*
X002423927Y001381689D01*
X002423731Y001381504D01*
X002415578Y001373784D01*
X002415385Y001373600D01*
X002407192Y001365735D01*
X002406999Y001365550D01*
X002398883Y001357652D01*
X002398690Y001357462D01*
X002390658Y001349538D01*
X002390468Y001349350D01*
X002382477Y001341358D01*
X002382287Y001341167D01*
X002374348Y001333118D01*
X002374161Y001332926D01*
X002366247Y001324793D01*
X002366060Y001324601D01*
X002358222Y001316433D01*
X002358036Y001316239D01*
X002350273Y001308040D01*
X002350089Y001307843D01*
X002342320Y001299526D01*
X002342137Y001299328D01*
X002334546Y001291088D01*
X002334365Y001290889D01*
X002326746Y001282505D01*
X002326566Y001282306D01*
X002318966Y001273826D01*
X002318787Y001273624D01*
X002311301Y001265157D01*
X002311125Y001264956D01*
X002303692Y001256433D01*
X002303516Y001256229D01*
X002296168Y001247686D01*
X002295993Y001247481D01*
X002288676Y001238854D01*
X002288503Y001238649D01*
X002281208Y001229929D01*
X002281034Y001229721D01*
X002273843Y001221003D01*
X002273676Y001220799D01*
X002266549Y001212040D01*
X002266378Y001211829D01*
X002263206Y001207875D01*
X002197969Y004685039D02*
X002197969Y004685039D01*
X002195931Y004685092D01*
X002193898Y004685250D01*
X002191875Y004685513D01*
X002189870Y004685881D01*
X002187886Y004686352D01*
X002185929Y004686925D01*
X002184004Y004687599D01*
X002182117Y004688371D01*
X002180272Y004689240D01*
X002178475Y004690204D01*
X002176730Y004691259D01*
X002175042Y004692403D01*
X002173416Y004693633D01*
X002171855Y004694946D01*
X002170365Y004696338D01*
X002168948Y004697805D01*
X002167610Y004699343D01*
X002166353Y004700948D01*
X002165180Y004702617D01*
X002164096Y004704344D01*
X002140775Y004743714D01*
X002138854Y004747384D01*
X002137329Y004751237D01*
X002136218Y004755228D01*
X002135532Y004759313D01*
X002135279Y004763449D01*
X002135463Y004767587D01*
X002136080Y004771684D01*
X002137124Y004775693D01*
X002138584Y004779570D01*
X002140443Y004783273D01*
X002142681Y004786759D01*
X002145273Y004789991D01*
X002148190Y004792933D01*
X002151400Y004795552D01*
X002154868Y004797819D01*
X002158554Y004799709D01*
X002162419Y004801201D01*
X002166420Y004802279D01*
X002170511Y004802931D01*
X002174648Y004803149D01*
X002344390Y004803149D01*
X002344677Y004803145D01*
X002344634Y004802864D01*
X002319107Y004653192D01*
X002319084Y004653052D01*
X002317072Y004640991D01*
X002317049Y004640854D01*
X002315146Y004629192D01*
X002315123Y004629051D01*
X002313248Y004617293D01*
X002313225Y004617153D01*
X002311366Y004605220D01*
X002311345Y004605081D01*
X002309576Y004593458D01*
X002309555Y004593317D01*
X002307757Y004581206D01*
X002307736Y004581066D01*
X002306055Y004569459D01*
X002306035Y004569318D01*
X002304346Y004557355D01*
X002304327Y004557214D01*
X002302691Y004545312D01*
X002302672Y004545172D01*
X002301100Y004533418D01*
X002301081Y004533278D01*
X002299520Y004521283D01*
X002299502Y004521146D01*
X002298023Y004509464D01*
X002298005Y004509320D01*
X002296531Y004497325D01*
X002296514Y004497186D01*
X002295094Y004485277D01*
X002295078Y004485136D01*
X002293727Y004473451D01*
X002293711Y004473313D01*
X002292351Y004461176D01*
X002292337Y004461035D01*
X002291044Y004449106D01*
X002291028Y004448964D01*
X002289803Y004437263D01*
X002289790Y004437123D01*
X002288578Y004425136D01*
X002288564Y004424995D01*
X002287410Y004413157D01*
X002287397Y004413018D01*
X002286266Y004400978D01*
X002286254Y004400835D01*
X002285187Y004389000D01*
X002285174Y004388861D01*
X002284593Y004382147D01*
X002284512Y004381031D01*
X002284463Y004379912D01*
X002284446Y004378793D01*
X002284461Y004377673D01*
X002284507Y004376554D01*
X002284585Y004375438D01*
X002284696Y004374323D01*
X002284837Y004373213D01*
X002285010Y004372107D01*
X002285215Y004371005D01*
X002285451Y004369911D01*
X002285718Y004368824D01*
X002286016Y004367744D01*
X002286343Y004366674D01*
X002286702Y004365613D01*
X002287091Y004364564D01*
X002287509Y004363525D01*
X002287956Y004362499D01*
X002288433Y004361486D01*
X002288938Y004360487D01*
X002289472Y004359502D01*
X002290033Y004358534D01*
X002290622Y004357581D01*
X002291236Y004356646D01*
X002291878Y004355728D01*
X002292546Y004354829D01*
X002293238Y004353950D01*
X002293957Y004353091D01*
X002294698Y004352252D01*
X002295464Y004351435D01*
X002296252Y004350640D01*
X002297062Y004349867D01*
X002297894Y004349118D01*
X002298747Y004348392D01*
X002299621Y004347692D01*
X002300513Y004347016D01*
X002301425Y004346367D01*
X002302355Y004345743D01*
X002303302Y004345146D01*
X002304266Y004344577D01*
X002305246Y004344035D01*
X002306241Y004343520D01*
X002307249Y004343035D01*
X002308272Y004342579D01*
X002309306Y004342151D01*
X002310353Y004341753D01*
X002311410Y004341385D01*
X002312477Y004341048D01*
X002313555Y004340741D01*
X002314639Y004340464D01*
X002315732Y004340219D01*
X002316831Y004340005D01*
X002317935Y004339822D01*
X002319045Y004339670D01*
X002320157Y004339551D01*
X002321274Y004339462D01*
X002322392Y004339405D01*
X002323511Y004339381D01*
X002332066Y004339315D01*
X002332271Y004339313D01*
X002345683Y004339082D01*
X002345897Y004339077D01*
X002359342Y004338716D01*
X002359494Y004338712D01*
X002372980Y004338222D01*
X002373096Y004338217D01*
X002386589Y004337598D01*
X002386708Y004337592D01*
X002400169Y004336847D01*
X002400339Y004336837D01*
X002413792Y004335963D01*
X002413950Y004335951D01*
X002427346Y004334953D01*
X002427539Y004334937D01*
X002440897Y004333814D01*
X002441146Y004333792D01*
X002454507Y004332539D01*
X002454735Y004332517D01*
X002468063Y004331140D01*
X002468242Y004331121D01*
X002481588Y004329612D01*
X002481791Y004329588D01*
X002495175Y004327947D01*
X002495312Y004327929D01*
X002508589Y004326172D01*
X002508852Y004326137D01*
X002522173Y004324245D01*
X002522303Y004324226D01*
X002535629Y004322203D01*
X002535797Y004322177D01*
X002549078Y004320032D01*
X002549252Y004320003D01*
X002562461Y004317740D01*
X002562725Y004317693D01*
X002575925Y004315302D01*
X002576080Y004315274D01*
X002589339Y004312741D01*
X002589453Y004312718D01*
X002602659Y004310066D01*
X002602861Y004310024D01*
X002615958Y004307264D01*
X002616226Y004307205D01*
X002629347Y004304309D01*
X002629457Y004304283D01*
X002642611Y004301248D01*
X002642760Y004301212D01*
X002655867Y004298056D01*
X002656008Y004298020D01*
X002669007Y004294759D01*
X002669277Y004294689D01*
X002682237Y004291306D01*
X002682452Y004291249D01*
X002695438Y004287726D01*
X002695531Y004287700D01*
X002708505Y004284046D01*
X002708757Y004283974D01*
X002721550Y004280240D01*
X002721807Y004280164D01*
X002734628Y004276289D01*
X002734897Y004276207D01*
X002747586Y004272239D01*
X002747888Y004272143D01*
X002760607Y004268033D01*
X002760820Y004267963D01*
X002773589Y004263702D01*
X002773703Y004263663D01*
X002786444Y004259276D01*
X002786635Y004259209D01*
X002799242Y004254733D01*
X002799520Y004254633D01*
X002812072Y004250042D01*
X002812271Y004249968D01*
X002824857Y004245227D01*
X002824992Y004245176D01*
X002837578Y004240298D01*
X002837705Y004240249D01*
X002850192Y004235273D01*
X002850395Y004235191D01*
X002862812Y004230105D01*
X002863032Y004230013D01*
X002875392Y004224811D01*
X002875550Y004224745D01*
X002887918Y004219400D01*
X002888046Y004219344D01*
X002900368Y004213881D01*
X002900520Y004213813D01*
X002912809Y004208224D01*
X002912893Y004208185D01*
X002925153Y004202466D01*
X002925257Y004202417D01*
X002937392Y004196616D01*
X002937621Y004196506D01*
X002949648Y004190614D01*
X002949803Y004190537D01*
X002961898Y004184470D01*
X002961945Y004184446D01*
X002973974Y004178268D01*
X002974109Y004178197D01*
X002986050Y004171919D01*
X002986160Y004171861D01*
X002998066Y004165455D01*
X002998158Y004165406D01*
X003010020Y004158878D01*
X003010085Y004158842D01*
X003021824Y004152234D01*
X003022070Y004152094D01*
X003033661Y004145426D01*
X003033832Y004145326D01*
X003045392Y004138526D01*
X003045565Y004138423D01*
X003057138Y004131468D01*
X003057199Y004131430D01*
X003068716Y004124357D01*
X003068865Y004124265D01*
X003080256Y004117120D01*
X003080415Y004117018D01*
X003091676Y004109805D01*
X003091900Y004109659D01*
X003103135Y004102309D01*
X003103305Y004102198D01*
X003114459Y004094747D01*
X003114640Y004094625D01*
X003125679Y004087102D01*
X003125910Y004086942D01*
X003136916Y004079283D01*
X003137085Y004079165D01*
X003148027Y004071395D01*
X003148185Y004071282D01*
X003159034Y004063424D01*
X003159239Y004063274D01*
X003170014Y004055310D01*
X003170179Y004055187D01*
X003180935Y004047078D01*
X003181055Y004046987D01*
X003191682Y004038815D01*
X003191876Y004038664D01*
X003202443Y004030378D01*
X003202603Y004030252D01*
X003213060Y004021889D01*
X003213246Y004021738D01*
X003223692Y004013221D01*
X003223758Y004013166D01*
X003234155Y004004521D01*
X003234258Y004004434D01*
X003388336Y003873829D01*
X003388535Y003873657D01*
X003388534Y003873657D01*
X003388307Y003873553D01*
X003204245Y003792959D01*
X003203993Y003792848D01*
X003193721Y003788264D01*
X003193464Y003788148D01*
X003183126Y003783446D01*
X003182876Y003783332D01*
X003172603Y003778573D01*
X003172352Y003778455D01*
X003162135Y003773634D01*
X003161883Y003773514D01*
X003151589Y003768567D01*
X003151342Y003768447D01*
X003141277Y003763524D01*
X003141025Y003763400D01*
X003130822Y003758317D01*
X003130574Y003758192D01*
X003120479Y003753076D01*
X003120233Y003752950D01*
X003110186Y003747769D01*
X003109939Y003747640D01*
X003099876Y003742360D01*
X003099630Y003742231D01*
X003089676Y003736918D01*
X003089430Y003736785D01*
X003079456Y003731370D01*
X003079215Y003731239D01*
X003069294Y003725763D01*
X003069051Y003725627D01*
X003059178Y003720087D01*
X003058937Y003719951D01*
X003049137Y003714359D01*
X003048894Y003714219D01*
X003039031Y003708499D01*
X003038790Y003708359D01*
X003029088Y003702640D01*
X003028852Y003702500D01*
X003019097Y003696657D01*
X003018859Y003696513D01*
X003009255Y003690669D01*
X003009019Y003690524D01*
X002999288Y003684508D01*
X002999052Y003684361D01*
X002989527Y003678379D01*
X002989293Y003678231D01*
X002979685Y003672102D01*
X002979452Y003671952D01*
X002970004Y003665831D01*
X002969770Y003665679D01*
X002960307Y003659453D01*
X002960075Y003659298D01*
X002950689Y003653027D01*
X002950461Y003652874D01*
X002941027Y003646476D01*
X002940796Y003646317D01*
X002931474Y003639896D01*
X002931248Y003639740D01*
X002921932Y003633227D01*
X002921704Y003633066D01*
X002912538Y003626561D01*
X002912312Y003626399D01*
X002903099Y003619763D01*
X002902875Y003619600D01*
X002893729Y003612915D01*
X002893505Y003612749D01*
X002884406Y003605997D01*
X002884183Y003605831D01*
X002875131Y003599014D01*
X002874911Y003598848D01*
X002865945Y003591997D01*
X002865723Y003591826D01*
X002856715Y003584842D01*
X002856498Y003584672D01*
X002847618Y003577688D01*
X002847397Y003577512D01*
X002838581Y003570474D01*
X002838368Y003570304D01*
X002829526Y003563144D01*
X002829308Y003562966D01*
X002820576Y003555792D01*
X002820364Y003555617D01*
X002811688Y003548387D01*
X002811474Y003548207D01*
X002802785Y003540862D01*
X002802573Y003540682D01*
X002794038Y003533363D01*
X002793828Y003533181D01*
X002785204Y003525679D01*
X002784996Y003525497D01*
X002776528Y003518025D01*
X002776317Y003517838D01*
X002767869Y003510276D01*
X002767664Y003510092D01*
X002759307Y003502506D01*
X002759102Y003502318D01*
X002750733Y003494613D01*
X002750529Y003494423D01*
X002742310Y003486749D01*
X002742108Y003486559D01*
X002733872Y003478759D01*
X002733670Y003478567D01*
X002725452Y003470672D01*
X002725252Y003470478D01*
X002717174Y003462609D01*
X002716978Y003462416D01*
X002708916Y003454451D01*
X002708718Y003454255D01*
X002700728Y003446248D01*
X002700533Y003446050D01*
X002692594Y003437981D01*
X002692399Y003437782D01*
X002684508Y003429648D01*
X002684316Y003429448D01*
X002676443Y003421219D01*
X002676252Y003421017D01*
X002668549Y003412850D01*
X002668357Y003412646D01*
X002660590Y003404292D01*
X002660402Y003404088D01*
X002652793Y003395789D01*
X002652605Y003395584D01*
X002645017Y003387188D01*
X002644833Y003386983D01*
X002637223Y003378445D01*
X002637041Y003378238D01*
X002629635Y003369811D01*
X002629450Y003369598D01*
X002622001Y003360998D01*
X002621820Y003360788D01*
X002614522Y003352242D01*
X002614345Y003352033D01*
X002606940Y003343237D01*
X002606761Y003343022D01*
X002599594Y003334386D01*
X002599419Y003334174D01*
X002592276Y003325443D01*
X002592098Y003325224D01*
X002584962Y003316372D01*
X002584790Y003316157D01*
X002577735Y003307280D01*
X002577563Y003307062D01*
X002570603Y003298177D01*
X002570431Y003297957D01*
X002563481Y003288953D01*
X002563313Y003288734D01*
X002556496Y003279773D01*
X002556326Y003279550D01*
X002549498Y003270440D01*
X002549333Y003270220D01*
X002542607Y003261114D01*
X002542443Y003260891D01*
X002535799Y003251765D01*
X002535637Y003251539D01*
X002529005Y003242292D01*
X002528843Y003242066D01*
X002522326Y003232841D01*
X002522166Y003232613D01*
X002515713Y003223341D01*
X002515556Y003223114D01*
X002509130Y003213742D01*
X002508973Y003213511D01*
X002502632Y003204122D01*
X002502478Y003203892D01*
X002496197Y003194448D01*
X002496044Y003194215D01*
X002489889Y003184818D01*
X002489738Y003184587D01*
X002483525Y003174953D01*
X002483376Y003174720D01*
X002477353Y003165235D01*
X002477205Y003164999D01*
X002471188Y003155375D01*
X002471042Y003155139D01*
X002465125Y003145523D01*
X002464980Y003145286D01*
X002459090Y003135561D01*
X002458946Y003135322D01*
X002454771Y003128318D01*
X002454210Y003127345D01*
X002453676Y003126356D01*
X002453171Y003125353D01*
X002452696Y003124335D01*
X002452248Y003123305D01*
X002451831Y003122263D01*
X002451444Y003121208D01*
X002451087Y003120143D01*
X002450760Y003119068D01*
X002450465Y003117985D01*
X002450200Y003116893D01*
X002449966Y003115794D01*
X002449764Y003114689D01*
X002449594Y003113579D01*
X002449455Y003112464D01*
X002449348Y003111347D01*
X002449273Y003110226D01*
X002449230Y003109104D01*
X002449219Y003107980D01*
X002449241Y003106857D01*
X002449294Y003105735D01*
X002449379Y003104615D01*
X002449496Y003103498D01*
X002449645Y003102385D01*
X002449825Y003101276D01*
X002450037Y003100174D01*
X002450281Y003099077D01*
X002450555Y003097988D01*
X002450861Y003096907D01*
X002451198Y003095835D01*
X002451565Y003094774D01*
X002451961Y003093723D01*
X002452388Y003092684D01*
X002452844Y003091658D01*
X002453330Y003090644D01*
X002453844Y003089646D01*
X002454387Y003088663D01*
X002454957Y003087694D01*
X002455553Y003086743D01*
X002456178Y003085809D01*
X002456829Y003084894D01*
X002457505Y003083998D01*
X002458208Y003083120D01*
X002458934Y003082264D01*
X002459685Y003081429D01*
X002460459Y003080615D01*
X002461257Y003079824D01*
X002462076Y003079056D01*
X002462917Y003078311D01*
X002463779Y003077591D01*
X002464661Y003076896D01*
X002465563Y003076225D01*
X002466483Y003075582D01*
X002467421Y003074964D01*
X002468377Y003074374D01*
X002469349Y003073811D01*
X002470337Y003073277D01*
X002471339Y003072770D01*
X002472356Y003072292D01*
X002473385Y003071844D01*
X002474428Y003071425D01*
X002475481Y003071036D01*
X002476546Y003070677D01*
X002477620Y003070349D01*
X002478703Y003070051D01*
X002479531Y003069837D01*
X002479737Y003069782D01*
X002493217Y003066091D01*
X002493487Y003066015D01*
X002506871Y003062156D01*
X002507145Y003062076D01*
X002520494Y003058029D01*
X002520744Y003057950D01*
X002534030Y003053726D01*
X002534299Y003053640D01*
X002547571Y003049220D01*
X002547759Y003049156D01*
X002560969Y003044559D01*
X002561226Y003044468D01*
X002574297Y003039719D01*
X002574625Y003039597D01*
X002587629Y003034672D01*
X002587868Y003034579D01*
X002600872Y003029454D01*
X002601099Y003029362D01*
X002606315Y003027223D01*
X002610586Y003025163D01*
X002614579Y003022605D01*
X002618234Y003019586D01*
X002621501Y003016148D01*
X002624330Y003012343D01*
X002626681Y003008226D01*
X002628521Y003003855D01*
X002629821Y002999296D01*
X002630564Y002994613D01*
X002630739Y002989874D01*
X002630343Y002985149D01*
X002629381Y002980506D01*
X002627869Y002976012D01*
X002625827Y002971733D01*
X002623285Y002967730D01*
X002620280Y002964061D01*
X002616857Y002960781D01*
X002613064Y002957936D01*
X002608956Y002955567D01*
X002604593Y002953710D01*
X002547526Y002933378D01*
X002546263Y002932951D01*
X002544986Y002932568D01*
X002543697Y002932229D01*
X002542398Y002931933D01*
X002541089Y002931681D01*
X002539772Y002931474D01*
X002538449Y002931312D01*
X002537121Y002931194D01*
X002535790Y002931122D01*
X002534458Y002931094D01*
X002533125Y002931112D01*
X002531793Y002931175D01*
X002530465Y002931282D01*
X002529140Y002931435D01*
X002527822Y002931633D01*
X002526511Y002931875D01*
X002525209Y002932161D01*
X002523918Y002932491D01*
X002522639Y002932865D01*
X002521372Y002933281D01*
X002509595Y002937380D01*
X002497621Y002941367D01*
X002485593Y002945191D01*
X002473515Y002948852D01*
X002461388Y002952349D01*
X002449215Y002955682D01*
X002436998Y002958849D01*
X002424739Y002961851D01*
X002412441Y002964686D01*
X002400105Y002967355D01*
X002387734Y002969856D01*
X002375331Y002972190D01*
X002362897Y002974355D01*
X002350435Y002976352D01*
X002337948Y002978179D01*
X002325436Y002979838D01*
X002312903Y002981327D01*
X002300351Y002982646D01*
X002287782Y002983795D01*
X002275200Y002984774D01*
X002262605Y002985582D01*
X002249999Y002986220D01*
X002254964Y002997622D01*
X002260008Y003008989D01*
X002265132Y003020320D01*
X002270337Y003031615D01*
X002275620Y003042873D01*
X002280984Y003054094D01*
X002286425Y003065275D01*
X002291946Y003076419D01*
X002297545Y003087524D01*
X002303222Y003098588D01*
X002308977Y003109612D01*
X002314810Y003120595D01*
X002320720Y003131538D01*
X002326707Y003142438D01*
X002332771Y003153295D01*
X002338911Y003164110D01*
X002345128Y003174881D01*
X002351419Y003185608D01*
X002357787Y003196290D01*
X002364230Y003206927D01*
X002370747Y003217519D01*
X002377339Y003228064D01*
X002384006Y003238562D01*
X002390746Y003249013D01*
X002397560Y003259417D01*
X002404447Y003269771D01*
X002411406Y003280077D01*
X002418439Y003290334D01*
X002425543Y003300542D01*
X002432719Y003310698D01*
X002439967Y003320804D01*
X002447286Y003330858D01*
X002454675Y003340861D01*
X002462135Y003350811D01*
X002469665Y003360708D01*
X002477264Y003370553D01*
X002484933Y003380343D01*
X002492670Y003390079D01*
X002500476Y003399760D01*
X002508350Y003409385D01*
X002516292Y003418955D01*
X002524301Y003428469D01*
X002532377Y003437926D01*
X002540519Y003447326D01*
X002548728Y003456669D01*
X002557002Y003465953D01*
X002565341Y003475178D01*
X002573746Y003484345D01*
X002582214Y003493451D01*
X002590747Y003502499D01*
X002599343Y003511485D01*
X002608002Y003520411D01*
X002616725Y003529276D01*
X002625509Y003538079D01*
X002634356Y003546819D01*
X002643263Y003555497D01*
X002652232Y003564112D01*
X002661261Y003572664D01*
X002670350Y003581151D01*
X002679499Y003589575D01*
X002688707Y003597933D01*
X002697974Y003606227D01*
X002707299Y003614455D01*
X002716682Y003622617D01*
X002726122Y003630712D01*
X002735619Y003638741D01*
X002745173Y003646703D01*
X002754782Y003654597D01*
X002764447Y003662423D01*
X002774166Y003670181D01*
X002783941Y003677870D01*
X002793769Y003685490D01*
X002803650Y003693040D01*
X002813585Y003700521D01*
X002823572Y003707931D01*
X002833611Y003715271D01*
X002843702Y003722540D01*
X002853844Y003729737D01*
X002864036Y003736863D01*
X002874278Y003743917D01*
X002884570Y003750898D01*
X002894910Y003757807D01*
X002905299Y003764642D01*
X002915737Y003771404D01*
X002926221Y003778092D01*
X002936752Y003784706D01*
X002947330Y003791246D01*
X002957953Y003797711D01*
X002968622Y003804101D01*
X002979336Y003810415D01*
X002990094Y003816654D01*
X003000896Y003822817D01*
X003011741Y003828903D01*
X003022628Y003834913D01*
X003033558Y003840846D01*
X003044529Y003846701D01*
X003055541Y003852480D01*
X003066594Y003858180D01*
X003077686Y003863802D01*
X003088818Y003869346D01*
X003099989Y003874811D01*
X003111198Y003880198D01*
X003122445Y003885505D01*
X003133729Y003890733D01*
X003145049Y003895881D01*
X003156406Y003900949D01*
X003167798Y003905937D01*
X003158260Y003914022D01*
X003148645Y003922016D01*
X003138955Y003929918D01*
X003129190Y003937728D01*
X003119350Y003945444D01*
X003109438Y003953066D01*
X003099453Y003960593D01*
X003089398Y003968025D01*
X003079271Y003975360D01*
X003069076Y003982599D01*
X003058812Y003989741D01*
X003048481Y003996784D01*
X003038083Y004003729D01*
X003027618Y004010574D01*
X003017090Y004017319D01*
X003006498Y004023963D01*
X002995843Y004030507D01*
X002985125Y004036948D01*
X002974347Y004043288D01*
X002963509Y004049524D01*
X002952613Y004055656D01*
X002941658Y004061685D01*
X002930646Y004067609D01*
X002919579Y004073428D01*
X002908457Y004079141D01*
X002897280Y004084748D01*
X002886051Y004090248D01*
X002874769Y004095641D01*
X002863438Y004100926D01*
X002852056Y004106103D01*
X002840625Y004111171D01*
X002829147Y004116131D01*
X002817621Y004120981D01*
X002806051Y004125720D01*
X002794435Y004130349D01*
X002782776Y004134868D01*
X002771075Y004139275D01*
X002759331Y004143570D01*
X002747548Y004147754D01*
X002735726Y004151825D01*
X002723865Y004155783D01*
X002711966Y004159628D01*
X002700032Y004163359D01*
X002688063Y004166977D01*
X002676060Y004170480D01*
X002664024Y004173869D01*
X002651956Y004177143D01*
X002639858Y004180302D01*
X002627730Y004183346D01*
X002615573Y004186274D01*
X002603390Y004189085D01*
X002591180Y004191781D01*
X002578945Y004194361D01*
X002566686Y004196823D01*
X002554404Y004199169D01*
X002542100Y004201397D01*
X002529776Y004203508D01*
X002517432Y004205503D01*
X002505069Y004207379D01*
X002492690Y004209137D01*
X002480294Y004210777D01*
X002467883Y004212299D01*
X002455458Y004213704D01*
X002443020Y004214989D01*
X002430571Y004216156D01*
X002418111Y004217204D01*
X002405642Y004218133D01*
X002393164Y004218944D01*
X002380679Y004219635D01*
X002368188Y004220208D01*
X002355693Y004220662D01*
X002343193Y004220997D01*
X002330691Y004221212D01*
X002318187Y004221309D01*
X002305683Y004221286D01*
X002293180Y004221144D01*
X002280679Y004220884D01*
X002268181Y004220503D01*
X002255687Y004220005D01*
X002243198Y004219387D01*
X002230716Y004218650D01*
X002218241Y004217794D01*
X002205775Y004216820D01*
X002193319Y004215726D01*
X002180875Y004214514D01*
X002168441Y004213184D01*
X002156021Y004211735D01*
X002156474Y004224258D01*
X002156972Y004236779D01*
X002157514Y004249297D01*
X002158102Y004261815D01*
X002158734Y004274329D01*
X002159412Y004286842D01*
X002160134Y004299352D01*
X002160901Y004311859D01*
X002161713Y004324364D01*
X002162571Y004336865D01*
X002163472Y004349364D01*
X002164419Y004361859D01*
X002165410Y004374350D01*
X002166447Y004386838D01*
X002167528Y004399322D01*
X002168654Y004411803D01*
X002169825Y004424279D01*
X002171040Y004436750D01*
X002172300Y004449218D01*
X002173605Y004461680D01*
X002174955Y004474138D01*
X002176350Y004486591D01*
X002177789Y004499039D01*
X002179272Y004511482D01*
X002180801Y004523919D01*
X002182374Y004536351D01*
X002183992Y004548777D01*
X002185654Y004561197D01*
X002187361Y004573611D01*
X002189112Y004586019D01*
X002190908Y004598420D01*
X002192748Y004610815D01*
X002194633Y004623204D01*
X002196562Y004635585D01*
X002198536Y004647959D01*
X002200555Y004660326D01*
X002202617Y004672686D01*
X002204724Y004685039D01*
X002197969Y004685039D01*
X004307392Y003975281D02*
X004307392Y003975281D01*
X004309522Y003971740D01*
X004311270Y003967994D01*
X004312615Y003964086D01*
X004313544Y003960058D01*
X004314045Y003955955D01*
X004314112Y003951823D01*
X004313747Y003947706D01*
X004312951Y003943650D01*
X004311735Y003939699D01*
X004310112Y003935898D01*
X004308099Y003932289D01*
X004305718Y003928910D01*
X004302996Y003925799D01*
X004299964Y003922991D01*
X004296653Y003920516D01*
X004293101Y003918402D01*
X004289348Y003916672D01*
X004285433Y003915345D01*
X004281401Y003914436D01*
X004277296Y003913954D01*
X004231999Y003911039D01*
X004229925Y003910961D01*
X004227850Y003910991D01*
X004225779Y003911131D01*
X004223719Y003911380D01*
X004221674Y003911738D01*
X004219651Y003912202D01*
X004217656Y003912773D01*
X004215693Y003913448D01*
X004213768Y003914225D01*
X004211887Y003915103D01*
X004210056Y003916078D01*
X004208278Y003917149D01*
X004206558Y003918312D01*
X004204903Y003919564D01*
X004203316Y003920902D01*
X004201801Y003922321D01*
X004200364Y003923818D01*
X004199007Y003925389D01*
X004197735Y003927029D01*
X004196552Y003928734D01*
X004194651Y003931631D01*
X004187873Y003942120D01*
X004181167Y003952656D01*
X004174532Y003963237D01*
X004167970Y003973863D01*
X004161480Y003984534D01*
X004155064Y003995249D01*
X004148720Y004006007D01*
X004142451Y004016808D01*
X004136255Y004027652D01*
X004130133Y004038538D01*
X004124086Y004049466D01*
X004118113Y004060434D01*
X004112216Y004071443D01*
X004106394Y004082492D01*
X004100647Y004093581D01*
X004094976Y004104708D01*
X004089382Y004115874D01*
X004083863Y004127078D01*
X004078422Y004138319D01*
X004073056Y004149598D01*
X004067769Y004160912D01*
X004062558Y004172262D01*
X004057426Y004183648D01*
X004052371Y004195068D01*
X004047393Y004206523D01*
X004042495Y004218011D01*
X004037675Y004229533D01*
X004032933Y004241087D01*
X004028272Y004252673D01*
X004023689Y004264291D01*
X004019184Y004275940D01*
X004014761Y004287619D01*
X004010416Y004299328D01*
X004006152Y004311067D01*
X004001968Y004322834D01*
X004135826Y004224409D01*
X004068897Y004437007D01*
X004240157Y004562992D01*
X004027559Y004564960D01*
X003960630Y004765748D01*
X003893700Y004564960D01*
X003681102Y004564960D01*
X003852362Y004435039D01*
X003787401Y004234251D01*
X003909448Y004322834D01*
X003905243Y004311145D01*
X003900958Y004299485D01*
X003896592Y004287854D01*
X003892147Y004276254D01*
X003887622Y004264685D01*
X003883019Y004253146D01*
X003878336Y004241640D01*
X003873575Y004230166D01*
X003868735Y004218724D01*
X003863816Y004207317D01*
X003858819Y004195943D01*
X003853745Y004184604D01*
X003848593Y004173300D01*
X003843363Y004162031D01*
X003838057Y004150799D01*
X003832673Y004139603D01*
X003827214Y004128445D01*
X003821677Y004117324D01*
X003816065Y004106241D01*
X003810376Y004095197D01*
X003804612Y004084193D01*
X003798772Y004073228D01*
X003792857Y004062304D01*
X003786868Y004051420D01*
X003780805Y004040577D01*
X003774667Y004029777D01*
X003768455Y004019019D01*
X003762169Y004008303D01*
X003755810Y003997631D01*
X003749378Y003987003D01*
X003742874Y003976420D01*
X003736297Y003965881D01*
X003729648Y003955387D01*
X003727154Y003951511D01*
X003725374Y003948970D01*
X003723400Y003946577D01*
X003721243Y003944346D01*
X003718917Y003942293D01*
X003716436Y003940429D01*
X003713817Y003938766D01*
X003711074Y003937315D01*
X003708226Y003936084D01*
X003705290Y003935081D01*
X003702284Y003934312D01*
X003699227Y003933783D01*
X003696137Y003933496D01*
X003693035Y003933453D01*
X003689939Y003933655D01*
X003686868Y003934100D01*
X003683842Y003934785D01*
X003680879Y003935706D01*
X003677998Y003936858D01*
X003675217Y003938233D01*
X003672553Y003939823D01*
X003639565Y003961314D01*
X003637052Y003963095D01*
X003634686Y003965067D01*
X003632481Y003967217D01*
X003630452Y003969534D01*
X003628609Y003972002D01*
X003626965Y003974607D01*
X003625530Y003977332D01*
X003624312Y003980161D01*
X003623319Y003983076D01*
X003622557Y003986060D01*
X003622031Y003989095D01*
X003621743Y003992161D01*
X003621696Y003995241D01*
X003621890Y003998315D01*
X003622324Y004001364D01*
X003622995Y004004370D01*
X003623898Y004007314D01*
X003625029Y004010179D01*
X003626380Y004012947D01*
X003627944Y004015600D01*
X003630033Y004018848D01*
X003630176Y004019072D01*
X003636246Y004028651D01*
X003636392Y004028882D01*
X003642362Y004038448D01*
X003642503Y004038677D01*
X003648477Y004048398D01*
X003648618Y004048629D01*
X003654500Y004058347D01*
X003654638Y004058578D01*
X003660407Y004068260D01*
X003660546Y004068495D01*
X003666282Y004078274D01*
X003666416Y004078505D01*
X003672144Y004088424D01*
X003672279Y004088659D01*
X003677859Y004098479D01*
X003677992Y004098714D01*
X003683507Y004108575D01*
X003683636Y004108808D01*
X003688444Y004117544D01*
X003688968Y004118530D01*
X003689464Y004119530D01*
X003689932Y004120543D01*
X003690370Y004121570D01*
X003690779Y004122608D01*
X003691160Y004123658D01*
X003691509Y004124717D01*
X003691829Y004125787D01*
X003692119Y004126865D01*
X003692377Y004127951D01*
X003692604Y004129044D01*
X003692802Y004130142D01*
X003692966Y004131246D01*
X003693101Y004132355D01*
X003693203Y004133466D01*
X003693274Y004134580D01*
X003693314Y004135695D01*
X003693321Y004136811D01*
X003693297Y004137927D01*
X003693242Y004139042D01*
X003693154Y004140155D01*
X003693036Y004141265D01*
X003692886Y004142371D01*
X003692704Y004143472D01*
X003692492Y004144568D01*
X003692248Y004145658D01*
X003691974Y004146740D01*
X003691670Y004147813D01*
X003691335Y004148878D01*
X003690970Y004149933D01*
X003690574Y004150977D01*
X003690150Y004152009D01*
X003689696Y004153029D01*
X003689215Y004154035D01*
X003688704Y004155028D01*
X003688166Y004156006D01*
X003687599Y004156968D01*
X003687006Y004157914D01*
X003686387Y004158843D01*
X003685741Y004159753D01*
X003685070Y004160644D01*
X003684373Y004161517D01*
X003683654Y004162369D01*
X003682909Y004163201D01*
X003682141Y004164011D01*
X003681350Y004164799D01*
X003680538Y004165565D01*
X003679704Y004166307D01*
X003678849Y004167024D01*
X003677975Y004167718D01*
X003677081Y004168386D01*
X003648867Y004188868D01*
X003648641Y004189037D01*
X003648639Y004189039D01*
X003648725Y004189317D01*
X003705572Y004365026D01*
X003705905Y004366106D01*
X003706206Y004367196D01*
X003706476Y004368294D01*
X003706714Y004369399D01*
X003706921Y004370510D01*
X003707096Y004371626D01*
X003707238Y004372748D01*
X003707348Y004373873D01*
X003707426Y004375001D01*
X003707471Y004376131D01*
X003707484Y004377261D01*
X003707464Y004378391D01*
X003707412Y004379520D01*
X003707327Y004380648D01*
X003707211Y004381772D01*
X003707062Y004382893D01*
X003706881Y004384008D01*
X003706668Y004385118D01*
X003706424Y004386222D01*
X003706146Y004387318D01*
X003705839Y004388406D01*
X003705500Y004389484D01*
X003705130Y004390553D01*
X003704730Y004391610D01*
X003704300Y004392656D01*
X003703839Y004393688D01*
X003703350Y004394707D01*
X003702832Y004395711D01*
X003702284Y004396700D01*
X003701708Y004397673D01*
X003701105Y004398629D01*
X003700475Y004399568D01*
X003699817Y004400487D01*
X003699135Y004401388D01*
X003698426Y004402269D01*
X003697692Y004403128D01*
X003696934Y004403967D01*
X003696152Y004404783D01*
X003695346Y004405577D01*
X003694519Y004406347D01*
X003693670Y004407093D01*
X003692799Y004407815D01*
X003691909Y004408511D01*
X003542312Y004521998D01*
X003542098Y004522165D01*
X003542096Y004522166D01*
X003542097Y004522168D01*
X003542179Y004522423D01*
X003596128Y004682799D01*
X003596221Y004683066D01*
X003596220Y004683066D01*
X003596496Y004683070D01*
X003780195Y004683070D01*
X003781312Y004683086D01*
X003782428Y004683133D01*
X003783544Y004683213D01*
X003784656Y004683324D01*
X003785764Y004683466D01*
X003786868Y004683640D01*
X003787967Y004683845D01*
X003789059Y004684081D01*
X003790144Y004684348D01*
X003791222Y004684646D01*
X003792290Y004684974D01*
X003793348Y004685333D01*
X003794396Y004685720D01*
X003795432Y004686139D01*
X003796457Y004686586D01*
X003797468Y004687062D01*
X003798465Y004687566D01*
X003799448Y004688099D01*
X003800414Y004688659D01*
X003801365Y004689247D01*
X003802299Y004689861D01*
X003803215Y004690502D01*
X003804112Y004691168D01*
X003804990Y004691859D01*
X003805848Y004692575D01*
X003806685Y004693315D01*
X003807501Y004694079D01*
X003808296Y004694866D01*
X003809067Y004695674D01*
X003809815Y004696505D01*
X003810538Y004697356D01*
X003811239Y004698228D01*
X003811913Y004699118D01*
X003812563Y004700028D01*
X003813185Y004700955D01*
X003813782Y004701901D01*
X003814352Y004702863D01*
X003814893Y004703839D01*
X003815407Y004704832D01*
X003815893Y004705839D01*
X003816350Y004706859D01*
X003816777Y004707891D01*
X003817176Y004708935D01*
X003817544Y004709991D01*
X003875404Y004883569D01*
X003875503Y004883853D01*
X003875503Y004883853D01*
X003875775Y004883857D01*
X004045483Y004883857D01*
X004045755Y004883853D01*
X004045853Y004883573D01*
X004104063Y004708943D01*
X004104438Y004707871D01*
X004104843Y004706811D01*
X004105278Y004705763D01*
X004105744Y004704728D01*
X004106239Y004703706D01*
X004106764Y004702699D01*
X004107316Y004701708D01*
X004107898Y004700734D01*
X004108508Y004699776D01*
X004109145Y004698836D01*
X004109809Y004697916D01*
X004110498Y004697014D01*
X004111214Y004696133D01*
X004111955Y004695273D01*
X004112720Y004694435D01*
X004113509Y004693619D01*
X004114321Y004692826D01*
X004115156Y004692057D01*
X004116012Y004691312D01*
X004116890Y004690592D01*
X004117789Y004689898D01*
X004118706Y004689230D01*
X004119643Y004688589D01*
X004120598Y004687975D01*
X004121570Y004687389D01*
X004122558Y004686831D01*
X004123563Y004686302D01*
X004124581Y004685802D01*
X004125614Y004685331D01*
X004126661Y004684891D01*
X004127719Y004684481D01*
X004128788Y004684101D01*
X004129869Y004683753D01*
X004130959Y004683436D01*
X004132057Y004683150D01*
X004133164Y004682896D01*
X004134277Y004682674D01*
X004135396Y004682485D01*
X004136520Y004682327D01*
X004137649Y004682203D01*
X004138780Y004682111D01*
X004139913Y004682051D01*
X004141048Y004682024D01*
X004326105Y004680310D01*
X004326369Y004680304D01*
X004326372Y004680304D01*
X004326372Y004680303D01*
X004326466Y004680029D01*
X004378626Y004518577D01*
X004378713Y004518296D01*
X004378494Y004518131D01*
X004229595Y004408596D01*
X004228689Y004407910D01*
X004227804Y004407197D01*
X004226939Y004406459D01*
X004226096Y004405696D01*
X004225275Y004404910D01*
X004224478Y004404100D01*
X004223704Y004403267D01*
X004222955Y004402413D01*
X004222230Y004401537D01*
X004221531Y004400641D01*
X004220858Y004399725D01*
X004220212Y004398789D01*
X004219593Y004397836D01*
X004219002Y004396865D01*
X004218439Y004395877D01*
X004217905Y004394873D01*
X004217401Y004393856D01*
X004216926Y004392823D01*
X004216480Y004391777D01*
X004216066Y004390718D01*
X004215682Y004389649D01*
X004215328Y004388568D01*
X004215007Y004387477D01*
X004214716Y004386379D01*
X004214459Y004385272D01*
X004214232Y004384158D01*
X004214038Y004383038D01*
X004213877Y004381913D01*
X004213748Y004380783D01*
X004213652Y004379651D01*
X004213589Y004378515D01*
X004213558Y004377379D01*
X004213559Y004376242D01*
X004213595Y004375107D01*
X004213662Y004373972D01*
X004213762Y004372839D01*
X004213896Y004371711D01*
X004214061Y004370586D01*
X004214259Y004369466D01*
X004214489Y004368354D01*
X004214752Y004367248D01*
X004215046Y004366150D01*
X004215371Y004365061D01*
X004274124Y004178435D01*
X004274202Y004178175D01*
X004274202Y004178174D01*
X004274201Y004178173D01*
X004273980Y004178011D01*
X004240862Y004154323D01*
X004239957Y004153656D01*
X004239072Y004152964D01*
X004238207Y004152246D01*
X004237363Y004151505D01*
X004236540Y004150740D01*
X004235741Y004149952D01*
X004234963Y004149141D01*
X004234209Y004148308D01*
X004233479Y004147454D01*
X004232773Y004146580D01*
X004232093Y004145685D01*
X004231439Y004144772D01*
X004230811Y004143841D01*
X004230209Y004142892D01*
X004229635Y004141926D01*
X004229089Y004140944D01*
X004228572Y004139947D01*
X004228082Y004138935D01*
X004227622Y004137911D01*
X004227192Y004136872D01*
X004226790Y004135823D01*
X004226419Y004134762D01*
X004226079Y004133692D01*
X004225769Y004132612D01*
X004225490Y004131524D01*
X004225243Y004130428D01*
X004225027Y004129325D01*
X004224843Y004128217D01*
X004224689Y004127104D01*
X004224568Y004125987D01*
X004224479Y004124867D01*
X004224422Y004123745D01*
X004224396Y004122622D01*
X004224403Y004121499D01*
X004224442Y004120376D01*
X004224513Y004119255D01*
X004224616Y004118136D01*
X004224750Y004117020D01*
X004224917Y004115909D01*
X004225115Y004114804D01*
X004225345Y004113704D01*
X004225606Y004112611D01*
X004225898Y004111526D01*
X004226221Y004110450D01*
X004226574Y004109383D01*
X004226958Y004108328D01*
X004227372Y004107283D01*
X004227815Y004106251D01*
X004228288Y004105231D01*
X004228789Y004104226D01*
X004229319Y004103235D01*
X004233211Y004096203D01*
X004233341Y004095971D01*
X004238945Y004086005D01*
X004239078Y004085769D01*
X004244743Y004075855D01*
X004244876Y004075624D01*
X004250588Y004065784D01*
X004250724Y004065552D01*
X004256519Y004055722D01*
X004256657Y004055490D01*
X004262543Y004045661D01*
X004262682Y004045431D01*
X004268622Y004035663D01*
X004268763Y004035435D01*
X004274731Y004025770D01*
X004274874Y004025540D01*
X004280958Y004015837D01*
X004281103Y004015608D01*
X004287192Y004006042D01*
X004287335Y004005820D01*
X004293570Y003996170D01*
X004293718Y003995943D01*
X004299963Y003986422D01*
X004300112Y003986197D01*
X004306461Y003976661D01*
X004306609Y003976441D01*
X004307392Y003975281D01*
X003280667Y000752321D02*
X003280667Y000752321D01*
X003277467Y000752880D01*
X003274324Y000753700D01*
X003271260Y000754777D01*
X003268295Y000756102D01*
X003265449Y000757668D01*
X003262742Y000759463D01*
X003260193Y000761475D01*
X003257817Y000763690D01*
X003255633Y000766093D01*
X003253653Y000768669D01*
X003251893Y000771398D01*
X003250364Y000774264D01*
X003249076Y000777245D01*
X003248039Y000780323D01*
X003247259Y000783476D01*
X003246741Y000786682D01*
X003246489Y000789921D01*
X003246505Y000793169D01*
X003246789Y000796404D01*
X003247338Y000799605D01*
X003255619Y000838223D01*
X003256341Y000841067D01*
X003257273Y000843850D01*
X003258409Y000846556D01*
X003259744Y000849169D01*
X003261270Y000851676D01*
X003262978Y000854062D01*
X003264859Y000856315D01*
X003266903Y000858421D01*
X003269098Y000860368D01*
X003271432Y000862147D01*
X003273892Y000863748D01*
X003276464Y000865160D01*
X003279135Y000866377D01*
X003281888Y000867392D01*
X003284710Y000868198D01*
X003287584Y000868793D01*
X003290494Y000869171D01*
X003293424Y000869332D01*
X003296358Y000869274D01*
X003299280Y000868998D01*
X003307107Y000867962D01*
X003319518Y000866440D01*
X003331943Y000865036D01*
X003344380Y000863751D01*
X003356830Y000862584D01*
X003369290Y000861535D01*
X003381759Y000860606D01*
X003394237Y000859796D01*
X003406722Y000859104D01*
X003419212Y000858531D01*
X003431708Y000858077D01*
X003444208Y000857742D01*
X003456710Y000857527D01*
X003469213Y000857430D01*
X003481717Y000857453D01*
X003494220Y000857595D01*
X003506722Y000857856D01*
X003519220Y000858236D01*
X003531714Y000858734D01*
X003544203Y000859353D01*
X003556684Y000860089D01*
X003569159Y000860945D01*
X003581625Y000861920D01*
X003594081Y000863013D01*
X003606526Y000864225D01*
X003618960Y000865556D01*
X003631379Y000867004D01*
X003630929Y000854522D01*
X003630438Y000842042D01*
X003629904Y000829563D01*
X003629329Y000817086D01*
X003628712Y000804611D01*
X003628053Y000792138D01*
X003627352Y000779668D01*
X003626609Y000767199D01*
X003625825Y000754734D01*
X003624999Y000742271D01*
X003624131Y000729811D01*
X003623221Y000717354D01*
X003622270Y000704900D01*
X003621276Y000692449D01*
X003620242Y000680002D01*
X003619164Y000667559D01*
X003618046Y000655118D01*
X003616886Y000642682D01*
X003615684Y000630250D01*
X003614440Y000617822D01*
X003613155Y000605398D01*
X003611828Y000592978D01*
X003610459Y000580563D01*
X003609049Y000568153D01*
X003607598Y000555747D01*
X003606104Y000543347D01*
X003604569Y000530952D01*
X003602993Y000518561D01*
X003601375Y000506176D01*
X003599715Y000493797D01*
X003598014Y000481423D01*
X003596271Y000469055D01*
X003594488Y000456693D01*
X003783464Y000456693D01*
X003783464Y000393700D01*
X003921260Y000393700D01*
X003921260Y002405511D01*
X003992125Y002405511D01*
X003992125Y000393700D01*
X004129921Y000393700D01*
X004129921Y000456693D01*
X004318897Y000456693D01*
X004317201Y000469023D01*
X004315559Y000481360D01*
X004313970Y000493705D01*
X004312434Y000506056D01*
X004310953Y000518414D01*
X004309525Y000530777D01*
X004308150Y000543148D01*
X004306830Y000555524D01*
X004305563Y000567905D01*
X004304351Y000580292D01*
X004303191Y000592685D01*
X004302086Y000605082D01*
X004301035Y000617483D01*
X004300037Y000629890D01*
X004299094Y000642300D01*
X004298204Y000654714D01*
X004297368Y000667133D01*
X004296586Y000679554D01*
X004295858Y000691979D01*
X004295184Y000704407D01*
X004294564Y000716838D01*
X004293998Y000729272D01*
X004293486Y000741707D01*
X004293028Y000754145D01*
X004292624Y000766585D01*
X004292274Y000779026D01*
X004291978Y000791469D01*
X004291736Y000803912D01*
X004291549Y000816357D01*
X004291415Y000828803D01*
X004291335Y000841249D01*
X004291310Y000853695D01*
X004291338Y000866142D01*
X004303764Y000864722D01*
X004316203Y000863419D01*
X004328653Y000862235D01*
X004341114Y000861169D01*
X004353585Y000860222D01*
X004366065Y000859393D01*
X004378551Y000858682D01*
X004391043Y000858091D01*
X004403541Y000857618D01*
X004416043Y000857263D01*
X004428548Y000857028D01*
X004441054Y000856911D01*
X004453561Y000856913D01*
X004466067Y000857035D01*
X004478571Y000857274D01*
X004491073Y000857633D01*
X004503570Y000858110D01*
X004516063Y000858706D01*
X004528549Y000859420D01*
X004541028Y000860254D01*
X004553498Y000861206D01*
X004565960Y000862275D01*
X004578410Y000863464D01*
X004590848Y000864771D01*
X004603273Y000866196D01*
X004615685Y000867739D01*
X004628080Y000869399D01*
X004640460Y000871177D01*
X004652822Y000873073D01*
X004665166Y000875086D01*
X004677490Y000877216D01*
X004689793Y000879464D01*
X004702075Y000881828D01*
X004714333Y000884309D01*
X004726567Y000886906D01*
X004738776Y000889618D01*
X004750959Y000892448D01*
X004763113Y000895392D01*
X004767765Y000896566D01*
X004767765Y000896566D01*
X004770696Y000897188D01*
X004773667Y000897585D01*
X004776659Y000897755D01*
X004779655Y000897697D01*
X004782639Y000897411D01*
X004785591Y000896899D01*
X004788497Y000896164D01*
X004791338Y000895211D01*
X004794098Y000894043D01*
X004796762Y000892670D01*
X004799313Y000891097D01*
X004801737Y000889335D01*
X004804020Y000887394D01*
X004806149Y000885285D01*
X004808112Y000883020D01*
X004809896Y000880612D01*
X004811492Y000878075D01*
X004812891Y000875425D01*
X004814083Y000872676D01*
X004815064Y000869843D01*
X004826529Y000832132D01*
X004827331Y000829049D01*
X004827882Y000825911D01*
X004828177Y000822739D01*
X004828215Y000819553D01*
X004827995Y000816375D01*
X004827519Y000813225D01*
X004826789Y000810124D01*
X004825812Y000807092D01*
X004824592Y000804149D01*
X004823139Y000801314D01*
X004821461Y000798606D01*
X004819569Y000796043D01*
X004817477Y000793641D01*
X004815197Y000791415D01*
X004812744Y000789382D01*
X004810136Y000787553D01*
X004807388Y000785942D01*
X004804518Y000784557D01*
X004801546Y000783410D01*
X004798491Y000782506D01*
X004791552Y000780755D01*
X004791385Y000780714D01*
X004778279Y000777539D01*
X004778142Y000777507D01*
X004765033Y000774462D01*
X004764869Y000774425D01*
X004751710Y000771501D01*
X004751560Y000771468D01*
X004738405Y000768676D01*
X004738216Y000768637D01*
X004725031Y000765968D01*
X004724871Y000765937D01*
X004711686Y000763399D01*
X004711447Y000763354D01*
X004698207Y000760937D01*
X004698120Y000760921D01*
X004684830Y000758623D01*
X004684581Y000758582D01*
X004671367Y000756427D01*
X004671224Y000756404D01*
X004657882Y000754357D01*
X004657709Y000754331D01*
X004644447Y000752427D01*
X004644198Y000752392D01*
X004630931Y000750616D01*
X004630695Y000750585D01*
X004617347Y000748925D01*
X004617238Y000748913D01*
X004603837Y000747376D01*
X004603652Y000747355D01*
X004590295Y000745951D01*
X004590097Y000745932D01*
X004576671Y000744651D01*
X004576549Y000744640D01*
X004563174Y000743491D01*
X004562939Y000743472D01*
X004549529Y000742448D01*
X004549392Y000742438D01*
X004535902Y000741538D01*
X004535815Y000741532D01*
X004522338Y000740761D01*
X004522161Y000740751D01*
X004508711Y000740111D01*
X004508549Y000740104D01*
X004495132Y000739591D01*
X004494911Y000739584D01*
X004481510Y000739200D01*
X004481295Y000739194D01*
X004467816Y000738936D01*
X004467716Y000738935D01*
X004454287Y000738804D01*
X004454021Y000738803D01*
X004453172Y000738803D01*
X004452046Y000738787D01*
X004450922Y000738738D01*
X004449799Y000738658D01*
X004448680Y000738545D01*
X004447564Y000738401D01*
X004446452Y000738225D01*
X004445346Y000738017D01*
X004444247Y000737778D01*
X004443154Y000737507D01*
X004442070Y000737205D01*
X004440995Y000736872D01*
X004439930Y000736509D01*
X004438876Y000736115D01*
X004437833Y000735692D01*
X004436803Y000735238D01*
X004435786Y000734756D01*
X004434783Y000734244D01*
X004433796Y000733705D01*
X004432824Y000733137D01*
X004431870Y000732542D01*
X004430932Y000731920D01*
X004430013Y000731270D01*
X004429112Y000730596D01*
X004428231Y000729896D01*
X004427371Y000729170D01*
X004426531Y000728420D01*
X004425713Y000727647D01*
X004424918Y000726851D01*
X004424146Y000726032D01*
X004423397Y000725191D01*
X004422674Y000724330D01*
X004421974Y000723448D01*
X004421301Y000722547D01*
X004420653Y000721627D01*
X004420032Y000720688D01*
X004419439Y000719732D01*
X004418872Y000718759D01*
X004418334Y000717771D01*
X004417824Y000716768D01*
X004417343Y000715751D01*
X004416891Y000714720D01*
X004416469Y000713677D01*
X004416076Y000712622D01*
X004415715Y000711556D01*
X004415383Y000710481D01*
X004415083Y000709397D01*
X004414814Y000708304D01*
X004414576Y000707203D01*
X004414370Y000706098D01*
X004414195Y000704986D01*
X004414052Y000703869D01*
X004413941Y000702749D01*
X004413863Y000701627D01*
X004413816Y000700502D01*
X004413802Y000699377D01*
X004413819Y000698252D01*
X004413869Y000697128D01*
X004414475Y000686788D01*
X004414485Y000686620D01*
X004415226Y000674849D01*
X004415237Y000674677D01*
X004416027Y000662941D01*
X004416039Y000662771D01*
X004416881Y000651034D01*
X004416893Y000650863D01*
X004417783Y000639168D01*
X004417796Y000639000D01*
X004418727Y000627411D01*
X004418741Y000627240D01*
X004419744Y000615402D01*
X004419759Y000615229D01*
X004420813Y000603427D01*
X004420828Y000603258D01*
X004421911Y000591677D01*
X004421927Y000591509D01*
X004423078Y000579751D01*
X004423095Y000579579D01*
X004424285Y000567944D01*
X004424303Y000567774D01*
X004425570Y000555895D01*
X004425589Y000555722D01*
X004426868Y000544225D01*
X004426887Y000544059D01*
X004428246Y000532283D01*
X004428266Y000532112D01*
X004429668Y000520419D01*
X004429688Y000520250D01*
X004431121Y000508730D01*
X004431142Y000508559D01*
X004432671Y000496684D01*
X004432693Y000496516D01*
X004434219Y000485050D01*
X004434242Y000484881D01*
X004454324Y000338857D01*
X004454357Y000338586D01*
X004454088Y000338582D01*
X004287400Y000338582D01*
X004286276Y000338566D01*
X004285153Y000338518D01*
X004284031Y000338437D01*
X004282913Y000338325D01*
X004281798Y000338181D01*
X004280687Y000338005D01*
X004279582Y000337798D01*
X004278483Y000337559D01*
X004277392Y000337289D01*
X004276309Y000336987D01*
X004275235Y000336655D01*
X004274170Y000336292D01*
X004273116Y000335900D01*
X004272075Y000335477D01*
X004271046Y000335024D01*
X004270030Y000334543D01*
X004269028Y000334032D01*
X004268041Y000333493D01*
X004267070Y000332927D01*
X004266116Y000332332D01*
X004265178Y000331711D01*
X004264259Y000331063D01*
X004263359Y000330389D01*
X004262479Y000329690D01*
X004261619Y000328966D01*
X004260780Y000328217D01*
X004259962Y000327446D01*
X004259167Y000326650D01*
X004258395Y000325833D01*
X004257647Y000324994D01*
X004256922Y000324134D01*
X004256224Y000323253D01*
X004255550Y000322353D01*
X004254901Y000321434D01*
X004254280Y000320497D01*
X004253686Y000319542D01*
X004253119Y000318572D01*
X004252580Y000317585D01*
X004252070Y000316583D01*
X004251588Y000315567D01*
X004251136Y000314538D01*
X004250713Y000313496D01*
X004250320Y000312442D01*
X004249957Y000311378D01*
X004249625Y000310304D01*
X004249324Y000309220D01*
X004249054Y000308129D01*
X004248814Y000307031D01*
X004248607Y000305925D01*
X004248431Y000304815D01*
X004248287Y000303700D01*
X004248175Y000302581D01*
X004248094Y000301460D01*
X004248046Y000300337D01*
X004248030Y000299212D01*
X004248030Y000275877D01*
X004248026Y000275594D01*
X004247740Y000275590D01*
X003665645Y000275590D01*
X003665357Y000275594D01*
X003665353Y000275877D01*
X003665353Y000299212D01*
X003665337Y000300337D01*
X003665290Y000301460D01*
X003665209Y000302581D01*
X003665097Y000303700D01*
X003664953Y000304815D01*
X003664777Y000305925D01*
X003664569Y000307031D01*
X003664331Y000308129D01*
X003664060Y000309220D01*
X003663759Y000310304D01*
X003663427Y000311378D01*
X003663064Y000312442D01*
X003662671Y000313496D01*
X003662248Y000314538D01*
X003661796Y000315567D01*
X003661314Y000316583D01*
X003660803Y000317585D01*
X003660265Y000318572D01*
X003659698Y000319542D01*
X003659104Y000320497D01*
X003658482Y000321434D01*
X003657835Y000322353D01*
X003657161Y000323253D01*
X003656461Y000324134D01*
X003655738Y000324994D01*
X003654989Y000325833D01*
X003654217Y000326650D01*
X003653422Y000327446D01*
X003652604Y000328217D01*
X003651765Y000328966D01*
X003650905Y000329690D01*
X003650025Y000330389D01*
X003649125Y000331063D01*
X003648205Y000331711D01*
X003647269Y000332332D01*
X003646315Y000332927D01*
X003645343Y000333493D01*
X003644357Y000334032D01*
X003643355Y000334543D01*
X003642339Y000335024D01*
X003641309Y000335477D01*
X003640267Y000335900D01*
X003639214Y000336292D01*
X003638150Y000336655D01*
X003637075Y000336987D01*
X003635992Y000337289D01*
X003634901Y000337559D01*
X003633802Y000337798D01*
X003632697Y000338005D01*
X003631586Y000338181D01*
X003630471Y000338325D01*
X003629353Y000338437D01*
X003628231Y000338518D01*
X003627108Y000338566D01*
X003625983Y000338582D01*
X003458406Y000338582D01*
X003458120Y000338586D01*
X003458155Y000338857D01*
X003479321Y000485569D01*
X003479339Y000485698D01*
X003481043Y000497793D01*
X003481062Y000497924D01*
X003482648Y000509465D01*
X003482666Y000509597D01*
X003484268Y000521550D01*
X003484285Y000521677D01*
X003485859Y000533724D01*
X003485877Y000533857D01*
X003487352Y000545449D01*
X003487368Y000545580D01*
X003488867Y000557689D01*
X003488884Y000557820D01*
X003490294Y000569533D01*
X003490310Y000569665D01*
X003491711Y000581641D01*
X003491726Y000581772D01*
X003493066Y000593572D01*
X003493081Y000593701D01*
X003494404Y000605704D01*
X003494418Y000605834D01*
X003495681Y000617646D01*
X003495695Y000617781D01*
X003496937Y000629792D01*
X003496951Y000629922D01*
X003498124Y000641647D01*
X003498137Y000641778D01*
X003499304Y000653849D01*
X003499317Y000653983D01*
X003500427Y000665885D01*
X003500438Y000666015D01*
X003501505Y000677882D01*
X003501517Y000678013D01*
X003502549Y000689934D01*
X003502560Y000690066D01*
X003503114Y000696724D01*
X003503190Y000697838D01*
X003503236Y000698954D01*
X003503249Y000700071D01*
X003503231Y000701188D01*
X003503180Y000702305D01*
X003503099Y000703419D01*
X003502986Y000704531D01*
X003502841Y000705638D01*
X003502665Y000706742D01*
X003502458Y000707839D01*
X003502220Y000708931D01*
X003501950Y000710016D01*
X003501650Y000711092D01*
X003501320Y000712159D01*
X003500959Y000713217D01*
X003500569Y000714263D01*
X003500149Y000715299D01*
X003499699Y000716322D01*
X003499222Y000717331D01*
X003498716Y000718328D01*
X003498181Y000719309D01*
X003497619Y000720274D01*
X003497030Y000721224D01*
X003496414Y000722155D01*
X003495772Y000723070D01*
X003495104Y000723966D01*
X003494411Y000724842D01*
X003493693Y000725699D01*
X003492951Y000726534D01*
X003492187Y000727348D01*
X003491399Y000728140D01*
X003490588Y000728910D01*
X003489757Y000729657D01*
X003488904Y000730379D01*
X003488032Y000731077D01*
X003487140Y000731750D01*
X003486229Y000732397D01*
X003485301Y000733018D01*
X003484355Y000733612D01*
X003483392Y000734180D01*
X003482414Y000734720D01*
X003481422Y000735232D01*
X003480414Y000735715D01*
X003479393Y000736170D01*
X003478361Y000736596D01*
X003477316Y000736992D01*
X003476260Y000737358D01*
X003475195Y000737694D01*
X003474120Y000738000D01*
X003473038Y000738276D01*
X003471947Y000738520D01*
X003470851Y000738734D01*
X003469748Y000738916D01*
X003468641Y000739067D01*
X003467530Y000739187D01*
X003466416Y000739274D01*
X003465300Y000739331D01*
X003464184Y000739355D01*
X003455333Y000739424D01*
X003455129Y000739426D01*
X003441716Y000739657D01*
X003441503Y000739662D01*
X003428058Y000740022D01*
X003427905Y000740027D01*
X003414420Y000740517D01*
X003414303Y000740522D01*
X003400810Y000741140D01*
X003400692Y000741146D01*
X003387231Y000741892D01*
X003387060Y000741902D01*
X003373608Y000742776D01*
X003373451Y000742787D01*
X003360054Y000743786D01*
X003359860Y000743801D01*
X003346503Y000744925D01*
X003346254Y000744946D01*
X003332892Y000746199D01*
X003332664Y000746222D01*
X003319337Y000747598D01*
X003319157Y000747618D01*
X003305811Y000749127D01*
X003305609Y000749150D01*
X003292225Y000750791D01*
X003292088Y000750809D01*
X003280667Y000752321D01*
X000983617Y002861789D02*
X000983617Y002861789D01*
X000983617Y002861789D01*
X000980359Y002860081D01*
X000976956Y002858683D01*
X000973437Y002857610D01*
X000969833Y002856869D01*
X000966177Y002856468D01*
X000962498Y002856411D01*
X000958830Y002856697D01*
X000955205Y002857324D01*
X000951655Y002858286D01*
X000948209Y002859576D01*
X000944899Y002861182D01*
X000941754Y002863090D01*
X000938800Y002865283D01*
X000936064Y002867742D01*
X000933569Y002870446D01*
X000931338Y002873371D01*
X000929389Y002876491D01*
X000927740Y002879780D01*
X000926405Y002883208D01*
X000925397Y002886746D01*
X000915976Y002926790D01*
X000915476Y002929272D01*
X000915136Y002931780D01*
X000914958Y002934306D01*
X000914943Y002936837D01*
X000915091Y002939364D01*
X000915401Y002941877D01*
X000915871Y002944364D01*
X000916501Y002946816D01*
X000917286Y002949222D01*
X000918225Y002951573D01*
X000919313Y002953859D01*
X000920545Y002956070D01*
X000921918Y002958198D01*
X000923424Y002960233D01*
X000925057Y002962166D01*
X000926812Y002963991D01*
X000928680Y002965700D01*
X000930654Y002967284D01*
X000932726Y002968739D01*
X000934887Y002970057D01*
X000943558Y002974972D01*
X000943764Y002975087D01*
X000956042Y002981822D01*
X000956278Y002981948D01*
X000968624Y002988495D01*
X000968896Y002988636D01*
X000981356Y002995020D01*
X000981574Y002995129D01*
X000994152Y003001351D01*
X000994345Y003001444D01*
X001007009Y003007489D01*
X001007229Y003007592D01*
X001019956Y003013446D01*
X001020207Y003013560D01*
X001032994Y003019226D01*
X001033235Y003019331D01*
X001046131Y003024829D01*
X001046344Y003024918D01*
X001059340Y003030244D01*
X001059550Y003030327D01*
X001072552Y003035443D01*
X001072863Y003035563D01*
X001085969Y003040508D01*
X001086148Y003040574D01*
X001099341Y003045340D01*
X001099629Y003045441D01*
X001112794Y003049989D01*
X001113106Y003050094D01*
X001126357Y003054464D01*
X001126661Y003054561D01*
X001139989Y003058748D01*
X001140222Y003058820D01*
X001153687Y003062842D01*
X001153871Y003062896D01*
X001167407Y003066733D01*
X001167620Y003066792D01*
X001169827Y003067384D01*
X001170902Y003067689D01*
X001171968Y003068024D01*
X001173024Y003068389D01*
X001174070Y003068785D01*
X001175103Y003069209D01*
X001176125Y003069663D01*
X001177132Y003070146D01*
X001178126Y003070657D01*
X001179105Y003071196D01*
X001180069Y003071763D01*
X001181015Y003072356D01*
X001181944Y003072976D01*
X001182857Y003073623D01*
X001183749Y003074296D01*
X001184622Y003074992D01*
X001185475Y003075715D01*
X001186308Y003076460D01*
X001187119Y003077229D01*
X001187908Y003078020D01*
X001188674Y003078834D01*
X001189417Y003079669D01*
X001190135Y003080526D01*
X001190829Y003081401D01*
X001191498Y003082297D01*
X001192141Y003083211D01*
X001192758Y003084142D01*
X001193348Y003085091D01*
X001193912Y003086056D01*
X001194447Y003087037D01*
X001194955Y003088033D01*
X001195433Y003089043D01*
X001195883Y003090065D01*
X001196305Y003091101D01*
X001196696Y003092148D01*
X001197057Y003093205D01*
X001197388Y003094273D01*
X001197689Y003095349D01*
X001197960Y003096433D01*
X001198199Y003097525D01*
X001198407Y003098623D01*
X001198584Y003099726D01*
X001198730Y003100834D01*
X001198844Y003101946D01*
X001198926Y003103060D01*
X001198977Y003104177D01*
X001198997Y003105294D01*
X001198984Y003106412D01*
X001198939Y003107528D01*
X001198864Y003108643D01*
X001198756Y003109755D01*
X001198616Y003110865D01*
X001198446Y003111969D01*
X001198245Y003113069D01*
X001198012Y003114161D01*
X001197748Y003115247D01*
X001197453Y003116325D01*
X001197128Y003117394D01*
X001196773Y003118454D01*
X001196387Y003119503D01*
X001195972Y003120541D01*
X001195528Y003121567D01*
X001195055Y003122579D01*
X001194554Y003123578D01*
X001194024Y003124561D01*
X001193466Y003125530D01*
X001188957Y003133115D01*
X001188815Y003133352D01*
X001182946Y003143068D01*
X001182802Y003143303D01*
X001176913Y003152900D01*
X001176769Y003153133D01*
X001170759Y003162774D01*
X001170614Y003163006D01*
X001164553Y003172580D01*
X001164404Y003172813D01*
X001158317Y003182282D01*
X001158166Y003182515D01*
X001151964Y003192015D01*
X001151813Y003192245D01*
X001145566Y003201669D01*
X001145413Y003201897D01*
X001139086Y003211300D01*
X001138930Y003211530D01*
X001132579Y003220825D01*
X001132424Y003221051D01*
X001125974Y003230353D01*
X001125817Y003230577D01*
X001119295Y003239844D01*
X001119135Y003240070D01*
X001112569Y003249260D01*
X001112407Y003249485D01*
X001105782Y003258624D01*
X001105620Y003258845D01*
X001098916Y003267957D01*
X001098753Y003268177D01*
X001091955Y003277282D01*
X001091791Y003277501D01*
X001084990Y003286481D01*
X001084822Y003286700D01*
X001077890Y003295720D01*
X001077721Y003295938D01*
X001070827Y003304779D01*
X001070657Y003304995D01*
X001063579Y003313943D01*
X001063407Y003314159D01*
X001056350Y003322953D01*
X001056177Y003323168D01*
X001049056Y003331915D01*
X001048881Y003332129D01*
X001041659Y003340874D01*
X001041485Y003341083D01*
X001034200Y003349782D01*
X001034022Y003349994D01*
X001026732Y003358576D01*
X001026554Y003358783D01*
X001019174Y003367350D01*
X001018990Y003367561D01*
X001011573Y003376047D01*
X001011395Y003376250D01*
X001003797Y003384825D01*
X001003612Y003385030D01*
X000996162Y003393320D01*
X000995976Y003393525D01*
X000988307Y003401938D01*
X000988121Y003402141D01*
X000980446Y003410442D01*
X000980259Y003410644D01*
X000972494Y003418926D01*
X000972307Y003419123D01*
X000964552Y003427282D01*
X000964361Y003427482D01*
X000956481Y003435654D01*
X000956290Y003435851D01*
X000948410Y003443911D01*
X000948216Y003444108D01*
X000940239Y003452154D01*
X000940046Y003452347D01*
X000932048Y003460301D01*
X000931851Y003460497D01*
X000923755Y003468437D01*
X000923559Y003468627D01*
X000915394Y003476526D01*
X000915195Y003476716D01*
X000907083Y003484453D01*
X000906883Y003484643D01*
X000898601Y003492432D01*
X000898400Y003492620D01*
X000890149Y003500271D01*
X000889945Y003500459D01*
X000881518Y003508165D01*
X000881316Y003508348D01*
X000872980Y003515864D01*
X000872776Y003516047D01*
X000864311Y003523574D01*
X000864102Y003523759D01*
X000855574Y003531234D01*
X000855370Y003531411D01*
X000846873Y003538757D01*
X000846662Y003538939D01*
X000837978Y003546340D01*
X000837769Y003546517D01*
X000829135Y003553771D01*
X000828922Y003553949D01*
X000820215Y003561161D01*
X000820005Y003561333D01*
X000811211Y003568516D01*
X000810997Y003568690D01*
X000802244Y003575736D01*
X000802029Y003575908D01*
X000793141Y003582962D01*
X000792924Y003583133D01*
X000784053Y003590072D01*
X000783837Y003590241D01*
X000774830Y003597185D01*
X000774613Y003597352D01*
X000765601Y003604200D01*
X000765382Y003604366D01*
X000756402Y003611093D01*
X000756179Y003611258D01*
X000747031Y003618011D01*
X000746810Y003618173D01*
X000737647Y003624838D01*
X000737423Y003625000D01*
X000728195Y003631614D01*
X000727972Y003631772D01*
X000718813Y003638241D01*
X000718586Y003638399D01*
X000709270Y003644883D01*
X000709045Y003645039D01*
X000699708Y003651439D01*
X000699481Y003651593D01*
X000690109Y003657922D01*
X000689880Y003658075D01*
X000680480Y003664327D01*
X000680251Y003664479D01*
X000670793Y003670675D01*
X000670560Y003670827D01*
X000661012Y003676986D01*
X000660783Y003677133D01*
X000651272Y003683176D01*
X000651037Y003683323D01*
X000641447Y003689322D01*
X000641214Y003689467D01*
X000631592Y003695393D01*
X000631357Y003695536D01*
X000621656Y003701417D01*
X000621420Y003701559D01*
X000611709Y003707354D01*
X000611472Y003707494D01*
X000601742Y003713209D01*
X000601503Y003713348D01*
X000591714Y003719005D01*
X000591478Y003719140D01*
X000581635Y003724738D01*
X000581394Y003724874D01*
X000571579Y003730364D01*
X000571338Y003730498D01*
X000561331Y003736004D01*
X000561094Y003736134D01*
X000551192Y003741494D01*
X000550944Y003741627D01*
X000540949Y003746946D01*
X000540705Y003747074D01*
X000530704Y003752307D01*
X000530463Y003752432D01*
X000520379Y003757620D01*
X000520130Y003757746D01*
X000510024Y003762855D01*
X000509781Y003762977D01*
X000499676Y003767998D01*
X000499425Y003768121D01*
X000489284Y003773071D01*
X000489038Y003773190D01*
X000478790Y003778104D01*
X000478542Y003778222D01*
X000468340Y003783028D01*
X000468088Y003783145D01*
X000457832Y003787887D01*
X000457585Y003788000D01*
X000447262Y003792687D01*
X000447007Y003792802D01*
X000264806Y003873975D01*
X000264554Y003874091D01*
X000264759Y003874269D01*
X000417781Y004004002D01*
X000417896Y004004097D01*
X000428284Y004012735D01*
X000428371Y004012807D01*
X000438798Y004021310D01*
X000438998Y004021472D01*
X000449438Y004029823D01*
X000449607Y004029957D01*
X000460208Y004038272D01*
X000460290Y004038336D01*
X000471014Y004046585D01*
X000471099Y004046650D01*
X000481903Y004054797D01*
X000481991Y004054863D01*
X000492819Y004062868D01*
X000492962Y004062972D01*
X000503868Y004070877D01*
X000503993Y004070967D01*
X000514961Y004078758D01*
X000515135Y004078881D01*
X000526167Y004086562D01*
X000526276Y004086637D01*
X000537396Y004094223D01*
X000537581Y004094347D01*
X000548718Y004101791D01*
X000548939Y004101937D01*
X000560098Y004109242D01*
X000560316Y004109383D01*
X000571541Y004116581D01*
X000571819Y004116757D01*
X000583174Y004123886D01*
X000583288Y004123958D01*
X000594753Y004131006D01*
X000594946Y004131123D01*
X000606429Y004138032D01*
X000606630Y004138152D01*
X000618116Y004144915D01*
X000618386Y004145072D01*
X000629979Y004151751D01*
X000630178Y004151864D01*
X000641812Y004158421D01*
X000642076Y004158568D01*
X000653802Y004165030D01*
X000653974Y004165122D01*
X000665776Y004171482D01*
X000665964Y004171583D01*
X000677918Y004177875D01*
X000677973Y004177904D01*
X000690016Y004184101D01*
X000690120Y004184153D01*
X000702140Y004190194D01*
X000702344Y004190295D01*
X000714355Y004196188D01*
X000714574Y004196294D01*
X000726674Y004202090D01*
X000726881Y004202188D01*
X000738997Y004207850D01*
X000739238Y004207962D01*
X000751370Y004213491D01*
X000751620Y004213604D01*
X000763900Y004219060D01*
X000764043Y004219123D01*
X000776445Y004224493D01*
X000776508Y004224521D01*
X000788933Y004229762D01*
X000789116Y004229839D01*
X000801552Y004234945D01*
X000801761Y004235030D01*
X000814194Y004239998D01*
X000814371Y004240068D01*
X000826938Y004244952D01*
X000827070Y004245002D01*
X000839691Y004249770D01*
X000839801Y004249811D01*
X000852505Y004254472D01*
X000852583Y004254500D01*
X000865344Y004259045D01*
X000865421Y004259072D01*
X000878161Y004263474D01*
X000878392Y004263553D01*
X000891065Y004267796D01*
X000891311Y004267878D01*
X000904048Y004272009D01*
X000904266Y004272079D01*
X000917064Y004276096D01*
X000917231Y004276147D01*
X000930140Y004280065D01*
X000930262Y004280102D01*
X000943113Y004283869D01*
X000943432Y004283961D01*
X000956259Y004287590D01*
X000956508Y004287659D01*
X000969429Y004291182D01*
X000969626Y004291234D01*
X000982601Y004294640D01*
X000982846Y004294703D01*
X000995848Y004297983D01*
X000996015Y004298024D01*
X001009122Y004301200D01*
X001009240Y004301227D01*
X001022367Y004304276D01*
X001022531Y004304313D01*
X001035690Y004307237D01*
X001035840Y004307270D01*
X001048996Y004310063D01*
X001049184Y004310102D01*
X001062369Y004312770D01*
X001062528Y004312802D01*
X001075713Y004315340D01*
X001075953Y004315384D01*
X001089192Y004317802D01*
X001089280Y004317818D01*
X001102571Y004320115D01*
X001102816Y004320156D01*
X001116033Y004322311D01*
X001116175Y004322334D01*
X001129518Y004324381D01*
X001129690Y004324407D01*
X001142952Y004326311D01*
X001143202Y004326346D01*
X001156468Y004328123D01*
X001156705Y004328154D01*
X001170053Y004329812D01*
X001170161Y004329826D01*
X001183563Y004331363D01*
X001183749Y004331383D01*
X001197105Y004332787D01*
X001197303Y004332806D01*
X001210729Y004334088D01*
X001210851Y004334099D01*
X001224226Y004335248D01*
X001224461Y004335267D01*
X001237870Y004336290D01*
X001238007Y004336300D01*
X001251498Y004337200D01*
X001251585Y004337206D01*
X001265061Y004337977D01*
X001265239Y004337987D01*
X001278689Y004338627D01*
X001278852Y004338635D01*
X001292268Y004339148D01*
X001292489Y004339155D01*
X001305890Y004339539D01*
X001306105Y004339544D01*
X001319584Y004339803D01*
X001319683Y004339804D01*
X001333113Y004339935D01*
X001333379Y004339936D01*
X001333915Y004339936D01*
X001335043Y004339952D01*
X001336170Y004340001D01*
X001337295Y004340082D01*
X001338418Y004340194D01*
X001339536Y004340339D01*
X001340650Y004340516D01*
X001341759Y004340725D01*
X001342861Y004340965D01*
X001343955Y004341237D01*
X001345042Y004341541D01*
X001346119Y004341876D01*
X001347187Y004342241D01*
X001348243Y004342636D01*
X001349288Y004343061D01*
X001350320Y004343517D01*
X001351338Y004344001D01*
X001352343Y004344515D01*
X001353332Y004345057D01*
X001354305Y004345627D01*
X001355262Y004346225D01*
X001356200Y004346850D01*
X001357121Y004347502D01*
X001358022Y004348179D01*
X001358904Y004348883D01*
X001359766Y004349611D01*
X001360605Y004350364D01*
X001361424Y004351141D01*
X001362220Y004351940D01*
X001362992Y004352763D01*
X001363740Y004353606D01*
X001364464Y004354472D01*
X001365164Y004355356D01*
X001365837Y004356262D01*
X001366483Y004357186D01*
X001367104Y004358127D01*
X001367697Y004359087D01*
X001368262Y004360063D01*
X001368800Y004361055D01*
X001369308Y004362062D01*
X001369788Y004363083D01*
X001370238Y004364117D01*
X001370658Y004365164D01*
X001371048Y004366222D01*
X001371408Y004367292D01*
X001371737Y004368370D01*
X001372034Y004369459D01*
X001372300Y004370555D01*
X001372535Y004371658D01*
X001372739Y004372768D01*
X001372911Y004373882D01*
X001373050Y004375002D01*
X001373157Y004376124D01*
X001373232Y004377250D01*
X001373275Y004378377D01*
X001373285Y004379505D01*
X001373263Y004380633D01*
X001373209Y004381759D01*
X001372554Y004392258D01*
X001372542Y004392442D01*
X001371766Y004403992D01*
X001371753Y004404170D01*
X001370905Y004416010D01*
X001370891Y004416195D01*
X001370005Y004427799D01*
X001369991Y004427978D01*
X001369031Y004439822D01*
X001369016Y004440002D01*
X001368016Y004451675D01*
X001368001Y004451857D01*
X001366950Y004463482D01*
X001366934Y004463661D01*
X001365814Y004475459D01*
X001365796Y004475643D01*
X001364623Y004487415D01*
X001364605Y004487594D01*
X001363389Y004499266D01*
X001363369Y004499445D01*
X001362097Y004511130D01*
X001362076Y004511313D01*
X001360751Y004522979D01*
X001360730Y004523158D01*
X001359346Y004534860D01*
X001359324Y004535040D01*
X001357882Y004546773D01*
X001357860Y004546952D01*
X001356387Y004558491D01*
X001356363Y004558672D01*
X001354802Y004570471D01*
X001354778Y004570650D01*
X001353194Y004582218D01*
X001353168Y004582399D01*
X001351514Y004594076D01*
X001351488Y004594257D01*
X001349781Y004605907D01*
X001349755Y004606087D01*
X001347995Y004617731D01*
X001347968Y004617909D01*
X001346151Y004629568D01*
X001346122Y004629747D01*
X001344296Y004641122D01*
X001344267Y004641300D01*
X001342303Y004653181D01*
X001342273Y004653362D01*
X001316849Y004802847D01*
X001316803Y004803144D01*
X001317090Y004803149D01*
X001486768Y004803149D01*
X001490905Y004802931D01*
X001494997Y004802279D01*
X001498997Y004801201D01*
X001502862Y004799709D01*
X001506548Y004797819D01*
X001510016Y004795552D01*
X001513226Y004792933D01*
X001516143Y004789991D01*
X001518735Y004786759D01*
X001520973Y004783273D01*
X001522832Y004779570D01*
X001524292Y004775693D01*
X001525336Y004771684D01*
X001525954Y004767587D01*
X001526137Y004763449D01*
X001525884Y004759313D01*
X001525198Y004755228D01*
X001524087Y004751237D01*
X001522562Y004747384D01*
X001520641Y004743714D01*
X001497320Y004704344D01*
X001496236Y004702617D01*
X001495064Y004700948D01*
X001493807Y004699343D01*
X001492468Y004697805D01*
X001491052Y004696338D01*
X001489561Y004694946D01*
X001488001Y004693633D01*
X001486374Y004692403D01*
X001484686Y004691259D01*
X001482941Y004690204D01*
X001481144Y004689240D01*
X001479299Y004688371D01*
X001477412Y004687599D01*
X001475488Y004686925D01*
X001473531Y004686352D01*
X001471547Y004685881D01*
X001469541Y004685513D01*
X001467519Y004685250D01*
X001465486Y004685092D01*
X001463447Y004685039D01*
X001456692Y004685039D01*
X001458787Y004672724D01*
X001460824Y004660399D01*
X001462804Y004648066D01*
X001464728Y004635723D01*
X001466594Y004623372D01*
X001468404Y004611012D01*
X001470157Y004598643D01*
X001471852Y004586267D01*
X001473491Y004573883D01*
X001475072Y004561493D01*
X001476597Y004549094D01*
X001478064Y004536689D01*
X001479474Y004524277D01*
X001480827Y004511859D01*
X001482122Y004499434D01*
X001483360Y004487004D01*
X001484540Y004474568D01*
X001485664Y004462127D01*
X001486730Y004449681D01*
X001487739Y004437230D01*
X001488690Y004424775D01*
X001489584Y004412315D01*
X001490420Y004399851D01*
X001491199Y004387384D01*
X001491920Y004374913D01*
X001492585Y004362439D01*
X001493191Y004349962D01*
X001493739Y004337482D01*
X001494231Y004325000D01*
X001494665Y004312516D01*
X001495041Y004300030D01*
X001495360Y004287542D01*
X001495621Y004275054D01*
X001495825Y004262563D01*
X001495971Y004250072D01*
X001496058Y004237581D01*
X001496090Y004225089D01*
X001496062Y004212598D01*
X001496062Y004212597D01*
X001483637Y004214017D01*
X001471198Y004215320D01*
X001458748Y004216504D01*
X001446286Y004217570D01*
X001433816Y004218518D01*
X001421336Y004219346D01*
X001408850Y004220057D01*
X001396357Y004220648D01*
X001383859Y004221122D01*
X001371357Y004221476D01*
X001358853Y004221711D01*
X001346347Y004221828D01*
X001333840Y004221826D01*
X001321334Y004221705D01*
X001308829Y004221465D01*
X001296328Y004221107D01*
X001283830Y004220629D01*
X001271338Y004220033D01*
X001258851Y004219319D01*
X001246372Y004218485D01*
X001233902Y004217534D01*
X001221441Y004216464D01*
X001208991Y004215275D01*
X001196553Y004213969D01*
X001184127Y004212544D01*
X001171716Y004211001D01*
X001159320Y004209340D01*
X001146940Y004207562D01*
X001134578Y004205666D01*
X001122235Y004203653D01*
X001109911Y004201523D01*
X001097607Y004199276D01*
X001085326Y004196911D01*
X001073068Y004194431D01*
X001060834Y004191834D01*
X001048625Y004189121D01*
X001036442Y004186292D01*
X001024287Y004183347D01*
X001012160Y004180287D01*
X001000064Y004177113D01*
X000987996Y004173823D01*
X000975962Y004170418D01*
X000963961Y004166900D01*
X000951993Y004163268D01*
X000940060Y004159522D01*
X000928164Y004155663D01*
X000916305Y004151692D01*
X000904483Y004147607D01*
X000892702Y004143411D01*
X000880960Y004139103D01*
X000869260Y004134683D01*
X000857603Y004130153D01*
X000845989Y004125512D01*
X000834420Y004120761D01*
X000822897Y004115900D01*
X000811420Y004110931D01*
X000799991Y004105852D01*
X000788610Y004100664D01*
X000777280Y004095370D01*
X000766000Y004089967D01*
X000754772Y004084458D01*
X000743597Y004078842D01*
X000732476Y004073120D01*
X000721409Y004067294D01*
X000710399Y004061362D01*
X000699445Y004055325D01*
X000688549Y004049185D01*
X000677713Y004042942D01*
X000666935Y004036596D01*
X000656218Y004030148D01*
X000645564Y004023599D01*
X000634972Y004016948D01*
X000624444Y004010198D01*
X000613980Y004003347D01*
X000603582Y003996398D01*
X000593250Y003989350D01*
X000582986Y003982204D01*
X000572790Y003974961D01*
X000562663Y003967621D01*
X000552607Y003960186D01*
X000542621Y003952655D01*
X000532708Y003945030D01*
X000522867Y003937311D01*
X000513100Y003929499D01*
X000503409Y003921595D01*
X000493791Y003913598D01*
X000484252Y003905511D01*
X000495589Y003900460D01*
X000506891Y003895329D01*
X000518156Y003890120D01*
X000529385Y003884831D01*
X000540576Y003879465D01*
X000551730Y003874020D01*
X000562845Y003868498D01*
X000573922Y003862898D01*
X000584958Y003857221D01*
X000595956Y003851467D01*
X000606913Y003845635D01*
X000617828Y003839728D01*
X000628702Y003833744D01*
X000639535Y003827684D01*
X000650324Y003821549D01*
X000661070Y003815339D01*
X000671772Y003809053D01*
X000682431Y003802693D01*
X000693044Y003796259D01*
X000703612Y003789750D01*
X000714135Y003783168D01*
X000724611Y003776513D01*
X000735041Y003769784D01*
X000745423Y003762983D01*
X000755758Y003756108D01*
X000766044Y003749163D01*
X000776281Y003742145D01*
X000786469Y003735056D01*
X000796607Y003727896D01*
X000806695Y003720665D01*
X000816732Y003713364D01*
X000826718Y003705993D01*
X000836652Y003698552D01*
X000846533Y003691042D01*
X000856362Y003683463D01*
X000866138Y003675816D01*
X000875861Y003668100D01*
X000885528Y003660317D01*
X000895141Y003652466D01*
X000904700Y003644548D01*
X000914202Y003636563D01*
X000923649Y003628513D01*
X000933038Y003620396D01*
X000942371Y003612214D01*
X000951647Y003603967D01*
X000960865Y003595655D01*
X000970024Y003587280D01*
X000979125Y003578840D01*
X000988166Y003570337D01*
X000997148Y003561770D01*
X001006069Y003553142D01*
X001014930Y003544451D01*
X001023730Y003535698D01*
X001032469Y003526884D01*
X001041146Y003518009D01*
X001049760Y003509074D01*
X001058312Y003500079D01*
X001066801Y003491024D01*
X001075226Y003481910D01*
X001083588Y003472737D01*
X001091885Y003463507D01*
X001100117Y003454217D01*
X001108284Y003444872D01*
X001116386Y003435469D01*
X001124421Y003426010D01*
X001132390Y003416494D01*
X001140293Y003406924D01*
X001148128Y003397298D01*
X001155897Y003387618D01*
X001163597Y003377883D01*
X001171229Y003368095D01*
X001178792Y003358255D01*
X001186286Y003348361D01*
X001193711Y003338415D01*
X001201067Y003328417D01*
X001208352Y003318369D01*
X001215567Y003308270D01*
X001222710Y003298120D01*
X001229783Y003287921D01*
X001236785Y003277672D01*
X001243715Y003267375D01*
X001250572Y003257030D01*
X001257357Y003246637D01*
X001264069Y003236197D01*
X001270708Y003225710D01*
X001277273Y003215177D01*
X001283765Y003204598D01*
X001290182Y003193974D01*
X001296526Y003183306D01*
X001302794Y003172594D01*
X001308987Y003161838D01*
X001315105Y003151039D01*
X001321148Y003140197D01*
X001327114Y003129313D01*
X001333004Y003118388D01*
X001338818Y003107422D01*
X001344555Y003096416D01*
X001350214Y003085370D01*
X001355797Y003074284D01*
X001361302Y003063161D01*
X001366728Y003051998D01*
X001372077Y003040798D01*
X001377347Y003029561D01*
X001382539Y003018287D01*
X001387651Y003006978D01*
X001392685Y002995632D01*
X001397637Y002984252D01*
X001385054Y002983612D01*
X001372480Y002982795D01*
X001359919Y002981801D01*
X001347373Y002980630D01*
X001334845Y002979282D01*
X001322337Y002977758D01*
X001309852Y002976058D01*
X001297392Y002974182D01*
X001284960Y002972130D01*
X001272558Y002969904D01*
X001260188Y002967504D01*
X001247854Y002964929D01*
X001235557Y002962181D01*
X001223300Y002959260D01*
X001211085Y002956166D01*
X001198915Y002952901D01*
X001186793Y002949465D01*
X001174719Y002945858D01*
X001162698Y002942081D01*
X001150732Y002938136D01*
X001138822Y002934022D01*
X001126971Y002929741D01*
X001115181Y002925293D01*
X001103456Y002920680D01*
X001091797Y002915902D01*
X001080206Y002910960D01*
X001068686Y002905856D01*
X001057240Y002900590D01*
X001045868Y002895162D01*
X001034574Y002889576D01*
X001023359Y002883831D01*
X001012227Y002877928D01*
X001001179Y002871869D01*
X000990217Y002865655D01*
X000983617Y002861789D01*
X000752545Y002841675D02*
X000752545Y002841675D01*
X000754441Y002843049D01*
X000756416Y002844307D01*
X000758462Y002845446D01*
X000760573Y002846461D01*
X000762739Y002847349D01*
X000764955Y002848107D01*
X000767212Y002848731D01*
X000769502Y002849220D01*
X000771817Y002849572D01*
X000774149Y002849786D01*
X000776490Y002849861D01*
X000778831Y002849796D01*
X000781164Y002849593D01*
X000783480Y002849251D01*
X000785773Y002848772D01*
X000788032Y002848158D01*
X000790251Y002847410D01*
X000792422Y002846532D01*
X000794537Y002845526D01*
X000796588Y002844396D01*
X000919414Y002771903D01*
X000919559Y002771817D01*
X000919703Y002771731D01*
X000919847Y002771644D01*
X000919990Y002771556D01*
X000920133Y002771468D01*
X000920276Y002771380D01*
X000920418Y002771290D01*
X000920560Y002771200D01*
X000920701Y002771110D01*
X000920843Y002771018D01*
X000920983Y002770927D01*
X000921124Y002770834D01*
X000921264Y002770741D01*
X000921403Y002770648D01*
X000921542Y002770553D01*
X000921681Y002770459D01*
X000921819Y002770363D01*
X000921957Y002770267D01*
X000922095Y002770171D01*
X000922232Y002770074D01*
X000922232Y002770074D01*
X000926485Y002767047D01*
X000936511Y002759794D01*
X000946481Y002752463D01*
X000956393Y002745055D01*
X000966247Y002737570D01*
X000976044Y002730009D01*
X000985780Y002722372D01*
X000995458Y002714660D01*
X001005076Y002706873D01*
X001014632Y002699011D01*
X001024127Y002691076D01*
X001033561Y002683067D01*
X001042931Y002674984D01*
X001052239Y002666830D01*
X001061484Y002658603D01*
X001070664Y002650305D01*
X001079779Y002641936D01*
X001088829Y002633496D01*
X001097814Y002624987D01*
X001106731Y002616408D01*
X001115583Y002607759D01*
X001124366Y002599043D01*
X001133082Y002590259D01*
X001141729Y002581407D01*
X001150308Y002572488D01*
X001158816Y002563503D01*
X001167255Y002554451D01*
X001175624Y002545335D01*
X001183921Y002536155D01*
X001192146Y002526909D01*
X001200300Y002517601D01*
X001208381Y002508229D01*
X001216390Y002498795D01*
X001224324Y002489299D01*
X001232185Y002479742D01*
X001239971Y002470124D01*
X001247682Y002460446D01*
X001255318Y002450708D01*
X001262879Y002440911D01*
X001270363Y002431056D01*
X001277769Y002421143D01*
X001285100Y002411173D01*
X001292352Y002401146D01*
X001299526Y002391063D01*
X001306622Y002380925D01*
X001313638Y002370732D01*
X001320576Y002360485D01*
X001327434Y002350184D01*
X001334211Y002339830D01*
X001340908Y002329424D01*
X001347524Y002318966D01*
X001354058Y002308458D01*
X001360511Y002297899D01*
X001366881Y002287290D01*
X001373170Y002276632D01*
X001379374Y002265925D01*
X001385496Y002255171D01*
X001391534Y002244369D01*
X001397488Y002233521D01*
X001403358Y002222627D01*
X001409143Y002211687D01*
X001414842Y002200703D01*
X001420456Y002189676D01*
X001425985Y002178605D01*
X001431428Y002167491D01*
X001436783Y002156335D01*
X001442052Y002145138D01*
X001447234Y002133901D01*
X001452329Y002122624D01*
X001457336Y002111307D01*
X001462255Y002099952D01*
X001467085Y002088559D01*
X001471827Y002077129D01*
X001476481Y002065663D01*
X001481045Y002054161D01*
X001485519Y002042623D01*
X001489904Y002031051D01*
X001494198Y002019446D01*
X001498403Y002007807D01*
X001502517Y001996137D01*
X001506541Y001984434D01*
X001510472Y001972701D01*
X001514314Y001960938D01*
X001518063Y001949145D01*
X001521721Y001937323D01*
X001525288Y001925473D01*
X001528762Y001913596D01*
X001532144Y001901692D01*
X001535433Y001889763D01*
X001523101Y001891946D01*
X001510721Y001893848D01*
X001498302Y001895468D01*
X001485850Y001896806D01*
X001473370Y001897861D01*
X001460870Y001898633D01*
X001448355Y001899121D01*
X001435832Y001899326D01*
X001423309Y001899246D01*
X001410790Y001898881D01*
X001398282Y001898234D01*
X001385793Y001897302D01*
X001373328Y001896088D01*
X001360893Y001894591D01*
X001348496Y001892812D01*
X001336143Y001890753D01*
X001323838Y001888414D01*
X001311591Y001885796D01*
X001299406Y001882901D01*
X001287290Y001879731D01*
X001275249Y001876286D01*
X001263288Y001872570D01*
X001251415Y001868583D01*
X001239637Y001864328D01*
X001227957Y001859806D01*
X001216383Y001855021D01*
X001204921Y001849974D01*
X001193576Y001844669D01*
X001182354Y001839108D01*
X001171261Y001833294D01*
X001160303Y001827229D01*
X001149486Y001820918D01*
X001138813Y001814362D01*
X001128294Y001807567D01*
X001117930Y001800535D01*
X001107729Y001793269D01*
X001097695Y001785774D01*
X001087834Y001778053D01*
X001078151Y001770110D01*
X001068650Y001761949D01*
X001059337Y001753576D01*
X001050216Y001744993D01*
X001041292Y001736205D01*
X001032570Y001727218D01*
X001024053Y001718035D01*
X001015748Y001708661D01*
X001026343Y001702115D01*
X001036894Y001695498D01*
X001047399Y001688809D01*
X001057859Y001682050D01*
X001068272Y001675219D01*
X001078640Y001668317D01*
X001088959Y001661346D01*
X001099232Y001654304D01*
X001109456Y001647193D01*
X001119632Y001640013D01*
X001129758Y001632764D01*
X001139836Y001625446D01*
X001149863Y001618059D01*
X001159840Y001610605D01*
X001169766Y001603084D01*
X001179641Y001595495D01*
X001189464Y001587839D01*
X001199235Y001580117D01*
X001208953Y001572328D01*
X001218618Y001564474D01*
X001228229Y001556554D01*
X001237787Y001548569D01*
X001247290Y001540520D01*
X001256738Y001532406D01*
X001266131Y001524228D01*
X001275468Y001515986D01*
X001284749Y001507681D01*
X001293973Y001499314D01*
X001303140Y001490884D01*
X001312250Y001482392D01*
X001321302Y001473838D01*
X001330296Y001465223D01*
X001339230Y001456547D01*
X001348106Y001447811D01*
X001356922Y001439014D01*
X001365679Y001430158D01*
X001374374Y001421243D01*
X001383010Y001412269D01*
X001391584Y001403236D01*
X001400096Y001394145D01*
X001408547Y001384997D01*
X001416935Y001375792D01*
X001425261Y001366529D01*
X001433523Y001357211D01*
X001441722Y001347837D01*
X001449857Y001338407D01*
X001457928Y001328922D01*
X001465934Y001319382D01*
X001473875Y001309788D01*
X001481752Y001300141D01*
X001489562Y001290440D01*
X001497306Y001280687D01*
X001504984Y001270881D01*
X001512595Y001261024D01*
X001520139Y001251114D01*
X001527616Y001241154D01*
X001535024Y001231143D01*
X001542365Y001221083D01*
X001549636Y001210972D01*
X001556840Y001200812D01*
X001563974Y001190604D01*
X001570571Y001181026D01*
X001572350Y001178193D01*
X001573881Y001175220D01*
X001575155Y001172127D01*
X001576162Y001168937D01*
X001576894Y001165673D01*
X001577347Y001162359D01*
X001577517Y001159018D01*
X001577402Y001155675D01*
X001577004Y001152354D01*
X001576326Y001149079D01*
X001575372Y001145873D01*
X001574149Y001142759D01*
X001572667Y001139761D01*
X001570935Y001136899D01*
X001568967Y001134195D01*
X001566776Y001131667D01*
X001564379Y001129335D01*
X001561792Y001127214D01*
X001559035Y001125321D01*
X001556126Y001123668D01*
X001520807Y001105539D01*
X001518237Y001104335D01*
X001515588Y001103319D01*
X001512872Y001102497D01*
X001510104Y001101872D01*
X001507298Y001101448D01*
X001504469Y001101228D01*
X001501631Y001101212D01*
X001498800Y001101401D01*
X001495989Y001101793D01*
X001493214Y001102386D01*
X001490489Y001103177D01*
X001487828Y001104163D01*
X001485246Y001105338D01*
X001482754Y001106696D01*
X001480367Y001108230D01*
X001478096Y001109932D01*
X001475954Y001111793D01*
X001473951Y001113804D01*
X001472099Y001115953D01*
X001470406Y001118231D01*
X001467021Y001123144D01*
X001466869Y001123364D01*
X001460316Y001132742D01*
X001460161Y001132962D01*
X001453605Y001142208D01*
X001453452Y001142424D01*
X001446770Y001151714D01*
X001446610Y001151934D01*
X001439949Y001161063D01*
X001439793Y001161275D01*
X001432981Y001170481D01*
X001432820Y001170696D01*
X001426041Y001179727D01*
X001425882Y001179938D01*
X001418914Y001189092D01*
X001418748Y001189309D01*
X001411820Y001198281D01*
X001411657Y001198490D01*
X001404648Y001207442D01*
X001404483Y001207651D01*
X001397383Y001216592D01*
X001397216Y001216801D01*
X001390095Y001225646D01*
X001389925Y001225857D01*
X001382715Y001234687D01*
X001382547Y001234890D01*
X001375306Y001243640D01*
X001375133Y001243848D01*
X001367790Y001252596D01*
X001367620Y001252797D01*
X001360232Y001261479D01*
X001360056Y001261685D01*
X001352667Y001270250D01*
X001352492Y001270451D01*
X001344965Y001279058D01*
X001344787Y001279259D01*
X001337240Y001287772D01*
X001337062Y001287971D01*
X001329464Y001296424D01*
X001329284Y001296622D01*
X001321592Y001305063D01*
X001321412Y001305260D01*
X001313731Y001313576D01*
X001313548Y001313773D01*
X001305723Y001322128D01*
X001305542Y001322320D01*
X001297721Y001330560D01*
X001297534Y001330755D01*
X001289630Y001338969D01*
X001289445Y001339160D01*
X001281469Y001347337D01*
X001281282Y001347529D01*
X001273344Y001355557D01*
X001273157Y001355744D01*
X001265048Y001363837D01*
X001264855Y001364028D01*
X001256741Y001372013D01*
X001256551Y001372200D01*
X001248409Y001380105D01*
X001248217Y001380290D01*
X001240001Y001388160D01*
X001239808Y001388344D01*
X001231501Y001396194D01*
X001231305Y001396378D01*
X001222973Y001404145D01*
X001222778Y001404325D01*
X001214415Y001412016D01*
X001214218Y001412196D01*
X001205807Y001419826D01*
X001205609Y001420005D01*
X001197098Y001427621D01*
X001196898Y001427798D01*
X001188381Y001435316D01*
X001188177Y001435494D01*
X001179573Y001442986D01*
X001179373Y001443158D01*
X001170760Y001450556D01*
X001170555Y001450730D01*
X001161896Y001458064D01*
X001161694Y001458235D01*
X001152881Y001465598D01*
X001152674Y001465770D01*
X001143891Y001473007D01*
X001143683Y001473177D01*
X001134868Y001480339D01*
X001134664Y001480505D01*
X001125825Y001487589D01*
X001125614Y001487757D01*
X001116627Y001494860D01*
X001116417Y001495024D01*
X001107453Y001502011D01*
X001107240Y001502176D01*
X001098209Y001509116D01*
X001097998Y001509277D01*
X001088986Y001516106D01*
X001088773Y001516266D01*
X001079611Y001523111D01*
X001079395Y001523272D01*
X001070217Y001530032D01*
X001070001Y001530191D01*
X001060734Y001536919D01*
X001060518Y001537075D01*
X001051387Y001543613D01*
X001051168Y001543768D01*
X001041731Y001550427D01*
X001041512Y001550581D01*
X001032255Y001557019D01*
X001032036Y001557170D01*
X001022608Y001563633D01*
X001022386Y001563783D01*
X001012983Y001570135D01*
X001012761Y001570285D01*
X001003223Y001576634D01*
X001003001Y001576781D01*
X000993572Y001582966D01*
X000993346Y001583113D01*
X000983716Y001589336D01*
X000983491Y001589481D01*
X000973901Y001595586D01*
X000973676Y001595729D01*
X000964087Y001601743D01*
X000963859Y001601885D01*
X000834483Y001681804D01*
X000834278Y001681935D01*
X000834272Y001681939D01*
X000834448Y001682143D01*
X000936381Y001797186D01*
X000936700Y001797538D01*
X000946727Y001808350D01*
X000947029Y001808668D01*
X000957324Y001819276D01*
X000957616Y001819569D01*
X000968134Y001829928D01*
X000968464Y001830246D01*
X000979216Y001840363D01*
X000979533Y001840654D01*
X000990509Y001850523D01*
X000990851Y001850823D01*
X001002042Y001860436D01*
X001002379Y001860718D01*
X001013794Y001870083D01*
X001014137Y001870356D01*
X001025748Y001879448D01*
X001026129Y001879739D01*
X001037927Y001888552D01*
X001038317Y001888836D01*
X001050324Y001897388D01*
X001050680Y001897636D01*
X001062894Y001905924D01*
X001063275Y001906176D01*
X001075651Y001914171D01*
X001076057Y001914426D01*
X001088591Y001922126D01*
X001089008Y001922376D01*
X001101761Y001929816D01*
X001102132Y001930027D01*
X001115060Y001937182D01*
X001115417Y001937375D01*
X001128525Y001944245D01*
X001128894Y001944433D01*
X001142134Y001950994D01*
X001142539Y001951189D01*
X001155896Y001957435D01*
X001156317Y001957626D01*
X001169789Y001963557D01*
X001170240Y001963750D01*
X001183850Y001969376D01*
X001184293Y001969554D01*
X001198033Y001974873D01*
X001198447Y001975029D01*
X001212331Y001980045D01*
X001212766Y001980196D01*
X001226755Y001984893D01*
X001227161Y001985024D01*
X001241277Y001989411D01*
X001241697Y001989536D01*
X001255861Y001993587D01*
X001256318Y001993713D01*
X001270581Y001997445D01*
X001271024Y001997556D01*
X001285375Y002000965D01*
X001285818Y002001065D01*
X001300243Y002004149D01*
X001300674Y002004236D01*
X001315190Y002006995D01*
X001315607Y002007069D01*
X001320187Y002007832D01*
X001321285Y002008032D01*
X001322378Y002008262D01*
X001323463Y002008523D01*
X001324540Y002008814D01*
X001325609Y002009137D01*
X001326668Y002009489D01*
X001327717Y002009871D01*
X001328755Y002010283D01*
X001329780Y002010724D01*
X001330793Y002011194D01*
X001331791Y002011692D01*
X001332775Y002012218D01*
X001333744Y002012772D01*
X001334697Y002013353D01*
X001335633Y002013962D01*
X001336552Y002014596D01*
X001337452Y002015257D01*
X001338333Y002015942D01*
X001339194Y002016652D01*
X001340034Y002017387D01*
X001340854Y002018145D01*
X001341652Y002018925D01*
X001342427Y002019729D01*
X001343179Y002020553D01*
X001343907Y002021399D01*
X001344611Y002022265D01*
X001345291Y002023151D01*
X001345945Y002024055D01*
X001346573Y002024978D01*
X001347175Y002025918D01*
X001347749Y002026876D01*
X001348297Y002027848D01*
X001348816Y002028836D01*
X001349308Y002029838D01*
X001349771Y002030853D01*
X001350205Y002031882D01*
X001350609Y002032922D01*
X001350983Y002033974D01*
X001351329Y002035035D01*
X001351643Y002036107D01*
X001351927Y002037186D01*
X001352181Y002038273D01*
X001352403Y002039367D01*
X001352594Y002040466D01*
X001352755Y002041572D01*
X001352883Y002042680D01*
X001352981Y002043792D01*
X001353047Y002044906D01*
X001353081Y002046022D01*
X001353083Y002047138D01*
X001353054Y002048254D01*
X001352993Y002049369D01*
X001352901Y002050481D01*
X001352777Y002051590D01*
X001352622Y002052696D01*
X001352435Y002053796D01*
X001352218Y002054891D01*
X001351968Y002055979D01*
X001351690Y002057060D01*
X001351380Y002058132D01*
X001351040Y002059196D01*
X001350669Y002060248D01*
X001350269Y002061291D01*
X001349840Y002062321D01*
X001349180Y002063844D01*
X001349059Y002064120D01*
X001344582Y002074238D01*
X001344457Y002074518D01*
X001339861Y002084694D01*
X001339733Y002084973D01*
X001335048Y002095133D01*
X001334919Y002095410D01*
X001330188Y002105462D01*
X001330058Y002105736D01*
X001325187Y002115881D01*
X001325053Y002116157D01*
X001320176Y002126119D01*
X001320039Y002126395D01*
X001315064Y002136358D01*
X001314927Y002136630D01*
X001309871Y002146559D01*
X001309731Y002146832D01*
X001304584Y002156750D01*
X001304443Y002157020D01*
X001299246Y002166849D01*
X001299101Y002167119D01*
X001293797Y002176963D01*
X001293652Y002177230D01*
X001288291Y002186998D01*
X001288142Y002187267D01*
X001282688Y002197024D01*
X001282538Y002197289D01*
X001277037Y002206955D01*
X001276885Y002207219D01*
X001271291Y002216872D01*
X001271135Y002217138D01*
X001265471Y002226738D01*
X001265316Y002226998D01*
X001259557Y002236590D01*
X001259399Y002236851D01*
X001253596Y002246347D01*
X001253433Y002246611D01*
X001247514Y002256128D01*
X001247354Y002256384D01*
X001241455Y002265708D01*
X001241290Y002265966D01*
X001235216Y002275407D01*
X001235049Y002275663D01*
X001228930Y002285011D01*
X001228762Y002285266D01*
X001222627Y002294481D01*
X001222456Y002294736D01*
X001216185Y002303997D01*
X001216015Y002304246D01*
X001209671Y002313463D01*
X001209493Y002313719D01*
X001203121Y002322822D01*
X001202948Y002323068D01*
X001196452Y002332198D01*
X001196274Y002332446D01*
X001189764Y002341447D01*
X001189581Y002341697D01*
X001182956Y002350709D01*
X001182776Y002350952D01*
X001176103Y002359883D01*
X001175918Y002360128D01*
X001169205Y002368968D01*
X001169019Y002369211D01*
X001162182Y002378071D01*
X001161994Y002378313D01*
X001155126Y002387071D01*
X001154939Y002387308D01*
X001147969Y002396057D01*
X001147775Y002396298D01*
X001140759Y002404963D01*
X001140566Y002405200D01*
X001133499Y002413793D01*
X001133305Y002414026D01*
X001126168Y002422568D01*
X001125970Y002422804D01*
X001118714Y002431352D01*
X001118514Y002431585D01*
X001111258Y002439999D01*
X001111058Y002440229D01*
X001103704Y002448625D01*
X001103503Y002448853D01*
X001096093Y002457182D01*
X001095887Y002457411D01*
X001088424Y002465668D01*
X001088218Y002465894D01*
X001080641Y002474149D01*
X001080435Y002474371D01*
X001072861Y002482496D01*
X001072651Y002482719D01*
X001064967Y002490833D01*
X001064755Y002491056D01*
X001057024Y002499093D01*
X001056812Y002499311D01*
X001049013Y002507295D01*
X001048798Y002507513D01*
X001040950Y002515424D01*
X001040734Y002515638D01*
X001032838Y002523476D01*
X001032619Y002523692D01*
X001024606Y002531520D01*
X001024387Y002531733D01*
X001016409Y002539407D01*
X001016188Y002539619D01*
X001008011Y002547363D01*
X001007789Y002547571D01*
X000999677Y002555137D01*
X000999451Y002555346D01*
X000991231Y002562893D01*
X000991006Y002563098D01*
X000982752Y002570559D01*
X000982522Y002570766D01*
X000974170Y002578196D01*
X000973945Y002578396D01*
X000965592Y002585714D01*
X000965362Y002585914D01*
X000956838Y002593266D01*
X000956603Y002593467D01*
X000948191Y002600609D01*
X000947959Y002600803D01*
X000939352Y002607997D01*
X000939117Y002608192D01*
X000930491Y002615288D01*
X000930253Y002615483D01*
X000921604Y002622486D01*
X000921366Y002622677D01*
X000912641Y002629630D01*
X000912401Y002629820D01*
X000903652Y002636682D01*
X000903412Y002636868D01*
X000894571Y002643693D01*
X000894328Y002643879D01*
X000885431Y002650636D01*
X000885186Y002650820D01*
X000876270Y002657483D01*
X000876027Y002657663D01*
X000867013Y002664293D01*
X000866765Y002664474D01*
X000857771Y002670980D01*
X000857524Y002671157D01*
X000848426Y002677632D01*
X000848175Y002677809D01*
X000839006Y002684227D01*
X000838756Y002684401D01*
X000829593Y002690709D01*
X000829340Y002690883D01*
X000684547Y002788926D01*
X000684315Y002789089D01*
X000684523Y002789254D01*
X000752545Y002841675D01*
X004803068Y002082245D02*
X004803068Y002082245D01*
X004800396Y002081044D01*
X004797642Y002080046D01*
X004794821Y002079256D01*
X004791949Y002078677D01*
X004789042Y002078313D01*
X004786116Y002078167D01*
X004783188Y002078239D01*
X004780273Y002078528D01*
X004777387Y002079033D01*
X004774547Y002079751D01*
X004771768Y002080679D01*
X004769066Y002081810D01*
X004766456Y002083140D01*
X004763951Y002084659D01*
X004761567Y002086361D01*
X004759315Y002088236D01*
X004757209Y002090272D01*
X004755261Y002092460D01*
X004753481Y002094786D01*
X004751878Y002097238D01*
X004731513Y002131089D01*
X004729953Y002133943D01*
X004728634Y002136917D01*
X004727564Y002139989D01*
X004726752Y002143139D01*
X004726203Y002146346D01*
X004725920Y002149586D01*
X004725906Y002152839D01*
X004726160Y002156082D01*
X004726681Y002159293D01*
X004727466Y002162451D01*
X004728509Y002165532D01*
X004729802Y002168517D01*
X004731337Y002171385D01*
X004733104Y002174116D01*
X004735091Y002176692D01*
X004737283Y002179096D01*
X004739666Y002181310D01*
X004742224Y002183320D01*
X004744939Y002185112D01*
X004747793Y002186673D01*
X004752827Y002189163D01*
X004764042Y002194908D01*
X004775174Y002200811D01*
X004786221Y002206870D01*
X004797183Y002213084D01*
X004808056Y002219452D01*
X004818838Y002225972D01*
X004829528Y002232644D01*
X004840122Y002239465D01*
X004850618Y002246435D01*
X004861017Y002253552D01*
X004871313Y002260815D01*
X004881506Y002268223D01*
X004891594Y002275773D01*
X004901574Y002283464D01*
X004891327Y002290403D01*
X004881135Y002297420D01*
X004870997Y002304517D01*
X004860916Y002311693D01*
X004850889Y002318946D01*
X004840920Y002326276D01*
X004831008Y002333684D01*
X004821153Y002341169D01*
X004811357Y002348730D01*
X004801620Y002356367D01*
X004791942Y002364079D01*
X004782325Y002371867D01*
X004772768Y002379728D01*
X004763274Y002387664D01*
X004753840Y002395673D01*
X004744469Y002403755D01*
X004735162Y002411909D01*
X004725917Y002420136D01*
X004716737Y002428434D01*
X004707621Y002436803D01*
X004698572Y002445243D01*
X004689587Y002453752D01*
X004680669Y002462331D01*
X004671818Y002470980D01*
X004663034Y002479696D01*
X004654318Y002488481D01*
X004645671Y002497333D01*
X004637093Y002506251D01*
X004628584Y002515236D01*
X004620145Y002524288D01*
X004611777Y002533404D01*
X004603480Y002542584D01*
X004595254Y002551830D01*
X004587100Y002561139D01*
X004579019Y002570510D01*
X004571011Y002579944D01*
X004563076Y002589440D01*
X004555215Y002598998D01*
X004547429Y002608615D01*
X004539718Y002618294D01*
X004532082Y002628031D01*
X004524522Y002637828D01*
X004517038Y002647683D01*
X004509631Y002657596D01*
X004502301Y002667567D01*
X004495049Y002677593D01*
X004487875Y002687676D01*
X004480779Y002697814D01*
X004473762Y002708007D01*
X004466825Y002718255D01*
X004459967Y002728555D01*
X004453189Y002738909D01*
X004446493Y002749315D01*
X004439877Y002759773D01*
X004433342Y002770281D01*
X004426890Y002780841D01*
X004420519Y002791450D01*
X004414231Y002802107D01*
X004408026Y002812814D01*
X004401905Y002823568D01*
X004395866Y002834370D01*
X004389912Y002845218D01*
X004384043Y002856113D01*
X004378258Y002867052D01*
X004372558Y002878036D01*
X004366944Y002889063D01*
X004361416Y002900135D01*
X004355973Y002911248D01*
X004350617Y002922404D01*
X004345348Y002933601D01*
X004340166Y002944838D01*
X004335071Y002956115D01*
X004330065Y002967432D01*
X004325146Y002978787D01*
X004320315Y002990180D01*
X004315573Y003001610D01*
X004310920Y003013076D01*
X004306356Y003024579D01*
X004301882Y003036116D01*
X004297497Y003047688D01*
X004293202Y003059293D01*
X004288998Y003070932D01*
X004284883Y003082603D01*
X004280860Y003094305D01*
X004276928Y003106038D01*
X004273086Y003117801D01*
X004269337Y003129594D01*
X004265679Y003141416D01*
X004262113Y003153266D01*
X004258639Y003165143D01*
X004255257Y003177047D01*
X004251968Y003188976D01*
X004264300Y003186793D01*
X004276679Y003184892D01*
X004289099Y003183272D01*
X004301551Y003181933D01*
X004314030Y003180878D01*
X004326531Y003180106D01*
X004339046Y003179618D01*
X004351568Y003179414D01*
X004364092Y003179494D01*
X004376611Y003179858D01*
X004389119Y003180505D01*
X004401608Y003181437D01*
X004414073Y003182651D01*
X004426508Y003184148D01*
X004438904Y003185927D01*
X004451258Y003187986D01*
X004463562Y003190325D01*
X004475810Y003192943D01*
X004487995Y003195838D01*
X004500111Y003199008D01*
X004512152Y003202453D01*
X004524112Y003206169D01*
X004535985Y003210156D01*
X004547764Y003214412D01*
X004559443Y003218933D01*
X004571018Y003223718D01*
X004582480Y003228765D01*
X004593825Y003234070D01*
X004605047Y003239631D01*
X004616139Y003245446D01*
X004627098Y003251510D01*
X004637915Y003257821D01*
X004648587Y003264377D01*
X004659107Y003271172D01*
X004669470Y003278205D01*
X004679671Y003285470D01*
X004689705Y003292966D01*
X004699567Y003300686D01*
X004709250Y003308629D01*
X004718751Y003316790D01*
X004728064Y003325163D01*
X004737185Y003333746D01*
X004746109Y003342534D01*
X004754831Y003351521D01*
X004763347Y003360704D01*
X004771653Y003370079D01*
X004761028Y003376642D01*
X004750448Y003383279D01*
X004739913Y003389987D01*
X004729425Y003396768D01*
X004718983Y003403619D01*
X004708588Y003410542D01*
X004698241Y003417536D01*
X004687941Y003424600D01*
X004677691Y003431734D01*
X004667488Y003438938D01*
X004657336Y003446211D01*
X004647233Y003453554D01*
X004637180Y003460965D01*
X004627179Y003468445D01*
X004617229Y003475993D01*
X004607330Y003483609D01*
X004597484Y003491292D01*
X004587690Y003499042D01*
X004577950Y003506859D01*
X004568263Y003514742D01*
X004558630Y003522690D01*
X004549052Y003530705D01*
X004539528Y003538785D01*
X004530060Y003546929D01*
X004520648Y003555138D01*
X004511292Y003563412D01*
X004501993Y003571748D01*
X004492750Y003580148D01*
X004483566Y003588611D01*
X004474439Y003597137D01*
X004465371Y003605724D01*
X004456362Y003614373D01*
X004447411Y003623084D01*
X004438521Y003631855D01*
X004429690Y003640687D01*
X004420921Y003649579D01*
X004412212Y003658531D01*
X004403564Y003667542D01*
X004394978Y003676611D01*
X004386454Y003685740D01*
X004377993Y003694925D01*
X004369595Y003704169D01*
X004361259Y003713470D01*
X004352987Y003722827D01*
X004344780Y003732241D01*
X004336637Y003741710D01*
X004331871Y003747330D01*
X004330565Y003748956D01*
X004329346Y003750649D01*
X004328219Y003752404D01*
X004327186Y003754216D01*
X004326251Y003756080D01*
X004325416Y003757992D01*
X004324683Y003759945D01*
X004324054Y003761934D01*
X004323532Y003763953D01*
X004323118Y003765997D01*
X004322812Y003768061D01*
X004322616Y003770137D01*
X004322531Y003772221D01*
X004322556Y003774307D01*
X004322691Y003776389D01*
X004322936Y003778460D01*
X004323291Y003780515D01*
X004323754Y003782549D01*
X004324324Y003784556D01*
X004325000Y003786529D01*
X004340808Y003828996D01*
X004342446Y003832780D01*
X004344472Y003836371D01*
X004346862Y003839731D01*
X004349590Y003842823D01*
X004352627Y003845612D01*
X004355938Y003848068D01*
X004359489Y003850165D01*
X004363239Y003851879D01*
X004367148Y003853191D01*
X004371172Y003854087D01*
X004375269Y003854557D01*
X004379392Y003854596D01*
X004383496Y003854204D01*
X004387537Y003853385D01*
X004391470Y003852147D01*
X004395253Y003850505D01*
X004398842Y003848477D01*
X004402200Y003846084D01*
X004405289Y003843353D01*
X004408076Y003840314D01*
X004411315Y003836387D01*
X004411487Y003836181D01*
X004418764Y003827480D01*
X004418936Y003827276D01*
X004426423Y003818447D01*
X004426601Y003818238D01*
X004433935Y003809712D01*
X004434105Y003809514D01*
X004441680Y003800826D01*
X004441862Y003800618D01*
X004449400Y003792092D01*
X004449576Y003791894D01*
X004457199Y003783388D01*
X004457379Y003783189D01*
X004465021Y003774777D01*
X004465204Y003774578D01*
X004472953Y003766165D01*
X004473135Y003765969D01*
X004480972Y003757575D01*
X004481159Y003757377D01*
X004488941Y003749157D01*
X004489126Y003748963D01*
X004497053Y003740703D01*
X004497240Y003740509D01*
X004505206Y003732321D01*
X004505393Y003732130D01*
X004513419Y003723992D01*
X004513611Y003723799D01*
X004521669Y003715739D01*
X004521858Y003715552D01*
X004529970Y003707548D01*
X004530163Y003707359D01*
X004538356Y003699386D01*
X004538549Y003699199D01*
X004546757Y003691320D01*
X004546951Y003691135D01*
X004555274Y003683253D01*
X004555469Y003683070D01*
X004563756Y003675329D01*
X004563952Y003675147D01*
X004572444Y003667321D01*
X004572646Y003667136D01*
X004581028Y003659518D01*
X004581226Y003659340D01*
X004589714Y003651730D01*
X004589914Y003651551D01*
X004598478Y003643978D01*
X004598681Y003643801D01*
X004607277Y003636304D01*
X004607481Y003636127D01*
X004616184Y003628640D01*
X004616388Y003628467D01*
X004625054Y003621115D01*
X004625257Y003620943D01*
X004634029Y003613603D01*
X004634237Y003613430D01*
X004642971Y003606223D01*
X004643179Y003606052D01*
X004652112Y003598783D01*
X004652321Y003598615D01*
X004661197Y003591491D01*
X004661408Y003591323D01*
X004670351Y003584246D01*
X004670560Y003584082D01*
X004679572Y003577050D01*
X004679783Y003576886D01*
X004688809Y003569941D01*
X004689026Y003569775D01*
X004698134Y003562867D01*
X004698348Y003562706D01*
X004707468Y003555886D01*
X004707682Y003555727D01*
X004716927Y003548911D01*
X004717146Y003548750D01*
X004726303Y003542095D01*
X004726518Y003541941D01*
X004735844Y003535258D01*
X004736066Y003535101D01*
X004745389Y003528517D01*
X004745609Y003528363D01*
X004754984Y003521838D01*
X004755207Y003521684D01*
X004764577Y003515257D01*
X004764798Y003515108D01*
X004774278Y003508700D01*
X004774502Y003508550D01*
X004784046Y003502194D01*
X004784270Y003502046D01*
X004793749Y003495826D01*
X004793974Y003495679D01*
X004803559Y003489483D01*
X004803784Y003489340D01*
X004813457Y003483179D01*
X004813683Y003483036D01*
X004823327Y003476986D01*
X004823557Y003476844D01*
X004952877Y003396951D01*
X004953123Y003396794D01*
X004953122Y003396792D01*
X004952948Y003396590D01*
X004851018Y003281552D01*
X004850699Y003281201D01*
X004840673Y003270388D01*
X004840371Y003270070D01*
X004830075Y003259462D01*
X004829784Y003259169D01*
X004819266Y003248811D01*
X004818936Y003248493D01*
X004808184Y003238376D01*
X004807868Y003238084D01*
X004796891Y003228215D01*
X004796549Y003227915D01*
X004785358Y003218303D01*
X004785021Y003218020D01*
X004773606Y003208656D01*
X004773264Y003208382D01*
X004761652Y003199291D01*
X004761270Y003198999D01*
X004749472Y003190186D01*
X004749083Y003189902D01*
X004737077Y003181351D01*
X004736720Y003181102D01*
X004724503Y003172813D01*
X004724125Y003172562D01*
X004711748Y003164567D01*
X004711343Y003164313D01*
X004698809Y003156613D01*
X004698392Y003156363D01*
X004685639Y003148922D01*
X004685268Y003148711D01*
X004672339Y003141556D01*
X004671983Y003141364D01*
X004658874Y003134493D01*
X004658505Y003134305D01*
X004645266Y003127744D01*
X004644861Y003127550D01*
X004631504Y003121303D01*
X004631083Y003121112D01*
X004617611Y003115181D01*
X004617160Y003114988D01*
X004603550Y003109362D01*
X004603107Y003109184D01*
X004589367Y003103866D01*
X004588953Y003103710D01*
X004575069Y003098694D01*
X004574633Y003098542D01*
X004560645Y003093845D01*
X004560238Y003093714D01*
X004546123Y003089328D01*
X004545703Y003089202D01*
X004531539Y003085151D01*
X004531082Y003085025D01*
X004516819Y003081293D01*
X004516375Y003081183D01*
X004502025Y003077773D01*
X004501581Y003077673D01*
X004487157Y003074590D01*
X004486726Y003074503D01*
X004472210Y003071744D01*
X004471793Y003071669D01*
X004467212Y003070906D01*
X004466115Y003070707D01*
X004465022Y003070477D01*
X004463937Y003070216D01*
X004462859Y003069924D01*
X004461790Y003069602D01*
X004460731Y003069250D01*
X004459683Y003068868D01*
X004458645Y003068456D01*
X004457620Y003068015D01*
X004456607Y003067545D01*
X004455609Y003067046D01*
X004454624Y003066520D01*
X004453656Y003065966D01*
X004452703Y003065384D01*
X004451767Y003064776D01*
X004450848Y003064142D01*
X004449948Y003063481D01*
X004449067Y003062796D01*
X004448206Y003062086D01*
X004447365Y003061351D01*
X004446546Y003060594D01*
X004445748Y003059813D01*
X004444973Y003059010D01*
X004444221Y003058185D01*
X004443493Y003057340D01*
X004442788Y003056473D01*
X004442109Y003055587D01*
X004441455Y003054683D01*
X004440827Y003053760D01*
X004440225Y003052820D01*
X004439651Y003051863D01*
X004439103Y003050890D01*
X004438584Y003049902D01*
X004438092Y003048901D01*
X004437629Y003047885D01*
X004437196Y003046856D01*
X004436791Y003045816D01*
X004436416Y003044764D01*
X004436072Y003043703D01*
X004435757Y003042632D01*
X004435472Y003041552D01*
X004435219Y003040465D01*
X004434997Y003039372D01*
X004434806Y003038272D01*
X004434645Y003037167D01*
X004434516Y003036058D01*
X004434419Y003034947D01*
X004434353Y003033832D01*
X004434319Y003032717D01*
X004434317Y003031600D01*
X004434346Y003030484D01*
X004434407Y003029370D01*
X004434499Y003028258D01*
X004434623Y003027148D01*
X004434778Y003026043D01*
X004434964Y003024942D01*
X004435182Y003023848D01*
X004435432Y003022759D01*
X004435711Y003021678D01*
X004436020Y003020606D01*
X004436361Y003019543D01*
X004436731Y003018490D01*
X004437131Y003017448D01*
X004437559Y003016417D01*
X004438220Y003014894D01*
X004438341Y003014618D01*
X004442817Y003004500D01*
X004442943Y003004221D01*
X004447540Y002994044D01*
X004447666Y002993766D01*
X004452352Y002983605D01*
X004452481Y002983328D01*
X004457211Y002973277D01*
X004457342Y002973003D01*
X004462212Y002962857D01*
X004462346Y002962581D01*
X004467225Y002952619D01*
X004467361Y002952344D01*
X004472336Y002942381D01*
X004472473Y002942108D01*
X004477529Y002932179D01*
X004477669Y002931907D01*
X004482816Y002921989D01*
X004482957Y002921718D01*
X004488154Y002911890D01*
X004488298Y002911619D01*
X004493602Y002901775D01*
X004493748Y002901509D01*
X004499109Y002891740D01*
X004499257Y002891471D01*
X004504712Y002881714D01*
X004504862Y002881449D01*
X004510363Y002871783D01*
X004510515Y002871519D01*
X004516113Y002861860D01*
X004516269Y002861593D01*
X004521929Y002852001D01*
X004522083Y002851741D01*
X004527844Y002842148D01*
X004528002Y002841887D01*
X004533804Y002832391D01*
X004533967Y002832127D01*
X004539885Y002822611D01*
X004540046Y002822355D01*
X004545944Y002813030D01*
X004546109Y002812772D01*
X004552185Y002803332D01*
X004552351Y002803075D01*
X004558470Y002793728D01*
X004558638Y002793473D01*
X004564773Y002784258D01*
X004564944Y002784003D01*
X004571215Y002774741D01*
X004571385Y002774492D01*
X004577729Y002765275D01*
X004577906Y002765019D01*
X004584278Y002755916D01*
X004584452Y002755670D01*
X004590948Y002746540D01*
X004591126Y002746292D01*
X004597637Y002737290D01*
X004597818Y002737041D01*
X004604444Y002728030D01*
X004604624Y002727786D01*
X004611297Y002718856D01*
X004611482Y002718610D01*
X004618195Y002709770D01*
X004618380Y002709528D01*
X004625217Y002700668D01*
X004625406Y002700425D01*
X004632273Y002691668D01*
X004632461Y002691431D01*
X004639431Y002682682D01*
X004639625Y002682441D01*
X004646640Y002673775D01*
X004646833Y002673538D01*
X004653901Y002664945D01*
X004654095Y002664712D01*
X004661232Y002656171D01*
X004661430Y002655935D01*
X004668686Y002647386D01*
X004668885Y002647154D01*
X004676142Y002638740D01*
X004676342Y002638509D01*
X004683712Y002630096D01*
X004683912Y002629868D01*
X004691307Y002621556D01*
X004691512Y002621328D01*
X004698975Y002613070D01*
X004699182Y002612844D01*
X004706759Y002604590D01*
X004706965Y002604367D01*
X004714539Y002596243D01*
X004714749Y002596020D01*
X004722433Y002587905D01*
X004722645Y002587682D01*
X004730376Y002579646D01*
X004730587Y002579428D01*
X004738392Y002571439D01*
X004738607Y002571220D01*
X004746451Y002563314D01*
X004746666Y002563100D01*
X004754562Y002555262D01*
X004754781Y002555047D01*
X004762794Y002547219D01*
X004763013Y002547006D01*
X004770991Y002539331D01*
X004771213Y002539120D01*
X004779389Y002531376D01*
X004779611Y002531167D01*
X004787723Y002523601D01*
X004787948Y002523393D01*
X004796169Y002515845D01*
X004796393Y002515641D01*
X004804648Y002508179D01*
X004804879Y002507972D01*
X004813230Y002500542D01*
X004813455Y002500343D01*
X004821808Y002493025D01*
X004822038Y002492825D01*
X004830562Y002485472D01*
X004830797Y002485272D01*
X004839209Y002478130D01*
X004839440Y002477935D01*
X004848047Y002470742D01*
X004848283Y002470546D01*
X004856909Y002463450D01*
X004857146Y002463256D01*
X004865795Y002456253D01*
X004866034Y002456061D01*
X004874762Y002449106D01*
X004875001Y002448916D01*
X004883748Y002442057D01*
X004883989Y002441870D01*
X004892829Y002435046D01*
X004893072Y002434860D01*
X004901969Y002428103D01*
X004902214Y002427918D01*
X004911129Y002421255D01*
X004911373Y002421075D01*
X004920387Y002414446D01*
X004920635Y002414265D01*
X004929629Y002407759D01*
X004929876Y002407581D01*
X004938974Y002401107D01*
X004939225Y002400930D01*
X004948370Y002394527D01*
X004948620Y002394354D01*
X004957808Y002388028D01*
X004958062Y002387854D01*
X005102864Y002289808D01*
X005103091Y002289650D01*
X005102868Y002289473D01*
X004963128Y002181786D01*
X004962935Y002181640D01*
X004951735Y002173257D01*
X004951490Y002173077D01*
X004940182Y002164859D01*
X004939967Y002164705D01*
X004928513Y002156626D01*
X004928318Y002156490D01*
X004916756Y002148576D01*
X004916523Y002148419D01*
X004904863Y002140677D01*
X004904670Y002140551D01*
X004892885Y002132962D01*
X004892655Y002132817D01*
X004880772Y002125400D01*
X004880559Y002125269D01*
X004868567Y002118018D01*
X004868352Y002117890D01*
X004856276Y002110817D01*
X004856041Y002110681D01*
X004843842Y002103766D01*
X004843636Y002103651D01*
X004831357Y002096917D01*
X004831122Y002096790D01*
X004818776Y002090244D01*
X004818504Y002090102D01*
X004806044Y002083719D01*
X004805826Y002083609D01*
X004803068Y002082245D01*
X004572208Y002121533D02*
X004572208Y002121533D01*
X004575956Y002122290D01*
X004579759Y002122681D01*
X004583582Y002122700D01*
X004587388Y002122349D01*
X004591143Y002121630D01*
X004594810Y002120551D01*
X004598356Y002119121D01*
X004601746Y002117354D01*
X004604948Y002115266D01*
X004607934Y002112878D01*
X004610673Y002110211D01*
X004613141Y002107291D01*
X004615314Y002104146D01*
X004617171Y002100805D01*
X004618696Y002097299D01*
X004619874Y002093662D01*
X004620693Y002089928D01*
X004621146Y002086132D01*
X004621229Y002082310D01*
X004620941Y002078498D01*
X004614564Y002027337D01*
X004614364Y002025940D01*
X004614115Y002024552D01*
X004613816Y002023173D01*
X004613468Y002021805D01*
X004613070Y002020452D01*
X004612625Y002019113D01*
X004612132Y002017791D01*
X004611592Y002016487D01*
X004611006Y002015204D01*
X004610374Y002013943D01*
X004609697Y002012705D01*
X004608976Y002011492D01*
X004608212Y002010305D01*
X004607406Y002009147D01*
X004606560Y002008019D01*
X004605673Y002006921D01*
X004604748Y002005856D01*
X004603785Y002004825D01*
X004602785Y002003829D01*
X004601751Y002002869D01*
X004601091Y002002279D01*
X004600281Y002001509D01*
X004599492Y002000718D01*
X004598726Y001999904D01*
X004597983Y001999069D01*
X004597264Y001998213D01*
X004596570Y001997337D01*
X004595902Y001996442D01*
X004595259Y001995528D01*
X004594642Y001994596D01*
X004594051Y001993648D01*
X004593489Y001992682D01*
X004592953Y001991701D01*
X004592446Y001990705D01*
X004591967Y001989696D01*
X004591516Y001988673D01*
X004591095Y001987638D01*
X004590704Y001986591D01*
X004590342Y001985533D01*
X004590012Y001984466D01*
X004589710Y001983389D01*
X004589440Y001982305D01*
X004589201Y001981214D01*
X004588993Y001980115D01*
X004588816Y001979012D01*
X004588670Y001977904D01*
X004588556Y001976792D01*
X004588474Y001975678D01*
X004588423Y001974562D01*
X004588404Y001973444D01*
X004588416Y001972327D01*
X004588461Y001971210D01*
X004588537Y001970095D01*
X004588644Y001968983D01*
X004588783Y001967874D01*
X004588954Y001966769D01*
X004589155Y001965670D01*
X004589388Y001964577D01*
X004589652Y001963491D01*
X004589947Y001962413D01*
X004590272Y001961344D01*
X004590627Y001960285D01*
X004591013Y001959235D01*
X004591427Y001958198D01*
X004591872Y001957172D01*
X004592344Y001956160D01*
X004592846Y001955161D01*
X004593376Y001954177D01*
X004593933Y001953209D01*
X004598443Y001945623D01*
X004598585Y001945387D01*
X004604454Y001935671D01*
X004604597Y001935435D01*
X004610487Y001925838D01*
X004610631Y001925605D01*
X004616640Y001915964D01*
X004616786Y001915732D01*
X004622847Y001906158D01*
X004622996Y001905926D01*
X004629083Y001896456D01*
X004629234Y001896224D01*
X004635436Y001886724D01*
X004635587Y001886494D01*
X004641833Y001877070D01*
X004641987Y001876842D01*
X004648314Y001867438D01*
X004648470Y001867208D01*
X004654820Y001857914D01*
X004654975Y001857687D01*
X004661426Y001848386D01*
X004661583Y001848162D01*
X004668105Y001838894D01*
X004668265Y001838669D01*
X004674831Y001829478D01*
X004674992Y001829253D01*
X004681618Y001820115D01*
X004681780Y001819894D01*
X004688484Y001810782D01*
X004688647Y001810561D01*
X004695444Y001801457D01*
X004695609Y001801237D01*
X004702410Y001792258D01*
X004702577Y001792039D01*
X004709511Y001783018D01*
X004709679Y001782800D01*
X004716573Y001773959D01*
X004716743Y001773744D01*
X004723821Y001764795D01*
X004723993Y001764579D01*
X004731050Y001755785D01*
X004731223Y001755571D01*
X004738344Y001746824D01*
X004738520Y001746609D01*
X004745741Y001737864D01*
X004745915Y001737655D01*
X004753200Y001728956D01*
X004753378Y001728745D01*
X004760668Y001720163D01*
X004760846Y001719955D01*
X004768226Y001711389D01*
X004768410Y001711177D01*
X004775826Y001702691D01*
X004776005Y001702489D01*
X004783603Y001693914D01*
X004783787Y001693708D01*
X004791237Y001685419D01*
X004791424Y001685213D01*
X004799092Y001676801D01*
X004799279Y001676598D01*
X004806954Y001668296D01*
X004807141Y001668095D01*
X004814906Y001659813D01*
X004815092Y001659614D01*
X004822848Y001651457D01*
X004823039Y001651257D01*
X004830918Y001643084D01*
X004831110Y001642887D01*
X004838990Y001634828D01*
X004839184Y001634630D01*
X004847161Y001626585D01*
X004847354Y001626392D01*
X004855352Y001618437D01*
X004855549Y001618242D01*
X004863645Y001610301D01*
X004863840Y001610111D01*
X004872006Y001602213D01*
X004872205Y001602022D01*
X004880317Y001594285D01*
X004880517Y001594096D01*
X004888799Y001586306D01*
X004889001Y001586118D01*
X004897251Y001578468D01*
X004897455Y001578280D01*
X004905882Y001570574D01*
X004906084Y001570391D01*
X004914420Y001562874D01*
X004914624Y001562691D01*
X004923090Y001555164D01*
X004923298Y001554979D01*
X004931825Y001547504D01*
X004932029Y001547327D01*
X004940526Y001539981D01*
X004940738Y001539799D01*
X004949422Y001532399D01*
X004949631Y001532222D01*
X004958265Y001524967D01*
X004958478Y001524790D01*
X004967185Y001517577D01*
X004967394Y001517405D01*
X004976189Y001510223D01*
X004976403Y001510049D01*
X004985156Y001503003D01*
X004985371Y001502830D01*
X004994258Y001495777D01*
X004994476Y001495605D01*
X005003347Y001488666D01*
X005003563Y001488498D01*
X005012570Y001481554D01*
X005012787Y001481387D01*
X005021799Y001474538D01*
X005022018Y001474373D01*
X005030998Y001467646D01*
X005031221Y001467481D01*
X005040369Y001460728D01*
X005040590Y001460566D01*
X005049753Y001453900D01*
X005049977Y001453738D01*
X005059205Y001447125D01*
X005059428Y001446966D01*
X005068587Y001440497D01*
X005068813Y001440339D01*
X005078131Y001433856D01*
X005078355Y001433700D01*
X005087692Y001427300D01*
X005087919Y001427145D01*
X005097291Y001420817D01*
X005097519Y001420663D01*
X005106920Y001414411D01*
X005107149Y001414260D01*
X005116607Y001408064D01*
X005116840Y001407912D01*
X005126388Y001401753D01*
X005126617Y001401605D01*
X005136128Y001395563D01*
X005136363Y001395415D01*
X005145953Y001389416D01*
X005146186Y001389272D01*
X005155808Y001383346D01*
X005156043Y001383203D01*
X005165744Y001377321D01*
X005165980Y001377180D01*
X005175716Y001371370D01*
X005175953Y001371229D01*
X005185659Y001365529D01*
X005185898Y001365390D01*
X005195685Y001359734D01*
X005195922Y001359598D01*
X005205764Y001354001D01*
X005206005Y001353865D01*
X005215821Y001348374D01*
X005216062Y001348241D01*
X005226069Y001342734D01*
X005226306Y001342605D01*
X005236208Y001337245D01*
X005236455Y001337112D01*
X005246451Y001331792D01*
X005246695Y001331665D01*
X005256696Y001326431D01*
X005256937Y001326307D01*
X005267022Y001321119D01*
X005267270Y001320992D01*
X005277376Y001315883D01*
X005277618Y001315762D01*
X005287724Y001310740D01*
X005287974Y001310617D01*
X005298115Y001305667D01*
X005298362Y001305548D01*
X005308610Y001300634D01*
X005308858Y001300516D01*
X005319060Y001295711D01*
X005319312Y001295593D01*
X005329568Y001290851D01*
X005329815Y001290739D01*
X005340140Y001286051D01*
X005340394Y001285936D01*
X005522594Y001204764D01*
X005522845Y001204648D01*
X005522843Y001204645D01*
X005522642Y001204470D01*
X005369619Y001074737D01*
X005369505Y001074641D01*
X005359116Y001066003D01*
X005359028Y001065932D01*
X005348602Y001057428D01*
X005348402Y001057266D01*
X005337962Y001048915D01*
X005337792Y001048781D01*
X005327192Y001040466D01*
X005327109Y001040403D01*
X005316386Y001032154D01*
X005316301Y001032089D01*
X005305497Y001023941D01*
X005305409Y001023876D01*
X005294581Y001015870D01*
X005294438Y001015766D01*
X005283532Y001007862D01*
X005283407Y001007771D01*
X005272440Y000999981D01*
X005272265Y000999857D01*
X005261233Y000992177D01*
X005261124Y000992101D01*
X005250004Y000984516D01*
X005249819Y000984391D01*
X005238682Y000976948D01*
X005238443Y000976790D01*
X005227302Y000969497D01*
X005227073Y000969348D01*
X005215859Y000962157D01*
X005215580Y000961981D01*
X005204226Y000954852D01*
X005204111Y000954781D01*
X005192648Y000947733D01*
X005192454Y000947615D01*
X005180971Y000940707D01*
X005180769Y000940587D01*
X005169283Y000933823D01*
X005168991Y000933652D01*
X005157421Y000926988D01*
X005157222Y000926874D01*
X005145588Y000920318D01*
X005145323Y000920171D01*
X005133598Y000913709D01*
X005133427Y000913616D01*
X005121624Y000907257D01*
X005121435Y000907156D01*
X005109482Y000900864D01*
X005109427Y000900835D01*
X005097384Y000894638D01*
X005097280Y000894585D01*
X005085259Y000888544D01*
X005085056Y000888444D01*
X005073046Y000882550D01*
X005072826Y000882444D01*
X005060725Y000876648D01*
X005060519Y000876551D01*
X005048403Y000870889D01*
X005048161Y000870777D01*
X005036031Y000865248D01*
X005035780Y000865135D01*
X005023501Y000859678D01*
X005023357Y000859615D01*
X005010955Y000854245D01*
X005010892Y000854218D01*
X004998764Y000849102D01*
X004995757Y000847976D01*
X004992669Y000847098D01*
X004989519Y000846475D01*
X004986329Y000846111D01*
X004983120Y000846008D01*
X004979913Y000846167D01*
X004976730Y000846586D01*
X004973592Y000847264D01*
X004970519Y000848195D01*
X004967532Y000849373D01*
X004964652Y000850791D01*
X004961896Y000852438D01*
X004959284Y000854305D01*
X004956832Y000856379D01*
X004954558Y000858645D01*
X004952476Y000861089D01*
X004950600Y000863695D01*
X004948943Y000866444D01*
X004947515Y000869320D01*
X004946326Y000872303D01*
X004933228Y000909507D01*
X004932347Y000912345D01*
X004931683Y000915242D01*
X004931240Y000918181D01*
X004931020Y000921145D01*
X004931023Y000924117D01*
X004931251Y000927080D01*
X004931702Y000930017D01*
X004932373Y000932913D01*
X004933261Y000935749D01*
X004934360Y000938510D01*
X004935664Y000941181D01*
X004937166Y000943745D01*
X004938857Y000946189D01*
X004940727Y000948499D01*
X004942767Y000950660D01*
X004944964Y000952662D01*
X004947305Y000954492D01*
X004949778Y000956141D01*
X004952368Y000957598D01*
X004955061Y000958856D01*
X004955061Y000958856D01*
X004964504Y000962839D01*
X004975981Y000967809D01*
X004987410Y000972888D01*
X004998790Y000978075D01*
X005010121Y000983370D01*
X005021401Y000988772D01*
X005032629Y000994281D01*
X005043804Y000999897D01*
X005054925Y001005619D01*
X005065991Y001011445D01*
X005077001Y001017377D01*
X005087956Y001023414D01*
X005098851Y001029554D01*
X005109688Y001035797D01*
X005120466Y001042143D01*
X005131182Y001048591D01*
X005141837Y001055141D01*
X005152429Y001061791D01*
X005162957Y001068542D01*
X005173421Y001075392D01*
X005183819Y001082341D01*
X005194151Y001089389D01*
X005204415Y001096535D01*
X005214611Y001103778D01*
X005224737Y001111118D01*
X005234794Y001118553D01*
X005244779Y001126084D01*
X005254692Y001133709D01*
X005264533Y001141428D01*
X005274300Y001149240D01*
X005283991Y001157144D01*
X005293609Y001165141D01*
X005303149Y001173228D01*
X005291812Y001178279D01*
X005280510Y001183410D01*
X005269245Y001188620D01*
X005258015Y001193908D01*
X005246825Y001199274D01*
X005235670Y001204719D01*
X005224555Y001210241D01*
X005213478Y001215841D01*
X005202442Y001221518D01*
X005191444Y001227273D01*
X005180488Y001233104D01*
X005169572Y001239011D01*
X005158698Y001244995D01*
X005147866Y001251055D01*
X005137077Y001257190D01*
X005126330Y001263400D01*
X005115628Y001269686D01*
X005104970Y001276046D01*
X005094356Y001282480D01*
X005083788Y001288989D01*
X005073266Y001295571D01*
X005062789Y001302227D01*
X005052360Y001308955D01*
X005041977Y001315756D01*
X005031643Y001322631D01*
X005021357Y001329576D01*
X005011120Y001336594D01*
X005000932Y001343683D01*
X004990794Y001350843D01*
X004980706Y001358074D01*
X004970668Y001365375D01*
X004960683Y001372746D01*
X004950748Y001380187D01*
X004940867Y001387697D01*
X004931038Y001395276D01*
X004921262Y001402924D01*
X004911540Y001410639D01*
X004901872Y001418423D01*
X004892259Y001426274D01*
X004882701Y001434191D01*
X004873198Y001442176D01*
X004863752Y001450227D01*
X004854362Y001458343D01*
X004845029Y001466525D01*
X004835754Y001474772D01*
X004826536Y001483084D01*
X004817376Y001491460D01*
X004808276Y001499899D01*
X004799235Y001508403D01*
X004790253Y001516969D01*
X004781331Y001525598D01*
X004772471Y001534288D01*
X004763670Y001543041D01*
X004754932Y001551855D01*
X004746255Y001560730D01*
X004737640Y001569665D01*
X004729089Y001578661D01*
X004720600Y001587715D01*
X004712174Y001596829D01*
X004703813Y001606002D01*
X004695516Y001615232D01*
X004687284Y001624522D01*
X004679116Y001633867D01*
X004671015Y001643270D01*
X004662980Y001652729D01*
X004655010Y001662245D01*
X004647108Y001671815D01*
X004639272Y001681441D01*
X004631504Y001691121D01*
X004623804Y001700856D01*
X004616171Y001710644D01*
X004608609Y001720484D01*
X004601114Y001730378D01*
X004593689Y001740324D01*
X004586334Y001750322D01*
X004579049Y001760370D01*
X004571834Y001770470D01*
X004564690Y001780619D01*
X004557617Y001790818D01*
X004550616Y001801067D01*
X004543686Y001811364D01*
X004536829Y001821709D01*
X004530044Y001832102D01*
X004523332Y001842542D01*
X004516693Y001853030D01*
X004510127Y001863563D01*
X004503636Y001874141D01*
X004497218Y001884765D01*
X004490875Y001895433D01*
X004484607Y001906145D01*
X004478413Y001916901D01*
X004472295Y001927701D01*
X004466253Y001938542D01*
X004460287Y001949426D01*
X004454396Y001960351D01*
X004448582Y001971317D01*
X004442846Y001982323D01*
X004437186Y001993369D01*
X004431604Y002004455D01*
X004426099Y002015579D01*
X004420673Y002026741D01*
X004415324Y002037941D01*
X004410053Y002049178D01*
X004404862Y002060452D01*
X004399749Y002071762D01*
X004394716Y002083107D01*
X004389763Y002094487D01*
X004402347Y002095127D01*
X004414921Y002095944D01*
X004427482Y002096939D01*
X004440028Y002098109D01*
X004452556Y002099457D01*
X004465064Y002100981D01*
X004477549Y002102681D01*
X004490009Y002104557D01*
X004502441Y002106609D01*
X004514843Y002108835D01*
X004527213Y002111235D01*
X004539547Y002113810D01*
X004551844Y002116558D01*
X004564101Y002119480D01*
X004572208Y002121533D01*
X003251345Y002025684D02*
X003251345Y002025684D01*
X003247603Y002027146D01*
X003244029Y002028982D01*
X003240661Y002031172D01*
X003237534Y002033695D01*
X003234680Y002036523D01*
X003232129Y002039627D01*
X003229908Y002042975D01*
X003228040Y002046532D01*
X003226544Y002050261D01*
X003225435Y002054123D01*
X003224726Y002058077D01*
X003224424Y002062084D01*
X003224532Y002066100D01*
X003225049Y002070084D01*
X003225968Y002073995D01*
X003227282Y002077792D01*
X003228976Y002081436D01*
X003231032Y002084887D01*
X003233430Y002088111D01*
X003236143Y002091074D01*
X003267873Y002122354D01*
X003269415Y002123795D01*
X003271033Y002125152D01*
X003272721Y002126420D01*
X003274475Y002127595D01*
X003276289Y002128675D01*
X003278158Y002129656D01*
X003280077Y002130535D01*
X003282041Y002131311D01*
X003284043Y002131980D01*
X003286078Y002132540D01*
X003288141Y002132991D01*
X003290225Y002133331D01*
X003292323Y002133558D01*
X003294431Y002133672D01*
X003296543Y002133674D01*
X003298651Y002133562D01*
X003300750Y002133337D01*
X003302834Y002133000D01*
X003304897Y002132552D01*
X003306933Y002131994D01*
X003313886Y002129887D01*
X003326012Y002126390D01*
X003338186Y002123057D01*
X003350403Y002119890D01*
X003362661Y002116889D01*
X003374960Y002114053D01*
X003387296Y002111385D01*
X003399666Y002108883D01*
X003412070Y002106550D01*
X003424503Y002104384D01*
X003436965Y002102388D01*
X003449453Y002100560D01*
X003461965Y002098901D01*
X003474498Y002097412D01*
X003487049Y002096093D01*
X003499618Y002094944D01*
X003512201Y002093965D01*
X003524796Y002093157D01*
X003537401Y002092520D01*
X003532437Y002081117D01*
X003527392Y002069750D01*
X003522268Y002058419D01*
X003517064Y002047124D01*
X003511780Y002035866D01*
X003506417Y002024646D01*
X003500975Y002013464D01*
X003495455Y002002320D01*
X003489856Y001991216D01*
X003484179Y001980151D01*
X003478423Y001969127D01*
X003472591Y001958144D01*
X003466681Y001947202D01*
X003460693Y001936301D01*
X003454630Y001925444D01*
X003448490Y001914629D01*
X003442273Y001903858D01*
X003435981Y001893131D01*
X003429614Y001882449D01*
X003423171Y001871812D01*
X003416654Y001861221D01*
X003410061Y001850676D01*
X003403395Y001840177D01*
X003396655Y001829726D01*
X003389841Y001819323D01*
X003382954Y001808968D01*
X003375994Y001798662D01*
X003368962Y001788405D01*
X003361857Y001778198D01*
X003354682Y001768041D01*
X003347434Y001757935D01*
X003340115Y001747881D01*
X003332725Y001737878D01*
X003325266Y001727928D01*
X003317736Y001718031D01*
X003310136Y001708186D01*
X003302468Y001698396D01*
X003294730Y001688661D01*
X003286924Y001678979D01*
X003279050Y001669354D01*
X003271108Y001659784D01*
X003263099Y001650270D01*
X003255024Y001640813D01*
X003246881Y001631413D01*
X003238673Y001622071D01*
X003230399Y001612787D01*
X003222059Y001603561D01*
X003213655Y001594394D01*
X003205187Y001585288D01*
X003196654Y001576241D01*
X003188057Y001567254D01*
X003179398Y001558328D01*
X003170676Y001549463D01*
X003161892Y001540661D01*
X003153045Y001531920D01*
X003144138Y001523242D01*
X003135169Y001514627D01*
X003126140Y001506076D01*
X003117050Y001497588D01*
X003107902Y001489164D01*
X003098693Y001480806D01*
X003089426Y001472512D01*
X003080101Y001464284D01*
X003070718Y001456122D01*
X003061278Y001448027D01*
X003051781Y001439998D01*
X003042228Y001432036D01*
X003032618Y001424142D01*
X003022954Y001416316D01*
X003013234Y001408558D01*
X003003460Y001400869D01*
X002993632Y001393249D01*
X002983750Y001385699D01*
X002973816Y001378218D01*
X002963828Y001370808D01*
X002953789Y001363468D01*
X002943699Y001356199D01*
X002933557Y001349002D01*
X002923365Y001341876D01*
X002913123Y001334822D01*
X002902831Y001327841D01*
X002892490Y001320932D01*
X002882101Y001314097D01*
X002871664Y001307335D01*
X002861180Y001300647D01*
X002850648Y001294033D01*
X002840071Y001287493D01*
X002829447Y001281028D01*
X002818778Y001274639D01*
X002808065Y001268324D01*
X002797306Y001262085D01*
X002786505Y001255922D01*
X002775660Y001249836D01*
X002764772Y001243826D01*
X002753843Y001237893D01*
X002742872Y001232038D01*
X002731859Y001226259D01*
X002720806Y001220559D01*
X002709714Y001214937D01*
X002698582Y001209393D01*
X002687411Y001203928D01*
X002676202Y001198541D01*
X002664955Y001193234D01*
X002653671Y001188006D01*
X002642351Y001182858D01*
X002630994Y001177791D01*
X002619603Y001172803D01*
X002629141Y001164717D01*
X002638755Y001156723D01*
X002648446Y001148821D01*
X002658211Y001141011D01*
X002668050Y001133295D01*
X002677963Y001125673D01*
X002687947Y001118146D01*
X002698003Y001110714D01*
X002708129Y001103379D01*
X002718324Y001096140D01*
X002728588Y001088998D01*
X002738920Y001081955D01*
X002749318Y001075011D01*
X002759782Y001068165D01*
X002770310Y001061420D01*
X002780903Y001054776D01*
X002791558Y001048233D01*
X002802276Y001041791D01*
X002813053Y001035452D01*
X002823891Y001029215D01*
X002834788Y001023083D01*
X002845742Y001017054D01*
X002856754Y001011130D01*
X002867822Y001005311D01*
X002878944Y000999598D01*
X002890120Y000993991D01*
X002901350Y000988491D01*
X002912631Y000983098D01*
X002923963Y000977813D01*
X002935345Y000972636D01*
X002946775Y000967568D01*
X002958254Y000962608D01*
X002969779Y000957759D01*
X002981350Y000953019D01*
X002992966Y000948390D01*
X003004625Y000943871D01*
X003016326Y000939464D01*
X003028069Y000935169D01*
X003039853Y000930985D01*
X003051675Y000926914D01*
X003063536Y000922956D01*
X003075434Y000919111D01*
X003087368Y000915380D01*
X003099338Y000911763D01*
X003105218Y000910046D01*
X003108010Y000909117D01*
X003110725Y000907981D01*
X003113347Y000906646D01*
X003115863Y000905119D01*
X003118257Y000903409D01*
X003120516Y000901524D01*
X003122629Y000899476D01*
X003124583Y000897275D01*
X003126367Y000894935D01*
X003127971Y000892468D01*
X003129386Y000889889D01*
X003130605Y000887210D01*
X003131621Y000884449D01*
X003132427Y000881619D01*
X003133020Y000878737D01*
X003133396Y000875818D01*
X003133552Y000872880D01*
X003133489Y000869938D01*
X003133206Y000867009D01*
X003132706Y000864109D01*
X003124539Y000825480D01*
X003123739Y000822340D01*
X003122683Y000819277D01*
X003121379Y000816311D01*
X003119836Y000813462D01*
X003118064Y000810750D01*
X003116074Y000808193D01*
X003113881Y000805807D01*
X003111500Y000803611D01*
X003108946Y000801617D01*
X003106236Y000799840D01*
X003103390Y000798293D01*
X003100426Y000796984D01*
X003097364Y000795924D01*
X003094226Y000795118D01*
X003091032Y000794574D01*
X003087804Y000794294D01*
X003084564Y000794281D01*
X003081334Y000794534D01*
X003078135Y000795051D01*
X003074990Y000795830D01*
X003074990Y000795830D01*
X003065861Y000798495D01*
X003065592Y000798574D01*
X003052772Y000802450D01*
X003052503Y000802532D01*
X003039819Y000806498D01*
X003039512Y000806595D01*
X003026793Y000810705D01*
X003026579Y000810775D01*
X003013811Y000815037D01*
X003013696Y000815076D01*
X003000957Y000819462D01*
X003000764Y000819530D01*
X002988157Y000824005D01*
X002987879Y000824106D01*
X002975328Y000828696D01*
X002975129Y000828770D01*
X002962543Y000833511D01*
X002962407Y000833563D01*
X002949822Y000838440D01*
X002949694Y000838490D01*
X002937207Y000843466D01*
X002937005Y000843548D01*
X002924589Y000848634D01*
X002924368Y000848725D01*
X002912007Y000853927D01*
X002911850Y000853994D01*
X002899482Y000859338D01*
X002899354Y000859394D01*
X002887031Y000864857D01*
X002886881Y000864925D01*
X002874592Y000870514D01*
X002874507Y000870553D01*
X002862247Y000876272D01*
X002862143Y000876322D01*
X002850008Y000882122D01*
X002849779Y000882233D01*
X002837752Y000888124D01*
X002837596Y000888201D01*
X002825502Y000894268D01*
X002825455Y000894292D01*
X002813438Y000900465D01*
X002813290Y000900541D01*
X002801350Y000906819D01*
X002801240Y000906877D01*
X002789333Y000913283D01*
X002789242Y000913333D01*
X002777380Y000919860D01*
X002777316Y000919897D01*
X002765575Y000926504D01*
X002765330Y000926644D01*
X002753739Y000933313D01*
X002753568Y000933413D01*
X002742008Y000940213D01*
X002741835Y000940315D01*
X002730262Y000947271D01*
X002730200Y000947309D01*
X002718684Y000954381D01*
X002718535Y000954474D01*
X002707144Y000961619D01*
X002706985Y000961720D01*
X002695725Y000968934D01*
X002695499Y000969079D01*
X002684264Y000976429D01*
X002684094Y000976541D01*
X002672940Y000983991D01*
X002672759Y000984114D01*
X002661737Y000991627D01*
X002661490Y000991797D01*
X002650484Y000999455D01*
X002650316Y000999573D01*
X002639372Y001007343D01*
X002639214Y001007457D01*
X002628366Y001015314D01*
X002628161Y001015464D01*
X002617386Y001023429D01*
X002617221Y001023551D01*
X002606465Y001031660D01*
X002606345Y001031752D01*
X002595718Y001039923D01*
X002595523Y001040074D01*
X002584957Y001048361D01*
X002584797Y001048487D01*
X002574340Y001056850D01*
X002574153Y001057000D01*
X002563708Y001065518D01*
X002563642Y001065572D01*
X002553245Y001074218D01*
X002553142Y001074304D01*
X002399064Y001204909D01*
X002398865Y001205081D01*
X002398865Y001205082D01*
X002398866Y001205082D01*
X002399109Y001205192D01*
X002583154Y001285779D01*
X002583405Y001285890D01*
X002593679Y001290474D01*
X002593936Y001290590D01*
X002604274Y001295292D01*
X002604524Y001295407D01*
X002614796Y001300166D01*
X002615048Y001300284D01*
X002625265Y001305104D01*
X002625517Y001305225D01*
X002635811Y001310171D01*
X002636059Y001310292D01*
X002646123Y001315215D01*
X002646374Y001315339D01*
X002656579Y001320421D01*
X002656826Y001320546D01*
X002666921Y001325663D01*
X002667167Y001325789D01*
X002677214Y001330970D01*
X002677460Y001331098D01*
X002687523Y001336378D01*
X002687770Y001336508D01*
X002697724Y001341821D01*
X002697970Y001341953D01*
X002707944Y001347368D01*
X002708185Y001347500D01*
X002718106Y001352976D01*
X002718349Y001353111D01*
X002728222Y001358652D01*
X002728463Y001358788D01*
X002738264Y001364379D01*
X002738506Y001364519D01*
X002748368Y001370239D01*
X002748609Y001370379D01*
X002758312Y001376098D01*
X002758548Y001376239D01*
X002768303Y001382081D01*
X002768541Y001382225D01*
X002778144Y001388069D01*
X002778381Y001388214D01*
X002788112Y001394231D01*
X002788348Y001394377D01*
X002797874Y001400360D01*
X002798107Y001400508D01*
X002807715Y001406637D01*
X002807948Y001406787D01*
X002817396Y001412907D01*
X002817630Y001413060D01*
X002827093Y001419286D01*
X002827325Y001419440D01*
X002836711Y001425711D01*
X002836939Y001425864D01*
X002846372Y001432263D01*
X002846605Y001432421D01*
X002855927Y001438842D01*
X002856151Y001438998D01*
X002865468Y001445512D01*
X002865696Y001445673D01*
X002874862Y001452178D01*
X002875088Y001452339D01*
X002884301Y001458976D01*
X002884524Y001459138D01*
X002893670Y001465824D01*
X002893895Y001465990D01*
X002902994Y001472741D01*
X002903216Y001472907D01*
X002912269Y001479724D01*
X002912488Y001479891D01*
X002921455Y001486742D01*
X002921677Y001486912D01*
X002930685Y001493897D01*
X002930901Y001494066D01*
X002939782Y001501051D01*
X002940004Y001501226D01*
X002948820Y001508264D01*
X002949032Y001508435D01*
X002957874Y001515595D01*
X002958091Y001515772D01*
X002966824Y001522946D01*
X002967036Y001523122D01*
X002975712Y001530352D01*
X002975926Y001530531D01*
X002984614Y001537877D01*
X002984826Y001538057D01*
X002993362Y001545376D01*
X002993572Y001545557D01*
X003002196Y001553059D01*
X003002404Y001553242D01*
X003010873Y001560714D01*
X003011082Y001560900D01*
X003019531Y001568462D01*
X003019735Y001568646D01*
X003028093Y001576233D01*
X003028298Y001576420D01*
X003036667Y001584126D01*
X003036870Y001584315D01*
X003045090Y001591990D01*
X003045292Y001592179D01*
X003053528Y001599979D01*
X003053730Y001600172D01*
X003061948Y001608066D01*
X003062148Y001608260D01*
X003070226Y001616130D01*
X003070422Y001616322D01*
X003078483Y001624287D01*
X003078681Y001624484D01*
X003086671Y001632490D01*
X003086867Y001632688D01*
X003094807Y001640757D01*
X003095001Y001640956D01*
X003102892Y001649090D01*
X003103084Y001649290D01*
X003110957Y001657520D01*
X003111148Y001657721D01*
X003118852Y001665889D01*
X003119042Y001666093D01*
X003126810Y001674446D01*
X003126998Y001674650D01*
X003134607Y001682949D01*
X003134794Y001683155D01*
X003142382Y001691550D01*
X003142567Y001691755D01*
X003150177Y001700293D01*
X003150359Y001700500D01*
X003157766Y001708928D01*
X003157950Y001709141D01*
X003165400Y001717740D01*
X003165580Y001717950D01*
X003172878Y001726497D01*
X003173055Y001726706D01*
X003180460Y001735501D01*
X003180640Y001735716D01*
X003187806Y001744352D01*
X003187980Y001744564D01*
X003195124Y001753295D01*
X003195301Y001753515D01*
X003202438Y001762366D01*
X003202609Y001762581D01*
X003209666Y001771459D01*
X003209837Y001771676D01*
X003216797Y001780561D01*
X003216969Y001780781D01*
X003223919Y001789786D01*
X003224087Y001790005D01*
X003230904Y001798965D01*
X003231074Y001799189D01*
X003237902Y001808298D01*
X003238067Y001808519D01*
X003244794Y001817624D01*
X003244957Y001817847D01*
X003251600Y001826974D01*
X003251764Y001827200D01*
X003258395Y001836446D01*
X003258557Y001836673D01*
X003265074Y001845898D01*
X003265234Y001846126D01*
X003271687Y001855397D01*
X003271844Y001855624D01*
X003278270Y001864996D01*
X003278427Y001865227D01*
X003284768Y001874616D01*
X003284922Y001874847D01*
X003291203Y001884291D01*
X003291356Y001884523D01*
X003297511Y001893920D01*
X003297661Y001894152D01*
X003303874Y001903786D01*
X003304024Y001904019D01*
X003310047Y001913503D01*
X003310195Y001913739D01*
X003316211Y001923364D01*
X003316358Y001923600D01*
X003322276Y001933216D01*
X003322420Y001933452D01*
X003328311Y001943177D01*
X003328454Y001943417D01*
X003332629Y001950420D01*
X003333190Y001951394D01*
X003333723Y001952382D01*
X003334229Y001953385D01*
X003334704Y001954403D01*
X003335151Y001955433D01*
X003335568Y001956476D01*
X003335956Y001957531D01*
X003336313Y001958596D01*
X003336640Y001959670D01*
X003336935Y001960754D01*
X003337200Y001961846D01*
X003337433Y001962944D01*
X003337636Y001964049D01*
X003337806Y001965159D01*
X003337945Y001966274D01*
X003338052Y001967392D01*
X003338126Y001968512D01*
X003338170Y001969634D01*
X003338181Y001970758D01*
X003338159Y001971881D01*
X003338106Y001973003D01*
X003338021Y001974123D01*
X003337904Y001975240D01*
X003337755Y001976353D01*
X003337574Y001977462D01*
X003337362Y001978565D01*
X003337119Y001979662D01*
X003336844Y001980751D01*
X003336539Y001981831D01*
X003336202Y001982903D01*
X003335835Y001983965D01*
X003335439Y001985016D01*
X003335012Y001986055D01*
X003334556Y001987081D01*
X003334070Y001988094D01*
X003333556Y001989092D01*
X003333014Y001990076D01*
X003332444Y001991044D01*
X003331846Y001991995D01*
X003331222Y001992929D01*
X003330571Y001993844D01*
X003329894Y001994741D01*
X003329192Y001995618D01*
X003328466Y001996474D01*
X003327715Y001997310D01*
X003326941Y001998123D01*
X003326144Y001998915D01*
X003325324Y001999683D01*
X003324483Y002000427D01*
X003323621Y002001147D01*
X003322739Y002001843D01*
X003321837Y002002513D01*
X003320917Y002003157D01*
X003319978Y002003774D01*
X003319023Y002004364D01*
X003318051Y002004927D01*
X003317063Y002005462D01*
X003316061Y002005968D01*
X003315044Y002006446D01*
X003314014Y002006894D01*
X003312972Y002007313D01*
X003311918Y002007702D01*
X003310854Y002008061D01*
X003309780Y002008390D01*
X003308697Y002008687D01*
X003307869Y002008902D01*
X003307666Y002008956D01*
X003294183Y002012648D01*
X003293912Y002012724D01*
X003280529Y002016583D01*
X003280255Y002016663D01*
X003266906Y002020710D01*
X003266656Y002020788D01*
X003253369Y002025012D01*
X003253101Y002025099D01*
X003251345Y002025684D01*
X003112740Y002216195D02*
X003112740Y002216195D01*
X003114535Y002215091D01*
X003116269Y002213892D01*
X003117937Y002212602D01*
X003119533Y002211225D01*
X003121053Y002209764D01*
X003122493Y002208224D01*
X003123848Y002206609D01*
X003125114Y002204924D01*
X003126289Y002203173D01*
X003127368Y002201363D01*
X003128349Y002199497D01*
X003129229Y002197581D01*
X003130005Y002195621D01*
X003130674Y002193622D01*
X003131236Y002191590D01*
X003131688Y002189531D01*
X003132030Y002187450D01*
X003132259Y002185355D01*
X003132376Y002183250D01*
X003132380Y002181142D01*
X003131275Y002136583D01*
X003130970Y002132574D01*
X003130258Y002128617D01*
X003129146Y002124753D01*
X003127646Y002121022D01*
X003125773Y002117465D01*
X003123547Y002114116D01*
X003120991Y002111013D01*
X003118132Y002108186D01*
X003114999Y002105665D01*
X003111626Y002103477D01*
X003108047Y002101645D01*
X003104300Y002100187D01*
X003100423Y002099119D01*
X003096458Y002098452D01*
X003092446Y002098193D01*
X003088428Y002098344D01*
X003084447Y002098904D01*
X003080543Y002099868D01*
X003076758Y002101224D01*
X003073131Y002102960D01*
X003071028Y002104102D01*
X003070712Y002104275D01*
X003058604Y002111065D01*
X003058328Y002111221D01*
X003046261Y002118204D01*
X003046051Y002118327D01*
X003034084Y002125468D01*
X003033803Y002125639D01*
X003021916Y002132953D01*
X003021763Y002133048D01*
X003009935Y002140548D01*
X003009685Y002140710D01*
X002998039Y002148319D01*
X002997806Y002148473D01*
X002986251Y002156246D01*
X002985996Y002156420D01*
X002974550Y002164350D01*
X002974312Y002164516D01*
X002962991Y002172586D01*
X002962694Y002172801D01*
X002951492Y002181018D01*
X002951270Y002181183D01*
X002809073Y002288492D01*
X002808848Y002288667D01*
X002809068Y002288821D01*
X002955311Y002387847D01*
X002955564Y002388020D01*
X002964770Y002394358D01*
X002965020Y002394532D01*
X002974142Y002400917D01*
X002974391Y002401094D01*
X002983467Y002407553D01*
X002983714Y002407729D01*
X002992765Y002414276D01*
X002993015Y002414459D01*
X003002052Y002421105D01*
X003002295Y002421285D01*
X003011169Y002427917D01*
X003011414Y002428102D01*
X003020285Y002434840D01*
X003020525Y002435024D01*
X003029400Y002441874D01*
X003029642Y002442062D01*
X003038367Y002448905D01*
X003038607Y002449094D01*
X003047338Y002456053D01*
X003047576Y002456243D01*
X003056278Y002463289D01*
X003056516Y002463483D01*
X003065137Y002470575D01*
X003065372Y002470770D01*
X003073879Y002477879D01*
X003074113Y002478077D01*
X003082637Y002485314D01*
X003082870Y002485513D01*
X003091313Y002492796D01*
X003091543Y002492996D01*
X003099952Y002500363D01*
X003100181Y002500564D01*
X003108467Y002507938D01*
X003108695Y002508142D01*
X003116996Y002515646D01*
X003117225Y002515854D01*
X003125446Y002523403D01*
X003125668Y002523609D01*
X003133775Y002531168D01*
X003133996Y002531377D01*
X003142150Y002539099D01*
X003142373Y002539313D01*
X003150413Y002547048D01*
X003150631Y002547259D01*
X003158581Y002555027D01*
X003158799Y002555241D01*
X003166715Y002563096D01*
X003166931Y002563313D01*
X003174791Y002571235D01*
X003175005Y002571451D01*
X003182799Y002579429D01*
X003183014Y002579651D01*
X003190735Y002587679D01*
X003190944Y002587898D01*
X003198607Y002595989D01*
X003198817Y002596213D01*
X003206451Y002604401D01*
X003206659Y002604627D01*
X003214208Y002612851D01*
X003214411Y002613074D01*
X003221838Y002621292D01*
X003222046Y002621523D01*
X003229508Y002629910D01*
X003229707Y002630137D01*
X003237016Y002638480D01*
X003237218Y002638712D01*
X003244522Y002647182D01*
X003244718Y002647412D01*
X003251932Y002655909D01*
X003252133Y002656147D01*
X003259299Y002664724D01*
X003259492Y002664958D01*
X003266526Y002673510D01*
X003266720Y002673748D01*
X003273773Y002682459D01*
X003273964Y002682697D01*
X003280913Y002691419D01*
X003281101Y002691657D01*
X003287989Y002700439D01*
X003288179Y002700684D01*
X003295010Y002709536D01*
X003295193Y002709776D01*
X003301876Y002718575D01*
X003302062Y002718822D01*
X003308790Y002727827D01*
X003308970Y002728071D01*
X003315550Y002737020D01*
X003315730Y002737268D01*
X003322281Y002746324D01*
X003322458Y002746572D01*
X003328909Y002755638D01*
X003329085Y002755887D01*
X003335511Y002765070D01*
X003335686Y002765320D01*
X003341996Y002774486D01*
X003342168Y002774739D01*
X003348387Y002783924D01*
X003348558Y002784179D01*
X003354776Y002793519D01*
X003354944Y002793774D01*
X003361039Y002803085D01*
X003361206Y002803343D01*
X003367247Y002812730D01*
X003367409Y002812985D01*
X003373340Y002822358D01*
X003373505Y002822620D01*
X003379436Y002832159D01*
X003379596Y002832419D01*
X003385388Y002841898D01*
X003385546Y002842159D01*
X003391298Y002851737D01*
X003391453Y002851999D01*
X003397135Y002861628D01*
X003397290Y002861893D01*
X003402849Y002871483D01*
X003403001Y002871750D01*
X003408544Y002881488D01*
X003408693Y002881752D01*
X003414103Y002891429D01*
X003414252Y002891698D01*
X003419631Y002901500D01*
X003419778Y002901769D01*
X003425081Y002911611D01*
X003425223Y002911879D01*
X003430432Y002921727D01*
X003430575Y002922000D01*
X003435706Y002931889D01*
X003435845Y002932159D01*
X003440903Y002942093D01*
X003441042Y002942369D01*
X003446058Y002952417D01*
X003446191Y002952685D01*
X003451051Y002962607D01*
X003451187Y002962888D01*
X003456016Y002972948D01*
X003456147Y002973223D01*
X003460918Y002983362D01*
X003461046Y002983636D01*
X003465722Y002993775D01*
X003465850Y002994056D01*
X003470403Y003004134D01*
X003470528Y003004412D01*
X003475062Y003014660D01*
X003475186Y003014944D01*
X003479606Y003025150D01*
X003479722Y003025420D01*
X003480106Y003026324D01*
X003480529Y003027362D01*
X003480922Y003028411D01*
X003481285Y003029472D01*
X003481618Y003030541D01*
X003481921Y003031620D01*
X003482192Y003032707D01*
X003482432Y003033802D01*
X003482641Y003034903D01*
X003482820Y003036009D01*
X003482965Y003037120D01*
X003483080Y003038234D01*
X003483163Y003039351D01*
X003483214Y003040471D01*
X003483233Y003041591D01*
X003483220Y003042711D01*
X003483176Y003043831D01*
X003483099Y003044949D01*
X003482991Y003046064D01*
X003482851Y003047176D01*
X003482679Y003048283D01*
X003482476Y003049385D01*
X003482242Y003050481D01*
X003481977Y003051570D01*
X003481681Y003052650D01*
X003481354Y003053722D01*
X003480996Y003054784D01*
X003480609Y003055835D01*
X003480192Y003056876D01*
X003479746Y003057903D01*
X003479270Y003058917D01*
X003478765Y003059918D01*
X003478233Y003060904D01*
X003477673Y003061874D01*
X003477085Y003062828D01*
X003476470Y003063765D01*
X003475829Y003064684D01*
X003475163Y003065584D01*
X003474470Y003066465D01*
X003473753Y003067326D01*
X003473011Y003068167D01*
X003472247Y003068985D01*
X003471459Y003069782D01*
X003470648Y003070555D01*
X003469816Y003071306D01*
X003468963Y003072033D01*
X003468090Y003072735D01*
X003467198Y003073411D01*
X003466286Y003074062D01*
X003465356Y003074688D01*
X003464408Y003075286D01*
X003463444Y003075857D01*
X003462464Y003076400D01*
X003461469Y003076916D01*
X003460460Y003077402D01*
X003459437Y003077861D01*
X003458402Y003078289D01*
X003457355Y003078688D01*
X003456297Y003079057D01*
X003455229Y003079395D01*
X003454152Y003079703D01*
X003453066Y003079981D01*
X003451973Y003080228D01*
X003438670Y003083028D01*
X003438277Y003083114D01*
X003424146Y003086403D01*
X003423702Y003086512D01*
X003409685Y003090092D01*
X003409253Y003090206D01*
X003395267Y003094098D01*
X003394882Y003094210D01*
X003380998Y003098392D01*
X003380582Y003098522D01*
X003366789Y003103000D01*
X003366387Y003103135D01*
X003352704Y003107903D01*
X003352300Y003108048D01*
X003338693Y003113116D01*
X003338306Y003113264D01*
X003324809Y003118621D01*
X003324450Y003118768D01*
X003311065Y003124414D01*
X003310698Y003124572D01*
X003297430Y003130505D01*
X003297067Y003130672D01*
X003283941Y003136879D01*
X003283577Y003137056D01*
X003270558Y003143555D01*
X003270231Y003143723D01*
X003257381Y003150484D01*
X003256996Y003150692D01*
X003244335Y003157701D01*
X003243941Y003157925D01*
X003231409Y003165216D01*
X003231041Y003165435D01*
X003218678Y003172985D01*
X003218297Y003173224D01*
X003206103Y003181031D01*
X003205726Y003181279D01*
X003193724Y003189331D01*
X003193324Y003189604D01*
X003181487Y003197914D01*
X003181126Y003198173D01*
X003169443Y003206754D01*
X003169104Y003207008D01*
X003157599Y003215840D01*
X003157272Y003216097D01*
X003145944Y003225183D01*
X003145632Y003225439D01*
X003134494Y003234771D01*
X003134202Y003235020D01*
X003123261Y003244590D01*
X003122948Y003244870D01*
X003112246Y003254641D01*
X003111933Y003254933D01*
X003101423Y003264945D01*
X003101139Y003265223D01*
X003090843Y003275460D01*
X003090543Y003275766D01*
X003080496Y003286190D01*
X003080182Y003286522D01*
X003070338Y003297181D01*
X003070076Y003297472D01*
X002968401Y003412385D01*
X002968220Y003412596D01*
X002968450Y003412742D01*
X003097618Y003492541D01*
X003097849Y003492685D01*
X003107495Y003498736D01*
X003107723Y003498881D01*
X003117290Y003504974D01*
X003117516Y003505119D01*
X003127035Y003511274D01*
X003127261Y003511421D01*
X003136698Y003517614D01*
X003136925Y003517765D01*
X003146409Y003524084D01*
X003146632Y003524233D01*
X003155973Y003530549D01*
X003156198Y003530703D01*
X003165615Y003537165D01*
X003165837Y003537318D01*
X003175143Y003543798D01*
X003175363Y003543954D01*
X003184605Y003550483D01*
X003184822Y003550639D01*
X003193989Y003557209D01*
X003194213Y003557371D01*
X003203462Y003564099D01*
X003203676Y003564255D01*
X003212843Y003571018D01*
X003213063Y003571182D01*
X003221998Y003577871D01*
X003222212Y003578032D01*
X003231387Y003584999D01*
X003231603Y003585164D01*
X003240520Y003592031D01*
X003240730Y003592195D01*
X003249641Y003599155D01*
X003249855Y003599323D01*
X003258806Y003606415D01*
X003259018Y003606583D01*
X003267848Y003613679D01*
X003268058Y003613848D01*
X003276831Y003620998D01*
X003277039Y003621167D01*
X003285808Y003628412D01*
X003286017Y003628586D01*
X003294702Y003635863D01*
X003294908Y003636037D01*
X003303565Y003643392D01*
X003303769Y003643566D01*
X003312309Y003650923D01*
X003312514Y003651102D01*
X003321115Y003658615D01*
X003321315Y003658792D01*
X003329796Y003666303D01*
X003330000Y003666485D01*
X003338403Y003674031D01*
X003338602Y003674211D01*
X003347006Y003681863D01*
X003347205Y003682044D01*
X003355578Y003689774D01*
X003355777Y003689959D01*
X003364024Y003697676D01*
X003364219Y003697861D01*
X003372436Y003705656D01*
X003372631Y003705842D01*
X003380805Y003713706D01*
X003381001Y003713894D01*
X003389174Y003721866D01*
X003389366Y003722055D01*
X003397391Y003729989D01*
X003397582Y003730179D01*
X003405572Y003738188D01*
X003405762Y003738379D01*
X003413774Y003746521D01*
X003413961Y003746713D01*
X003421809Y003754798D01*
X003421998Y003754993D01*
X003429915Y003763263D01*
X003430100Y003763457D01*
X003437842Y003771655D01*
X003438028Y003771852D01*
X003445740Y003780133D01*
X003445924Y003780331D01*
X003453586Y003788670D01*
X003453766Y003788868D01*
X003461416Y003797310D01*
X003461599Y003797513D01*
X003469181Y003805997D01*
X003469359Y003806197D01*
X003476847Y003814690D01*
X003477025Y003814894D01*
X003484413Y003823393D01*
X003484591Y003823599D01*
X003492006Y003832247D01*
X003492181Y003832452D01*
X003499522Y003841133D01*
X003499694Y003841339D01*
X003506938Y003850025D01*
X003507110Y003850233D01*
X003511624Y003855722D01*
X003513664Y003858014D01*
X003515877Y003860141D01*
X003518248Y003862088D01*
X003520764Y003863846D01*
X003523409Y003865401D01*
X003526167Y003866747D01*
X003529022Y003867873D01*
X003531955Y003868773D01*
X003534950Y003869442D01*
X003537988Y003869876D01*
X003541051Y003870072D01*
X003544119Y003870029D01*
X003547175Y003869747D01*
X003550199Y003869228D01*
X003553174Y003868475D01*
X003556081Y003867493D01*
X003558903Y003866287D01*
X003561622Y003864865D01*
X003564223Y003863235D01*
X003566688Y003861408D01*
X003597384Y003836751D01*
X003599732Y003834706D01*
X003601912Y003832482D01*
X003603909Y003830093D01*
X003605711Y003827554D01*
X003607307Y003824880D01*
X003608686Y003822088D01*
X003609841Y003819196D01*
X003610763Y003816222D01*
X003611447Y003813184D01*
X003611889Y003810102D01*
X003612087Y003806994D01*
X003612038Y003803881D01*
X003611743Y003800781D01*
X003611204Y003797714D01*
X003610424Y003794699D01*
X003609408Y003791756D01*
X003608163Y003788901D01*
X003606697Y003786155D01*
X003605017Y003783532D01*
X003603136Y003781051D01*
X003598004Y003774810D01*
X003590048Y003765269D01*
X003582027Y003755783D01*
X003573941Y003746352D01*
X003565790Y003736977D01*
X003557575Y003727659D01*
X003549297Y003718396D01*
X003540954Y003709191D01*
X003532550Y003700043D01*
X003524082Y003690953D01*
X003515552Y003681921D01*
X003506962Y003672948D01*
X003498309Y003664034D01*
X003489596Y003655179D01*
X003480822Y003646385D01*
X003471988Y003637651D01*
X003463094Y003628977D01*
X003454141Y003620365D01*
X003445129Y003611814D01*
X003436059Y003603326D01*
X003426930Y003594900D01*
X003417744Y003586537D01*
X003408501Y003578236D01*
X003399202Y003570000D01*
X003389846Y003561827D01*
X003380434Y003553719D01*
X003370967Y003545675D01*
X003361445Y003537697D01*
X003351868Y003529784D01*
X003342238Y003521937D01*
X003332554Y003514156D01*
X003322816Y003506442D01*
X003313026Y003498794D01*
X003303184Y003491214D01*
X003293290Y003483702D01*
X003283345Y003476258D01*
X003273349Y003468882D01*
X003263302Y003461574D01*
X003253206Y003454336D01*
X003243060Y003447168D01*
X003232866Y003440068D01*
X003222622Y003433040D01*
X003212331Y003426081D01*
X003201993Y003419193D01*
X003191607Y003412377D01*
X003181176Y003405631D01*
X003170697Y003398957D01*
X003160174Y003392356D01*
X003149606Y003385827D01*
X003149606Y003385827D01*
X003157830Y003376532D01*
X003166251Y003367414D01*
X003174863Y003358477D01*
X003183664Y003349726D01*
X003192650Y003341165D01*
X003201816Y003332796D01*
X003211158Y003324625D01*
X003220672Y003316655D01*
X003230353Y003308889D01*
X003240198Y003301331D01*
X003250201Y003293985D01*
X003260359Y003286854D01*
X003270666Y003279940D01*
X003281119Y003273247D01*
X003291710Y003266778D01*
X003302438Y003260537D01*
X003313297Y003254525D01*
X003324280Y003248747D01*
X003335385Y003243203D01*
X003346605Y003237897D01*
X003357935Y003232831D01*
X003369371Y003228008D01*
X003380907Y003223430D01*
X003392538Y003219098D01*
X003404258Y003215015D01*
X003416062Y003211183D01*
X003427946Y003207602D01*
X003439903Y003204276D01*
X003451929Y003201205D01*
X003464017Y003198391D01*
X003476162Y003195835D01*
X003488359Y003193539D01*
X003500602Y003191502D01*
X003512886Y003189727D01*
X003525204Y003188214D01*
X003537553Y003186964D01*
X003549925Y003185977D01*
X003562315Y003185253D01*
X003574717Y003184794D01*
X003587127Y003184599D01*
X003599538Y003184669D01*
X003611945Y003185003D01*
X003624342Y003185601D01*
X003636723Y003186463D01*
X003649084Y003187588D01*
X003661417Y003188976D01*
X003658127Y003177046D01*
X003654746Y003165143D01*
X003651272Y003153266D01*
X003647706Y003141416D01*
X003644048Y003129594D01*
X003640298Y003117801D01*
X003636457Y003106038D01*
X003632524Y003094305D01*
X003628501Y003082603D01*
X003624387Y003070932D01*
X003620183Y003059293D01*
X003615888Y003047688D01*
X003611503Y003036116D01*
X003607028Y003024579D01*
X003602464Y003013076D01*
X003597811Y003001610D01*
X003593069Y002990180D01*
X003588239Y002978787D01*
X003583320Y002967432D01*
X003578313Y002956115D01*
X003573219Y002944838D01*
X003568036Y002933601D01*
X003562767Y002922404D01*
X003557411Y002911248D01*
X003551969Y002900135D01*
X003546441Y002889063D01*
X003540826Y002878036D01*
X003535127Y002867052D01*
X003529342Y002856113D01*
X003523472Y002845218D01*
X003517518Y002834370D01*
X003511480Y002823568D01*
X003505358Y002812814D01*
X003499153Y002802107D01*
X003492865Y002791450D01*
X003486495Y002780841D01*
X003480042Y002770281D01*
X003473508Y002759773D01*
X003466892Y002749315D01*
X003460195Y002738909D01*
X003453417Y002728555D01*
X003446560Y002718255D01*
X003439622Y002708007D01*
X003432605Y002697814D01*
X003425510Y002687676D01*
X003418336Y002677593D01*
X003411083Y002667567D01*
X003403754Y002657596D01*
X003396346Y002647683D01*
X003388862Y002637828D01*
X003381302Y002628031D01*
X003373666Y002618294D01*
X003365955Y002608615D01*
X003358169Y002598998D01*
X003350308Y002589440D01*
X003342374Y002579944D01*
X003334365Y002570510D01*
X003326284Y002561139D01*
X003318130Y002551830D01*
X003309904Y002542584D01*
X003301607Y002533404D01*
X003293239Y002524288D01*
X003284800Y002515236D01*
X003276292Y002506251D01*
X003267713Y002497333D01*
X003259066Y002488481D01*
X003250350Y002479696D01*
X003241566Y002470980D01*
X003232715Y002462331D01*
X003223797Y002453752D01*
X003214813Y002445243D01*
X003205763Y002436803D01*
X003196648Y002428434D01*
X003187468Y002420136D01*
X003178223Y002411909D01*
X003168915Y002403755D01*
X003159544Y002395673D01*
X003150111Y002387664D01*
X003140616Y002379728D01*
X003131059Y002371867D01*
X003121442Y002364079D01*
X003111765Y002356367D01*
X003102028Y002348730D01*
X003092231Y002341169D01*
X003082377Y002333684D01*
X003072465Y002326276D01*
X003062495Y002318946D01*
X003052469Y002311693D01*
X003042387Y002304517D01*
X003032249Y002297420D01*
X003022057Y002290403D01*
X003011811Y002283464D01*
X003021885Y002275862D01*
X003032062Y002268398D01*
X003042339Y002261071D01*
X003052714Y002253885D01*
X003063186Y002246840D01*
X003073752Y002239937D01*
X003084410Y002233178D01*
X003095159Y002226564D01*
X003105997Y002220096D01*
X003112740Y002216195D01*
M02*