%
M48
METRIC,000.000
T01C0.50
%
T01
X079313Y055862
X080198Y055397
X081101Y054969
X082022Y054580
X082959Y054229
X083909Y053917
X078131Y053659
X079015Y053193
X079917Y052761
X080835Y052364
X081766Y052001
X082711Y051673
X116154Y053634
X117117Y053901
X118068Y054209
X119005Y054559
X119926Y054949
X117114Y051295
X118073Y051579
X119022Y051894
X119958Y052247
X120879Y052636
X121784Y053062
X024425Y072645
X023586Y072101
X022772Y071521
X022354Y070796
X023392Y074942
X022545Y074412
X021719Y073847
X020916Y073251
X020124Y072641
X019332Y072030
X079127Y022781
X080094Y022525
X081068Y022298
X082048Y022099
X083033Y021930
X078893Y020253
X079863Y020008
X080839Y019791
X081820Y019600
X082807Y019436
X110208Y095357
X109570Y096127
X108949Y096911
X108345Y097708
X107759Y098518
X107190Y099341
X111789Y097364
X111160Y098142
X110550Y098934
X109958Y099740
X109385Y100559
X055197Y119249
X054197Y119249
X053197Y119249
X052197Y119249
X051197Y119249
X050197Y119249
X055410Y121749
X054410Y121749
X053410Y121749
X052410Y121749
X051410Y121749
X042197Y119249
X041197Y119249
X040197Y119249
X039197Y119249
X038197Y119249
X037197Y119249
X042410Y121749
X041410Y121749
X040410Y121749
X039410Y121749
X038410Y121749
X052411Y028312
X052957Y029150
X053521Y029976
X054103Y030789
X054703Y031589
X054021Y026166
X054549Y027015
X055097Y027852
X055664Y028676
X056249Y029486
X056853Y030283
X039816Y029665
X040368Y028831
X040901Y027985
X041417Y027128
X041913Y026260
X042391Y025381
X037665Y028382
X038219Y027549
X038754Y026705
X039269Y025848
X039765Y024979
X040241Y024100
X166590Y037749
X167590Y037749
X168590Y037749
X169590Y037749
X170590Y037749
X171590Y037749
X166955Y035249
X167955Y035249
X168955Y035249
X169955Y035249
X170955Y035249
X201250Y073897
X201250Y074897
X201250Y075897
X201250Y076897
X201250Y077897
X203750Y074054
X203750Y075054
X203750Y076054
X203750Y077054
X203750Y078054
X169204Y111250
X168204Y111250
X167204Y111250
X166204Y111250
X165204Y111250
X164204Y111250
X168978Y113750
X167978Y113750
X166978Y113750
X165978Y113750
X164978Y113750
X134750Y077307
X134750Y076307
X134750Y075307
X134750Y074307
X134750Y073307
X132250Y077011
X132250Y076011
X132250Y075011
X132250Y074011
X132250Y073011
X068568Y072624
X067704Y073127
X066820Y073593
X065916Y074021
X064996Y074412
X069087Y075217
X068207Y075692
X067310Y076133
X066396Y076539
X094024Y099838
X093460Y099012
X092878Y098199
X092279Y097398
X091662Y096611
X092307Y101779
X091756Y100945
X091185Y100124
X090595Y099316
X089987Y098522
X089361Y097743
X121674Y022662
X122636Y022936
X123589Y023237
X124533Y023567
X125467Y023925
X121707Y020089
X122674Y020344
X123634Y020626
X124585Y020934
X125527Y021269
X126460Y021629
M30