%TF.GenerationSoftware,KiCad,Pcbnew,(6.0.7)*%
%TF.CreationDate,2022-11-21T20:09:17+01:00*%
%TF.ProjectId,Arbolito Tronco,4172626f-6c69-4746-9f20-54726f6e636f,rev?*%
%TF.SameCoordinates,Original*%
%TF.FileFunction,Soldermask,Top*%
%TF.FilePolarity,Negative*%
%FSLAX46Y46*%
G04 Gerber Fmt 4.6, Leading zero omitted, Abs format (unit mm)*
G04 Created by KiCad (PCBNEW (6.0.7)) date 2022-11-21 20:09:17*
%MOMM*%
%LPD*%
G01*
G04 APERTURE LIST*
G04 Aperture macros list*
%AMRoundRect*
0 Rectangle with rounded corners*
0 $1 Rounding radius*
0 $2 $3 $4 $5 $6 $7 $8 $9 X,Y pos of 4 corners*
0 Add a 4 corners polygon primitive as box body*
4,1,4,$2,$3,$4,$5,$6,$7,$8,$9,$2,$3,0*
0 Add four circle primitives for the rounded corners*
1,1,$1+$1,$2,$3*
1,1,$1+$1,$4,$5*
1,1,$1+$1,$6,$7*
1,1,$1+$1,$8,$9*
0 Add four rect primitives between the rounded corners*
20,1,$1+$1,$2,$3,$4,$5,0*
20,1,$1+$1,$4,$5,$6,$7,0*
20,1,$1+$1,$6,$7,$8,$9,0*
20,1,$1+$1,$8,$9,$2,$3,0*%
G04 Aperture macros list end*
%ADD10C,0.150000*%
%ADD11RoundRect,0.250000X-0.475000X0.250000X-0.475000X-0.250000X0.475000X-0.250000X0.475000X0.250000X0*%
%ADD12R,1.500000X1.000000*%
G04 APERTURE END LIST*
D10*
G36*
X148700000Y-127100000D02*
G01*
X129500000Y-127100000D01*
X131000000Y-118400000D01*
X148595401Y-118308937D01*
X148700000Y-127100000D01*
G37*
X148700000Y-127100000D02*
X129500000Y-127100000D01*
X131000000Y-118400000D01*
X148595401Y-118308937D01*
X148700000Y-127100000D01*
G36*
X138100000Y-66100000D02*
G01*
X137100000Y-66100000D01*
X137100000Y-64100000D01*
X138100000Y-64100000D01*
X138100000Y-66100000D01*
G37*
X138100000Y-66100000D02*
X137100000Y-66100000D01*
X137100000Y-64100000D01*
X138100000Y-64100000D01*
X138100000Y-66100000D01*
G36*
X133000000Y-128500000D02*
G01*
X131000000Y-128500000D01*
X131000000Y-127500000D01*
X133000000Y-127500000D01*
X133000000Y-128500000D01*
G37*
X133000000Y-128500000D02*
X131000000Y-128500000D01*
X131000000Y-127500000D01*
X133000000Y-127500000D01*
X133000000Y-128500000D01*
G36*
X148000000Y-128500000D02*
G01*
X146000000Y-128500000D01*
X146000000Y-127500000D01*
X148000000Y-127500000D01*
X148000000Y-128500000D01*
G37*
X148000000Y-128500000D02*
X146000000Y-128500000D01*
X146000000Y-127500000D01*
X148000000Y-127500000D01*
X148000000Y-128500000D01*
G36*
X138100000Y-69100000D02*
G01*
X137100000Y-69100000D01*
X137100000Y-67100000D01*
X138100000Y-67100000D01*
X138100000Y-69100000D01*
G37*
X138100000Y-69100000D02*
X137100000Y-69100000D01*
X137100000Y-67100000D01*
X138100000Y-67100000D01*
X138100000Y-69100000D01*
G36*
X136000000Y-128500000D02*
G01*
X134000000Y-128500000D01*
X134000000Y-127500000D01*
X136000000Y-127500000D01*
X136000000Y-128500000D01*
G37*
X136000000Y-128500000D02*
X134000000Y-128500000D01*
X134000000Y-127500000D01*
X136000000Y-127500000D01*
X136000000Y-128500000D01*
G36*
X139000000Y-128500000D02*
G01*
X137000000Y-128500000D01*
X137000000Y-127500000D01*
X139000000Y-127500000D01*
X139000000Y-128500000D01*
G37*
X139000000Y-128500000D02*
X137000000Y-128500000D01*
X137000000Y-127500000D01*
X139000000Y-127500000D01*
X139000000Y-128500000D01*
G36*
X141900000Y-63100000D02*
G01*
X140900000Y-63100000D01*
X140900000Y-61100000D01*
X141900000Y-61100000D01*
X141900000Y-63100000D01*
G37*
X141900000Y-63100000D02*
X140900000Y-63100000D01*
X140900000Y-61100000D01*
X141900000Y-61100000D01*
X141900000Y-63100000D01*
G36*
X138100000Y-63100000D02*
G01*
X137100000Y-63100000D01*
X137100000Y-61100000D01*
X138100000Y-61100000D01*
X138100000Y-63100000D01*
G37*
X138100000Y-63100000D02*
X137100000Y-63100000D01*
X137100000Y-61100000D01*
X138100000Y-61100000D01*
X138100000Y-63100000D01*
G36*
X141900000Y-66100000D02*
G01*
X140900000Y-66100000D01*
X140900000Y-64100000D01*
X141900000Y-64100000D01*
X141900000Y-66100000D01*
G37*
X141900000Y-66100000D02*
X140900000Y-66100000D01*
X140900000Y-64100000D01*
X141900000Y-64100000D01*
X141900000Y-66100000D01*
G36*
X141900000Y-69100000D02*
G01*
X140900000Y-69100000D01*
X140900000Y-67100000D01*
X141900000Y-67100000D01*
X141900000Y-69100000D01*
G37*
X141900000Y-69100000D02*
X140900000Y-69100000D01*
X140900000Y-67100000D01*
X141900000Y-67100000D01*
X141900000Y-69100000D01*
G36*
X145000000Y-128500000D02*
G01*
X143000000Y-128500000D01*
X143000000Y-127500000D01*
X145000000Y-127500000D01*
X145000000Y-128500000D01*
G37*
X145000000Y-128500000D02*
X143000000Y-128500000D01*
X143000000Y-127500000D01*
X145000000Y-127500000D01*
X145000000Y-128500000D01*
G36*
X142000000Y-128500000D02*
G01*
X140000000Y-128500000D01*
X140000000Y-127500000D01*
X142000000Y-127500000D01*
X142000000Y-128500000D01*
G37*
X142000000Y-128500000D02*
X140000000Y-128500000D01*
X140000000Y-127500000D01*
X142000000Y-127500000D01*
X142000000Y-128500000D01*
D11*
%TO.C,C16*%
X149050000Y-79400000D03*
X149050000Y-81300000D03*
%TD*%
D12*
%TO.C,U5*%
X125400000Y-52000000D03*
X125400000Y-55200000D03*
X130300000Y-55200000D03*
X130300000Y-52000000D03*
%TD*%
D11*
%TO.C,C12*%
X133600000Y-52450000D03*
X133600000Y-54350000D03*
%TD*%
D12*
%TO.C,U1*%
X114650000Y-108400000D03*
X114650000Y-111600000D03*
X119550000Y-111600000D03*
X119550000Y-108400000D03*
%TD*%
D11*
%TO.C,C14*%
X122700000Y-108900000D03*
X122700000Y-110800000D03*
%TD*%
D12*
%TO.C,U4*%
X152250000Y-79350000D03*
X152250000Y-82550000D03*
X157150000Y-82550000D03*
X157150000Y-79350000D03*
%TD*%
M02*
