<?xml version="1.0" standalone="no"?>
 <!DOCTYPE svg PUBLIC "-//W3C//DTD SVG 1.1//EN" 
 "http://www.w3.org/Graphics/SVG/1.1/DTD/svg11.dtd"> 
<svg
  xmlns:svg="http://www.w3.org/2000/svg"
  xmlns="http://www.w3.org/2000/svg"
  xmlns:xlink="http://www.w3.org/1999/xlink"
  version="1.1"
  width="29.700220cm" height="21.000720cm" viewBox="0 0 297002200 210007200">
<title>SVG Picture created as Arbolito Tronco-Edge_Cuts.svg date 2022/12/06 19:30:46 </title>
  <desc>Picture generated by PCBNEW </desc>
<g style="fill:#000000; fill-opacity:1.000000;stroke:#000000; stroke-opacity:1.000000;
stroke-linecap:round; stroke-linejoin:round;"
 transform="translate(0 0) scale(1 1)">
</g>
<g style="fill:#000000; fill-opacity:0.0; 
stroke:#000000; stroke-width:0.000000; stroke-opacity:1; 
stroke-linecap:round; stroke-linejoin:round;">
</g>
<g style="fill:#000000; fill-opacity:0.0; 
stroke:#000000; stroke-width:100000.000000; stroke-opacity:1; 
stroke-linecap:round; stroke-linejoin:round;">
<path d="M147000004.968570 58999998.650819 A40482939.000000 40482939.000000 0.0 0 0 163500000.116033 81999999.827203" />
<path d="M148000002.264408 117999980.993031 A33439795.000000 33439795.000000 0.0 0 0 173699999.803914 110199999.770900" />
<path d="M119000004.457966 54000007.271400 A46109529.000000 46109529.000000 0.0 0 0 138600000.272877 29400000.091853" />
<path d="M115500000.090201 82000000.134328 A40482981.000000 40482981.000000 0.0 0 0 132000000.036956 59000000.010035" />
<path d="M105537921.011391 110210808.026268 A44793631.000000 44793631.000000 0.0 0 0 128850000.310165 86850000.133733" />
<path d="M140350000 29400000
L140400000 79400000
" />
<path d="M138600000 29400000
L138600000 79400000
" />
<path d="M105537918.251930 110210811.210739 A33339006.000000 33339006.000000 0.0 0 0 131237047.045011 117978087.370515" />
<path d="M150500001.124239 86800025.667611 A22718186.000000 22718186.000000 0.0 0 0 163500000.099789 82000000.127615" />
<path d="M146999994.906706 59000027.000492 A14022956.000000 14022956.000000 0.0 0 0 160200000.285925 54400000.247605" />
<path d="M148000003.496196 118000000.015570 A68822879.000000 68822879.000000 0.0 0 0 149000000.610507 130000000.067154" />
<path d="M130000000.304334 130000000.052471 A88675030.000000 88675030.000000 0.0 0 0 131237046.814027 117978086.993611" />
<path d="M130000000 130000000
L149000000 130000000
" />
<path d="M140349995.641709 29400001.450729 A46580580.000000 46580580.000000 0.0 0 0 160199999.955530 54400000.072536" />
<path d="M115499996.664710 82000004.358612 A23672272.000000 23672272.000000 0.0 0 0 128850000.000146 86849999.996666" />
<path d="M150499963.693737 86800015.654055 A45093915.000000 45093915.000000 0.0 0 0 173699999.974134 110200000.058603" />
<path d="M140400000 79400000
L138600000 79400000
" />
<path d="M119000010.242121 53999991.130526 A14799856.000000 14799856.000000 0.0 0 0 131999999.995701 58999999.965154" />
<g >
</g>
<g >
</g>
<g >
</g>
<g >
</g>
<g >
</g>
<g >
</g>
<g >
</g>
<g >
</g>
<g >
</g>
<g >
</g>
<g >
</g>
<g >
</g>
<g >
</g>
<g >
</g>
<g >
</g>
<g >
</g>
<g >
</g>
<g >
</g>
<g >
</g>
<g >
</g>
<g >
</g>
<g >
</g>
<g >
</g>
<g >
</g>
<g >
</g>
<g >
</g>
<g >
</g>
<g >
</g>
<g >
</g>
<g >
</g>
<g >
</g>
<g >
</g>
</g> 
</svg>
