<?xml version="1.0" standalone="no"?>
 <!DOCTYPE svg PUBLIC "-//W3C//DTD SVG 1.1//EN" 
 "http://www.w3.org/Graphics/SVG/1.1/DTD/svg11.dtd"> 
<svg
  xmlns:svg="http://www.w3.org/2000/svg"
  xmlns="http://www.w3.org/2000/svg"
  xmlns:xlink="http://www.w3.org/1999/xlink"
  version="1.1"
  width="29.700220cm" height="21.000720cm" viewBox="0 0 297002200 210007200">
<title>SVG Picture created as Arbolito Tronco-F_Mask.svg date 2022/12/06 19:30:46 </title>
  <desc>Picture generated by PCBNEW </desc>
<g style="fill:#000000; fill-opacity:1.000000;stroke:#000000; stroke-opacity:1.000000;
stroke-linecap:round; stroke-linejoin:round;"
 transform="translate(0 0) scale(1 1)">
</g>
<g style="fill:#000000; fill-opacity:0.0; 
stroke:#000000; stroke-width:0.000000; stroke-opacity:1; 
stroke-linecap:round; stroke-linejoin:round;">
</g>
<g style="fill:#000000; fill-opacity:0.0; 
stroke:#000000; stroke-width:150000.000000; stroke-opacity:1; 
stroke-linecap:round; stroke-linejoin:round;">
</g>
<g style="fill:#000000; fill-opacity:1.0; 
stroke:#000000; stroke-width:150000.000000; stroke-opacity:1; 
stroke-linecap:round; stroke-linejoin:round;">
<path style="fill:#000000; fill-opacity:1.0; 
stroke:#000000; stroke-width:150000.000000; stroke-opacity:1; 
stroke-linecap:round; stroke-linejoin:round;fill-rule:evenodd;"
d="M 148700000.000000,127100000.000000
129500000.000000,127100000.000000
131000000.000000,118400000.000000
148595401.000000,118308937.000000
Z" /> 
<path style="fill:#000000; fill-opacity:1.0; 
stroke:#000000; stroke-width:150000.000000; stroke-opacity:1; 
stroke-linecap:round; stroke-linejoin:round;fill-rule:evenodd;"
d="M 138100000.000000,66100000.000000
137100000.000000,66100000.000000
137100000.000000,64100000.000000
138100000.000000,64100000.000000
Z" /> 
<path style="fill:#000000; fill-opacity:1.0; 
stroke:#000000; stroke-width:150000.000000; stroke-opacity:1; 
stroke-linecap:round; stroke-linejoin:round;fill-rule:evenodd;"
d="M 133000000.000000,128500000.000000
131000000.000000,128500000.000000
131000000.000000,127500000.000000
133000000.000000,127500000.000000
Z" /> 
<path style="fill:#000000; fill-opacity:1.0; 
stroke:#000000; stroke-width:150000.000000; stroke-opacity:1; 
stroke-linecap:round; stroke-linejoin:round;fill-rule:evenodd;"
d="M 148000000.000000,128500000.000000
146000000.000000,128500000.000000
146000000.000000,127500000.000000
148000000.000000,127500000.000000
Z" /> 
<path style="fill:#000000; fill-opacity:1.0; 
stroke:#000000; stroke-width:150000.000000; stroke-opacity:1; 
stroke-linecap:round; stroke-linejoin:round;fill-rule:evenodd;"
d="M 138100000.000000,69100000.000000
137100000.000000,69100000.000000
137100000.000000,67100000.000000
138100000.000000,67100000.000000
Z" /> 
<path style="fill:#000000; fill-opacity:1.0; 
stroke:#000000; stroke-width:150000.000000; stroke-opacity:1; 
stroke-linecap:round; stroke-linejoin:round;fill-rule:evenodd;"
d="M 136000000.000000,128500000.000000
134000000.000000,128500000.000000
134000000.000000,127500000.000000
136000000.000000,127500000.000000
Z" /> 
<path style="fill:#000000; fill-opacity:1.0; 
stroke:#000000; stroke-width:150000.000000; stroke-opacity:1; 
stroke-linecap:round; stroke-linejoin:round;fill-rule:evenodd;"
d="M 139000000.000000,128500000.000000
137000000.000000,128500000.000000
137000000.000000,127500000.000000
139000000.000000,127500000.000000
Z" /> 
<path style="fill:#000000; fill-opacity:1.0; 
stroke:#000000; stroke-width:150000.000000; stroke-opacity:1; 
stroke-linecap:round; stroke-linejoin:round;fill-rule:evenodd;"
d="M 141900000.000000,63100000.000000
140900000.000000,63100000.000000
140900000.000000,61100000.000000
141900000.000000,61100000.000000
Z" /> 
<path style="fill:#000000; fill-opacity:1.0; 
stroke:#000000; stroke-width:150000.000000; stroke-opacity:1; 
stroke-linecap:round; stroke-linejoin:round;fill-rule:evenodd;"
d="M 138100000.000000,63100000.000000
137100000.000000,63100000.000000
137100000.000000,61100000.000000
138100000.000000,61100000.000000
Z" /> 
<path style="fill:#000000; fill-opacity:1.0; 
stroke:#000000; stroke-width:150000.000000; stroke-opacity:1; 
stroke-linecap:round; stroke-linejoin:round;fill-rule:evenodd;"
d="M 141900000.000000,66100000.000000
140900000.000000,66100000.000000
140900000.000000,64100000.000000
141900000.000000,64100000.000000
Z" /> 
<path style="fill:#000000; fill-opacity:1.0; 
stroke:#000000; stroke-width:150000.000000; stroke-opacity:1; 
stroke-linecap:round; stroke-linejoin:round;fill-rule:evenodd;"
d="M 141900000.000000,69100000.000000
140900000.000000,69100000.000000
140900000.000000,67100000.000000
141900000.000000,67100000.000000
Z" /> 
<path style="fill:#000000; fill-opacity:1.0; 
stroke:#000000; stroke-width:150000.000000; stroke-opacity:1; 
stroke-linecap:round; stroke-linejoin:round;fill-rule:evenodd;"
d="M 145000000.000000,128500000.000000
143000000.000000,128500000.000000
143000000.000000,127500000.000000
145000000.000000,127500000.000000
Z" /> 
<path style="fill:#000000; fill-opacity:1.0; 
stroke:#000000; stroke-width:150000.000000; stroke-opacity:1; 
stroke-linecap:round; stroke-linejoin:round;fill-rule:evenodd;"
d="M 142000000.000000,128500000.000000
140000000.000000,128500000.000000
140000000.000000,127500000.000000
142000000.000000,127500000.000000
Z" /> 
<g >
</g>
<g style="fill:#000000; fill-opacity:1.0; 
stroke:#000000; stroke-width:1.000000; stroke-opacity:1; 
stroke-linecap:round; stroke-linejoin:round;">
<path style="fill:#000000; fill-opacity:1.0; 
stroke:#000000; stroke-width:1.000000; stroke-opacity:1; 
stroke-linecap:round; stroke-linejoin:round;fill-rule:evenodd;"
d="M 149525000.000000,78900000.000000
149620671.000000,78919030.000000
149701777.000000,78973223.000000
149755970.000000,79054329.000000
149775000.000000,79150000.000000
149775000.000000,79650000.000000
149755970.000000,79745671.000000
149701777.000000,79826777.000000
149620671.000000,79880970.000000
149525000.000000,79900000.000000
148575000.000000,79900000.000000
148479329.000000,79880970.000000
148398223.000000,79826777.000000
148344030.000000,79745671.000000
148325000.000000,79650000.000000
148325000.000000,79150000.000000
148344030.000000,79054329.000000
148398223.000000,78973223.000000
148479329.000000,78919030.000000
148575000.000000,78900000.000000
Z" /> 
<path style="fill:#000000; fill-opacity:1.0; 
stroke:#000000; stroke-width:1.000000; stroke-opacity:1; 
stroke-linecap:round; stroke-linejoin:round;fill-rule:evenodd;"
d="M 149525000.000000,80800000.000000
149620671.000000,80819030.000000
149701777.000000,80873223.000000
149755970.000000,80954329.000000
149775000.000000,81050000.000000
149775000.000000,81550000.000000
149755970.000000,81645671.000000
149701777.000000,81726777.000000
149620671.000000,81780970.000000
149525000.000000,81800000.000000
148575000.000000,81800000.000000
148479329.000000,81780970.000000
148398223.000000,81726777.000000
148344030.000000,81645671.000000
148325000.000000,81550000.000000
148325000.000000,81050000.000000
148344030.000000,80954329.000000
148398223.000000,80873223.000000
148479329.000000,80819030.000000
148575000.000000,80800000.000000
Z" /> 
</g>
<g >
</g>
<g >
</g>
<g style="fill:#000000; fill-opacity:1.0; 
stroke:#000000; stroke-width:1.000000; stroke-opacity:1; 
stroke-linecap:round; stroke-linejoin:round;">
<path style="fill:#000000; fill-opacity:1.0; 
stroke:#000000; stroke-width:1.000000; stroke-opacity:1; 
stroke-linecap:round; stroke-linejoin:round;fill-rule:evenodd;"
d="M 124650000.000000,52500000.000000
124650000.000000,51500000.000000
126150000.000000,51500000.000000
126150000.000000,52500000.000000
Z" /> 
<path style="fill:#000000; fill-opacity:1.0; 
stroke:#000000; stroke-width:1.000000; stroke-opacity:1; 
stroke-linecap:round; stroke-linejoin:round;fill-rule:evenodd;"
d="M 124650000.000000,55700000.000000
124650000.000000,54700000.000000
126150000.000000,54700000.000000
126150000.000000,55700000.000000
Z" /> 
<path style="fill:#000000; fill-opacity:1.0; 
stroke:#000000; stroke-width:1.000000; stroke-opacity:1; 
stroke-linecap:round; stroke-linejoin:round;fill-rule:evenodd;"
d="M 129550000.000000,55700000.000000
129550000.000000,54700000.000000
131050000.000000,54700000.000000
131050000.000000,55700000.000000
Z" /> 
<path style="fill:#000000; fill-opacity:1.0; 
stroke:#000000; stroke-width:1.000000; stroke-opacity:1; 
stroke-linecap:round; stroke-linejoin:round;fill-rule:evenodd;"
d="M 129550000.000000,52500000.000000
129550000.000000,51500000.000000
131050000.000000,51500000.000000
131050000.000000,52500000.000000
Z" /> 
</g>
<g >
</g>
<g style="fill:#000000; fill-opacity:1.0; 
stroke:#000000; stroke-width:1.000000; stroke-opacity:1; 
stroke-linecap:round; stroke-linejoin:round;">
<path style="fill:#000000; fill-opacity:1.0; 
stroke:#000000; stroke-width:1.000000; stroke-opacity:1; 
stroke-linecap:round; stroke-linejoin:round;fill-rule:evenodd;"
d="M 134075000.000000,51950000.000000
134170671.000000,51969030.000000
134251777.000000,52023223.000000
134305970.000000,52104329.000000
134325000.000000,52200000.000000
134325000.000000,52700000.000000
134305970.000000,52795671.000000
134251777.000000,52876777.000000
134170671.000000,52930970.000000
134075000.000000,52950000.000000
133125000.000000,52950000.000000
133029329.000000,52930970.000000
132948223.000000,52876777.000000
132894030.000000,52795671.000000
132875000.000000,52700000.000000
132875000.000000,52200000.000000
132894030.000000,52104329.000000
132948223.000000,52023223.000000
133029329.000000,51969030.000000
133125000.000000,51950000.000000
Z" /> 
<path style="fill:#000000; fill-opacity:1.0; 
stroke:#000000; stroke-width:1.000000; stroke-opacity:1; 
stroke-linecap:round; stroke-linejoin:round;fill-rule:evenodd;"
d="M 134075000.000000,53850000.000000
134170671.000000,53869030.000000
134251777.000000,53923223.000000
134305970.000000,54004329.000000
134325000.000000,54100000.000000
134325000.000000,54600000.000000
134305970.000000,54695671.000000
134251777.000000,54776777.000000
134170671.000000,54830970.000000
134075000.000000,54850000.000000
133125000.000000,54850000.000000
133029329.000000,54830970.000000
132948223.000000,54776777.000000
132894030.000000,54695671.000000
132875000.000000,54600000.000000
132875000.000000,54100000.000000
132894030.000000,54004329.000000
132948223.000000,53923223.000000
133029329.000000,53869030.000000
133125000.000000,53850000.000000
Z" /> 
</g>
<g >
</g>
<g style="fill:#000000; fill-opacity:1.0; 
stroke:#000000; stroke-width:1.000000; stroke-opacity:1; 
stroke-linecap:round; stroke-linejoin:round;">
<path style="fill:#000000; fill-opacity:1.0; 
stroke:#000000; stroke-width:1.000000; stroke-opacity:1; 
stroke-linecap:round; stroke-linejoin:round;fill-rule:evenodd;"
d="M 113900000.000000,108900000.000000
113900000.000000,107900000.000000
115400000.000000,107900000.000000
115400000.000000,108900000.000000
Z" /> 
<path style="fill:#000000; fill-opacity:1.0; 
stroke:#000000; stroke-width:1.000000; stroke-opacity:1; 
stroke-linecap:round; stroke-linejoin:round;fill-rule:evenodd;"
d="M 113900000.000000,112100000.000000
113900000.000000,111100000.000000
115400000.000000,111100000.000000
115400000.000000,112100000.000000
Z" /> 
<path style="fill:#000000; fill-opacity:1.0; 
stroke:#000000; stroke-width:1.000000; stroke-opacity:1; 
stroke-linecap:round; stroke-linejoin:round;fill-rule:evenodd;"
d="M 118800000.000000,112100000.000000
118800000.000000,111100000.000000
120300000.000000,111100000.000000
120300000.000000,112100000.000000
Z" /> 
<path style="fill:#000000; fill-opacity:1.0; 
stroke:#000000; stroke-width:1.000000; stroke-opacity:1; 
stroke-linecap:round; stroke-linejoin:round;fill-rule:evenodd;"
d="M 118800000.000000,108900000.000000
118800000.000000,107900000.000000
120300000.000000,107900000.000000
120300000.000000,108900000.000000
Z" /> 
</g>
<g >
</g>
<g >
</g>
<g >
</g>
<g style="fill:#000000; fill-opacity:1.0; 
stroke:#000000; stroke-width:1.000000; stroke-opacity:1; 
stroke-linecap:round; stroke-linejoin:round;">
<path style="fill:#000000; fill-opacity:1.0; 
stroke:#000000; stroke-width:1.000000; stroke-opacity:1; 
stroke-linecap:round; stroke-linejoin:round;fill-rule:evenodd;"
d="M 123175000.000000,108400000.000000
123270671.000000,108419030.000000
123351777.000000,108473223.000000
123405970.000000,108554329.000000
123425000.000000,108650000.000000
123425000.000000,109150000.000000
123405970.000000,109245671.000000
123351777.000000,109326777.000000
123270671.000000,109380970.000000
123175000.000000,109400000.000000
122225000.000000,109400000.000000
122129329.000000,109380970.000000
122048223.000000,109326777.000000
121994030.000000,109245671.000000
121975000.000000,109150000.000000
121975000.000000,108650000.000000
121994030.000000,108554329.000000
122048223.000000,108473223.000000
122129329.000000,108419030.000000
122225000.000000,108400000.000000
Z" /> 
<path style="fill:#000000; fill-opacity:1.0; 
stroke:#000000; stroke-width:1.000000; stroke-opacity:1; 
stroke-linecap:round; stroke-linejoin:round;fill-rule:evenodd;"
d="M 123175000.000000,110300000.000000
123270671.000000,110319030.000000
123351777.000000,110373223.000000
123405970.000000,110454329.000000
123425000.000000,110550000.000000
123425000.000000,111050000.000000
123405970.000000,111145671.000000
123351777.000000,111226777.000000
123270671.000000,111280970.000000
123175000.000000,111300000.000000
122225000.000000,111300000.000000
122129329.000000,111280970.000000
122048223.000000,111226777.000000
121994030.000000,111145671.000000
121975000.000000,111050000.000000
121975000.000000,110550000.000000
121994030.000000,110454329.000000
122048223.000000,110373223.000000
122129329.000000,110319030.000000
122225000.000000,110300000.000000
Z" /> 
</g>
<g >
</g>
<g >
</g>
<g style="fill:#000000; fill-opacity:1.0; 
stroke:#000000; stroke-width:1.000000; stroke-opacity:1; 
stroke-linecap:round; stroke-linejoin:round;">
<path style="fill:#000000; fill-opacity:1.0; 
stroke:#000000; stroke-width:1.000000; stroke-opacity:1; 
stroke-linecap:round; stroke-linejoin:round;fill-rule:evenodd;"
d="M 151500000.000000,79850000.000000
151500000.000000,78850000.000000
153000000.000000,78850000.000000
153000000.000000,79850000.000000
Z" /> 
<path style="fill:#000000; fill-opacity:1.0; 
stroke:#000000; stroke-width:1.000000; stroke-opacity:1; 
stroke-linecap:round; stroke-linejoin:round;fill-rule:evenodd;"
d="M 151500000.000000,83050000.000000
151500000.000000,82050000.000000
153000000.000000,82050000.000000
153000000.000000,83050000.000000
Z" /> 
<path style="fill:#000000; fill-opacity:1.0; 
stroke:#000000; stroke-width:1.000000; stroke-opacity:1; 
stroke-linecap:round; stroke-linejoin:round;fill-rule:evenodd;"
d="M 156400000.000000,83050000.000000
156400000.000000,82050000.000000
157900000.000000,82050000.000000
157900000.000000,83050000.000000
Z" /> 
<path style="fill:#000000; fill-opacity:1.0; 
stroke:#000000; stroke-width:1.000000; stroke-opacity:1; 
stroke-linecap:round; stroke-linejoin:round;fill-rule:evenodd;"
d="M 156400000.000000,79850000.000000
156400000.000000,78850000.000000
157900000.000000,78850000.000000
157900000.000000,79850000.000000
Z" /> 
</g>
<g >
</g>
<g >
</g>
<g >
</g>
<g >
</g>
<g >
</g>
<g >
</g>
<g >
</g>
<g >
</g>
<g >
</g>
<g >
</g>
<g >
</g>
<g >
</g>
<g >
</g>
<g >
</g>
<g >
</g>
<g >
</g>
<g >
</g>
<g >
</g>
<g >
</g>
<g >
</g>
<g >
</g>
<g >
</g>
</g> 
</svg>
