%TF.GenerationSoftware,KiCad,Pcbnew,(6.0.7)*%
%TF.CreationDate,2022-11-21T20:09:17+01:00*%
%TF.ProjectId,Arbolito Tronco,4172626f-6c69-4746-9f20-54726f6e636f,rev?*%
%TF.SameCoordinates,Original*%
%TF.FileFunction,Legend,Top*%
%TF.FilePolarity,Positive*%
%FSLAX46Y46*%
G04 Gerber Fmt 4.6, Leading zero omitted, Abs format (unit mm)*
G04 Created by KiCad (PCBNEW (6.0.7)) date 2022-11-21 20:09:17*
%MOMM*%
%LPD*%
G01*
G04 APERTURE LIST*
%ADD10C,1.000000*%
%ADD11C,3.000000*%
%ADD12C,0.150000*%
%ADD13C,0.120000*%
G04 APERTURE END LIST*
D10*
X116375643Y-81500000D02*
G75*
G03*
X132600000Y-58500000I-21123943J32123360D01*
G01*
X119600000Y-54200001D02*
G75*
G03*
X139100000Y-29500000I-26042380J40607141D01*
G01*
D11*
X134600000Y-45175000D02*
G75*
G03*
X134600000Y-45175000I-700000J0D01*
G01*
X128325000Y-96025000D02*
G75*
G03*
X128325000Y-96025000I-700000J0D01*
G01*
D10*
X146399998Y-58500001D02*
G75*
G03*
X162800000Y-82100000I39200352J9742621D01*
G01*
X149899999Y-86399984D02*
G75*
G03*
X163100000Y-81700000I-1046799J23826184D01*
G01*
D11*
X131950000Y-69250000D02*
G75*
G03*
X131950000Y-69250000I-700000J0D01*
G01*
D10*
X119300010Y-53599991D02*
G75*
G03*
X132300000Y-58500000I11024590J9553991D01*
G01*
D11*
X155075000Y-99925000D02*
G75*
G03*
X155075000Y-99925000I-700000J0D01*
G01*
D10*
X140084710Y-29845489D02*
G75*
G03*
X159934711Y-54845489I44175440J14694849D01*
G01*
X106100870Y-110000005D02*
G75*
G03*
X132100000Y-117300000I20868830J24376605D01*
G01*
X146599998Y-58500010D02*
G75*
G03*
X160000000Y-54000000I2795402J13877010D01*
G01*
X147500000Y-117400001D02*
G75*
G03*
X173253169Y-110111326I4695550J32550491D01*
G01*
D11*
X150250692Y-72775000D02*
G75*
G03*
X150250692Y-72775000I-700000J0D01*
G01*
X148975000Y-49500000D02*
G75*
G03*
X148975000Y-49500000I-700000J0D01*
G01*
D10*
X115900001Y-81699998D02*
G75*
G03*
X129347160Y-86400601I14531899J19987198D01*
G01*
X149900013Y-86599995D02*
G75*
G03*
X173100000Y-110300000I41204787J17130195D01*
G01*
X106299998Y-110399996D02*
G75*
G03*
X129600000Y-86400000I-18229568J41008086D01*
G01*
D12*
%TO.C,U5*%
X127088095Y-49552380D02*
X127088095Y-50361904D01*
X127135714Y-50457142D01*
X127183333Y-50504761D01*
X127278571Y-50552380D01*
X127469047Y-50552380D01*
X127564285Y-50504761D01*
X127611904Y-50457142D01*
X127659523Y-50361904D01*
X127659523Y-49552380D01*
X128611904Y-49552380D02*
X128135714Y-49552380D01*
X128088095Y-50028571D01*
X128135714Y-49980952D01*
X128230952Y-49933333D01*
X128469047Y-49933333D01*
X128564285Y-49980952D01*
X128611904Y-50028571D01*
X128659523Y-50123809D01*
X128659523Y-50361904D01*
X128611904Y-50457142D01*
X128564285Y-50504761D01*
X128469047Y-50552380D01*
X128230952Y-50552380D01*
X128135714Y-50504761D01*
X128088095Y-50457142D01*
X125710714Y-53577380D02*
X125139285Y-53577380D01*
X125425000Y-53577380D02*
X125425000Y-52577380D01*
X125329761Y-52720238D01*
X125234523Y-52815476D01*
X125139285Y-52863095D01*
%TO.C,U1*%
X116338095Y-105952380D02*
X116338095Y-106761904D01*
X116385714Y-106857142D01*
X116433333Y-106904761D01*
X116528571Y-106952380D01*
X116719047Y-106952380D01*
X116814285Y-106904761D01*
X116861904Y-106857142D01*
X116909523Y-106761904D01*
X116909523Y-105952380D01*
X117909523Y-106952380D02*
X117338095Y-106952380D01*
X117623809Y-106952380D02*
X117623809Y-105952380D01*
X117528571Y-106095238D01*
X117433333Y-106190476D01*
X117338095Y-106238095D01*
X114310714Y-110102380D02*
X113739285Y-110102380D01*
X114025000Y-110102380D02*
X114025000Y-109102380D01*
X113929761Y-109245238D01*
X113834523Y-109340476D01*
X113739285Y-109388095D01*
%TO.C,U4*%
X153938095Y-76902380D02*
X153938095Y-77711904D01*
X153985714Y-77807142D01*
X154033333Y-77854761D01*
X154128571Y-77902380D01*
X154319047Y-77902380D01*
X154414285Y-77854761D01*
X154461904Y-77807142D01*
X154509523Y-77711904D01*
X154509523Y-76902380D01*
X155414285Y-77235714D02*
X155414285Y-77902380D01*
X155176190Y-76854761D02*
X154938095Y-77569047D01*
X155557142Y-77569047D01*
X153610714Y-80877380D02*
X153039285Y-80877380D01*
X153325000Y-80877380D02*
X153325000Y-79877380D01*
X153229761Y-80020238D01*
X153134523Y-80115476D01*
X153039285Y-80163095D01*
D13*
%TO.C,C16*%
X149785000Y-80088748D02*
X149785000Y-80611252D01*
X148315000Y-80088748D02*
X148315000Y-80611252D01*
%TO.C,G\u002A\u002A\u002A*%
G36*
X127363215Y-97224422D02*
G01*
X127243118Y-97223196D01*
X127121074Y-97217296D01*
X127015497Y-97207801D01*
X126971170Y-97201446D01*
X126879250Y-97182723D01*
X127782384Y-97182723D01*
X127813665Y-97360128D01*
X128035421Y-97321026D01*
X128004140Y-97143621D01*
X127782384Y-97182723D01*
X126879250Y-97182723D01*
X126843171Y-97175374D01*
X126754379Y-97145573D01*
X126702872Y-97106650D01*
X126686728Y-97053216D01*
X126687455Y-97050135D01*
X126694732Y-97019283D01*
X126862424Y-97019283D01*
X127025614Y-97041709D01*
X127187007Y-97058208D01*
X127346849Y-97061695D01*
X127515880Y-97051493D01*
X127704843Y-97026924D01*
X127924478Y-96987308D01*
X127941675Y-96983874D01*
X128103034Y-96949258D01*
X128250090Y-96913465D01*
X128372982Y-96879071D01*
X128461851Y-96848652D01*
X128466275Y-96846849D01*
X128568517Y-96801766D01*
X128659826Y-96756348D01*
X128732147Y-96715120D01*
X128777428Y-96682611D01*
X128788726Y-96665601D01*
X128770877Y-96647247D01*
X128723406Y-96606653D01*
X128652498Y-96548897D01*
X128564336Y-96479055D01*
X128509986Y-96436753D01*
X128415925Y-96362747D01*
X128336836Y-96298138D01*
X128278579Y-96247906D01*
X128247007Y-96217030D01*
X128243208Y-96209984D01*
X128266650Y-96194384D01*
X128319911Y-96165482D01*
X128392067Y-96129172D01*
X128401797Y-96124442D01*
X128474710Y-96086388D01*
X128528868Y-96052921D01*
X128553794Y-96030605D01*
X128554335Y-96028903D01*
X128538500Y-96007859D01*
X128492703Y-95964998D01*
X128422993Y-95905556D01*
X128335415Y-95834765D01*
X128280198Y-95791635D01*
X128184835Y-95717291D01*
X128103268Y-95652279D01*
X128041671Y-95601634D01*
X128006220Y-95570391D01*
X128000081Y-95563209D01*
X128017239Y-95546943D01*
X128064202Y-95520884D01*
X128103505Y-95502679D01*
X128162981Y-95474070D01*
X128200105Y-95450868D01*
X128206646Y-95442198D01*
X128188573Y-95424316D01*
X128140725Y-95384412D01*
X128069344Y-95327500D01*
X127980671Y-95258594D01*
X127926945Y-95217515D01*
X127831290Y-95143698D01*
X127749487Y-95078505D01*
X127687817Y-95027105D01*
X127652557Y-94994665D01*
X127646705Y-94986832D01*
X127663186Y-94968194D01*
X127703828Y-94954187D01*
X127766456Y-94938873D01*
X127799466Y-94920882D01*
X127801272Y-94895349D01*
X127770289Y-94857409D01*
X127704933Y-94802198D01*
X127637384Y-94750292D01*
X127441223Y-94601960D01*
X127307249Y-94808503D01*
X127246072Y-94905507D01*
X127211215Y-94970930D01*
X127202880Y-95009881D01*
X127221268Y-95027471D01*
X127266585Y-95028809D01*
X127315754Y-95022615D01*
X127361283Y-95021795D01*
X127380297Y-95032052D01*
X127369905Y-95056529D01*
X127339085Y-95111813D01*
X127291939Y-95190944D01*
X127232568Y-95286960D01*
X127196069Y-95344633D01*
X127131671Y-95446655D01*
X127077056Y-95535218D01*
X127036347Y-95603471D01*
X127013671Y-95644562D01*
X127010382Y-95653131D01*
X127031771Y-95662592D01*
X127084592Y-95671047D01*
X127127777Y-95674726D01*
X127193516Y-95681260D01*
X127236462Y-95690346D01*
X127245664Y-95696233D01*
X127235018Y-95719267D01*
X127204126Y-95773356D01*
X127157068Y-95851656D01*
X127097924Y-95947324D01*
X127060568Y-96006688D01*
X126996900Y-96109564D01*
X126943938Y-96199621D01*
X126905571Y-96269871D01*
X126885693Y-96313330D01*
X126884113Y-96323408D01*
X126910301Y-96335520D01*
X126969442Y-96348518D01*
X127049584Y-96359870D01*
X127063395Y-96361348D01*
X127144673Y-96371822D01*
X127205783Y-96383784D01*
X127235341Y-96394915D01*
X127236414Y-96396575D01*
X127226742Y-96421464D01*
X127196937Y-96475964D01*
X127151611Y-96552061D01*
X127095377Y-96641738D01*
X127094786Y-96642659D01*
X127032852Y-96739797D01*
X126975816Y-96830335D01*
X126930449Y-96903457D01*
X126905443Y-96945007D01*
X126862424Y-97019283D01*
X126694732Y-97019283D01*
X126704028Y-96979875D01*
X126752847Y-96881237D01*
X126818309Y-96772490D01*
X126873488Y-96682919D01*
X126918145Y-96607500D01*
X126947704Y-96554173D01*
X126957591Y-96530886D01*
X126935823Y-96517855D01*
X126883083Y-96498405D01*
X126828924Y-96481970D01*
X126754570Y-96457729D01*
X126712563Y-96432350D01*
X126690818Y-96397346D01*
X126685811Y-96381446D01*
X126681581Y-96348457D01*
X126689112Y-96309879D01*
X126711826Y-96258039D01*
X126753143Y-96185267D01*
X126816485Y-96083892D01*
X126823219Y-96073360D01*
X126886604Y-95973361D01*
X126927881Y-95904364D01*
X126949754Y-95859784D01*
X126954924Y-95833038D01*
X126946095Y-95817542D01*
X126931651Y-95809220D01*
X126864410Y-95774887D01*
X126828854Y-95744958D01*
X126813893Y-95709749D01*
X126813135Y-95705750D01*
X126821646Y-95670488D01*
X126850535Y-95606569D01*
X126895336Y-95522903D01*
X126951582Y-95428394D01*
X126954866Y-95423143D01*
X127104380Y-95184678D01*
X127043366Y-95147007D01*
X126998449Y-95110075D01*
X126976158Y-95074205D01*
X126985739Y-95040765D01*
X127018278Y-94974669D01*
X127071204Y-94880366D01*
X127141949Y-94762298D01*
X127227940Y-94624913D01*
X127304741Y-94505983D01*
X127349165Y-94452234D01*
X127394755Y-94418079D01*
X127408402Y-94413394D01*
X127428875Y-94411783D01*
X127451868Y-94416618D01*
X127482573Y-94431317D01*
X127526185Y-94459301D01*
X127587898Y-94503991D01*
X127672907Y-94568804D01*
X127786405Y-94657162D01*
X127827481Y-94689316D01*
X127927696Y-94770870D01*
X127993247Y-94833627D01*
X128027212Y-94883359D01*
X128032667Y-94925843D01*
X128012690Y-94966854D01*
X127989531Y-94993407D01*
X127976844Y-95010571D01*
X127977342Y-95029327D01*
X127995817Y-95055069D01*
X128037057Y-95093194D01*
X128105852Y-95149098D01*
X128177653Y-95205348D01*
X128263834Y-95275317D01*
X128335965Y-95339269D01*
X128386855Y-95390440D01*
X128409310Y-95422066D01*
X128409652Y-95423486D01*
X128400390Y-95467385D01*
X128367802Y-95521219D01*
X128357840Y-95533052D01*
X128298373Y-95599206D01*
X128526681Y-95773602D01*
X128623685Y-95849081D01*
X128689701Y-95904703D01*
X128730574Y-95946522D01*
X128752153Y-95980588D01*
X128760286Y-96012954D01*
X128760528Y-96015618D01*
X128757825Y-96059501D01*
X128735715Y-96097077D01*
X128685746Y-96140458D01*
X128660427Y-96159027D01*
X128603747Y-96202975D01*
X128566340Y-96238307D01*
X128557090Y-96253763D01*
X128575007Y-96273976D01*
X128622009Y-96314784D01*
X128690855Y-96370166D01*
X128770233Y-96431044D01*
X128883992Y-96520817D01*
X128958662Y-96593632D01*
X128994183Y-96655011D01*
X128990492Y-96710470D01*
X128947526Y-96765529D01*
X128865222Y-96825708D01*
X128765130Y-96884537D01*
X128678828Y-96927962D01*
X128568200Y-96976996D01*
X128451834Y-97023583D01*
X128402991Y-97041449D01*
X128182744Y-97119138D01*
X128240197Y-97444974D01*
X128143179Y-97462081D01*
X128065900Y-97477570D01*
X127996306Y-97494454D01*
X127983750Y-97498058D01*
X127925864Y-97511123D01*
X127845140Y-97524154D01*
X127792291Y-97530677D01*
X127663241Y-97544426D01*
X127636260Y-97391409D01*
X127606258Y-97221259D01*
X127363215Y-97224422D01*
G37*
G36*
X125433108Y-95889997D02*
G01*
X125470248Y-95605489D01*
X125543340Y-95326179D01*
X125652480Y-95055783D01*
X125797768Y-94798016D01*
X125979300Y-94556596D01*
X126197173Y-94335239D01*
X126321960Y-94231545D01*
X126505257Y-94089360D01*
X126497204Y-94043689D01*
X126471901Y-93900186D01*
X126453997Y-93767098D01*
X126453985Y-93726903D01*
X126632420Y-93726903D01*
X126636567Y-93790071D01*
X126647442Y-93858341D01*
X126674609Y-94012408D01*
X126770243Y-93964206D01*
X126834766Y-93936602D01*
X126927321Y-93903122D01*
X127032353Y-93869233D01*
X127082801Y-93854378D01*
X127257670Y-93813383D01*
X127444237Y-93784648D01*
X127629327Y-93769237D01*
X127799768Y-93768217D01*
X127942389Y-93782653D01*
X127950540Y-93784182D01*
X127967788Y-93779617D01*
X127972995Y-93751475D01*
X127966656Y-93691745D01*
X127959060Y-93646094D01*
X127942781Y-93565705D01*
X127925792Y-93500444D01*
X127913369Y-93467808D01*
X127866190Y-93429528D01*
X127782319Y-93403306D01*
X127668495Y-93389301D01*
X127531463Y-93387670D01*
X127377963Y-93398575D01*
X127214737Y-93422174D01*
X127089621Y-93448388D01*
X126938905Y-93487949D01*
X126826219Y-93526497D01*
X126744752Y-93567133D01*
X126687687Y-93612959D01*
X126663608Y-93642391D01*
X126641077Y-93682435D01*
X126632420Y-93726903D01*
X126453985Y-93726903D01*
X126453967Y-93668980D01*
X126461625Y-93627133D01*
X126502477Y-93543544D01*
X126571541Y-93462413D01*
X126654138Y-93399938D01*
X126678751Y-93387525D01*
X126709937Y-93368193D01*
X126722457Y-93337832D01*
X126721365Y-93311253D01*
X126720186Y-93282541D01*
X126716324Y-93252639D01*
X126716701Y-93212025D01*
X126895097Y-93212025D01*
X126899836Y-93279784D01*
X127190075Y-93240040D01*
X127299272Y-93223639D01*
X127391370Y-93207068D01*
X127457659Y-93192096D01*
X127489431Y-93180491D01*
X127490772Y-93178981D01*
X127489785Y-93145668D01*
X127473642Y-93092024D01*
X127470294Y-93083743D01*
X127410318Y-92992701D01*
X127325526Y-92931986D01*
X127226278Y-92904001D01*
X127122938Y-92911152D01*
X127025867Y-92955842D01*
X127001678Y-92975007D01*
X126926802Y-93065851D01*
X126895441Y-93168074D01*
X126895097Y-93212025D01*
X126716701Y-93212025D01*
X126717583Y-93116886D01*
X126756269Y-92995027D01*
X126825906Y-92890925D01*
X126920019Y-92808446D01*
X127032131Y-92751451D01*
X127155765Y-92723805D01*
X127284445Y-92729373D01*
X127411695Y-92772016D01*
X127467242Y-92804654D01*
X127536763Y-92866088D01*
X127600784Y-92947197D01*
X127651084Y-93034637D01*
X127679441Y-93115065D01*
X127682531Y-93154062D01*
X127689556Y-93182400D01*
X127722762Y-93200839D01*
X127788159Y-93214311D01*
X127878591Y-93232287D01*
X127944545Y-93258791D01*
X128006564Y-93303325D01*
X128035069Y-93328496D01*
X128064920Y-93360199D01*
X128086852Y-93398487D01*
X128104826Y-93454151D01*
X128122804Y-93537982D01*
X128133583Y-93596938D01*
X128171443Y-93810114D01*
X128378856Y-93875499D01*
X128669298Y-93989858D01*
X128936720Y-94140668D01*
X129178683Y-94324321D01*
X129392752Y-94537213D01*
X129576487Y-94775735D01*
X129727451Y-95036284D01*
X129843206Y-95315251D01*
X129921315Y-95609030D01*
X129959340Y-95914016D01*
X129956249Y-96209096D01*
X129910642Y-96518375D01*
X129823561Y-96816133D01*
X129697686Y-97098190D01*
X129535699Y-97360372D01*
X129340278Y-97598498D01*
X129114104Y-97808392D01*
X128859859Y-97985877D01*
X128790930Y-98025407D01*
X128564264Y-98131860D01*
X128316361Y-98216540D01*
X128061194Y-98275890D01*
X127812734Y-98306353D01*
X127675227Y-98309343D01*
X127361355Y-98283610D01*
X127066565Y-98219205D01*
X126784903Y-98114224D01*
X126510417Y-97966761D01*
X126418529Y-97907190D01*
X126171571Y-97714895D01*
X125959785Y-97498066D01*
X125783265Y-97260419D01*
X125642113Y-97005672D01*
X125536422Y-96737540D01*
X125466293Y-96459739D01*
X125452556Y-96346650D01*
X125431823Y-96175986D01*
X125432145Y-96104319D01*
X125609844Y-96104319D01*
X125630439Y-96315285D01*
X125669502Y-96527737D01*
X125724214Y-96725743D01*
X125780401Y-96869688D01*
X125898610Y-97097137D01*
X126030994Y-97295485D01*
X126132005Y-97419217D01*
X126343922Y-97627494D01*
X126581071Y-97801091D01*
X126838692Y-97938787D01*
X127112020Y-98039367D01*
X127396293Y-98101612D01*
X127686748Y-98124306D01*
X127978622Y-98106229D01*
X128267153Y-98046166D01*
X128406783Y-98000705D01*
X128679817Y-97877991D01*
X128926266Y-97722027D01*
X129144618Y-97536676D01*
X129333363Y-97325798D01*
X129490989Y-97093256D01*
X129615986Y-96842911D01*
X129706841Y-96578627D01*
X129762044Y-96304262D01*
X129780084Y-96023680D01*
X129759447Y-95740743D01*
X129698626Y-95459312D01*
X129596107Y-95183249D01*
X129547969Y-95084514D01*
X129421403Y-94868503D01*
X129279853Y-94682235D01*
X129144943Y-94541280D01*
X128938986Y-94370168D01*
X128706749Y-94220854D01*
X128460685Y-94100270D01*
X128213248Y-94015342D01*
X128188063Y-94008867D01*
X127919022Y-93963886D01*
X127637713Y-93957149D01*
X127352929Y-93987094D01*
X127073466Y-94052159D01*
X126808119Y-94150783D01*
X126565686Y-94281405D01*
X126533339Y-94302650D01*
X126356966Y-94440505D01*
X126183549Y-94611177D01*
X126022942Y-94802978D01*
X125885002Y-95004221D01*
X125786034Y-95188870D01*
X125727134Y-95342152D01*
X125675566Y-95522087D01*
X125635777Y-95710387D01*
X125612213Y-95888760D01*
X125610539Y-95910771D01*
X125609844Y-96104319D01*
X125432145Y-96104319D01*
X125433108Y-95889997D01*
G37*
%TO.C,U5*%
X124200000Y-50850000D02*
X131500000Y-50850000D01*
X131500000Y-56350000D02*
X131500000Y-55200000D01*
X124200000Y-56350000D02*
X131500000Y-56350000D01*
%TO.C,C12*%
X132865000Y-53138748D02*
X132865000Y-53661252D01*
X134335000Y-53138748D02*
X134335000Y-53661252D01*
%TO.C,U1*%
X113450000Y-112750000D02*
X120750000Y-112750000D01*
X113450000Y-107250000D02*
X120750000Y-107250000D01*
X120750000Y-112750000D02*
X120750000Y-111600000D01*
%TO.C,G\u002A\u002A\u002A*%
G36*
X148754779Y-105495494D02*
G01*
X148818479Y-105539503D01*
X148846801Y-105575343D01*
X148855662Y-105591654D01*
X148862728Y-105610802D01*
X148868207Y-105636468D01*
X148872309Y-105672334D01*
X148875243Y-105722083D01*
X148877219Y-105789397D01*
X148878446Y-105877957D01*
X148879134Y-105991447D01*
X148879491Y-106133547D01*
X148879518Y-106150708D01*
X148880330Y-106673745D01*
X148965390Y-106580081D01*
X149004163Y-106536295D01*
X149058388Y-106473561D01*
X149122711Y-106398149D01*
X149191779Y-106316326D01*
X149246589Y-106250782D01*
X149318871Y-106166133D01*
X149385611Y-106092115D01*
X149442829Y-106032907D01*
X149486548Y-105992685D01*
X149505611Y-105978833D01*
X149580483Y-105951691D01*
X149654106Y-105952788D01*
X149721712Y-105977863D01*
X149778533Y-106022655D01*
X149819801Y-106082902D01*
X149840748Y-106154344D01*
X149836607Y-106232719D01*
X149826609Y-106265714D01*
X149810659Y-106292636D01*
X149777252Y-106338968D01*
X149730406Y-106399468D01*
X149674137Y-106468900D01*
X149634556Y-106516169D01*
X149568045Y-106594681D01*
X149501797Y-106673063D01*
X149441821Y-106744195D01*
X149394126Y-106800954D01*
X149377377Y-106820981D01*
X149331200Y-106876004D01*
X149287017Y-106928096D01*
X149254006Y-106966440D01*
X149252680Y-106967954D01*
X149227058Y-106997594D01*
X149185246Y-107046436D01*
X149132159Y-107108719D01*
X149072714Y-107178681D01*
X149044254Y-107212250D01*
X148878829Y-107407511D01*
X148878829Y-108742216D01*
X148931950Y-108715057D01*
X148958839Y-108700356D01*
X149011426Y-108670721D01*
X149087136Y-108627630D01*
X149183397Y-108572560D01*
X149297634Y-108506991D01*
X149427273Y-108432401D01*
X149569742Y-108350268D01*
X149722466Y-108262070D01*
X149882873Y-108169286D01*
X149982111Y-108111811D01*
X150012065Y-108092499D01*
X150034977Y-108070432D01*
X150054984Y-108038821D01*
X150076224Y-107990877D01*
X150102836Y-107919814D01*
X150108156Y-107905046D01*
X150128947Y-107847118D01*
X150158830Y-107763786D01*
X150195881Y-107660423D01*
X150238173Y-107542401D01*
X150283781Y-107415093D01*
X150330780Y-107283872D01*
X150350261Y-107229472D01*
X150394733Y-107106105D01*
X150436611Y-106991501D01*
X150474416Y-106889590D01*
X150506666Y-106804302D01*
X150531883Y-106739568D01*
X150548587Y-106699318D01*
X150553976Y-106688447D01*
X150592952Y-106651093D01*
X150650874Y-106620198D01*
X150713999Y-106602283D01*
X150739979Y-106600193D01*
X150818355Y-106615089D01*
X150886617Y-106655585D01*
X150938357Y-106715393D01*
X150967170Y-106788224D01*
X150970978Y-106826937D01*
X150965613Y-106854903D01*
X150950494Y-106908972D01*
X150927090Y-106984542D01*
X150896865Y-107077010D01*
X150861288Y-107181776D01*
X150823874Y-107288484D01*
X150784967Y-107397945D01*
X150749922Y-107496831D01*
X150720159Y-107581110D01*
X150697099Y-107646751D01*
X150682163Y-107689721D01*
X150676771Y-107705987D01*
X150676770Y-107706005D01*
X150690357Y-107699223D01*
X150728858Y-107678007D01*
X150788881Y-107644278D01*
X150867035Y-107599955D01*
X150959927Y-107546959D01*
X151064165Y-107487208D01*
X151118460Y-107455987D01*
X151253894Y-107378434D01*
X151364557Y-107316365D01*
X151453747Y-107268506D01*
X151524762Y-107233584D01*
X151580901Y-107210324D01*
X151625459Y-107197453D01*
X151661736Y-107193697D01*
X151693029Y-107197783D01*
X151722636Y-107208436D01*
X151738863Y-107216358D01*
X151809054Y-107268770D01*
X151852343Y-107337587D01*
X151866574Y-107419018D01*
X151865515Y-107439087D01*
X151854310Y-107496300D01*
X151834836Y-107546785D01*
X151826227Y-107560725D01*
X151804355Y-107579441D01*
X151757789Y-107611855D01*
X151690305Y-107655595D01*
X151605673Y-107708284D01*
X151507668Y-107767549D01*
X151400061Y-107831016D01*
X151357424Y-107855749D01*
X151249783Y-107918293D01*
X151152286Y-107975701D01*
X151068275Y-108025943D01*
X151001092Y-108066991D01*
X150954079Y-108096818D01*
X150930577Y-108113395D01*
X150928580Y-108116010D01*
X150946174Y-108120963D01*
X150991651Y-108130815D01*
X151060712Y-108144718D01*
X151149058Y-108161825D01*
X151252391Y-108181289D01*
X151361439Y-108201357D01*
X151495452Y-108226537D01*
X151611530Y-108249931D01*
X151706432Y-108270811D01*
X151776918Y-108288447D01*
X151819746Y-108302109D01*
X151828895Y-108306608D01*
X151888675Y-108362122D01*
X151922815Y-108428746D01*
X151933041Y-108500449D01*
X151921081Y-108571199D01*
X151888660Y-108634961D01*
X151837505Y-108685704D01*
X151769343Y-108717394D01*
X151709149Y-108725032D01*
X151686629Y-108723615D01*
X151649354Y-108719159D01*
X151595542Y-108711360D01*
X151523414Y-108699910D01*
X151431189Y-108684503D01*
X151317087Y-108664835D01*
X151179328Y-108640599D01*
X151016131Y-108611489D01*
X150825717Y-108577199D01*
X150606304Y-108537423D01*
X150419271Y-108503375D01*
X150345632Y-108491470D01*
X150295948Y-108487739D01*
X150262582Y-108491940D01*
X150247649Y-108497943D01*
X150223034Y-108511594D01*
X150174858Y-108538986D01*
X150107814Y-108577425D01*
X150026599Y-108624214D01*
X149935908Y-108676660D01*
X149900386Y-108697252D01*
X149804302Y-108752937D01*
X149713095Y-108805701D01*
X149632205Y-108852404D01*
X149567074Y-108889905D01*
X149523145Y-108915063D01*
X149514947Y-108919715D01*
X149389813Y-108990646D01*
X149291353Y-109046969D01*
X149217605Y-109089841D01*
X149166609Y-109120420D01*
X149136403Y-109139865D01*
X149125024Y-109149333D01*
X149124819Y-109150000D01*
X149138315Y-109160423D01*
X149175566Y-109184038D01*
X149231850Y-109217982D01*
X149302447Y-109259392D01*
X149357390Y-109291025D01*
X149442636Y-109339814D01*
X149548020Y-109400232D01*
X149665360Y-109467582D01*
X149786474Y-109537167D01*
X149903178Y-109604290D01*
X149935439Y-109622860D01*
X150281045Y-109821841D01*
X150417614Y-109796889D01*
X150678446Y-109749397D01*
X150908018Y-109707952D01*
X151107167Y-109672409D01*
X151276732Y-109642625D01*
X151417549Y-109618458D01*
X151530458Y-109599762D01*
X151616295Y-109586396D01*
X151675899Y-109578214D01*
X151710108Y-109575074D01*
X151712916Y-109575029D01*
X151791751Y-109588842D01*
X151854795Y-109626112D01*
X151900393Y-109680823D01*
X151926893Y-109746959D01*
X151932640Y-109818503D01*
X151915983Y-109889438D01*
X151875267Y-109953748D01*
X151828038Y-109993953D01*
X151797125Y-110006226D01*
X151736608Y-110022715D01*
X151649212Y-110042804D01*
X151537664Y-110065879D01*
X151404691Y-110091325D01*
X151360330Y-110099456D01*
X151246766Y-110120306D01*
X151144088Y-110139604D01*
X151056594Y-110156504D01*
X150988585Y-110170164D01*
X150944358Y-110179738D01*
X150928281Y-110184289D01*
X150937891Y-110195260D01*
X150970176Y-110218120D01*
X151019249Y-110248861D01*
X151047878Y-110265725D01*
X151218651Y-110364558D01*
X151363127Y-110448548D01*
X151483437Y-110518995D01*
X151581713Y-110577195D01*
X151660085Y-110624449D01*
X151720684Y-110662053D01*
X151765642Y-110691307D01*
X151797088Y-110713509D01*
X151817155Y-110729956D01*
X151826797Y-110740305D01*
X151855023Y-110800082D01*
X151866412Y-110872960D01*
X151859629Y-110943755D01*
X151847578Y-110976479D01*
X151797063Y-111043473D01*
X151730138Y-111088171D01*
X151654179Y-111107341D01*
X151576560Y-111097749D01*
X151573353Y-111096662D01*
X151547604Y-111085642D01*
X151506508Y-111064913D01*
X151448198Y-111033422D01*
X151370806Y-110990114D01*
X151272467Y-110933934D01*
X151151313Y-110863829D01*
X151005479Y-110778744D01*
X150873051Y-110701099D01*
X150803578Y-110660846D01*
X150744962Y-110627922D01*
X150702520Y-110605237D01*
X150681570Y-110595698D01*
X150680335Y-110595684D01*
X150684382Y-110611705D01*
X150698321Y-110654251D01*
X150720708Y-110719186D01*
X150750099Y-110802373D01*
X150785051Y-110899677D01*
X150818214Y-110990829D01*
X150870035Y-111134493D01*
X150910080Y-111251491D01*
X150938854Y-111345455D01*
X150956864Y-111420012D01*
X150964614Y-111478794D01*
X150962612Y-111525428D01*
X150951362Y-111563546D01*
X150931372Y-111596776D01*
X150906643Y-111625177D01*
X150837639Y-111676802D01*
X150758988Y-111697777D01*
X150685578Y-111692832D01*
X150650400Y-111683817D01*
X150619695Y-111668832D01*
X150591525Y-111644543D01*
X150563949Y-111607617D01*
X150535029Y-111554720D01*
X150502825Y-111482519D01*
X150465397Y-111387681D01*
X150420806Y-111266872D01*
X150393469Y-111190792D01*
X150347408Y-111062043D01*
X150298009Y-110924267D01*
X150248510Y-110786475D01*
X150202150Y-110657680D01*
X150162167Y-110546894D01*
X150148097Y-110508017D01*
X150044963Y-110223369D01*
X149467352Y-109890996D01*
X149342310Y-109819118D01*
X149226311Y-109752581D01*
X149122362Y-109693100D01*
X149033467Y-109642388D01*
X148962633Y-109602158D01*
X148912865Y-109574123D01*
X148887169Y-109559997D01*
X148884285Y-109558623D01*
X148883109Y-109574396D01*
X148882027Y-109619432D01*
X148881066Y-109690301D01*
X148880254Y-109783576D01*
X148879617Y-109895829D01*
X148879184Y-110023632D01*
X148878982Y-110163557D01*
X148878972Y-110224678D01*
X148879115Y-110890733D01*
X149095542Y-111146792D01*
X149239063Y-111316554D01*
X149362984Y-111463169D01*
X149468740Y-111588514D01*
X149557766Y-111694465D01*
X149631495Y-111782901D01*
X149691363Y-111855696D01*
X149738804Y-111914729D01*
X149775253Y-111961875D01*
X149802143Y-111999013D01*
X149820910Y-112028018D01*
X149832987Y-112050768D01*
X149839810Y-112069139D01*
X149842813Y-112085009D01*
X149843430Y-112100254D01*
X149843096Y-112116750D01*
X149843017Y-112124775D01*
X149828372Y-112196924D01*
X149789081Y-112262973D01*
X149732261Y-112315590D01*
X149665029Y-112347440D01*
X149621007Y-112353542D01*
X149553387Y-112339520D01*
X149480171Y-112300506D01*
X149409206Y-112241311D01*
X149374407Y-112202427D01*
X149315278Y-112129635D01*
X149249821Y-112050256D01*
X149181342Y-111968170D01*
X149113149Y-111887256D01*
X149048549Y-111811393D01*
X148990849Y-111744461D01*
X148943354Y-111690338D01*
X148909374Y-111652903D01*
X148892213Y-111636037D01*
X148891087Y-111635473D01*
X148888091Y-111650906D01*
X148885359Y-111695143D01*
X148882985Y-111764298D01*
X148881061Y-111854488D01*
X148879680Y-111961826D01*
X148878935Y-112082427D01*
X148878829Y-112150104D01*
X148878669Y-112303631D01*
X148877816Y-112427980D01*
X148875709Y-112526663D01*
X148871789Y-112603192D01*
X148865495Y-112661078D01*
X148856267Y-112703834D01*
X148843546Y-112734970D01*
X148826770Y-112757999D01*
X148805381Y-112776433D01*
X148778818Y-112793782D01*
X148775879Y-112795578D01*
X148714637Y-112819482D01*
X148650000Y-112827484D01*
X148579216Y-112817923D01*
X148524120Y-112795578D01*
X148497067Y-112778188D01*
X148475222Y-112760075D01*
X148458028Y-112737737D01*
X148444929Y-112707670D01*
X148435369Y-112666374D01*
X148428791Y-112610345D01*
X148424639Y-112536081D01*
X148422356Y-112440079D01*
X148421386Y-112318838D01*
X148421172Y-112168854D01*
X148421171Y-112147570D01*
X148421104Y-112004034D01*
X148420776Y-111890025D01*
X148419994Y-111802382D01*
X148418568Y-111737942D01*
X148416305Y-111693545D01*
X148413015Y-111666028D01*
X148408505Y-111652229D01*
X148402584Y-111648986D01*
X148395060Y-111653137D01*
X148391406Y-111656298D01*
X148372781Y-111676112D01*
X148336562Y-111717195D01*
X148286065Y-111775689D01*
X148224606Y-111847737D01*
X148155500Y-111929481D01*
X148109456Y-111984310D01*
X148016211Y-112094427D01*
X147939924Y-112181147D01*
X147877582Y-112246952D01*
X147826171Y-112294325D01*
X147782678Y-112325750D01*
X147744090Y-112343710D01*
X147707394Y-112350687D01*
X147669577Y-112349164D01*
X147667093Y-112348842D01*
X147582125Y-112322951D01*
X147516784Y-112273680D01*
X147474290Y-112205919D01*
X147457862Y-112124562D01*
X147467534Y-112045563D01*
X147479979Y-112025399D01*
X147511466Y-111983098D01*
X147559798Y-111921376D01*
X147622781Y-111842948D01*
X147698220Y-111750531D01*
X147783919Y-111646839D01*
X147877683Y-111534588D01*
X147949486Y-111449364D01*
X148421171Y-110891513D01*
X148421171Y-110225068D01*
X148421002Y-110081057D01*
X148420521Y-109947738D01*
X148419764Y-109828536D01*
X148418767Y-109726880D01*
X148417567Y-109646196D01*
X148416201Y-109589912D01*
X148414705Y-109561453D01*
X148414048Y-109558623D01*
X148405054Y-109562810D01*
X148380864Y-109575926D01*
X148340033Y-109598798D01*
X148281116Y-109632256D01*
X148202667Y-109677128D01*
X148103241Y-109734243D01*
X147981392Y-109804430D01*
X147835675Y-109888518D01*
X147664644Y-109987336D01*
X147466855Y-110101711D01*
X147457870Y-110106909D01*
X147254607Y-110224491D01*
X147118931Y-110598474D01*
X147073182Y-110725004D01*
X147023952Y-110861888D01*
X146974719Y-110999406D01*
X146928961Y-111127839D01*
X146890157Y-111237465D01*
X146882758Y-111258494D01*
X146848803Y-111353210D01*
X146816251Y-111440513D01*
X146787449Y-111514365D01*
X146764748Y-111568724D01*
X146751522Y-111595911D01*
X146700330Y-111652588D01*
X146633295Y-111686316D01*
X146558023Y-111696924D01*
X146482119Y-111684240D01*
X146413188Y-111648095D01*
X146369884Y-111604483D01*
X146350207Y-111572025D01*
X146338548Y-111534891D01*
X146335556Y-111489512D01*
X146341881Y-111432319D01*
X146358170Y-111359745D01*
X146385073Y-111268221D01*
X146423239Y-111154178D01*
X146473316Y-111014047D01*
X146481122Y-110992668D01*
X146519833Y-110886501D01*
X146554529Y-110790647D01*
X146583706Y-110709320D01*
X146605859Y-110646738D01*
X146619481Y-110607118D01*
X146623230Y-110594690D01*
X146610904Y-110596378D01*
X146579760Y-110611725D01*
X146561937Y-110622047D01*
X146500755Y-110658492D01*
X146421972Y-110704807D01*
X146330809Y-110757984D01*
X146232491Y-110815013D01*
X146132240Y-110872885D01*
X146035280Y-110928588D01*
X145946833Y-110979115D01*
X145872122Y-111021455D01*
X145816370Y-111052599D01*
X145789640Y-111067061D01*
X145698301Y-111100867D01*
X145614953Y-111103605D01*
X145541201Y-111075642D01*
X145478653Y-111017345D01*
X145461051Y-110992001D01*
X145438285Y-110929328D01*
X145435074Y-110854932D01*
X145450718Y-110782745D01*
X145473773Y-110739275D01*
X145495638Y-110720571D01*
X145542213Y-110688159D01*
X145609740Y-110644400D01*
X145694464Y-110591659D01*
X145792628Y-110532298D01*
X145900474Y-110468681D01*
X145944577Y-110443095D01*
X146068280Y-110371423D01*
X146165999Y-110314112D01*
X146240241Y-110269495D01*
X146293512Y-110235904D01*
X146328318Y-110211671D01*
X146347167Y-110195129D01*
X146352563Y-110184608D01*
X146347015Y-110178442D01*
X146343973Y-110177310D01*
X146316985Y-110170979D01*
X146262901Y-110160005D01*
X146186828Y-110145360D01*
X146093875Y-110128019D01*
X145989148Y-110108955D01*
X145928571Y-110098122D01*
X145819273Y-110078313D01*
X145718709Y-110059358D01*
X145632049Y-110042290D01*
X145564464Y-110028142D01*
X145521126Y-110017946D01*
X145509610Y-110014441D01*
X145441379Y-109973243D01*
X145395903Y-109916346D01*
X145372159Y-109849704D01*
X145369123Y-109779271D01*
X145385775Y-109710999D01*
X145421090Y-109650844D01*
X145474048Y-109604757D01*
X145543625Y-109578693D01*
X145585077Y-109575029D01*
X145614849Y-109577874D01*
X145673043Y-109586029D01*
X145755931Y-109598879D01*
X145859787Y-109615811D01*
X145980882Y-109636212D01*
X146115489Y-109659468D01*
X146259882Y-109684966D01*
X146335314Y-109698496D01*
X147020422Y-109822025D01*
X147250880Y-109688707D01*
X147335423Y-109639890D01*
X147440216Y-109579523D01*
X147557129Y-109512280D01*
X147678034Y-109442835D01*
X147794800Y-109375864D01*
X147828109Y-109356780D01*
X147924004Y-109301535D01*
X148009717Y-109251535D01*
X148081398Y-109209079D01*
X148135196Y-109176463D01*
X148167258Y-109155985D01*
X148174727Y-109150000D01*
X148161043Y-109140186D01*
X148122343Y-109116242D01*
X148062036Y-109080182D01*
X147983532Y-109034017D01*
X147890242Y-108979761D01*
X147785575Y-108919425D01*
X147731573Y-108888481D01*
X147614702Y-108821523D01*
X147500446Y-108755839D01*
X147393696Y-108694258D01*
X147299344Y-108639609D01*
X147222281Y-108594719D01*
X147167400Y-108562419D01*
X147156961Y-108556188D01*
X147025350Y-108477240D01*
X146337569Y-108601136D01*
X146189377Y-108627560D01*
X146049099Y-108652056D01*
X145920453Y-108674010D01*
X145807157Y-108692813D01*
X145712926Y-108707852D01*
X145641479Y-108718516D01*
X145596533Y-108724193D01*
X145584868Y-108724971D01*
X145507753Y-108710287D01*
X145443394Y-108670703D01*
X145395736Y-108612688D01*
X145368721Y-108542712D01*
X145366294Y-108467243D01*
X145387636Y-108401408D01*
X145405133Y-108369664D01*
X145423625Y-108343693D01*
X145446888Y-108322122D01*
X145478696Y-108303575D01*
X145522822Y-108286678D01*
X145583041Y-108270056D01*
X145663128Y-108252336D01*
X145766856Y-108232142D01*
X145898001Y-108208099D01*
X145938527Y-108200783D01*
X146055136Y-108179811D01*
X146160974Y-108160874D01*
X146251853Y-108144714D01*
X146323587Y-108132072D01*
X146371988Y-108123688D01*
X146392870Y-108120305D01*
X146393307Y-108120270D01*
X146381832Y-108112491D01*
X146345394Y-108090488D01*
X146287408Y-108056261D01*
X146211291Y-108011812D01*
X146120459Y-107959141D01*
X146018327Y-107900250D01*
X145985245Y-107881238D01*
X145853874Y-107805750D01*
X145747892Y-107744544D01*
X145664338Y-107695630D01*
X145600251Y-107657016D01*
X145552669Y-107626708D01*
X145518631Y-107602716D01*
X145495176Y-107583048D01*
X145479343Y-107565710D01*
X145468170Y-107548713D01*
X145458697Y-107530062D01*
X145456584Y-107525619D01*
X145434154Y-107446050D01*
X145439142Y-107368799D01*
X145467611Y-107299280D01*
X145515625Y-107242908D01*
X145579248Y-107205097D01*
X145654543Y-107191262D01*
X145696722Y-107195287D01*
X145723638Y-107205821D01*
X145774734Y-107230855D01*
X145846051Y-107268257D01*
X145933625Y-107315892D01*
X146033498Y-107371629D01*
X146141707Y-107433333D01*
X146181918Y-107456584D01*
X146289507Y-107518825D01*
X146387634Y-107575209D01*
X146472841Y-107623778D01*
X146541672Y-107662577D01*
X146590667Y-107689649D01*
X146616370Y-107703038D01*
X146619399Y-107704103D01*
X146615256Y-107688345D01*
X146601375Y-107645855D01*
X146579138Y-107580643D01*
X146549929Y-107496716D01*
X146515131Y-107398083D01*
X146476128Y-107288753D01*
X146474804Y-107285063D01*
X146425814Y-107147065D01*
X146387901Y-107035777D01*
X146360402Y-106947397D01*
X146342658Y-106878124D01*
X146334006Y-106824158D01*
X146333787Y-106781699D01*
X146341338Y-106746944D01*
X146355999Y-106716094D01*
X146371744Y-106692571D01*
X146425998Y-106642431D01*
X146497002Y-106609431D01*
X146556886Y-106600193D01*
X146614767Y-106610321D01*
X146676092Y-106636228D01*
X146727488Y-106671198D01*
X146750297Y-106697312D01*
X146760155Y-106719778D01*
X146779660Y-106769628D01*
X146807542Y-106843430D01*
X146842532Y-106937753D01*
X146883363Y-107049168D01*
X146928765Y-107174243D01*
X146977470Y-107309547D01*
X147000142Y-107372899D01*
X147049718Y-107511557D01*
X147096254Y-107641468D01*
X147138519Y-107759216D01*
X147175286Y-107861386D01*
X147205323Y-107944565D01*
X147227401Y-108005336D01*
X147240290Y-108040286D01*
X147242781Y-108046718D01*
X147261974Y-108067641D01*
X147303585Y-108099345D01*
X147361172Y-108137261D01*
X147417904Y-108170977D01*
X147526042Y-108232549D01*
X147655667Y-108306785D01*
X147800061Y-108389819D01*
X147952510Y-108477787D01*
X148106295Y-108566824D01*
X148167825Y-108602538D01*
X148237169Y-108642647D01*
X148299779Y-108678551D01*
X148348093Y-108705931D01*
X148372136Y-108719205D01*
X148412999Y-108740928D01*
X148421541Y-107413358D01*
X148331503Y-107303304D01*
X148306140Y-107272447D01*
X148277213Y-107237575D01*
X148242801Y-107196418D01*
X148200981Y-107146705D01*
X148149832Y-107086166D01*
X148087432Y-107012530D01*
X148011858Y-106923528D01*
X147921191Y-106816889D01*
X147813506Y-106690343D01*
X147686884Y-106541619D01*
X147661132Y-106511380D01*
X147602640Y-106441397D01*
X147550701Y-106376835D01*
X147509621Y-106323228D01*
X147483706Y-106286113D01*
X147477989Y-106275940D01*
X147457891Y-106197663D01*
X147465481Y-106122703D01*
X147496154Y-106055724D01*
X147545301Y-106001389D01*
X147608317Y-105964363D01*
X147680594Y-105949312D01*
X147757524Y-105960898D01*
X147780194Y-105969975D01*
X147819849Y-105997129D01*
X147875994Y-106049799D01*
X147949204Y-106128565D01*
X148028893Y-106220746D01*
X148098646Y-106303324D01*
X148169424Y-106386983D01*
X148235118Y-106464510D01*
X148289615Y-106528690D01*
X148314929Y-106558413D01*
X148412999Y-106673346D01*
X148421171Y-106142336D01*
X148423629Y-105989319D01*
X148426183Y-105865505D01*
X148429396Y-105767413D01*
X148433831Y-105691557D01*
X148440053Y-105634457D01*
X148448624Y-105592628D01*
X148460108Y-105562588D01*
X148475067Y-105540854D01*
X148494066Y-105523943D01*
X148517667Y-105508372D01*
X148524370Y-105504270D01*
X148598873Y-105475926D01*
X148678626Y-105473651D01*
X148754779Y-105495494D01*
G37*
G36*
X147562016Y-50489442D02*
G01*
X147449581Y-50447214D01*
X147336915Y-50399928D01*
X147240952Y-50354896D01*
X147201472Y-50333764D01*
X147090109Y-50265485D01*
X147016865Y-50207113D01*
X146981776Y-50152921D01*
X146983310Y-50125393D01*
X147161588Y-50125393D01*
X147307266Y-50202281D01*
X147453283Y-50272985D01*
X147602292Y-50330930D01*
X147764619Y-50379156D01*
X147950590Y-50420697D01*
X148170528Y-50458590D01*
X148187862Y-50461245D01*
X148351330Y-50483904D01*
X148501759Y-50500566D01*
X148629003Y-50510278D01*
X148722917Y-50512089D01*
X148727691Y-50511907D01*
X148839186Y-50504513D01*
X148940522Y-50493063D01*
X149022583Y-50479057D01*
X149076252Y-50463995D01*
X149092686Y-50451875D01*
X149082191Y-50428523D01*
X149051467Y-50374141D01*
X149004589Y-50295616D01*
X148945630Y-50199833D01*
X148909027Y-50141493D01*
X148845950Y-50039780D01*
X148793728Y-49952017D01*
X148756164Y-49884890D01*
X148737057Y-49845077D01*
X148735897Y-49837157D01*
X148763261Y-49830515D01*
X148823195Y-49821572D01*
X148903418Y-49812131D01*
X148914179Y-49811014D01*
X148995710Y-49800193D01*
X149058049Y-49787267D01*
X149089104Y-49774822D01*
X149090195Y-49773408D01*
X149082511Y-49748217D01*
X149054136Y-49692278D01*
X149008960Y-49612578D01*
X148950876Y-49516103D01*
X148913740Y-49456688D01*
X148849555Y-49354212D01*
X148795143Y-49265223D01*
X148754583Y-49196565D01*
X148731954Y-49155081D01*
X148728643Y-49146233D01*
X148750329Y-49136817D01*
X148803372Y-49128391D01*
X148846531Y-49124726D01*
X148912206Y-49118185D01*
X148955027Y-49109079D01*
X148964138Y-49103169D01*
X148953271Y-49080185D01*
X148921957Y-49026322D01*
X148874346Y-48948428D01*
X148814588Y-48853349D01*
X148778151Y-48796373D01*
X148713512Y-48694291D01*
X148658940Y-48605052D01*
X148618568Y-48535660D01*
X148596530Y-48493116D01*
X148593710Y-48483753D01*
X148615572Y-48471876D01*
X148658553Y-48472615D01*
X148722642Y-48479645D01*
X148759814Y-48474028D01*
X148770245Y-48450654D01*
X148754107Y-48404405D01*
X148711575Y-48330170D01*
X148665853Y-48258291D01*
X148532254Y-48051814D01*
X148335718Y-48200079D01*
X148245053Y-48270309D01*
X148189923Y-48319865D01*
X148168767Y-48353616D01*
X148180031Y-48376434D01*
X148222157Y-48393191D01*
X148270479Y-48404187D01*
X148313543Y-48418988D01*
X148327902Y-48435130D01*
X148309766Y-48454577D01*
X148261896Y-48495985D01*
X148190529Y-48554219D01*
X148101899Y-48624139D01*
X148047876Y-48665851D01*
X147952468Y-48739694D01*
X147870856Y-48804237D01*
X147809259Y-48854451D01*
X147773896Y-48885308D01*
X147767875Y-48892235D01*
X147784738Y-48908441D01*
X147831481Y-48934452D01*
X147870803Y-48952679D01*
X147930343Y-48981303D01*
X147967592Y-49004530D01*
X147974226Y-49013209D01*
X147956344Y-49031212D01*
X147908815Y-49071474D01*
X147837815Y-49128957D01*
X147749517Y-49198627D01*
X147694110Y-49241635D01*
X147599096Y-49316530D01*
X147518527Y-49383042D01*
X147458446Y-49435934D01*
X147424904Y-49469973D01*
X147419973Y-49478903D01*
X147440438Y-49499241D01*
X147491567Y-49531683D01*
X147562993Y-49569760D01*
X147575466Y-49575873D01*
X147648260Y-49613513D01*
X147701594Y-49645655D01*
X147725562Y-49666225D01*
X147726002Y-49668151D01*
X147708401Y-49688231D01*
X147661753Y-49729251D01*
X147593135Y-49785256D01*
X147509620Y-49850292D01*
X147508750Y-49850955D01*
X147417328Y-49921053D01*
X147332765Y-49986623D01*
X147265125Y-50039818D01*
X147227416Y-50070310D01*
X147161588Y-50125393D01*
X146983310Y-50125393D01*
X146984882Y-50097188D01*
X146986619Y-50094542D01*
X147026223Y-50034187D01*
X147105834Y-49958195D01*
X147204541Y-49878396D01*
X147287028Y-49813098D01*
X147354787Y-49757502D01*
X147400802Y-49717501D01*
X147418057Y-49698999D01*
X147402059Y-49679309D01*
X147359151Y-49642994D01*
X147313880Y-49609027D01*
X147252301Y-49560817D01*
X147221507Y-49522601D01*
X147213046Y-49482271D01*
X147213779Y-49465618D01*
X147221087Y-49433171D01*
X147241358Y-49399495D01*
X147280433Y-49358550D01*
X147344147Y-49304298D01*
X147438342Y-49230701D01*
X147448272Y-49223108D01*
X147542036Y-49150818D01*
X147604422Y-49100100D01*
X147640223Y-49065689D01*
X147654229Y-49042324D01*
X147651233Y-49024743D01*
X147640506Y-49011983D01*
X147589063Y-48956723D01*
X147565887Y-48916437D01*
X147563871Y-48878235D01*
X147564526Y-48874219D01*
X147584584Y-48843993D01*
X147633592Y-48793810D01*
X147704307Y-48730512D01*
X147789485Y-48660940D01*
X147794367Y-48657129D01*
X148016424Y-48484182D01*
X147971974Y-48427915D01*
X147942397Y-48377848D01*
X147933719Y-48336517D01*
X147954159Y-48308370D01*
X148007341Y-48257390D01*
X148089330Y-48186875D01*
X148196189Y-48100124D01*
X148323984Y-48000435D01*
X148436829Y-47914945D01*
X148496957Y-47879631D01*
X148551480Y-47863129D01*
X148565906Y-47863394D01*
X148585696Y-47868882D01*
X148605648Y-47881290D01*
X148629474Y-47905604D01*
X148660885Y-47946817D01*
X148703591Y-48009918D01*
X148761306Y-48099898D01*
X148837739Y-48221745D01*
X148865341Y-48266010D01*
X148931619Y-48376921D01*
X148971752Y-48458312D01*
X148986659Y-48516662D01*
X148977255Y-48558450D01*
X148944456Y-48590155D01*
X148913612Y-48607186D01*
X148895820Y-48618976D01*
X148889873Y-48636770D01*
X148898430Y-48667279D01*
X148924143Y-48717209D01*
X148969670Y-48793271D01*
X149017901Y-48870687D01*
X149074954Y-48965912D01*
X149120862Y-49050677D01*
X149151182Y-49116167D01*
X149161466Y-49153566D01*
X149161301Y-49155018D01*
X149137584Y-49193102D01*
X149088549Y-49232543D01*
X149075140Y-49240255D01*
X148996633Y-49282081D01*
X149151526Y-49524045D01*
X149216865Y-49628150D01*
X149259875Y-49702996D01*
X149283980Y-49756272D01*
X149292607Y-49795664D01*
X149289179Y-49828861D01*
X149288496Y-49831446D01*
X149270947Y-49871758D01*
X149237319Y-49899506D01*
X149175526Y-49923181D01*
X149145383Y-49931970D01*
X149077091Y-49953882D01*
X149029854Y-49974290D01*
X149015876Y-49985650D01*
X149025800Y-50010772D01*
X149056010Y-50065195D01*
X149101762Y-50140783D01*
X149155531Y-50225138D01*
X149231726Y-50348405D01*
X149276989Y-50442368D01*
X149289375Y-50512194D01*
X149266938Y-50563046D01*
X149207732Y-50600089D01*
X149109809Y-50628489D01*
X148995633Y-50649538D01*
X148899683Y-50660827D01*
X148778956Y-50669066D01*
X148653674Y-50673044D01*
X148601666Y-50673128D01*
X148368130Y-50670802D01*
X148310676Y-50996638D01*
X148213658Y-50979532D01*
X148135742Y-50967655D01*
X148064570Y-50959719D01*
X148051539Y-50958811D01*
X147992676Y-50951289D01*
X147912363Y-50935926D01*
X147860470Y-50923979D01*
X147734500Y-50892761D01*
X147755965Y-50771026D01*
X147938886Y-50771026D01*
X148160642Y-50810128D01*
X148191923Y-50632723D01*
X147970167Y-50593621D01*
X147938886Y-50771026D01*
X147755965Y-50771026D01*
X147761481Y-50739745D01*
X147791483Y-50569595D01*
X147562016Y-50489442D01*
G37*
G36*
X146204709Y-48575356D02*
G01*
X146336917Y-48320709D01*
X146501130Y-48083242D01*
X146696169Y-47866481D01*
X146920856Y-47673951D01*
X147174011Y-47509178D01*
X147454454Y-47375688D01*
X147607180Y-47320926D01*
X147828054Y-47250008D01*
X147830591Y-47235618D01*
X148013511Y-47235618D01*
X148119864Y-47223032D01*
X148189937Y-47219161D01*
X148288360Y-47219356D01*
X148398650Y-47223434D01*
X148451136Y-47226729D01*
X148629480Y-47248015D01*
X148814623Y-47284822D01*
X148993822Y-47333645D01*
X149154333Y-47390981D01*
X149283415Y-47453326D01*
X149290552Y-47457550D01*
X149308321Y-47459160D01*
X149322840Y-47434496D01*
X149337312Y-47376200D01*
X149345787Y-47330704D01*
X149357984Y-47249596D01*
X149364341Y-47182460D01*
X149363829Y-47147543D01*
X149332588Y-47095436D01*
X149262743Y-47042109D01*
X149160574Y-46990018D01*
X149032363Y-46941618D01*
X148884391Y-46899365D01*
X148722938Y-46865715D01*
X148596402Y-46847555D01*
X148441243Y-46833183D01*
X148322170Y-46830865D01*
X148231717Y-46841187D01*
X148162420Y-46864732D01*
X148129727Y-46884153D01*
X148094859Y-46914077D01*
X148071515Y-46952902D01*
X148053808Y-47013679D01*
X148040677Y-47081552D01*
X148013511Y-47235618D01*
X147830591Y-47235618D01*
X147836107Y-47204337D01*
X147861410Y-47060834D01*
X147890105Y-46929648D01*
X147923635Y-46837438D01*
X147945143Y-46800733D01*
X148012121Y-46736158D01*
X148104769Y-46683541D01*
X148203752Y-46653084D01*
X148231126Y-46649837D01*
X148267043Y-46642337D01*
X148283602Y-46624209D01*
X148475728Y-46624209D01*
X148762057Y-46686130D01*
X148870278Y-46708065D01*
X148962489Y-46723993D01*
X149029901Y-46732596D01*
X149063726Y-46732557D01*
X149065502Y-46731597D01*
X149075969Y-46699956D01*
X149079146Y-46644026D01*
X149078833Y-46635099D01*
X149053612Y-46529035D01*
X148994699Y-46442981D01*
X148911008Y-46382738D01*
X148811454Y-46354113D01*
X148704953Y-46362908D01*
X148675667Y-46372645D01*
X148574237Y-46432401D01*
X148509804Y-46517733D01*
X148494450Y-46558915D01*
X148475728Y-46624209D01*
X148283602Y-46624209D01*
X148289192Y-46618089D01*
X148297256Y-46592740D01*
X148305969Y-46565356D01*
X148312567Y-46535937D01*
X148360180Y-46408801D01*
X148438211Y-46307523D01*
X148539253Y-46233516D01*
X148655901Y-46188199D01*
X148780745Y-46172986D01*
X148906378Y-46189293D01*
X149025393Y-46238536D01*
X149130385Y-46322129D01*
X149171419Y-46371797D01*
X149215736Y-46453304D01*
X149248155Y-46551418D01*
X149265515Y-46650788D01*
X149264654Y-46736064D01*
X149254220Y-46773766D01*
X149251129Y-46802798D01*
X149276026Y-46831483D01*
X149332871Y-46866509D01*
X149411702Y-46914331D01*
X149464613Y-46961794D01*
X149507660Y-47024854D01*
X149525837Y-47058256D01*
X149543045Y-47098257D01*
X149550558Y-47141737D01*
X149548411Y-47200191D01*
X149536633Y-47285115D01*
X149526598Y-47344203D01*
X149489264Y-47557471D01*
X149661805Y-47689853D01*
X149895618Y-47896652D01*
X150095333Y-48129831D01*
X150259891Y-48385165D01*
X150388236Y-48658433D01*
X150479311Y-48945412D01*
X150532059Y-49241881D01*
X150545420Y-49543614D01*
X150518340Y-49846391D01*
X150449760Y-50145989D01*
X150345933Y-50422217D01*
X150197296Y-50697245D01*
X150013628Y-50947263D01*
X149798875Y-51169258D01*
X149556985Y-51360225D01*
X149291906Y-51517153D01*
X149007583Y-51637033D01*
X148707968Y-51716857D01*
X148629676Y-51730428D01*
X148380271Y-51752937D01*
X148118356Y-51747722D01*
X147858278Y-51716220D01*
X147614383Y-51659868D01*
X147484146Y-51615648D01*
X147198005Y-51484116D01*
X146943020Y-51322771D01*
X146714250Y-51127787D01*
X146506753Y-50895338D01*
X146440781Y-50807932D01*
X146274485Y-50542769D01*
X146149631Y-50266582D01*
X146065037Y-49982893D01*
X146019525Y-49695232D01*
X146013320Y-49460265D01*
X146192417Y-49460265D01*
X146195983Y-49614746D01*
X146229271Y-49868909D01*
X146285832Y-50100573D01*
X146338433Y-50251390D01*
X146466335Y-50519586D01*
X146629809Y-50763824D01*
X146824798Y-50981328D01*
X147047242Y-51169325D01*
X147293083Y-51325043D01*
X147558259Y-51445710D01*
X147838713Y-51528551D01*
X148130386Y-51570793D01*
X148277144Y-51575830D01*
X148575683Y-51553899D01*
X148860612Y-51491632D01*
X149129190Y-51392140D01*
X149378677Y-51258534D01*
X149606331Y-51093928D01*
X149809413Y-50901432D01*
X149985179Y-50684160D01*
X150130891Y-50445221D01*
X150243807Y-50187731D01*
X150321186Y-49914799D01*
X150360288Y-49629539D01*
X150358370Y-49335061D01*
X150346904Y-49225815D01*
X150301852Y-48979543D01*
X150232546Y-48756096D01*
X150153981Y-48577500D01*
X150018969Y-48346265D01*
X149851805Y-48126526D01*
X149661823Y-47929055D01*
X149458355Y-47764621D01*
X149436903Y-47749923D01*
X149199473Y-47615637D01*
X148937432Y-47513093D01*
X148659582Y-47443830D01*
X148374719Y-47409389D01*
X148091643Y-47411312D01*
X147819155Y-47451139D01*
X147781493Y-47460040D01*
X147568607Y-47529258D01*
X147347275Y-47630325D01*
X147130754Y-47755628D01*
X146932304Y-47897557D01*
X146776150Y-48037221D01*
X146668377Y-48161113D01*
X146558377Y-48312560D01*
X146456586Y-48475895D01*
X146373436Y-48635452D01*
X146364335Y-48655563D01*
X146297484Y-48837201D01*
X146244682Y-49042487D01*
X146208727Y-49255488D01*
X146192417Y-49460265D01*
X146013320Y-49460265D01*
X146011916Y-49407122D01*
X146041029Y-49122089D01*
X146066799Y-49011122D01*
X146105688Y-48843659D01*
X146204709Y-48575356D01*
G37*
%TO.C,C14*%
X121965000Y-109588748D02*
X121965000Y-110111252D01*
X123435000Y-109588748D02*
X123435000Y-110111252D01*
%TO.C,G\u002A\u002A\u002A*%
G36*
X135879779Y-87395494D02*
G01*
X135943479Y-87439503D01*
X135971801Y-87475343D01*
X135980662Y-87491654D01*
X135987728Y-87510802D01*
X135993207Y-87536468D01*
X135997309Y-87572334D01*
X136000243Y-87622083D01*
X136002219Y-87689397D01*
X136003446Y-87777957D01*
X136004134Y-87891447D01*
X136004491Y-88033547D01*
X136004518Y-88050708D01*
X136005330Y-88573745D01*
X136090390Y-88480081D01*
X136129163Y-88436295D01*
X136183388Y-88373561D01*
X136247711Y-88298149D01*
X136316779Y-88216326D01*
X136371589Y-88150782D01*
X136443871Y-88066133D01*
X136510611Y-87992115D01*
X136567829Y-87932907D01*
X136611548Y-87892685D01*
X136630611Y-87878833D01*
X136705483Y-87851691D01*
X136779106Y-87852788D01*
X136846712Y-87877863D01*
X136903533Y-87922655D01*
X136944801Y-87982902D01*
X136965748Y-88054344D01*
X136961607Y-88132719D01*
X136951609Y-88165714D01*
X136935659Y-88192636D01*
X136902252Y-88238968D01*
X136855406Y-88299468D01*
X136799137Y-88368900D01*
X136759556Y-88416169D01*
X136693045Y-88494681D01*
X136626797Y-88573063D01*
X136566821Y-88644195D01*
X136519126Y-88700954D01*
X136502377Y-88720981D01*
X136456200Y-88776004D01*
X136412017Y-88828096D01*
X136379006Y-88866440D01*
X136377680Y-88867954D01*
X136352058Y-88897594D01*
X136310246Y-88946436D01*
X136257159Y-89008719D01*
X136197714Y-89078681D01*
X136169254Y-89112250D01*
X136003829Y-89307511D01*
X136003829Y-90642216D01*
X136056950Y-90615057D01*
X136083839Y-90600356D01*
X136136426Y-90570721D01*
X136212136Y-90527630D01*
X136308397Y-90472560D01*
X136422634Y-90406991D01*
X136552273Y-90332401D01*
X136694742Y-90250268D01*
X136847466Y-90162070D01*
X137007873Y-90069286D01*
X137107111Y-90011811D01*
X137137065Y-89992499D01*
X137159977Y-89970432D01*
X137179984Y-89938821D01*
X137201224Y-89890877D01*
X137227836Y-89819814D01*
X137233156Y-89805046D01*
X137253947Y-89747118D01*
X137283830Y-89663786D01*
X137320881Y-89560423D01*
X137363173Y-89442401D01*
X137408781Y-89315093D01*
X137455780Y-89183872D01*
X137475261Y-89129472D01*
X137519733Y-89006105D01*
X137561611Y-88891501D01*
X137599416Y-88789590D01*
X137631666Y-88704302D01*
X137656883Y-88639568D01*
X137673587Y-88599318D01*
X137678976Y-88588447D01*
X137717952Y-88551093D01*
X137775874Y-88520198D01*
X137838999Y-88502283D01*
X137864979Y-88500193D01*
X137943355Y-88515089D01*
X138011617Y-88555585D01*
X138063357Y-88615393D01*
X138092170Y-88688224D01*
X138095978Y-88726937D01*
X138090613Y-88754903D01*
X138075494Y-88808972D01*
X138052090Y-88884542D01*
X138021865Y-88977010D01*
X137986288Y-89081776D01*
X137948874Y-89188484D01*
X137909967Y-89297945D01*
X137874922Y-89396831D01*
X137845159Y-89481110D01*
X137822099Y-89546751D01*
X137807163Y-89589721D01*
X137801771Y-89605987D01*
X137801770Y-89606005D01*
X137815357Y-89599223D01*
X137853858Y-89578007D01*
X137913881Y-89544278D01*
X137992035Y-89499955D01*
X138084927Y-89446959D01*
X138189165Y-89387208D01*
X138243460Y-89355987D01*
X138378894Y-89278434D01*
X138489557Y-89216365D01*
X138578747Y-89168506D01*
X138649762Y-89133584D01*
X138705901Y-89110324D01*
X138750459Y-89097453D01*
X138786736Y-89093697D01*
X138818029Y-89097783D01*
X138847636Y-89108436D01*
X138863863Y-89116358D01*
X138934054Y-89168770D01*
X138977343Y-89237587D01*
X138991574Y-89319018D01*
X138990515Y-89339087D01*
X138979310Y-89396300D01*
X138959836Y-89446785D01*
X138951227Y-89460725D01*
X138929355Y-89479441D01*
X138882789Y-89511855D01*
X138815305Y-89555595D01*
X138730673Y-89608284D01*
X138632668Y-89667549D01*
X138525061Y-89731016D01*
X138482424Y-89755749D01*
X138374783Y-89818293D01*
X138277286Y-89875701D01*
X138193275Y-89925943D01*
X138126092Y-89966991D01*
X138079079Y-89996818D01*
X138055577Y-90013395D01*
X138053580Y-90016010D01*
X138071174Y-90020963D01*
X138116651Y-90030815D01*
X138185712Y-90044718D01*
X138274058Y-90061825D01*
X138377391Y-90081289D01*
X138486439Y-90101357D01*
X138620452Y-90126537D01*
X138736530Y-90149931D01*
X138831432Y-90170811D01*
X138901918Y-90188447D01*
X138944746Y-90202109D01*
X138953895Y-90206608D01*
X139013675Y-90262122D01*
X139047815Y-90328746D01*
X139058041Y-90400449D01*
X139046081Y-90471199D01*
X139013660Y-90534961D01*
X138962505Y-90585704D01*
X138894343Y-90617394D01*
X138834149Y-90625032D01*
X138811629Y-90623615D01*
X138774354Y-90619159D01*
X138720542Y-90611360D01*
X138648414Y-90599910D01*
X138556189Y-90584503D01*
X138442087Y-90564835D01*
X138304328Y-90540599D01*
X138141131Y-90511489D01*
X137950717Y-90477199D01*
X137731304Y-90437423D01*
X137544271Y-90403375D01*
X137470632Y-90391470D01*
X137420948Y-90387739D01*
X137387582Y-90391940D01*
X137372649Y-90397943D01*
X137348034Y-90411594D01*
X137299858Y-90438986D01*
X137232814Y-90477425D01*
X137151599Y-90524214D01*
X137060908Y-90576660D01*
X137025386Y-90597252D01*
X136929302Y-90652937D01*
X136838095Y-90705701D01*
X136757205Y-90752404D01*
X136692074Y-90789905D01*
X136648145Y-90815063D01*
X136639947Y-90819715D01*
X136514813Y-90890646D01*
X136416353Y-90946969D01*
X136342605Y-90989841D01*
X136291609Y-91020420D01*
X136261403Y-91039865D01*
X136250024Y-91049333D01*
X136249819Y-91050000D01*
X136263315Y-91060423D01*
X136300566Y-91084038D01*
X136356850Y-91117982D01*
X136427447Y-91159392D01*
X136482390Y-91191025D01*
X136567636Y-91239814D01*
X136673020Y-91300232D01*
X136790360Y-91367582D01*
X136911474Y-91437167D01*
X137028178Y-91504290D01*
X137060439Y-91522860D01*
X137406045Y-91721841D01*
X137542614Y-91696889D01*
X137803446Y-91649397D01*
X138033018Y-91607952D01*
X138232167Y-91572409D01*
X138401732Y-91542625D01*
X138542549Y-91518458D01*
X138655458Y-91499762D01*
X138741295Y-91486396D01*
X138800899Y-91478214D01*
X138835108Y-91475074D01*
X138837916Y-91475029D01*
X138916751Y-91488842D01*
X138979795Y-91526112D01*
X139025393Y-91580823D01*
X139051893Y-91646959D01*
X139057640Y-91718503D01*
X139040983Y-91789438D01*
X139000267Y-91853748D01*
X138953038Y-91893953D01*
X138922125Y-91906226D01*
X138861608Y-91922715D01*
X138774212Y-91942804D01*
X138662664Y-91965879D01*
X138529691Y-91991325D01*
X138485330Y-91999456D01*
X138371766Y-92020306D01*
X138269088Y-92039604D01*
X138181594Y-92056504D01*
X138113585Y-92070164D01*
X138069358Y-92079738D01*
X138053281Y-92084289D01*
X138062891Y-92095260D01*
X138095176Y-92118120D01*
X138144249Y-92148861D01*
X138172878Y-92165725D01*
X138343651Y-92264558D01*
X138488127Y-92348548D01*
X138608437Y-92418995D01*
X138706713Y-92477195D01*
X138785085Y-92524449D01*
X138845684Y-92562053D01*
X138890642Y-92591307D01*
X138922088Y-92613509D01*
X138942155Y-92629956D01*
X138951797Y-92640305D01*
X138980023Y-92700082D01*
X138991412Y-92772960D01*
X138984629Y-92843755D01*
X138972578Y-92876479D01*
X138922063Y-92943473D01*
X138855138Y-92988171D01*
X138779179Y-93007341D01*
X138701560Y-92997749D01*
X138698353Y-92996662D01*
X138672604Y-92985642D01*
X138631508Y-92964913D01*
X138573198Y-92933422D01*
X138495806Y-92890114D01*
X138397467Y-92833934D01*
X138276313Y-92763829D01*
X138130479Y-92678744D01*
X137998051Y-92601099D01*
X137928578Y-92560846D01*
X137869962Y-92527922D01*
X137827520Y-92505237D01*
X137806570Y-92495698D01*
X137805335Y-92495684D01*
X137809382Y-92511705D01*
X137823321Y-92554251D01*
X137845708Y-92619186D01*
X137875099Y-92702373D01*
X137910051Y-92799677D01*
X137943214Y-92890829D01*
X137995035Y-93034493D01*
X138035080Y-93151491D01*
X138063854Y-93245455D01*
X138081864Y-93320012D01*
X138089614Y-93378794D01*
X138087612Y-93425428D01*
X138076362Y-93463546D01*
X138056372Y-93496776D01*
X138031643Y-93525177D01*
X137962639Y-93576802D01*
X137883988Y-93597777D01*
X137810578Y-93592832D01*
X137775400Y-93583817D01*
X137744695Y-93568832D01*
X137716525Y-93544543D01*
X137688949Y-93507617D01*
X137660029Y-93454720D01*
X137627825Y-93382519D01*
X137590397Y-93287681D01*
X137545806Y-93166872D01*
X137518469Y-93090792D01*
X137472408Y-92962043D01*
X137423009Y-92824267D01*
X137373510Y-92686475D01*
X137327150Y-92557680D01*
X137287167Y-92446894D01*
X137273097Y-92408017D01*
X137169963Y-92123369D01*
X136592352Y-91790996D01*
X136467310Y-91719118D01*
X136351311Y-91652581D01*
X136247362Y-91593100D01*
X136158467Y-91542388D01*
X136087633Y-91502158D01*
X136037865Y-91474123D01*
X136012169Y-91459997D01*
X136009285Y-91458623D01*
X136008109Y-91474396D01*
X136007027Y-91519432D01*
X136006066Y-91590301D01*
X136005254Y-91683576D01*
X136004617Y-91795829D01*
X136004184Y-91923632D01*
X136003982Y-92063557D01*
X136003972Y-92124678D01*
X136004115Y-92790733D01*
X136220542Y-93046792D01*
X136364063Y-93216554D01*
X136487984Y-93363169D01*
X136593740Y-93488514D01*
X136682766Y-93594465D01*
X136756495Y-93682901D01*
X136816363Y-93755696D01*
X136863804Y-93814729D01*
X136900253Y-93861875D01*
X136927143Y-93899013D01*
X136945910Y-93928018D01*
X136957987Y-93950768D01*
X136964810Y-93969139D01*
X136967813Y-93985009D01*
X136968430Y-94000254D01*
X136968096Y-94016750D01*
X136968017Y-94024775D01*
X136953372Y-94096924D01*
X136914081Y-94162973D01*
X136857261Y-94215590D01*
X136790029Y-94247440D01*
X136746007Y-94253542D01*
X136678387Y-94239520D01*
X136605171Y-94200506D01*
X136534206Y-94141311D01*
X136499407Y-94102427D01*
X136440278Y-94029635D01*
X136374821Y-93950256D01*
X136306342Y-93868170D01*
X136238149Y-93787256D01*
X136173549Y-93711393D01*
X136115849Y-93644461D01*
X136068354Y-93590338D01*
X136034374Y-93552903D01*
X136017213Y-93536037D01*
X136016087Y-93535473D01*
X136013091Y-93550906D01*
X136010359Y-93595143D01*
X136007985Y-93664298D01*
X136006061Y-93754488D01*
X136004680Y-93861826D01*
X136003935Y-93982427D01*
X136003829Y-94050104D01*
X136003669Y-94203631D01*
X136002816Y-94327980D01*
X136000709Y-94426663D01*
X135996789Y-94503192D01*
X135990495Y-94561078D01*
X135981267Y-94603834D01*
X135968546Y-94634970D01*
X135951770Y-94657999D01*
X135930381Y-94676433D01*
X135903818Y-94693782D01*
X135900879Y-94695578D01*
X135839637Y-94719482D01*
X135775000Y-94727484D01*
X135704216Y-94717923D01*
X135649120Y-94695578D01*
X135622067Y-94678188D01*
X135600222Y-94660075D01*
X135583028Y-94637737D01*
X135569929Y-94607670D01*
X135560369Y-94566374D01*
X135553791Y-94510345D01*
X135549639Y-94436081D01*
X135547356Y-94340079D01*
X135546386Y-94218838D01*
X135546172Y-94068854D01*
X135546171Y-94047570D01*
X135546104Y-93904034D01*
X135545776Y-93790025D01*
X135544994Y-93702382D01*
X135543568Y-93637942D01*
X135541305Y-93593545D01*
X135538015Y-93566028D01*
X135533505Y-93552229D01*
X135527584Y-93548986D01*
X135520060Y-93553137D01*
X135516406Y-93556298D01*
X135497781Y-93576112D01*
X135461562Y-93617195D01*
X135411065Y-93675689D01*
X135349606Y-93747737D01*
X135280500Y-93829481D01*
X135234456Y-93884310D01*
X135141211Y-93994427D01*
X135064924Y-94081147D01*
X135002582Y-94146952D01*
X134951171Y-94194325D01*
X134907678Y-94225750D01*
X134869090Y-94243710D01*
X134832394Y-94250687D01*
X134794577Y-94249164D01*
X134792093Y-94248842D01*
X134707125Y-94222951D01*
X134641784Y-94173680D01*
X134599290Y-94105919D01*
X134582862Y-94024562D01*
X134592534Y-93945563D01*
X134604979Y-93925399D01*
X134636466Y-93883098D01*
X134684798Y-93821376D01*
X134747781Y-93742948D01*
X134823220Y-93650531D01*
X134908919Y-93546839D01*
X135002683Y-93434588D01*
X135074486Y-93349364D01*
X135546171Y-92791513D01*
X135546171Y-92125068D01*
X135546002Y-91981057D01*
X135545521Y-91847738D01*
X135544764Y-91728536D01*
X135543767Y-91626880D01*
X135542567Y-91546196D01*
X135541201Y-91489912D01*
X135539705Y-91461453D01*
X135539048Y-91458623D01*
X135530054Y-91462810D01*
X135505864Y-91475926D01*
X135465033Y-91498798D01*
X135406116Y-91532256D01*
X135327667Y-91577128D01*
X135228241Y-91634243D01*
X135106392Y-91704430D01*
X134960675Y-91788518D01*
X134789644Y-91887336D01*
X134591855Y-92001711D01*
X134582870Y-92006909D01*
X134379607Y-92124491D01*
X134243931Y-92498474D01*
X134198182Y-92625004D01*
X134148952Y-92761888D01*
X134099719Y-92899406D01*
X134053961Y-93027839D01*
X134015157Y-93137465D01*
X134007758Y-93158494D01*
X133973803Y-93253210D01*
X133941251Y-93340513D01*
X133912449Y-93414365D01*
X133889748Y-93468724D01*
X133876522Y-93495911D01*
X133825330Y-93552588D01*
X133758295Y-93586316D01*
X133683023Y-93596924D01*
X133607119Y-93584240D01*
X133538188Y-93548095D01*
X133494884Y-93504483D01*
X133475207Y-93472025D01*
X133463548Y-93434891D01*
X133460556Y-93389512D01*
X133466881Y-93332319D01*
X133483170Y-93259745D01*
X133510073Y-93168221D01*
X133548239Y-93054178D01*
X133598316Y-92914047D01*
X133606122Y-92892668D01*
X133644833Y-92786501D01*
X133679529Y-92690647D01*
X133708706Y-92609320D01*
X133730859Y-92546738D01*
X133744481Y-92507118D01*
X133748230Y-92494690D01*
X133735904Y-92496378D01*
X133704760Y-92511725D01*
X133686937Y-92522047D01*
X133625755Y-92558492D01*
X133546972Y-92604807D01*
X133455809Y-92657984D01*
X133357491Y-92715013D01*
X133257240Y-92772885D01*
X133160280Y-92828588D01*
X133071833Y-92879115D01*
X132997122Y-92921455D01*
X132941370Y-92952599D01*
X132914640Y-92967061D01*
X132823301Y-93000867D01*
X132739953Y-93003605D01*
X132666201Y-92975642D01*
X132603653Y-92917345D01*
X132586051Y-92892001D01*
X132563285Y-92829328D01*
X132560074Y-92754932D01*
X132575718Y-92682745D01*
X132598773Y-92639275D01*
X132620638Y-92620571D01*
X132667213Y-92588159D01*
X132734740Y-92544400D01*
X132819464Y-92491659D01*
X132917628Y-92432298D01*
X133025474Y-92368681D01*
X133069577Y-92343095D01*
X133193280Y-92271423D01*
X133290999Y-92214112D01*
X133365241Y-92169495D01*
X133418512Y-92135904D01*
X133453318Y-92111671D01*
X133472167Y-92095129D01*
X133477563Y-92084608D01*
X133472015Y-92078442D01*
X133468973Y-92077310D01*
X133441985Y-92070979D01*
X133387901Y-92060005D01*
X133311828Y-92045360D01*
X133218875Y-92028019D01*
X133114148Y-92008955D01*
X133053571Y-91998122D01*
X132944273Y-91978313D01*
X132843709Y-91959358D01*
X132757049Y-91942290D01*
X132689464Y-91928142D01*
X132646126Y-91917946D01*
X132634610Y-91914441D01*
X132566379Y-91873243D01*
X132520903Y-91816346D01*
X132497159Y-91749704D01*
X132494123Y-91679271D01*
X132510775Y-91610999D01*
X132546090Y-91550844D01*
X132599048Y-91504757D01*
X132668625Y-91478693D01*
X132710077Y-91475029D01*
X132739849Y-91477874D01*
X132798043Y-91486029D01*
X132880931Y-91498879D01*
X132984787Y-91515811D01*
X133105882Y-91536212D01*
X133240489Y-91559468D01*
X133384882Y-91584966D01*
X133460314Y-91598496D01*
X134145422Y-91722025D01*
X134375880Y-91588707D01*
X134460423Y-91539890D01*
X134565216Y-91479523D01*
X134682129Y-91412280D01*
X134803034Y-91342835D01*
X134919800Y-91275864D01*
X134953109Y-91256780D01*
X135049004Y-91201535D01*
X135134717Y-91151535D01*
X135206398Y-91109079D01*
X135260196Y-91076463D01*
X135292258Y-91055985D01*
X135299727Y-91050000D01*
X135286043Y-91040186D01*
X135247343Y-91016242D01*
X135187036Y-90980182D01*
X135108532Y-90934017D01*
X135015242Y-90879761D01*
X134910575Y-90819425D01*
X134856573Y-90788481D01*
X134739702Y-90721523D01*
X134625446Y-90655839D01*
X134518696Y-90594258D01*
X134424344Y-90539609D01*
X134347281Y-90494719D01*
X134292400Y-90462419D01*
X134281961Y-90456188D01*
X134150350Y-90377240D01*
X133462569Y-90501136D01*
X133314377Y-90527560D01*
X133174099Y-90552056D01*
X133045453Y-90574010D01*
X132932157Y-90592813D01*
X132837926Y-90607852D01*
X132766479Y-90618516D01*
X132721533Y-90624193D01*
X132709868Y-90624971D01*
X132632753Y-90610287D01*
X132568394Y-90570703D01*
X132520736Y-90512688D01*
X132493721Y-90442712D01*
X132491294Y-90367243D01*
X132512636Y-90301408D01*
X132530133Y-90269664D01*
X132548625Y-90243693D01*
X132571888Y-90222122D01*
X132603696Y-90203575D01*
X132647822Y-90186678D01*
X132708041Y-90170056D01*
X132788128Y-90152336D01*
X132891856Y-90132142D01*
X133023001Y-90108099D01*
X133063527Y-90100783D01*
X133180136Y-90079811D01*
X133285974Y-90060874D01*
X133376853Y-90044714D01*
X133448587Y-90032072D01*
X133496988Y-90023688D01*
X133517870Y-90020305D01*
X133518307Y-90020270D01*
X133506832Y-90012491D01*
X133470394Y-89990488D01*
X133412408Y-89956261D01*
X133336291Y-89911812D01*
X133245459Y-89859141D01*
X133143327Y-89800250D01*
X133110245Y-89781238D01*
X132978874Y-89705750D01*
X132872892Y-89644544D01*
X132789338Y-89595630D01*
X132725251Y-89557016D01*
X132677669Y-89526708D01*
X132643631Y-89502716D01*
X132620176Y-89483048D01*
X132604343Y-89465710D01*
X132593170Y-89448713D01*
X132583697Y-89430062D01*
X132581584Y-89425619D01*
X132559154Y-89346050D01*
X132564142Y-89268799D01*
X132592611Y-89199280D01*
X132640625Y-89142908D01*
X132704248Y-89105097D01*
X132779543Y-89091262D01*
X132821722Y-89095287D01*
X132848638Y-89105821D01*
X132899734Y-89130855D01*
X132971051Y-89168257D01*
X133058625Y-89215892D01*
X133158498Y-89271629D01*
X133266707Y-89333333D01*
X133306918Y-89356584D01*
X133414507Y-89418825D01*
X133512634Y-89475209D01*
X133597841Y-89523778D01*
X133666672Y-89562577D01*
X133715667Y-89589649D01*
X133741370Y-89603038D01*
X133744399Y-89604103D01*
X133740256Y-89588345D01*
X133726375Y-89545855D01*
X133704138Y-89480643D01*
X133674929Y-89396716D01*
X133640131Y-89298083D01*
X133601128Y-89188753D01*
X133599804Y-89185063D01*
X133550814Y-89047065D01*
X133512901Y-88935777D01*
X133485402Y-88847397D01*
X133467658Y-88778124D01*
X133459006Y-88724158D01*
X133458787Y-88681699D01*
X133466338Y-88646944D01*
X133480999Y-88616094D01*
X133496744Y-88592571D01*
X133550998Y-88542431D01*
X133622002Y-88509431D01*
X133681886Y-88500193D01*
X133739767Y-88510321D01*
X133801092Y-88536228D01*
X133852488Y-88571198D01*
X133875297Y-88597312D01*
X133885155Y-88619778D01*
X133904660Y-88669628D01*
X133932542Y-88743430D01*
X133967532Y-88837753D01*
X134008363Y-88949168D01*
X134053765Y-89074243D01*
X134102470Y-89209547D01*
X134125142Y-89272899D01*
X134174718Y-89411557D01*
X134221254Y-89541468D01*
X134263519Y-89659216D01*
X134300286Y-89761386D01*
X134330323Y-89844565D01*
X134352401Y-89905336D01*
X134365290Y-89940286D01*
X134367781Y-89946718D01*
X134386974Y-89967641D01*
X134428585Y-89999345D01*
X134486172Y-90037261D01*
X134542904Y-90070977D01*
X134651042Y-90132549D01*
X134780667Y-90206785D01*
X134925061Y-90289819D01*
X135077510Y-90377787D01*
X135231295Y-90466824D01*
X135292825Y-90502538D01*
X135362169Y-90542647D01*
X135424779Y-90578551D01*
X135473093Y-90605931D01*
X135497136Y-90619205D01*
X135537999Y-90640928D01*
X135546541Y-89313358D01*
X135456503Y-89203304D01*
X135431140Y-89172447D01*
X135402213Y-89137575D01*
X135367801Y-89096418D01*
X135325981Y-89046705D01*
X135274832Y-88986166D01*
X135212432Y-88912530D01*
X135136858Y-88823528D01*
X135046191Y-88716889D01*
X134938506Y-88590343D01*
X134811884Y-88441619D01*
X134786132Y-88411380D01*
X134727640Y-88341397D01*
X134675701Y-88276835D01*
X134634621Y-88223228D01*
X134608706Y-88186113D01*
X134602989Y-88175940D01*
X134582891Y-88097663D01*
X134590481Y-88022703D01*
X134621154Y-87955724D01*
X134670301Y-87901389D01*
X134733317Y-87864363D01*
X134805594Y-87849312D01*
X134882524Y-87860898D01*
X134905194Y-87869975D01*
X134944849Y-87897129D01*
X135000994Y-87949799D01*
X135074204Y-88028565D01*
X135153893Y-88120746D01*
X135223646Y-88203324D01*
X135294424Y-88286983D01*
X135360118Y-88364510D01*
X135414615Y-88428690D01*
X135439929Y-88458413D01*
X135537999Y-88573346D01*
X135546171Y-88042336D01*
X135548629Y-87889319D01*
X135551183Y-87765505D01*
X135554396Y-87667413D01*
X135558831Y-87591557D01*
X135565053Y-87534457D01*
X135573624Y-87492628D01*
X135585108Y-87462588D01*
X135600067Y-87440854D01*
X135619066Y-87423943D01*
X135642667Y-87408372D01*
X135649370Y-87404270D01*
X135723873Y-87375926D01*
X135803626Y-87373651D01*
X135879779Y-87395494D01*
G37*
%TO.C,U4*%
X151050000Y-83700000D02*
X158350000Y-83700000D01*
X158350000Y-83700000D02*
X158350000Y-82550000D01*
X151050000Y-78200000D02*
X158350000Y-78200000D01*
%TO.C,G\u002A\u002A\u002A*%
G36*
X129058108Y-69114997D02*
G01*
X129095248Y-68830489D01*
X129168340Y-68551179D01*
X129277480Y-68280783D01*
X129422768Y-68023016D01*
X129604300Y-67781596D01*
X129822173Y-67560239D01*
X129946960Y-67456545D01*
X130130257Y-67314360D01*
X130122204Y-67268689D01*
X130096901Y-67125186D01*
X130078997Y-66992098D01*
X130078985Y-66951903D01*
X130257420Y-66951903D01*
X130261567Y-67015071D01*
X130272442Y-67083341D01*
X130299609Y-67237408D01*
X130395243Y-67189206D01*
X130459766Y-67161602D01*
X130552321Y-67128122D01*
X130657353Y-67094233D01*
X130707801Y-67079378D01*
X130882670Y-67038383D01*
X131069237Y-67009648D01*
X131254327Y-66994237D01*
X131424768Y-66993217D01*
X131567389Y-67007653D01*
X131575540Y-67009182D01*
X131592788Y-67004617D01*
X131597995Y-66976475D01*
X131591656Y-66916745D01*
X131584060Y-66871094D01*
X131567781Y-66790705D01*
X131550792Y-66725444D01*
X131538369Y-66692808D01*
X131491190Y-66654528D01*
X131407319Y-66628306D01*
X131293495Y-66614301D01*
X131156463Y-66612670D01*
X131002963Y-66623575D01*
X130839737Y-66647174D01*
X130714621Y-66673388D01*
X130563905Y-66712949D01*
X130451219Y-66751497D01*
X130369752Y-66792133D01*
X130312687Y-66837959D01*
X130288608Y-66867391D01*
X130266077Y-66907435D01*
X130257420Y-66951903D01*
X130078985Y-66951903D01*
X130078967Y-66893980D01*
X130086625Y-66852133D01*
X130127477Y-66768544D01*
X130196541Y-66687413D01*
X130279138Y-66624938D01*
X130303751Y-66612525D01*
X130334937Y-66593193D01*
X130347457Y-66562832D01*
X130346365Y-66536253D01*
X130345186Y-66507541D01*
X130341324Y-66477639D01*
X130341701Y-66437025D01*
X130520097Y-66437025D01*
X130524836Y-66504784D01*
X130815075Y-66465040D01*
X130924272Y-66448639D01*
X131016370Y-66432068D01*
X131082659Y-66417096D01*
X131114431Y-66405491D01*
X131115772Y-66403981D01*
X131114785Y-66370668D01*
X131098642Y-66317024D01*
X131095294Y-66308743D01*
X131035318Y-66217701D01*
X130950526Y-66156986D01*
X130851278Y-66129001D01*
X130747938Y-66136152D01*
X130650867Y-66180842D01*
X130626678Y-66200007D01*
X130551802Y-66290851D01*
X130520441Y-66393074D01*
X130520097Y-66437025D01*
X130341701Y-66437025D01*
X130342583Y-66341886D01*
X130381269Y-66220027D01*
X130450906Y-66115925D01*
X130545019Y-66033446D01*
X130657131Y-65976451D01*
X130780765Y-65948805D01*
X130909445Y-65954373D01*
X131036695Y-65997016D01*
X131092242Y-66029654D01*
X131161763Y-66091088D01*
X131225784Y-66172197D01*
X131276084Y-66259637D01*
X131304441Y-66340065D01*
X131307531Y-66379062D01*
X131314556Y-66407400D01*
X131347762Y-66425839D01*
X131413159Y-66439311D01*
X131503591Y-66457287D01*
X131569545Y-66483791D01*
X131631564Y-66528325D01*
X131660069Y-66553496D01*
X131689920Y-66585199D01*
X131711852Y-66623487D01*
X131729826Y-66679151D01*
X131747804Y-66762982D01*
X131758583Y-66821938D01*
X131796443Y-67035114D01*
X132003856Y-67100499D01*
X132294298Y-67214858D01*
X132561720Y-67365668D01*
X132803683Y-67549321D01*
X133017752Y-67762213D01*
X133201487Y-68000735D01*
X133352451Y-68261284D01*
X133468206Y-68540251D01*
X133546315Y-68834030D01*
X133584340Y-69139016D01*
X133581249Y-69434096D01*
X133535642Y-69743375D01*
X133448561Y-70041133D01*
X133322686Y-70323190D01*
X133160699Y-70585372D01*
X132965278Y-70823498D01*
X132739104Y-71033392D01*
X132484859Y-71210877D01*
X132415930Y-71250407D01*
X132189264Y-71356860D01*
X131941361Y-71441540D01*
X131686194Y-71500890D01*
X131437734Y-71531353D01*
X131300227Y-71534343D01*
X130986355Y-71508610D01*
X130691565Y-71444205D01*
X130409903Y-71339224D01*
X130135417Y-71191761D01*
X130043529Y-71132190D01*
X129796571Y-70939895D01*
X129584785Y-70723066D01*
X129408265Y-70485419D01*
X129267113Y-70230672D01*
X129161422Y-69962540D01*
X129091293Y-69684739D01*
X129077556Y-69571650D01*
X129056823Y-69400986D01*
X129057145Y-69329319D01*
X129234844Y-69329319D01*
X129255439Y-69540285D01*
X129294502Y-69752737D01*
X129349214Y-69950743D01*
X129405401Y-70094688D01*
X129523610Y-70322137D01*
X129655994Y-70520485D01*
X129757005Y-70644217D01*
X129968922Y-70852494D01*
X130206071Y-71026091D01*
X130463692Y-71163787D01*
X130737020Y-71264367D01*
X131021293Y-71326612D01*
X131311748Y-71349306D01*
X131603622Y-71331229D01*
X131892153Y-71271166D01*
X132031783Y-71225705D01*
X132304817Y-71102991D01*
X132551266Y-70947027D01*
X132769618Y-70761676D01*
X132958363Y-70550798D01*
X133115989Y-70318256D01*
X133240986Y-70067911D01*
X133331841Y-69803627D01*
X133387044Y-69529262D01*
X133405084Y-69248680D01*
X133384447Y-68965743D01*
X133323626Y-68684312D01*
X133221107Y-68408249D01*
X133172969Y-68309514D01*
X133046403Y-68093503D01*
X132904853Y-67907235D01*
X132769943Y-67766280D01*
X132563986Y-67595168D01*
X132331749Y-67445854D01*
X132085685Y-67325270D01*
X131838248Y-67240342D01*
X131813063Y-67233867D01*
X131544022Y-67188886D01*
X131262713Y-67182149D01*
X130977929Y-67212094D01*
X130698466Y-67277159D01*
X130433119Y-67375783D01*
X130190686Y-67506405D01*
X130158339Y-67527650D01*
X129981966Y-67665505D01*
X129808549Y-67836177D01*
X129647942Y-68027978D01*
X129510002Y-68229221D01*
X129411034Y-68413870D01*
X129352134Y-68567152D01*
X129300566Y-68747087D01*
X129260777Y-68935387D01*
X129237213Y-69113760D01*
X129235539Y-69135771D01*
X129234844Y-69329319D01*
X129057145Y-69329319D01*
X129058108Y-69114997D01*
G37*
G36*
X130988215Y-70449422D02*
G01*
X130868118Y-70448196D01*
X130746074Y-70442296D01*
X130640497Y-70432801D01*
X130596170Y-70426446D01*
X130504250Y-70407723D01*
X131407384Y-70407723D01*
X131438665Y-70585128D01*
X131660421Y-70546026D01*
X131629140Y-70368621D01*
X131407384Y-70407723D01*
X130504250Y-70407723D01*
X130468171Y-70400374D01*
X130379379Y-70370573D01*
X130327872Y-70331650D01*
X130311728Y-70278216D01*
X130312455Y-70275135D01*
X130319732Y-70244283D01*
X130487424Y-70244283D01*
X130650614Y-70266709D01*
X130812007Y-70283208D01*
X130971849Y-70286695D01*
X131140880Y-70276493D01*
X131329843Y-70251924D01*
X131549478Y-70212308D01*
X131566675Y-70208874D01*
X131728034Y-70174258D01*
X131875090Y-70138465D01*
X131997982Y-70104071D01*
X132086851Y-70073652D01*
X132091275Y-70071849D01*
X132193517Y-70026766D01*
X132284826Y-69981348D01*
X132357147Y-69940120D01*
X132402428Y-69907611D01*
X132413726Y-69890601D01*
X132395877Y-69872247D01*
X132348406Y-69831653D01*
X132277498Y-69773897D01*
X132189336Y-69704055D01*
X132134986Y-69661753D01*
X132040925Y-69587747D01*
X131961836Y-69523138D01*
X131903579Y-69472906D01*
X131872007Y-69442030D01*
X131868208Y-69434984D01*
X131891650Y-69419384D01*
X131944911Y-69390482D01*
X132017067Y-69354172D01*
X132026797Y-69349442D01*
X132099710Y-69311388D01*
X132153868Y-69277921D01*
X132178794Y-69255605D01*
X132179335Y-69253903D01*
X132163500Y-69232859D01*
X132117703Y-69189998D01*
X132047993Y-69130556D01*
X131960415Y-69059765D01*
X131905198Y-69016635D01*
X131809835Y-68942291D01*
X131728268Y-68877279D01*
X131666671Y-68826634D01*
X131631220Y-68795391D01*
X131625081Y-68788209D01*
X131642239Y-68771943D01*
X131689202Y-68745884D01*
X131728505Y-68727679D01*
X131787981Y-68699070D01*
X131825105Y-68675868D01*
X131831646Y-68667198D01*
X131813573Y-68649316D01*
X131765725Y-68609412D01*
X131694344Y-68552500D01*
X131605671Y-68483594D01*
X131551945Y-68442515D01*
X131456290Y-68368698D01*
X131374487Y-68303505D01*
X131312817Y-68252105D01*
X131277557Y-68219665D01*
X131271705Y-68211832D01*
X131288186Y-68193194D01*
X131328828Y-68179187D01*
X131391456Y-68163873D01*
X131424466Y-68145882D01*
X131426272Y-68120349D01*
X131395289Y-68082409D01*
X131329933Y-68027198D01*
X131262384Y-67975292D01*
X131066223Y-67826960D01*
X130932249Y-68033503D01*
X130871072Y-68130507D01*
X130836215Y-68195930D01*
X130827880Y-68234881D01*
X130846268Y-68252471D01*
X130891585Y-68253809D01*
X130940754Y-68247615D01*
X130986283Y-68246795D01*
X131005297Y-68257052D01*
X130994905Y-68281529D01*
X130964085Y-68336813D01*
X130916939Y-68415944D01*
X130857568Y-68511960D01*
X130821069Y-68569633D01*
X130756671Y-68671655D01*
X130702056Y-68760218D01*
X130661347Y-68828471D01*
X130638671Y-68869562D01*
X130635382Y-68878131D01*
X130656771Y-68887592D01*
X130709592Y-68896047D01*
X130752777Y-68899726D01*
X130818516Y-68906260D01*
X130861462Y-68915346D01*
X130870664Y-68921233D01*
X130860018Y-68944267D01*
X130829126Y-68998356D01*
X130782068Y-69076656D01*
X130722924Y-69172324D01*
X130685568Y-69231688D01*
X130621900Y-69334564D01*
X130568938Y-69424621D01*
X130530571Y-69494871D01*
X130510693Y-69538330D01*
X130509113Y-69548408D01*
X130535301Y-69560520D01*
X130594442Y-69573518D01*
X130674584Y-69584870D01*
X130688395Y-69586348D01*
X130769673Y-69596822D01*
X130830783Y-69608784D01*
X130860341Y-69619915D01*
X130861414Y-69621575D01*
X130851742Y-69646464D01*
X130821937Y-69700964D01*
X130776611Y-69777061D01*
X130720377Y-69866738D01*
X130719786Y-69867659D01*
X130657852Y-69964797D01*
X130600816Y-70055335D01*
X130555449Y-70128457D01*
X130530443Y-70170007D01*
X130487424Y-70244283D01*
X130319732Y-70244283D01*
X130329028Y-70204875D01*
X130377847Y-70106237D01*
X130443309Y-69997490D01*
X130498488Y-69907919D01*
X130543145Y-69832500D01*
X130572704Y-69779173D01*
X130582591Y-69755886D01*
X130560823Y-69742855D01*
X130508083Y-69723405D01*
X130453924Y-69706970D01*
X130379570Y-69682729D01*
X130337563Y-69657350D01*
X130315818Y-69622346D01*
X130310811Y-69606446D01*
X130306581Y-69573457D01*
X130314112Y-69534879D01*
X130336826Y-69483039D01*
X130378143Y-69410267D01*
X130441485Y-69308892D01*
X130448219Y-69298360D01*
X130511604Y-69198361D01*
X130552881Y-69129364D01*
X130574754Y-69084784D01*
X130579924Y-69058038D01*
X130571095Y-69042542D01*
X130556651Y-69034220D01*
X130489410Y-68999887D01*
X130453854Y-68969958D01*
X130438893Y-68934749D01*
X130438135Y-68930750D01*
X130446646Y-68895488D01*
X130475535Y-68831569D01*
X130520336Y-68747903D01*
X130576582Y-68653394D01*
X130579866Y-68648143D01*
X130729380Y-68409678D01*
X130668366Y-68372007D01*
X130623449Y-68335075D01*
X130601158Y-68299205D01*
X130610739Y-68265765D01*
X130643278Y-68199669D01*
X130696204Y-68105366D01*
X130766949Y-67987298D01*
X130852940Y-67849913D01*
X130929741Y-67730983D01*
X130974165Y-67677234D01*
X131019755Y-67643079D01*
X131033402Y-67638394D01*
X131053875Y-67636783D01*
X131076868Y-67641618D01*
X131107573Y-67656317D01*
X131151185Y-67684301D01*
X131212898Y-67728991D01*
X131297907Y-67793804D01*
X131411405Y-67882162D01*
X131452481Y-67914316D01*
X131552696Y-67995870D01*
X131618247Y-68058627D01*
X131652212Y-68108359D01*
X131657667Y-68150843D01*
X131637690Y-68191854D01*
X131614531Y-68218407D01*
X131601844Y-68235571D01*
X131602342Y-68254327D01*
X131620817Y-68280069D01*
X131662057Y-68318194D01*
X131730852Y-68374098D01*
X131802653Y-68430348D01*
X131888834Y-68500317D01*
X131960965Y-68564269D01*
X132011855Y-68615440D01*
X132034310Y-68647066D01*
X132034652Y-68648486D01*
X132025390Y-68692385D01*
X131992802Y-68746219D01*
X131982840Y-68758052D01*
X131923373Y-68824206D01*
X132151681Y-68998602D01*
X132248685Y-69074081D01*
X132314701Y-69129703D01*
X132355574Y-69171522D01*
X132377153Y-69205588D01*
X132385286Y-69237954D01*
X132385528Y-69240618D01*
X132382825Y-69284501D01*
X132360715Y-69322077D01*
X132310746Y-69365458D01*
X132285427Y-69384027D01*
X132228747Y-69427975D01*
X132191340Y-69463307D01*
X132182090Y-69478763D01*
X132200007Y-69498976D01*
X132247009Y-69539784D01*
X132315855Y-69595166D01*
X132395233Y-69656044D01*
X132508992Y-69745817D01*
X132583662Y-69818632D01*
X132619183Y-69880011D01*
X132615492Y-69935470D01*
X132572526Y-69990529D01*
X132490222Y-70050708D01*
X132390130Y-70109537D01*
X132303828Y-70152962D01*
X132193200Y-70201996D01*
X132076834Y-70248583D01*
X132027991Y-70266449D01*
X131807744Y-70344138D01*
X131865197Y-70669974D01*
X131768179Y-70687081D01*
X131690900Y-70702570D01*
X131621306Y-70719454D01*
X131608750Y-70723058D01*
X131550864Y-70736123D01*
X131470140Y-70749154D01*
X131417291Y-70755677D01*
X131288241Y-70769426D01*
X131261260Y-70616409D01*
X131231258Y-70446259D01*
X130988215Y-70449422D01*
G37*
G36*
X131708108Y-45039997D02*
G01*
X131745248Y-44755489D01*
X131818340Y-44476179D01*
X131927480Y-44205783D01*
X132072768Y-43948016D01*
X132254300Y-43706596D01*
X132472173Y-43485239D01*
X132596960Y-43381545D01*
X132780257Y-43239360D01*
X132772204Y-43193689D01*
X132746901Y-43050186D01*
X132728997Y-42917098D01*
X132728985Y-42876903D01*
X132907420Y-42876903D01*
X132911567Y-42940071D01*
X132922442Y-43008341D01*
X132949609Y-43162408D01*
X133045243Y-43114206D01*
X133109766Y-43086602D01*
X133202321Y-43053122D01*
X133307353Y-43019233D01*
X133357801Y-43004378D01*
X133532670Y-42963383D01*
X133719237Y-42934648D01*
X133904327Y-42919237D01*
X134074768Y-42918217D01*
X134217389Y-42932653D01*
X134225540Y-42934182D01*
X134242788Y-42929617D01*
X134247995Y-42901475D01*
X134241656Y-42841745D01*
X134234060Y-42796094D01*
X134217781Y-42715705D01*
X134200792Y-42650444D01*
X134188369Y-42617808D01*
X134141190Y-42579528D01*
X134057319Y-42553306D01*
X133943495Y-42539301D01*
X133806463Y-42537670D01*
X133652963Y-42548575D01*
X133489737Y-42572174D01*
X133364621Y-42598388D01*
X133213905Y-42637949D01*
X133101219Y-42676497D01*
X133019752Y-42717133D01*
X132962687Y-42762959D01*
X132938608Y-42792391D01*
X132916077Y-42832435D01*
X132907420Y-42876903D01*
X132728985Y-42876903D01*
X132728967Y-42818980D01*
X132736625Y-42777133D01*
X132777477Y-42693544D01*
X132846541Y-42612413D01*
X132929138Y-42549938D01*
X132953751Y-42537525D01*
X132984937Y-42518193D01*
X132997457Y-42487832D01*
X132996365Y-42461253D01*
X132995186Y-42432541D01*
X132991324Y-42402639D01*
X132991701Y-42362025D01*
X133170097Y-42362025D01*
X133174836Y-42429784D01*
X133465075Y-42390040D01*
X133574272Y-42373639D01*
X133666370Y-42357068D01*
X133732659Y-42342096D01*
X133764431Y-42330491D01*
X133765772Y-42328981D01*
X133764785Y-42295668D01*
X133748642Y-42242024D01*
X133745294Y-42233743D01*
X133685318Y-42142701D01*
X133600526Y-42081986D01*
X133501278Y-42054001D01*
X133397938Y-42061152D01*
X133300867Y-42105842D01*
X133276678Y-42125007D01*
X133201802Y-42215851D01*
X133170441Y-42318074D01*
X133170097Y-42362025D01*
X132991701Y-42362025D01*
X132992583Y-42266886D01*
X133031269Y-42145027D01*
X133100906Y-42040925D01*
X133195019Y-41958446D01*
X133307131Y-41901451D01*
X133430765Y-41873805D01*
X133559445Y-41879373D01*
X133686695Y-41922016D01*
X133742242Y-41954654D01*
X133811763Y-42016088D01*
X133875784Y-42097197D01*
X133926084Y-42184637D01*
X133954441Y-42265065D01*
X133957531Y-42304062D01*
X133964556Y-42332400D01*
X133997762Y-42350839D01*
X134063159Y-42364311D01*
X134153591Y-42382287D01*
X134219545Y-42408791D01*
X134281564Y-42453325D01*
X134310069Y-42478496D01*
X134339920Y-42510199D01*
X134361852Y-42548487D01*
X134379826Y-42604151D01*
X134397804Y-42687982D01*
X134408583Y-42746938D01*
X134446443Y-42960114D01*
X134653856Y-43025499D01*
X134944298Y-43139858D01*
X135211720Y-43290668D01*
X135453683Y-43474321D01*
X135667752Y-43687213D01*
X135851487Y-43925735D01*
X136002451Y-44186284D01*
X136118206Y-44465251D01*
X136196315Y-44759030D01*
X136234340Y-45064016D01*
X136231249Y-45359096D01*
X136185642Y-45668375D01*
X136098561Y-45966133D01*
X135972686Y-46248190D01*
X135810699Y-46510372D01*
X135615278Y-46748498D01*
X135389104Y-46958392D01*
X135134859Y-47135877D01*
X135065930Y-47175407D01*
X134839264Y-47281860D01*
X134591361Y-47366540D01*
X134336194Y-47425890D01*
X134087734Y-47456353D01*
X133950227Y-47459343D01*
X133636355Y-47433610D01*
X133341565Y-47369205D01*
X133059903Y-47264224D01*
X132785417Y-47116761D01*
X132693529Y-47057190D01*
X132446571Y-46864895D01*
X132234785Y-46648066D01*
X132058265Y-46410419D01*
X131917113Y-46155672D01*
X131811422Y-45887540D01*
X131741293Y-45609739D01*
X131727556Y-45496650D01*
X131706823Y-45325986D01*
X131707145Y-45254319D01*
X131884844Y-45254319D01*
X131905439Y-45465285D01*
X131944502Y-45677737D01*
X131999214Y-45875743D01*
X132055401Y-46019688D01*
X132173610Y-46247137D01*
X132305994Y-46445485D01*
X132407005Y-46569217D01*
X132618922Y-46777494D01*
X132856071Y-46951091D01*
X133113692Y-47088787D01*
X133387020Y-47189367D01*
X133671293Y-47251612D01*
X133961748Y-47274306D01*
X134253622Y-47256229D01*
X134542153Y-47196166D01*
X134681783Y-47150705D01*
X134954817Y-47027991D01*
X135201266Y-46872027D01*
X135419618Y-46686676D01*
X135608363Y-46475798D01*
X135765989Y-46243256D01*
X135890986Y-45992911D01*
X135981841Y-45728627D01*
X136037044Y-45454262D01*
X136055084Y-45173680D01*
X136034447Y-44890743D01*
X135973626Y-44609312D01*
X135871107Y-44333249D01*
X135822969Y-44234514D01*
X135696403Y-44018503D01*
X135554853Y-43832235D01*
X135419943Y-43691280D01*
X135213986Y-43520168D01*
X134981749Y-43370854D01*
X134735685Y-43250270D01*
X134488248Y-43165342D01*
X134463063Y-43158867D01*
X134194022Y-43113886D01*
X133912713Y-43107149D01*
X133627929Y-43137094D01*
X133348466Y-43202159D01*
X133083119Y-43300783D01*
X132840686Y-43431405D01*
X132808339Y-43452650D01*
X132631966Y-43590505D01*
X132458549Y-43761177D01*
X132297942Y-43952978D01*
X132160002Y-44154221D01*
X132061034Y-44338870D01*
X132002134Y-44492152D01*
X131950566Y-44672087D01*
X131910777Y-44860387D01*
X131887213Y-45038760D01*
X131885539Y-45060771D01*
X131884844Y-45254319D01*
X131707145Y-45254319D01*
X131708108Y-45039997D01*
G37*
G36*
X133638215Y-46374422D02*
G01*
X133518118Y-46373196D01*
X133396074Y-46367296D01*
X133290497Y-46357801D01*
X133246170Y-46351446D01*
X133154250Y-46332723D01*
X134057384Y-46332723D01*
X134088665Y-46510128D01*
X134310421Y-46471026D01*
X134279140Y-46293621D01*
X134057384Y-46332723D01*
X133154250Y-46332723D01*
X133118171Y-46325374D01*
X133029379Y-46295573D01*
X132977872Y-46256650D01*
X132961728Y-46203216D01*
X132962455Y-46200135D01*
X132969732Y-46169283D01*
X133137424Y-46169283D01*
X133300614Y-46191709D01*
X133462007Y-46208208D01*
X133621849Y-46211695D01*
X133790880Y-46201493D01*
X133979843Y-46176924D01*
X134199478Y-46137308D01*
X134216675Y-46133874D01*
X134378034Y-46099258D01*
X134525090Y-46063465D01*
X134647982Y-46029071D01*
X134736851Y-45998652D01*
X134741275Y-45996849D01*
X134843517Y-45951766D01*
X134934826Y-45906348D01*
X135007147Y-45865120D01*
X135052428Y-45832611D01*
X135063726Y-45815601D01*
X135045877Y-45797247D01*
X134998406Y-45756653D01*
X134927498Y-45698897D01*
X134839336Y-45629055D01*
X134784986Y-45586753D01*
X134690925Y-45512747D01*
X134611836Y-45448138D01*
X134553579Y-45397906D01*
X134522007Y-45367030D01*
X134518208Y-45359984D01*
X134541650Y-45344384D01*
X134594911Y-45315482D01*
X134667067Y-45279172D01*
X134676797Y-45274442D01*
X134749710Y-45236388D01*
X134803868Y-45202921D01*
X134828794Y-45180605D01*
X134829335Y-45178903D01*
X134813500Y-45157859D01*
X134767703Y-45114998D01*
X134697993Y-45055556D01*
X134610415Y-44984765D01*
X134555198Y-44941635D01*
X134459835Y-44867291D01*
X134378268Y-44802279D01*
X134316671Y-44751634D01*
X134281220Y-44720391D01*
X134275081Y-44713209D01*
X134292239Y-44696943D01*
X134339202Y-44670884D01*
X134378505Y-44652679D01*
X134437981Y-44624070D01*
X134475105Y-44600868D01*
X134481646Y-44592198D01*
X134463573Y-44574316D01*
X134415725Y-44534412D01*
X134344344Y-44477500D01*
X134255671Y-44408594D01*
X134201945Y-44367515D01*
X134106290Y-44293698D01*
X134024487Y-44228505D01*
X133962817Y-44177105D01*
X133927557Y-44144665D01*
X133921705Y-44136832D01*
X133938186Y-44118194D01*
X133978828Y-44104187D01*
X134041456Y-44088873D01*
X134074466Y-44070882D01*
X134076272Y-44045349D01*
X134045289Y-44007409D01*
X133979933Y-43952198D01*
X133912384Y-43900292D01*
X133716223Y-43751960D01*
X133582249Y-43958503D01*
X133521072Y-44055507D01*
X133486215Y-44120930D01*
X133477880Y-44159881D01*
X133496268Y-44177471D01*
X133541585Y-44178809D01*
X133590754Y-44172615D01*
X133636283Y-44171795D01*
X133655297Y-44182052D01*
X133644905Y-44206529D01*
X133614085Y-44261813D01*
X133566939Y-44340944D01*
X133507568Y-44436960D01*
X133471069Y-44494633D01*
X133406671Y-44596655D01*
X133352056Y-44685218D01*
X133311347Y-44753471D01*
X133288671Y-44794562D01*
X133285382Y-44803131D01*
X133306771Y-44812592D01*
X133359592Y-44821047D01*
X133402777Y-44824726D01*
X133468516Y-44831260D01*
X133511462Y-44840346D01*
X133520664Y-44846233D01*
X133510018Y-44869267D01*
X133479126Y-44923356D01*
X133432068Y-45001656D01*
X133372924Y-45097324D01*
X133335568Y-45156688D01*
X133271900Y-45259564D01*
X133218938Y-45349621D01*
X133180571Y-45419871D01*
X133160693Y-45463330D01*
X133159113Y-45473408D01*
X133185301Y-45485520D01*
X133244442Y-45498518D01*
X133324584Y-45509870D01*
X133338395Y-45511348D01*
X133419673Y-45521822D01*
X133480783Y-45533784D01*
X133510341Y-45544915D01*
X133511414Y-45546575D01*
X133501742Y-45571464D01*
X133471937Y-45625964D01*
X133426611Y-45702061D01*
X133370377Y-45791738D01*
X133369786Y-45792659D01*
X133307852Y-45889797D01*
X133250816Y-45980335D01*
X133205449Y-46053457D01*
X133180443Y-46095007D01*
X133137424Y-46169283D01*
X132969732Y-46169283D01*
X132979028Y-46129875D01*
X133027847Y-46031237D01*
X133093309Y-45922490D01*
X133148488Y-45832919D01*
X133193145Y-45757500D01*
X133222704Y-45704173D01*
X133232591Y-45680886D01*
X133210823Y-45667855D01*
X133158083Y-45648405D01*
X133103924Y-45631970D01*
X133029570Y-45607729D01*
X132987563Y-45582350D01*
X132965818Y-45547346D01*
X132960811Y-45531446D01*
X132956581Y-45498457D01*
X132964112Y-45459879D01*
X132986826Y-45408039D01*
X133028143Y-45335267D01*
X133091485Y-45233892D01*
X133098219Y-45223360D01*
X133161604Y-45123361D01*
X133202881Y-45054364D01*
X133224754Y-45009784D01*
X133229924Y-44983038D01*
X133221095Y-44967542D01*
X133206651Y-44959220D01*
X133139410Y-44924887D01*
X133103854Y-44894958D01*
X133088893Y-44859749D01*
X133088135Y-44855750D01*
X133096646Y-44820488D01*
X133125535Y-44756569D01*
X133170336Y-44672903D01*
X133226582Y-44578394D01*
X133229866Y-44573143D01*
X133379380Y-44334678D01*
X133318366Y-44297007D01*
X133273449Y-44260075D01*
X133251158Y-44224205D01*
X133260739Y-44190765D01*
X133293278Y-44124669D01*
X133346204Y-44030366D01*
X133416949Y-43912298D01*
X133502940Y-43774913D01*
X133579741Y-43655983D01*
X133624165Y-43602234D01*
X133669755Y-43568079D01*
X133683402Y-43563394D01*
X133703875Y-43561783D01*
X133726868Y-43566618D01*
X133757573Y-43581317D01*
X133801185Y-43609301D01*
X133862898Y-43653991D01*
X133947907Y-43718804D01*
X134061405Y-43807162D01*
X134102481Y-43839316D01*
X134202696Y-43920870D01*
X134268247Y-43983627D01*
X134302212Y-44033359D01*
X134307667Y-44075843D01*
X134287690Y-44116854D01*
X134264531Y-44143407D01*
X134251844Y-44160571D01*
X134252342Y-44179327D01*
X134270817Y-44205069D01*
X134312057Y-44243194D01*
X134380852Y-44299098D01*
X134452653Y-44355348D01*
X134538834Y-44425317D01*
X134610965Y-44489269D01*
X134661855Y-44540440D01*
X134684310Y-44572066D01*
X134684652Y-44573486D01*
X134675390Y-44617385D01*
X134642802Y-44671219D01*
X134632840Y-44683052D01*
X134573373Y-44749206D01*
X134801681Y-44923602D01*
X134898685Y-44999081D01*
X134964701Y-45054703D01*
X135005574Y-45096522D01*
X135027153Y-45130588D01*
X135035286Y-45162954D01*
X135035528Y-45165618D01*
X135032825Y-45209501D01*
X135010715Y-45247077D01*
X134960746Y-45290458D01*
X134935427Y-45309027D01*
X134878747Y-45352975D01*
X134841340Y-45388307D01*
X134832090Y-45403763D01*
X134850007Y-45423976D01*
X134897009Y-45464784D01*
X134965855Y-45520166D01*
X135045233Y-45581044D01*
X135158992Y-45670817D01*
X135233662Y-45743632D01*
X135269183Y-45805011D01*
X135265492Y-45860470D01*
X135222526Y-45915529D01*
X135140222Y-45975708D01*
X135040130Y-46034537D01*
X134953828Y-46077962D01*
X134843200Y-46126996D01*
X134726834Y-46173583D01*
X134677991Y-46191449D01*
X134457744Y-46269138D01*
X134515197Y-46594974D01*
X134418179Y-46612081D01*
X134340900Y-46627570D01*
X134271306Y-46644454D01*
X134258750Y-46648058D01*
X134200864Y-46661123D01*
X134120140Y-46674154D01*
X134067291Y-46680677D01*
X133938241Y-46694426D01*
X133911260Y-46541409D01*
X133881258Y-46371259D01*
X133638215Y-46374422D01*
G37*
G36*
X153662016Y-100914442D02*
G01*
X153549581Y-100872214D01*
X153436915Y-100824928D01*
X153340952Y-100779896D01*
X153301472Y-100758764D01*
X153190109Y-100690485D01*
X153116865Y-100632113D01*
X153081776Y-100577921D01*
X153083310Y-100550393D01*
X153261588Y-100550393D01*
X153407266Y-100627281D01*
X153553283Y-100697985D01*
X153702292Y-100755930D01*
X153864619Y-100804156D01*
X154050590Y-100845697D01*
X154270528Y-100883590D01*
X154287862Y-100886245D01*
X154451330Y-100908904D01*
X154601759Y-100925566D01*
X154729003Y-100935278D01*
X154822917Y-100937089D01*
X154827691Y-100936907D01*
X154939186Y-100929513D01*
X155040522Y-100918063D01*
X155122583Y-100904057D01*
X155176252Y-100888995D01*
X155192686Y-100876875D01*
X155182191Y-100853523D01*
X155151467Y-100799141D01*
X155104589Y-100720616D01*
X155045630Y-100624833D01*
X155009027Y-100566493D01*
X154945950Y-100464780D01*
X154893728Y-100377017D01*
X154856164Y-100309890D01*
X154837057Y-100270077D01*
X154835897Y-100262157D01*
X154863261Y-100255515D01*
X154923195Y-100246572D01*
X155003418Y-100237131D01*
X155014179Y-100236014D01*
X155095710Y-100225193D01*
X155158049Y-100212267D01*
X155189104Y-100199822D01*
X155190195Y-100198408D01*
X155182511Y-100173217D01*
X155154136Y-100117278D01*
X155108960Y-100037578D01*
X155050876Y-99941103D01*
X155013740Y-99881688D01*
X154949555Y-99779212D01*
X154895143Y-99690223D01*
X154854583Y-99621565D01*
X154831954Y-99580081D01*
X154828643Y-99571233D01*
X154850329Y-99561817D01*
X154903372Y-99553391D01*
X154946531Y-99549726D01*
X155012206Y-99543185D01*
X155055027Y-99534079D01*
X155064138Y-99528169D01*
X155053271Y-99505185D01*
X155021957Y-99451322D01*
X154974346Y-99373428D01*
X154914588Y-99278349D01*
X154878151Y-99221373D01*
X154813512Y-99119291D01*
X154758940Y-99030052D01*
X154718568Y-98960660D01*
X154696530Y-98918116D01*
X154693710Y-98908753D01*
X154715572Y-98896876D01*
X154758553Y-98897615D01*
X154822642Y-98904645D01*
X154859814Y-98899028D01*
X154870245Y-98875654D01*
X154854107Y-98829405D01*
X154811575Y-98755170D01*
X154765853Y-98683291D01*
X154632254Y-98476814D01*
X154435718Y-98625079D01*
X154345053Y-98695309D01*
X154289923Y-98744865D01*
X154268767Y-98778616D01*
X154280031Y-98801434D01*
X154322157Y-98818191D01*
X154370479Y-98829187D01*
X154413543Y-98843988D01*
X154427902Y-98860130D01*
X154409766Y-98879577D01*
X154361896Y-98920985D01*
X154290529Y-98979219D01*
X154201899Y-99049139D01*
X154147876Y-99090851D01*
X154052468Y-99164694D01*
X153970856Y-99229237D01*
X153909259Y-99279451D01*
X153873896Y-99310308D01*
X153867875Y-99317235D01*
X153884738Y-99333441D01*
X153931481Y-99359452D01*
X153970803Y-99377679D01*
X154030343Y-99406303D01*
X154067592Y-99429530D01*
X154074226Y-99438209D01*
X154056344Y-99456212D01*
X154008815Y-99496474D01*
X153937815Y-99553957D01*
X153849517Y-99623627D01*
X153794110Y-99666635D01*
X153699096Y-99741530D01*
X153618527Y-99808042D01*
X153558446Y-99860934D01*
X153524904Y-99894973D01*
X153519973Y-99903903D01*
X153540438Y-99924241D01*
X153591567Y-99956683D01*
X153662993Y-99994760D01*
X153675466Y-100000873D01*
X153748260Y-100038513D01*
X153801594Y-100070655D01*
X153825562Y-100091225D01*
X153826002Y-100093151D01*
X153808401Y-100113231D01*
X153761753Y-100154251D01*
X153693135Y-100210256D01*
X153609620Y-100275292D01*
X153608750Y-100275955D01*
X153517328Y-100346053D01*
X153432765Y-100411623D01*
X153365125Y-100464818D01*
X153327416Y-100495310D01*
X153261588Y-100550393D01*
X153083310Y-100550393D01*
X153084882Y-100522188D01*
X153086619Y-100519542D01*
X153126223Y-100459187D01*
X153205834Y-100383195D01*
X153304541Y-100303396D01*
X153387028Y-100238098D01*
X153454787Y-100182502D01*
X153500802Y-100142501D01*
X153518057Y-100123999D01*
X153502059Y-100104309D01*
X153459151Y-100067994D01*
X153413880Y-100034027D01*
X153352301Y-99985817D01*
X153321507Y-99947601D01*
X153313046Y-99907271D01*
X153313779Y-99890618D01*
X153321087Y-99858171D01*
X153341358Y-99824495D01*
X153380433Y-99783550D01*
X153444147Y-99729298D01*
X153538342Y-99655701D01*
X153548272Y-99648108D01*
X153642036Y-99575818D01*
X153704422Y-99525100D01*
X153740223Y-99490689D01*
X153754229Y-99467324D01*
X153751233Y-99449743D01*
X153740506Y-99436983D01*
X153689063Y-99381723D01*
X153665887Y-99341437D01*
X153663871Y-99303235D01*
X153664526Y-99299219D01*
X153684584Y-99268993D01*
X153733592Y-99218810D01*
X153804307Y-99155512D01*
X153889485Y-99085940D01*
X153894367Y-99082129D01*
X154116424Y-98909182D01*
X154071974Y-98852915D01*
X154042397Y-98802848D01*
X154033719Y-98761517D01*
X154054159Y-98733370D01*
X154107341Y-98682390D01*
X154189330Y-98611875D01*
X154296189Y-98525124D01*
X154423984Y-98425435D01*
X154536829Y-98339945D01*
X154596957Y-98304631D01*
X154651480Y-98288129D01*
X154665906Y-98288394D01*
X154685696Y-98293882D01*
X154705648Y-98306290D01*
X154729474Y-98330604D01*
X154760885Y-98371817D01*
X154803591Y-98434918D01*
X154861306Y-98524898D01*
X154937739Y-98646745D01*
X154965341Y-98691010D01*
X155031619Y-98801921D01*
X155071752Y-98883312D01*
X155086659Y-98941662D01*
X155077255Y-98983450D01*
X155044456Y-99015155D01*
X155013612Y-99032186D01*
X154995820Y-99043976D01*
X154989873Y-99061770D01*
X154998430Y-99092279D01*
X155024143Y-99142209D01*
X155069670Y-99218271D01*
X155117901Y-99295687D01*
X155174954Y-99390912D01*
X155220862Y-99475677D01*
X155251182Y-99541167D01*
X155261466Y-99578566D01*
X155261301Y-99580018D01*
X155237584Y-99618102D01*
X155188549Y-99657543D01*
X155175140Y-99665255D01*
X155096633Y-99707081D01*
X155251526Y-99949045D01*
X155316865Y-100053150D01*
X155359875Y-100127996D01*
X155383980Y-100181272D01*
X155392607Y-100220664D01*
X155389179Y-100253861D01*
X155388496Y-100256446D01*
X155370947Y-100296758D01*
X155337319Y-100324506D01*
X155275526Y-100348181D01*
X155245383Y-100356970D01*
X155177091Y-100378882D01*
X155129854Y-100399290D01*
X155115876Y-100410650D01*
X155125800Y-100435772D01*
X155156010Y-100490195D01*
X155201762Y-100565783D01*
X155255531Y-100650138D01*
X155331726Y-100773405D01*
X155376989Y-100867368D01*
X155389375Y-100937194D01*
X155366938Y-100988046D01*
X155307732Y-101025089D01*
X155209809Y-101053489D01*
X155095633Y-101074538D01*
X154999683Y-101085827D01*
X154878956Y-101094066D01*
X154753674Y-101098044D01*
X154701666Y-101098128D01*
X154468130Y-101095802D01*
X154410676Y-101421638D01*
X154313658Y-101404532D01*
X154235742Y-101392655D01*
X154164570Y-101384719D01*
X154151539Y-101383811D01*
X154092676Y-101376289D01*
X154012363Y-101360926D01*
X153960470Y-101348979D01*
X153834500Y-101317761D01*
X153855965Y-101196026D01*
X154038886Y-101196026D01*
X154260642Y-101235128D01*
X154291923Y-101057723D01*
X154070167Y-101018621D01*
X154038886Y-101196026D01*
X153855965Y-101196026D01*
X153861481Y-101164745D01*
X153891483Y-100994595D01*
X153662016Y-100914442D01*
G37*
G36*
X152304709Y-99000356D02*
G01*
X152436917Y-98745709D01*
X152601130Y-98508242D01*
X152796169Y-98291481D01*
X153020856Y-98098951D01*
X153274011Y-97934178D01*
X153554454Y-97800688D01*
X153707180Y-97745926D01*
X153928054Y-97675008D01*
X153930591Y-97660618D01*
X154113511Y-97660618D01*
X154219864Y-97648032D01*
X154289937Y-97644161D01*
X154388360Y-97644356D01*
X154498650Y-97648434D01*
X154551136Y-97651729D01*
X154729480Y-97673015D01*
X154914623Y-97709822D01*
X155093822Y-97758645D01*
X155254333Y-97815981D01*
X155383415Y-97878326D01*
X155390552Y-97882550D01*
X155408321Y-97884160D01*
X155422840Y-97859496D01*
X155437312Y-97801200D01*
X155445787Y-97755704D01*
X155457984Y-97674596D01*
X155464341Y-97607460D01*
X155463829Y-97572543D01*
X155432588Y-97520436D01*
X155362743Y-97467109D01*
X155260574Y-97415018D01*
X155132363Y-97366618D01*
X154984391Y-97324365D01*
X154822938Y-97290715D01*
X154696402Y-97272555D01*
X154541243Y-97258183D01*
X154422170Y-97255865D01*
X154331717Y-97266187D01*
X154262420Y-97289732D01*
X154229727Y-97309153D01*
X154194859Y-97339077D01*
X154171515Y-97377902D01*
X154153808Y-97438679D01*
X154140677Y-97506552D01*
X154113511Y-97660618D01*
X153930591Y-97660618D01*
X153936107Y-97629337D01*
X153961410Y-97485834D01*
X153990105Y-97354648D01*
X154023635Y-97262438D01*
X154045143Y-97225733D01*
X154112121Y-97161158D01*
X154204769Y-97108541D01*
X154303752Y-97078084D01*
X154331126Y-97074837D01*
X154367043Y-97067337D01*
X154383602Y-97049209D01*
X154575728Y-97049209D01*
X154862057Y-97111130D01*
X154970278Y-97133065D01*
X155062489Y-97148993D01*
X155129901Y-97157596D01*
X155163726Y-97157557D01*
X155165502Y-97156597D01*
X155175969Y-97124956D01*
X155179146Y-97069026D01*
X155178833Y-97060099D01*
X155153612Y-96954035D01*
X155094699Y-96867981D01*
X155011008Y-96807738D01*
X154911454Y-96779113D01*
X154804953Y-96787908D01*
X154775667Y-96797645D01*
X154674237Y-96857401D01*
X154609804Y-96942733D01*
X154594450Y-96983915D01*
X154575728Y-97049209D01*
X154383602Y-97049209D01*
X154389192Y-97043089D01*
X154397256Y-97017740D01*
X154405969Y-96990356D01*
X154412567Y-96960937D01*
X154460180Y-96833801D01*
X154538211Y-96732523D01*
X154639253Y-96658516D01*
X154755901Y-96613199D01*
X154880745Y-96597986D01*
X155006378Y-96614293D01*
X155125393Y-96663536D01*
X155230385Y-96747129D01*
X155271419Y-96796797D01*
X155315736Y-96878304D01*
X155348155Y-96976418D01*
X155365515Y-97075788D01*
X155364654Y-97161064D01*
X155354220Y-97198766D01*
X155351129Y-97227798D01*
X155376026Y-97256483D01*
X155432871Y-97291509D01*
X155511702Y-97339331D01*
X155564613Y-97386794D01*
X155607660Y-97449854D01*
X155625837Y-97483256D01*
X155643045Y-97523257D01*
X155650558Y-97566737D01*
X155648411Y-97625191D01*
X155636633Y-97710115D01*
X155626598Y-97769203D01*
X155589264Y-97982471D01*
X155761805Y-98114853D01*
X155995618Y-98321652D01*
X156195333Y-98554831D01*
X156359891Y-98810165D01*
X156488236Y-99083433D01*
X156579311Y-99370412D01*
X156632059Y-99666881D01*
X156645420Y-99968614D01*
X156618340Y-100271391D01*
X156549760Y-100570989D01*
X156445933Y-100847217D01*
X156297296Y-101122245D01*
X156113628Y-101372263D01*
X155898875Y-101594258D01*
X155656985Y-101785225D01*
X155391906Y-101942153D01*
X155107583Y-102062033D01*
X154807968Y-102141857D01*
X154729676Y-102155428D01*
X154480271Y-102177937D01*
X154218356Y-102172722D01*
X153958278Y-102141220D01*
X153714383Y-102084868D01*
X153584146Y-102040648D01*
X153298005Y-101909116D01*
X153043020Y-101747771D01*
X152814250Y-101552787D01*
X152606753Y-101320338D01*
X152540781Y-101232932D01*
X152374485Y-100967769D01*
X152249631Y-100691582D01*
X152165037Y-100407893D01*
X152119525Y-100120232D01*
X152113320Y-99885265D01*
X152292417Y-99885265D01*
X152295983Y-100039746D01*
X152329271Y-100293909D01*
X152385832Y-100525573D01*
X152438433Y-100676390D01*
X152566335Y-100944586D01*
X152729809Y-101188824D01*
X152924798Y-101406328D01*
X153147242Y-101594325D01*
X153393083Y-101750043D01*
X153658259Y-101870710D01*
X153938713Y-101953551D01*
X154230386Y-101995793D01*
X154377144Y-102000830D01*
X154675683Y-101978899D01*
X154960612Y-101916632D01*
X155229190Y-101817140D01*
X155478677Y-101683534D01*
X155706331Y-101518928D01*
X155909413Y-101326432D01*
X156085179Y-101109160D01*
X156230891Y-100870221D01*
X156343807Y-100612731D01*
X156421186Y-100339799D01*
X156460288Y-100054539D01*
X156458370Y-99760061D01*
X156446904Y-99650815D01*
X156401852Y-99404543D01*
X156332546Y-99181096D01*
X156253981Y-99002500D01*
X156118969Y-98771265D01*
X155951805Y-98551526D01*
X155761823Y-98354055D01*
X155558355Y-98189621D01*
X155536903Y-98174923D01*
X155299473Y-98040637D01*
X155037432Y-97938093D01*
X154759582Y-97868830D01*
X154474719Y-97834389D01*
X154191643Y-97836312D01*
X153919155Y-97876139D01*
X153881493Y-97885040D01*
X153668607Y-97954258D01*
X153447275Y-98055325D01*
X153230754Y-98180628D01*
X153032304Y-98322557D01*
X152876150Y-98462221D01*
X152768377Y-98586113D01*
X152658377Y-98737560D01*
X152556586Y-98900895D01*
X152473436Y-99060452D01*
X152464335Y-99080563D01*
X152397484Y-99262201D01*
X152344682Y-99467487D01*
X152308727Y-99680488D01*
X152292417Y-99885265D01*
X152113320Y-99885265D01*
X152111916Y-99832122D01*
X152141029Y-99547089D01*
X152166799Y-99436122D01*
X152205688Y-99268659D01*
X152304709Y-99000356D01*
G37*
G36*
X147480401Y-71850356D02*
G01*
X147612609Y-71595709D01*
X147776822Y-71358242D01*
X147971861Y-71141481D01*
X148196548Y-70948951D01*
X148449703Y-70784178D01*
X148730146Y-70650688D01*
X148882872Y-70595926D01*
X149103746Y-70525008D01*
X149106283Y-70510618D01*
X149289203Y-70510618D01*
X149395556Y-70498032D01*
X149465629Y-70494161D01*
X149564052Y-70494356D01*
X149674342Y-70498434D01*
X149726828Y-70501729D01*
X149905172Y-70523015D01*
X150090315Y-70559822D01*
X150269514Y-70608645D01*
X150430025Y-70665981D01*
X150559107Y-70728326D01*
X150566244Y-70732550D01*
X150584013Y-70734160D01*
X150598532Y-70709496D01*
X150613004Y-70651200D01*
X150621479Y-70605704D01*
X150633676Y-70524596D01*
X150640033Y-70457460D01*
X150639521Y-70422543D01*
X150608280Y-70370436D01*
X150538435Y-70317109D01*
X150436266Y-70265018D01*
X150308055Y-70216618D01*
X150160083Y-70174365D01*
X149998630Y-70140715D01*
X149872094Y-70122555D01*
X149716935Y-70108183D01*
X149597862Y-70105865D01*
X149507409Y-70116187D01*
X149438112Y-70139732D01*
X149405419Y-70159153D01*
X149370551Y-70189077D01*
X149347207Y-70227902D01*
X149329500Y-70288679D01*
X149316369Y-70356552D01*
X149289203Y-70510618D01*
X149106283Y-70510618D01*
X149111799Y-70479337D01*
X149137102Y-70335834D01*
X149165797Y-70204648D01*
X149199327Y-70112438D01*
X149220835Y-70075733D01*
X149287813Y-70011158D01*
X149380461Y-69958541D01*
X149479444Y-69928084D01*
X149506818Y-69924837D01*
X149542735Y-69917337D01*
X149559294Y-69899209D01*
X149751420Y-69899209D01*
X150037749Y-69961130D01*
X150145970Y-69983065D01*
X150238181Y-69998993D01*
X150305593Y-70007596D01*
X150339418Y-70007557D01*
X150341194Y-70006597D01*
X150351661Y-69974956D01*
X150354838Y-69919026D01*
X150354525Y-69910099D01*
X150329304Y-69804035D01*
X150270391Y-69717981D01*
X150186700Y-69657738D01*
X150087146Y-69629113D01*
X149980645Y-69637908D01*
X149951359Y-69647645D01*
X149849929Y-69707401D01*
X149785496Y-69792733D01*
X149770142Y-69833915D01*
X149751420Y-69899209D01*
X149559294Y-69899209D01*
X149564884Y-69893089D01*
X149572948Y-69867740D01*
X149581661Y-69840356D01*
X149588259Y-69810937D01*
X149635872Y-69683801D01*
X149713903Y-69582523D01*
X149814945Y-69508516D01*
X149931593Y-69463199D01*
X150056437Y-69447986D01*
X150182070Y-69464293D01*
X150301085Y-69513536D01*
X150406077Y-69597129D01*
X150447111Y-69646797D01*
X150491428Y-69728304D01*
X150523847Y-69826418D01*
X150541207Y-69925788D01*
X150540346Y-70011064D01*
X150529912Y-70048766D01*
X150526821Y-70077798D01*
X150551718Y-70106483D01*
X150608563Y-70141509D01*
X150687394Y-70189331D01*
X150740305Y-70236794D01*
X150783352Y-70299854D01*
X150801529Y-70333256D01*
X150818737Y-70373257D01*
X150826250Y-70416737D01*
X150824103Y-70475191D01*
X150812325Y-70560115D01*
X150802290Y-70619203D01*
X150764956Y-70832471D01*
X150937497Y-70964853D01*
X151171310Y-71171652D01*
X151371025Y-71404831D01*
X151535583Y-71660165D01*
X151663928Y-71933433D01*
X151755003Y-72220412D01*
X151807751Y-72516881D01*
X151821112Y-72818614D01*
X151794032Y-73121391D01*
X151725452Y-73420989D01*
X151621625Y-73697217D01*
X151472988Y-73972245D01*
X151289320Y-74222263D01*
X151074567Y-74444258D01*
X150832677Y-74635225D01*
X150567598Y-74792153D01*
X150283275Y-74912033D01*
X149983660Y-74991857D01*
X149905368Y-75005428D01*
X149655963Y-75027937D01*
X149394048Y-75022722D01*
X149133970Y-74991220D01*
X148890075Y-74934868D01*
X148759838Y-74890648D01*
X148473697Y-74759116D01*
X148218712Y-74597771D01*
X147989942Y-74402787D01*
X147782445Y-74170338D01*
X147716473Y-74082932D01*
X147550177Y-73817769D01*
X147425323Y-73541582D01*
X147340729Y-73257893D01*
X147295217Y-72970232D01*
X147289012Y-72735265D01*
X147468109Y-72735265D01*
X147471675Y-72889746D01*
X147504963Y-73143909D01*
X147561524Y-73375573D01*
X147614125Y-73526390D01*
X147742027Y-73794586D01*
X147905501Y-74038824D01*
X148100490Y-74256328D01*
X148322934Y-74444325D01*
X148568775Y-74600043D01*
X148833951Y-74720710D01*
X149114405Y-74803551D01*
X149406078Y-74845793D01*
X149552836Y-74850830D01*
X149851375Y-74828899D01*
X150136304Y-74766632D01*
X150404882Y-74667140D01*
X150654369Y-74533534D01*
X150882023Y-74368928D01*
X151085105Y-74176432D01*
X151260871Y-73959160D01*
X151406583Y-73720221D01*
X151519499Y-73462731D01*
X151596878Y-73189799D01*
X151635980Y-72904539D01*
X151634062Y-72610061D01*
X151622596Y-72500815D01*
X151577544Y-72254543D01*
X151508238Y-72031096D01*
X151429673Y-71852500D01*
X151294661Y-71621265D01*
X151127497Y-71401526D01*
X150937515Y-71204055D01*
X150734047Y-71039621D01*
X150712595Y-71024923D01*
X150475165Y-70890637D01*
X150213124Y-70788093D01*
X149935274Y-70718830D01*
X149650411Y-70684389D01*
X149367335Y-70686312D01*
X149094847Y-70726139D01*
X149057185Y-70735040D01*
X148844299Y-70804258D01*
X148622967Y-70905325D01*
X148406446Y-71030628D01*
X148207996Y-71172557D01*
X148051842Y-71312221D01*
X147944069Y-71436113D01*
X147834069Y-71587560D01*
X147732278Y-71750895D01*
X147649128Y-71910452D01*
X147640027Y-71930563D01*
X147573176Y-72112201D01*
X147520374Y-72317487D01*
X147484419Y-72530488D01*
X147468109Y-72735265D01*
X147289012Y-72735265D01*
X147287608Y-72682122D01*
X147316721Y-72397089D01*
X147342491Y-72286122D01*
X147381380Y-72118659D01*
X147480401Y-71850356D01*
G37*
G36*
X148837708Y-73764442D02*
G01*
X148725273Y-73722214D01*
X148612607Y-73674928D01*
X148516644Y-73629896D01*
X148477164Y-73608764D01*
X148365801Y-73540485D01*
X148292557Y-73482113D01*
X148257468Y-73427921D01*
X148259002Y-73400393D01*
X148437280Y-73400393D01*
X148582958Y-73477281D01*
X148728975Y-73547985D01*
X148877984Y-73605930D01*
X149040311Y-73654156D01*
X149226282Y-73695697D01*
X149446220Y-73733590D01*
X149463554Y-73736245D01*
X149627022Y-73758904D01*
X149777451Y-73775566D01*
X149904695Y-73785278D01*
X149998609Y-73787089D01*
X150003383Y-73786907D01*
X150114878Y-73779513D01*
X150216214Y-73768063D01*
X150298275Y-73754057D01*
X150351944Y-73738995D01*
X150368378Y-73726875D01*
X150357883Y-73703523D01*
X150327159Y-73649141D01*
X150280281Y-73570616D01*
X150221322Y-73474833D01*
X150184719Y-73416493D01*
X150121642Y-73314780D01*
X150069420Y-73227017D01*
X150031856Y-73159890D01*
X150012749Y-73120077D01*
X150011589Y-73112157D01*
X150038953Y-73105515D01*
X150098887Y-73096572D01*
X150179110Y-73087131D01*
X150189871Y-73086014D01*
X150271402Y-73075193D01*
X150333741Y-73062267D01*
X150364796Y-73049822D01*
X150365887Y-73048408D01*
X150358203Y-73023217D01*
X150329828Y-72967278D01*
X150284652Y-72887578D01*
X150226568Y-72791103D01*
X150189432Y-72731688D01*
X150125247Y-72629212D01*
X150070835Y-72540223D01*
X150030275Y-72471565D01*
X150007646Y-72430081D01*
X150004335Y-72421233D01*
X150026021Y-72411817D01*
X150079064Y-72403391D01*
X150122223Y-72399726D01*
X150187898Y-72393185D01*
X150230719Y-72384079D01*
X150239830Y-72378169D01*
X150228963Y-72355185D01*
X150197649Y-72301322D01*
X150150038Y-72223428D01*
X150090280Y-72128349D01*
X150053843Y-72071373D01*
X149989204Y-71969291D01*
X149934632Y-71880052D01*
X149894260Y-71810660D01*
X149872222Y-71768116D01*
X149869402Y-71758753D01*
X149891264Y-71746876D01*
X149934245Y-71747615D01*
X149998334Y-71754645D01*
X150035506Y-71749028D01*
X150045937Y-71725654D01*
X150029799Y-71679405D01*
X149987267Y-71605170D01*
X149941545Y-71533291D01*
X149807946Y-71326814D01*
X149611410Y-71475079D01*
X149520745Y-71545309D01*
X149465615Y-71594865D01*
X149444459Y-71628616D01*
X149455723Y-71651434D01*
X149497849Y-71668191D01*
X149546171Y-71679187D01*
X149589235Y-71693988D01*
X149603594Y-71710130D01*
X149585458Y-71729577D01*
X149537588Y-71770985D01*
X149466221Y-71829219D01*
X149377591Y-71899139D01*
X149323568Y-71940851D01*
X149228160Y-72014694D01*
X149146548Y-72079237D01*
X149084951Y-72129451D01*
X149049588Y-72160308D01*
X149043567Y-72167235D01*
X149060430Y-72183441D01*
X149107173Y-72209452D01*
X149146495Y-72227679D01*
X149206035Y-72256303D01*
X149243284Y-72279530D01*
X149249918Y-72288209D01*
X149232036Y-72306212D01*
X149184507Y-72346474D01*
X149113507Y-72403957D01*
X149025209Y-72473627D01*
X148969802Y-72516635D01*
X148874788Y-72591530D01*
X148794219Y-72658042D01*
X148734138Y-72710934D01*
X148700596Y-72744973D01*
X148695665Y-72753903D01*
X148716130Y-72774241D01*
X148767259Y-72806683D01*
X148838685Y-72844760D01*
X148851158Y-72850873D01*
X148923952Y-72888513D01*
X148977286Y-72920655D01*
X149001254Y-72941225D01*
X149001694Y-72943151D01*
X148984093Y-72963231D01*
X148937445Y-73004251D01*
X148868827Y-73060256D01*
X148785312Y-73125292D01*
X148784442Y-73125955D01*
X148693020Y-73196053D01*
X148608457Y-73261623D01*
X148540817Y-73314818D01*
X148503108Y-73345310D01*
X148437280Y-73400393D01*
X148259002Y-73400393D01*
X148260574Y-73372188D01*
X148262311Y-73369542D01*
X148301915Y-73309187D01*
X148381526Y-73233195D01*
X148480233Y-73153396D01*
X148562720Y-73088098D01*
X148630479Y-73032502D01*
X148676494Y-72992501D01*
X148693749Y-72973999D01*
X148677751Y-72954309D01*
X148634843Y-72917994D01*
X148589572Y-72884027D01*
X148527993Y-72835817D01*
X148497199Y-72797601D01*
X148488738Y-72757271D01*
X148489471Y-72740618D01*
X148496779Y-72708171D01*
X148517050Y-72674495D01*
X148556125Y-72633550D01*
X148619839Y-72579298D01*
X148714034Y-72505701D01*
X148723964Y-72498108D01*
X148817728Y-72425818D01*
X148880114Y-72375100D01*
X148915915Y-72340689D01*
X148929921Y-72317324D01*
X148926925Y-72299743D01*
X148916198Y-72286983D01*
X148864755Y-72231723D01*
X148841579Y-72191437D01*
X148839563Y-72153235D01*
X148840218Y-72149219D01*
X148860276Y-72118993D01*
X148909284Y-72068810D01*
X148979999Y-72005512D01*
X149065177Y-71935940D01*
X149070059Y-71932129D01*
X149292116Y-71759182D01*
X149247666Y-71702915D01*
X149218089Y-71652848D01*
X149209411Y-71611517D01*
X149229851Y-71583370D01*
X149283033Y-71532390D01*
X149365022Y-71461875D01*
X149471881Y-71375124D01*
X149599676Y-71275435D01*
X149712521Y-71189945D01*
X149772649Y-71154631D01*
X149827172Y-71138129D01*
X149841598Y-71138394D01*
X149861388Y-71143882D01*
X149881340Y-71156290D01*
X149905166Y-71180604D01*
X149936577Y-71221817D01*
X149979283Y-71284918D01*
X150036998Y-71374898D01*
X150113431Y-71496745D01*
X150141033Y-71541010D01*
X150207311Y-71651921D01*
X150247444Y-71733312D01*
X150262351Y-71791662D01*
X150252947Y-71833450D01*
X150220148Y-71865155D01*
X150189304Y-71882186D01*
X150171512Y-71893976D01*
X150165565Y-71911770D01*
X150174122Y-71942279D01*
X150199835Y-71992209D01*
X150245362Y-72068271D01*
X150293593Y-72145687D01*
X150350646Y-72240912D01*
X150396554Y-72325677D01*
X150426874Y-72391167D01*
X150437158Y-72428566D01*
X150436993Y-72430018D01*
X150413276Y-72468102D01*
X150364241Y-72507543D01*
X150350832Y-72515255D01*
X150272325Y-72557081D01*
X150427218Y-72799045D01*
X150492557Y-72903150D01*
X150535567Y-72977996D01*
X150559672Y-73031272D01*
X150568299Y-73070664D01*
X150564871Y-73103861D01*
X150564188Y-73106446D01*
X150546639Y-73146758D01*
X150513011Y-73174506D01*
X150451218Y-73198181D01*
X150421075Y-73206970D01*
X150352783Y-73228882D01*
X150305546Y-73249290D01*
X150291568Y-73260650D01*
X150301492Y-73285772D01*
X150331702Y-73340195D01*
X150377454Y-73415783D01*
X150431223Y-73500138D01*
X150507418Y-73623405D01*
X150552681Y-73717368D01*
X150565067Y-73787194D01*
X150542630Y-73838046D01*
X150483424Y-73875089D01*
X150385501Y-73903489D01*
X150271325Y-73924538D01*
X150175375Y-73935827D01*
X150054648Y-73944066D01*
X149929366Y-73948044D01*
X149877358Y-73948128D01*
X149643822Y-73945802D01*
X149586368Y-74271638D01*
X149489350Y-74254532D01*
X149411434Y-74242655D01*
X149340262Y-74234719D01*
X149327231Y-74233811D01*
X149268368Y-74226289D01*
X149188055Y-74210926D01*
X149136162Y-74198979D01*
X149010192Y-74167761D01*
X149031657Y-74046026D01*
X149214578Y-74046026D01*
X149436334Y-74085128D01*
X149467615Y-73907723D01*
X149245859Y-73868621D01*
X149214578Y-74046026D01*
X149031657Y-74046026D01*
X149037173Y-74014745D01*
X149067175Y-73844595D01*
X148837708Y-73764442D01*
G37*
%TD*%
M02*
