M48
; DRILL file {KiCad (6.0.7)} date Mon Nov 21 20:09:23 2022
; FORMAT={-:-/ absolute / inch / decimal}
; #@! TF.CreationDate,2022-11-21T20:09:23+01:00
; #@! TF.GenerationSoftware,Kicad,Pcbnew,(6.0.7)
; #@! TF.FileFunction,Plated,1,2,PTH
FMAT,2
INCH
; #@! TA.AperFunction,Plated,PTH,ViaDrill
T1C0.0157
%
G90
G05
T1
X4.6161Y-4.2697
X4.6181Y-4.3976
X4.7106Y-4.3327
X4.8307Y-4.2874
X4.8307Y-4.3642
X5.0335Y-2.1752
X5.0374Y-2.0433
X5.1319Y-2.1083
X5.1969Y-5.0197
X5.2598Y-2.065
X5.2598Y-2.1398
X5.315Y-5.0197
X5.3976Y-2.4449
X5.3976Y-2.5591
X5.3976Y-2.6811
X5.4331Y-5.0197
X5.5512Y-5.0197
X5.5866Y-2.4449
X5.5866Y-2.563
X5.5866Y-2.6811
X5.6693Y-5.0197
X5.7874Y-5.0197
X5.8661Y-3.2028
X5.8681Y-3.126
X5.9941Y-3.187
X6.1043Y-3.124
X6.1063Y-3.252
T0
M30
