%TF.GenerationSoftware,KiCad,Pcbnew,(6.0.7)*%
%TF.CreationDate,2022-11-21T20:11:54+01:00*%
%TF.ProjectId,Arbolito Tronco 2,4172626f-6c69-4746-9f20-54726f6e636f,rev?*%
%TF.SameCoordinates,Original*%
%TF.FileFunction,Legend,Top*%
%TF.FilePolarity,Positive*%
%FSLAX46Y46*%
G04 Gerber Fmt 4.6, Leading zero omitted, Abs format (unit mm)*
G04 Created by KiCad (PCBNEW (6.0.7)) date 2022-11-21 20:11:54*
%MOMM*%
%LPD*%
G01*
G04 APERTURE LIST*
%ADD10C,0.500000*%
%ADD11C,1.000000*%
%ADD12C,3.000000*%
%ADD13C,0.150000*%
%ADD14C,0.120000*%
G04 APERTURE END LIST*
D10*
X143950000Y-32425000D02*
X140700000Y-30000000D01*
D11*
X150009988Y-86560005D02*
G75*
G03*
X173300000Y-110540000I41242012J16755405D01*
G01*
X146399989Y-58500003D02*
G75*
G03*
X162800000Y-82100000I39200311J9742603D01*
G01*
D10*
X142125000Y-27200000D02*
X143725000Y-32350000D01*
X132725000Y-24000000D02*
X137075000Y-27300000D01*
D12*
X128240000Y-96190000D02*
G75*
G03*
X128240000Y-96190000I-700000J0D01*
G01*
D11*
X146349992Y-58550040D02*
G75*
G03*
X159850000Y-54350000I2909608J14444040D01*
G01*
X147250000Y-117450000D02*
G75*
G03*
X173003169Y-110161326I4695560J32550460D01*
G01*
D12*
X150200000Y-72700000D02*
G75*
G03*
X150200000Y-72700000I-700000J0D01*
G01*
D11*
X149990002Y-86430025D02*
G75*
G03*
X163240000Y-81620000I-1505802J24802625D01*
G01*
X119379999Y-54339999D02*
G75*
G03*
X138700000Y-30280000I-25319699J40118439D01*
G01*
D10*
X138100000Y-24250000D02*
X132700000Y-24250000D01*
X141100000Y-24275000D02*
X146500000Y-24300000D01*
D12*
X134459419Y-45338426D02*
G75*
G03*
X134459419Y-45338426I-700000J0D01*
G01*
D10*
X142125000Y-27200000D02*
X146475000Y-24000000D01*
D11*
X116299996Y-82059994D02*
G75*
G03*
X132580000Y-58600000I-23780996J33881494D01*
G01*
D10*
X135150000Y-32225000D02*
X138250000Y-29975000D01*
X138300000Y-29950000D02*
X140650000Y-29950000D01*
D12*
X155000000Y-99750000D02*
G75*
G03*
X155000000Y-99750000I-700000J0D01*
G01*
D11*
X106270003Y-110440006D02*
G75*
G03*
X129570000Y-86440000I-18229603J41008106D01*
G01*
X119209994Y-53420005D02*
G75*
G03*
X132500000Y-58510000I10998806J8822805D01*
G01*
D10*
X137075000Y-27300000D02*
X135425000Y-32400000D01*
X139800000Y-19050000D02*
X138100000Y-24150000D01*
D12*
X148840000Y-49440000D02*
G75*
G03*
X148840000Y-49440000I-700000J0D01*
G01*
D11*
X140150000Y-30250000D02*
G75*
G03*
X160300000Y-54850000I43192520J14826750D01*
G01*
X116080001Y-81769998D02*
G75*
G03*
X129527160Y-86470601I14531899J19987198D01*
G01*
D10*
X141150000Y-24275000D02*
X139450000Y-19175000D01*
D11*
X105850867Y-110050009D02*
G75*
G03*
X131850000Y-117350000I21234233J25678009D01*
G01*
D13*
X137300000Y-30500000D02*
X137300000Y-30700000D01*
D12*
X131830000Y-69350000D02*
G75*
G03*
X131830000Y-69350000I-700000J0D01*
G01*
D13*
%TO.C,U5*%
X127088095Y-49552380D02*
X127088095Y-50361904D01*
X127135714Y-50457142D01*
X127183333Y-50504761D01*
X127278571Y-50552380D01*
X127469047Y-50552380D01*
X127564285Y-50504761D01*
X127611904Y-50457142D01*
X127659523Y-50361904D01*
X127659523Y-49552380D01*
X128611904Y-49552380D02*
X128135714Y-49552380D01*
X128088095Y-50028571D01*
X128135714Y-49980952D01*
X128230952Y-49933333D01*
X128469047Y-49933333D01*
X128564285Y-49980952D01*
X128611904Y-50028571D01*
X128659523Y-50123809D01*
X128659523Y-50361904D01*
X128611904Y-50457142D01*
X128564285Y-50504761D01*
X128469047Y-50552380D01*
X128230952Y-50552380D01*
X128135714Y-50504761D01*
X128088095Y-50457142D01*
X126755714Y-53532380D02*
X126184285Y-53532380D01*
X126470000Y-53532380D02*
X126470000Y-52532380D01*
X126374761Y-52675238D01*
X126279523Y-52770476D01*
X126184285Y-52818095D01*
%TO.C,U1*%
X116338095Y-105952380D02*
X116338095Y-106761904D01*
X116385714Y-106857142D01*
X116433333Y-106904761D01*
X116528571Y-106952380D01*
X116719047Y-106952380D01*
X116814285Y-106904761D01*
X116861904Y-106857142D01*
X116909523Y-106761904D01*
X116909523Y-105952380D01*
X117909523Y-106952380D02*
X117338095Y-106952380D01*
X117623809Y-106952380D02*
X117623809Y-105952380D01*
X117528571Y-106095238D01*
X117433333Y-106190476D01*
X117338095Y-106238095D01*
X116055714Y-109952380D02*
X115484285Y-109952380D01*
X115770000Y-109952380D02*
X115770000Y-108952380D01*
X115674761Y-109095238D01*
X115579523Y-109190476D01*
X115484285Y-109238095D01*
%TO.C,U4*%
X153938095Y-76902380D02*
X153938095Y-77711904D01*
X153985714Y-77807142D01*
X154033333Y-77854761D01*
X154128571Y-77902380D01*
X154319047Y-77902380D01*
X154414285Y-77854761D01*
X154461904Y-77807142D01*
X154509523Y-77711904D01*
X154509523Y-76902380D01*
X155414285Y-77235714D02*
X155414285Y-77902380D01*
X155176190Y-76854761D02*
X154938095Y-77569047D01*
X155557142Y-77569047D01*
X153635714Y-80942380D02*
X153064285Y-80942380D01*
X153350000Y-80942380D02*
X153350000Y-79942380D01*
X153254761Y-80085238D01*
X153159523Y-80180476D01*
X153064285Y-80228095D01*
%TO.C,G\u002A\u002A\u002A*%
G36*
X149279779Y-105945494D02*
G01*
X149343479Y-105989503D01*
X149371801Y-106025343D01*
X149380662Y-106041654D01*
X149387728Y-106060802D01*
X149393207Y-106086468D01*
X149397309Y-106122334D01*
X149400243Y-106172083D01*
X149402219Y-106239397D01*
X149403446Y-106327957D01*
X149404134Y-106441447D01*
X149404491Y-106583547D01*
X149404518Y-106600708D01*
X149405330Y-107123745D01*
X149490390Y-107030081D01*
X149529163Y-106986295D01*
X149583388Y-106923561D01*
X149647711Y-106848149D01*
X149716779Y-106766326D01*
X149771589Y-106700782D01*
X149843871Y-106616133D01*
X149910611Y-106542115D01*
X149967829Y-106482907D01*
X150011548Y-106442685D01*
X150030611Y-106428833D01*
X150105483Y-106401691D01*
X150179106Y-106402788D01*
X150246712Y-106427863D01*
X150303533Y-106472655D01*
X150344801Y-106532902D01*
X150365748Y-106604344D01*
X150361607Y-106682719D01*
X150351609Y-106715714D01*
X150335659Y-106742636D01*
X150302252Y-106788968D01*
X150255406Y-106849468D01*
X150199137Y-106918900D01*
X150159556Y-106966169D01*
X150093045Y-107044681D01*
X150026797Y-107123063D01*
X149966821Y-107194195D01*
X149919126Y-107250954D01*
X149902377Y-107270981D01*
X149856200Y-107326004D01*
X149812017Y-107378096D01*
X149779006Y-107416440D01*
X149777680Y-107417954D01*
X149752058Y-107447594D01*
X149710246Y-107496436D01*
X149657159Y-107558719D01*
X149597714Y-107628681D01*
X149569254Y-107662250D01*
X149403829Y-107857511D01*
X149403829Y-109192216D01*
X149456950Y-109165057D01*
X149483839Y-109150356D01*
X149536426Y-109120721D01*
X149612136Y-109077630D01*
X149708397Y-109022560D01*
X149822634Y-108956991D01*
X149952273Y-108882401D01*
X150094742Y-108800268D01*
X150247466Y-108712070D01*
X150407873Y-108619286D01*
X150507111Y-108561811D01*
X150537065Y-108542499D01*
X150559977Y-108520432D01*
X150579984Y-108488821D01*
X150601224Y-108440877D01*
X150627836Y-108369814D01*
X150633156Y-108355046D01*
X150653947Y-108297118D01*
X150683830Y-108213786D01*
X150720881Y-108110423D01*
X150763173Y-107992401D01*
X150808781Y-107865093D01*
X150855780Y-107733872D01*
X150875261Y-107679472D01*
X150919733Y-107556105D01*
X150961611Y-107441501D01*
X150999416Y-107339590D01*
X151031666Y-107254302D01*
X151056883Y-107189568D01*
X151073587Y-107149318D01*
X151078976Y-107138447D01*
X151117952Y-107101093D01*
X151175874Y-107070198D01*
X151238999Y-107052283D01*
X151264979Y-107050193D01*
X151343355Y-107065089D01*
X151411617Y-107105585D01*
X151463357Y-107165393D01*
X151492170Y-107238224D01*
X151495978Y-107276937D01*
X151490613Y-107304903D01*
X151475494Y-107358972D01*
X151452090Y-107434542D01*
X151421865Y-107527010D01*
X151386288Y-107631776D01*
X151348874Y-107738484D01*
X151309967Y-107847945D01*
X151274922Y-107946831D01*
X151245159Y-108031110D01*
X151222099Y-108096751D01*
X151207163Y-108139721D01*
X151201771Y-108155987D01*
X151201770Y-108156005D01*
X151215357Y-108149223D01*
X151253858Y-108128007D01*
X151313881Y-108094278D01*
X151392035Y-108049955D01*
X151484927Y-107996959D01*
X151589165Y-107937208D01*
X151643460Y-107905987D01*
X151778894Y-107828434D01*
X151889557Y-107766365D01*
X151978747Y-107718506D01*
X152049762Y-107683584D01*
X152105901Y-107660324D01*
X152150459Y-107647453D01*
X152186736Y-107643697D01*
X152218029Y-107647783D01*
X152247636Y-107658436D01*
X152263863Y-107666358D01*
X152334054Y-107718770D01*
X152377343Y-107787587D01*
X152391574Y-107869018D01*
X152390515Y-107889087D01*
X152379310Y-107946300D01*
X152359836Y-107996785D01*
X152351227Y-108010725D01*
X152329355Y-108029441D01*
X152282789Y-108061855D01*
X152215305Y-108105595D01*
X152130673Y-108158284D01*
X152032668Y-108217549D01*
X151925061Y-108281016D01*
X151882424Y-108305749D01*
X151774783Y-108368293D01*
X151677286Y-108425701D01*
X151593275Y-108475943D01*
X151526092Y-108516991D01*
X151479079Y-108546818D01*
X151455577Y-108563395D01*
X151453580Y-108566010D01*
X151471174Y-108570963D01*
X151516651Y-108580815D01*
X151585712Y-108594718D01*
X151674058Y-108611825D01*
X151777391Y-108631289D01*
X151886439Y-108651357D01*
X152020452Y-108676537D01*
X152136530Y-108699931D01*
X152231432Y-108720811D01*
X152301918Y-108738447D01*
X152344746Y-108752109D01*
X152353895Y-108756608D01*
X152413675Y-108812122D01*
X152447815Y-108878746D01*
X152458041Y-108950449D01*
X152446081Y-109021199D01*
X152413660Y-109084961D01*
X152362505Y-109135704D01*
X152294343Y-109167394D01*
X152234149Y-109175032D01*
X152211629Y-109173615D01*
X152174354Y-109169159D01*
X152120542Y-109161360D01*
X152048414Y-109149910D01*
X151956189Y-109134503D01*
X151842087Y-109114835D01*
X151704328Y-109090599D01*
X151541131Y-109061489D01*
X151350717Y-109027199D01*
X151131304Y-108987423D01*
X150944271Y-108953375D01*
X150870632Y-108941470D01*
X150820948Y-108937739D01*
X150787582Y-108941940D01*
X150772649Y-108947943D01*
X150748034Y-108961594D01*
X150699858Y-108988986D01*
X150632814Y-109027425D01*
X150551599Y-109074214D01*
X150460908Y-109126660D01*
X150425386Y-109147252D01*
X150329302Y-109202937D01*
X150238095Y-109255701D01*
X150157205Y-109302404D01*
X150092074Y-109339905D01*
X150048145Y-109365063D01*
X150039947Y-109369715D01*
X149914813Y-109440646D01*
X149816353Y-109496969D01*
X149742605Y-109539841D01*
X149691609Y-109570420D01*
X149661403Y-109589865D01*
X149650024Y-109599333D01*
X149649819Y-109600000D01*
X149663315Y-109610423D01*
X149700566Y-109634038D01*
X149756850Y-109667982D01*
X149827447Y-109709392D01*
X149882390Y-109741025D01*
X149967636Y-109789814D01*
X150073020Y-109850232D01*
X150190360Y-109917582D01*
X150311474Y-109987167D01*
X150428178Y-110054290D01*
X150460439Y-110072860D01*
X150806045Y-110271841D01*
X150942614Y-110246889D01*
X151203446Y-110199397D01*
X151433018Y-110157952D01*
X151632167Y-110122409D01*
X151801732Y-110092625D01*
X151942549Y-110068458D01*
X152055458Y-110049762D01*
X152141295Y-110036396D01*
X152200899Y-110028214D01*
X152235108Y-110025074D01*
X152237916Y-110025029D01*
X152316751Y-110038842D01*
X152379795Y-110076112D01*
X152425393Y-110130823D01*
X152451893Y-110196959D01*
X152457640Y-110268503D01*
X152440983Y-110339438D01*
X152400267Y-110403748D01*
X152353038Y-110443953D01*
X152322125Y-110456226D01*
X152261608Y-110472715D01*
X152174212Y-110492804D01*
X152062664Y-110515879D01*
X151929691Y-110541325D01*
X151885330Y-110549456D01*
X151771766Y-110570306D01*
X151669088Y-110589604D01*
X151581594Y-110606504D01*
X151513585Y-110620164D01*
X151469358Y-110629738D01*
X151453281Y-110634289D01*
X151462891Y-110645260D01*
X151495176Y-110668120D01*
X151544249Y-110698861D01*
X151572878Y-110715725D01*
X151743651Y-110814558D01*
X151888127Y-110898548D01*
X152008437Y-110968995D01*
X152106713Y-111027195D01*
X152185085Y-111074449D01*
X152245684Y-111112053D01*
X152290642Y-111141307D01*
X152322088Y-111163509D01*
X152342155Y-111179956D01*
X152351797Y-111190305D01*
X152380023Y-111250082D01*
X152391412Y-111322960D01*
X152384629Y-111393755D01*
X152372578Y-111426479D01*
X152322063Y-111493473D01*
X152255138Y-111538171D01*
X152179179Y-111557341D01*
X152101560Y-111547749D01*
X152098353Y-111546662D01*
X152072604Y-111535642D01*
X152031508Y-111514913D01*
X151973198Y-111483422D01*
X151895806Y-111440114D01*
X151797467Y-111383934D01*
X151676313Y-111313829D01*
X151530479Y-111228744D01*
X151398051Y-111151099D01*
X151328578Y-111110846D01*
X151269962Y-111077922D01*
X151227520Y-111055237D01*
X151206570Y-111045698D01*
X151205335Y-111045684D01*
X151209382Y-111061705D01*
X151223321Y-111104251D01*
X151245708Y-111169186D01*
X151275099Y-111252373D01*
X151310051Y-111349677D01*
X151343214Y-111440829D01*
X151395035Y-111584493D01*
X151435080Y-111701491D01*
X151463854Y-111795455D01*
X151481864Y-111870012D01*
X151489614Y-111928794D01*
X151487612Y-111975428D01*
X151476362Y-112013546D01*
X151456372Y-112046776D01*
X151431643Y-112075177D01*
X151362639Y-112126802D01*
X151283988Y-112147777D01*
X151210578Y-112142832D01*
X151175400Y-112133817D01*
X151144695Y-112118832D01*
X151116525Y-112094543D01*
X151088949Y-112057617D01*
X151060029Y-112004720D01*
X151027825Y-111932519D01*
X150990397Y-111837681D01*
X150945806Y-111716872D01*
X150918469Y-111640792D01*
X150872408Y-111512043D01*
X150823009Y-111374267D01*
X150773510Y-111236475D01*
X150727150Y-111107680D01*
X150687167Y-110996894D01*
X150673097Y-110958017D01*
X150569963Y-110673369D01*
X149992352Y-110340996D01*
X149867310Y-110269118D01*
X149751311Y-110202581D01*
X149647362Y-110143100D01*
X149558467Y-110092388D01*
X149487633Y-110052158D01*
X149437865Y-110024123D01*
X149412169Y-110009997D01*
X149409285Y-110008623D01*
X149408109Y-110024396D01*
X149407027Y-110069432D01*
X149406066Y-110140301D01*
X149405254Y-110233576D01*
X149404617Y-110345829D01*
X149404184Y-110473632D01*
X149403982Y-110613557D01*
X149403972Y-110674678D01*
X149404115Y-111340733D01*
X149620542Y-111596792D01*
X149764063Y-111766554D01*
X149887984Y-111913169D01*
X149993740Y-112038514D01*
X150082766Y-112144465D01*
X150156495Y-112232901D01*
X150216363Y-112305696D01*
X150263804Y-112364729D01*
X150300253Y-112411875D01*
X150327143Y-112449013D01*
X150345910Y-112478018D01*
X150357987Y-112500768D01*
X150364810Y-112519139D01*
X150367813Y-112535009D01*
X150368430Y-112550254D01*
X150368096Y-112566750D01*
X150368017Y-112574775D01*
X150353372Y-112646924D01*
X150314081Y-112712973D01*
X150257261Y-112765590D01*
X150190029Y-112797440D01*
X150146007Y-112803542D01*
X150078387Y-112789520D01*
X150005171Y-112750506D01*
X149934206Y-112691311D01*
X149899407Y-112652427D01*
X149840278Y-112579635D01*
X149774821Y-112500256D01*
X149706342Y-112418170D01*
X149638149Y-112337256D01*
X149573549Y-112261393D01*
X149515849Y-112194461D01*
X149468354Y-112140338D01*
X149434374Y-112102903D01*
X149417213Y-112086037D01*
X149416087Y-112085473D01*
X149413091Y-112100906D01*
X149410359Y-112145143D01*
X149407985Y-112214298D01*
X149406061Y-112304488D01*
X149404680Y-112411826D01*
X149403935Y-112532427D01*
X149403829Y-112600104D01*
X149403669Y-112753631D01*
X149402816Y-112877980D01*
X149400709Y-112976663D01*
X149396789Y-113053192D01*
X149390495Y-113111078D01*
X149381267Y-113153834D01*
X149368546Y-113184970D01*
X149351770Y-113207999D01*
X149330381Y-113226433D01*
X149303818Y-113243782D01*
X149300879Y-113245578D01*
X149239637Y-113269482D01*
X149175000Y-113277484D01*
X149104216Y-113267923D01*
X149049120Y-113245578D01*
X149022067Y-113228188D01*
X149000222Y-113210075D01*
X148983028Y-113187737D01*
X148969929Y-113157670D01*
X148960369Y-113116374D01*
X148953791Y-113060345D01*
X148949639Y-112986081D01*
X148947356Y-112890079D01*
X148946386Y-112768838D01*
X148946172Y-112618854D01*
X148946171Y-112597570D01*
X148946104Y-112454034D01*
X148945776Y-112340025D01*
X148944994Y-112252382D01*
X148943568Y-112187942D01*
X148941305Y-112143545D01*
X148938015Y-112116028D01*
X148933505Y-112102229D01*
X148927584Y-112098986D01*
X148920060Y-112103137D01*
X148916406Y-112106298D01*
X148897781Y-112126112D01*
X148861562Y-112167195D01*
X148811065Y-112225689D01*
X148749606Y-112297737D01*
X148680500Y-112379481D01*
X148634456Y-112434310D01*
X148541211Y-112544427D01*
X148464924Y-112631147D01*
X148402582Y-112696952D01*
X148351171Y-112744325D01*
X148307678Y-112775750D01*
X148269090Y-112793710D01*
X148232394Y-112800687D01*
X148194577Y-112799164D01*
X148192093Y-112798842D01*
X148107125Y-112772951D01*
X148041784Y-112723680D01*
X147999290Y-112655919D01*
X147982862Y-112574562D01*
X147992534Y-112495563D01*
X148004979Y-112475399D01*
X148036466Y-112433098D01*
X148084798Y-112371376D01*
X148147781Y-112292948D01*
X148223220Y-112200531D01*
X148308919Y-112096839D01*
X148402683Y-111984588D01*
X148474486Y-111899364D01*
X148946171Y-111341513D01*
X148946171Y-110675068D01*
X148946002Y-110531057D01*
X148945521Y-110397738D01*
X148944764Y-110278536D01*
X148943767Y-110176880D01*
X148942567Y-110096196D01*
X148941201Y-110039912D01*
X148939705Y-110011453D01*
X148939048Y-110008623D01*
X148930054Y-110012810D01*
X148905864Y-110025926D01*
X148865033Y-110048798D01*
X148806116Y-110082256D01*
X148727667Y-110127128D01*
X148628241Y-110184243D01*
X148506392Y-110254430D01*
X148360675Y-110338518D01*
X148189644Y-110437336D01*
X147991855Y-110551711D01*
X147982870Y-110556909D01*
X147779607Y-110674491D01*
X147643931Y-111048474D01*
X147598182Y-111175004D01*
X147548952Y-111311888D01*
X147499719Y-111449406D01*
X147453961Y-111577839D01*
X147415157Y-111687465D01*
X147407758Y-111708494D01*
X147373803Y-111803210D01*
X147341251Y-111890513D01*
X147312449Y-111964365D01*
X147289748Y-112018724D01*
X147276522Y-112045911D01*
X147225330Y-112102588D01*
X147158295Y-112136316D01*
X147083023Y-112146924D01*
X147007119Y-112134240D01*
X146938188Y-112098095D01*
X146894884Y-112054483D01*
X146875207Y-112022025D01*
X146863548Y-111984891D01*
X146860556Y-111939512D01*
X146866881Y-111882319D01*
X146883170Y-111809745D01*
X146910073Y-111718221D01*
X146948239Y-111604178D01*
X146998316Y-111464047D01*
X147006122Y-111442668D01*
X147044833Y-111336501D01*
X147079529Y-111240647D01*
X147108706Y-111159320D01*
X147130859Y-111096738D01*
X147144481Y-111057118D01*
X147148230Y-111044690D01*
X147135904Y-111046378D01*
X147104760Y-111061725D01*
X147086937Y-111072047D01*
X147025755Y-111108492D01*
X146946972Y-111154807D01*
X146855809Y-111207984D01*
X146757491Y-111265013D01*
X146657240Y-111322885D01*
X146560280Y-111378588D01*
X146471833Y-111429115D01*
X146397122Y-111471455D01*
X146341370Y-111502599D01*
X146314640Y-111517061D01*
X146223301Y-111550867D01*
X146139953Y-111553605D01*
X146066201Y-111525642D01*
X146003653Y-111467345D01*
X145986051Y-111442001D01*
X145963285Y-111379328D01*
X145960074Y-111304932D01*
X145975718Y-111232745D01*
X145998773Y-111189275D01*
X146020638Y-111170571D01*
X146067213Y-111138159D01*
X146134740Y-111094400D01*
X146219464Y-111041659D01*
X146317628Y-110982298D01*
X146425474Y-110918681D01*
X146469577Y-110893095D01*
X146593280Y-110821423D01*
X146690999Y-110764112D01*
X146765241Y-110719495D01*
X146818512Y-110685904D01*
X146853318Y-110661671D01*
X146872167Y-110645129D01*
X146877563Y-110634608D01*
X146872015Y-110628442D01*
X146868973Y-110627310D01*
X146841985Y-110620979D01*
X146787901Y-110610005D01*
X146711828Y-110595360D01*
X146618875Y-110578019D01*
X146514148Y-110558955D01*
X146453571Y-110548122D01*
X146344273Y-110528313D01*
X146243709Y-110509358D01*
X146157049Y-110492290D01*
X146089464Y-110478142D01*
X146046126Y-110467946D01*
X146034610Y-110464441D01*
X145966379Y-110423243D01*
X145920903Y-110366346D01*
X145897159Y-110299704D01*
X145894123Y-110229271D01*
X145910775Y-110160999D01*
X145946090Y-110100844D01*
X145999048Y-110054757D01*
X146068625Y-110028693D01*
X146110077Y-110025029D01*
X146139849Y-110027874D01*
X146198043Y-110036029D01*
X146280931Y-110048879D01*
X146384787Y-110065811D01*
X146505882Y-110086212D01*
X146640489Y-110109468D01*
X146784882Y-110134966D01*
X146860314Y-110148496D01*
X147545422Y-110272025D01*
X147775880Y-110138707D01*
X147860423Y-110089890D01*
X147965216Y-110029523D01*
X148082129Y-109962280D01*
X148203034Y-109892835D01*
X148319800Y-109825864D01*
X148353109Y-109806780D01*
X148449004Y-109751535D01*
X148534717Y-109701535D01*
X148606398Y-109659079D01*
X148660196Y-109626463D01*
X148692258Y-109605985D01*
X148699727Y-109600000D01*
X148686043Y-109590186D01*
X148647343Y-109566242D01*
X148587036Y-109530182D01*
X148508532Y-109484017D01*
X148415242Y-109429761D01*
X148310575Y-109369425D01*
X148256573Y-109338481D01*
X148139702Y-109271523D01*
X148025446Y-109205839D01*
X147918696Y-109144258D01*
X147824344Y-109089609D01*
X147747281Y-109044719D01*
X147692400Y-109012419D01*
X147681961Y-109006188D01*
X147550350Y-108927240D01*
X146862569Y-109051136D01*
X146714377Y-109077560D01*
X146574099Y-109102056D01*
X146445453Y-109124010D01*
X146332157Y-109142813D01*
X146237926Y-109157852D01*
X146166479Y-109168516D01*
X146121533Y-109174193D01*
X146109868Y-109174971D01*
X146032753Y-109160287D01*
X145968394Y-109120703D01*
X145920736Y-109062688D01*
X145893721Y-108992712D01*
X145891294Y-108917243D01*
X145912636Y-108851408D01*
X145930133Y-108819664D01*
X145948625Y-108793693D01*
X145971888Y-108772122D01*
X146003696Y-108753575D01*
X146047822Y-108736678D01*
X146108041Y-108720056D01*
X146188128Y-108702336D01*
X146291856Y-108682142D01*
X146423001Y-108658099D01*
X146463527Y-108650783D01*
X146580136Y-108629811D01*
X146685974Y-108610874D01*
X146776853Y-108594714D01*
X146848587Y-108582072D01*
X146896988Y-108573688D01*
X146917870Y-108570305D01*
X146918307Y-108570270D01*
X146906832Y-108562491D01*
X146870394Y-108540488D01*
X146812408Y-108506261D01*
X146736291Y-108461812D01*
X146645459Y-108409141D01*
X146543327Y-108350250D01*
X146510245Y-108331238D01*
X146378874Y-108255750D01*
X146272892Y-108194544D01*
X146189338Y-108145630D01*
X146125251Y-108107016D01*
X146077669Y-108076708D01*
X146043631Y-108052716D01*
X146020176Y-108033048D01*
X146004343Y-108015710D01*
X145993170Y-107998713D01*
X145983697Y-107980062D01*
X145981584Y-107975619D01*
X145959154Y-107896050D01*
X145964142Y-107818799D01*
X145992611Y-107749280D01*
X146040625Y-107692908D01*
X146104248Y-107655097D01*
X146179543Y-107641262D01*
X146221722Y-107645287D01*
X146248638Y-107655821D01*
X146299734Y-107680855D01*
X146371051Y-107718257D01*
X146458625Y-107765892D01*
X146558498Y-107821629D01*
X146666707Y-107883333D01*
X146706918Y-107906584D01*
X146814507Y-107968825D01*
X146912634Y-108025209D01*
X146997841Y-108073778D01*
X147066672Y-108112577D01*
X147115667Y-108139649D01*
X147141370Y-108153038D01*
X147144399Y-108154103D01*
X147140256Y-108138345D01*
X147126375Y-108095855D01*
X147104138Y-108030643D01*
X147074929Y-107946716D01*
X147040131Y-107848083D01*
X147001128Y-107738753D01*
X146999804Y-107735063D01*
X146950814Y-107597065D01*
X146912901Y-107485777D01*
X146885402Y-107397397D01*
X146867658Y-107328124D01*
X146859006Y-107274158D01*
X146858787Y-107231699D01*
X146866338Y-107196944D01*
X146880999Y-107166094D01*
X146896744Y-107142571D01*
X146950998Y-107092431D01*
X147022002Y-107059431D01*
X147081886Y-107050193D01*
X147139767Y-107060321D01*
X147201092Y-107086228D01*
X147252488Y-107121198D01*
X147275297Y-107147312D01*
X147285155Y-107169778D01*
X147304660Y-107219628D01*
X147332542Y-107293430D01*
X147367532Y-107387753D01*
X147408363Y-107499168D01*
X147453765Y-107624243D01*
X147502470Y-107759547D01*
X147525142Y-107822899D01*
X147574718Y-107961557D01*
X147621254Y-108091468D01*
X147663519Y-108209216D01*
X147700286Y-108311386D01*
X147730323Y-108394565D01*
X147752401Y-108455336D01*
X147765290Y-108490286D01*
X147767781Y-108496718D01*
X147786974Y-108517641D01*
X147828585Y-108549345D01*
X147886172Y-108587261D01*
X147942904Y-108620977D01*
X148051042Y-108682549D01*
X148180667Y-108756785D01*
X148325061Y-108839819D01*
X148477510Y-108927787D01*
X148631295Y-109016824D01*
X148692825Y-109052538D01*
X148762169Y-109092647D01*
X148824779Y-109128551D01*
X148873093Y-109155931D01*
X148897136Y-109169205D01*
X148937999Y-109190928D01*
X148946541Y-107863358D01*
X148856503Y-107753304D01*
X148831140Y-107722447D01*
X148802213Y-107687575D01*
X148767801Y-107646418D01*
X148725981Y-107596705D01*
X148674832Y-107536166D01*
X148612432Y-107462530D01*
X148536858Y-107373528D01*
X148446191Y-107266889D01*
X148338506Y-107140343D01*
X148211884Y-106991619D01*
X148186132Y-106961380D01*
X148127640Y-106891397D01*
X148075701Y-106826835D01*
X148034621Y-106773228D01*
X148008706Y-106736113D01*
X148002989Y-106725940D01*
X147982891Y-106647663D01*
X147990481Y-106572703D01*
X148021154Y-106505724D01*
X148070301Y-106451389D01*
X148133317Y-106414363D01*
X148205594Y-106399312D01*
X148282524Y-106410898D01*
X148305194Y-106419975D01*
X148344849Y-106447129D01*
X148400994Y-106499799D01*
X148474204Y-106578565D01*
X148553893Y-106670746D01*
X148623646Y-106753324D01*
X148694424Y-106836983D01*
X148760118Y-106914510D01*
X148814615Y-106978690D01*
X148839929Y-107008413D01*
X148937999Y-107123346D01*
X148946171Y-106592336D01*
X148948629Y-106439319D01*
X148951183Y-106315505D01*
X148954396Y-106217413D01*
X148958831Y-106141557D01*
X148965053Y-106084457D01*
X148973624Y-106042628D01*
X148985108Y-106012588D01*
X149000067Y-105990854D01*
X149019066Y-105973943D01*
X149042667Y-105958372D01*
X149049370Y-105954270D01*
X149123873Y-105925926D01*
X149203626Y-105923651D01*
X149279779Y-105945494D01*
G37*
D14*
%TO.C,C16*%
X149785000Y-80088748D02*
X149785000Y-80611252D01*
X148315000Y-80088748D02*
X148315000Y-80611252D01*
%TO.C,G\u002A\u002A\u002A*%
G36*
X148787016Y-73689442D02*
G01*
X148674581Y-73647214D01*
X148561915Y-73599928D01*
X148465952Y-73554896D01*
X148426472Y-73533764D01*
X148315109Y-73465485D01*
X148241865Y-73407113D01*
X148206776Y-73352921D01*
X148208310Y-73325393D01*
X148386588Y-73325393D01*
X148532266Y-73402281D01*
X148678283Y-73472985D01*
X148827292Y-73530930D01*
X148989619Y-73579156D01*
X149175590Y-73620697D01*
X149395528Y-73658590D01*
X149412862Y-73661245D01*
X149576330Y-73683904D01*
X149726759Y-73700566D01*
X149854003Y-73710278D01*
X149947917Y-73712089D01*
X149952691Y-73711907D01*
X150064186Y-73704513D01*
X150165522Y-73693063D01*
X150247583Y-73679057D01*
X150301252Y-73663995D01*
X150317686Y-73651875D01*
X150307191Y-73628523D01*
X150276467Y-73574141D01*
X150229589Y-73495616D01*
X150170630Y-73399833D01*
X150134027Y-73341493D01*
X150070950Y-73239780D01*
X150018728Y-73152017D01*
X149981164Y-73084890D01*
X149962057Y-73045077D01*
X149960897Y-73037157D01*
X149988261Y-73030515D01*
X150048195Y-73021572D01*
X150128418Y-73012131D01*
X150139179Y-73011014D01*
X150220710Y-73000193D01*
X150283049Y-72987267D01*
X150314104Y-72974822D01*
X150315195Y-72973408D01*
X150307511Y-72948217D01*
X150279136Y-72892278D01*
X150233960Y-72812578D01*
X150175876Y-72716103D01*
X150138740Y-72656688D01*
X150074555Y-72554212D01*
X150020143Y-72465223D01*
X149979583Y-72396565D01*
X149956954Y-72355081D01*
X149953643Y-72346233D01*
X149975329Y-72336817D01*
X150028372Y-72328391D01*
X150071531Y-72324726D01*
X150137206Y-72318185D01*
X150180027Y-72309079D01*
X150189138Y-72303169D01*
X150178271Y-72280185D01*
X150146957Y-72226322D01*
X150099346Y-72148428D01*
X150039588Y-72053349D01*
X150003151Y-71996373D01*
X149938512Y-71894291D01*
X149883940Y-71805052D01*
X149843568Y-71735660D01*
X149821530Y-71693116D01*
X149818710Y-71683753D01*
X149840572Y-71671876D01*
X149883553Y-71672615D01*
X149947642Y-71679645D01*
X149984814Y-71674028D01*
X149995245Y-71650654D01*
X149979107Y-71604405D01*
X149936575Y-71530170D01*
X149890853Y-71458291D01*
X149757254Y-71251814D01*
X149560718Y-71400079D01*
X149470053Y-71470309D01*
X149414923Y-71519865D01*
X149393767Y-71553616D01*
X149405031Y-71576434D01*
X149447157Y-71593191D01*
X149495479Y-71604187D01*
X149538543Y-71618988D01*
X149552902Y-71635130D01*
X149534766Y-71654577D01*
X149486896Y-71695985D01*
X149415529Y-71754219D01*
X149326899Y-71824139D01*
X149272876Y-71865851D01*
X149177468Y-71939694D01*
X149095856Y-72004237D01*
X149034259Y-72054451D01*
X148998896Y-72085308D01*
X148992875Y-72092235D01*
X149009738Y-72108441D01*
X149056481Y-72134452D01*
X149095803Y-72152679D01*
X149155343Y-72181303D01*
X149192592Y-72204530D01*
X149199226Y-72213209D01*
X149181344Y-72231212D01*
X149133815Y-72271474D01*
X149062815Y-72328957D01*
X148974517Y-72398627D01*
X148919110Y-72441635D01*
X148824096Y-72516530D01*
X148743527Y-72583042D01*
X148683446Y-72635934D01*
X148649904Y-72669973D01*
X148644973Y-72678903D01*
X148665438Y-72699241D01*
X148716567Y-72731683D01*
X148787993Y-72769760D01*
X148800466Y-72775873D01*
X148873260Y-72813513D01*
X148926594Y-72845655D01*
X148950562Y-72866225D01*
X148951002Y-72868151D01*
X148933401Y-72888231D01*
X148886753Y-72929251D01*
X148818135Y-72985256D01*
X148734620Y-73050292D01*
X148733750Y-73050955D01*
X148642328Y-73121053D01*
X148557765Y-73186623D01*
X148490125Y-73239818D01*
X148452416Y-73270310D01*
X148386588Y-73325393D01*
X148208310Y-73325393D01*
X148209882Y-73297188D01*
X148211619Y-73294542D01*
X148251223Y-73234187D01*
X148330834Y-73158195D01*
X148429541Y-73078396D01*
X148512028Y-73013098D01*
X148579787Y-72957502D01*
X148625802Y-72917501D01*
X148643057Y-72898999D01*
X148627059Y-72879309D01*
X148584151Y-72842994D01*
X148538880Y-72809027D01*
X148477301Y-72760817D01*
X148446507Y-72722601D01*
X148438046Y-72682271D01*
X148438779Y-72665618D01*
X148446087Y-72633171D01*
X148466358Y-72599495D01*
X148505433Y-72558550D01*
X148569147Y-72504298D01*
X148663342Y-72430701D01*
X148673272Y-72423108D01*
X148767036Y-72350818D01*
X148829422Y-72300100D01*
X148865223Y-72265689D01*
X148879229Y-72242324D01*
X148876233Y-72224743D01*
X148865506Y-72211983D01*
X148814063Y-72156723D01*
X148790887Y-72116437D01*
X148788871Y-72078235D01*
X148789526Y-72074219D01*
X148809584Y-72043993D01*
X148858592Y-71993810D01*
X148929307Y-71930512D01*
X149014485Y-71860940D01*
X149019367Y-71857129D01*
X149241424Y-71684182D01*
X149196974Y-71627915D01*
X149167397Y-71577848D01*
X149158719Y-71536517D01*
X149179159Y-71508370D01*
X149232341Y-71457390D01*
X149314330Y-71386875D01*
X149421189Y-71300124D01*
X149548984Y-71200435D01*
X149661829Y-71114945D01*
X149721957Y-71079631D01*
X149776480Y-71063129D01*
X149790906Y-71063394D01*
X149810696Y-71068882D01*
X149830648Y-71081290D01*
X149854474Y-71105604D01*
X149885885Y-71146817D01*
X149928591Y-71209918D01*
X149986306Y-71299898D01*
X150062739Y-71421745D01*
X150090341Y-71466010D01*
X150156619Y-71576921D01*
X150196752Y-71658312D01*
X150211659Y-71716662D01*
X150202255Y-71758450D01*
X150169456Y-71790155D01*
X150138612Y-71807186D01*
X150120820Y-71818976D01*
X150114873Y-71836770D01*
X150123430Y-71867279D01*
X150149143Y-71917209D01*
X150194670Y-71993271D01*
X150242901Y-72070687D01*
X150299954Y-72165912D01*
X150345862Y-72250677D01*
X150376182Y-72316167D01*
X150386466Y-72353566D01*
X150386301Y-72355018D01*
X150362584Y-72393102D01*
X150313549Y-72432543D01*
X150300140Y-72440255D01*
X150221633Y-72482081D01*
X150376526Y-72724045D01*
X150441865Y-72828150D01*
X150484875Y-72902996D01*
X150508980Y-72956272D01*
X150517607Y-72995664D01*
X150514179Y-73028861D01*
X150513496Y-73031446D01*
X150495947Y-73071758D01*
X150462319Y-73099506D01*
X150400526Y-73123181D01*
X150370383Y-73131970D01*
X150302091Y-73153882D01*
X150254854Y-73174290D01*
X150240876Y-73185650D01*
X150250800Y-73210772D01*
X150281010Y-73265195D01*
X150326762Y-73340783D01*
X150380531Y-73425138D01*
X150456726Y-73548405D01*
X150501989Y-73642368D01*
X150514375Y-73712194D01*
X150491938Y-73763046D01*
X150432732Y-73800089D01*
X150334809Y-73828489D01*
X150220633Y-73849538D01*
X150124683Y-73860827D01*
X150003956Y-73869066D01*
X149878674Y-73873044D01*
X149826666Y-73873128D01*
X149593130Y-73870802D01*
X149535676Y-74196638D01*
X149438658Y-74179532D01*
X149360742Y-74167655D01*
X149289570Y-74159719D01*
X149276539Y-74158811D01*
X149217676Y-74151289D01*
X149137363Y-74135926D01*
X149085470Y-74123979D01*
X148959500Y-74092761D01*
X148980965Y-73971026D01*
X149163886Y-73971026D01*
X149385642Y-74010128D01*
X149416923Y-73832723D01*
X149195167Y-73793621D01*
X149163886Y-73971026D01*
X148980965Y-73971026D01*
X148986481Y-73939745D01*
X149016483Y-73769595D01*
X148787016Y-73689442D01*
G37*
G36*
X147429709Y-71775356D02*
G01*
X147561917Y-71520709D01*
X147726130Y-71283242D01*
X147921169Y-71066481D01*
X148145856Y-70873951D01*
X148399011Y-70709178D01*
X148679454Y-70575688D01*
X148832180Y-70520926D01*
X149053054Y-70450008D01*
X149055591Y-70435618D01*
X149238511Y-70435618D01*
X149344864Y-70423032D01*
X149414937Y-70419161D01*
X149513360Y-70419356D01*
X149623650Y-70423434D01*
X149676136Y-70426729D01*
X149854480Y-70448015D01*
X150039623Y-70484822D01*
X150218822Y-70533645D01*
X150379333Y-70590981D01*
X150508415Y-70653326D01*
X150515552Y-70657550D01*
X150533321Y-70659160D01*
X150547840Y-70634496D01*
X150562312Y-70576200D01*
X150570787Y-70530704D01*
X150582984Y-70449596D01*
X150589341Y-70382460D01*
X150588829Y-70347543D01*
X150557588Y-70295436D01*
X150487743Y-70242109D01*
X150385574Y-70190018D01*
X150257363Y-70141618D01*
X150109391Y-70099365D01*
X149947938Y-70065715D01*
X149821402Y-70047555D01*
X149666243Y-70033183D01*
X149547170Y-70030865D01*
X149456717Y-70041187D01*
X149387420Y-70064732D01*
X149354727Y-70084153D01*
X149319859Y-70114077D01*
X149296515Y-70152902D01*
X149278808Y-70213679D01*
X149265677Y-70281552D01*
X149238511Y-70435618D01*
X149055591Y-70435618D01*
X149061107Y-70404337D01*
X149086410Y-70260834D01*
X149115105Y-70129648D01*
X149148635Y-70037438D01*
X149170143Y-70000733D01*
X149237121Y-69936158D01*
X149329769Y-69883541D01*
X149428752Y-69853084D01*
X149456126Y-69849837D01*
X149492043Y-69842337D01*
X149508602Y-69824209D01*
X149700728Y-69824209D01*
X149987057Y-69886130D01*
X150095278Y-69908065D01*
X150187489Y-69923993D01*
X150254901Y-69932596D01*
X150288726Y-69932557D01*
X150290502Y-69931597D01*
X150300969Y-69899956D01*
X150304146Y-69844026D01*
X150303833Y-69835099D01*
X150278612Y-69729035D01*
X150219699Y-69642981D01*
X150136008Y-69582738D01*
X150036454Y-69554113D01*
X149929953Y-69562908D01*
X149900667Y-69572645D01*
X149799237Y-69632401D01*
X149734804Y-69717733D01*
X149719450Y-69758915D01*
X149700728Y-69824209D01*
X149508602Y-69824209D01*
X149514192Y-69818089D01*
X149522256Y-69792740D01*
X149530969Y-69765356D01*
X149537567Y-69735937D01*
X149585180Y-69608801D01*
X149663211Y-69507523D01*
X149764253Y-69433516D01*
X149880901Y-69388199D01*
X150005745Y-69372986D01*
X150131378Y-69389293D01*
X150250393Y-69438536D01*
X150355385Y-69522129D01*
X150396419Y-69571797D01*
X150440736Y-69653304D01*
X150473155Y-69751418D01*
X150490515Y-69850788D01*
X150489654Y-69936064D01*
X150479220Y-69973766D01*
X150476129Y-70002798D01*
X150501026Y-70031483D01*
X150557871Y-70066509D01*
X150636702Y-70114331D01*
X150689613Y-70161794D01*
X150732660Y-70224854D01*
X150750837Y-70258256D01*
X150768045Y-70298257D01*
X150775558Y-70341737D01*
X150773411Y-70400191D01*
X150761633Y-70485115D01*
X150751598Y-70544203D01*
X150714264Y-70757471D01*
X150886805Y-70889853D01*
X151120618Y-71096652D01*
X151320333Y-71329831D01*
X151484891Y-71585165D01*
X151613236Y-71858433D01*
X151704311Y-72145412D01*
X151757059Y-72441881D01*
X151770420Y-72743614D01*
X151743340Y-73046391D01*
X151674760Y-73345989D01*
X151570933Y-73622217D01*
X151422296Y-73897245D01*
X151238628Y-74147263D01*
X151023875Y-74369258D01*
X150781985Y-74560225D01*
X150516906Y-74717153D01*
X150232583Y-74837033D01*
X149932968Y-74916857D01*
X149854676Y-74930428D01*
X149605271Y-74952937D01*
X149343356Y-74947722D01*
X149083278Y-74916220D01*
X148839383Y-74859868D01*
X148709146Y-74815648D01*
X148423005Y-74684116D01*
X148168020Y-74522771D01*
X147939250Y-74327787D01*
X147731753Y-74095338D01*
X147665781Y-74007932D01*
X147499485Y-73742769D01*
X147374631Y-73466582D01*
X147290037Y-73182893D01*
X147244525Y-72895232D01*
X147238320Y-72660265D01*
X147417417Y-72660265D01*
X147420983Y-72814746D01*
X147454271Y-73068909D01*
X147510832Y-73300573D01*
X147563433Y-73451390D01*
X147691335Y-73719586D01*
X147854809Y-73963824D01*
X148049798Y-74181328D01*
X148272242Y-74369325D01*
X148518083Y-74525043D01*
X148783259Y-74645710D01*
X149063713Y-74728551D01*
X149355386Y-74770793D01*
X149502144Y-74775830D01*
X149800683Y-74753899D01*
X150085612Y-74691632D01*
X150354190Y-74592140D01*
X150603677Y-74458534D01*
X150831331Y-74293928D01*
X151034413Y-74101432D01*
X151210179Y-73884160D01*
X151355891Y-73645221D01*
X151468807Y-73387731D01*
X151546186Y-73114799D01*
X151585288Y-72829539D01*
X151583370Y-72535061D01*
X151571904Y-72425815D01*
X151526852Y-72179543D01*
X151457546Y-71956096D01*
X151378981Y-71777500D01*
X151243969Y-71546265D01*
X151076805Y-71326526D01*
X150886823Y-71129055D01*
X150683355Y-70964621D01*
X150661903Y-70949923D01*
X150424473Y-70815637D01*
X150162432Y-70713093D01*
X149884582Y-70643830D01*
X149599719Y-70609389D01*
X149316643Y-70611312D01*
X149044155Y-70651139D01*
X149006493Y-70660040D01*
X148793607Y-70729258D01*
X148572275Y-70830325D01*
X148355754Y-70955628D01*
X148157304Y-71097557D01*
X148001150Y-71237221D01*
X147893377Y-71361113D01*
X147783377Y-71512560D01*
X147681586Y-71675895D01*
X147598436Y-71835452D01*
X147589335Y-71855563D01*
X147522484Y-72037201D01*
X147469682Y-72242487D01*
X147433727Y-72455488D01*
X147417417Y-72660265D01*
X147238320Y-72660265D01*
X147236916Y-72607122D01*
X147266029Y-72322089D01*
X147291799Y-72211122D01*
X147330688Y-72043659D01*
X147429709Y-71775356D01*
G37*
G36*
X133497634Y-46537848D02*
G01*
X133377537Y-46536622D01*
X133255493Y-46530722D01*
X133149916Y-46521227D01*
X133105589Y-46514872D01*
X133013669Y-46496149D01*
X133916803Y-46496149D01*
X133948084Y-46673554D01*
X134169840Y-46634452D01*
X134138559Y-46457047D01*
X133916803Y-46496149D01*
X133013669Y-46496149D01*
X132977590Y-46488800D01*
X132888798Y-46458999D01*
X132837291Y-46420076D01*
X132821147Y-46366642D01*
X132821874Y-46363561D01*
X132829151Y-46332709D01*
X132996843Y-46332709D01*
X133160033Y-46355135D01*
X133321426Y-46371634D01*
X133481268Y-46375121D01*
X133650299Y-46364919D01*
X133839262Y-46340350D01*
X134058897Y-46300734D01*
X134076094Y-46297300D01*
X134237453Y-46262684D01*
X134384509Y-46226891D01*
X134507401Y-46192497D01*
X134596270Y-46162078D01*
X134600694Y-46160275D01*
X134702936Y-46115192D01*
X134794245Y-46069774D01*
X134866566Y-46028546D01*
X134911847Y-45996037D01*
X134923145Y-45979027D01*
X134905296Y-45960673D01*
X134857825Y-45920079D01*
X134786917Y-45862323D01*
X134698755Y-45792481D01*
X134644405Y-45750179D01*
X134550344Y-45676173D01*
X134471255Y-45611564D01*
X134412998Y-45561332D01*
X134381426Y-45530456D01*
X134377627Y-45523410D01*
X134401069Y-45507810D01*
X134454330Y-45478908D01*
X134526486Y-45442598D01*
X134536216Y-45437868D01*
X134609129Y-45399814D01*
X134663287Y-45366347D01*
X134688213Y-45344031D01*
X134688754Y-45342329D01*
X134672919Y-45321285D01*
X134627122Y-45278424D01*
X134557412Y-45218982D01*
X134469834Y-45148191D01*
X134414617Y-45105061D01*
X134319254Y-45030717D01*
X134237687Y-44965705D01*
X134176090Y-44915060D01*
X134140639Y-44883817D01*
X134134500Y-44876635D01*
X134151658Y-44860369D01*
X134198621Y-44834310D01*
X134237924Y-44816105D01*
X134297400Y-44787496D01*
X134334524Y-44764294D01*
X134341065Y-44755624D01*
X134322992Y-44737742D01*
X134275144Y-44697838D01*
X134203763Y-44640926D01*
X134115090Y-44572020D01*
X134061364Y-44530941D01*
X133965709Y-44457124D01*
X133883906Y-44391931D01*
X133822236Y-44340531D01*
X133786976Y-44308091D01*
X133781124Y-44300258D01*
X133797605Y-44281620D01*
X133838247Y-44267613D01*
X133900875Y-44252299D01*
X133933885Y-44234308D01*
X133935691Y-44208775D01*
X133904708Y-44170835D01*
X133839352Y-44115624D01*
X133771803Y-44063718D01*
X133575642Y-43915386D01*
X133441668Y-44121929D01*
X133380491Y-44218933D01*
X133345634Y-44284356D01*
X133337299Y-44323307D01*
X133355687Y-44340897D01*
X133401004Y-44342235D01*
X133450173Y-44336041D01*
X133495702Y-44335221D01*
X133514716Y-44345478D01*
X133504324Y-44369955D01*
X133473504Y-44425239D01*
X133426358Y-44504370D01*
X133366987Y-44600386D01*
X133330488Y-44658059D01*
X133266090Y-44760081D01*
X133211475Y-44848644D01*
X133170766Y-44916897D01*
X133148090Y-44957988D01*
X133144801Y-44966557D01*
X133166190Y-44976018D01*
X133219011Y-44984473D01*
X133262196Y-44988152D01*
X133327935Y-44994686D01*
X133370881Y-45003772D01*
X133380083Y-45009659D01*
X133369437Y-45032693D01*
X133338545Y-45086782D01*
X133291487Y-45165082D01*
X133232343Y-45260750D01*
X133194987Y-45320114D01*
X133131319Y-45422990D01*
X133078357Y-45513047D01*
X133039990Y-45583297D01*
X133020112Y-45626756D01*
X133018532Y-45636834D01*
X133044720Y-45648946D01*
X133103861Y-45661944D01*
X133184003Y-45673296D01*
X133197814Y-45674774D01*
X133279092Y-45685248D01*
X133340202Y-45697210D01*
X133369760Y-45708341D01*
X133370833Y-45710001D01*
X133361161Y-45734890D01*
X133331356Y-45789390D01*
X133286030Y-45865487D01*
X133229796Y-45955164D01*
X133229205Y-45956085D01*
X133167271Y-46053223D01*
X133110235Y-46143761D01*
X133064868Y-46216883D01*
X133039862Y-46258433D01*
X132996843Y-46332709D01*
X132829151Y-46332709D01*
X132838447Y-46293301D01*
X132887266Y-46194663D01*
X132952728Y-46085916D01*
X133007907Y-45996345D01*
X133052564Y-45920926D01*
X133082123Y-45867599D01*
X133092010Y-45844312D01*
X133070242Y-45831281D01*
X133017502Y-45811831D01*
X132963343Y-45795396D01*
X132888989Y-45771155D01*
X132846982Y-45745776D01*
X132825237Y-45710772D01*
X132820230Y-45694872D01*
X132816000Y-45661883D01*
X132823531Y-45623305D01*
X132846245Y-45571465D01*
X132887562Y-45498693D01*
X132950904Y-45397318D01*
X132957638Y-45386786D01*
X133021023Y-45286787D01*
X133062300Y-45217790D01*
X133084173Y-45173210D01*
X133089343Y-45146464D01*
X133080514Y-45130968D01*
X133066070Y-45122646D01*
X132998829Y-45088313D01*
X132963273Y-45058384D01*
X132948312Y-45023175D01*
X132947554Y-45019176D01*
X132956065Y-44983914D01*
X132984954Y-44919995D01*
X133029755Y-44836329D01*
X133086001Y-44741820D01*
X133089285Y-44736569D01*
X133238799Y-44498104D01*
X133177785Y-44460433D01*
X133132868Y-44423501D01*
X133110577Y-44387631D01*
X133120158Y-44354191D01*
X133152697Y-44288095D01*
X133205623Y-44193792D01*
X133276368Y-44075724D01*
X133362359Y-43938339D01*
X133439160Y-43819409D01*
X133483584Y-43765660D01*
X133529174Y-43731505D01*
X133542821Y-43726820D01*
X133563294Y-43725209D01*
X133586287Y-43730044D01*
X133616992Y-43744743D01*
X133660604Y-43772727D01*
X133722317Y-43817417D01*
X133807326Y-43882230D01*
X133920824Y-43970588D01*
X133961900Y-44002742D01*
X134062115Y-44084296D01*
X134127666Y-44147053D01*
X134161631Y-44196785D01*
X134167086Y-44239269D01*
X134147109Y-44280280D01*
X134123950Y-44306833D01*
X134111263Y-44323997D01*
X134111761Y-44342753D01*
X134130236Y-44368495D01*
X134171476Y-44406620D01*
X134240271Y-44462524D01*
X134312072Y-44518774D01*
X134398253Y-44588743D01*
X134470384Y-44652695D01*
X134521274Y-44703866D01*
X134543729Y-44735492D01*
X134544071Y-44736912D01*
X134534809Y-44780811D01*
X134502221Y-44834645D01*
X134492259Y-44846478D01*
X134432792Y-44912632D01*
X134661100Y-45087028D01*
X134758104Y-45162507D01*
X134824120Y-45218129D01*
X134864993Y-45259948D01*
X134886572Y-45294014D01*
X134894705Y-45326380D01*
X134894947Y-45329044D01*
X134892244Y-45372927D01*
X134870134Y-45410503D01*
X134820165Y-45453884D01*
X134794846Y-45472453D01*
X134738166Y-45516401D01*
X134700759Y-45551733D01*
X134691509Y-45567189D01*
X134709426Y-45587402D01*
X134756428Y-45628210D01*
X134825274Y-45683592D01*
X134904652Y-45744470D01*
X135018411Y-45834243D01*
X135093081Y-45907058D01*
X135128602Y-45968437D01*
X135124911Y-46023896D01*
X135081945Y-46078955D01*
X134999641Y-46139134D01*
X134899549Y-46197963D01*
X134813247Y-46241388D01*
X134702619Y-46290422D01*
X134586253Y-46337009D01*
X134537410Y-46354875D01*
X134317163Y-46432564D01*
X134374616Y-46758400D01*
X134277598Y-46775507D01*
X134200319Y-46790996D01*
X134130725Y-46807880D01*
X134118169Y-46811484D01*
X134060283Y-46824549D01*
X133979559Y-46837580D01*
X133926710Y-46844103D01*
X133797660Y-46857852D01*
X133770679Y-46704835D01*
X133740677Y-46534685D01*
X133497634Y-46537848D01*
G37*
G36*
X131567527Y-45203423D02*
G01*
X131604667Y-44918915D01*
X131677759Y-44639605D01*
X131786899Y-44369209D01*
X131932187Y-44111442D01*
X132113719Y-43870022D01*
X132331592Y-43648665D01*
X132456379Y-43544971D01*
X132639676Y-43402786D01*
X132631623Y-43357115D01*
X132606320Y-43213612D01*
X132588416Y-43080524D01*
X132588404Y-43040329D01*
X132766839Y-43040329D01*
X132770986Y-43103497D01*
X132781861Y-43171767D01*
X132809028Y-43325834D01*
X132904662Y-43277632D01*
X132969185Y-43250028D01*
X133061740Y-43216548D01*
X133166772Y-43182659D01*
X133217220Y-43167804D01*
X133392089Y-43126809D01*
X133578656Y-43098074D01*
X133763746Y-43082663D01*
X133934187Y-43081643D01*
X134076808Y-43096079D01*
X134084959Y-43097608D01*
X134102207Y-43093043D01*
X134107414Y-43064901D01*
X134101075Y-43005171D01*
X134093479Y-42959520D01*
X134077200Y-42879131D01*
X134060211Y-42813870D01*
X134047788Y-42781234D01*
X134000609Y-42742954D01*
X133916738Y-42716732D01*
X133802914Y-42702727D01*
X133665882Y-42701096D01*
X133512382Y-42712001D01*
X133349156Y-42735600D01*
X133224040Y-42761814D01*
X133073324Y-42801375D01*
X132960638Y-42839923D01*
X132879171Y-42880559D01*
X132822106Y-42926385D01*
X132798027Y-42955817D01*
X132775496Y-42995861D01*
X132766839Y-43040329D01*
X132588404Y-43040329D01*
X132588386Y-42982406D01*
X132596044Y-42940559D01*
X132636896Y-42856970D01*
X132705960Y-42775839D01*
X132788557Y-42713364D01*
X132813170Y-42700951D01*
X132844356Y-42681619D01*
X132856876Y-42651258D01*
X132855784Y-42624679D01*
X132854605Y-42595967D01*
X132850743Y-42566065D01*
X132851120Y-42525451D01*
X133029516Y-42525451D01*
X133034255Y-42593210D01*
X133324494Y-42553466D01*
X133433691Y-42537065D01*
X133525789Y-42520494D01*
X133592078Y-42505522D01*
X133623850Y-42493917D01*
X133625191Y-42492407D01*
X133624204Y-42459094D01*
X133608061Y-42405450D01*
X133604713Y-42397169D01*
X133544737Y-42306127D01*
X133459945Y-42245412D01*
X133360697Y-42217427D01*
X133257357Y-42224578D01*
X133160286Y-42269268D01*
X133136097Y-42288433D01*
X133061221Y-42379277D01*
X133029860Y-42481500D01*
X133029516Y-42525451D01*
X132851120Y-42525451D01*
X132852002Y-42430312D01*
X132890688Y-42308453D01*
X132960325Y-42204351D01*
X133054438Y-42121872D01*
X133166550Y-42064877D01*
X133290184Y-42037231D01*
X133418864Y-42042799D01*
X133546114Y-42085442D01*
X133601661Y-42118080D01*
X133671182Y-42179514D01*
X133735203Y-42260623D01*
X133785503Y-42348063D01*
X133813860Y-42428491D01*
X133816950Y-42467488D01*
X133823975Y-42495826D01*
X133857181Y-42514265D01*
X133922578Y-42527737D01*
X134013010Y-42545713D01*
X134078964Y-42572217D01*
X134140983Y-42616751D01*
X134169488Y-42641922D01*
X134199339Y-42673625D01*
X134221271Y-42711913D01*
X134239245Y-42767577D01*
X134257223Y-42851408D01*
X134268002Y-42910364D01*
X134305862Y-43123540D01*
X134513275Y-43188925D01*
X134803717Y-43303284D01*
X135071139Y-43454094D01*
X135313102Y-43637747D01*
X135527171Y-43850639D01*
X135710906Y-44089161D01*
X135861870Y-44349710D01*
X135977625Y-44628677D01*
X136055734Y-44922456D01*
X136093759Y-45227442D01*
X136090668Y-45522522D01*
X136045061Y-45831801D01*
X135957980Y-46129559D01*
X135832105Y-46411616D01*
X135670118Y-46673798D01*
X135474697Y-46911924D01*
X135248523Y-47121818D01*
X134994278Y-47299303D01*
X134925349Y-47338833D01*
X134698683Y-47445286D01*
X134450780Y-47529966D01*
X134195613Y-47589316D01*
X133947153Y-47619779D01*
X133809646Y-47622769D01*
X133495774Y-47597036D01*
X133200984Y-47532631D01*
X132919322Y-47427650D01*
X132644836Y-47280187D01*
X132552948Y-47220616D01*
X132305990Y-47028321D01*
X132094204Y-46811492D01*
X131917684Y-46573845D01*
X131776532Y-46319098D01*
X131670841Y-46050966D01*
X131600712Y-45773165D01*
X131586975Y-45660076D01*
X131566242Y-45489412D01*
X131566564Y-45417745D01*
X131744263Y-45417745D01*
X131764858Y-45628711D01*
X131803921Y-45841163D01*
X131858633Y-46039169D01*
X131914820Y-46183114D01*
X132033029Y-46410563D01*
X132165413Y-46608911D01*
X132266424Y-46732643D01*
X132478341Y-46940920D01*
X132715490Y-47114517D01*
X132973111Y-47252213D01*
X133246439Y-47352793D01*
X133530712Y-47415038D01*
X133821167Y-47437732D01*
X134113041Y-47419655D01*
X134401572Y-47359592D01*
X134541202Y-47314131D01*
X134814236Y-47191417D01*
X135060685Y-47035453D01*
X135279037Y-46850102D01*
X135467782Y-46639224D01*
X135625408Y-46406682D01*
X135750405Y-46156337D01*
X135841260Y-45892053D01*
X135896463Y-45617688D01*
X135914503Y-45337106D01*
X135893866Y-45054169D01*
X135833045Y-44772738D01*
X135730526Y-44496675D01*
X135682388Y-44397940D01*
X135555822Y-44181929D01*
X135414272Y-43995661D01*
X135279362Y-43854706D01*
X135073405Y-43683594D01*
X134841168Y-43534280D01*
X134595104Y-43413696D01*
X134347667Y-43328768D01*
X134322482Y-43322293D01*
X134053441Y-43277312D01*
X133772132Y-43270575D01*
X133487348Y-43300520D01*
X133207885Y-43365585D01*
X132942538Y-43464209D01*
X132700105Y-43594831D01*
X132667758Y-43616076D01*
X132491385Y-43753931D01*
X132317968Y-43924603D01*
X132157361Y-44116404D01*
X132019421Y-44317647D01*
X131920453Y-44502296D01*
X131861553Y-44655578D01*
X131809985Y-44835513D01*
X131770196Y-45023813D01*
X131746632Y-45202186D01*
X131744958Y-45224197D01*
X131744263Y-45417745D01*
X131566564Y-45417745D01*
X131567527Y-45203423D01*
G37*
G36*
X127278215Y-97389422D02*
G01*
X127158118Y-97388196D01*
X127036074Y-97382296D01*
X126930497Y-97372801D01*
X126886170Y-97366446D01*
X126794250Y-97347723D01*
X127697384Y-97347723D01*
X127728665Y-97525128D01*
X127950421Y-97486026D01*
X127919140Y-97308621D01*
X127697384Y-97347723D01*
X126794250Y-97347723D01*
X126758171Y-97340374D01*
X126669379Y-97310573D01*
X126617872Y-97271650D01*
X126601728Y-97218216D01*
X126602455Y-97215135D01*
X126609732Y-97184283D01*
X126777424Y-97184283D01*
X126940614Y-97206709D01*
X127102007Y-97223208D01*
X127261849Y-97226695D01*
X127430880Y-97216493D01*
X127619843Y-97191924D01*
X127839478Y-97152308D01*
X127856675Y-97148874D01*
X128018034Y-97114258D01*
X128165090Y-97078465D01*
X128287982Y-97044071D01*
X128376851Y-97013652D01*
X128381275Y-97011849D01*
X128483517Y-96966766D01*
X128574826Y-96921348D01*
X128647147Y-96880120D01*
X128692428Y-96847611D01*
X128703726Y-96830601D01*
X128685877Y-96812247D01*
X128638406Y-96771653D01*
X128567498Y-96713897D01*
X128479336Y-96644055D01*
X128424986Y-96601753D01*
X128330925Y-96527747D01*
X128251836Y-96463138D01*
X128193579Y-96412906D01*
X128162007Y-96382030D01*
X128158208Y-96374984D01*
X128181650Y-96359384D01*
X128234911Y-96330482D01*
X128307067Y-96294172D01*
X128316797Y-96289442D01*
X128389710Y-96251388D01*
X128443868Y-96217921D01*
X128468794Y-96195605D01*
X128469335Y-96193903D01*
X128453500Y-96172859D01*
X128407703Y-96129998D01*
X128337993Y-96070556D01*
X128250415Y-95999765D01*
X128195198Y-95956635D01*
X128099835Y-95882291D01*
X128018268Y-95817279D01*
X127956671Y-95766634D01*
X127921220Y-95735391D01*
X127915081Y-95728209D01*
X127932239Y-95711943D01*
X127979202Y-95685884D01*
X128018505Y-95667679D01*
X128077981Y-95639070D01*
X128115105Y-95615868D01*
X128121646Y-95607198D01*
X128103573Y-95589316D01*
X128055725Y-95549412D01*
X127984344Y-95492500D01*
X127895671Y-95423594D01*
X127841945Y-95382515D01*
X127746290Y-95308698D01*
X127664487Y-95243505D01*
X127602817Y-95192105D01*
X127567557Y-95159665D01*
X127561705Y-95151832D01*
X127578186Y-95133194D01*
X127618828Y-95119187D01*
X127681456Y-95103873D01*
X127714466Y-95085882D01*
X127716272Y-95060349D01*
X127685289Y-95022409D01*
X127619933Y-94967198D01*
X127552384Y-94915292D01*
X127356223Y-94766960D01*
X127222249Y-94973503D01*
X127161072Y-95070507D01*
X127126215Y-95135930D01*
X127117880Y-95174881D01*
X127136268Y-95192471D01*
X127181585Y-95193809D01*
X127230754Y-95187615D01*
X127276283Y-95186795D01*
X127295297Y-95197052D01*
X127284905Y-95221529D01*
X127254085Y-95276813D01*
X127206939Y-95355944D01*
X127147568Y-95451960D01*
X127111069Y-95509633D01*
X127046671Y-95611655D01*
X126992056Y-95700218D01*
X126951347Y-95768471D01*
X126928671Y-95809562D01*
X126925382Y-95818131D01*
X126946771Y-95827592D01*
X126999592Y-95836047D01*
X127042777Y-95839726D01*
X127108516Y-95846260D01*
X127151462Y-95855346D01*
X127160664Y-95861233D01*
X127150018Y-95884267D01*
X127119126Y-95938356D01*
X127072068Y-96016656D01*
X127012924Y-96112324D01*
X126975568Y-96171688D01*
X126911900Y-96274564D01*
X126858938Y-96364621D01*
X126820571Y-96434871D01*
X126800693Y-96478330D01*
X126799113Y-96488408D01*
X126825301Y-96500520D01*
X126884442Y-96513518D01*
X126964584Y-96524870D01*
X126978395Y-96526348D01*
X127059673Y-96536822D01*
X127120783Y-96548784D01*
X127150341Y-96559915D01*
X127151414Y-96561575D01*
X127141742Y-96586464D01*
X127111937Y-96640964D01*
X127066611Y-96717061D01*
X127010377Y-96806738D01*
X127009786Y-96807659D01*
X126947852Y-96904797D01*
X126890816Y-96995335D01*
X126845449Y-97068457D01*
X126820443Y-97110007D01*
X126777424Y-97184283D01*
X126609732Y-97184283D01*
X126619028Y-97144875D01*
X126667847Y-97046237D01*
X126733309Y-96937490D01*
X126788488Y-96847919D01*
X126833145Y-96772500D01*
X126862704Y-96719173D01*
X126872591Y-96695886D01*
X126850823Y-96682855D01*
X126798083Y-96663405D01*
X126743924Y-96646970D01*
X126669570Y-96622729D01*
X126627563Y-96597350D01*
X126605818Y-96562346D01*
X126600811Y-96546446D01*
X126596581Y-96513457D01*
X126604112Y-96474879D01*
X126626826Y-96423039D01*
X126668143Y-96350267D01*
X126731485Y-96248892D01*
X126738219Y-96238360D01*
X126801604Y-96138361D01*
X126842881Y-96069364D01*
X126864754Y-96024784D01*
X126869924Y-95998038D01*
X126861095Y-95982542D01*
X126846651Y-95974220D01*
X126779410Y-95939887D01*
X126743854Y-95909958D01*
X126728893Y-95874749D01*
X126728135Y-95870750D01*
X126736646Y-95835488D01*
X126765535Y-95771569D01*
X126810336Y-95687903D01*
X126866582Y-95593394D01*
X126869866Y-95588143D01*
X127019380Y-95349678D01*
X126958366Y-95312007D01*
X126913449Y-95275075D01*
X126891158Y-95239205D01*
X126900739Y-95205765D01*
X126933278Y-95139669D01*
X126986204Y-95045366D01*
X127056949Y-94927298D01*
X127142940Y-94789913D01*
X127219741Y-94670983D01*
X127264165Y-94617234D01*
X127309755Y-94583079D01*
X127323402Y-94578394D01*
X127343875Y-94576783D01*
X127366868Y-94581618D01*
X127397573Y-94596317D01*
X127441185Y-94624301D01*
X127502898Y-94668991D01*
X127587907Y-94733804D01*
X127701405Y-94822162D01*
X127742481Y-94854316D01*
X127842696Y-94935870D01*
X127908247Y-94998627D01*
X127942212Y-95048359D01*
X127947667Y-95090843D01*
X127927690Y-95131854D01*
X127904531Y-95158407D01*
X127891844Y-95175571D01*
X127892342Y-95194327D01*
X127910817Y-95220069D01*
X127952057Y-95258194D01*
X128020852Y-95314098D01*
X128092653Y-95370348D01*
X128178834Y-95440317D01*
X128250965Y-95504269D01*
X128301855Y-95555440D01*
X128324310Y-95587066D01*
X128324652Y-95588486D01*
X128315390Y-95632385D01*
X128282802Y-95686219D01*
X128272840Y-95698052D01*
X128213373Y-95764206D01*
X128441681Y-95938602D01*
X128538685Y-96014081D01*
X128604701Y-96069703D01*
X128645574Y-96111522D01*
X128667153Y-96145588D01*
X128675286Y-96177954D01*
X128675528Y-96180618D01*
X128672825Y-96224501D01*
X128650715Y-96262077D01*
X128600746Y-96305458D01*
X128575427Y-96324027D01*
X128518747Y-96367975D01*
X128481340Y-96403307D01*
X128472090Y-96418763D01*
X128490007Y-96438976D01*
X128537009Y-96479784D01*
X128605855Y-96535166D01*
X128685233Y-96596044D01*
X128798992Y-96685817D01*
X128873662Y-96758632D01*
X128909183Y-96820011D01*
X128905492Y-96875470D01*
X128862526Y-96930529D01*
X128780222Y-96990708D01*
X128680130Y-97049537D01*
X128593828Y-97092962D01*
X128483200Y-97141996D01*
X128366834Y-97188583D01*
X128317991Y-97206449D01*
X128097744Y-97284138D01*
X128155197Y-97609974D01*
X128058179Y-97627081D01*
X127980900Y-97642570D01*
X127911306Y-97659454D01*
X127898750Y-97663058D01*
X127840864Y-97676123D01*
X127760140Y-97689154D01*
X127707291Y-97695677D01*
X127578241Y-97709426D01*
X127551260Y-97556409D01*
X127521258Y-97386259D01*
X127278215Y-97389422D01*
G37*
G36*
X125348108Y-96054997D02*
G01*
X125385248Y-95770489D01*
X125458340Y-95491179D01*
X125567480Y-95220783D01*
X125712768Y-94963016D01*
X125894300Y-94721596D01*
X126112173Y-94500239D01*
X126236960Y-94396545D01*
X126420257Y-94254360D01*
X126412204Y-94208689D01*
X126386901Y-94065186D01*
X126368997Y-93932098D01*
X126368985Y-93891903D01*
X126547420Y-93891903D01*
X126551567Y-93955071D01*
X126562442Y-94023341D01*
X126589609Y-94177408D01*
X126685243Y-94129206D01*
X126749766Y-94101602D01*
X126842321Y-94068122D01*
X126947353Y-94034233D01*
X126997801Y-94019378D01*
X127172670Y-93978383D01*
X127359237Y-93949648D01*
X127544327Y-93934237D01*
X127714768Y-93933217D01*
X127857389Y-93947653D01*
X127865540Y-93949182D01*
X127882788Y-93944617D01*
X127887995Y-93916475D01*
X127881656Y-93856745D01*
X127874060Y-93811094D01*
X127857781Y-93730705D01*
X127840792Y-93665444D01*
X127828369Y-93632808D01*
X127781190Y-93594528D01*
X127697319Y-93568306D01*
X127583495Y-93554301D01*
X127446463Y-93552670D01*
X127292963Y-93563575D01*
X127129737Y-93587174D01*
X127004621Y-93613388D01*
X126853905Y-93652949D01*
X126741219Y-93691497D01*
X126659752Y-93732133D01*
X126602687Y-93777959D01*
X126578608Y-93807391D01*
X126556077Y-93847435D01*
X126547420Y-93891903D01*
X126368985Y-93891903D01*
X126368967Y-93833980D01*
X126376625Y-93792133D01*
X126417477Y-93708544D01*
X126486541Y-93627413D01*
X126569138Y-93564938D01*
X126593751Y-93552525D01*
X126624937Y-93533193D01*
X126637457Y-93502832D01*
X126636365Y-93476253D01*
X126635186Y-93447541D01*
X126631324Y-93417639D01*
X126631701Y-93377025D01*
X126810097Y-93377025D01*
X126814836Y-93444784D01*
X127105075Y-93405040D01*
X127214272Y-93388639D01*
X127306370Y-93372068D01*
X127372659Y-93357096D01*
X127404431Y-93345491D01*
X127405772Y-93343981D01*
X127404785Y-93310668D01*
X127388642Y-93257024D01*
X127385294Y-93248743D01*
X127325318Y-93157701D01*
X127240526Y-93096986D01*
X127141278Y-93069001D01*
X127037938Y-93076152D01*
X126940867Y-93120842D01*
X126916678Y-93140007D01*
X126841802Y-93230851D01*
X126810441Y-93333074D01*
X126810097Y-93377025D01*
X126631701Y-93377025D01*
X126632583Y-93281886D01*
X126671269Y-93160027D01*
X126740906Y-93055925D01*
X126835019Y-92973446D01*
X126947131Y-92916451D01*
X127070765Y-92888805D01*
X127199445Y-92894373D01*
X127326695Y-92937016D01*
X127382242Y-92969654D01*
X127451763Y-93031088D01*
X127515784Y-93112197D01*
X127566084Y-93199637D01*
X127594441Y-93280065D01*
X127597531Y-93319062D01*
X127604556Y-93347400D01*
X127637762Y-93365839D01*
X127703159Y-93379311D01*
X127793591Y-93397287D01*
X127859545Y-93423791D01*
X127921564Y-93468325D01*
X127950069Y-93493496D01*
X127979920Y-93525199D01*
X128001852Y-93563487D01*
X128019826Y-93619151D01*
X128037804Y-93702982D01*
X128048583Y-93761938D01*
X128086443Y-93975114D01*
X128293856Y-94040499D01*
X128584298Y-94154858D01*
X128851720Y-94305668D01*
X129093683Y-94489321D01*
X129307752Y-94702213D01*
X129491487Y-94940735D01*
X129642451Y-95201284D01*
X129758206Y-95480251D01*
X129836315Y-95774030D01*
X129874340Y-96079016D01*
X129871249Y-96374096D01*
X129825642Y-96683375D01*
X129738561Y-96981133D01*
X129612686Y-97263190D01*
X129450699Y-97525372D01*
X129255278Y-97763498D01*
X129029104Y-97973392D01*
X128774859Y-98150877D01*
X128705930Y-98190407D01*
X128479264Y-98296860D01*
X128231361Y-98381540D01*
X127976194Y-98440890D01*
X127727734Y-98471353D01*
X127590227Y-98474343D01*
X127276355Y-98448610D01*
X126981565Y-98384205D01*
X126699903Y-98279224D01*
X126425417Y-98131761D01*
X126333529Y-98072190D01*
X126086571Y-97879895D01*
X125874785Y-97663066D01*
X125698265Y-97425419D01*
X125557113Y-97170672D01*
X125451422Y-96902540D01*
X125381293Y-96624739D01*
X125367556Y-96511650D01*
X125346823Y-96340986D01*
X125347145Y-96269319D01*
X125524844Y-96269319D01*
X125545439Y-96480285D01*
X125584502Y-96692737D01*
X125639214Y-96890743D01*
X125695401Y-97034688D01*
X125813610Y-97262137D01*
X125945994Y-97460485D01*
X126047005Y-97584217D01*
X126258922Y-97792494D01*
X126496071Y-97966091D01*
X126753692Y-98103787D01*
X127027020Y-98204367D01*
X127311293Y-98266612D01*
X127601748Y-98289306D01*
X127893622Y-98271229D01*
X128182153Y-98211166D01*
X128321783Y-98165705D01*
X128594817Y-98042991D01*
X128841266Y-97887027D01*
X129059618Y-97701676D01*
X129248363Y-97490798D01*
X129405989Y-97258256D01*
X129530986Y-97007911D01*
X129621841Y-96743627D01*
X129677044Y-96469262D01*
X129695084Y-96188680D01*
X129674447Y-95905743D01*
X129613626Y-95624312D01*
X129511107Y-95348249D01*
X129462969Y-95249514D01*
X129336403Y-95033503D01*
X129194853Y-94847235D01*
X129059943Y-94706280D01*
X128853986Y-94535168D01*
X128621749Y-94385854D01*
X128375685Y-94265270D01*
X128128248Y-94180342D01*
X128103063Y-94173867D01*
X127834022Y-94128886D01*
X127552713Y-94122149D01*
X127267929Y-94152094D01*
X126988466Y-94217159D01*
X126723119Y-94315783D01*
X126480686Y-94446405D01*
X126448339Y-94467650D01*
X126271966Y-94605505D01*
X126098549Y-94776177D01*
X125937942Y-94967978D01*
X125800002Y-95169221D01*
X125701034Y-95353870D01*
X125642134Y-95507152D01*
X125590566Y-95687087D01*
X125550777Y-95875387D01*
X125527213Y-96053760D01*
X125525539Y-96075771D01*
X125524844Y-96269319D01*
X125347145Y-96269319D01*
X125348108Y-96054997D01*
G37*
G36*
X136404779Y-87845494D02*
G01*
X136468479Y-87889503D01*
X136496801Y-87925343D01*
X136505662Y-87941654D01*
X136512728Y-87960802D01*
X136518207Y-87986468D01*
X136522309Y-88022334D01*
X136525243Y-88072083D01*
X136527219Y-88139397D01*
X136528446Y-88227957D01*
X136529134Y-88341447D01*
X136529491Y-88483547D01*
X136529518Y-88500708D01*
X136530330Y-89023745D01*
X136615390Y-88930081D01*
X136654163Y-88886295D01*
X136708388Y-88823561D01*
X136772711Y-88748149D01*
X136841779Y-88666326D01*
X136896589Y-88600782D01*
X136968871Y-88516133D01*
X137035611Y-88442115D01*
X137092829Y-88382907D01*
X137136548Y-88342685D01*
X137155611Y-88328833D01*
X137230483Y-88301691D01*
X137304106Y-88302788D01*
X137371712Y-88327863D01*
X137428533Y-88372655D01*
X137469801Y-88432902D01*
X137490748Y-88504344D01*
X137486607Y-88582719D01*
X137476609Y-88615714D01*
X137460659Y-88642636D01*
X137427252Y-88688968D01*
X137380406Y-88749468D01*
X137324137Y-88818900D01*
X137284556Y-88866169D01*
X137218045Y-88944681D01*
X137151797Y-89023063D01*
X137091821Y-89094195D01*
X137044126Y-89150954D01*
X137027377Y-89170981D01*
X136981200Y-89226004D01*
X136937017Y-89278096D01*
X136904006Y-89316440D01*
X136902680Y-89317954D01*
X136877058Y-89347594D01*
X136835246Y-89396436D01*
X136782159Y-89458719D01*
X136722714Y-89528681D01*
X136694254Y-89562250D01*
X136528829Y-89757511D01*
X136528829Y-91092216D01*
X136581950Y-91065057D01*
X136608839Y-91050356D01*
X136661426Y-91020721D01*
X136737136Y-90977630D01*
X136833397Y-90922560D01*
X136947634Y-90856991D01*
X137077273Y-90782401D01*
X137219742Y-90700268D01*
X137372466Y-90612070D01*
X137532873Y-90519286D01*
X137632111Y-90461811D01*
X137662065Y-90442499D01*
X137684977Y-90420432D01*
X137704984Y-90388821D01*
X137726224Y-90340877D01*
X137752836Y-90269814D01*
X137758156Y-90255046D01*
X137778947Y-90197118D01*
X137808830Y-90113786D01*
X137845881Y-90010423D01*
X137888173Y-89892401D01*
X137933781Y-89765093D01*
X137980780Y-89633872D01*
X138000261Y-89579472D01*
X138044733Y-89456105D01*
X138086611Y-89341501D01*
X138124416Y-89239590D01*
X138156666Y-89154302D01*
X138181883Y-89089568D01*
X138198587Y-89049318D01*
X138203976Y-89038447D01*
X138242952Y-89001093D01*
X138300874Y-88970198D01*
X138363999Y-88952283D01*
X138389979Y-88950193D01*
X138468355Y-88965089D01*
X138536617Y-89005585D01*
X138588357Y-89065393D01*
X138617170Y-89138224D01*
X138620978Y-89176937D01*
X138615613Y-89204903D01*
X138600494Y-89258972D01*
X138577090Y-89334542D01*
X138546865Y-89427010D01*
X138511288Y-89531776D01*
X138473874Y-89638484D01*
X138434967Y-89747945D01*
X138399922Y-89846831D01*
X138370159Y-89931110D01*
X138347099Y-89996751D01*
X138332163Y-90039721D01*
X138326771Y-90055987D01*
X138326770Y-90056005D01*
X138340357Y-90049223D01*
X138378858Y-90028007D01*
X138438881Y-89994278D01*
X138517035Y-89949955D01*
X138609927Y-89896959D01*
X138714165Y-89837208D01*
X138768460Y-89805987D01*
X138903894Y-89728434D01*
X139014557Y-89666365D01*
X139103747Y-89618506D01*
X139174762Y-89583584D01*
X139230901Y-89560324D01*
X139275459Y-89547453D01*
X139311736Y-89543697D01*
X139343029Y-89547783D01*
X139372636Y-89558436D01*
X139388863Y-89566358D01*
X139459054Y-89618770D01*
X139502343Y-89687587D01*
X139516574Y-89769018D01*
X139515515Y-89789087D01*
X139504310Y-89846300D01*
X139484836Y-89896785D01*
X139476227Y-89910725D01*
X139454355Y-89929441D01*
X139407789Y-89961855D01*
X139340305Y-90005595D01*
X139255673Y-90058284D01*
X139157668Y-90117549D01*
X139050061Y-90181016D01*
X139007424Y-90205749D01*
X138899783Y-90268293D01*
X138802286Y-90325701D01*
X138718275Y-90375943D01*
X138651092Y-90416991D01*
X138604079Y-90446818D01*
X138580577Y-90463395D01*
X138578580Y-90466010D01*
X138596174Y-90470963D01*
X138641651Y-90480815D01*
X138710712Y-90494718D01*
X138799058Y-90511825D01*
X138902391Y-90531289D01*
X139011439Y-90551357D01*
X139145452Y-90576537D01*
X139261530Y-90599931D01*
X139356432Y-90620811D01*
X139426918Y-90638447D01*
X139469746Y-90652109D01*
X139478895Y-90656608D01*
X139538675Y-90712122D01*
X139572815Y-90778746D01*
X139583041Y-90850449D01*
X139571081Y-90921199D01*
X139538660Y-90984961D01*
X139487505Y-91035704D01*
X139419343Y-91067394D01*
X139359149Y-91075032D01*
X139336629Y-91073615D01*
X139299354Y-91069159D01*
X139245542Y-91061360D01*
X139173414Y-91049910D01*
X139081189Y-91034503D01*
X138967087Y-91014835D01*
X138829328Y-90990599D01*
X138666131Y-90961489D01*
X138475717Y-90927199D01*
X138256304Y-90887423D01*
X138069271Y-90853375D01*
X137995632Y-90841470D01*
X137945948Y-90837739D01*
X137912582Y-90841940D01*
X137897649Y-90847943D01*
X137873034Y-90861594D01*
X137824858Y-90888986D01*
X137757814Y-90927425D01*
X137676599Y-90974214D01*
X137585908Y-91026660D01*
X137550386Y-91047252D01*
X137454302Y-91102937D01*
X137363095Y-91155701D01*
X137282205Y-91202404D01*
X137217074Y-91239905D01*
X137173145Y-91265063D01*
X137164947Y-91269715D01*
X137039813Y-91340646D01*
X136941353Y-91396969D01*
X136867605Y-91439841D01*
X136816609Y-91470420D01*
X136786403Y-91489865D01*
X136775024Y-91499333D01*
X136774819Y-91500000D01*
X136788315Y-91510423D01*
X136825566Y-91534038D01*
X136881850Y-91567982D01*
X136952447Y-91609392D01*
X137007390Y-91641025D01*
X137092636Y-91689814D01*
X137198020Y-91750232D01*
X137315360Y-91817582D01*
X137436474Y-91887167D01*
X137553178Y-91954290D01*
X137585439Y-91972860D01*
X137931045Y-92171841D01*
X138067614Y-92146889D01*
X138328446Y-92099397D01*
X138558018Y-92057952D01*
X138757167Y-92022409D01*
X138926732Y-91992625D01*
X139067549Y-91968458D01*
X139180458Y-91949762D01*
X139266295Y-91936396D01*
X139325899Y-91928214D01*
X139360108Y-91925074D01*
X139362916Y-91925029D01*
X139441751Y-91938842D01*
X139504795Y-91976112D01*
X139550393Y-92030823D01*
X139576893Y-92096959D01*
X139582640Y-92168503D01*
X139565983Y-92239438D01*
X139525267Y-92303748D01*
X139478038Y-92343953D01*
X139447125Y-92356226D01*
X139386608Y-92372715D01*
X139299212Y-92392804D01*
X139187664Y-92415879D01*
X139054691Y-92441325D01*
X139010330Y-92449456D01*
X138896766Y-92470306D01*
X138794088Y-92489604D01*
X138706594Y-92506504D01*
X138638585Y-92520164D01*
X138594358Y-92529738D01*
X138578281Y-92534289D01*
X138587891Y-92545260D01*
X138620176Y-92568120D01*
X138669249Y-92598861D01*
X138697878Y-92615725D01*
X138868651Y-92714558D01*
X139013127Y-92798548D01*
X139133437Y-92868995D01*
X139231713Y-92927195D01*
X139310085Y-92974449D01*
X139370684Y-93012053D01*
X139415642Y-93041307D01*
X139447088Y-93063509D01*
X139467155Y-93079956D01*
X139476797Y-93090305D01*
X139505023Y-93150082D01*
X139516412Y-93222960D01*
X139509629Y-93293755D01*
X139497578Y-93326479D01*
X139447063Y-93393473D01*
X139380138Y-93438171D01*
X139304179Y-93457341D01*
X139226560Y-93447749D01*
X139223353Y-93446662D01*
X139197604Y-93435642D01*
X139156508Y-93414913D01*
X139098198Y-93383422D01*
X139020806Y-93340114D01*
X138922467Y-93283934D01*
X138801313Y-93213829D01*
X138655479Y-93128744D01*
X138523051Y-93051099D01*
X138453578Y-93010846D01*
X138394962Y-92977922D01*
X138352520Y-92955237D01*
X138331570Y-92945698D01*
X138330335Y-92945684D01*
X138334382Y-92961705D01*
X138348321Y-93004251D01*
X138370708Y-93069186D01*
X138400099Y-93152373D01*
X138435051Y-93249677D01*
X138468214Y-93340829D01*
X138520035Y-93484493D01*
X138560080Y-93601491D01*
X138588854Y-93695455D01*
X138606864Y-93770012D01*
X138614614Y-93828794D01*
X138612612Y-93875428D01*
X138601362Y-93913546D01*
X138581372Y-93946776D01*
X138556643Y-93975177D01*
X138487639Y-94026802D01*
X138408988Y-94047777D01*
X138335578Y-94042832D01*
X138300400Y-94033817D01*
X138269695Y-94018832D01*
X138241525Y-93994543D01*
X138213949Y-93957617D01*
X138185029Y-93904720D01*
X138152825Y-93832519D01*
X138115397Y-93737681D01*
X138070806Y-93616872D01*
X138043469Y-93540792D01*
X137997408Y-93412043D01*
X137948009Y-93274267D01*
X137898510Y-93136475D01*
X137852150Y-93007680D01*
X137812167Y-92896894D01*
X137798097Y-92858017D01*
X137694963Y-92573369D01*
X137117352Y-92240996D01*
X136992310Y-92169118D01*
X136876311Y-92102581D01*
X136772362Y-92043100D01*
X136683467Y-91992388D01*
X136612633Y-91952158D01*
X136562865Y-91924123D01*
X136537169Y-91909997D01*
X136534285Y-91908623D01*
X136533109Y-91924396D01*
X136532027Y-91969432D01*
X136531066Y-92040301D01*
X136530254Y-92133576D01*
X136529617Y-92245829D01*
X136529184Y-92373632D01*
X136528982Y-92513557D01*
X136528972Y-92574678D01*
X136529115Y-93240733D01*
X136745542Y-93496792D01*
X136889063Y-93666554D01*
X137012984Y-93813169D01*
X137118740Y-93938514D01*
X137207766Y-94044465D01*
X137281495Y-94132901D01*
X137341363Y-94205696D01*
X137388804Y-94264729D01*
X137425253Y-94311875D01*
X137452143Y-94349013D01*
X137470910Y-94378018D01*
X137482987Y-94400768D01*
X137489810Y-94419139D01*
X137492813Y-94435009D01*
X137493430Y-94450254D01*
X137493096Y-94466750D01*
X137493017Y-94474775D01*
X137478372Y-94546924D01*
X137439081Y-94612973D01*
X137382261Y-94665590D01*
X137315029Y-94697440D01*
X137271007Y-94703542D01*
X137203387Y-94689520D01*
X137130171Y-94650506D01*
X137059206Y-94591311D01*
X137024407Y-94552427D01*
X136965278Y-94479635D01*
X136899821Y-94400256D01*
X136831342Y-94318170D01*
X136763149Y-94237256D01*
X136698549Y-94161393D01*
X136640849Y-94094461D01*
X136593354Y-94040338D01*
X136559374Y-94002903D01*
X136542213Y-93986037D01*
X136541087Y-93985473D01*
X136538091Y-94000906D01*
X136535359Y-94045143D01*
X136532985Y-94114298D01*
X136531061Y-94204488D01*
X136529680Y-94311826D01*
X136528935Y-94432427D01*
X136528829Y-94500104D01*
X136528669Y-94653631D01*
X136527816Y-94777980D01*
X136525709Y-94876663D01*
X136521789Y-94953192D01*
X136515495Y-95011078D01*
X136506267Y-95053834D01*
X136493546Y-95084970D01*
X136476770Y-95107999D01*
X136455381Y-95126433D01*
X136428818Y-95143782D01*
X136425879Y-95145578D01*
X136364637Y-95169482D01*
X136300000Y-95177484D01*
X136229216Y-95167923D01*
X136174120Y-95145578D01*
X136147067Y-95128188D01*
X136125222Y-95110075D01*
X136108028Y-95087737D01*
X136094929Y-95057670D01*
X136085369Y-95016374D01*
X136078791Y-94960345D01*
X136074639Y-94886081D01*
X136072356Y-94790079D01*
X136071386Y-94668838D01*
X136071172Y-94518854D01*
X136071171Y-94497570D01*
X136071104Y-94354034D01*
X136070776Y-94240025D01*
X136069994Y-94152382D01*
X136068568Y-94087942D01*
X136066305Y-94043545D01*
X136063015Y-94016028D01*
X136058505Y-94002229D01*
X136052584Y-93998986D01*
X136045060Y-94003137D01*
X136041406Y-94006298D01*
X136022781Y-94026112D01*
X135986562Y-94067195D01*
X135936065Y-94125689D01*
X135874606Y-94197737D01*
X135805500Y-94279481D01*
X135759456Y-94334310D01*
X135666211Y-94444427D01*
X135589924Y-94531147D01*
X135527582Y-94596952D01*
X135476171Y-94644325D01*
X135432678Y-94675750D01*
X135394090Y-94693710D01*
X135357394Y-94700687D01*
X135319577Y-94699164D01*
X135317093Y-94698842D01*
X135232125Y-94672951D01*
X135166784Y-94623680D01*
X135124290Y-94555919D01*
X135107862Y-94474562D01*
X135117534Y-94395563D01*
X135129979Y-94375399D01*
X135161466Y-94333098D01*
X135209798Y-94271376D01*
X135272781Y-94192948D01*
X135348220Y-94100531D01*
X135433919Y-93996839D01*
X135527683Y-93884588D01*
X135599486Y-93799364D01*
X136071171Y-93241513D01*
X136071171Y-92575068D01*
X136071002Y-92431057D01*
X136070521Y-92297738D01*
X136069764Y-92178536D01*
X136068767Y-92076880D01*
X136067567Y-91996196D01*
X136066201Y-91939912D01*
X136064705Y-91911453D01*
X136064048Y-91908623D01*
X136055054Y-91912810D01*
X136030864Y-91925926D01*
X135990033Y-91948798D01*
X135931116Y-91982256D01*
X135852667Y-92027128D01*
X135753241Y-92084243D01*
X135631392Y-92154430D01*
X135485675Y-92238518D01*
X135314644Y-92337336D01*
X135116855Y-92451711D01*
X135107870Y-92456909D01*
X134904607Y-92574491D01*
X134768931Y-92948474D01*
X134723182Y-93075004D01*
X134673952Y-93211888D01*
X134624719Y-93349406D01*
X134578961Y-93477839D01*
X134540157Y-93587465D01*
X134532758Y-93608494D01*
X134498803Y-93703210D01*
X134466251Y-93790513D01*
X134437449Y-93864365D01*
X134414748Y-93918724D01*
X134401522Y-93945911D01*
X134350330Y-94002588D01*
X134283295Y-94036316D01*
X134208023Y-94046924D01*
X134132119Y-94034240D01*
X134063188Y-93998095D01*
X134019884Y-93954483D01*
X134000207Y-93922025D01*
X133988548Y-93884891D01*
X133985556Y-93839512D01*
X133991881Y-93782319D01*
X134008170Y-93709745D01*
X134035073Y-93618221D01*
X134073239Y-93504178D01*
X134123316Y-93364047D01*
X134131122Y-93342668D01*
X134169833Y-93236501D01*
X134204529Y-93140647D01*
X134233706Y-93059320D01*
X134255859Y-92996738D01*
X134269481Y-92957118D01*
X134273230Y-92944690D01*
X134260904Y-92946378D01*
X134229760Y-92961725D01*
X134211937Y-92972047D01*
X134150755Y-93008492D01*
X134071972Y-93054807D01*
X133980809Y-93107984D01*
X133882491Y-93165013D01*
X133782240Y-93222885D01*
X133685280Y-93278588D01*
X133596833Y-93329115D01*
X133522122Y-93371455D01*
X133466370Y-93402599D01*
X133439640Y-93417061D01*
X133348301Y-93450867D01*
X133264953Y-93453605D01*
X133191201Y-93425642D01*
X133128653Y-93367345D01*
X133111051Y-93342001D01*
X133088285Y-93279328D01*
X133085074Y-93204932D01*
X133100718Y-93132745D01*
X133123773Y-93089275D01*
X133145638Y-93070571D01*
X133192213Y-93038159D01*
X133259740Y-92994400D01*
X133344464Y-92941659D01*
X133442628Y-92882298D01*
X133550474Y-92818681D01*
X133594577Y-92793095D01*
X133718280Y-92721423D01*
X133815999Y-92664112D01*
X133890241Y-92619495D01*
X133943512Y-92585904D01*
X133978318Y-92561671D01*
X133997167Y-92545129D01*
X134002563Y-92534608D01*
X133997015Y-92528442D01*
X133993973Y-92527310D01*
X133966985Y-92520979D01*
X133912901Y-92510005D01*
X133836828Y-92495360D01*
X133743875Y-92478019D01*
X133639148Y-92458955D01*
X133578571Y-92448122D01*
X133469273Y-92428313D01*
X133368709Y-92409358D01*
X133282049Y-92392290D01*
X133214464Y-92378142D01*
X133171126Y-92367946D01*
X133159610Y-92364441D01*
X133091379Y-92323243D01*
X133045903Y-92266346D01*
X133022159Y-92199704D01*
X133019123Y-92129271D01*
X133035775Y-92060999D01*
X133071090Y-92000844D01*
X133124048Y-91954757D01*
X133193625Y-91928693D01*
X133235077Y-91925029D01*
X133264849Y-91927874D01*
X133323043Y-91936029D01*
X133405931Y-91948879D01*
X133509787Y-91965811D01*
X133630882Y-91986212D01*
X133765489Y-92009468D01*
X133909882Y-92034966D01*
X133985314Y-92048496D01*
X134670422Y-92172025D01*
X134900880Y-92038707D01*
X134985423Y-91989890D01*
X135090216Y-91929523D01*
X135207129Y-91862280D01*
X135328034Y-91792835D01*
X135444800Y-91725864D01*
X135478109Y-91706780D01*
X135574004Y-91651535D01*
X135659717Y-91601535D01*
X135731398Y-91559079D01*
X135785196Y-91526463D01*
X135817258Y-91505985D01*
X135824727Y-91500000D01*
X135811043Y-91490186D01*
X135772343Y-91466242D01*
X135712036Y-91430182D01*
X135633532Y-91384017D01*
X135540242Y-91329761D01*
X135435575Y-91269425D01*
X135381573Y-91238481D01*
X135264702Y-91171523D01*
X135150446Y-91105839D01*
X135043696Y-91044258D01*
X134949344Y-90989609D01*
X134872281Y-90944719D01*
X134817400Y-90912419D01*
X134806961Y-90906188D01*
X134675350Y-90827240D01*
X133987569Y-90951136D01*
X133839377Y-90977560D01*
X133699099Y-91002056D01*
X133570453Y-91024010D01*
X133457157Y-91042813D01*
X133362926Y-91057852D01*
X133291479Y-91068516D01*
X133246533Y-91074193D01*
X133234868Y-91074971D01*
X133157753Y-91060287D01*
X133093394Y-91020703D01*
X133045736Y-90962688D01*
X133018721Y-90892712D01*
X133016294Y-90817243D01*
X133037636Y-90751408D01*
X133055133Y-90719664D01*
X133073625Y-90693693D01*
X133096888Y-90672122D01*
X133128696Y-90653575D01*
X133172822Y-90636678D01*
X133233041Y-90620056D01*
X133313128Y-90602336D01*
X133416856Y-90582142D01*
X133548001Y-90558099D01*
X133588527Y-90550783D01*
X133705136Y-90529811D01*
X133810974Y-90510874D01*
X133901853Y-90494714D01*
X133973587Y-90482072D01*
X134021988Y-90473688D01*
X134042870Y-90470305D01*
X134043307Y-90470270D01*
X134031832Y-90462491D01*
X133995394Y-90440488D01*
X133937408Y-90406261D01*
X133861291Y-90361812D01*
X133770459Y-90309141D01*
X133668327Y-90250250D01*
X133635245Y-90231238D01*
X133503874Y-90155750D01*
X133397892Y-90094544D01*
X133314338Y-90045630D01*
X133250251Y-90007016D01*
X133202669Y-89976708D01*
X133168631Y-89952716D01*
X133145176Y-89933048D01*
X133129343Y-89915710D01*
X133118170Y-89898713D01*
X133108697Y-89880062D01*
X133106584Y-89875619D01*
X133084154Y-89796050D01*
X133089142Y-89718799D01*
X133117611Y-89649280D01*
X133165625Y-89592908D01*
X133229248Y-89555097D01*
X133304543Y-89541262D01*
X133346722Y-89545287D01*
X133373638Y-89555821D01*
X133424734Y-89580855D01*
X133496051Y-89618257D01*
X133583625Y-89665892D01*
X133683498Y-89721629D01*
X133791707Y-89783333D01*
X133831918Y-89806584D01*
X133939507Y-89868825D01*
X134037634Y-89925209D01*
X134122841Y-89973778D01*
X134191672Y-90012577D01*
X134240667Y-90039649D01*
X134266370Y-90053038D01*
X134269399Y-90054103D01*
X134265256Y-90038345D01*
X134251375Y-89995855D01*
X134229138Y-89930643D01*
X134199929Y-89846716D01*
X134165131Y-89748083D01*
X134126128Y-89638753D01*
X134124804Y-89635063D01*
X134075814Y-89497065D01*
X134037901Y-89385777D01*
X134010402Y-89297397D01*
X133992658Y-89228124D01*
X133984006Y-89174158D01*
X133983787Y-89131699D01*
X133991338Y-89096944D01*
X134005999Y-89066094D01*
X134021744Y-89042571D01*
X134075998Y-88992431D01*
X134147002Y-88959431D01*
X134206886Y-88950193D01*
X134264767Y-88960321D01*
X134326092Y-88986228D01*
X134377488Y-89021198D01*
X134400297Y-89047312D01*
X134410155Y-89069778D01*
X134429660Y-89119628D01*
X134457542Y-89193430D01*
X134492532Y-89287753D01*
X134533363Y-89399168D01*
X134578765Y-89524243D01*
X134627470Y-89659547D01*
X134650142Y-89722899D01*
X134699718Y-89861557D01*
X134746254Y-89991468D01*
X134788519Y-90109216D01*
X134825286Y-90211386D01*
X134855323Y-90294565D01*
X134877401Y-90355336D01*
X134890290Y-90390286D01*
X134892781Y-90396718D01*
X134911974Y-90417641D01*
X134953585Y-90449345D01*
X135011172Y-90487261D01*
X135067904Y-90520977D01*
X135176042Y-90582549D01*
X135305667Y-90656785D01*
X135450061Y-90739819D01*
X135602510Y-90827787D01*
X135756295Y-90916824D01*
X135817825Y-90952538D01*
X135887169Y-90992647D01*
X135949779Y-91028551D01*
X135998093Y-91055931D01*
X136022136Y-91069205D01*
X136062999Y-91090928D01*
X136071541Y-89763358D01*
X135981503Y-89653304D01*
X135956140Y-89622447D01*
X135927213Y-89587575D01*
X135892801Y-89546418D01*
X135850981Y-89496705D01*
X135799832Y-89436166D01*
X135737432Y-89362530D01*
X135661858Y-89273528D01*
X135571191Y-89166889D01*
X135463506Y-89040343D01*
X135336884Y-88891619D01*
X135311132Y-88861380D01*
X135252640Y-88791397D01*
X135200701Y-88726835D01*
X135159621Y-88673228D01*
X135133706Y-88636113D01*
X135127989Y-88625940D01*
X135107891Y-88547663D01*
X135115481Y-88472703D01*
X135146154Y-88405724D01*
X135195301Y-88351389D01*
X135258317Y-88314363D01*
X135330594Y-88299312D01*
X135407524Y-88310898D01*
X135430194Y-88319975D01*
X135469849Y-88347129D01*
X135525994Y-88399799D01*
X135599204Y-88478565D01*
X135678893Y-88570746D01*
X135748646Y-88653324D01*
X135819424Y-88736983D01*
X135885118Y-88814510D01*
X135939615Y-88878690D01*
X135964929Y-88908413D01*
X136062999Y-89023346D01*
X136071171Y-88492336D01*
X136073629Y-88339319D01*
X136076183Y-88215505D01*
X136079396Y-88117413D01*
X136083831Y-88041557D01*
X136090053Y-87984457D01*
X136098624Y-87942628D01*
X136110108Y-87912588D01*
X136125067Y-87890854D01*
X136144066Y-87873943D01*
X136167667Y-87858372D01*
X136174370Y-87854270D01*
X136248873Y-87825926D01*
X136328626Y-87823651D01*
X136404779Y-87845494D01*
G37*
%TO.C,U5*%
X124200000Y-50850000D02*
X131500000Y-50850000D01*
X131500000Y-56350000D02*
X131500000Y-55200000D01*
X124200000Y-56350000D02*
X131500000Y-56350000D01*
%TO.C,G\u002A\u002A\u002A*%
G36*
X147427016Y-50429442D02*
G01*
X147314581Y-50387214D01*
X147201915Y-50339928D01*
X147105952Y-50294896D01*
X147066472Y-50273764D01*
X146955109Y-50205485D01*
X146881865Y-50147113D01*
X146846776Y-50092921D01*
X146848310Y-50065393D01*
X147026588Y-50065393D01*
X147172266Y-50142281D01*
X147318283Y-50212985D01*
X147467292Y-50270930D01*
X147629619Y-50319156D01*
X147815590Y-50360697D01*
X148035528Y-50398590D01*
X148052862Y-50401245D01*
X148216330Y-50423904D01*
X148366759Y-50440566D01*
X148494003Y-50450278D01*
X148587917Y-50452089D01*
X148592691Y-50451907D01*
X148704186Y-50444513D01*
X148805522Y-50433063D01*
X148887583Y-50419057D01*
X148941252Y-50403995D01*
X148957686Y-50391875D01*
X148947191Y-50368523D01*
X148916467Y-50314141D01*
X148869589Y-50235616D01*
X148810630Y-50139833D01*
X148774027Y-50081493D01*
X148710950Y-49979780D01*
X148658728Y-49892017D01*
X148621164Y-49824890D01*
X148602057Y-49785077D01*
X148600897Y-49777157D01*
X148628261Y-49770515D01*
X148688195Y-49761572D01*
X148768418Y-49752131D01*
X148779179Y-49751014D01*
X148860710Y-49740193D01*
X148923049Y-49727267D01*
X148954104Y-49714822D01*
X148955195Y-49713408D01*
X148947511Y-49688217D01*
X148919136Y-49632278D01*
X148873960Y-49552578D01*
X148815876Y-49456103D01*
X148778740Y-49396688D01*
X148714555Y-49294212D01*
X148660143Y-49205223D01*
X148619583Y-49136565D01*
X148596954Y-49095081D01*
X148593643Y-49086233D01*
X148615329Y-49076817D01*
X148668372Y-49068391D01*
X148711531Y-49064726D01*
X148777206Y-49058185D01*
X148820027Y-49049079D01*
X148829138Y-49043169D01*
X148818271Y-49020185D01*
X148786957Y-48966322D01*
X148739346Y-48888428D01*
X148679588Y-48793349D01*
X148643151Y-48736373D01*
X148578512Y-48634291D01*
X148523940Y-48545052D01*
X148483568Y-48475660D01*
X148461530Y-48433116D01*
X148458710Y-48423753D01*
X148480572Y-48411876D01*
X148523553Y-48412615D01*
X148587642Y-48419645D01*
X148624814Y-48414028D01*
X148635245Y-48390654D01*
X148619107Y-48344405D01*
X148576575Y-48270170D01*
X148530853Y-48198291D01*
X148397254Y-47991814D01*
X148200718Y-48140079D01*
X148110053Y-48210309D01*
X148054923Y-48259865D01*
X148033767Y-48293616D01*
X148045031Y-48316434D01*
X148087157Y-48333191D01*
X148135479Y-48344187D01*
X148178543Y-48358988D01*
X148192902Y-48375130D01*
X148174766Y-48394577D01*
X148126896Y-48435985D01*
X148055529Y-48494219D01*
X147966899Y-48564139D01*
X147912876Y-48605851D01*
X147817468Y-48679694D01*
X147735856Y-48744237D01*
X147674259Y-48794451D01*
X147638896Y-48825308D01*
X147632875Y-48832235D01*
X147649738Y-48848441D01*
X147696481Y-48874452D01*
X147735803Y-48892679D01*
X147795343Y-48921303D01*
X147832592Y-48944530D01*
X147839226Y-48953209D01*
X147821344Y-48971212D01*
X147773815Y-49011474D01*
X147702815Y-49068957D01*
X147614517Y-49138627D01*
X147559110Y-49181635D01*
X147464096Y-49256530D01*
X147383527Y-49323042D01*
X147323446Y-49375934D01*
X147289904Y-49409973D01*
X147284973Y-49418903D01*
X147305438Y-49439241D01*
X147356567Y-49471683D01*
X147427993Y-49509760D01*
X147440466Y-49515873D01*
X147513260Y-49553513D01*
X147566594Y-49585655D01*
X147590562Y-49606225D01*
X147591002Y-49608151D01*
X147573401Y-49628231D01*
X147526753Y-49669251D01*
X147458135Y-49725256D01*
X147374620Y-49790292D01*
X147373750Y-49790955D01*
X147282328Y-49861053D01*
X147197765Y-49926623D01*
X147130125Y-49979818D01*
X147092416Y-50010310D01*
X147026588Y-50065393D01*
X146848310Y-50065393D01*
X146849882Y-50037188D01*
X146851619Y-50034542D01*
X146891223Y-49974187D01*
X146970834Y-49898195D01*
X147069541Y-49818396D01*
X147152028Y-49753098D01*
X147219787Y-49697502D01*
X147265802Y-49657501D01*
X147283057Y-49638999D01*
X147267059Y-49619309D01*
X147224151Y-49582994D01*
X147178880Y-49549027D01*
X147117301Y-49500817D01*
X147086507Y-49462601D01*
X147078046Y-49422271D01*
X147078779Y-49405618D01*
X147086087Y-49373171D01*
X147106358Y-49339495D01*
X147145433Y-49298550D01*
X147209147Y-49244298D01*
X147303342Y-49170701D01*
X147313272Y-49163108D01*
X147407036Y-49090818D01*
X147469422Y-49040100D01*
X147505223Y-49005689D01*
X147519229Y-48982324D01*
X147516233Y-48964743D01*
X147505506Y-48951983D01*
X147454063Y-48896723D01*
X147430887Y-48856437D01*
X147428871Y-48818235D01*
X147429526Y-48814219D01*
X147449584Y-48783993D01*
X147498592Y-48733810D01*
X147569307Y-48670512D01*
X147654485Y-48600940D01*
X147659367Y-48597129D01*
X147881424Y-48424182D01*
X147836974Y-48367915D01*
X147807397Y-48317848D01*
X147798719Y-48276517D01*
X147819159Y-48248370D01*
X147872341Y-48197390D01*
X147954330Y-48126875D01*
X148061189Y-48040124D01*
X148188984Y-47940435D01*
X148301829Y-47854945D01*
X148361957Y-47819631D01*
X148416480Y-47803129D01*
X148430906Y-47803394D01*
X148450696Y-47808882D01*
X148470648Y-47821290D01*
X148494474Y-47845604D01*
X148525885Y-47886817D01*
X148568591Y-47949918D01*
X148626306Y-48039898D01*
X148702739Y-48161745D01*
X148730341Y-48206010D01*
X148796619Y-48316921D01*
X148836752Y-48398312D01*
X148851659Y-48456662D01*
X148842255Y-48498450D01*
X148809456Y-48530155D01*
X148778612Y-48547186D01*
X148760820Y-48558976D01*
X148754873Y-48576770D01*
X148763430Y-48607279D01*
X148789143Y-48657209D01*
X148834670Y-48733271D01*
X148882901Y-48810687D01*
X148939954Y-48905912D01*
X148985862Y-48990677D01*
X149016182Y-49056167D01*
X149026466Y-49093566D01*
X149026301Y-49095018D01*
X149002584Y-49133102D01*
X148953549Y-49172543D01*
X148940140Y-49180255D01*
X148861633Y-49222081D01*
X149016526Y-49464045D01*
X149081865Y-49568150D01*
X149124875Y-49642996D01*
X149148980Y-49696272D01*
X149157607Y-49735664D01*
X149154179Y-49768861D01*
X149153496Y-49771446D01*
X149135947Y-49811758D01*
X149102319Y-49839506D01*
X149040526Y-49863181D01*
X149010383Y-49871970D01*
X148942091Y-49893882D01*
X148894854Y-49914290D01*
X148880876Y-49925650D01*
X148890800Y-49950772D01*
X148921010Y-50005195D01*
X148966762Y-50080783D01*
X149020531Y-50165138D01*
X149096726Y-50288405D01*
X149141989Y-50382368D01*
X149154375Y-50452194D01*
X149131938Y-50503046D01*
X149072732Y-50540089D01*
X148974809Y-50568489D01*
X148860633Y-50589538D01*
X148764683Y-50600827D01*
X148643956Y-50609066D01*
X148518674Y-50613044D01*
X148466666Y-50613128D01*
X148233130Y-50610802D01*
X148175676Y-50936638D01*
X148078658Y-50919532D01*
X148000742Y-50907655D01*
X147929570Y-50899719D01*
X147916539Y-50898811D01*
X147857676Y-50891289D01*
X147777363Y-50875926D01*
X147725470Y-50863979D01*
X147599500Y-50832761D01*
X147620965Y-50711026D01*
X147803886Y-50711026D01*
X148025642Y-50750128D01*
X148056923Y-50572723D01*
X147835167Y-50533621D01*
X147803886Y-50711026D01*
X147620965Y-50711026D01*
X147626481Y-50679745D01*
X147656483Y-50509595D01*
X147427016Y-50429442D01*
G37*
G36*
X146069709Y-48515356D02*
G01*
X146201917Y-48260709D01*
X146366130Y-48023242D01*
X146561169Y-47806481D01*
X146785856Y-47613951D01*
X147039011Y-47449178D01*
X147319454Y-47315688D01*
X147472180Y-47260926D01*
X147693054Y-47190008D01*
X147695591Y-47175618D01*
X147878511Y-47175618D01*
X147984864Y-47163032D01*
X148054937Y-47159161D01*
X148153360Y-47159356D01*
X148263650Y-47163434D01*
X148316136Y-47166729D01*
X148494480Y-47188015D01*
X148679623Y-47224822D01*
X148858822Y-47273645D01*
X149019333Y-47330981D01*
X149148415Y-47393326D01*
X149155552Y-47397550D01*
X149173321Y-47399160D01*
X149187840Y-47374496D01*
X149202312Y-47316200D01*
X149210787Y-47270704D01*
X149222984Y-47189596D01*
X149229341Y-47122460D01*
X149228829Y-47087543D01*
X149197588Y-47035436D01*
X149127743Y-46982109D01*
X149025574Y-46930018D01*
X148897363Y-46881618D01*
X148749391Y-46839365D01*
X148587938Y-46805715D01*
X148461402Y-46787555D01*
X148306243Y-46773183D01*
X148187170Y-46770865D01*
X148096717Y-46781187D01*
X148027420Y-46804732D01*
X147994727Y-46824153D01*
X147959859Y-46854077D01*
X147936515Y-46892902D01*
X147918808Y-46953679D01*
X147905677Y-47021552D01*
X147878511Y-47175618D01*
X147695591Y-47175618D01*
X147701107Y-47144337D01*
X147726410Y-47000834D01*
X147755105Y-46869648D01*
X147788635Y-46777438D01*
X147810143Y-46740733D01*
X147877121Y-46676158D01*
X147969769Y-46623541D01*
X148068752Y-46593084D01*
X148096126Y-46589837D01*
X148132043Y-46582337D01*
X148148602Y-46564209D01*
X148340728Y-46564209D01*
X148627057Y-46626130D01*
X148735278Y-46648065D01*
X148827489Y-46663993D01*
X148894901Y-46672596D01*
X148928726Y-46672557D01*
X148930502Y-46671597D01*
X148940969Y-46639956D01*
X148944146Y-46584026D01*
X148943833Y-46575099D01*
X148918612Y-46469035D01*
X148859699Y-46382981D01*
X148776008Y-46322738D01*
X148676454Y-46294113D01*
X148569953Y-46302908D01*
X148540667Y-46312645D01*
X148439237Y-46372401D01*
X148374804Y-46457733D01*
X148359450Y-46498915D01*
X148340728Y-46564209D01*
X148148602Y-46564209D01*
X148154192Y-46558089D01*
X148162256Y-46532740D01*
X148170969Y-46505356D01*
X148177567Y-46475937D01*
X148225180Y-46348801D01*
X148303211Y-46247523D01*
X148404253Y-46173516D01*
X148520901Y-46128199D01*
X148645745Y-46112986D01*
X148771378Y-46129293D01*
X148890393Y-46178536D01*
X148995385Y-46262129D01*
X149036419Y-46311797D01*
X149080736Y-46393304D01*
X149113155Y-46491418D01*
X149130515Y-46590788D01*
X149129654Y-46676064D01*
X149119220Y-46713766D01*
X149116129Y-46742798D01*
X149141026Y-46771483D01*
X149197871Y-46806509D01*
X149276702Y-46854331D01*
X149329613Y-46901794D01*
X149372660Y-46964854D01*
X149390837Y-46998256D01*
X149408045Y-47038257D01*
X149415558Y-47081737D01*
X149413411Y-47140191D01*
X149401633Y-47225115D01*
X149391598Y-47284203D01*
X149354264Y-47497471D01*
X149526805Y-47629853D01*
X149760618Y-47836652D01*
X149960333Y-48069831D01*
X150124891Y-48325165D01*
X150253236Y-48598433D01*
X150344311Y-48885412D01*
X150397059Y-49181881D01*
X150410420Y-49483614D01*
X150383340Y-49786391D01*
X150314760Y-50085989D01*
X150210933Y-50362217D01*
X150062296Y-50637245D01*
X149878628Y-50887263D01*
X149663875Y-51109258D01*
X149421985Y-51300225D01*
X149156906Y-51457153D01*
X148872583Y-51577033D01*
X148572968Y-51656857D01*
X148494676Y-51670428D01*
X148245271Y-51692937D01*
X147983356Y-51687722D01*
X147723278Y-51656220D01*
X147479383Y-51599868D01*
X147349146Y-51555648D01*
X147063005Y-51424116D01*
X146808020Y-51262771D01*
X146579250Y-51067787D01*
X146371753Y-50835338D01*
X146305781Y-50747932D01*
X146139485Y-50482769D01*
X146014631Y-50206582D01*
X145930037Y-49922893D01*
X145884525Y-49635232D01*
X145878320Y-49400265D01*
X146057417Y-49400265D01*
X146060983Y-49554746D01*
X146094271Y-49808909D01*
X146150832Y-50040573D01*
X146203433Y-50191390D01*
X146331335Y-50459586D01*
X146494809Y-50703824D01*
X146689798Y-50921328D01*
X146912242Y-51109325D01*
X147158083Y-51265043D01*
X147423259Y-51385710D01*
X147703713Y-51468551D01*
X147995386Y-51510793D01*
X148142144Y-51515830D01*
X148440683Y-51493899D01*
X148725612Y-51431632D01*
X148994190Y-51332140D01*
X149243677Y-51198534D01*
X149471331Y-51033928D01*
X149674413Y-50841432D01*
X149850179Y-50624160D01*
X149995891Y-50385221D01*
X150108807Y-50127731D01*
X150186186Y-49854799D01*
X150225288Y-49569539D01*
X150223370Y-49275061D01*
X150211904Y-49165815D01*
X150166852Y-48919543D01*
X150097546Y-48696096D01*
X150018981Y-48517500D01*
X149883969Y-48286265D01*
X149716805Y-48066526D01*
X149526823Y-47869055D01*
X149323355Y-47704621D01*
X149301903Y-47689923D01*
X149064473Y-47555637D01*
X148802432Y-47453093D01*
X148524582Y-47383830D01*
X148239719Y-47349389D01*
X147956643Y-47351312D01*
X147684155Y-47391139D01*
X147646493Y-47400040D01*
X147433607Y-47469258D01*
X147212275Y-47570325D01*
X146995754Y-47695628D01*
X146797304Y-47837557D01*
X146641150Y-47977221D01*
X146533377Y-48101113D01*
X146423377Y-48252560D01*
X146321586Y-48415895D01*
X146238436Y-48575452D01*
X146229335Y-48595563D01*
X146162484Y-48777201D01*
X146109682Y-48982487D01*
X146073727Y-49195488D01*
X146057417Y-49400265D01*
X145878320Y-49400265D01*
X145876916Y-49347122D01*
X145906029Y-49062089D01*
X145931799Y-48951122D01*
X145970688Y-48783659D01*
X146069709Y-48515356D01*
G37*
G36*
X130868215Y-70549422D02*
G01*
X130748118Y-70548196D01*
X130626074Y-70542296D01*
X130520497Y-70532801D01*
X130476170Y-70526446D01*
X130384250Y-70507723D01*
X131287384Y-70507723D01*
X131318665Y-70685128D01*
X131540421Y-70646026D01*
X131509140Y-70468621D01*
X131287384Y-70507723D01*
X130384250Y-70507723D01*
X130348171Y-70500374D01*
X130259379Y-70470573D01*
X130207872Y-70431650D01*
X130191728Y-70378216D01*
X130192455Y-70375135D01*
X130199732Y-70344283D01*
X130367424Y-70344283D01*
X130530614Y-70366709D01*
X130692007Y-70383208D01*
X130851849Y-70386695D01*
X131020880Y-70376493D01*
X131209843Y-70351924D01*
X131429478Y-70312308D01*
X131446675Y-70308874D01*
X131608034Y-70274258D01*
X131755090Y-70238465D01*
X131877982Y-70204071D01*
X131966851Y-70173652D01*
X131971275Y-70171849D01*
X132073517Y-70126766D01*
X132164826Y-70081348D01*
X132237147Y-70040120D01*
X132282428Y-70007611D01*
X132293726Y-69990601D01*
X132275877Y-69972247D01*
X132228406Y-69931653D01*
X132157498Y-69873897D01*
X132069336Y-69804055D01*
X132014986Y-69761753D01*
X131920925Y-69687747D01*
X131841836Y-69623138D01*
X131783579Y-69572906D01*
X131752007Y-69542030D01*
X131748208Y-69534984D01*
X131771650Y-69519384D01*
X131824911Y-69490482D01*
X131897067Y-69454172D01*
X131906797Y-69449442D01*
X131979710Y-69411388D01*
X132033868Y-69377921D01*
X132058794Y-69355605D01*
X132059335Y-69353903D01*
X132043500Y-69332859D01*
X131997703Y-69289998D01*
X131927993Y-69230556D01*
X131840415Y-69159765D01*
X131785198Y-69116635D01*
X131689835Y-69042291D01*
X131608268Y-68977279D01*
X131546671Y-68926634D01*
X131511220Y-68895391D01*
X131505081Y-68888209D01*
X131522239Y-68871943D01*
X131569202Y-68845884D01*
X131608505Y-68827679D01*
X131667981Y-68799070D01*
X131705105Y-68775868D01*
X131711646Y-68767198D01*
X131693573Y-68749316D01*
X131645725Y-68709412D01*
X131574344Y-68652500D01*
X131485671Y-68583594D01*
X131431945Y-68542515D01*
X131336290Y-68468698D01*
X131254487Y-68403505D01*
X131192817Y-68352105D01*
X131157557Y-68319665D01*
X131151705Y-68311832D01*
X131168186Y-68293194D01*
X131208828Y-68279187D01*
X131271456Y-68263873D01*
X131304466Y-68245882D01*
X131306272Y-68220349D01*
X131275289Y-68182409D01*
X131209933Y-68127198D01*
X131142384Y-68075292D01*
X130946223Y-67926960D01*
X130812249Y-68133503D01*
X130751072Y-68230507D01*
X130716215Y-68295930D01*
X130707880Y-68334881D01*
X130726268Y-68352471D01*
X130771585Y-68353809D01*
X130820754Y-68347615D01*
X130866283Y-68346795D01*
X130885297Y-68357052D01*
X130874905Y-68381529D01*
X130844085Y-68436813D01*
X130796939Y-68515944D01*
X130737568Y-68611960D01*
X130701069Y-68669633D01*
X130636671Y-68771655D01*
X130582056Y-68860218D01*
X130541347Y-68928471D01*
X130518671Y-68969562D01*
X130515382Y-68978131D01*
X130536771Y-68987592D01*
X130589592Y-68996047D01*
X130632777Y-68999726D01*
X130698516Y-69006260D01*
X130741462Y-69015346D01*
X130750664Y-69021233D01*
X130740018Y-69044267D01*
X130709126Y-69098356D01*
X130662068Y-69176656D01*
X130602924Y-69272324D01*
X130565568Y-69331688D01*
X130501900Y-69434564D01*
X130448938Y-69524621D01*
X130410571Y-69594871D01*
X130390693Y-69638330D01*
X130389113Y-69648408D01*
X130415301Y-69660520D01*
X130474442Y-69673518D01*
X130554584Y-69684870D01*
X130568395Y-69686348D01*
X130649673Y-69696822D01*
X130710783Y-69708784D01*
X130740341Y-69719915D01*
X130741414Y-69721575D01*
X130731742Y-69746464D01*
X130701937Y-69800964D01*
X130656611Y-69877061D01*
X130600377Y-69966738D01*
X130599786Y-69967659D01*
X130537852Y-70064797D01*
X130480816Y-70155335D01*
X130435449Y-70228457D01*
X130410443Y-70270007D01*
X130367424Y-70344283D01*
X130199732Y-70344283D01*
X130209028Y-70304875D01*
X130257847Y-70206237D01*
X130323309Y-70097490D01*
X130378488Y-70007919D01*
X130423145Y-69932500D01*
X130452704Y-69879173D01*
X130462591Y-69855886D01*
X130440823Y-69842855D01*
X130388083Y-69823405D01*
X130333924Y-69806970D01*
X130259570Y-69782729D01*
X130217563Y-69757350D01*
X130195818Y-69722346D01*
X130190811Y-69706446D01*
X130186581Y-69673457D01*
X130194112Y-69634879D01*
X130216826Y-69583039D01*
X130258143Y-69510267D01*
X130321485Y-69408892D01*
X130328219Y-69398360D01*
X130391604Y-69298361D01*
X130432881Y-69229364D01*
X130454754Y-69184784D01*
X130459924Y-69158038D01*
X130451095Y-69142542D01*
X130436651Y-69134220D01*
X130369410Y-69099887D01*
X130333854Y-69069958D01*
X130318893Y-69034749D01*
X130318135Y-69030750D01*
X130326646Y-68995488D01*
X130355535Y-68931569D01*
X130400336Y-68847903D01*
X130456582Y-68753394D01*
X130459866Y-68748143D01*
X130609380Y-68509678D01*
X130548366Y-68472007D01*
X130503449Y-68435075D01*
X130481158Y-68399205D01*
X130490739Y-68365765D01*
X130523278Y-68299669D01*
X130576204Y-68205366D01*
X130646949Y-68087298D01*
X130732940Y-67949913D01*
X130809741Y-67830983D01*
X130854165Y-67777234D01*
X130899755Y-67743079D01*
X130913402Y-67738394D01*
X130933875Y-67736783D01*
X130956868Y-67741618D01*
X130987573Y-67756317D01*
X131031185Y-67784301D01*
X131092898Y-67828991D01*
X131177907Y-67893804D01*
X131291405Y-67982162D01*
X131332481Y-68014316D01*
X131432696Y-68095870D01*
X131498247Y-68158627D01*
X131532212Y-68208359D01*
X131537667Y-68250843D01*
X131517690Y-68291854D01*
X131494531Y-68318407D01*
X131481844Y-68335571D01*
X131482342Y-68354327D01*
X131500817Y-68380069D01*
X131542057Y-68418194D01*
X131610852Y-68474098D01*
X131682653Y-68530348D01*
X131768834Y-68600317D01*
X131840965Y-68664269D01*
X131891855Y-68715440D01*
X131914310Y-68747066D01*
X131914652Y-68748486D01*
X131905390Y-68792385D01*
X131872802Y-68846219D01*
X131862840Y-68858052D01*
X131803373Y-68924206D01*
X132031681Y-69098602D01*
X132128685Y-69174081D01*
X132194701Y-69229703D01*
X132235574Y-69271522D01*
X132257153Y-69305588D01*
X132265286Y-69337954D01*
X132265528Y-69340618D01*
X132262825Y-69384501D01*
X132240715Y-69422077D01*
X132190746Y-69465458D01*
X132165427Y-69484027D01*
X132108747Y-69527975D01*
X132071340Y-69563307D01*
X132062090Y-69578763D01*
X132080007Y-69598976D01*
X132127009Y-69639784D01*
X132195855Y-69695166D01*
X132275233Y-69756044D01*
X132388992Y-69845817D01*
X132463662Y-69918632D01*
X132499183Y-69980011D01*
X132495492Y-70035470D01*
X132452526Y-70090529D01*
X132370222Y-70150708D01*
X132270130Y-70209537D01*
X132183828Y-70252962D01*
X132073200Y-70301996D01*
X131956834Y-70348583D01*
X131907991Y-70366449D01*
X131687744Y-70444138D01*
X131745197Y-70769974D01*
X131648179Y-70787081D01*
X131570900Y-70802570D01*
X131501306Y-70819454D01*
X131488750Y-70823058D01*
X131430864Y-70836123D01*
X131350140Y-70849154D01*
X131297291Y-70855677D01*
X131168241Y-70869426D01*
X131141260Y-70716409D01*
X131111258Y-70546259D01*
X130868215Y-70549422D01*
G37*
G36*
X128938108Y-69214997D02*
G01*
X128975248Y-68930489D01*
X129048340Y-68651179D01*
X129157480Y-68380783D01*
X129302768Y-68123016D01*
X129484300Y-67881596D01*
X129702173Y-67660239D01*
X129826960Y-67556545D01*
X130010257Y-67414360D01*
X130002204Y-67368689D01*
X129976901Y-67225186D01*
X129958997Y-67092098D01*
X129958985Y-67051903D01*
X130137420Y-67051903D01*
X130141567Y-67115071D01*
X130152442Y-67183341D01*
X130179609Y-67337408D01*
X130275243Y-67289206D01*
X130339766Y-67261602D01*
X130432321Y-67228122D01*
X130537353Y-67194233D01*
X130587801Y-67179378D01*
X130762670Y-67138383D01*
X130949237Y-67109648D01*
X131134327Y-67094237D01*
X131304768Y-67093217D01*
X131447389Y-67107653D01*
X131455540Y-67109182D01*
X131472788Y-67104617D01*
X131477995Y-67076475D01*
X131471656Y-67016745D01*
X131464060Y-66971094D01*
X131447781Y-66890705D01*
X131430792Y-66825444D01*
X131418369Y-66792808D01*
X131371190Y-66754528D01*
X131287319Y-66728306D01*
X131173495Y-66714301D01*
X131036463Y-66712670D01*
X130882963Y-66723575D01*
X130719737Y-66747174D01*
X130594621Y-66773388D01*
X130443905Y-66812949D01*
X130331219Y-66851497D01*
X130249752Y-66892133D01*
X130192687Y-66937959D01*
X130168608Y-66967391D01*
X130146077Y-67007435D01*
X130137420Y-67051903D01*
X129958985Y-67051903D01*
X129958967Y-66993980D01*
X129966625Y-66952133D01*
X130007477Y-66868544D01*
X130076541Y-66787413D01*
X130159138Y-66724938D01*
X130183751Y-66712525D01*
X130214937Y-66693193D01*
X130227457Y-66662832D01*
X130226365Y-66636253D01*
X130225186Y-66607541D01*
X130221324Y-66577639D01*
X130221701Y-66537025D01*
X130400097Y-66537025D01*
X130404836Y-66604784D01*
X130695075Y-66565040D01*
X130804272Y-66548639D01*
X130896370Y-66532068D01*
X130962659Y-66517096D01*
X130994431Y-66505491D01*
X130995772Y-66503981D01*
X130994785Y-66470668D01*
X130978642Y-66417024D01*
X130975294Y-66408743D01*
X130915318Y-66317701D01*
X130830526Y-66256986D01*
X130731278Y-66229001D01*
X130627938Y-66236152D01*
X130530867Y-66280842D01*
X130506678Y-66300007D01*
X130431802Y-66390851D01*
X130400441Y-66493074D01*
X130400097Y-66537025D01*
X130221701Y-66537025D01*
X130222583Y-66441886D01*
X130261269Y-66320027D01*
X130330906Y-66215925D01*
X130425019Y-66133446D01*
X130537131Y-66076451D01*
X130660765Y-66048805D01*
X130789445Y-66054373D01*
X130916695Y-66097016D01*
X130972242Y-66129654D01*
X131041763Y-66191088D01*
X131105784Y-66272197D01*
X131156084Y-66359637D01*
X131184441Y-66440065D01*
X131187531Y-66479062D01*
X131194556Y-66507400D01*
X131227762Y-66525839D01*
X131293159Y-66539311D01*
X131383591Y-66557287D01*
X131449545Y-66583791D01*
X131511564Y-66628325D01*
X131540069Y-66653496D01*
X131569920Y-66685199D01*
X131591852Y-66723487D01*
X131609826Y-66779151D01*
X131627804Y-66862982D01*
X131638583Y-66921938D01*
X131676443Y-67135114D01*
X131883856Y-67200499D01*
X132174298Y-67314858D01*
X132441720Y-67465668D01*
X132683683Y-67649321D01*
X132897752Y-67862213D01*
X133081487Y-68100735D01*
X133232451Y-68361284D01*
X133348206Y-68640251D01*
X133426315Y-68934030D01*
X133464340Y-69239016D01*
X133461249Y-69534096D01*
X133415642Y-69843375D01*
X133328561Y-70141133D01*
X133202686Y-70423190D01*
X133040699Y-70685372D01*
X132845278Y-70923498D01*
X132619104Y-71133392D01*
X132364859Y-71310877D01*
X132295930Y-71350407D01*
X132069264Y-71456860D01*
X131821361Y-71541540D01*
X131566194Y-71600890D01*
X131317734Y-71631353D01*
X131180227Y-71634343D01*
X130866355Y-71608610D01*
X130571565Y-71544205D01*
X130289903Y-71439224D01*
X130015417Y-71291761D01*
X129923529Y-71232190D01*
X129676571Y-71039895D01*
X129464785Y-70823066D01*
X129288265Y-70585419D01*
X129147113Y-70330672D01*
X129041422Y-70062540D01*
X128971293Y-69784739D01*
X128957556Y-69671650D01*
X128936823Y-69500986D01*
X128937145Y-69429319D01*
X129114844Y-69429319D01*
X129135439Y-69640285D01*
X129174502Y-69852737D01*
X129229214Y-70050743D01*
X129285401Y-70194688D01*
X129403610Y-70422137D01*
X129535994Y-70620485D01*
X129637005Y-70744217D01*
X129848922Y-70952494D01*
X130086071Y-71126091D01*
X130343692Y-71263787D01*
X130617020Y-71364367D01*
X130901293Y-71426612D01*
X131191748Y-71449306D01*
X131483622Y-71431229D01*
X131772153Y-71371166D01*
X131911783Y-71325705D01*
X132184817Y-71202991D01*
X132431266Y-71047027D01*
X132649618Y-70861676D01*
X132838363Y-70650798D01*
X132995989Y-70418256D01*
X133120986Y-70167911D01*
X133211841Y-69903627D01*
X133267044Y-69629262D01*
X133285084Y-69348680D01*
X133264447Y-69065743D01*
X133203626Y-68784312D01*
X133101107Y-68508249D01*
X133052969Y-68409514D01*
X132926403Y-68193503D01*
X132784853Y-68007235D01*
X132649943Y-67866280D01*
X132443986Y-67695168D01*
X132211749Y-67545854D01*
X131965685Y-67425270D01*
X131718248Y-67340342D01*
X131693063Y-67333867D01*
X131424022Y-67288886D01*
X131142713Y-67282149D01*
X130857929Y-67312094D01*
X130578466Y-67377159D01*
X130313119Y-67475783D01*
X130070686Y-67606405D01*
X130038339Y-67627650D01*
X129861966Y-67765505D01*
X129688549Y-67936177D01*
X129527942Y-68127978D01*
X129390002Y-68329221D01*
X129291034Y-68513870D01*
X129232134Y-68667152D01*
X129180566Y-68847087D01*
X129140777Y-69035387D01*
X129117213Y-69213760D01*
X129115539Y-69235771D01*
X129114844Y-69429319D01*
X128937145Y-69429319D01*
X128938108Y-69214997D01*
G37*
%TO.C,C12*%
X132865000Y-53138748D02*
X132865000Y-53661252D01*
X134335000Y-53138748D02*
X134335000Y-53661252D01*
%TO.C,U1*%
X113450000Y-112750000D02*
X120750000Y-112750000D01*
X113450000Y-107250000D02*
X120750000Y-107250000D01*
X120750000Y-112750000D02*
X120750000Y-111600000D01*
%TO.C,G\u002A\u002A\u002A*%
G36*
X153587016Y-100739442D02*
G01*
X153474581Y-100697214D01*
X153361915Y-100649928D01*
X153265952Y-100604896D01*
X153226472Y-100583764D01*
X153115109Y-100515485D01*
X153041865Y-100457113D01*
X153006776Y-100402921D01*
X153008310Y-100375393D01*
X153186588Y-100375393D01*
X153332266Y-100452281D01*
X153478283Y-100522985D01*
X153627292Y-100580930D01*
X153789619Y-100629156D01*
X153975590Y-100670697D01*
X154195528Y-100708590D01*
X154212862Y-100711245D01*
X154376330Y-100733904D01*
X154526759Y-100750566D01*
X154654003Y-100760278D01*
X154747917Y-100762089D01*
X154752691Y-100761907D01*
X154864186Y-100754513D01*
X154965522Y-100743063D01*
X155047583Y-100729057D01*
X155101252Y-100713995D01*
X155117686Y-100701875D01*
X155107191Y-100678523D01*
X155076467Y-100624141D01*
X155029589Y-100545616D01*
X154970630Y-100449833D01*
X154934027Y-100391493D01*
X154870950Y-100289780D01*
X154818728Y-100202017D01*
X154781164Y-100134890D01*
X154762057Y-100095077D01*
X154760897Y-100087157D01*
X154788261Y-100080515D01*
X154848195Y-100071572D01*
X154928418Y-100062131D01*
X154939179Y-100061014D01*
X155020710Y-100050193D01*
X155083049Y-100037267D01*
X155114104Y-100024822D01*
X155115195Y-100023408D01*
X155107511Y-99998217D01*
X155079136Y-99942278D01*
X155033960Y-99862578D01*
X154975876Y-99766103D01*
X154938740Y-99706688D01*
X154874555Y-99604212D01*
X154820143Y-99515223D01*
X154779583Y-99446565D01*
X154756954Y-99405081D01*
X154753643Y-99396233D01*
X154775329Y-99386817D01*
X154828372Y-99378391D01*
X154871531Y-99374726D01*
X154937206Y-99368185D01*
X154980027Y-99359079D01*
X154989138Y-99353169D01*
X154978271Y-99330185D01*
X154946957Y-99276322D01*
X154899346Y-99198428D01*
X154839588Y-99103349D01*
X154803151Y-99046373D01*
X154738512Y-98944291D01*
X154683940Y-98855052D01*
X154643568Y-98785660D01*
X154621530Y-98743116D01*
X154618710Y-98733753D01*
X154640572Y-98721876D01*
X154683553Y-98722615D01*
X154747642Y-98729645D01*
X154784814Y-98724028D01*
X154795245Y-98700654D01*
X154779107Y-98654405D01*
X154736575Y-98580170D01*
X154690853Y-98508291D01*
X154557254Y-98301814D01*
X154360718Y-98450079D01*
X154270053Y-98520309D01*
X154214923Y-98569865D01*
X154193767Y-98603616D01*
X154205031Y-98626434D01*
X154247157Y-98643191D01*
X154295479Y-98654187D01*
X154338543Y-98668988D01*
X154352902Y-98685130D01*
X154334766Y-98704577D01*
X154286896Y-98745985D01*
X154215529Y-98804219D01*
X154126899Y-98874139D01*
X154072876Y-98915851D01*
X153977468Y-98989694D01*
X153895856Y-99054237D01*
X153834259Y-99104451D01*
X153798896Y-99135308D01*
X153792875Y-99142235D01*
X153809738Y-99158441D01*
X153856481Y-99184452D01*
X153895803Y-99202679D01*
X153955343Y-99231303D01*
X153992592Y-99254530D01*
X153999226Y-99263209D01*
X153981344Y-99281212D01*
X153933815Y-99321474D01*
X153862815Y-99378957D01*
X153774517Y-99448627D01*
X153719110Y-99491635D01*
X153624096Y-99566530D01*
X153543527Y-99633042D01*
X153483446Y-99685934D01*
X153449904Y-99719973D01*
X153444973Y-99728903D01*
X153465438Y-99749241D01*
X153516567Y-99781683D01*
X153587993Y-99819760D01*
X153600466Y-99825873D01*
X153673260Y-99863513D01*
X153726594Y-99895655D01*
X153750562Y-99916225D01*
X153751002Y-99918151D01*
X153733401Y-99938231D01*
X153686753Y-99979251D01*
X153618135Y-100035256D01*
X153534620Y-100100292D01*
X153533750Y-100100955D01*
X153442328Y-100171053D01*
X153357765Y-100236623D01*
X153290125Y-100289818D01*
X153252416Y-100320310D01*
X153186588Y-100375393D01*
X153008310Y-100375393D01*
X153009882Y-100347188D01*
X153011619Y-100344542D01*
X153051223Y-100284187D01*
X153130834Y-100208195D01*
X153229541Y-100128396D01*
X153312028Y-100063098D01*
X153379787Y-100007502D01*
X153425802Y-99967501D01*
X153443057Y-99948999D01*
X153427059Y-99929309D01*
X153384151Y-99892994D01*
X153338880Y-99859027D01*
X153277301Y-99810817D01*
X153246507Y-99772601D01*
X153238046Y-99732271D01*
X153238779Y-99715618D01*
X153246087Y-99683171D01*
X153266358Y-99649495D01*
X153305433Y-99608550D01*
X153369147Y-99554298D01*
X153463342Y-99480701D01*
X153473272Y-99473108D01*
X153567036Y-99400818D01*
X153629422Y-99350100D01*
X153665223Y-99315689D01*
X153679229Y-99292324D01*
X153676233Y-99274743D01*
X153665506Y-99261983D01*
X153614063Y-99206723D01*
X153590887Y-99166437D01*
X153588871Y-99128235D01*
X153589526Y-99124219D01*
X153609584Y-99093993D01*
X153658592Y-99043810D01*
X153729307Y-98980512D01*
X153814485Y-98910940D01*
X153819367Y-98907129D01*
X154041424Y-98734182D01*
X153996974Y-98677915D01*
X153967397Y-98627848D01*
X153958719Y-98586517D01*
X153979159Y-98558370D01*
X154032341Y-98507390D01*
X154114330Y-98436875D01*
X154221189Y-98350124D01*
X154348984Y-98250435D01*
X154461829Y-98164945D01*
X154521957Y-98129631D01*
X154576480Y-98113129D01*
X154590906Y-98113394D01*
X154610696Y-98118882D01*
X154630648Y-98131290D01*
X154654474Y-98155604D01*
X154685885Y-98196817D01*
X154728591Y-98259918D01*
X154786306Y-98349898D01*
X154862739Y-98471745D01*
X154890341Y-98516010D01*
X154956619Y-98626921D01*
X154996752Y-98708312D01*
X155011659Y-98766662D01*
X155002255Y-98808450D01*
X154969456Y-98840155D01*
X154938612Y-98857186D01*
X154920820Y-98868976D01*
X154914873Y-98886770D01*
X154923430Y-98917279D01*
X154949143Y-98967209D01*
X154994670Y-99043271D01*
X155042901Y-99120687D01*
X155099954Y-99215912D01*
X155145862Y-99300677D01*
X155176182Y-99366167D01*
X155186466Y-99403566D01*
X155186301Y-99405018D01*
X155162584Y-99443102D01*
X155113549Y-99482543D01*
X155100140Y-99490255D01*
X155021633Y-99532081D01*
X155176526Y-99774045D01*
X155241865Y-99878150D01*
X155284875Y-99952996D01*
X155308980Y-100006272D01*
X155317607Y-100045664D01*
X155314179Y-100078861D01*
X155313496Y-100081446D01*
X155295947Y-100121758D01*
X155262319Y-100149506D01*
X155200526Y-100173181D01*
X155170383Y-100181970D01*
X155102091Y-100203882D01*
X155054854Y-100224290D01*
X155040876Y-100235650D01*
X155050800Y-100260772D01*
X155081010Y-100315195D01*
X155126762Y-100390783D01*
X155180531Y-100475138D01*
X155256726Y-100598405D01*
X155301989Y-100692368D01*
X155314375Y-100762194D01*
X155291938Y-100813046D01*
X155232732Y-100850089D01*
X155134809Y-100878489D01*
X155020633Y-100899538D01*
X154924683Y-100910827D01*
X154803956Y-100919066D01*
X154678674Y-100923044D01*
X154626666Y-100923128D01*
X154393130Y-100920802D01*
X154335676Y-101246638D01*
X154238658Y-101229532D01*
X154160742Y-101217655D01*
X154089570Y-101209719D01*
X154076539Y-101208811D01*
X154017676Y-101201289D01*
X153937363Y-101185926D01*
X153885470Y-101173979D01*
X153759500Y-101142761D01*
X153780965Y-101021026D01*
X153963886Y-101021026D01*
X154185642Y-101060128D01*
X154216923Y-100882723D01*
X153995167Y-100843621D01*
X153963886Y-101021026D01*
X153780965Y-101021026D01*
X153786481Y-100989745D01*
X153816483Y-100819595D01*
X153587016Y-100739442D01*
G37*
G36*
X152229709Y-98825356D02*
G01*
X152361917Y-98570709D01*
X152526130Y-98333242D01*
X152721169Y-98116481D01*
X152945856Y-97923951D01*
X153199011Y-97759178D01*
X153479454Y-97625688D01*
X153632180Y-97570926D01*
X153853054Y-97500008D01*
X153855591Y-97485618D01*
X154038511Y-97485618D01*
X154144864Y-97473032D01*
X154214937Y-97469161D01*
X154313360Y-97469356D01*
X154423650Y-97473434D01*
X154476136Y-97476729D01*
X154654480Y-97498015D01*
X154839623Y-97534822D01*
X155018822Y-97583645D01*
X155179333Y-97640981D01*
X155308415Y-97703326D01*
X155315552Y-97707550D01*
X155333321Y-97709160D01*
X155347840Y-97684496D01*
X155362312Y-97626200D01*
X155370787Y-97580704D01*
X155382984Y-97499596D01*
X155389341Y-97432460D01*
X155388829Y-97397543D01*
X155357588Y-97345436D01*
X155287743Y-97292109D01*
X155185574Y-97240018D01*
X155057363Y-97191618D01*
X154909391Y-97149365D01*
X154747938Y-97115715D01*
X154621402Y-97097555D01*
X154466243Y-97083183D01*
X154347170Y-97080865D01*
X154256717Y-97091187D01*
X154187420Y-97114732D01*
X154154727Y-97134153D01*
X154119859Y-97164077D01*
X154096515Y-97202902D01*
X154078808Y-97263679D01*
X154065677Y-97331552D01*
X154038511Y-97485618D01*
X153855591Y-97485618D01*
X153861107Y-97454337D01*
X153886410Y-97310834D01*
X153915105Y-97179648D01*
X153948635Y-97087438D01*
X153970143Y-97050733D01*
X154037121Y-96986158D01*
X154129769Y-96933541D01*
X154228752Y-96903084D01*
X154256126Y-96899837D01*
X154292043Y-96892337D01*
X154308602Y-96874209D01*
X154500728Y-96874209D01*
X154787057Y-96936130D01*
X154895278Y-96958065D01*
X154987489Y-96973993D01*
X155054901Y-96982596D01*
X155088726Y-96982557D01*
X155090502Y-96981597D01*
X155100969Y-96949956D01*
X155104146Y-96894026D01*
X155103833Y-96885099D01*
X155078612Y-96779035D01*
X155019699Y-96692981D01*
X154936008Y-96632738D01*
X154836454Y-96604113D01*
X154729953Y-96612908D01*
X154700667Y-96622645D01*
X154599237Y-96682401D01*
X154534804Y-96767733D01*
X154519450Y-96808915D01*
X154500728Y-96874209D01*
X154308602Y-96874209D01*
X154314192Y-96868089D01*
X154322256Y-96842740D01*
X154330969Y-96815356D01*
X154337567Y-96785937D01*
X154385180Y-96658801D01*
X154463211Y-96557523D01*
X154564253Y-96483516D01*
X154680901Y-96438199D01*
X154805745Y-96422986D01*
X154931378Y-96439293D01*
X155050393Y-96488536D01*
X155155385Y-96572129D01*
X155196419Y-96621797D01*
X155240736Y-96703304D01*
X155273155Y-96801418D01*
X155290515Y-96900788D01*
X155289654Y-96986064D01*
X155279220Y-97023766D01*
X155276129Y-97052798D01*
X155301026Y-97081483D01*
X155357871Y-97116509D01*
X155436702Y-97164331D01*
X155489613Y-97211794D01*
X155532660Y-97274854D01*
X155550837Y-97308256D01*
X155568045Y-97348257D01*
X155575558Y-97391737D01*
X155573411Y-97450191D01*
X155561633Y-97535115D01*
X155551598Y-97594203D01*
X155514264Y-97807471D01*
X155686805Y-97939853D01*
X155920618Y-98146652D01*
X156120333Y-98379831D01*
X156284891Y-98635165D01*
X156413236Y-98908433D01*
X156504311Y-99195412D01*
X156557059Y-99491881D01*
X156570420Y-99793614D01*
X156543340Y-100096391D01*
X156474760Y-100395989D01*
X156370933Y-100672217D01*
X156222296Y-100947245D01*
X156038628Y-101197263D01*
X155823875Y-101419258D01*
X155581985Y-101610225D01*
X155316906Y-101767153D01*
X155032583Y-101887033D01*
X154732968Y-101966857D01*
X154654676Y-101980428D01*
X154405271Y-102002937D01*
X154143356Y-101997722D01*
X153883278Y-101966220D01*
X153639383Y-101909868D01*
X153509146Y-101865648D01*
X153223005Y-101734116D01*
X152968020Y-101572771D01*
X152739250Y-101377787D01*
X152531753Y-101145338D01*
X152465781Y-101057932D01*
X152299485Y-100792769D01*
X152174631Y-100516582D01*
X152090037Y-100232893D01*
X152044525Y-99945232D01*
X152038320Y-99710265D01*
X152217417Y-99710265D01*
X152220983Y-99864746D01*
X152254271Y-100118909D01*
X152310832Y-100350573D01*
X152363433Y-100501390D01*
X152491335Y-100769586D01*
X152654809Y-101013824D01*
X152849798Y-101231328D01*
X153072242Y-101419325D01*
X153318083Y-101575043D01*
X153583259Y-101695710D01*
X153863713Y-101778551D01*
X154155386Y-101820793D01*
X154302144Y-101825830D01*
X154600683Y-101803899D01*
X154885612Y-101741632D01*
X155154190Y-101642140D01*
X155403677Y-101508534D01*
X155631331Y-101343928D01*
X155834413Y-101151432D01*
X156010179Y-100934160D01*
X156155891Y-100695221D01*
X156268807Y-100437731D01*
X156346186Y-100164799D01*
X156385288Y-99879539D01*
X156383370Y-99585061D01*
X156371904Y-99475815D01*
X156326852Y-99229543D01*
X156257546Y-99006096D01*
X156178981Y-98827500D01*
X156043969Y-98596265D01*
X155876805Y-98376526D01*
X155686823Y-98179055D01*
X155483355Y-98014621D01*
X155461903Y-97999923D01*
X155224473Y-97865637D01*
X154962432Y-97763093D01*
X154684582Y-97693830D01*
X154399719Y-97659389D01*
X154116643Y-97661312D01*
X153844155Y-97701139D01*
X153806493Y-97710040D01*
X153593607Y-97779258D01*
X153372275Y-97880325D01*
X153155754Y-98005628D01*
X152957304Y-98147557D01*
X152801150Y-98287221D01*
X152693377Y-98411113D01*
X152583377Y-98562560D01*
X152481586Y-98725895D01*
X152398436Y-98885452D01*
X152389335Y-98905563D01*
X152322484Y-99087201D01*
X152269682Y-99292487D01*
X152233727Y-99505488D01*
X152217417Y-99710265D01*
X152038320Y-99710265D01*
X152036916Y-99657122D01*
X152066029Y-99372089D01*
X152091799Y-99261122D01*
X152130688Y-99093659D01*
X152229709Y-98825356D01*
G37*
%TO.C,C14*%
X121965000Y-109588748D02*
X121965000Y-110111252D01*
X123435000Y-109588748D02*
X123435000Y-110111252D01*
%TO.C,U4*%
X151050000Y-83700000D02*
X158350000Y-83700000D01*
X158350000Y-83700000D02*
X158350000Y-82550000D01*
X151050000Y-78200000D02*
X158350000Y-78200000D01*
%TD*%
M02*
