%TF.GenerationSoftware,KiCad,Pcbnew,(6.0.7)*%
%TF.CreationDate,2022-11-21T20:09:17+01:00*%
%TF.ProjectId,Arbolito Tronco,4172626f-6c69-4746-9f20-54726f6e636f,rev?*%
%TF.SameCoordinates,Original*%
%TF.FileFunction,Copper,L2,Bot*%
%TF.FilePolarity,Positive*%
%FSLAX46Y46*%
G04 Gerber Fmt 4.6, Leading zero omitted, Abs format (unit mm)*
G04 Created by KiCad (PCBNEW (6.0.7)) date 2022-11-21 20:09:17*
%MOMM*%
%LPD*%
G01*
G04 APERTURE LIST*
G04 Aperture macros list*
%AMRoundRect*
0 Rectangle with rounded corners*
0 $1 Rounding radius*
0 $2 $3 $4 $5 $6 $7 $8 $9 X,Y pos of 4 corners*
0 Add a 4 corners polygon primitive as box body*
4,1,4,$2,$3,$4,$5,$6,$7,$8,$9,$2,$3,0*
0 Add four circle primitives for the rounded corners*
1,1,$1+$1,$2,$3*
1,1,$1+$1,$4,$5*
1,1,$1+$1,$6,$7*
1,1,$1+$1,$8,$9*
0 Add four rect primitives between the rounded corners*
20,1,$1+$1,$2,$3,$4,$5,0*
20,1,$1+$1,$4,$5,$6,$7,0*
20,1,$1+$1,$6,$7,$8,$9,0*
20,1,$1+$1,$8,$9,$2,$3,0*%
G04 Aperture macros list end*
%TA.AperFunction,SMDPad,CuDef*%
%ADD10R,1.500000X1.000000*%
%TD*%
%TA.AperFunction,SMDPad,CuDef*%
%ADD11RoundRect,0.250000X-0.475000X0.250000X-0.475000X-0.250000X0.475000X-0.250000X0.475000X0.250000X0*%
%TD*%
%TA.AperFunction,ViaPad*%
%ADD12C,0.800000*%
%TD*%
%TA.AperFunction,Conductor*%
%ADD13C,0.500000*%
%TD*%
G04 APERTURE END LIST*
D10*
%TO.P,U3,1,VDD*%
%TO.N,+5V*%
X157150000Y-79350000D03*
%TO.P,U3,2,DIN*%
%TO.N,Net-(U2-Pad4)*%
X157150000Y-82550000D03*
%TO.P,U3,3,VSS*%
%TO.N,GND*%
X152250000Y-82550000D03*
%TO.P,U3,4,DOUT*%
%TO.N,Net-(U3-Pad4)*%
X152250000Y-79350000D03*
%TD*%
D11*
%TO.P,C13,1*%
%TO.N,+5V*%
X122700000Y-108900000D03*
%TO.P,C13,2*%
%TO.N,GND*%
X122700000Y-110800000D03*
%TD*%
D10*
%TO.P,U6,1,VDD*%
%TO.N,+5V*%
X130300000Y-51950000D03*
%TO.P,U6,2,DIN*%
%TO.N,Net-(U5-Pad4)*%
X130300000Y-55150000D03*
%TO.P,U6,3,VSS*%
%TO.N,GND*%
X125400000Y-55150000D03*
%TO.P,U6,4,DOUT*%
%TO.N,/Dout*%
X125400000Y-51950000D03*
%TD*%
%TO.P,U2,1,VDD*%
%TO.N,+5V*%
X119550000Y-108400000D03*
%TO.P,U2,2,DIN*%
%TO.N,Net-(U1-Pad4)*%
X119550000Y-111600000D03*
%TO.P,U2,3,VSS*%
%TO.N,GND*%
X114650000Y-111600000D03*
%TO.P,U2,4,DOUT*%
%TO.N,Net-(U2-Pad4)*%
X114650000Y-108400000D03*
%TD*%
D11*
%TO.P,C15,1*%
%TO.N,+5V*%
X133600000Y-52450000D03*
%TO.P,C15,2*%
%TO.N,GND*%
X133600000Y-54350000D03*
%TD*%
%TO.P,C11,1*%
%TO.N,+5V*%
X149050000Y-79400000D03*
%TO.P,C11,2*%
%TO.N,GND*%
X149050000Y-81300000D03*
%TD*%
D12*
%TO.N,+5V*%
X132000000Y-127500000D03*
X122700000Y-108900000D03*
X149050000Y-79400000D03*
X137100000Y-62100000D03*
X127950000Y-51900000D03*
X135000000Y-127500000D03*
X117250000Y-108450000D03*
X141900000Y-62100000D03*
X133600000Y-52450000D03*
X155050000Y-79350000D03*
%TO.N,GND*%
X155100000Y-82600000D03*
X122700000Y-110850000D03*
X137100000Y-68100000D03*
X141900000Y-68100000D03*
X117300000Y-111700000D03*
X133600000Y-54350000D03*
X147000000Y-127500000D03*
X127850000Y-55250000D03*
X149000000Y-81350000D03*
X144000000Y-127500000D03*
%TO.N,/DIN*%
X141000000Y-127500000D03*
X138000000Y-127500000D03*
%TO.N,Net-(U1-Pad4)*%
X119650000Y-110050000D03*
%TO.N,Net-(U3-Pad4)*%
X152250000Y-80950000D03*
%TO.N,Net-(U5-Pad4)*%
X130350000Y-53550000D03*
%TO.N,/Dout*%
X141900000Y-65100000D03*
X137100000Y-65000000D03*
%TD*%
D13*
%TO.N,+5V*%
X119500000Y-108450000D02*
X119550000Y-108400000D01*
X149050000Y-69450000D02*
X149050000Y-79400000D01*
X155050000Y-79350000D02*
X157150000Y-79350000D01*
X127950000Y-51900000D02*
X130250000Y-51900000D01*
X130250000Y-51900000D02*
X130300000Y-51950000D01*
X141900000Y-62100000D02*
X141900000Y-62300000D01*
X117250000Y-108450000D02*
X119500000Y-108450000D01*
X141900000Y-62300000D02*
X149050000Y-69450000D01*
%TO.N,GND*%
X147000000Y-79600000D02*
X148750000Y-81350000D01*
X114750000Y-111700000D02*
X114650000Y-111600000D01*
X117300000Y-111700000D02*
X114750000Y-111700000D01*
X141900000Y-68100000D02*
X144000000Y-68100000D01*
X148750000Y-81350000D02*
X149000000Y-81350000D01*
X147000000Y-71100000D02*
X147000000Y-79600000D01*
X152300000Y-82600000D02*
X152250000Y-82550000D01*
X144000000Y-68100000D02*
X147000000Y-71100000D01*
X155100000Y-82600000D02*
X152300000Y-82600000D01*
%TO.N,Net-(U1-Pad4)*%
X119550000Y-111600000D02*
X119550000Y-110150000D01*
X119550000Y-110150000D02*
X119650000Y-110050000D01*
%TO.N,Net-(U2-Pad4)*%
X114650000Y-108400000D02*
X138350000Y-84700000D01*
X155000000Y-84700000D02*
X157150000Y-82550000D01*
X157200000Y-82600000D02*
X157150000Y-82550000D01*
X138350000Y-84700000D02*
X155000000Y-84700000D01*
%TO.N,Net-(U3-Pad4)*%
X152250000Y-79350000D02*
X152250000Y-80950000D01*
%TO.N,Net-(U5-Pad4)*%
X130350000Y-53550000D02*
X130350000Y-55100000D01*
X130350000Y-55100000D02*
X130300000Y-55150000D01*
%TO.N,/Dout*%
X136250000Y-51050000D02*
X134700000Y-49500000D01*
X136250000Y-64150000D02*
X136250000Y-51050000D01*
X137100000Y-65000000D02*
X136250000Y-64150000D01*
X127850000Y-49500000D02*
X125400000Y-51950000D01*
X134700000Y-49500000D02*
X127850000Y-49500000D01*
%TD*%
%TA.AperFunction,Conductor*%
%TO.N,/Dout*%
G36*
X138033621Y-64120002D02*
G01*
X138080114Y-64173658D01*
X138091500Y-64226000D01*
X138091500Y-65974000D01*
X138071498Y-66042121D01*
X138017842Y-66088614D01*
X137965500Y-66100000D01*
X137226000Y-66100000D01*
X137157879Y-66079998D01*
X137111386Y-66026342D01*
X137100000Y-65974000D01*
X137100000Y-64226000D01*
X137120002Y-64157879D01*
X137173658Y-64111386D01*
X137226000Y-64100000D01*
X137965500Y-64100000D01*
X138033621Y-64120002D01*
G37*
%TD.AperFunction*%
%TD*%
%TA.AperFunction,Conductor*%
%TO.N,/Dout*%
G36*
X141842121Y-64120002D02*
G01*
X141888614Y-64173658D01*
X141900000Y-64226000D01*
X141900000Y-65974000D01*
X141879998Y-66042121D01*
X141826342Y-66088614D01*
X141774000Y-66100000D01*
X141026000Y-66100000D01*
X140957879Y-66079998D01*
X140911386Y-66026342D01*
X140900000Y-65974000D01*
X140900000Y-64226000D01*
X140920002Y-64157879D01*
X140973658Y-64111386D01*
X141026000Y-64100000D01*
X141774000Y-64100000D01*
X141842121Y-64120002D01*
G37*
%TD.AperFunction*%
%TD*%
%TA.AperFunction,Conductor*%
%TO.N,+5V*%
G36*
X138033621Y-61120002D02*
G01*
X138080114Y-61173658D01*
X138091500Y-61226000D01*
X138091500Y-62974000D01*
X138071498Y-63042121D01*
X138017842Y-63088614D01*
X137965500Y-63100000D01*
X137226000Y-63100000D01*
X137157879Y-63079998D01*
X137111386Y-63026342D01*
X137100000Y-62974000D01*
X137100000Y-61226000D01*
X137120002Y-61157879D01*
X137173658Y-61111386D01*
X137226000Y-61100000D01*
X137965500Y-61100000D01*
X138033621Y-61120002D01*
G37*
%TD.AperFunction*%
%TD*%
%TA.AperFunction,Conductor*%
%TO.N,+5V*%
G36*
X141842121Y-61120002D02*
G01*
X141888614Y-61173658D01*
X141900000Y-61226000D01*
X141900000Y-62974000D01*
X141879998Y-63042121D01*
X141826342Y-63088614D01*
X141774000Y-63100000D01*
X141026000Y-63100000D01*
X140957879Y-63079998D01*
X140911386Y-63026342D01*
X140900000Y-62974000D01*
X140900000Y-61226000D01*
X140920002Y-61157879D01*
X140973658Y-61111386D01*
X141026000Y-61100000D01*
X141774000Y-61100000D01*
X141842121Y-61120002D01*
G37*
%TD.AperFunction*%
%TD*%
%TA.AperFunction,Conductor*%
%TO.N,GND*%
G36*
X138091500Y-69100000D02*
G01*
X137100000Y-69100000D01*
X137100000Y-67100000D01*
X138091500Y-67100000D01*
X138091500Y-69100000D01*
G37*
%TD.AperFunction*%
%TD*%
%TA.AperFunction,Conductor*%
%TO.N,GND*%
G36*
X141900000Y-69100000D02*
G01*
X140900000Y-69100000D01*
X140900000Y-67100000D01*
X141900000Y-67100000D01*
X141900000Y-69100000D01*
G37*
%TD.AperFunction*%
%TD*%
%TA.AperFunction,Conductor*%
%TO.N,GND*%
G36*
X148000000Y-128500000D02*
G01*
X146000000Y-128500000D01*
X146000000Y-127500000D01*
X148000000Y-127500000D01*
X148000000Y-128500000D01*
G37*
%TD.AperFunction*%
%TD*%
%TA.AperFunction,Conductor*%
%TO.N,+5V*%
G36*
X132942121Y-127520002D02*
G01*
X132988614Y-127573658D01*
X133000000Y-127626000D01*
X133000000Y-128374000D01*
X132979998Y-128442121D01*
X132926342Y-128488614D01*
X132874000Y-128500000D01*
X131126000Y-128500000D01*
X131057879Y-128479998D01*
X131011386Y-128426342D01*
X131000000Y-128374000D01*
X131000000Y-127626000D01*
X131020002Y-127557879D01*
X131073658Y-127511386D01*
X131126000Y-127500000D01*
X132874000Y-127500000D01*
X132942121Y-127520002D01*
G37*
%TD.AperFunction*%
%TD*%
%TA.AperFunction,Conductor*%
%TO.N,+5V*%
G36*
X135942121Y-127520002D02*
G01*
X135988614Y-127573658D01*
X136000000Y-127626000D01*
X136000000Y-128374000D01*
X135979998Y-128442121D01*
X135926342Y-128488614D01*
X135874000Y-128500000D01*
X134126000Y-128500000D01*
X134057879Y-128479998D01*
X134011386Y-128426342D01*
X134000000Y-128374000D01*
X134000000Y-127626000D01*
X134020002Y-127557879D01*
X134073658Y-127511386D01*
X134126000Y-127500000D01*
X135874000Y-127500000D01*
X135942121Y-127520002D01*
G37*
%TD.AperFunction*%
%TD*%
%TA.AperFunction,Conductor*%
%TO.N,/DIN*%
G36*
X141942121Y-127520002D02*
G01*
X141988614Y-127573658D01*
X142000000Y-127626000D01*
X142000000Y-128374000D01*
X141979998Y-128442121D01*
X141926342Y-128488614D01*
X141874000Y-128500000D01*
X140126000Y-128500000D01*
X140057879Y-128479998D01*
X140011386Y-128426342D01*
X140000000Y-128374000D01*
X140000000Y-127626000D01*
X140020002Y-127557879D01*
X140073658Y-127511386D01*
X140126000Y-127500000D01*
X141874000Y-127500000D01*
X141942121Y-127520002D01*
G37*
%TD.AperFunction*%
%TD*%
%TA.AperFunction,Conductor*%
%TO.N,/DIN*%
G36*
X138942121Y-127520002D02*
G01*
X138988614Y-127573658D01*
X139000000Y-127626000D01*
X139000000Y-128374000D01*
X138979998Y-128442121D01*
X138926342Y-128488614D01*
X138874000Y-128500000D01*
X137126000Y-128500000D01*
X137057879Y-128479998D01*
X137011386Y-128426342D01*
X137000000Y-128374000D01*
X137000000Y-127626000D01*
X137020002Y-127557879D01*
X137073658Y-127511386D01*
X137126000Y-127500000D01*
X138874000Y-127500000D01*
X138942121Y-127520002D01*
G37*
%TD.AperFunction*%
%TD*%
%TA.AperFunction,Conductor*%
%TO.N,GND*%
G36*
X145000000Y-128500000D02*
G01*
X143000000Y-128500000D01*
X143000000Y-127500000D01*
X145000000Y-127500000D01*
X145000000Y-128500000D01*
G37*
%TD.AperFunction*%
%TD*%
%TA.AperFunction,Conductor*%
%TO.N,GND*%
G36*
X141070426Y-32813571D02*
G01*
X141104486Y-32860825D01*
X141243471Y-33197716D01*
X141267475Y-33255901D01*
X141267836Y-33256711D01*
X141267839Y-33256718D01*
X141612703Y-34030506D01*
X141803849Y-34459391D01*
X142373683Y-35647404D01*
X142976528Y-36819011D01*
X143611914Y-37973294D01*
X143612329Y-37974001D01*
X143612343Y-37974025D01*
X143968114Y-38579595D01*
X144279344Y-39109350D01*
X144978293Y-40226290D01*
X145198044Y-40556537D01*
X145707730Y-41322507D01*
X145707749Y-41322535D01*
X145708217Y-41323238D01*
X146468543Y-42399338D01*
X147258675Y-43453746D01*
X147259214Y-43454425D01*
X147259228Y-43454443D01*
X147888856Y-44247423D01*
X148077997Y-44485636D01*
X148925865Y-45494201D01*
X149188146Y-45789037D01*
X149801007Y-46477968D01*
X149801030Y-46477993D01*
X149801617Y-46478653D01*
X149802237Y-46479311D01*
X149802249Y-46479325D01*
X150435939Y-47152748D01*
X150704567Y-47438219D01*
X150705168Y-47438823D01*
X150705171Y-47438826D01*
X151476698Y-48214079D01*
X151634007Y-48372148D01*
X151634659Y-48372767D01*
X151634680Y-48372788D01*
X152038870Y-48756818D01*
X152589212Y-49279711D01*
X152589899Y-49280328D01*
X153568750Y-50159584D01*
X153568774Y-50159605D01*
X153569432Y-50160196D01*
X154573901Y-51012914D01*
X154574600Y-51013474D01*
X154574603Y-51013477D01*
X154653385Y-51076651D01*
X155601831Y-51837197D01*
X155602504Y-51837706D01*
X155602524Y-51837722D01*
X156581692Y-52578866D01*
X156652420Y-52632401D01*
X156653145Y-52632919D01*
X156653162Y-52632931D01*
X157716734Y-53392115D01*
X157724843Y-53397903D01*
X158818263Y-54133103D01*
X159283215Y-54427184D01*
X159330091Y-54480499D01*
X159340703Y-54550698D01*
X159311677Y-54615490D01*
X159304368Y-54623346D01*
X159189917Y-54736304D01*
X158842482Y-55079208D01*
X158840820Y-55080848D01*
X158836030Y-55085335D01*
X158703941Y-55202751D01*
X158313959Y-55549409D01*
X158308934Y-55553646D01*
X157763392Y-55989845D01*
X157758152Y-55993815D01*
X157190604Y-56400967D01*
X157185165Y-56404658D01*
X156822097Y-56637437D01*
X156636261Y-56756585D01*
X156597154Y-56781658D01*
X156591536Y-56785057D01*
X155984645Y-57130886D01*
X155978857Y-57133987D01*
X155354763Y-57447691D01*
X155348823Y-57450485D01*
X154709219Y-57731212D01*
X154703133Y-57733696D01*
X154049772Y-57980679D01*
X154043565Y-57982842D01*
X153378214Y-58195413D01*
X153371902Y-58197250D01*
X152696359Y-58374834D01*
X152689960Y-58376339D01*
X152006072Y-58518450D01*
X151999603Y-58519619D01*
X151309241Y-58625868D01*
X151302720Y-58626698D01*
X151091337Y-58648020D01*
X150607751Y-58696799D01*
X150601214Y-58697286D01*
X150357450Y-58709082D01*
X149903522Y-58731047D01*
X149896950Y-58731193D01*
X149568154Y-58729936D01*
X149198446Y-58728521D01*
X149191909Y-58728326D01*
X148494503Y-58689227D01*
X148487952Y-58688688D01*
X147793546Y-58613273D01*
X147787031Y-58612393D01*
X147139165Y-58507603D01*
X147117158Y-58501969D01*
X147109853Y-58499378D01*
X147109854Y-58499378D01*
X147101389Y-58496375D01*
X147096534Y-58496101D01*
X147091927Y-58494563D01*
X147082961Y-58494225D01*
X147082960Y-58494225D01*
X147058969Y-58493321D01*
X147025058Y-58492043D01*
X147022744Y-58491933D01*
X146955963Y-58488161D01*
X146951228Y-58489260D01*
X146946373Y-58489077D01*
X146937670Y-58491270D01*
X146937669Y-58491270D01*
X146881525Y-58505416D01*
X146879231Y-58505972D01*
X146814077Y-58521095D01*
X146809844Y-58523477D01*
X146805129Y-58524665D01*
X146758402Y-58552126D01*
X146747459Y-58558557D01*
X146745510Y-58559678D01*
X146687137Y-58592526D01*
X146683739Y-58596005D01*
X146679552Y-58598465D01*
X146633751Y-58647139D01*
X146632118Y-58648843D01*
X146585349Y-58696715D01*
X146583066Y-58701003D01*
X146579734Y-58704544D01*
X146549420Y-58764146D01*
X146548330Y-58766240D01*
X146521112Y-58817359D01*
X146521111Y-58817362D01*
X146516893Y-58825284D01*
X146515905Y-58830043D01*
X146513702Y-58834374D01*
X146512042Y-58843195D01*
X146512041Y-58843198D01*
X146501341Y-58900058D01*
X146500883Y-58902376D01*
X146487275Y-58967899D01*
X146487662Y-58972742D01*
X146486763Y-58977519D01*
X146487645Y-58986450D01*
X146487645Y-58986453D01*
X146493340Y-59044103D01*
X146493550Y-59046454D01*
X146498874Y-59113093D01*
X146500604Y-59117631D01*
X146501082Y-59122471D01*
X146504224Y-59134625D01*
X146505984Y-59138702D01*
X146507488Y-59143478D01*
X146842110Y-60307025D01*
X146842401Y-60307934D01*
X147213802Y-61468201D01*
X147213808Y-61468217D01*
X147214075Y-61469053D01*
X147305702Y-61728444D01*
X147449999Y-62136940D01*
X147620456Y-62619496D01*
X147620805Y-62620397D01*
X147999254Y-63598100D01*
X148060891Y-63757337D01*
X148534992Y-64881568D01*
X149042338Y-65991192D01*
X149042757Y-65992041D01*
X149042770Y-65992068D01*
X149582068Y-67084392D01*
X149582480Y-67085226D01*
X150154940Y-68162703D01*
X150155376Y-68163467D01*
X150155386Y-68163486D01*
X150758741Y-69221844D01*
X150759210Y-69222667D01*
X151394755Y-70264179D01*
X151395256Y-70264948D01*
X151395272Y-70264973D01*
X151673625Y-70692007D01*
X152061012Y-71286317D01*
X152061556Y-71287099D01*
X152061567Y-71287115D01*
X152757392Y-72288176D01*
X152757925Y-72288896D01*
X152757945Y-72288924D01*
X153024439Y-72648965D01*
X153483277Y-73268868D01*
X153483844Y-73269588D01*
X153483866Y-73269617D01*
X154237429Y-74226769D01*
X154237448Y-74226793D01*
X154238024Y-74227524D01*
X155020964Y-75163296D01*
X155831406Y-76075355D01*
X156668629Y-76962892D01*
X156669278Y-76963541D01*
X157531221Y-77824449D01*
X157531894Y-77825121D01*
X157532561Y-77825748D01*
X157532584Y-77825771D01*
X157849221Y-78123741D01*
X157885122Y-78184992D01*
X157882209Y-78255928D01*
X157841407Y-78314029D01*
X157775671Y-78340848D01*
X157762871Y-78341500D01*
X156351866Y-78341500D01*
X156289684Y-78348255D01*
X156153295Y-78399385D01*
X156036739Y-78486739D01*
X156031358Y-78493919D01*
X155996024Y-78541065D01*
X155939165Y-78583580D01*
X155895198Y-78591500D01*
X155592587Y-78591500D01*
X155518528Y-78567437D01*
X155512098Y-78562765D01*
X155512091Y-78562761D01*
X155506752Y-78558882D01*
X155500724Y-78556198D01*
X155500722Y-78556197D01*
X155338319Y-78483891D01*
X155338318Y-78483891D01*
X155332288Y-78481206D01*
X155222572Y-78457885D01*
X155151944Y-78442872D01*
X155151939Y-78442872D01*
X155145487Y-78441500D01*
X154954513Y-78441500D01*
X154948061Y-78442872D01*
X154948056Y-78442872D01*
X154877428Y-78457885D01*
X154767712Y-78481206D01*
X154761682Y-78483891D01*
X154761681Y-78483891D01*
X154599278Y-78556197D01*
X154599276Y-78556198D01*
X154593248Y-78558882D01*
X154587907Y-78562762D01*
X154587906Y-78562763D01*
X154559254Y-78583580D01*
X154438747Y-78671134D01*
X154434326Y-78676044D01*
X154434325Y-78676045D01*
X154321036Y-78801866D01*
X154310960Y-78813056D01*
X154215473Y-78978444D01*
X154156458Y-79160072D01*
X154136496Y-79350000D01*
X154137186Y-79356565D01*
X154149110Y-79470012D01*
X154156458Y-79539928D01*
X154215473Y-79721556D01*
X154310960Y-79886944D01*
X154315378Y-79891851D01*
X154315379Y-79891852D01*
X154330776Y-79908952D01*
X154438747Y-80028866D01*
X154532119Y-80096705D01*
X154587904Y-80137235D01*
X154593248Y-80141118D01*
X154599276Y-80143802D01*
X154599278Y-80143803D01*
X154761681Y-80216109D01*
X154767712Y-80218794D01*
X154861112Y-80238647D01*
X154948056Y-80257128D01*
X154948061Y-80257128D01*
X154954513Y-80258500D01*
X155145487Y-80258500D01*
X155151939Y-80257128D01*
X155151944Y-80257128D01*
X155238888Y-80238647D01*
X155332288Y-80218794D01*
X155338319Y-80216109D01*
X155500722Y-80143803D01*
X155500724Y-80143802D01*
X155506752Y-80141118D01*
X155512091Y-80137239D01*
X155512098Y-80137235D01*
X155518528Y-80132563D01*
X155592587Y-80108500D01*
X155895198Y-80108500D01*
X155963319Y-80128502D01*
X155996024Y-80158935D01*
X156036739Y-80213261D01*
X156153295Y-80300615D01*
X156289684Y-80351745D01*
X156351866Y-80358500D01*
X157948134Y-80358500D01*
X158010316Y-80351745D01*
X158146705Y-80300615D01*
X158263261Y-80213261D01*
X158350615Y-80096705D01*
X158401745Y-79960316D01*
X158408500Y-79898134D01*
X158408500Y-78930770D01*
X158428502Y-78862649D01*
X158482158Y-78816156D01*
X158552432Y-78806052D01*
X158618081Y-78836482D01*
X159333464Y-79470626D01*
X159334163Y-79471209D01*
X159334166Y-79471212D01*
X160269470Y-80251856D01*
X160269487Y-80251869D01*
X160270175Y-80252444D01*
X161229736Y-81006041D01*
X161230503Y-81006607D01*
X161230504Y-81006608D01*
X162210528Y-81730181D01*
X162210550Y-81730197D01*
X162211298Y-81730749D01*
X162473477Y-81912520D01*
X162483680Y-81919594D01*
X162528265Y-81974845D01*
X162535902Y-82045430D01*
X162504166Y-82108938D01*
X162483608Y-82126740D01*
X161793445Y-82604526D01*
X161789378Y-82607226D01*
X161067629Y-83066576D01*
X161063493Y-83069096D01*
X160894607Y-83167606D01*
X160324506Y-83500140D01*
X160320243Y-83502517D01*
X159565140Y-83904602D01*
X159560788Y-83906813D01*
X158790648Y-84279364D01*
X158786214Y-84281404D01*
X158479541Y-84415357D01*
X158002225Y-84623845D01*
X157997741Y-84625702D01*
X157201035Y-84937538D01*
X157196492Y-84939214D01*
X156388339Y-85219946D01*
X156383731Y-85221448D01*
X156153293Y-85291619D01*
X155669195Y-85439033D01*
X155598201Y-85439743D01*
X155538095Y-85401958D01*
X155507958Y-85337675D01*
X155517359Y-85267304D01*
X155541023Y-85231839D01*
X155543156Y-85229588D01*
X155545506Y-85227175D01*
X157177276Y-83595405D01*
X157239588Y-83561379D01*
X157266371Y-83558500D01*
X157948134Y-83558500D01*
X158010316Y-83551745D01*
X158146705Y-83500615D01*
X158263261Y-83413261D01*
X158350615Y-83296705D01*
X158401745Y-83160316D01*
X158408500Y-83098134D01*
X158408500Y-82001866D01*
X158401745Y-81939684D01*
X158350615Y-81803295D01*
X158263261Y-81686739D01*
X158146705Y-81599385D01*
X158010316Y-81548255D01*
X157948134Y-81541500D01*
X156351866Y-81541500D01*
X156289684Y-81548255D01*
X156153295Y-81599385D01*
X156036739Y-81686739D01*
X155949385Y-81803295D01*
X155898255Y-81939684D01*
X155891500Y-82001866D01*
X155891500Y-82683629D01*
X155871498Y-82751750D01*
X155854595Y-82772724D01*
X154722724Y-83904595D01*
X154660412Y-83938621D01*
X154633629Y-83941500D01*
X138417063Y-83941500D01*
X138398114Y-83940067D01*
X138397601Y-83939989D01*
X138376651Y-83936802D01*
X138369359Y-83937395D01*
X138369356Y-83937395D01*
X138323991Y-83941085D01*
X138313777Y-83941500D01*
X138305707Y-83941500D01*
X138302087Y-83941922D01*
X138302069Y-83941923D01*
X138277461Y-83944792D01*
X138273100Y-83945224D01*
X138247981Y-83947267D01*
X138207661Y-83950546D01*
X138207658Y-83950547D01*
X138200363Y-83951140D01*
X138193399Y-83953396D01*
X138187440Y-83954587D01*
X138181585Y-83955971D01*
X138174319Y-83956818D01*
X138105673Y-83981735D01*
X138101545Y-83983152D01*
X138039064Y-84003393D01*
X138039062Y-84003394D01*
X138032101Y-84005649D01*
X138025846Y-84009445D01*
X138020372Y-84011951D01*
X138014942Y-84014670D01*
X138008063Y-84017167D01*
X137947016Y-84057191D01*
X137943327Y-84059518D01*
X137923135Y-84071771D01*
X137885693Y-84094491D01*
X137885688Y-84094495D01*
X137880892Y-84097405D01*
X137872516Y-84104803D01*
X137872493Y-84104777D01*
X137869503Y-84107426D01*
X137866264Y-84110134D01*
X137860148Y-84114144D01*
X137855121Y-84119451D01*
X137855117Y-84119454D01*
X137806872Y-84170383D01*
X137804494Y-84172825D01*
X114622724Y-107354595D01*
X114560412Y-107388621D01*
X114533629Y-107391500D01*
X113851866Y-107391500D01*
X113789684Y-107398255D01*
X113653295Y-107449385D01*
X113536739Y-107536739D01*
X113449385Y-107653295D01*
X113398255Y-107789684D01*
X113391500Y-107851866D01*
X113391500Y-108948134D01*
X113398255Y-109010316D01*
X113449385Y-109146705D01*
X113536739Y-109263261D01*
X113653295Y-109350615D01*
X113789684Y-109401745D01*
X113851866Y-109408500D01*
X115448134Y-109408500D01*
X115510316Y-109401745D01*
X115646705Y-109350615D01*
X115763261Y-109263261D01*
X115850615Y-109146705D01*
X115901745Y-109010316D01*
X115908500Y-108948134D01*
X115908500Y-108266371D01*
X115928502Y-108198250D01*
X115945405Y-108177276D01*
X116245846Y-107876835D01*
X116308158Y-107842809D01*
X116378973Y-107847874D01*
X116435809Y-107890421D01*
X116460620Y-107956941D01*
X116444060Y-108028930D01*
X116433712Y-108046854D01*
X116415473Y-108078444D01*
X116356458Y-108260072D01*
X116355768Y-108266633D01*
X116355768Y-108266635D01*
X116350178Y-108319824D01*
X116336496Y-108450000D01*
X116337186Y-108456565D01*
X116352563Y-108602866D01*
X116356458Y-108639928D01*
X116415473Y-108821556D01*
X116510960Y-108986944D01*
X116515378Y-108991851D01*
X116515379Y-108991852D01*
X116532004Y-109010316D01*
X116638747Y-109128866D01*
X116673191Y-109153891D01*
X116787904Y-109237235D01*
X116793248Y-109241118D01*
X116799276Y-109243802D01*
X116799278Y-109243803D01*
X116961681Y-109316109D01*
X116967712Y-109318794D01*
X117061112Y-109338647D01*
X117148056Y-109357128D01*
X117148061Y-109357128D01*
X117154513Y-109358500D01*
X117345487Y-109358500D01*
X117351939Y-109357128D01*
X117351944Y-109357128D01*
X117438887Y-109338647D01*
X117532288Y-109318794D01*
X117538319Y-109316109D01*
X117700722Y-109243803D01*
X117700724Y-109243802D01*
X117706752Y-109241118D01*
X117712091Y-109237239D01*
X117712098Y-109237235D01*
X117718528Y-109232563D01*
X117792587Y-109208500D01*
X118332671Y-109208500D01*
X118400792Y-109228502D01*
X118424332Y-109250407D01*
X118425008Y-109249731D01*
X118431358Y-109256081D01*
X118436739Y-109263261D01*
X118553295Y-109350615D01*
X118689684Y-109401745D01*
X118751866Y-109408500D01*
X118755282Y-109408500D01*
X118758680Y-109408684D01*
X118758602Y-109410119D01*
X118821208Y-109428502D01*
X118867701Y-109482158D01*
X118877805Y-109552432D01*
X118862206Y-109597500D01*
X118815473Y-109678444D01*
X118756458Y-109860072D01*
X118755768Y-109866633D01*
X118755768Y-109866635D01*
X118749391Y-109927308D01*
X118736496Y-110050000D01*
X118737186Y-110056565D01*
X118755753Y-110233216D01*
X118756458Y-110239928D01*
X118785053Y-110327933D01*
X118785333Y-110328795D01*
X118791500Y-110367732D01*
X118791500Y-110475507D01*
X118771498Y-110543628D01*
X118717842Y-110590121D01*
X118696237Y-110597543D01*
X118689684Y-110598255D01*
X118682289Y-110601027D01*
X118682286Y-110601028D01*
X118573301Y-110641885D01*
X118553295Y-110649385D01*
X118436739Y-110736739D01*
X118349385Y-110853295D01*
X118298255Y-110989684D01*
X118291500Y-111051866D01*
X118291500Y-112148134D01*
X118298255Y-112210316D01*
X118349385Y-112346705D01*
X118436739Y-112463261D01*
X118553295Y-112550615D01*
X118689684Y-112601745D01*
X118751866Y-112608500D01*
X120348134Y-112608500D01*
X120410316Y-112601745D01*
X120546705Y-112550615D01*
X120663261Y-112463261D01*
X120750615Y-112346705D01*
X120801745Y-112210316D01*
X120808500Y-112148134D01*
X120808500Y-111097095D01*
X121467001Y-111097095D01*
X121467338Y-111103614D01*
X121477257Y-111199206D01*
X121480149Y-111212600D01*
X121531588Y-111366784D01*
X121537761Y-111379962D01*
X121623063Y-111517807D01*
X121632099Y-111529208D01*
X121746829Y-111643739D01*
X121758240Y-111652751D01*
X121896243Y-111737816D01*
X121909424Y-111743963D01*
X122063710Y-111795138D01*
X122077086Y-111798005D01*
X122171438Y-111807672D01*
X122177854Y-111808000D01*
X122427885Y-111808000D01*
X122443124Y-111803525D01*
X122444329Y-111802135D01*
X122446000Y-111794452D01*
X122446000Y-111789884D01*
X122954000Y-111789884D01*
X122958475Y-111805123D01*
X122959865Y-111806328D01*
X122967548Y-111807999D01*
X123222095Y-111807999D01*
X123228614Y-111807662D01*
X123324206Y-111797743D01*
X123337600Y-111794851D01*
X123491784Y-111743412D01*
X123504962Y-111737239D01*
X123642807Y-111651937D01*
X123654208Y-111642901D01*
X123768739Y-111528171D01*
X123777751Y-111516760D01*
X123862816Y-111378757D01*
X123868963Y-111365576D01*
X123920138Y-111211290D01*
X123923005Y-111197914D01*
X123932672Y-111103562D01*
X123933000Y-111097146D01*
X123933000Y-111072115D01*
X123928525Y-111056876D01*
X123927135Y-111055671D01*
X123919452Y-111054000D01*
X122972115Y-111054000D01*
X122956876Y-111058475D01*
X122955671Y-111059865D01*
X122954000Y-111067548D01*
X122954000Y-111789884D01*
X122446000Y-111789884D01*
X122446000Y-111072115D01*
X122441525Y-111056876D01*
X122440135Y-111055671D01*
X122432452Y-111054000D01*
X121485116Y-111054000D01*
X121469877Y-111058475D01*
X121468672Y-111059865D01*
X121467001Y-111067548D01*
X121467001Y-111097095D01*
X120808500Y-111097095D01*
X120808500Y-111051866D01*
X120801745Y-110989684D01*
X120750615Y-110853295D01*
X120663261Y-110736739D01*
X120546705Y-110649385D01*
X120526699Y-110641885D01*
X120469935Y-110599243D01*
X120445235Y-110532681D01*
X120461810Y-110460903D01*
X120481223Y-110427279D01*
X120481224Y-110427278D01*
X120484527Y-110421556D01*
X120543542Y-110239928D01*
X120544248Y-110233216D01*
X120562814Y-110056565D01*
X120563504Y-110050000D01*
X120550609Y-109927308D01*
X120544232Y-109866635D01*
X120544232Y-109866633D01*
X120543542Y-109860072D01*
X120484527Y-109678444D01*
X120453295Y-109624348D01*
X120414348Y-109556890D01*
X120397610Y-109487894D01*
X120420831Y-109420803D01*
X120479237Y-109375908D01*
X120538297Y-109353767D01*
X120546705Y-109350615D01*
X120663261Y-109263261D01*
X120710373Y-109200400D01*
X121466500Y-109200400D01*
X121466837Y-109203646D01*
X121466837Y-109203650D01*
X121473581Y-109268642D01*
X121477474Y-109306166D01*
X121479655Y-109312702D01*
X121479655Y-109312704D01*
X121515720Y-109420803D01*
X121533450Y-109473946D01*
X121626522Y-109624348D01*
X121751697Y-109749305D01*
X121756235Y-109752102D01*
X121796824Y-109809353D01*
X121800054Y-109880276D01*
X121764428Y-109941687D01*
X121755932Y-109949062D01*
X121745793Y-109957098D01*
X121631261Y-110071829D01*
X121622249Y-110083240D01*
X121537184Y-110221243D01*
X121531037Y-110234424D01*
X121479862Y-110388710D01*
X121476995Y-110402086D01*
X121467328Y-110496438D01*
X121467000Y-110502855D01*
X121467000Y-110527885D01*
X121471475Y-110543124D01*
X121472865Y-110544329D01*
X121480548Y-110546000D01*
X123914884Y-110546000D01*
X123930123Y-110541525D01*
X123931328Y-110540135D01*
X123932999Y-110532452D01*
X123932999Y-110502905D01*
X123932662Y-110496386D01*
X123922743Y-110400794D01*
X123919851Y-110387400D01*
X123868412Y-110233216D01*
X123862239Y-110220038D01*
X123776937Y-110082193D01*
X123767901Y-110070792D01*
X123653172Y-109956262D01*
X123644238Y-109949206D01*
X123603177Y-109891288D01*
X123599947Y-109820365D01*
X123635574Y-109758954D01*
X123643407Y-109752154D01*
X123649348Y-109748478D01*
X123774305Y-109623303D01*
X123809355Y-109566442D01*
X123863275Y-109478968D01*
X123863276Y-109478966D01*
X123867115Y-109472738D01*
X123922797Y-109304861D01*
X123933500Y-109200400D01*
X123933500Y-108599600D01*
X123922526Y-108493834D01*
X123866550Y-108326054D01*
X123773478Y-108175652D01*
X123648303Y-108050695D01*
X123612994Y-108028930D01*
X123503968Y-107961725D01*
X123503966Y-107961724D01*
X123497738Y-107957885D01*
X123337254Y-107904655D01*
X123336389Y-107904368D01*
X123336387Y-107904368D01*
X123329861Y-107902203D01*
X123323025Y-107901503D01*
X123323022Y-107901502D01*
X123279969Y-107897091D01*
X123225400Y-107891500D01*
X122174600Y-107891500D01*
X122171354Y-107891837D01*
X122171350Y-107891837D01*
X122075692Y-107901762D01*
X122075688Y-107901763D01*
X122068834Y-107902474D01*
X122062298Y-107904655D01*
X122062296Y-107904655D01*
X121930194Y-107948728D01*
X121901054Y-107958450D01*
X121750652Y-108051522D01*
X121625695Y-108176697D01*
X121621855Y-108182927D01*
X121621854Y-108182928D01*
X121540659Y-108314651D01*
X121532885Y-108327262D01*
X121477203Y-108495139D01*
X121466500Y-108599600D01*
X121466500Y-109200400D01*
X120710373Y-109200400D01*
X120750615Y-109146705D01*
X120801745Y-109010316D01*
X120808500Y-108948134D01*
X120808500Y-107851866D01*
X120801745Y-107789684D01*
X120750615Y-107653295D01*
X120663261Y-107536739D01*
X120546705Y-107449385D01*
X120410316Y-107398255D01*
X120348134Y-107391500D01*
X118751866Y-107391500D01*
X118689684Y-107398255D01*
X118553295Y-107449385D01*
X118436739Y-107536739D01*
X118360496Y-107638470D01*
X118358551Y-107641065D01*
X118301692Y-107683580D01*
X118257725Y-107691500D01*
X117792587Y-107691500D01*
X117718528Y-107667437D01*
X117712098Y-107662765D01*
X117712091Y-107662761D01*
X117706752Y-107658882D01*
X117700724Y-107656198D01*
X117700722Y-107656197D01*
X117538319Y-107583891D01*
X117538318Y-107583891D01*
X117532288Y-107581206D01*
X117438887Y-107561353D01*
X117351944Y-107542872D01*
X117351939Y-107542872D01*
X117345487Y-107541500D01*
X117154513Y-107541500D01*
X117148061Y-107542872D01*
X117148056Y-107542872D01*
X117061112Y-107561353D01*
X116967712Y-107581206D01*
X116961682Y-107583891D01*
X116961681Y-107583891D01*
X116820461Y-107646766D01*
X116750094Y-107656200D01*
X116685797Y-107626093D01*
X116647983Y-107566005D01*
X116648659Y-107495011D01*
X116680117Y-107442564D01*
X138627276Y-85495405D01*
X138689588Y-85461379D01*
X138716371Y-85458500D01*
X154624286Y-85458500D01*
X154692407Y-85478502D01*
X154738900Y-85532158D01*
X154749004Y-85602432D01*
X154719510Y-85667012D01*
X154659784Y-85705396D01*
X154651550Y-85707515D01*
X153893210Y-85875589D01*
X153888425Y-85876553D01*
X153046618Y-86029186D01*
X153041815Y-86029961D01*
X152227193Y-86145280D01*
X152194775Y-86149869D01*
X152189929Y-86150460D01*
X151338843Y-86237473D01*
X151333979Y-86237875D01*
X150976651Y-86260468D01*
X150540241Y-86288060D01*
X150528126Y-86288212D01*
X150519505Y-86286642D01*
X150510577Y-86287576D01*
X150501615Y-86287236D01*
X150492709Y-86287517D01*
X150483792Y-86286526D01*
X150433782Y-86295306D01*
X150425122Y-86296518D01*
X150374639Y-86301801D01*
X150366330Y-86305205D01*
X150357658Y-86307387D01*
X150349174Y-86310161D01*
X150340329Y-86311714D01*
X150332277Y-86315686D01*
X150332275Y-86315687D01*
X150294800Y-86334174D01*
X150286820Y-86337772D01*
X150239849Y-86357011D01*
X150232831Y-86362608D01*
X150225123Y-86367135D01*
X150217748Y-86372186D01*
X150209701Y-86376156D01*
X150203093Y-86382223D01*
X150203092Y-86382224D01*
X150172309Y-86410488D01*
X150165658Y-86416182D01*
X150125974Y-86447833D01*
X150120810Y-86455173D01*
X150114676Y-86461688D01*
X150109024Y-86468596D01*
X150102410Y-86474669D01*
X150076146Y-86518136D01*
X150071373Y-86525447D01*
X150047330Y-86559623D01*
X150047327Y-86559628D01*
X150042166Y-86566965D01*
X150039271Y-86575456D01*
X150035214Y-86583427D01*
X150031722Y-86591657D01*
X150027082Y-86599336D01*
X150024783Y-86608010D01*
X150024783Y-86608011D01*
X150014079Y-86648405D01*
X150011549Y-86656768D01*
X149995163Y-86704830D01*
X149994768Y-86713800D01*
X149993113Y-86722577D01*
X149992071Y-86731454D01*
X149989771Y-86740133D01*
X149989999Y-86749105D01*
X149989999Y-86749108D01*
X149991062Y-86790870D01*
X149990981Y-86799627D01*
X149988744Y-86850346D01*
X149990882Y-86859067D01*
X149991757Y-86867955D01*
X149993248Y-86876765D01*
X149993477Y-86885745D01*
X149996217Y-86894300D01*
X150008958Y-86934085D01*
X150011339Y-86942515D01*
X150023424Y-86991815D01*
X150028253Y-87003402D01*
X150029958Y-87006187D01*
X150030600Y-87007527D01*
X150037176Y-87022193D01*
X150037902Y-87024461D01*
X150038677Y-87025608D01*
X150038703Y-87025765D01*
X150038764Y-87025737D01*
X150565461Y-88200522D01*
X151136473Y-89381885D01*
X151741233Y-90546333D01*
X152379241Y-91692901D01*
X153049968Y-92820642D01*
X153752859Y-93928620D01*
X153753332Y-93929320D01*
X153753341Y-93929334D01*
X153794190Y-93989806D01*
X154487333Y-95015920D01*
X155252782Y-96081641D01*
X156048571Y-97124902D01*
X156874043Y-98144837D01*
X156874604Y-98145490D01*
X156874630Y-98145522D01*
X157200543Y-98525328D01*
X157728514Y-99140605D01*
X157729116Y-99141267D01*
X157729131Y-99141284D01*
X157786689Y-99204580D01*
X158611277Y-100111379D01*
X158611906Y-100112032D01*
X158611907Y-100112033D01*
X158828612Y-100336987D01*
X159521601Y-101056357D01*
X160458732Y-101974757D01*
X161421896Y-102865817D01*
X161422572Y-102866407D01*
X161422594Y-102866427D01*
X162409589Y-103728187D01*
X162409611Y-103728205D01*
X162410294Y-103728802D01*
X163423108Y-104562996D01*
X164459501Y-105367709D01*
X164460226Y-105368239D01*
X164460235Y-105368246D01*
X164529715Y-105419059D01*
X165518615Y-106142274D01*
X166599572Y-106886052D01*
X166600333Y-106886544D01*
X166600348Y-106886554D01*
X166978675Y-107131139D01*
X167701478Y-107598425D01*
X168823421Y-108278805D01*
X169964472Y-108926628D01*
X169965276Y-108927055D01*
X169965279Y-108927056D01*
X170021561Y-108956902D01*
X171123688Y-109541358D01*
X171124485Y-109541752D01*
X171124509Y-109541764D01*
X171809783Y-109880276D01*
X172300107Y-110122487D01*
X172479653Y-110204841D01*
X172565630Y-110244277D01*
X172619209Y-110290858D01*
X172639099Y-110359012D01*
X172618984Y-110427099D01*
X172593437Y-110455870D01*
X172570768Y-110474632D01*
X172532301Y-110506469D01*
X172529049Y-110509071D01*
X171671205Y-111172541D01*
X171667869Y-111175034D01*
X170788573Y-111809780D01*
X170785156Y-111812162D01*
X170601658Y-111935610D01*
X169885332Y-112417516D01*
X169881886Y-112419754D01*
X168962514Y-112995054D01*
X168958956Y-112997199D01*
X168943623Y-113006102D01*
X168021140Y-113541756D01*
X168017504Y-113543788D01*
X167062181Y-114057061D01*
X167058482Y-114058970D01*
X167043170Y-114066556D01*
X166086715Y-114540386D01*
X166082953Y-114542173D01*
X165095806Y-114991205D01*
X165091986Y-114992867D01*
X164090526Y-115409029D01*
X164086660Y-115410561D01*
X163072003Y-115793390D01*
X163068108Y-115794786D01*
X162041305Y-116143885D01*
X162037383Y-116145146D01*
X160999621Y-116460108D01*
X160995674Y-116461236D01*
X159948046Y-116741729D01*
X159944046Y-116742730D01*
X158887701Y-116988448D01*
X158883684Y-116989312D01*
X158238269Y-117117115D01*
X157819868Y-117199965D01*
X157815769Y-117200707D01*
X157077968Y-117321612D01*
X156745530Y-117376089D01*
X156741425Y-117376692D01*
X156434886Y-117416571D01*
X155666022Y-117516597D01*
X155661883Y-117517066D01*
X155215816Y-117560160D01*
X154582409Y-117621352D01*
X154578312Y-117621680D01*
X154029049Y-117656467D01*
X153495992Y-117690228D01*
X153491831Y-117690423D01*
X152533505Y-117719364D01*
X152407807Y-117723160D01*
X152403650Y-117723216D01*
X151828541Y-117721566D01*
X151319228Y-117720105D01*
X151315063Y-117720025D01*
X150231248Y-117681069D01*
X150227088Y-117680850D01*
X149145235Y-117606096D01*
X149141085Y-117605741D01*
X148780282Y-117568794D01*
X148117224Y-117500895D01*
X148095597Y-117496405D01*
X148092946Y-117495963D01*
X148084394Y-117493250D01*
X148075695Y-117493052D01*
X148075377Y-117493004D01*
X148067001Y-117490659D01*
X148042536Y-117490939D01*
X148005026Y-117491368D01*
X148000715Y-117491343D01*
X147968584Y-117490611D01*
X147938773Y-117489932D01*
X147930372Y-117492183D01*
X147930051Y-117492227D01*
X147921353Y-117492326D01*
X147912767Y-117494944D01*
X147912766Y-117494944D01*
X147862057Y-117510404D01*
X147857915Y-117511590D01*
X147798076Y-117527619D01*
X147790651Y-117532132D01*
X147790341Y-117532271D01*
X147782027Y-117534806D01*
X147730181Y-117568805D01*
X147726570Y-117571086D01*
X147701489Y-117586332D01*
X147681282Y-117598615D01*
X147681280Y-117598616D01*
X147673610Y-117603279D01*
X147667746Y-117609700D01*
X147667493Y-117609915D01*
X147660224Y-117614682D01*
X147620005Y-117661867D01*
X147617196Y-117665049D01*
X147575383Y-117710832D01*
X147571553Y-117718649D01*
X147571378Y-117718915D01*
X147565736Y-117725534D01*
X147562063Y-117733728D01*
X147540396Y-117782064D01*
X147538569Y-117785961D01*
X147511290Y-117841631D01*
X147509809Y-117850206D01*
X147509715Y-117850513D01*
X147506157Y-117858449D01*
X147504932Y-117867344D01*
X147504931Y-117867346D01*
X147497700Y-117919837D01*
X147497038Y-117924099D01*
X147486485Y-117985161D01*
X147486276Y-117997712D01*
X147486625Y-118000227D01*
X147486278Y-118002744D01*
X147487315Y-118009721D01*
X147487462Y-118014098D01*
X147489856Y-118382575D01*
X147497218Y-119516007D01*
X147497237Y-119516690D01*
X147497238Y-119516725D01*
X147539183Y-120993551D01*
X147540324Y-121033717D01*
X147616653Y-122550119D01*
X147726168Y-124064486D01*
X147868817Y-125576092D01*
X148044531Y-127084212D01*
X148253226Y-128588123D01*
X148253326Y-128588743D01*
X148253331Y-128588777D01*
X148375277Y-129345453D01*
X148366368Y-129415888D01*
X148320793Y-129470326D01*
X148250882Y-129491500D01*
X130750131Y-129491500D01*
X130682010Y-129471498D01*
X130635517Y-129417842D01*
X130625760Y-129345302D01*
X130675464Y-129039241D01*
X130706127Y-128975208D01*
X130766542Y-128937917D01*
X130837527Y-128939209D01*
X130852171Y-128944822D01*
X130913210Y-128972698D01*
X130936964Y-128979673D01*
X130977008Y-128991431D01*
X130977012Y-128991432D01*
X130981331Y-128992700D01*
X130985780Y-128993340D01*
X130985786Y-128993341D01*
X131121553Y-129012861D01*
X131121558Y-129012861D01*
X131126000Y-129013500D01*
X132874000Y-129013500D01*
X132877346Y-129013140D01*
X132877351Y-129013140D01*
X132979785Y-129002128D01*
X132979792Y-129002127D01*
X132983149Y-129001766D01*
X132986450Y-129001048D01*
X133032210Y-128991094D01*
X133032215Y-128991093D01*
X133035491Y-128990380D01*
X133139657Y-128955710D01*
X133262612Y-128876692D01*
X133316268Y-128830199D01*
X133407274Y-128725172D01*
X133466999Y-128686789D01*
X133537996Y-128686789D01*
X133597722Y-128725172D01*
X133608496Y-128739564D01*
X133623308Y-128762612D01*
X133669801Y-128816268D01*
X133673194Y-128819208D01*
X133773450Y-128906081D01*
X133773453Y-128906083D01*
X133780261Y-128911982D01*
X133913210Y-128972698D01*
X133936964Y-128979673D01*
X133977008Y-128991431D01*
X133977012Y-128991432D01*
X133981331Y-128992700D01*
X133985780Y-128993340D01*
X133985786Y-128993341D01*
X134121553Y-129012861D01*
X134121558Y-129012861D01*
X134126000Y-129013500D01*
X135874000Y-129013500D01*
X135877346Y-129013140D01*
X135877351Y-129013140D01*
X135979785Y-129002128D01*
X135979792Y-129002127D01*
X135983149Y-129001766D01*
X135986450Y-129001048D01*
X136032210Y-128991094D01*
X136032215Y-128991093D01*
X136035491Y-128990380D01*
X136139657Y-128955710D01*
X136262612Y-128876692D01*
X136316268Y-128830199D01*
X136407274Y-128725172D01*
X136466999Y-128686789D01*
X136537996Y-128686789D01*
X136597722Y-128725172D01*
X136608496Y-128739564D01*
X136623308Y-128762612D01*
X136669801Y-128816268D01*
X136673194Y-128819208D01*
X136773450Y-128906081D01*
X136773453Y-128906083D01*
X136780261Y-128911982D01*
X136913210Y-128972698D01*
X136936964Y-128979673D01*
X136977008Y-128991431D01*
X136977012Y-128991432D01*
X136981331Y-128992700D01*
X136985780Y-128993340D01*
X136985786Y-128993341D01*
X137121553Y-129012861D01*
X137121558Y-129012861D01*
X137126000Y-129013500D01*
X138874000Y-129013500D01*
X138877346Y-129013140D01*
X138877351Y-129013140D01*
X138979785Y-129002128D01*
X138979792Y-129002127D01*
X138983149Y-129001766D01*
X138986450Y-129001048D01*
X139032210Y-128991094D01*
X139032215Y-128991093D01*
X139035491Y-128990380D01*
X139139657Y-128955710D01*
X139262612Y-128876692D01*
X139316268Y-128830199D01*
X139407274Y-128725172D01*
X139466999Y-128686789D01*
X139537996Y-128686789D01*
X139597722Y-128725172D01*
X139608496Y-128739564D01*
X139623308Y-128762612D01*
X139669801Y-128816268D01*
X139673194Y-128819208D01*
X139773450Y-128906081D01*
X139773453Y-128906083D01*
X139780261Y-128911982D01*
X139913210Y-128972698D01*
X139936964Y-128979673D01*
X139977008Y-128991431D01*
X139977012Y-128991432D01*
X139981331Y-128992700D01*
X139985780Y-128993340D01*
X139985786Y-128993341D01*
X140121553Y-129012861D01*
X140121558Y-129012861D01*
X140126000Y-129013500D01*
X141874000Y-129013500D01*
X141877346Y-129013140D01*
X141877351Y-129013140D01*
X141979785Y-129002128D01*
X141979792Y-129002127D01*
X141983149Y-129001766D01*
X141986450Y-129001048D01*
X142032210Y-128991094D01*
X142032215Y-128991093D01*
X142035491Y-128990380D01*
X142139657Y-128955710D01*
X142262612Y-128876692D01*
X142316268Y-128830199D01*
X142371888Y-128766010D01*
X142406081Y-128726550D01*
X142406083Y-128726547D01*
X142411982Y-128719739D01*
X142472698Y-128586790D01*
X142492700Y-128518669D01*
X142495384Y-128500000D01*
X143000000Y-128500000D01*
X145000000Y-128500000D01*
X146000000Y-128500000D01*
X148000000Y-128500000D01*
X148000000Y-127500000D01*
X146000000Y-127500000D01*
X146000000Y-128500000D01*
X145000000Y-128500000D01*
X145000000Y-127500000D01*
X143000000Y-127500000D01*
X143000000Y-128500000D01*
X142495384Y-128500000D01*
X142498052Y-128481449D01*
X142512861Y-128378447D01*
X142512861Y-128378442D01*
X142513500Y-128374000D01*
X142513500Y-127626000D01*
X142501766Y-127516851D01*
X142501048Y-127513550D01*
X142491094Y-127467790D01*
X142491093Y-127467785D01*
X142490380Y-127464509D01*
X142457523Y-127365790D01*
X142454989Y-127294840D01*
X142491216Y-127233782D01*
X142554703Y-127202002D01*
X142577075Y-127200000D01*
X146000000Y-127200000D01*
X145400000Y-118200000D01*
X133919850Y-118308538D01*
X133918988Y-118319182D01*
X133918988Y-118319183D01*
X133223525Y-126909424D01*
X133198091Y-126975708D01*
X133140859Y-127017720D01*
X133069999Y-127022120D01*
X133062456Y-127020157D01*
X133018669Y-127007300D01*
X133014220Y-127006660D01*
X133014214Y-127006659D01*
X132878447Y-126987139D01*
X132878442Y-126987139D01*
X132874000Y-126986500D01*
X132816247Y-126986500D01*
X132748126Y-126966498D01*
X132722611Y-126944810D01*
X132690750Y-126909424D01*
X132611253Y-126821134D01*
X132456752Y-126708882D01*
X132450724Y-126706198D01*
X132450722Y-126706197D01*
X132288319Y-126633891D01*
X132288318Y-126633891D01*
X132282288Y-126631206D01*
X132188888Y-126611353D01*
X132101944Y-126592872D01*
X132101939Y-126592872D01*
X132095487Y-126591500D01*
X131904513Y-126591500D01*
X131898061Y-126592872D01*
X131898056Y-126592872D01*
X131811112Y-126611353D01*
X131717712Y-126631206D01*
X131711682Y-126633891D01*
X131711681Y-126633891D01*
X131549278Y-126706197D01*
X131549276Y-126706198D01*
X131543248Y-126708882D01*
X131388747Y-126821134D01*
X131309251Y-126909424D01*
X131277389Y-126944810D01*
X131216943Y-126982050D01*
X131183753Y-126986500D01*
X131126429Y-126986500D01*
X131058308Y-126966498D01*
X131011815Y-126912842D01*
X131001688Y-126842730D01*
X131028858Y-126652008D01*
X131028862Y-126651977D01*
X131028946Y-126651388D01*
X131240471Y-124926523D01*
X131418348Y-123197864D01*
X131474072Y-122528466D01*
X131562465Y-121466637D01*
X131562468Y-121466592D01*
X131562512Y-121466067D01*
X131562548Y-121465503D01*
X131672868Y-119732389D01*
X131672869Y-119732375D01*
X131672906Y-119731790D01*
X131683211Y-119498194D01*
X131735689Y-118308538D01*
X131748397Y-118020446D01*
X131749094Y-118012168D01*
X131749889Y-118008265D01*
X131750147Y-118002744D01*
X131750247Y-118000586D01*
X131750247Y-118000581D01*
X131750473Y-117995726D01*
X131750281Y-117993952D01*
X131750582Y-117992194D01*
X131749772Y-117985161D01*
X131742494Y-117922035D01*
X131742398Y-117921175D01*
X131735702Y-117859366D01*
X131734787Y-117850915D01*
X131734104Y-117849265D01*
X131733900Y-117847494D01*
X131730603Y-117839679D01*
X131730601Y-117839673D01*
X131706464Y-117782469D01*
X131706130Y-117781670D01*
X131682337Y-117724181D01*
X131679087Y-117716328D01*
X131677969Y-117714937D01*
X131677276Y-117713294D01*
X131671910Y-117706709D01*
X131671907Y-117706704D01*
X131632622Y-117658496D01*
X131632222Y-117658002D01*
X131587853Y-117602783D01*
X131586387Y-117601760D01*
X131585262Y-117600379D01*
X131527055Y-117560340D01*
X131526446Y-117559917D01*
X131475382Y-117524271D01*
X131468417Y-117519409D01*
X131466724Y-117518839D01*
X131465256Y-117517829D01*
X131397902Y-117495654D01*
X131397639Y-117495566D01*
X131330381Y-117472908D01*
X131328598Y-117472836D01*
X131326904Y-117472278D01*
X131286043Y-117470906D01*
X131256314Y-117469907D01*
X131255448Y-117469875D01*
X131193323Y-117467360D01*
X131193321Y-117467360D01*
X131184843Y-117467017D01*
X131183112Y-117467448D01*
X131181328Y-117467388D01*
X131155177Y-117474091D01*
X131137019Y-117477350D01*
X130740733Y-117518839D01*
X130095344Y-117586407D01*
X130091237Y-117586769D01*
X129448359Y-117632594D01*
X129009788Y-117663856D01*
X129005617Y-117664084D01*
X127922244Y-117705284D01*
X127918068Y-117705374D01*
X127536199Y-117707229D01*
X126833888Y-117710641D01*
X126829727Y-117710592D01*
X125745938Y-117679920D01*
X125741824Y-117679734D01*
X125165733Y-117644291D01*
X124659710Y-117613159D01*
X124655546Y-117612834D01*
X124002027Y-117550828D01*
X123576166Y-117510422D01*
X123572062Y-117509963D01*
X122496702Y-117371834D01*
X122492585Y-117371235D01*
X122138598Y-117313781D01*
X121422438Y-117197545D01*
X121418326Y-117196808D01*
X120948265Y-117104429D01*
X120354476Y-116987733D01*
X120350430Y-116986868D01*
X119294099Y-116742647D01*
X119290069Y-116741645D01*
X118242411Y-116462544D01*
X118238409Y-116461407D01*
X117557743Y-116255683D01*
X117200585Y-116147736D01*
X117196608Y-116146461D01*
X116472071Y-115900990D01*
X116169769Y-115798570D01*
X116165857Y-115797172D01*
X115658477Y-115606300D01*
X115151109Y-115415433D01*
X115147225Y-115413898D01*
X114145702Y-114998741D01*
X114141870Y-114997078D01*
X113154620Y-114548936D01*
X113150846Y-114547146D01*
X113140791Y-114542173D01*
X112179054Y-114066556D01*
X112175341Y-114064643D01*
X111219975Y-113552087D01*
X111216328Y-113550052D01*
X110278461Y-113006102D01*
X110274883Y-113003946D01*
X109355618Y-112429245D01*
X109352113Y-112426973D01*
X108932192Y-112144669D01*
X113392001Y-112144669D01*
X113392371Y-112151490D01*
X113397895Y-112202352D01*
X113401521Y-112217604D01*
X113446676Y-112338054D01*
X113455214Y-112353649D01*
X113531715Y-112455724D01*
X113544276Y-112468285D01*
X113646351Y-112544786D01*
X113661946Y-112553324D01*
X113782394Y-112598478D01*
X113797649Y-112602105D01*
X113848514Y-112607631D01*
X113855328Y-112608000D01*
X114377885Y-112608000D01*
X114393124Y-112603525D01*
X114394329Y-112602135D01*
X114396000Y-112594452D01*
X114396000Y-112589884D01*
X114904000Y-112589884D01*
X114908475Y-112605123D01*
X114909865Y-112606328D01*
X114917548Y-112607999D01*
X115444669Y-112607999D01*
X115451490Y-112607629D01*
X115502352Y-112602105D01*
X115517604Y-112598479D01*
X115638054Y-112553324D01*
X115653649Y-112544786D01*
X115755724Y-112468285D01*
X115768285Y-112455724D01*
X115844786Y-112353649D01*
X115853324Y-112338054D01*
X115898478Y-112217606D01*
X115902105Y-112202351D01*
X115907631Y-112151486D01*
X115908000Y-112144672D01*
X115908000Y-111872115D01*
X115903525Y-111856876D01*
X115902135Y-111855671D01*
X115894452Y-111854000D01*
X114922115Y-111854000D01*
X114906876Y-111858475D01*
X114905671Y-111859865D01*
X114904000Y-111867548D01*
X114904000Y-112589884D01*
X114396000Y-112589884D01*
X114396000Y-111872115D01*
X114391525Y-111856876D01*
X114390135Y-111855671D01*
X114382452Y-111854000D01*
X113410116Y-111854000D01*
X113394877Y-111858475D01*
X113393672Y-111859865D01*
X113392001Y-111867548D01*
X113392001Y-112144669D01*
X108932192Y-112144669D01*
X108705360Y-111992175D01*
X108452320Y-111822061D01*
X108448922Y-111819693D01*
X107819540Y-111365576D01*
X107767302Y-111327885D01*
X113392000Y-111327885D01*
X113396475Y-111343124D01*
X113397865Y-111344329D01*
X113405548Y-111346000D01*
X114377885Y-111346000D01*
X114393124Y-111341525D01*
X114394329Y-111340135D01*
X114396000Y-111332452D01*
X114396000Y-111327885D01*
X114904000Y-111327885D01*
X114908475Y-111343124D01*
X114909865Y-111344329D01*
X114917548Y-111346000D01*
X115889884Y-111346000D01*
X115905123Y-111341525D01*
X115906328Y-111340135D01*
X115907999Y-111332452D01*
X115907999Y-111055331D01*
X115907629Y-111048510D01*
X115902105Y-110997648D01*
X115898479Y-110982396D01*
X115853324Y-110861946D01*
X115844786Y-110846351D01*
X115768285Y-110744276D01*
X115755724Y-110731715D01*
X115653649Y-110655214D01*
X115638054Y-110646676D01*
X115517606Y-110601522D01*
X115502351Y-110597895D01*
X115451486Y-110592369D01*
X115444672Y-110592000D01*
X114922115Y-110592000D01*
X114906876Y-110596475D01*
X114905671Y-110597865D01*
X114904000Y-110605548D01*
X114904000Y-111327885D01*
X114396000Y-111327885D01*
X114396000Y-110610116D01*
X114391525Y-110594877D01*
X114390135Y-110593672D01*
X114382452Y-110592001D01*
X113855331Y-110592001D01*
X113848510Y-110592371D01*
X113797648Y-110597895D01*
X113782396Y-110601521D01*
X113661946Y-110646676D01*
X113646351Y-110655214D01*
X113544276Y-110731715D01*
X113531715Y-110744276D01*
X113455214Y-110846351D01*
X113446676Y-110861946D01*
X113401522Y-110982394D01*
X113397895Y-110997649D01*
X113392369Y-111048514D01*
X113392000Y-111055328D01*
X113392000Y-111327885D01*
X107767302Y-111327885D01*
X107569726Y-111185328D01*
X107566380Y-111182828D01*
X106708679Y-110519659D01*
X106705417Y-110517050D01*
X106650086Y-110471259D01*
X106610358Y-110412418D01*
X106608749Y-110341439D01*
X106645770Y-110280859D01*
X106678618Y-110259330D01*
X106707708Y-110246211D01*
X106940667Y-110141148D01*
X108123030Y-109566058D01*
X108140567Y-109556890D01*
X109287440Y-108957303D01*
X109287441Y-108957303D01*
X109288207Y-108956902D01*
X110435218Y-108314192D01*
X111524318Y-107661703D01*
X111562321Y-107638935D01*
X111562325Y-107638932D01*
X111563097Y-107638470D01*
X112670893Y-106930305D01*
X113757674Y-106190294D01*
X114822524Y-105419059D01*
X115864548Y-104617250D01*
X116882866Y-103785543D01*
X117876622Y-102924637D01*
X118299943Y-102535841D01*
X118844299Y-102035883D01*
X118844316Y-102035867D01*
X118844979Y-102035258D01*
X118845615Y-102034639D01*
X118845635Y-102034620D01*
X119786462Y-101118797D01*
X119786480Y-101118779D01*
X119787121Y-101118155D01*
X119787752Y-101117504D01*
X119787772Y-101117484D01*
X120701605Y-100174771D01*
X120701620Y-100174755D01*
X120702255Y-100174100D01*
X120759022Y-100112033D01*
X121588978Y-99204580D01*
X121589610Y-99203889D01*
X122448439Y-98208337D01*
X123278018Y-97188284D01*
X124077649Y-96144589D01*
X124123572Y-96080904D01*
X124288479Y-95852211D01*
X124846659Y-95078130D01*
X125584399Y-93989806D01*
X126290249Y-92880534D01*
X126963614Y-91751247D01*
X126964077Y-91750417D01*
X127603467Y-90603724D01*
X127603487Y-90603688D01*
X127603928Y-90602896D01*
X128210650Y-89436449D01*
X128783269Y-88252889D01*
X129313506Y-87070600D01*
X129315373Y-87066823D01*
X129316637Y-87064867D01*
X129318616Y-87060427D01*
X129318619Y-87060421D01*
X129319768Y-87057841D01*
X129321747Y-87053401D01*
X129335036Y-87004404D01*
X129337621Y-86996038D01*
X129339088Y-86991815D01*
X129354277Y-86948093D01*
X129354725Y-86939124D01*
X129356431Y-86930351D01*
X129357524Y-86921487D01*
X129359874Y-86912821D01*
X129358876Y-86862058D01*
X129359009Y-86853299D01*
X129361091Y-86811584D01*
X129361539Y-86802616D01*
X129359452Y-86793882D01*
X129358626Y-86784968D01*
X129357187Y-86776159D01*
X129357011Y-86767192D01*
X129354325Y-86758635D01*
X129354324Y-86758628D01*
X129341808Y-86718752D01*
X129339477Y-86710310D01*
X129336137Y-86696334D01*
X129327679Y-86660949D01*
X129323227Y-86653158D01*
X129319944Y-86644861D01*
X129316081Y-86636788D01*
X129313391Y-86628220D01*
X129285199Y-86585988D01*
X129280597Y-86578546D01*
X129259871Y-86542272D01*
X129259870Y-86542271D01*
X129255418Y-86534479D01*
X129248960Y-86528252D01*
X129243465Y-86521191D01*
X129237502Y-86514539D01*
X129232519Y-86507075D01*
X129193602Y-86474450D01*
X129187091Y-86468594D01*
X129157030Y-86439607D01*
X129150567Y-86433375D01*
X129142615Y-86429207D01*
X129135362Y-86423975D01*
X129127779Y-86419269D01*
X129120896Y-86413499D01*
X129074380Y-86393105D01*
X129066514Y-86389325D01*
X129052965Y-86382224D01*
X129021553Y-86365762D01*
X129012754Y-86363994D01*
X129004319Y-86361006D01*
X128995713Y-86358615D01*
X128987496Y-86355013D01*
X128978599Y-86353862D01*
X128978597Y-86353861D01*
X128937149Y-86348497D01*
X128928523Y-86347074D01*
X128878747Y-86337076D01*
X128869797Y-86337850D01*
X128860870Y-86337350D01*
X128851942Y-86337471D01*
X128843043Y-86336319D01*
X128834178Y-86337711D01*
X128825199Y-86337833D01*
X128825195Y-86337565D01*
X128811826Y-86338187D01*
X128537259Y-86320918D01*
X127994157Y-86286759D01*
X127989405Y-86286368D01*
X127431797Y-86229913D01*
X127116475Y-86197988D01*
X127111711Y-86197414D01*
X126242775Y-86075858D01*
X126238036Y-86075103D01*
X125374357Y-85920547D01*
X125369650Y-85919612D01*
X124512474Y-85732280D01*
X124507806Y-85731166D01*
X124259923Y-85667012D01*
X123658386Y-85511329D01*
X123653770Y-85510040D01*
X123604966Y-85495405D01*
X122813353Y-85258022D01*
X122808813Y-85256567D01*
X121978554Y-84972715D01*
X121974045Y-84971076D01*
X121886916Y-84937531D01*
X121155243Y-84655833D01*
X121150823Y-84654034D01*
X120344591Y-84307829D01*
X120340219Y-84305852D01*
X119547792Y-83929216D01*
X119543497Y-83927074D01*
X119362535Y-83832454D01*
X118765939Y-83520512D01*
X118761764Y-83518226D01*
X118021772Y-83094669D01*
X150992001Y-83094669D01*
X150992371Y-83101490D01*
X150997895Y-83152352D01*
X151001521Y-83167604D01*
X151046676Y-83288054D01*
X151055214Y-83303649D01*
X151131715Y-83405724D01*
X151144276Y-83418285D01*
X151246351Y-83494786D01*
X151261946Y-83503324D01*
X151382394Y-83548478D01*
X151397649Y-83552105D01*
X151448514Y-83557631D01*
X151455328Y-83558000D01*
X151977885Y-83558000D01*
X151993124Y-83553525D01*
X151994329Y-83552135D01*
X151996000Y-83544452D01*
X151996000Y-83539884D01*
X152504000Y-83539884D01*
X152508475Y-83555123D01*
X152509865Y-83556328D01*
X152517548Y-83557999D01*
X153044669Y-83557999D01*
X153051490Y-83557629D01*
X153102352Y-83552105D01*
X153117604Y-83548479D01*
X153238054Y-83503324D01*
X153253649Y-83494786D01*
X153355724Y-83418285D01*
X153368285Y-83405724D01*
X153444786Y-83303649D01*
X153453324Y-83288054D01*
X153498478Y-83167606D01*
X153502105Y-83152351D01*
X153507631Y-83101486D01*
X153508000Y-83094672D01*
X153508000Y-82822115D01*
X153503525Y-82806876D01*
X153502135Y-82805671D01*
X153494452Y-82804000D01*
X152522115Y-82804000D01*
X152506876Y-82808475D01*
X152505671Y-82809865D01*
X152504000Y-82817548D01*
X152504000Y-83539884D01*
X151996000Y-83539884D01*
X151996000Y-82822115D01*
X151991525Y-82806876D01*
X151990135Y-82805671D01*
X151982452Y-82804000D01*
X151010116Y-82804000D01*
X150994877Y-82808475D01*
X150993672Y-82809865D01*
X150992001Y-82817548D01*
X150992001Y-83094669D01*
X118021772Y-83094669D01*
X118000255Y-83082353D01*
X117996148Y-83079897D01*
X117978858Y-83069106D01*
X117251802Y-82615351D01*
X117247781Y-82612733D01*
X116524771Y-82122289D01*
X116479625Y-82067495D01*
X116471269Y-81996992D01*
X116502357Y-81933164D01*
X116523712Y-81914468D01*
X116694428Y-81796109D01*
X116788702Y-81730748D01*
X116789450Y-81730196D01*
X116789472Y-81730180D01*
X116969725Y-81597095D01*
X147817001Y-81597095D01*
X147817338Y-81603614D01*
X147827257Y-81699206D01*
X147830149Y-81712600D01*
X147881588Y-81866784D01*
X147887761Y-81879962D01*
X147973063Y-82017807D01*
X147982099Y-82029208D01*
X148096829Y-82143739D01*
X148108240Y-82152751D01*
X148246243Y-82237816D01*
X148259424Y-82243963D01*
X148413710Y-82295138D01*
X148427086Y-82298005D01*
X148521438Y-82307672D01*
X148527854Y-82308000D01*
X148777885Y-82308000D01*
X148793124Y-82303525D01*
X148794329Y-82302135D01*
X148796000Y-82294452D01*
X148796000Y-82289884D01*
X149304000Y-82289884D01*
X149308475Y-82305123D01*
X149309865Y-82306328D01*
X149317548Y-82307999D01*
X149572095Y-82307999D01*
X149578614Y-82307662D01*
X149674206Y-82297743D01*
X149687600Y-82294851D01*
X149841784Y-82243412D01*
X149854962Y-82237239D01*
X149992807Y-82151937D01*
X150004208Y-82142901D01*
X150118739Y-82028171D01*
X150127751Y-82016760D01*
X150212816Y-81878757D01*
X150218963Y-81865576D01*
X150270138Y-81711290D01*
X150273005Y-81697914D01*
X150282672Y-81603562D01*
X150283000Y-81597146D01*
X150283000Y-81572115D01*
X150278525Y-81556876D01*
X150277135Y-81555671D01*
X150269452Y-81554000D01*
X149322115Y-81554000D01*
X149306876Y-81558475D01*
X149305671Y-81559865D01*
X149304000Y-81567548D01*
X149304000Y-82289884D01*
X148796000Y-82289884D01*
X148796000Y-81572115D01*
X148791525Y-81556876D01*
X148790135Y-81555671D01*
X148782452Y-81554000D01*
X147835116Y-81554000D01*
X147819877Y-81558475D01*
X147818672Y-81559865D01*
X147817001Y-81567548D01*
X147817001Y-81597095D01*
X116969725Y-81597095D01*
X117769496Y-81006607D01*
X117770264Y-81006040D01*
X118729825Y-80252443D01*
X118730513Y-80251868D01*
X118730530Y-80251855D01*
X119665833Y-79471211D01*
X119665836Y-79471208D01*
X119666535Y-79470625D01*
X120579565Y-78661279D01*
X120813112Y-78441500D01*
X121467415Y-77825770D01*
X121467438Y-77825747D01*
X121468105Y-77825120D01*
X121468777Y-77824449D01*
X122330729Y-76963532D01*
X122331370Y-76962891D01*
X123168594Y-76075354D01*
X123781571Y-75385519D01*
X123978422Y-75163985D01*
X123978426Y-75163980D01*
X123979035Y-75163295D01*
X124761976Y-74227523D01*
X124762570Y-74226769D01*
X124762571Y-74226768D01*
X125516134Y-73269616D01*
X125516156Y-73269587D01*
X125516723Y-73268867D01*
X126242054Y-72288924D01*
X126242055Y-72288923D01*
X126242075Y-72288895D01*
X126242608Y-72288175D01*
X126938987Y-71286316D01*
X127604727Y-70264973D01*
X127604728Y-70264972D01*
X127604744Y-70264947D01*
X127605245Y-70264178D01*
X128240790Y-69222666D01*
X128288451Y-69139064D01*
X128844615Y-68163486D01*
X128844625Y-68163467D01*
X128845061Y-68162703D01*
X129417520Y-67085226D01*
X129644918Y-66624642D01*
X129957231Y-65992068D01*
X129957244Y-65992041D01*
X129957663Y-65991192D01*
X130465009Y-64881568D01*
X130638294Y-64470661D01*
X130938753Y-63758188D01*
X130938764Y-63758162D01*
X130939111Y-63757338D01*
X130939433Y-63756505D01*
X130939448Y-63756469D01*
X131216241Y-63041389D01*
X131379547Y-62619497D01*
X131785928Y-61469054D01*
X131824002Y-61350112D01*
X132157602Y-60307936D01*
X132157603Y-60307934D01*
X132157893Y-60307027D01*
X132487925Y-59159443D01*
X132489578Y-59159918D01*
X132490537Y-59150607D01*
X132492339Y-59146698D01*
X132493669Y-59142027D01*
X132493671Y-59142021D01*
X132494445Y-59139301D01*
X132494445Y-59139299D01*
X132495776Y-59134625D01*
X132502960Y-59076468D01*
X132503779Y-59070875D01*
X132512060Y-59022005D01*
X132512060Y-59022004D01*
X132513560Y-59013152D01*
X132512515Y-59004238D01*
X132512524Y-59003900D01*
X132512644Y-59002279D01*
X132512649Y-59000929D01*
X132512538Y-58999307D01*
X132512532Y-58998979D01*
X132513633Y-58990065D01*
X132512188Y-58981201D01*
X132512188Y-58981197D01*
X132504210Y-58932256D01*
X132503424Y-58926645D01*
X132497654Y-58877398D01*
X132496610Y-58868484D01*
X132493106Y-58860223D01*
X132493014Y-58859874D01*
X132492679Y-58858306D01*
X132492303Y-58857004D01*
X132491740Y-58855473D01*
X132491643Y-58855163D01*
X132490199Y-58846306D01*
X132486328Y-58838212D01*
X132486326Y-58838205D01*
X132464931Y-58793467D01*
X132462603Y-58788305D01*
X132443242Y-58742655D01*
X132443241Y-58742654D01*
X132439736Y-58734389D01*
X132434051Y-58727439D01*
X132433880Y-58727156D01*
X132433108Y-58725725D01*
X132432384Y-58724585D01*
X132431419Y-58723281D01*
X132431233Y-58723003D01*
X132427359Y-58714901D01*
X132388266Y-58671267D01*
X132384583Y-58666965D01*
X132353197Y-58628595D01*
X132347513Y-58621646D01*
X132340107Y-58616572D01*
X132339872Y-58616356D01*
X132338724Y-58615194D01*
X132337700Y-58614295D01*
X132336421Y-58613324D01*
X132336153Y-58613100D01*
X132330164Y-58606414D01*
X132280398Y-58575507D01*
X132275657Y-58572413D01*
X132234757Y-58544391D01*
X132227354Y-58539319D01*
X132218823Y-58536528D01*
X132218529Y-58536383D01*
X132217109Y-58535594D01*
X132215879Y-58535021D01*
X132214360Y-58534441D01*
X132214055Y-58534307D01*
X132206426Y-58529569D01*
X132149949Y-58513861D01*
X132144579Y-58512236D01*
X132097453Y-58496817D01*
X132097448Y-58496816D01*
X132088917Y-58494025D01*
X132079941Y-58493740D01*
X132079617Y-58493683D01*
X132078018Y-58493321D01*
X132076710Y-58493121D01*
X132075091Y-58492991D01*
X132074749Y-58492947D01*
X132066095Y-58490540D01*
X132046434Y-58490800D01*
X132007532Y-58491315D01*
X132001870Y-58491263D01*
X131975674Y-58490432D01*
X131943332Y-58489406D01*
X131934642Y-58491651D01*
X131934295Y-58491689D01*
X131932683Y-58491789D01*
X131931356Y-58491966D01*
X131929749Y-58492299D01*
X131929430Y-58492349D01*
X131920450Y-58492468D01*
X131910594Y-58495492D01*
X131885998Y-58500427D01*
X131244090Y-58563698D01*
X131237942Y-58564153D01*
X130544851Y-58598322D01*
X130538696Y-58598475D01*
X130193069Y-58598568D01*
X129844753Y-58598661D01*
X129838582Y-58598511D01*
X129303389Y-58572413D01*
X129145502Y-58564714D01*
X129139352Y-58564263D01*
X128764254Y-58527493D01*
X128448714Y-58496561D01*
X128442588Y-58495808D01*
X128099365Y-58445090D01*
X127756139Y-58394370D01*
X127750060Y-58393320D01*
X127656809Y-58374834D01*
X127069366Y-58258380D01*
X127063369Y-58257038D01*
X126390074Y-58088918D01*
X126384154Y-58087284D01*
X126031661Y-57980679D01*
X125719933Y-57886402D01*
X125714071Y-57884471D01*
X125060495Y-57651306D01*
X125054734Y-57649090D01*
X125004017Y-57628143D01*
X124413359Y-57384196D01*
X124407739Y-57381713D01*
X123882448Y-57133990D01*
X123780086Y-57085717D01*
X123774569Y-57082948D01*
X123162194Y-56756585D01*
X123156820Y-56753550D01*
X122561148Y-56397581D01*
X122555929Y-56394286D01*
X121978412Y-56009577D01*
X121973360Y-56006030D01*
X121552216Y-55694669D01*
X124142001Y-55694669D01*
X124142371Y-55701490D01*
X124147895Y-55752352D01*
X124151521Y-55767604D01*
X124196676Y-55888054D01*
X124205214Y-55903649D01*
X124281715Y-56005724D01*
X124294276Y-56018285D01*
X124396351Y-56094786D01*
X124411946Y-56103324D01*
X124532394Y-56148478D01*
X124547649Y-56152105D01*
X124598514Y-56157631D01*
X124605328Y-56158000D01*
X125127885Y-56158000D01*
X125143124Y-56153525D01*
X125144329Y-56152135D01*
X125146000Y-56144452D01*
X125146000Y-56139884D01*
X125654000Y-56139884D01*
X125658475Y-56155123D01*
X125659865Y-56156328D01*
X125667548Y-56157999D01*
X126194669Y-56157999D01*
X126201490Y-56157629D01*
X126252352Y-56152105D01*
X126267604Y-56148479D01*
X126388054Y-56103324D01*
X126403649Y-56094786D01*
X126505724Y-56018285D01*
X126518285Y-56005724D01*
X126594786Y-55903649D01*
X126603324Y-55888054D01*
X126648478Y-55767606D01*
X126652105Y-55752351D01*
X126657631Y-55701486D01*
X126658000Y-55694672D01*
X126658000Y-55422115D01*
X126653525Y-55406876D01*
X126652135Y-55405671D01*
X126644452Y-55404000D01*
X125672115Y-55404000D01*
X125656876Y-55408475D01*
X125655671Y-55409865D01*
X125654000Y-55417548D01*
X125654000Y-56139884D01*
X125146000Y-56139884D01*
X125146000Y-55422115D01*
X125141525Y-55406876D01*
X125140135Y-55405671D01*
X125132452Y-55404000D01*
X124160116Y-55404000D01*
X124144877Y-55408475D01*
X124143672Y-55409865D01*
X124142001Y-55417548D01*
X124142001Y-55694669D01*
X121552216Y-55694669D01*
X121415375Y-55593499D01*
X121410503Y-55589709D01*
X120873386Y-55150344D01*
X120868706Y-55146320D01*
X120613251Y-54915576D01*
X120571524Y-54877885D01*
X124142000Y-54877885D01*
X124146475Y-54893124D01*
X124147865Y-54894329D01*
X124155548Y-54896000D01*
X125127885Y-54896000D01*
X125143124Y-54891525D01*
X125144329Y-54890135D01*
X125146000Y-54882452D01*
X125146000Y-54877885D01*
X125654000Y-54877885D01*
X125658475Y-54893124D01*
X125659865Y-54894329D01*
X125667548Y-54896000D01*
X126639884Y-54896000D01*
X126655123Y-54891525D01*
X126656328Y-54890135D01*
X126657999Y-54882452D01*
X126657999Y-54605331D01*
X126657629Y-54598510D01*
X126652105Y-54547648D01*
X126648479Y-54532396D01*
X126603324Y-54411946D01*
X126594786Y-54396351D01*
X126518285Y-54294276D01*
X126505724Y-54281715D01*
X126403649Y-54205214D01*
X126388054Y-54196676D01*
X126267606Y-54151522D01*
X126252351Y-54147895D01*
X126201486Y-54142369D01*
X126194672Y-54142000D01*
X125672115Y-54142000D01*
X125656876Y-54146475D01*
X125655671Y-54147865D01*
X125654000Y-54155548D01*
X125654000Y-54877885D01*
X125146000Y-54877885D01*
X125146000Y-54160116D01*
X125141525Y-54144877D01*
X125140135Y-54143672D01*
X125132452Y-54142001D01*
X124605331Y-54142001D01*
X124598510Y-54142371D01*
X124547648Y-54147895D01*
X124532396Y-54151521D01*
X124411946Y-54196676D01*
X124396351Y-54205214D01*
X124294276Y-54281715D01*
X124281715Y-54294276D01*
X124205214Y-54396351D01*
X124196676Y-54411946D01*
X124151522Y-54532394D01*
X124147895Y-54547649D01*
X124142369Y-54598514D01*
X124142000Y-54605328D01*
X124142000Y-54877885D01*
X120571524Y-54877885D01*
X120353762Y-54681188D01*
X120349288Y-54676944D01*
X120344089Y-54671763D01*
X119894229Y-54223510D01*
X119860093Y-54161258D01*
X119865031Y-54090434D01*
X119907476Y-54033522D01*
X119915819Y-54027763D01*
X120364577Y-53743967D01*
X120364579Y-53743966D01*
X120365298Y-53743511D01*
X121222975Y-53167072D01*
X121442004Y-53019864D01*
X121442011Y-53019859D01*
X121442715Y-53019386D01*
X121443411Y-53018890D01*
X121443432Y-53018875D01*
X122483103Y-52277279D01*
X122499555Y-52265544D01*
X122613229Y-52179587D01*
X123534253Y-51483135D01*
X123534272Y-51483121D01*
X123534997Y-51482572D01*
X123977286Y-51128347D01*
X124042959Y-51101376D01*
X124112789Y-51114192D01*
X124164605Y-51162727D01*
X124181956Y-51231571D01*
X124174032Y-51270924D01*
X124148255Y-51339684D01*
X124141500Y-51401866D01*
X124141500Y-52498134D01*
X124148255Y-52560316D01*
X124199385Y-52696705D01*
X124286739Y-52813261D01*
X124403295Y-52900615D01*
X124539684Y-52951745D01*
X124601866Y-52958500D01*
X126198134Y-52958500D01*
X126260316Y-52951745D01*
X126396705Y-52900615D01*
X126513261Y-52813261D01*
X126600615Y-52696705D01*
X126651745Y-52560316D01*
X126658500Y-52498134D01*
X126658500Y-51816371D01*
X126678502Y-51748250D01*
X126695405Y-51727276D01*
X126850846Y-51571835D01*
X126913158Y-51537809D01*
X126983973Y-51542874D01*
X127040809Y-51585421D01*
X127065620Y-51651941D01*
X127059775Y-51699862D01*
X127056458Y-51710072D01*
X127055768Y-51716633D01*
X127055768Y-51716635D01*
X127054650Y-51727276D01*
X127036496Y-51900000D01*
X127037186Y-51906565D01*
X127051751Y-52045139D01*
X127056458Y-52089928D01*
X127115473Y-52271556D01*
X127210960Y-52436944D01*
X127215378Y-52441851D01*
X127215379Y-52441852D01*
X127334325Y-52573955D01*
X127338747Y-52578866D01*
X127411687Y-52631860D01*
X127487904Y-52687235D01*
X127493248Y-52691118D01*
X127499276Y-52693802D01*
X127499278Y-52693803D01*
X127661681Y-52766109D01*
X127667712Y-52768794D01*
X127761113Y-52788647D01*
X127848056Y-52807128D01*
X127848061Y-52807128D01*
X127854513Y-52808500D01*
X128045487Y-52808500D01*
X128051939Y-52807128D01*
X128051944Y-52807128D01*
X128138887Y-52788647D01*
X128232288Y-52768794D01*
X128238319Y-52766109D01*
X128400722Y-52693803D01*
X128400724Y-52693802D01*
X128406752Y-52691118D01*
X128412091Y-52687239D01*
X128412098Y-52687235D01*
X128418528Y-52682563D01*
X128492587Y-52658500D01*
X129007725Y-52658500D01*
X129075846Y-52678502D01*
X129108551Y-52708935D01*
X129186739Y-52813261D01*
X129303295Y-52900615D01*
X129439684Y-52951745D01*
X129447540Y-52952598D01*
X129455222Y-52954425D01*
X129454558Y-52957216D01*
X129507554Y-52979227D01*
X129547989Y-53037584D01*
X129550455Y-53108538D01*
X129537519Y-53140259D01*
X129515473Y-53178444D01*
X129456458Y-53360072D01*
X129455768Y-53366633D01*
X129455768Y-53366635D01*
X129452482Y-53397903D01*
X129436496Y-53550000D01*
X129456458Y-53739928D01*
X129515473Y-53921556D01*
X129524621Y-53937400D01*
X129537519Y-53959741D01*
X129554256Y-54028737D01*
X129531035Y-54095828D01*
X129475227Y-54139715D01*
X129455027Y-54144753D01*
X129455222Y-54145575D01*
X129447540Y-54147402D01*
X129439684Y-54148255D01*
X129303295Y-54199385D01*
X129186739Y-54286739D01*
X129099385Y-54403295D01*
X129048255Y-54539684D01*
X129041500Y-54601866D01*
X129041500Y-55698134D01*
X129048255Y-55760316D01*
X129099385Y-55896705D01*
X129186739Y-56013261D01*
X129303295Y-56100615D01*
X129439684Y-56151745D01*
X129501866Y-56158500D01*
X131098134Y-56158500D01*
X131160316Y-56151745D01*
X131296705Y-56100615D01*
X131413261Y-56013261D01*
X131500615Y-55896705D01*
X131551745Y-55760316D01*
X131558500Y-55698134D01*
X131558500Y-54647095D01*
X132367001Y-54647095D01*
X132367338Y-54653614D01*
X132377257Y-54749206D01*
X132380149Y-54762600D01*
X132431588Y-54916784D01*
X132437761Y-54929962D01*
X132523063Y-55067807D01*
X132532099Y-55079208D01*
X132646829Y-55193739D01*
X132658240Y-55202751D01*
X132796243Y-55287816D01*
X132809424Y-55293963D01*
X132963710Y-55345138D01*
X132977086Y-55348005D01*
X133071438Y-55357672D01*
X133077854Y-55358000D01*
X133327885Y-55358000D01*
X133343124Y-55353525D01*
X133344329Y-55352135D01*
X133346000Y-55344452D01*
X133346000Y-55339884D01*
X133854000Y-55339884D01*
X133858475Y-55355123D01*
X133859865Y-55356328D01*
X133867548Y-55357999D01*
X134122095Y-55357999D01*
X134128614Y-55357662D01*
X134224206Y-55347743D01*
X134237600Y-55344851D01*
X134391784Y-55293412D01*
X134404962Y-55287239D01*
X134542807Y-55201937D01*
X134554208Y-55192901D01*
X134668739Y-55078171D01*
X134677751Y-55066760D01*
X134762816Y-54928757D01*
X134768963Y-54915576D01*
X134820138Y-54761290D01*
X134823005Y-54747914D01*
X134832672Y-54653562D01*
X134833000Y-54647146D01*
X134833000Y-54622115D01*
X134828525Y-54606876D01*
X134827135Y-54605671D01*
X134819452Y-54604000D01*
X133872115Y-54604000D01*
X133856876Y-54608475D01*
X133855671Y-54609865D01*
X133854000Y-54617548D01*
X133854000Y-55339884D01*
X133346000Y-55339884D01*
X133346000Y-54622115D01*
X133341525Y-54606876D01*
X133340135Y-54605671D01*
X133332452Y-54604000D01*
X132385116Y-54604000D01*
X132369877Y-54608475D01*
X132368672Y-54609865D01*
X132367001Y-54617548D01*
X132367001Y-54647095D01*
X131558500Y-54647095D01*
X131558500Y-54601866D01*
X131551745Y-54539684D01*
X131500615Y-54403295D01*
X131413261Y-54286739D01*
X131296705Y-54199385D01*
X131288296Y-54196233D01*
X131288295Y-54196232D01*
X131211865Y-54167580D01*
X131155100Y-54124939D01*
X131130400Y-54058378D01*
X131146975Y-53986598D01*
X131181223Y-53927279D01*
X131181224Y-53927278D01*
X131184527Y-53921556D01*
X131243542Y-53739928D01*
X131263504Y-53550000D01*
X131247518Y-53397903D01*
X131244232Y-53366635D01*
X131244232Y-53366633D01*
X131243542Y-53360072D01*
X131184527Y-53178444D01*
X131178567Y-53168120D01*
X131146975Y-53113402D01*
X131130237Y-53044407D01*
X131153457Y-52977315D01*
X131211865Y-52932420D01*
X131288295Y-52903768D01*
X131288296Y-52903767D01*
X131296705Y-52900615D01*
X131413261Y-52813261D01*
X131460373Y-52750400D01*
X132366500Y-52750400D01*
X132366837Y-52753646D01*
X132366837Y-52753650D01*
X132373581Y-52818642D01*
X132377474Y-52856166D01*
X132379655Y-52862702D01*
X132379655Y-52862704D01*
X132423728Y-52994806D01*
X132433450Y-53023946D01*
X132526522Y-53174348D01*
X132651697Y-53299305D01*
X132656235Y-53302102D01*
X132696824Y-53359353D01*
X132700054Y-53430276D01*
X132664428Y-53491687D01*
X132655932Y-53499062D01*
X132645793Y-53507098D01*
X132531261Y-53621829D01*
X132522249Y-53633240D01*
X132437184Y-53771243D01*
X132431037Y-53784424D01*
X132379862Y-53938710D01*
X132376995Y-53952086D01*
X132367328Y-54046438D01*
X132367000Y-54052855D01*
X132367000Y-54077885D01*
X132371475Y-54093124D01*
X132372865Y-54094329D01*
X132380548Y-54096000D01*
X134814884Y-54096000D01*
X134830123Y-54091525D01*
X134831328Y-54090135D01*
X134832999Y-54082452D01*
X134832999Y-54052905D01*
X134832662Y-54046386D01*
X134822743Y-53950794D01*
X134819851Y-53937400D01*
X134768412Y-53783216D01*
X134762239Y-53770038D01*
X134676937Y-53632193D01*
X134667901Y-53620792D01*
X134553172Y-53506262D01*
X134544238Y-53499206D01*
X134503177Y-53441288D01*
X134499947Y-53370365D01*
X134535574Y-53308954D01*
X134543407Y-53302154D01*
X134549348Y-53298478D01*
X134674305Y-53173303D01*
X134767115Y-53022738D01*
X134822797Y-52854861D01*
X134833500Y-52750400D01*
X134833500Y-52149600D01*
X134822526Y-52043834D01*
X134766550Y-51876054D01*
X134673478Y-51725652D01*
X134548303Y-51600695D01*
X134501484Y-51571835D01*
X134403968Y-51511725D01*
X134403966Y-51511724D01*
X134397738Y-51507885D01*
X134237254Y-51454655D01*
X134236389Y-51454368D01*
X134236387Y-51454368D01*
X134229861Y-51452203D01*
X134223025Y-51451503D01*
X134223022Y-51451502D01*
X134179969Y-51447091D01*
X134125400Y-51441500D01*
X133074600Y-51441500D01*
X133071354Y-51441837D01*
X133071350Y-51441837D01*
X132975692Y-51451762D01*
X132975688Y-51451763D01*
X132968834Y-51452474D01*
X132962298Y-51454655D01*
X132962296Y-51454655D01*
X132876932Y-51483135D01*
X132801054Y-51508450D01*
X132650652Y-51601522D01*
X132525695Y-51726697D01*
X132521855Y-51732927D01*
X132521854Y-51732928D01*
X132457582Y-51837197D01*
X132432885Y-51877262D01*
X132377203Y-52045139D01*
X132366500Y-52149600D01*
X132366500Y-52750400D01*
X131460373Y-52750400D01*
X131500615Y-52696705D01*
X131551745Y-52560316D01*
X131558500Y-52498134D01*
X131558500Y-51401866D01*
X131551745Y-51339684D01*
X131500615Y-51203295D01*
X131413261Y-51086739D01*
X131296705Y-50999385D01*
X131160316Y-50948255D01*
X131098134Y-50941500D01*
X129501866Y-50941500D01*
X129439684Y-50948255D01*
X129303295Y-50999385D01*
X129186739Y-51086739D01*
X129181358Y-51093919D01*
X129175008Y-51100269D01*
X129173373Y-51098634D01*
X129126641Y-51133579D01*
X129082671Y-51141500D01*
X128492587Y-51141500D01*
X128418528Y-51117437D01*
X128412098Y-51112765D01*
X128412091Y-51112761D01*
X128406752Y-51108882D01*
X128400724Y-51106198D01*
X128400722Y-51106197D01*
X128238319Y-51033891D01*
X128238318Y-51033891D01*
X128232288Y-51031206D01*
X128138888Y-51011353D01*
X128051944Y-50992872D01*
X128051939Y-50992872D01*
X128045487Y-50991500D01*
X127854513Y-50991500D01*
X127848061Y-50992872D01*
X127848056Y-50992872D01*
X127732983Y-51017332D01*
X127662192Y-51011930D01*
X127605560Y-50969113D01*
X127581066Y-50902475D01*
X127596487Y-50833174D01*
X127617691Y-50804990D01*
X128127276Y-50295405D01*
X128189588Y-50261379D01*
X128216371Y-50258500D01*
X134333629Y-50258500D01*
X134401750Y-50278502D01*
X134422724Y-50295405D01*
X135454595Y-51327276D01*
X135488621Y-51389588D01*
X135491500Y-51416371D01*
X135491500Y-64082930D01*
X135490067Y-64101880D01*
X135486801Y-64123349D01*
X135487394Y-64130641D01*
X135487394Y-64130644D01*
X135491085Y-64176018D01*
X135491500Y-64186233D01*
X135491500Y-64194293D01*
X135491925Y-64197937D01*
X135494789Y-64222507D01*
X135495222Y-64226882D01*
X135500024Y-64285912D01*
X135501140Y-64299637D01*
X135503396Y-64306601D01*
X135504587Y-64312560D01*
X135505971Y-64318415D01*
X135506818Y-64325681D01*
X135531735Y-64394327D01*
X135533152Y-64398455D01*
X135555649Y-64467899D01*
X135559445Y-64474154D01*
X135561951Y-64479628D01*
X135564670Y-64485058D01*
X135567167Y-64491937D01*
X135571180Y-64498057D01*
X135571180Y-64498058D01*
X135607186Y-64552976D01*
X135609523Y-64556680D01*
X135647405Y-64619107D01*
X135651121Y-64623315D01*
X135651122Y-64623316D01*
X135654803Y-64627484D01*
X135654776Y-64627508D01*
X135657429Y-64630500D01*
X135660132Y-64633733D01*
X135664144Y-64639852D01*
X135669456Y-64644884D01*
X135720383Y-64693128D01*
X135722825Y-64695506D01*
X136179875Y-65152556D01*
X136210613Y-65202714D01*
X136265473Y-65371556D01*
X136360960Y-65536944D01*
X136488747Y-65678866D01*
X136530288Y-65709047D01*
X136534561Y-65712152D01*
X136577915Y-65768375D01*
X136586500Y-65814088D01*
X136586500Y-65974000D01*
X136586860Y-65977346D01*
X136586860Y-65977351D01*
X136588253Y-65990304D01*
X136598234Y-66083149D01*
X136598952Y-66086449D01*
X136598952Y-66086450D01*
X136605961Y-66118669D01*
X136609620Y-66135491D01*
X136644290Y-66239657D01*
X136723308Y-66362612D01*
X136769801Y-66416268D01*
X136773194Y-66419208D01*
X136873450Y-66506081D01*
X136873453Y-66506083D01*
X136880261Y-66511982D01*
X137013210Y-66572698D01*
X137036964Y-66579673D01*
X137077008Y-66591431D01*
X137077012Y-66591432D01*
X137081331Y-66592700D01*
X137085780Y-66593340D01*
X137085786Y-66593341D01*
X137221553Y-66612861D01*
X137221558Y-66612861D01*
X137226000Y-66613500D01*
X137965500Y-66613500D01*
X138033621Y-66633502D01*
X138080114Y-66687158D01*
X138091500Y-66739500D01*
X138091500Y-67100000D01*
X137100000Y-67100000D01*
X137100000Y-69100000D01*
X138091500Y-69100000D01*
X138091500Y-79391377D01*
X138091498Y-79392147D01*
X138091024Y-79469721D01*
X138093491Y-79478352D01*
X138099150Y-79498153D01*
X138102728Y-79514915D01*
X138106920Y-79544187D01*
X138110634Y-79552355D01*
X138110634Y-79552356D01*
X138117548Y-79567562D01*
X138123996Y-79585086D01*
X138131051Y-79609771D01*
X138135843Y-79617365D01*
X138135844Y-79617368D01*
X138146830Y-79634780D01*
X138154969Y-79649863D01*
X138167208Y-79676782D01*
X138173069Y-79683584D01*
X138183970Y-79696235D01*
X138195073Y-79711239D01*
X138208776Y-79732958D01*
X138215501Y-79738897D01*
X138215504Y-79738901D01*
X138230938Y-79752532D01*
X138242982Y-79764724D01*
X138256427Y-79780327D01*
X138256430Y-79780329D01*
X138262287Y-79787127D01*
X138269816Y-79792007D01*
X138269817Y-79792008D01*
X138283835Y-79801094D01*
X138298709Y-79812385D01*
X138302607Y-79815827D01*
X138317951Y-79829378D01*
X138344711Y-79841942D01*
X138359691Y-79850263D01*
X138376983Y-79861471D01*
X138376988Y-79861473D01*
X138384515Y-79866352D01*
X138393108Y-79868922D01*
X138393113Y-79868924D01*
X138409120Y-79873711D01*
X138426564Y-79880372D01*
X138441676Y-79887467D01*
X138441678Y-79887468D01*
X138449800Y-79891281D01*
X138458667Y-79892662D01*
X138458668Y-79892662D01*
X138461353Y-79893080D01*
X138479017Y-79895830D01*
X138495732Y-79899613D01*
X138515466Y-79905515D01*
X138515472Y-79905516D01*
X138524066Y-79908086D01*
X138533037Y-79908141D01*
X138533038Y-79908141D01*
X138543097Y-79908202D01*
X138558506Y-79908296D01*
X138559289Y-79908329D01*
X138560386Y-79908500D01*
X138591377Y-79908500D01*
X138592147Y-79908502D01*
X138665785Y-79908952D01*
X138665786Y-79908952D01*
X138669721Y-79908976D01*
X138671065Y-79908592D01*
X138672410Y-79908500D01*
X140390494Y-79908500D01*
X140391137Y-79908502D01*
X140470230Y-79908906D01*
X140478853Y-79906432D01*
X140478855Y-79906432D01*
X140498349Y-79900839D01*
X140515219Y-79897229D01*
X140544187Y-79893080D01*
X140552358Y-79889365D01*
X140552361Y-79889364D01*
X140567856Y-79882319D01*
X140585259Y-79875906D01*
X140601610Y-79871215D01*
X140601611Y-79871215D01*
X140610240Y-79868739D01*
X140634969Y-79853102D01*
X140650149Y-79844902D01*
X140668605Y-79836511D01*
X140668611Y-79836507D01*
X140676782Y-79832792D01*
X140683583Y-79826932D01*
X140683589Y-79826928D01*
X140696472Y-79815827D01*
X140711377Y-79804785D01*
X140725766Y-79795686D01*
X140733349Y-79790891D01*
X140739282Y-79784159D01*
X140739286Y-79784156D01*
X140752689Y-79768949D01*
X140764967Y-79756807D01*
X140787127Y-79737713D01*
X140801268Y-79715896D01*
X140812472Y-79701120D01*
X140823724Y-79688354D01*
X140823725Y-79688353D01*
X140829660Y-79681619D01*
X140833465Y-79673493D01*
X140833468Y-79673489D01*
X140842066Y-79655128D01*
X140850436Y-79640041D01*
X140866352Y-79615485D01*
X140868923Y-79606888D01*
X140873801Y-79590576D01*
X140880411Y-79573240D01*
X140887625Y-79557836D01*
X140891431Y-79549709D01*
X140895902Y-79520806D01*
X140899703Y-79503968D01*
X140905515Y-79484533D01*
X140905516Y-79484529D01*
X140908086Y-79475934D01*
X140908297Y-79441395D01*
X140908338Y-79440405D01*
X140908539Y-79439105D01*
X140908507Y-79407383D01*
X140908509Y-79406636D01*
X140908603Y-79391377D01*
X140908737Y-79369328D01*
X140908949Y-79334773D01*
X140908949Y-79334767D01*
X140908976Y-79330279D01*
X140908533Y-79328732D01*
X140908427Y-79327184D01*
X140898201Y-69100000D01*
X140900000Y-69100000D01*
X141900000Y-69100000D01*
X141900000Y-67100000D01*
X140900000Y-67100000D01*
X140900000Y-69100000D01*
X140898201Y-69100000D01*
X140895840Y-66739329D01*
X140915774Y-66671188D01*
X140969383Y-66624642D01*
X141026000Y-66614394D01*
X141026000Y-66613500D01*
X141774000Y-66613500D01*
X141777346Y-66613140D01*
X141777351Y-66613140D01*
X141879785Y-66602128D01*
X141879792Y-66602127D01*
X141883149Y-66601766D01*
X141900002Y-66598100D01*
X141932210Y-66591094D01*
X141932215Y-66591093D01*
X141935491Y-66590380D01*
X142039657Y-66555710D01*
X142162612Y-66476692D01*
X142216268Y-66430199D01*
X142271888Y-66366010D01*
X142306081Y-66326550D01*
X142306083Y-66326547D01*
X142311982Y-66319739D01*
X142372698Y-66186790D01*
X142392700Y-66118669D01*
X142397333Y-66086450D01*
X142412861Y-65978447D01*
X142412861Y-65978442D01*
X142413500Y-65974000D01*
X142413500Y-65914088D01*
X142433502Y-65845967D01*
X142465439Y-65812152D01*
X142469712Y-65809047D01*
X142511253Y-65778866D01*
X142537345Y-65749888D01*
X142634621Y-65641852D01*
X142634622Y-65641851D01*
X142639040Y-65636944D01*
X142734527Y-65471556D01*
X142793542Y-65289928D01*
X142805320Y-65177872D01*
X142812814Y-65106565D01*
X142813504Y-65100000D01*
X142793542Y-64910072D01*
X142734527Y-64728444D01*
X142639040Y-64563056D01*
X142511253Y-64421134D01*
X142465439Y-64387848D01*
X142422085Y-64331625D01*
X142413500Y-64285912D01*
X142413500Y-64226000D01*
X142413141Y-64222658D01*
X142413140Y-64222645D01*
X142410744Y-64200359D01*
X142423351Y-64130491D01*
X142471730Y-64078530D01*
X142540522Y-64060973D01*
X142607885Y-64083395D01*
X142625117Y-64097798D01*
X148254595Y-69727276D01*
X148288621Y-69789588D01*
X148291500Y-69816371D01*
X148291500Y-78363219D01*
X148271498Y-78431340D01*
X148231803Y-78470363D01*
X148100652Y-78551522D01*
X147975695Y-78676697D01*
X147971855Y-78682927D01*
X147971854Y-78682928D01*
X147932027Y-78747540D01*
X147882885Y-78827262D01*
X147880581Y-78834209D01*
X147834639Y-78972721D01*
X147827203Y-78995139D01*
X147816500Y-79099600D01*
X147816500Y-79700400D01*
X147816837Y-79703646D01*
X147816837Y-79703650D01*
X147826387Y-79795686D01*
X147827474Y-79806166D01*
X147829655Y-79812702D01*
X147829655Y-79812704D01*
X147861751Y-79908906D01*
X147883450Y-79973946D01*
X147976522Y-80124348D01*
X148101697Y-80249305D01*
X148106235Y-80252102D01*
X148146824Y-80309353D01*
X148150054Y-80380276D01*
X148114428Y-80441687D01*
X148105932Y-80449062D01*
X148095793Y-80457098D01*
X147981261Y-80571829D01*
X147972249Y-80583240D01*
X147887184Y-80721243D01*
X147881037Y-80734424D01*
X147829862Y-80888710D01*
X147826995Y-80902086D01*
X147817328Y-80996438D01*
X147817000Y-81002855D01*
X147817000Y-81027885D01*
X147821475Y-81043124D01*
X147822865Y-81044329D01*
X147830548Y-81046000D01*
X150264884Y-81046000D01*
X150280123Y-81041525D01*
X150281328Y-81040135D01*
X150282999Y-81032452D01*
X150282999Y-81002905D01*
X150282662Y-80996386D01*
X150272743Y-80900794D01*
X150269851Y-80887400D01*
X150218412Y-80733216D01*
X150212239Y-80720038D01*
X150126937Y-80582193D01*
X150117901Y-80570792D01*
X150003172Y-80456262D01*
X149994238Y-80449206D01*
X149953177Y-80391288D01*
X149949947Y-80320365D01*
X149985574Y-80258954D01*
X149993407Y-80252154D01*
X149999348Y-80248478D01*
X150124305Y-80123303D01*
X150217115Y-79972738D01*
X150241860Y-79898134D01*
X150991500Y-79898134D01*
X150998255Y-79960316D01*
X151049385Y-80096705D01*
X151136739Y-80213261D01*
X151253295Y-80300615D01*
X151261703Y-80303767D01*
X151379239Y-80347830D01*
X151436003Y-80390472D01*
X151460703Y-80457034D01*
X151444128Y-80528812D01*
X151415473Y-80578444D01*
X151356458Y-80760072D01*
X151336496Y-80950000D01*
X151337186Y-80956565D01*
X151346116Y-81041525D01*
X151356458Y-81139928D01*
X151415473Y-81321556D01*
X151444383Y-81371629D01*
X151461120Y-81440621D01*
X151437900Y-81507713D01*
X151379493Y-81552609D01*
X151261946Y-81596676D01*
X151246351Y-81605214D01*
X151144276Y-81681715D01*
X151131715Y-81694276D01*
X151055214Y-81796351D01*
X151046676Y-81811946D01*
X151001522Y-81932394D01*
X150997895Y-81947649D01*
X150992369Y-81998514D01*
X150992000Y-82005328D01*
X150992000Y-82277885D01*
X150996475Y-82293124D01*
X150997865Y-82294329D01*
X151005548Y-82296000D01*
X153489884Y-82296000D01*
X153505123Y-82291525D01*
X153506328Y-82290135D01*
X153507999Y-82282452D01*
X153507999Y-82005331D01*
X153507629Y-81998510D01*
X153502105Y-81947648D01*
X153498479Y-81932396D01*
X153453324Y-81811946D01*
X153444786Y-81796351D01*
X153368285Y-81694276D01*
X153355724Y-81681715D01*
X153253649Y-81605214D01*
X153238054Y-81596676D01*
X153120507Y-81552609D01*
X153063743Y-81509967D01*
X153039043Y-81443405D01*
X153055617Y-81371629D01*
X153084527Y-81321556D01*
X153143542Y-81139928D01*
X153153885Y-81041525D01*
X153162814Y-80956565D01*
X153163504Y-80950000D01*
X153143542Y-80760072D01*
X153084527Y-80578444D01*
X153055872Y-80528812D01*
X153039134Y-80459817D01*
X153062354Y-80392725D01*
X153120761Y-80347830D01*
X153238297Y-80303767D01*
X153246705Y-80300615D01*
X153363261Y-80213261D01*
X153450615Y-80096705D01*
X153501745Y-79960316D01*
X153508500Y-79898134D01*
X153508500Y-78801866D01*
X153501745Y-78739684D01*
X153450615Y-78603295D01*
X153363261Y-78486739D01*
X153246705Y-78399385D01*
X153110316Y-78348255D01*
X153048134Y-78341500D01*
X151451866Y-78341500D01*
X151389684Y-78348255D01*
X151253295Y-78399385D01*
X151136739Y-78486739D01*
X151049385Y-78603295D01*
X150998255Y-78739684D01*
X150991500Y-78801866D01*
X150991500Y-79898134D01*
X150241860Y-79898134D01*
X150245571Y-79886944D01*
X150270632Y-79811389D01*
X150270632Y-79811387D01*
X150272797Y-79804861D01*
X150274229Y-79790891D01*
X150280164Y-79732958D01*
X150283500Y-79700400D01*
X150283500Y-79099600D01*
X150272526Y-78993834D01*
X150269489Y-78984729D01*
X150218868Y-78833002D01*
X150216550Y-78826054D01*
X150123478Y-78675652D01*
X149998303Y-78550695D01*
X149992072Y-78546854D01*
X149868384Y-78470611D01*
X149820890Y-78417838D01*
X149808500Y-78363351D01*
X149808500Y-69517070D01*
X149809933Y-69498120D01*
X149812099Y-69483885D01*
X149812099Y-69483881D01*
X149813199Y-69476651D01*
X149808915Y-69423982D01*
X149808500Y-69413767D01*
X149808500Y-69405707D01*
X149805211Y-69377493D01*
X149804778Y-69373118D01*
X149799454Y-69307661D01*
X149799453Y-69307658D01*
X149798860Y-69300363D01*
X149796604Y-69293399D01*
X149795413Y-69287440D01*
X149794029Y-69281585D01*
X149793182Y-69274319D01*
X149768265Y-69205673D01*
X149766848Y-69201545D01*
X149746607Y-69139064D01*
X149746606Y-69139062D01*
X149744351Y-69132101D01*
X149740555Y-69125846D01*
X149738049Y-69120372D01*
X149735330Y-69114942D01*
X149732833Y-69108063D01*
X149692814Y-69047024D01*
X149690467Y-69043305D01*
X149652595Y-68980893D01*
X149645197Y-68972516D01*
X149645224Y-68972492D01*
X149642571Y-68969500D01*
X149639868Y-68966267D01*
X149635856Y-68960148D01*
X149579617Y-68906872D01*
X149577175Y-68904494D01*
X142849719Y-62177038D01*
X142815693Y-62114726D01*
X142814103Y-62099937D01*
X142813504Y-62100000D01*
X142794232Y-61916635D01*
X142794232Y-61916633D01*
X142793542Y-61910072D01*
X142734527Y-61728444D01*
X142639040Y-61563056D01*
X142554400Y-61469053D01*
X142515675Y-61426045D01*
X142515674Y-61426044D01*
X142511253Y-61421134D01*
X142465439Y-61387848D01*
X142422085Y-61331625D01*
X142413500Y-61285912D01*
X142413500Y-61226000D01*
X142413140Y-61222649D01*
X142402128Y-61120215D01*
X142402127Y-61120208D01*
X142401766Y-61116851D01*
X142390380Y-61064509D01*
X142355710Y-60960343D01*
X142276692Y-60837388D01*
X142230199Y-60783732D01*
X142220933Y-60775703D01*
X142126550Y-60693919D01*
X142126547Y-60693917D01*
X142119739Y-60688018D01*
X141986790Y-60627302D01*
X141963036Y-60620327D01*
X141922992Y-60608569D01*
X141922988Y-60608568D01*
X141918669Y-60607300D01*
X141914220Y-60606660D01*
X141914214Y-60606659D01*
X141778447Y-60587139D01*
X141778442Y-60587139D01*
X141774000Y-60586500D01*
X141026000Y-60586500D01*
X141022637Y-60586861D01*
X141022311Y-60586879D01*
X140953216Y-60570555D01*
X140903916Y-60519467D01*
X140889561Y-60461186D01*
X140888242Y-59142021D01*
X140862009Y-32909002D01*
X140881943Y-32840863D01*
X140935552Y-32794317D01*
X141005816Y-32784143D01*
X141070426Y-32813571D01*
G37*
%TD.AperFunction*%
%TD*%
M02*
