%TF.GenerationSoftware,KiCad,Pcbnew,(6.0.7)*%
%TF.CreationDate,2022-11-21T20:09:17+01:00*%
%TF.ProjectId,Arbolito Tronco,4172626f-6c69-4746-9f20-54726f6e636f,rev?*%
%TF.SameCoordinates,Original*%
%TF.FileFunction,Legend,Bot*%
%TF.FilePolarity,Positive*%
%FSLAX46Y46*%
G04 Gerber Fmt 4.6, Leading zero omitted, Abs format (unit mm)*
G04 Created by KiCad (PCBNEW (6.0.7)) date 2022-11-21 20:09:17*
%MOMM*%
%LPD*%
G01*
G04 APERTURE LIST*
%ADD10C,3.000000*%
%ADD11C,1.000000*%
%ADD12C,0.150000*%
%ADD13C,0.120000*%
G04 APERTURE END LIST*
D10*
X132075000Y-69200000D02*
G75*
G03*
X132075000Y-69200000I-700000J0D01*
G01*
D11*
X106116451Y-110314628D02*
G75*
G03*
X129316451Y-86614628I-18004781J40830208D01*
G01*
X119465289Y-54100001D02*
G75*
G03*
X139200000Y-29100000I-24083929J39300751D01*
G01*
D10*
X155125000Y-99825000D02*
G75*
G03*
X155125000Y-99825000I-700000J0D01*
G01*
D11*
X149899995Y-86800002D02*
G75*
G03*
X173000000Y-110300000I42077105J18257502D01*
G01*
D10*
X150320582Y-72708426D02*
G75*
G03*
X150320582Y-72708426I-700000J0D01*
G01*
D11*
X116000002Y-81900003D02*
G75*
G03*
X132401653Y-58615310I-21194882J32348573D01*
G01*
X146475609Y-59000009D02*
G75*
G03*
X162700000Y-82000000I40301491J11206609D01*
G01*
X149700000Y-86500013D02*
G75*
G03*
X163147160Y-81699399I-847500J23607913D01*
G01*
D10*
X134774308Y-45150000D02*
G75*
G03*
X134774308Y-45150000I-700000J0D01*
G01*
D11*
X106198403Y-110217364D02*
G75*
G03*
X132100000Y-117300000I20714197J24849864D01*
G01*
X146379472Y-58709284D02*
G75*
G03*
X160000000Y-54000000I2680728J14298384D01*
G01*
D10*
X149050000Y-49450000D02*
G75*
G03*
X149050000Y-49450000I-700000J0D01*
G01*
D11*
X119314149Y-53937691D02*
G75*
G03*
X132514132Y-58537707I11055251J10484591D01*
G01*
X140100001Y-29900000D02*
G75*
G03*
X159700000Y-54500000I43685949J14698560D01*
G01*
X115964110Y-81986527D02*
G75*
G03*
X129252366Y-86586519I14873490J21472627D01*
G01*
D10*
X128425000Y-96050000D02*
G75*
G03*
X128425000Y-96050000I-700000J0D01*
G01*
D11*
X147425001Y-117399993D02*
G75*
G03*
X173124126Y-110100000I4500899J33040893D01*
G01*
D12*
%TO.C,U3*%
X155461904Y-76902380D02*
X155461904Y-77711904D01*
X155414285Y-77807142D01*
X155366666Y-77854761D01*
X155271428Y-77902380D01*
X155080952Y-77902380D01*
X154985714Y-77854761D01*
X154938095Y-77807142D01*
X154890476Y-77711904D01*
X154890476Y-76902380D01*
X154509523Y-76902380D02*
X153890476Y-76902380D01*
X154223809Y-77283333D01*
X154080952Y-77283333D01*
X153985714Y-77330952D01*
X153938095Y-77378571D01*
X153890476Y-77473809D01*
X153890476Y-77711904D01*
X153938095Y-77807142D01*
X153985714Y-77854761D01*
X154080952Y-77902380D01*
X154366666Y-77902380D01*
X154461904Y-77854761D01*
X154509523Y-77807142D01*
X155789285Y-80852380D02*
X156360714Y-80852380D01*
X156075000Y-80852380D02*
X156075000Y-79852380D01*
X156170238Y-79995238D01*
X156265476Y-80090476D01*
X156360714Y-80138095D01*
%TO.C,U6*%
X128611904Y-49502380D02*
X128611904Y-50311904D01*
X128564285Y-50407142D01*
X128516666Y-50454761D01*
X128421428Y-50502380D01*
X128230952Y-50502380D01*
X128135714Y-50454761D01*
X128088095Y-50407142D01*
X128040476Y-50311904D01*
X128040476Y-49502380D01*
X127135714Y-49502380D02*
X127326190Y-49502380D01*
X127421428Y-49550000D01*
X127469047Y-49597619D01*
X127564285Y-49740476D01*
X127611904Y-49930952D01*
X127611904Y-50311904D01*
X127564285Y-50407142D01*
X127516666Y-50454761D01*
X127421428Y-50502380D01*
X127230952Y-50502380D01*
X127135714Y-50454761D01*
X127088095Y-50407142D01*
X127040476Y-50311904D01*
X127040476Y-50073809D01*
X127088095Y-49978571D01*
X127135714Y-49930952D01*
X127230952Y-49883333D01*
X127421428Y-49883333D01*
X127516666Y-49930952D01*
X127564285Y-49978571D01*
X127611904Y-50073809D01*
X128914285Y-53502380D02*
X129485714Y-53502380D01*
X129200000Y-53502380D02*
X129200000Y-52502380D01*
X129295238Y-52645238D01*
X129390476Y-52740476D01*
X129485714Y-52788095D01*
%TO.C,U2*%
X117861904Y-105952380D02*
X117861904Y-106761904D01*
X117814285Y-106857142D01*
X117766666Y-106904761D01*
X117671428Y-106952380D01*
X117480952Y-106952380D01*
X117385714Y-106904761D01*
X117338095Y-106857142D01*
X117290476Y-106761904D01*
X117290476Y-105952380D01*
X116861904Y-106047619D02*
X116814285Y-106000000D01*
X116719047Y-105952380D01*
X116480952Y-105952380D01*
X116385714Y-106000000D01*
X116338095Y-106047619D01*
X116290476Y-106142857D01*
X116290476Y-106238095D01*
X116338095Y-106380952D01*
X116909523Y-106952380D01*
X116290476Y-106952380D01*
X118189285Y-109927380D02*
X118760714Y-109927380D01*
X118475000Y-109927380D02*
X118475000Y-108927380D01*
X118570238Y-109070238D01*
X118665476Y-109165476D01*
X118760714Y-109213095D01*
%TO.C,G\u002A\u002A\u002A*%
G36*
X133852351Y-43529631D02*
G01*
X133912479Y-43564945D01*
X134025324Y-43650435D01*
X134153119Y-43750124D01*
X134259978Y-43836875D01*
X134341967Y-43907390D01*
X134395149Y-43958370D01*
X134415589Y-43986517D01*
X134406911Y-44027848D01*
X134377334Y-44077915D01*
X134332884Y-44134182D01*
X134554941Y-44307129D01*
X134559823Y-44310940D01*
X134645001Y-44380512D01*
X134715716Y-44443810D01*
X134764724Y-44493993D01*
X134784782Y-44524219D01*
X134785437Y-44528235D01*
X134783421Y-44566437D01*
X134760245Y-44606723D01*
X134708802Y-44661983D01*
X134698075Y-44674743D01*
X134695079Y-44692324D01*
X134709085Y-44715689D01*
X134744886Y-44750100D01*
X134807272Y-44800818D01*
X134901036Y-44873108D01*
X134910966Y-44880701D01*
X135005161Y-44954298D01*
X135068875Y-45008550D01*
X135107950Y-45049495D01*
X135128221Y-45083171D01*
X135135529Y-45115618D01*
X135136262Y-45132271D01*
X135127801Y-45172601D01*
X135097007Y-45210817D01*
X135035428Y-45259027D01*
X134990157Y-45292994D01*
X134947249Y-45329309D01*
X134931251Y-45348999D01*
X134948506Y-45367501D01*
X134994521Y-45407502D01*
X135062280Y-45463098D01*
X135144767Y-45528396D01*
X135243474Y-45608195D01*
X135323085Y-45684187D01*
X135362689Y-45744542D01*
X135364426Y-45747188D01*
X135367532Y-45802921D01*
X135332443Y-45857113D01*
X135259199Y-45915485D01*
X135147836Y-45983764D01*
X135108356Y-46004896D01*
X135012393Y-46049928D01*
X134899727Y-46097214D01*
X134787292Y-46139442D01*
X134557825Y-46219595D01*
X134587827Y-46389745D01*
X134614808Y-46542761D01*
X134488838Y-46573979D01*
X134436945Y-46585926D01*
X134356632Y-46601289D01*
X134297769Y-46608811D01*
X134284738Y-46609719D01*
X134213566Y-46617655D01*
X134135650Y-46629532D01*
X134038632Y-46646638D01*
X133981178Y-46320802D01*
X133747642Y-46323128D01*
X133695634Y-46323044D01*
X133570352Y-46319066D01*
X133449625Y-46310827D01*
X133353675Y-46299538D01*
X133262465Y-46282723D01*
X134157385Y-46282723D01*
X134188666Y-46460128D01*
X134410422Y-46421026D01*
X134379141Y-46243621D01*
X134157385Y-46282723D01*
X133262465Y-46282723D01*
X133239499Y-46278489D01*
X133141576Y-46250089D01*
X133082370Y-46213046D01*
X133059933Y-46162194D01*
X133070633Y-46101875D01*
X133256622Y-46101875D01*
X133273056Y-46113995D01*
X133326725Y-46129057D01*
X133408786Y-46143063D01*
X133510122Y-46154513D01*
X133621617Y-46161907D01*
X133626391Y-46162089D01*
X133720305Y-46160278D01*
X133847549Y-46150566D01*
X133997978Y-46133904D01*
X134161446Y-46111245D01*
X134178780Y-46108590D01*
X134398718Y-46070697D01*
X134584689Y-46029156D01*
X134747016Y-45980930D01*
X134896025Y-45922985D01*
X135042042Y-45852281D01*
X135187720Y-45775393D01*
X135121892Y-45720310D01*
X135084183Y-45689818D01*
X135016543Y-45636623D01*
X134931980Y-45571053D01*
X134840558Y-45500955D01*
X134839688Y-45500292D01*
X134756173Y-45435256D01*
X134687555Y-45379251D01*
X134640907Y-45338231D01*
X134623306Y-45318151D01*
X134623746Y-45316225D01*
X134647714Y-45295655D01*
X134701048Y-45263513D01*
X134773842Y-45225873D01*
X134786315Y-45219760D01*
X134857741Y-45181683D01*
X134908870Y-45149241D01*
X134929335Y-45128903D01*
X134924404Y-45119973D01*
X134890862Y-45085934D01*
X134830781Y-45033042D01*
X134750212Y-44966530D01*
X134655198Y-44891635D01*
X134599791Y-44848627D01*
X134511493Y-44778957D01*
X134440493Y-44721474D01*
X134392964Y-44681212D01*
X134375082Y-44663209D01*
X134381716Y-44654530D01*
X134418965Y-44631303D01*
X134478505Y-44602679D01*
X134517827Y-44584452D01*
X134564570Y-44558441D01*
X134581433Y-44542235D01*
X134575412Y-44535308D01*
X134540049Y-44504451D01*
X134478452Y-44454237D01*
X134396840Y-44389694D01*
X134301432Y-44315851D01*
X134247409Y-44274139D01*
X134158779Y-44204219D01*
X134087412Y-44145985D01*
X134039542Y-44104577D01*
X134021406Y-44085130D01*
X134035765Y-44068988D01*
X134078829Y-44054187D01*
X134127151Y-44043191D01*
X134169277Y-44026434D01*
X134180541Y-44003616D01*
X134159385Y-43969865D01*
X134104255Y-43920309D01*
X134013590Y-43850079D01*
X133817054Y-43701814D01*
X133683455Y-43908291D01*
X133637733Y-43980170D01*
X133595201Y-44054405D01*
X133579063Y-44100654D01*
X133589494Y-44124028D01*
X133626666Y-44129645D01*
X133690755Y-44122615D01*
X133733736Y-44121876D01*
X133755598Y-44133753D01*
X133752778Y-44143116D01*
X133730740Y-44185660D01*
X133690368Y-44255052D01*
X133635796Y-44344291D01*
X133571157Y-44446373D01*
X133534720Y-44503349D01*
X133474962Y-44598428D01*
X133427351Y-44676322D01*
X133396037Y-44730185D01*
X133385170Y-44753169D01*
X133394281Y-44759079D01*
X133437102Y-44768185D01*
X133502777Y-44774726D01*
X133545936Y-44778391D01*
X133598979Y-44786817D01*
X133620665Y-44796233D01*
X133617354Y-44805081D01*
X133594725Y-44846565D01*
X133554165Y-44915223D01*
X133499753Y-45004212D01*
X133435568Y-45106688D01*
X133398432Y-45166103D01*
X133340348Y-45262578D01*
X133295172Y-45342278D01*
X133266797Y-45398217D01*
X133259113Y-45423408D01*
X133260204Y-45424822D01*
X133291259Y-45437267D01*
X133353598Y-45450193D01*
X133435129Y-45461014D01*
X133445890Y-45462131D01*
X133526113Y-45471572D01*
X133586047Y-45480515D01*
X133613411Y-45487157D01*
X133612251Y-45495077D01*
X133593144Y-45534890D01*
X133555580Y-45602017D01*
X133503358Y-45689780D01*
X133440281Y-45791493D01*
X133403678Y-45849833D01*
X133344719Y-45945616D01*
X133297841Y-46024141D01*
X133267117Y-46078523D01*
X133256622Y-46101875D01*
X133070633Y-46101875D01*
X133072319Y-46092368D01*
X133117582Y-45998405D01*
X133193777Y-45875138D01*
X133247546Y-45790783D01*
X133293298Y-45715195D01*
X133323508Y-45660772D01*
X133333432Y-45635650D01*
X133319454Y-45624290D01*
X133272217Y-45603882D01*
X133203925Y-45581970D01*
X133173782Y-45573181D01*
X133111989Y-45549506D01*
X133078361Y-45521758D01*
X133060812Y-45481446D01*
X133060129Y-45478861D01*
X133056701Y-45445664D01*
X133065328Y-45406272D01*
X133089433Y-45352996D01*
X133132443Y-45278150D01*
X133197782Y-45174045D01*
X133352675Y-44932081D01*
X133274168Y-44890255D01*
X133260759Y-44882543D01*
X133211724Y-44843102D01*
X133188007Y-44805018D01*
X133187842Y-44803566D01*
X133198126Y-44766167D01*
X133228446Y-44700677D01*
X133274354Y-44615912D01*
X133331407Y-44520687D01*
X133379638Y-44443271D01*
X133425165Y-44367209D01*
X133450878Y-44317279D01*
X133459435Y-44286770D01*
X133453488Y-44268976D01*
X133435696Y-44257186D01*
X133404852Y-44240155D01*
X133372053Y-44208450D01*
X133362649Y-44166662D01*
X133377556Y-44108312D01*
X133417689Y-44026921D01*
X133483967Y-43916010D01*
X133511569Y-43871745D01*
X133588002Y-43749898D01*
X133645717Y-43659918D01*
X133688423Y-43596817D01*
X133719834Y-43555604D01*
X133743660Y-43531290D01*
X133763612Y-43518882D01*
X133783402Y-43513394D01*
X133797828Y-43513129D01*
X133852351Y-43529631D01*
G37*
G36*
X134742128Y-42970926D02*
G01*
X134894854Y-43025688D01*
X135175297Y-43159178D01*
X135428452Y-43323951D01*
X135653139Y-43516481D01*
X135848178Y-43733242D01*
X136012391Y-43970709D01*
X136144599Y-44225356D01*
X136243620Y-44493659D01*
X136282509Y-44661122D01*
X136308279Y-44772089D01*
X136337392Y-45057122D01*
X136329783Y-45345232D01*
X136284271Y-45632893D01*
X136199677Y-45916582D01*
X136074823Y-46192769D01*
X135908527Y-46457932D01*
X135842555Y-46545338D01*
X135635058Y-46777787D01*
X135406288Y-46972771D01*
X135151303Y-47134116D01*
X134865162Y-47265648D01*
X134734925Y-47309868D01*
X134491030Y-47366220D01*
X134230952Y-47397722D01*
X133969037Y-47402937D01*
X133719632Y-47380428D01*
X133641340Y-47366857D01*
X133341725Y-47287033D01*
X133057402Y-47167153D01*
X132792323Y-47010225D01*
X132550433Y-46819258D01*
X132335680Y-46597263D01*
X132152012Y-46347245D01*
X132003375Y-46072217D01*
X131899548Y-45795989D01*
X131830968Y-45496391D01*
X131811573Y-45279539D01*
X131989020Y-45279539D01*
X132028122Y-45564799D01*
X132105501Y-45837731D01*
X132218417Y-46095221D01*
X132364129Y-46334160D01*
X132539895Y-46551432D01*
X132742977Y-46743928D01*
X132970631Y-46908534D01*
X133220118Y-47042140D01*
X133488696Y-47141632D01*
X133773625Y-47203899D01*
X134072164Y-47225830D01*
X134218922Y-47220793D01*
X134510595Y-47178551D01*
X134791049Y-47095710D01*
X135056225Y-46975043D01*
X135302066Y-46819325D01*
X135524510Y-46631328D01*
X135719499Y-46413824D01*
X135882973Y-46169586D01*
X136010875Y-45901390D01*
X136063476Y-45750573D01*
X136120037Y-45518909D01*
X136153325Y-45264746D01*
X136156891Y-45110265D01*
X136140581Y-44905488D01*
X136104626Y-44692487D01*
X136051824Y-44487201D01*
X135984973Y-44305563D01*
X135975872Y-44285452D01*
X135892722Y-44125895D01*
X135790931Y-43962560D01*
X135680931Y-43811113D01*
X135573158Y-43687221D01*
X135417004Y-43547557D01*
X135218554Y-43405628D01*
X135002033Y-43280325D01*
X134780701Y-43179258D01*
X134567815Y-43110040D01*
X134530153Y-43101139D01*
X134257665Y-43061312D01*
X133974589Y-43059389D01*
X133689726Y-43093830D01*
X133411876Y-43163093D01*
X133149835Y-43265637D01*
X132912405Y-43399923D01*
X132890953Y-43414621D01*
X132687485Y-43579055D01*
X132497503Y-43776526D01*
X132330339Y-43996265D01*
X132195327Y-44227500D01*
X132116762Y-44406096D01*
X132047456Y-44629543D01*
X132002404Y-44875815D01*
X131990938Y-44985061D01*
X131989020Y-45279539D01*
X131811573Y-45279539D01*
X131803888Y-45193614D01*
X131817249Y-44891881D01*
X131869997Y-44595412D01*
X131961072Y-44308433D01*
X132089417Y-44035165D01*
X132253975Y-43779831D01*
X132453690Y-43546652D01*
X132687503Y-43339853D01*
X132860044Y-43207471D01*
X132822710Y-42994203D01*
X132812675Y-42935115D01*
X132800897Y-42850191D01*
X132800246Y-42832460D01*
X132984967Y-42832460D01*
X132991324Y-42899596D01*
X133003521Y-42980704D01*
X133011996Y-43026200D01*
X133026468Y-43084496D01*
X133040987Y-43109160D01*
X133058756Y-43107550D01*
X133065893Y-43103326D01*
X133194975Y-43040981D01*
X133355486Y-42983645D01*
X133534685Y-42934822D01*
X133719828Y-42898015D01*
X133898172Y-42876729D01*
X133950658Y-42873434D01*
X134060948Y-42869356D01*
X134159371Y-42869161D01*
X134229444Y-42873032D01*
X134335797Y-42885618D01*
X134308631Y-42731552D01*
X134295500Y-42663679D01*
X134277793Y-42602902D01*
X134254449Y-42564077D01*
X134219581Y-42534153D01*
X134186888Y-42514732D01*
X134117591Y-42491187D01*
X134027138Y-42480865D01*
X133908065Y-42483183D01*
X133752906Y-42497555D01*
X133626370Y-42515715D01*
X133464917Y-42549365D01*
X133316945Y-42591618D01*
X133188734Y-42640018D01*
X133086565Y-42692109D01*
X133016720Y-42745436D01*
X132985479Y-42797543D01*
X132984967Y-42832460D01*
X132800246Y-42832460D01*
X132798750Y-42791737D01*
X132806263Y-42748257D01*
X132823471Y-42708256D01*
X132841648Y-42674854D01*
X132884695Y-42611794D01*
X132937606Y-42564331D01*
X133016437Y-42516509D01*
X133073282Y-42481483D01*
X133098179Y-42452798D01*
X133095088Y-42423766D01*
X133084654Y-42386064D01*
X133083793Y-42300788D01*
X133084974Y-42294026D01*
X133270162Y-42294026D01*
X133273339Y-42349956D01*
X133283806Y-42381597D01*
X133285582Y-42382557D01*
X133319407Y-42382596D01*
X133386819Y-42373993D01*
X133479030Y-42358065D01*
X133587251Y-42336130D01*
X133873580Y-42274209D01*
X133854858Y-42208915D01*
X133839504Y-42167733D01*
X133775071Y-42082401D01*
X133673641Y-42022645D01*
X133644355Y-42012908D01*
X133537854Y-42004113D01*
X133438300Y-42032738D01*
X133354609Y-42092981D01*
X133295696Y-42179035D01*
X133270475Y-42285099D01*
X133270162Y-42294026D01*
X133084974Y-42294026D01*
X133101153Y-42201418D01*
X133133572Y-42103304D01*
X133177889Y-42021797D01*
X133218923Y-41972129D01*
X133323915Y-41888536D01*
X133442930Y-41839293D01*
X133568563Y-41822986D01*
X133693407Y-41838199D01*
X133810055Y-41883516D01*
X133911097Y-41957523D01*
X133989128Y-42058801D01*
X134036741Y-42185937D01*
X134043339Y-42215356D01*
X134052052Y-42242740D01*
X134060116Y-42268089D01*
X134082265Y-42292337D01*
X134118182Y-42299837D01*
X134145556Y-42303084D01*
X134244539Y-42333541D01*
X134337187Y-42386158D01*
X134404165Y-42450733D01*
X134425673Y-42487438D01*
X134459203Y-42579648D01*
X134487898Y-42710834D01*
X134513201Y-42854337D01*
X134521254Y-42900008D01*
X134742128Y-42970926D01*
G37*
D13*
%TO.C,U3*%
X158350000Y-78200000D02*
X151050000Y-78200000D01*
X158350000Y-83700000D02*
X151050000Y-83700000D01*
X151050000Y-83700000D02*
X151050000Y-82550000D01*
%TO.C,G\u002A\u002A\u002A*%
G36*
X149653040Y-47656545D02*
G01*
X149777827Y-47760239D01*
X149995700Y-47981596D01*
X150177232Y-48223016D01*
X150322520Y-48480783D01*
X150431660Y-48751179D01*
X150504752Y-49030489D01*
X150541892Y-49314997D01*
X150543177Y-49600986D01*
X150522444Y-49771650D01*
X150508707Y-49884739D01*
X150438578Y-50162540D01*
X150332887Y-50430672D01*
X150191735Y-50685419D01*
X150015215Y-50923066D01*
X149803429Y-51139895D01*
X149556471Y-51332190D01*
X149464583Y-51391761D01*
X149190097Y-51539224D01*
X148908435Y-51644205D01*
X148613645Y-51708610D01*
X148299773Y-51734343D01*
X148162266Y-51731353D01*
X147913806Y-51700890D01*
X147658639Y-51641540D01*
X147410736Y-51556860D01*
X147184070Y-51450407D01*
X147115141Y-51410877D01*
X146860896Y-51233392D01*
X146634722Y-51023498D01*
X146439301Y-50785372D01*
X146277314Y-50523190D01*
X146151439Y-50241133D01*
X146064358Y-49943375D01*
X146018751Y-49634096D01*
X146016809Y-49448680D01*
X146194916Y-49448680D01*
X146212956Y-49729262D01*
X146268159Y-50003627D01*
X146359014Y-50267911D01*
X146484011Y-50518256D01*
X146641637Y-50750798D01*
X146830382Y-50961676D01*
X147048734Y-51147027D01*
X147295183Y-51302991D01*
X147568217Y-51425705D01*
X147707847Y-51471166D01*
X147996378Y-51531229D01*
X148288252Y-51549306D01*
X148578707Y-51526612D01*
X148862980Y-51464367D01*
X149136308Y-51363787D01*
X149393929Y-51226091D01*
X149631078Y-51052494D01*
X149842995Y-50844217D01*
X149944006Y-50720485D01*
X150076390Y-50522137D01*
X150194599Y-50294688D01*
X150250786Y-50150743D01*
X150305498Y-49952737D01*
X150344561Y-49740285D01*
X150365156Y-49529319D01*
X150364461Y-49335771D01*
X150362787Y-49313760D01*
X150339223Y-49135387D01*
X150299434Y-48947087D01*
X150247866Y-48767152D01*
X150188966Y-48613870D01*
X150089998Y-48429221D01*
X149952058Y-48227978D01*
X149791451Y-48036177D01*
X149618034Y-47865505D01*
X149441661Y-47727650D01*
X149409314Y-47706405D01*
X149166881Y-47575783D01*
X148901534Y-47477159D01*
X148622071Y-47412094D01*
X148337287Y-47382149D01*
X148055978Y-47388886D01*
X147786937Y-47433867D01*
X147761752Y-47440342D01*
X147514315Y-47525270D01*
X147268251Y-47645854D01*
X147036014Y-47795168D01*
X146830057Y-47966280D01*
X146695147Y-48107235D01*
X146553597Y-48293503D01*
X146427031Y-48509514D01*
X146378893Y-48608249D01*
X146276374Y-48884312D01*
X146215553Y-49165743D01*
X146194916Y-49448680D01*
X146016809Y-49448680D01*
X146015660Y-49339016D01*
X146053685Y-49034030D01*
X146131794Y-48740251D01*
X146247549Y-48461284D01*
X146398513Y-48200735D01*
X146582248Y-47962213D01*
X146796317Y-47749321D01*
X147038280Y-47565668D01*
X147305702Y-47414858D01*
X147596144Y-47300499D01*
X147803557Y-47235114D01*
X147813971Y-47176475D01*
X148002005Y-47176475D01*
X148007212Y-47204617D01*
X148024460Y-47209182D01*
X148032611Y-47207653D01*
X148175232Y-47193217D01*
X148345673Y-47194237D01*
X148530763Y-47209648D01*
X148717330Y-47238383D01*
X148892199Y-47279378D01*
X148942647Y-47294233D01*
X149047679Y-47328122D01*
X149140234Y-47361602D01*
X149204757Y-47389206D01*
X149300391Y-47437408D01*
X149327558Y-47283341D01*
X149338433Y-47215071D01*
X149342580Y-47151903D01*
X149333923Y-47107435D01*
X149311392Y-47067391D01*
X149287313Y-47037959D01*
X149230248Y-46992133D01*
X149148781Y-46951497D01*
X149036095Y-46912949D01*
X148885379Y-46873388D01*
X148760263Y-46847174D01*
X148597037Y-46823575D01*
X148443537Y-46812670D01*
X148306505Y-46814301D01*
X148192681Y-46828306D01*
X148108810Y-46854528D01*
X148061631Y-46892808D01*
X148049208Y-46925444D01*
X148032219Y-46990705D01*
X148015940Y-47071094D01*
X148008344Y-47116745D01*
X148002005Y-47176475D01*
X147813971Y-47176475D01*
X147841417Y-47021938D01*
X147852196Y-46962982D01*
X147870174Y-46879151D01*
X147888148Y-46823487D01*
X147910080Y-46785199D01*
X147939931Y-46753496D01*
X147968436Y-46728325D01*
X148030455Y-46683791D01*
X148096409Y-46657287D01*
X148186841Y-46639311D01*
X148252238Y-46625839D01*
X148285444Y-46607400D01*
X148286292Y-46603981D01*
X148484228Y-46603981D01*
X148485569Y-46605491D01*
X148517341Y-46617096D01*
X148583630Y-46632068D01*
X148675728Y-46648639D01*
X148784925Y-46665040D01*
X149075164Y-46704784D01*
X149079903Y-46637025D01*
X149079559Y-46593074D01*
X149048198Y-46490851D01*
X148973322Y-46400007D01*
X148949133Y-46380842D01*
X148852062Y-46336152D01*
X148748722Y-46329001D01*
X148649474Y-46356986D01*
X148564682Y-46417701D01*
X148504706Y-46508743D01*
X148501358Y-46517024D01*
X148485215Y-46570668D01*
X148484228Y-46603981D01*
X148286292Y-46603981D01*
X148292469Y-46579062D01*
X148295559Y-46540065D01*
X148323916Y-46459637D01*
X148374216Y-46372197D01*
X148438237Y-46291088D01*
X148507758Y-46229654D01*
X148563305Y-46197016D01*
X148690555Y-46154373D01*
X148819235Y-46148805D01*
X148942869Y-46176451D01*
X149054981Y-46233446D01*
X149149094Y-46315925D01*
X149218731Y-46420027D01*
X149257417Y-46541886D01*
X149258676Y-46677639D01*
X149254814Y-46707541D01*
X149253635Y-46736253D01*
X149252543Y-46762832D01*
X149265063Y-46793193D01*
X149296249Y-46812525D01*
X149320862Y-46824938D01*
X149403459Y-46887413D01*
X149472523Y-46968544D01*
X149513375Y-47052133D01*
X149521033Y-47093980D01*
X149521003Y-47192098D01*
X149503099Y-47325186D01*
X149477796Y-47468689D01*
X149469743Y-47514360D01*
X149653040Y-47656545D01*
G37*
G36*
X148182709Y-50955677D02*
G01*
X148129860Y-50949154D01*
X148049136Y-50936123D01*
X147991250Y-50923058D01*
X147978694Y-50919454D01*
X147909100Y-50902570D01*
X147831821Y-50887081D01*
X147734803Y-50869974D01*
X147756658Y-50746026D01*
X147939579Y-50746026D01*
X148161335Y-50785128D01*
X148192616Y-50607723D01*
X147970860Y-50568621D01*
X147939579Y-50746026D01*
X147756658Y-50746026D01*
X147792256Y-50544138D01*
X147572009Y-50466449D01*
X147523166Y-50448583D01*
X147406800Y-50401996D01*
X147296172Y-50352962D01*
X147209870Y-50309537D01*
X147109778Y-50250708D01*
X147027474Y-50190529D01*
X146984508Y-50135470D01*
X146981522Y-50090601D01*
X147186274Y-50090601D01*
X147197572Y-50107611D01*
X147242853Y-50140120D01*
X147315174Y-50181348D01*
X147406483Y-50226766D01*
X147508725Y-50271849D01*
X147513149Y-50273652D01*
X147602018Y-50304071D01*
X147724910Y-50338465D01*
X147871966Y-50374258D01*
X148033325Y-50408874D01*
X148050522Y-50412308D01*
X148270157Y-50451924D01*
X148459120Y-50476493D01*
X148628151Y-50486695D01*
X148787993Y-50483208D01*
X148949386Y-50466709D01*
X149112576Y-50444283D01*
X149069557Y-50370007D01*
X149044551Y-50328457D01*
X148999184Y-50255335D01*
X148942148Y-50164797D01*
X148880214Y-50067659D01*
X148879623Y-50066738D01*
X148823389Y-49977061D01*
X148778063Y-49900964D01*
X148748258Y-49846464D01*
X148738586Y-49821575D01*
X148739659Y-49819915D01*
X148769217Y-49808784D01*
X148830327Y-49796822D01*
X148911605Y-49786348D01*
X148925416Y-49784870D01*
X149005558Y-49773518D01*
X149064699Y-49760520D01*
X149090887Y-49748408D01*
X149089307Y-49738330D01*
X149069429Y-49694871D01*
X149031062Y-49624621D01*
X148978100Y-49534564D01*
X148914432Y-49431688D01*
X148877076Y-49372324D01*
X148817932Y-49276656D01*
X148770874Y-49198356D01*
X148739982Y-49144267D01*
X148729336Y-49121233D01*
X148738538Y-49115346D01*
X148781484Y-49106260D01*
X148847223Y-49099726D01*
X148890408Y-49096047D01*
X148943229Y-49087592D01*
X148964618Y-49078131D01*
X148961329Y-49069562D01*
X148938653Y-49028471D01*
X148897944Y-48960218D01*
X148843329Y-48871655D01*
X148778931Y-48769633D01*
X148742432Y-48711960D01*
X148683061Y-48615944D01*
X148635915Y-48536813D01*
X148605095Y-48481529D01*
X148594703Y-48457052D01*
X148613717Y-48446795D01*
X148659246Y-48447615D01*
X148708415Y-48453809D01*
X148753732Y-48452471D01*
X148772120Y-48434881D01*
X148763785Y-48395930D01*
X148728928Y-48330507D01*
X148667751Y-48233503D01*
X148533777Y-48026960D01*
X148337616Y-48175292D01*
X148270067Y-48227198D01*
X148204711Y-48282409D01*
X148173728Y-48320349D01*
X148175534Y-48345882D01*
X148208544Y-48363873D01*
X148271172Y-48379187D01*
X148311814Y-48393194D01*
X148328295Y-48411832D01*
X148322443Y-48419665D01*
X148287183Y-48452105D01*
X148225513Y-48503505D01*
X148143710Y-48568698D01*
X148048055Y-48642515D01*
X147994329Y-48683594D01*
X147905656Y-48752500D01*
X147834275Y-48809412D01*
X147786427Y-48849316D01*
X147768354Y-48867198D01*
X147774895Y-48875868D01*
X147812019Y-48899070D01*
X147871495Y-48927679D01*
X147910798Y-48945884D01*
X147957761Y-48971943D01*
X147974919Y-48988209D01*
X147968780Y-48995391D01*
X147933329Y-49026634D01*
X147871732Y-49077279D01*
X147790165Y-49142291D01*
X147694802Y-49216635D01*
X147639585Y-49259765D01*
X147552007Y-49330556D01*
X147482297Y-49389998D01*
X147436500Y-49432859D01*
X147420665Y-49453903D01*
X147421206Y-49455605D01*
X147446132Y-49477921D01*
X147500290Y-49511388D01*
X147573203Y-49549442D01*
X147582933Y-49554172D01*
X147655089Y-49590482D01*
X147708350Y-49619384D01*
X147731792Y-49634984D01*
X147727993Y-49642030D01*
X147696421Y-49672906D01*
X147638164Y-49723138D01*
X147559075Y-49787747D01*
X147465014Y-49861753D01*
X147410664Y-49904055D01*
X147322502Y-49973897D01*
X147251594Y-50031653D01*
X147204123Y-50072247D01*
X147186274Y-50090601D01*
X146981522Y-50090601D01*
X146980817Y-50080011D01*
X147016338Y-50018632D01*
X147091008Y-49945817D01*
X147204767Y-49856044D01*
X147284145Y-49795166D01*
X147352991Y-49739784D01*
X147399993Y-49698976D01*
X147417910Y-49678763D01*
X147408660Y-49663307D01*
X147371253Y-49627975D01*
X147314573Y-49584027D01*
X147289254Y-49565458D01*
X147239285Y-49522077D01*
X147217175Y-49484501D01*
X147214472Y-49440618D01*
X147214714Y-49437954D01*
X147222847Y-49405588D01*
X147244426Y-49371522D01*
X147285299Y-49329703D01*
X147351315Y-49274081D01*
X147448319Y-49198602D01*
X147676627Y-49024206D01*
X147617160Y-48958052D01*
X147607198Y-48946219D01*
X147574610Y-48892385D01*
X147565348Y-48848486D01*
X147565690Y-48847066D01*
X147588145Y-48815440D01*
X147639035Y-48764269D01*
X147711166Y-48700317D01*
X147797347Y-48630348D01*
X147869148Y-48574098D01*
X147937943Y-48518194D01*
X147979183Y-48480069D01*
X147997658Y-48454327D01*
X147998156Y-48435571D01*
X147985469Y-48418407D01*
X147962310Y-48391854D01*
X147942333Y-48350843D01*
X147947788Y-48308359D01*
X147981753Y-48258627D01*
X148047304Y-48195870D01*
X148147519Y-48114316D01*
X148188595Y-48082162D01*
X148302093Y-47993804D01*
X148387102Y-47928991D01*
X148448815Y-47884301D01*
X148492427Y-47856317D01*
X148523132Y-47841618D01*
X148546125Y-47836783D01*
X148566598Y-47838394D01*
X148580245Y-47843079D01*
X148625835Y-47877234D01*
X148670259Y-47930983D01*
X148747060Y-48049913D01*
X148833051Y-48187298D01*
X148903796Y-48305366D01*
X148956722Y-48399669D01*
X148989261Y-48465765D01*
X148998842Y-48499205D01*
X148976551Y-48535075D01*
X148931634Y-48572007D01*
X148870620Y-48609678D01*
X149020134Y-48848143D01*
X149023418Y-48853394D01*
X149079664Y-48947903D01*
X149124465Y-49031569D01*
X149153354Y-49095488D01*
X149161865Y-49130750D01*
X149161107Y-49134749D01*
X149146146Y-49169958D01*
X149110590Y-49199887D01*
X149043349Y-49234220D01*
X149028905Y-49242542D01*
X149020076Y-49258038D01*
X149025246Y-49284784D01*
X149047119Y-49329364D01*
X149088396Y-49398361D01*
X149151781Y-49498360D01*
X149158515Y-49508892D01*
X149221857Y-49610267D01*
X149263174Y-49683039D01*
X149285888Y-49734879D01*
X149293419Y-49773457D01*
X149289189Y-49806446D01*
X149284182Y-49822346D01*
X149262437Y-49857350D01*
X149220430Y-49882729D01*
X149146076Y-49906970D01*
X149091917Y-49923405D01*
X149039177Y-49942855D01*
X149017409Y-49955886D01*
X149027296Y-49979173D01*
X149056855Y-50032500D01*
X149101512Y-50107919D01*
X149156691Y-50197490D01*
X149222153Y-50306237D01*
X149270972Y-50404875D01*
X149287545Y-50475135D01*
X149288272Y-50478216D01*
X149272128Y-50531650D01*
X149220621Y-50570573D01*
X149131829Y-50600374D01*
X149003830Y-50626446D01*
X148959503Y-50632801D01*
X148853926Y-50642296D01*
X148731882Y-50648196D01*
X148611785Y-50649422D01*
X148368742Y-50646259D01*
X148338740Y-50816409D01*
X148311759Y-50969426D01*
X148182709Y-50955677D01*
G37*
%TO.C,C13*%
X121965000Y-109588748D02*
X121965000Y-110111252D01*
X123435000Y-109588748D02*
X123435000Y-110111252D01*
%TO.C,U6*%
X131500000Y-50800000D02*
X124200000Y-50800000D01*
X124200000Y-56300000D02*
X124200000Y-55150000D01*
X131500000Y-56300000D02*
X124200000Y-56300000D01*
%TO.C,G\u002A\u002A\u002A*%
G36*
X149453291Y-74214103D02*
G01*
X149400442Y-74207580D01*
X149319718Y-74194549D01*
X149261832Y-74181484D01*
X149249276Y-74177880D01*
X149179682Y-74160996D01*
X149102403Y-74145507D01*
X149005385Y-74128400D01*
X149027240Y-74004452D01*
X149210161Y-74004452D01*
X149431917Y-74043554D01*
X149463198Y-73866149D01*
X149241442Y-73827047D01*
X149210161Y-74004452D01*
X149027240Y-74004452D01*
X149062838Y-73802564D01*
X148842591Y-73724875D01*
X148793748Y-73707009D01*
X148677382Y-73660422D01*
X148566754Y-73611388D01*
X148480452Y-73567963D01*
X148380360Y-73509134D01*
X148298056Y-73448955D01*
X148255090Y-73393896D01*
X148252104Y-73349027D01*
X148456856Y-73349027D01*
X148468154Y-73366037D01*
X148513435Y-73398546D01*
X148585756Y-73439774D01*
X148677065Y-73485192D01*
X148779307Y-73530275D01*
X148783731Y-73532078D01*
X148872600Y-73562497D01*
X148995492Y-73596891D01*
X149142548Y-73632684D01*
X149303907Y-73667300D01*
X149321104Y-73670734D01*
X149540739Y-73710350D01*
X149729702Y-73734919D01*
X149898733Y-73745121D01*
X150058575Y-73741634D01*
X150219968Y-73725135D01*
X150383158Y-73702709D01*
X150340139Y-73628433D01*
X150315133Y-73586883D01*
X150269766Y-73513761D01*
X150212730Y-73423223D01*
X150150796Y-73326085D01*
X150150205Y-73325164D01*
X150093971Y-73235487D01*
X150048645Y-73159390D01*
X150018840Y-73104890D01*
X150009168Y-73080001D01*
X150010241Y-73078341D01*
X150039799Y-73067210D01*
X150100909Y-73055248D01*
X150182187Y-73044774D01*
X150195998Y-73043296D01*
X150276140Y-73031944D01*
X150335281Y-73018946D01*
X150361469Y-73006834D01*
X150359889Y-72996756D01*
X150340011Y-72953297D01*
X150301644Y-72883047D01*
X150248682Y-72792990D01*
X150185014Y-72690114D01*
X150147658Y-72630750D01*
X150088514Y-72535082D01*
X150041456Y-72456782D01*
X150010564Y-72402693D01*
X149999918Y-72379659D01*
X150009120Y-72373772D01*
X150052066Y-72364686D01*
X150117805Y-72358152D01*
X150160990Y-72354473D01*
X150213811Y-72346018D01*
X150235200Y-72336557D01*
X150231911Y-72327988D01*
X150209235Y-72286897D01*
X150168526Y-72218644D01*
X150113911Y-72130081D01*
X150049513Y-72028059D01*
X150013014Y-71970386D01*
X149953643Y-71874370D01*
X149906497Y-71795239D01*
X149875677Y-71739955D01*
X149865285Y-71715478D01*
X149884299Y-71705221D01*
X149929828Y-71706041D01*
X149978997Y-71712235D01*
X150024314Y-71710897D01*
X150042702Y-71693307D01*
X150034367Y-71654356D01*
X149999510Y-71588933D01*
X149938333Y-71491929D01*
X149804359Y-71285386D01*
X149608198Y-71433718D01*
X149540649Y-71485624D01*
X149475293Y-71540835D01*
X149444310Y-71578775D01*
X149446116Y-71604308D01*
X149479126Y-71622299D01*
X149541754Y-71637613D01*
X149582396Y-71651620D01*
X149598877Y-71670258D01*
X149593025Y-71678091D01*
X149557765Y-71710531D01*
X149496095Y-71761931D01*
X149414292Y-71827124D01*
X149318637Y-71900941D01*
X149264911Y-71942020D01*
X149176238Y-72010926D01*
X149104857Y-72067838D01*
X149057009Y-72107742D01*
X149038936Y-72125624D01*
X149045477Y-72134294D01*
X149082601Y-72157496D01*
X149142077Y-72186105D01*
X149181380Y-72204310D01*
X149228343Y-72230369D01*
X149245501Y-72246635D01*
X149239362Y-72253817D01*
X149203911Y-72285060D01*
X149142314Y-72335705D01*
X149060747Y-72400717D01*
X148965384Y-72475061D01*
X148910167Y-72518191D01*
X148822589Y-72588982D01*
X148752879Y-72648424D01*
X148707082Y-72691285D01*
X148691247Y-72712329D01*
X148691788Y-72714031D01*
X148716714Y-72736347D01*
X148770872Y-72769814D01*
X148843785Y-72807868D01*
X148853515Y-72812598D01*
X148925671Y-72848908D01*
X148978932Y-72877810D01*
X149002374Y-72893410D01*
X148998575Y-72900456D01*
X148967003Y-72931332D01*
X148908746Y-72981564D01*
X148829657Y-73046173D01*
X148735596Y-73120179D01*
X148681246Y-73162481D01*
X148593084Y-73232323D01*
X148522176Y-73290079D01*
X148474705Y-73330673D01*
X148456856Y-73349027D01*
X148252104Y-73349027D01*
X148251399Y-73338437D01*
X148286920Y-73277058D01*
X148361590Y-73204243D01*
X148475349Y-73114470D01*
X148554727Y-73053592D01*
X148623573Y-72998210D01*
X148670575Y-72957402D01*
X148688492Y-72937189D01*
X148679242Y-72921733D01*
X148641835Y-72886401D01*
X148585155Y-72842453D01*
X148559836Y-72823884D01*
X148509867Y-72780503D01*
X148487757Y-72742927D01*
X148485054Y-72699044D01*
X148485296Y-72696380D01*
X148493429Y-72664014D01*
X148515008Y-72629948D01*
X148555881Y-72588129D01*
X148621897Y-72532507D01*
X148718901Y-72457028D01*
X148947209Y-72282632D01*
X148887742Y-72216478D01*
X148877780Y-72204645D01*
X148845192Y-72150811D01*
X148835930Y-72106912D01*
X148836272Y-72105492D01*
X148858727Y-72073866D01*
X148909617Y-72022695D01*
X148981748Y-71958743D01*
X149067929Y-71888774D01*
X149139730Y-71832524D01*
X149208525Y-71776620D01*
X149249765Y-71738495D01*
X149268240Y-71712753D01*
X149268738Y-71693997D01*
X149256051Y-71676833D01*
X149232892Y-71650280D01*
X149212915Y-71609269D01*
X149218370Y-71566785D01*
X149252335Y-71517053D01*
X149317886Y-71454296D01*
X149418101Y-71372742D01*
X149459177Y-71340588D01*
X149572675Y-71252230D01*
X149657684Y-71187417D01*
X149719397Y-71142727D01*
X149763009Y-71114743D01*
X149793714Y-71100044D01*
X149816707Y-71095209D01*
X149837180Y-71096820D01*
X149850827Y-71101505D01*
X149896417Y-71135660D01*
X149940841Y-71189409D01*
X150017642Y-71308339D01*
X150103633Y-71445724D01*
X150174378Y-71563792D01*
X150227304Y-71658095D01*
X150259843Y-71724191D01*
X150269424Y-71757631D01*
X150247133Y-71793501D01*
X150202216Y-71830433D01*
X150141202Y-71868104D01*
X150290716Y-72106569D01*
X150294000Y-72111820D01*
X150350246Y-72206329D01*
X150395047Y-72289995D01*
X150423936Y-72353914D01*
X150432447Y-72389176D01*
X150431689Y-72393175D01*
X150416728Y-72428384D01*
X150381172Y-72458313D01*
X150313931Y-72492646D01*
X150299487Y-72500968D01*
X150290658Y-72516464D01*
X150295828Y-72543210D01*
X150317701Y-72587790D01*
X150358978Y-72656787D01*
X150422363Y-72756786D01*
X150429097Y-72767318D01*
X150492439Y-72868693D01*
X150533756Y-72941465D01*
X150556470Y-72993305D01*
X150564001Y-73031883D01*
X150559771Y-73064872D01*
X150554764Y-73080772D01*
X150533019Y-73115776D01*
X150491012Y-73141155D01*
X150416658Y-73165396D01*
X150362499Y-73181831D01*
X150309759Y-73201281D01*
X150287991Y-73214312D01*
X150297878Y-73237599D01*
X150327437Y-73290926D01*
X150372094Y-73366345D01*
X150427273Y-73455916D01*
X150492735Y-73564663D01*
X150541554Y-73663301D01*
X150558127Y-73733561D01*
X150558854Y-73736642D01*
X150542710Y-73790076D01*
X150491203Y-73828999D01*
X150402411Y-73858800D01*
X150274412Y-73884872D01*
X150230085Y-73891227D01*
X150124508Y-73900722D01*
X150002464Y-73906622D01*
X149882367Y-73907848D01*
X149639324Y-73904685D01*
X149609322Y-74074835D01*
X149582341Y-74227852D01*
X149453291Y-74214103D01*
G37*
G36*
X150923622Y-70914971D02*
G01*
X151048409Y-71018665D01*
X151266282Y-71240022D01*
X151447814Y-71481442D01*
X151593102Y-71739209D01*
X151702242Y-72009605D01*
X151775334Y-72288915D01*
X151812474Y-72573423D01*
X151813759Y-72859412D01*
X151793026Y-73030076D01*
X151779289Y-73143165D01*
X151709160Y-73420966D01*
X151603469Y-73689098D01*
X151462317Y-73943845D01*
X151285797Y-74181492D01*
X151074011Y-74398321D01*
X150827053Y-74590616D01*
X150735165Y-74650187D01*
X150460679Y-74797650D01*
X150179017Y-74902631D01*
X149884227Y-74967036D01*
X149570355Y-74992769D01*
X149432848Y-74989779D01*
X149184388Y-74959316D01*
X148929221Y-74899966D01*
X148681318Y-74815286D01*
X148454652Y-74708833D01*
X148385723Y-74669303D01*
X148131478Y-74491818D01*
X147905304Y-74281924D01*
X147709883Y-74043798D01*
X147547896Y-73781616D01*
X147422021Y-73499559D01*
X147334940Y-73201801D01*
X147289333Y-72892522D01*
X147287391Y-72707106D01*
X147465498Y-72707106D01*
X147483538Y-72987688D01*
X147538741Y-73262053D01*
X147629596Y-73526337D01*
X147754593Y-73776682D01*
X147912219Y-74009224D01*
X148100964Y-74220102D01*
X148319316Y-74405453D01*
X148565765Y-74561417D01*
X148838799Y-74684131D01*
X148978429Y-74729592D01*
X149266960Y-74789655D01*
X149558834Y-74807732D01*
X149849289Y-74785038D01*
X150133562Y-74722793D01*
X150406890Y-74622213D01*
X150664511Y-74484517D01*
X150901660Y-74310920D01*
X151113577Y-74102643D01*
X151214588Y-73978911D01*
X151346972Y-73780563D01*
X151465181Y-73553114D01*
X151521368Y-73409169D01*
X151576080Y-73211163D01*
X151615143Y-72998711D01*
X151635738Y-72787745D01*
X151635043Y-72594197D01*
X151633369Y-72572186D01*
X151609805Y-72393813D01*
X151570016Y-72205513D01*
X151518448Y-72025578D01*
X151459548Y-71872296D01*
X151360580Y-71687647D01*
X151222640Y-71486404D01*
X151062033Y-71294603D01*
X150888616Y-71123931D01*
X150712243Y-70986076D01*
X150679896Y-70964831D01*
X150437463Y-70834209D01*
X150172116Y-70735585D01*
X149892653Y-70670520D01*
X149607869Y-70640575D01*
X149326560Y-70647312D01*
X149057519Y-70692293D01*
X149032334Y-70698768D01*
X148784897Y-70783696D01*
X148538833Y-70904280D01*
X148306596Y-71053594D01*
X148100639Y-71224706D01*
X147965729Y-71365661D01*
X147824179Y-71551929D01*
X147697613Y-71767940D01*
X147649475Y-71866675D01*
X147546956Y-72142738D01*
X147486135Y-72424169D01*
X147465498Y-72707106D01*
X147287391Y-72707106D01*
X147286242Y-72597442D01*
X147324267Y-72292456D01*
X147402376Y-71998677D01*
X147518131Y-71719710D01*
X147669095Y-71459161D01*
X147852830Y-71220639D01*
X148066899Y-71007747D01*
X148308862Y-70824094D01*
X148576284Y-70673284D01*
X148866726Y-70558925D01*
X149074139Y-70493540D01*
X149084553Y-70434901D01*
X149272587Y-70434901D01*
X149277794Y-70463043D01*
X149295042Y-70467608D01*
X149303193Y-70466079D01*
X149445814Y-70451643D01*
X149616255Y-70452663D01*
X149801345Y-70468074D01*
X149987912Y-70496809D01*
X150162781Y-70537804D01*
X150213229Y-70552659D01*
X150318261Y-70586548D01*
X150410816Y-70620028D01*
X150475339Y-70647632D01*
X150570973Y-70695834D01*
X150598140Y-70541767D01*
X150609015Y-70473497D01*
X150613162Y-70410329D01*
X150604505Y-70365861D01*
X150581974Y-70325817D01*
X150557895Y-70296385D01*
X150500830Y-70250559D01*
X150419363Y-70209923D01*
X150306677Y-70171375D01*
X150155961Y-70131814D01*
X150030845Y-70105600D01*
X149867619Y-70082001D01*
X149714119Y-70071096D01*
X149577087Y-70072727D01*
X149463263Y-70086732D01*
X149379392Y-70112954D01*
X149332213Y-70151234D01*
X149319790Y-70183870D01*
X149302801Y-70249131D01*
X149286522Y-70329520D01*
X149278926Y-70375171D01*
X149272587Y-70434901D01*
X149084553Y-70434901D01*
X149111999Y-70280364D01*
X149122778Y-70221408D01*
X149140756Y-70137577D01*
X149158730Y-70081913D01*
X149180662Y-70043625D01*
X149210513Y-70011922D01*
X149239018Y-69986751D01*
X149301037Y-69942217D01*
X149366991Y-69915713D01*
X149457423Y-69897737D01*
X149522820Y-69884265D01*
X149556026Y-69865826D01*
X149556874Y-69862407D01*
X149754810Y-69862407D01*
X149756151Y-69863917D01*
X149787923Y-69875522D01*
X149854212Y-69890494D01*
X149946310Y-69907065D01*
X150055507Y-69923466D01*
X150345746Y-69963210D01*
X150350485Y-69895451D01*
X150350141Y-69851500D01*
X150318780Y-69749277D01*
X150243904Y-69658433D01*
X150219715Y-69639268D01*
X150122644Y-69594578D01*
X150019304Y-69587427D01*
X149920056Y-69615412D01*
X149835264Y-69676127D01*
X149775288Y-69767169D01*
X149771940Y-69775450D01*
X149755797Y-69829094D01*
X149754810Y-69862407D01*
X149556874Y-69862407D01*
X149563051Y-69837488D01*
X149566141Y-69798491D01*
X149594498Y-69718063D01*
X149644798Y-69630623D01*
X149708819Y-69549514D01*
X149778340Y-69488080D01*
X149833887Y-69455442D01*
X149961137Y-69412799D01*
X150089817Y-69407231D01*
X150213451Y-69434877D01*
X150325563Y-69491872D01*
X150419676Y-69574351D01*
X150489313Y-69678453D01*
X150527999Y-69800312D01*
X150529258Y-69936065D01*
X150525396Y-69965967D01*
X150524217Y-69994679D01*
X150523125Y-70021258D01*
X150535645Y-70051619D01*
X150566831Y-70070951D01*
X150591444Y-70083364D01*
X150674041Y-70145839D01*
X150743105Y-70226970D01*
X150783957Y-70310559D01*
X150791615Y-70352406D01*
X150791585Y-70450524D01*
X150773681Y-70583612D01*
X150748378Y-70727115D01*
X150740325Y-70772786D01*
X150923622Y-70914971D01*
G37*
%TO.C,U2*%
X113450000Y-112750000D02*
X113450000Y-111600000D01*
X120750000Y-107250000D02*
X113450000Y-107250000D01*
X120750000Y-112750000D02*
X113450000Y-112750000D01*
%TO.C,G\u002A\u002A\u002A*%
G36*
X131153043Y-67579631D02*
G01*
X131213171Y-67614945D01*
X131326016Y-67700435D01*
X131453811Y-67800124D01*
X131560670Y-67886875D01*
X131642659Y-67957390D01*
X131695841Y-68008370D01*
X131716281Y-68036517D01*
X131707603Y-68077848D01*
X131678026Y-68127915D01*
X131633576Y-68184182D01*
X131855633Y-68357129D01*
X131860515Y-68360940D01*
X131945693Y-68430512D01*
X132016408Y-68493810D01*
X132065416Y-68543993D01*
X132085474Y-68574219D01*
X132086129Y-68578235D01*
X132084113Y-68616437D01*
X132060937Y-68656723D01*
X132009494Y-68711983D01*
X131998767Y-68724743D01*
X131995771Y-68742324D01*
X132009777Y-68765689D01*
X132045578Y-68800100D01*
X132107964Y-68850818D01*
X132201728Y-68923108D01*
X132211658Y-68930701D01*
X132305853Y-69004298D01*
X132369567Y-69058550D01*
X132408642Y-69099495D01*
X132428913Y-69133171D01*
X132436221Y-69165618D01*
X132436954Y-69182271D01*
X132428493Y-69222601D01*
X132397699Y-69260817D01*
X132336120Y-69309027D01*
X132290849Y-69342994D01*
X132247941Y-69379309D01*
X132231943Y-69398999D01*
X132249198Y-69417501D01*
X132295213Y-69457502D01*
X132362972Y-69513098D01*
X132445459Y-69578396D01*
X132544166Y-69658195D01*
X132623777Y-69734187D01*
X132663381Y-69794542D01*
X132665118Y-69797188D01*
X132668224Y-69852921D01*
X132633135Y-69907113D01*
X132559891Y-69965485D01*
X132448528Y-70033764D01*
X132409048Y-70054896D01*
X132313085Y-70099928D01*
X132200419Y-70147214D01*
X132087984Y-70189442D01*
X131858517Y-70269595D01*
X131888519Y-70439745D01*
X131915500Y-70592761D01*
X131789530Y-70623979D01*
X131737637Y-70635926D01*
X131657324Y-70651289D01*
X131598461Y-70658811D01*
X131585430Y-70659719D01*
X131514258Y-70667655D01*
X131436342Y-70679532D01*
X131339324Y-70696638D01*
X131281870Y-70370802D01*
X131048334Y-70373128D01*
X130996326Y-70373044D01*
X130871044Y-70369066D01*
X130750317Y-70360827D01*
X130654367Y-70349538D01*
X130563157Y-70332723D01*
X131458077Y-70332723D01*
X131489358Y-70510128D01*
X131711114Y-70471026D01*
X131679833Y-70293621D01*
X131458077Y-70332723D01*
X130563157Y-70332723D01*
X130540191Y-70328489D01*
X130442268Y-70300089D01*
X130383062Y-70263046D01*
X130360625Y-70212194D01*
X130371325Y-70151875D01*
X130557314Y-70151875D01*
X130573748Y-70163995D01*
X130627417Y-70179057D01*
X130709478Y-70193063D01*
X130810814Y-70204513D01*
X130922309Y-70211907D01*
X130927083Y-70212089D01*
X131020997Y-70210278D01*
X131148241Y-70200566D01*
X131298670Y-70183904D01*
X131462138Y-70161245D01*
X131479472Y-70158590D01*
X131699410Y-70120697D01*
X131885381Y-70079156D01*
X132047708Y-70030930D01*
X132196717Y-69972985D01*
X132342734Y-69902281D01*
X132488412Y-69825393D01*
X132422584Y-69770310D01*
X132384875Y-69739818D01*
X132317235Y-69686623D01*
X132232672Y-69621053D01*
X132141250Y-69550955D01*
X132140380Y-69550292D01*
X132056865Y-69485256D01*
X131988247Y-69429251D01*
X131941599Y-69388231D01*
X131923998Y-69368151D01*
X131924438Y-69366225D01*
X131948406Y-69345655D01*
X132001740Y-69313513D01*
X132074534Y-69275873D01*
X132087007Y-69269760D01*
X132158433Y-69231683D01*
X132209562Y-69199241D01*
X132230027Y-69178903D01*
X132225096Y-69169973D01*
X132191554Y-69135934D01*
X132131473Y-69083042D01*
X132050904Y-69016530D01*
X131955890Y-68941635D01*
X131900483Y-68898627D01*
X131812185Y-68828957D01*
X131741185Y-68771474D01*
X131693656Y-68731212D01*
X131675774Y-68713209D01*
X131682408Y-68704530D01*
X131719657Y-68681303D01*
X131779197Y-68652679D01*
X131818519Y-68634452D01*
X131865262Y-68608441D01*
X131882125Y-68592235D01*
X131876104Y-68585308D01*
X131840741Y-68554451D01*
X131779144Y-68504237D01*
X131697532Y-68439694D01*
X131602124Y-68365851D01*
X131548101Y-68324139D01*
X131459471Y-68254219D01*
X131388104Y-68195985D01*
X131340234Y-68154577D01*
X131322098Y-68135130D01*
X131336457Y-68118988D01*
X131379521Y-68104187D01*
X131427843Y-68093191D01*
X131469969Y-68076434D01*
X131481233Y-68053616D01*
X131460077Y-68019865D01*
X131404947Y-67970309D01*
X131314282Y-67900079D01*
X131117746Y-67751814D01*
X130984147Y-67958291D01*
X130938425Y-68030170D01*
X130895893Y-68104405D01*
X130879755Y-68150654D01*
X130890186Y-68174028D01*
X130927358Y-68179645D01*
X130991447Y-68172615D01*
X131034428Y-68171876D01*
X131056290Y-68183753D01*
X131053470Y-68193116D01*
X131031432Y-68235660D01*
X130991060Y-68305052D01*
X130936488Y-68394291D01*
X130871849Y-68496373D01*
X130835412Y-68553349D01*
X130775654Y-68648428D01*
X130728043Y-68726322D01*
X130696729Y-68780185D01*
X130685862Y-68803169D01*
X130694973Y-68809079D01*
X130737794Y-68818185D01*
X130803469Y-68824726D01*
X130846628Y-68828391D01*
X130899671Y-68836817D01*
X130921357Y-68846233D01*
X130918046Y-68855081D01*
X130895417Y-68896565D01*
X130854857Y-68965223D01*
X130800445Y-69054212D01*
X130736260Y-69156688D01*
X130699124Y-69216103D01*
X130641040Y-69312578D01*
X130595864Y-69392278D01*
X130567489Y-69448217D01*
X130559805Y-69473408D01*
X130560896Y-69474822D01*
X130591951Y-69487267D01*
X130654290Y-69500193D01*
X130735821Y-69511014D01*
X130746582Y-69512131D01*
X130826805Y-69521572D01*
X130886739Y-69530515D01*
X130914103Y-69537157D01*
X130912943Y-69545077D01*
X130893836Y-69584890D01*
X130856272Y-69652017D01*
X130804050Y-69739780D01*
X130740973Y-69841493D01*
X130704370Y-69899833D01*
X130645411Y-69995616D01*
X130598533Y-70074141D01*
X130567809Y-70128523D01*
X130557314Y-70151875D01*
X130371325Y-70151875D01*
X130373011Y-70142368D01*
X130418274Y-70048405D01*
X130494469Y-69925138D01*
X130548238Y-69840783D01*
X130593990Y-69765195D01*
X130624200Y-69710772D01*
X130634124Y-69685650D01*
X130620146Y-69674290D01*
X130572909Y-69653882D01*
X130504617Y-69631970D01*
X130474474Y-69623181D01*
X130412681Y-69599506D01*
X130379053Y-69571758D01*
X130361504Y-69531446D01*
X130360821Y-69528861D01*
X130357393Y-69495664D01*
X130366020Y-69456272D01*
X130390125Y-69402996D01*
X130433135Y-69328150D01*
X130498474Y-69224045D01*
X130653367Y-68982081D01*
X130574860Y-68940255D01*
X130561451Y-68932543D01*
X130512416Y-68893102D01*
X130488699Y-68855018D01*
X130488534Y-68853566D01*
X130498818Y-68816167D01*
X130529138Y-68750677D01*
X130575046Y-68665912D01*
X130632099Y-68570687D01*
X130680330Y-68493271D01*
X130725857Y-68417209D01*
X130751570Y-68367279D01*
X130760127Y-68336770D01*
X130754180Y-68318976D01*
X130736388Y-68307186D01*
X130705544Y-68290155D01*
X130672745Y-68258450D01*
X130663341Y-68216662D01*
X130678248Y-68158312D01*
X130718381Y-68076921D01*
X130784659Y-67966010D01*
X130812261Y-67921745D01*
X130888694Y-67799898D01*
X130946409Y-67709918D01*
X130989115Y-67646817D01*
X131020526Y-67605604D01*
X131044352Y-67581290D01*
X131064304Y-67568882D01*
X131084094Y-67563394D01*
X131098520Y-67563129D01*
X131153043Y-67579631D01*
G37*
G36*
X132042820Y-67020926D02*
G01*
X132195546Y-67075688D01*
X132475989Y-67209178D01*
X132729144Y-67373951D01*
X132953831Y-67566481D01*
X133148870Y-67783242D01*
X133313083Y-68020709D01*
X133445291Y-68275356D01*
X133544312Y-68543659D01*
X133583201Y-68711122D01*
X133608971Y-68822089D01*
X133638084Y-69107122D01*
X133630475Y-69395232D01*
X133584963Y-69682893D01*
X133500369Y-69966582D01*
X133375515Y-70242769D01*
X133209219Y-70507932D01*
X133143247Y-70595338D01*
X132935750Y-70827787D01*
X132706980Y-71022771D01*
X132451995Y-71184116D01*
X132165854Y-71315648D01*
X132035617Y-71359868D01*
X131791722Y-71416220D01*
X131531644Y-71447722D01*
X131269729Y-71452937D01*
X131020324Y-71430428D01*
X130942032Y-71416857D01*
X130642417Y-71337033D01*
X130358094Y-71217153D01*
X130093015Y-71060225D01*
X129851125Y-70869258D01*
X129636372Y-70647263D01*
X129452704Y-70397245D01*
X129304067Y-70122217D01*
X129200240Y-69845989D01*
X129131660Y-69546391D01*
X129112265Y-69329539D01*
X129289712Y-69329539D01*
X129328814Y-69614799D01*
X129406193Y-69887731D01*
X129519109Y-70145221D01*
X129664821Y-70384160D01*
X129840587Y-70601432D01*
X130043669Y-70793928D01*
X130271323Y-70958534D01*
X130520810Y-71092140D01*
X130789388Y-71191632D01*
X131074317Y-71253899D01*
X131372856Y-71275830D01*
X131519614Y-71270793D01*
X131811287Y-71228551D01*
X132091741Y-71145710D01*
X132356917Y-71025043D01*
X132602758Y-70869325D01*
X132825202Y-70681328D01*
X133020191Y-70463824D01*
X133183665Y-70219586D01*
X133311567Y-69951390D01*
X133364168Y-69800573D01*
X133420729Y-69568909D01*
X133454017Y-69314746D01*
X133457583Y-69160265D01*
X133441273Y-68955488D01*
X133405318Y-68742487D01*
X133352516Y-68537201D01*
X133285665Y-68355563D01*
X133276564Y-68335452D01*
X133193414Y-68175895D01*
X133091623Y-68012560D01*
X132981623Y-67861113D01*
X132873850Y-67737221D01*
X132717696Y-67597557D01*
X132519246Y-67455628D01*
X132302725Y-67330325D01*
X132081393Y-67229258D01*
X131868507Y-67160040D01*
X131830845Y-67151139D01*
X131558357Y-67111312D01*
X131275281Y-67109389D01*
X130990418Y-67143830D01*
X130712568Y-67213093D01*
X130450527Y-67315637D01*
X130213097Y-67449923D01*
X130191645Y-67464621D01*
X129988177Y-67629055D01*
X129798195Y-67826526D01*
X129631031Y-68046265D01*
X129496019Y-68277500D01*
X129417454Y-68456096D01*
X129348148Y-68679543D01*
X129303096Y-68925815D01*
X129291630Y-69035061D01*
X129289712Y-69329539D01*
X129112265Y-69329539D01*
X129104580Y-69243614D01*
X129117941Y-68941881D01*
X129170689Y-68645412D01*
X129261764Y-68358433D01*
X129390109Y-68085165D01*
X129554667Y-67829831D01*
X129754382Y-67596652D01*
X129988195Y-67389853D01*
X130160736Y-67257471D01*
X130123402Y-67044203D01*
X130113367Y-66985115D01*
X130101589Y-66900191D01*
X130100938Y-66882460D01*
X130285659Y-66882460D01*
X130292016Y-66949596D01*
X130304213Y-67030704D01*
X130312688Y-67076200D01*
X130327160Y-67134496D01*
X130341679Y-67159160D01*
X130359448Y-67157550D01*
X130366585Y-67153326D01*
X130495667Y-67090981D01*
X130656178Y-67033645D01*
X130835377Y-66984822D01*
X131020520Y-66948015D01*
X131198864Y-66926729D01*
X131251350Y-66923434D01*
X131361640Y-66919356D01*
X131460063Y-66919161D01*
X131530136Y-66923032D01*
X131636489Y-66935618D01*
X131609323Y-66781552D01*
X131596192Y-66713679D01*
X131578485Y-66652902D01*
X131555141Y-66614077D01*
X131520273Y-66584153D01*
X131487580Y-66564732D01*
X131418283Y-66541187D01*
X131327830Y-66530865D01*
X131208757Y-66533183D01*
X131053598Y-66547555D01*
X130927062Y-66565715D01*
X130765609Y-66599365D01*
X130617637Y-66641618D01*
X130489426Y-66690018D01*
X130387257Y-66742109D01*
X130317412Y-66795436D01*
X130286171Y-66847543D01*
X130285659Y-66882460D01*
X130100938Y-66882460D01*
X130099442Y-66841737D01*
X130106955Y-66798257D01*
X130124163Y-66758256D01*
X130142340Y-66724854D01*
X130185387Y-66661794D01*
X130238298Y-66614331D01*
X130317129Y-66566509D01*
X130373974Y-66531483D01*
X130398871Y-66502798D01*
X130395780Y-66473766D01*
X130385346Y-66436064D01*
X130384485Y-66350788D01*
X130385666Y-66344026D01*
X130570854Y-66344026D01*
X130574031Y-66399956D01*
X130584498Y-66431597D01*
X130586274Y-66432557D01*
X130620099Y-66432596D01*
X130687511Y-66423993D01*
X130779722Y-66408065D01*
X130887943Y-66386130D01*
X131174272Y-66324209D01*
X131155550Y-66258915D01*
X131140196Y-66217733D01*
X131075763Y-66132401D01*
X130974333Y-66072645D01*
X130945047Y-66062908D01*
X130838546Y-66054113D01*
X130738992Y-66082738D01*
X130655301Y-66142981D01*
X130596388Y-66229035D01*
X130571167Y-66335099D01*
X130570854Y-66344026D01*
X130385666Y-66344026D01*
X130401845Y-66251418D01*
X130434264Y-66153304D01*
X130478581Y-66071797D01*
X130519615Y-66022129D01*
X130624607Y-65938536D01*
X130743622Y-65889293D01*
X130869255Y-65872986D01*
X130994099Y-65888199D01*
X131110747Y-65933516D01*
X131211789Y-66007523D01*
X131289820Y-66108801D01*
X131337433Y-66235937D01*
X131344031Y-66265356D01*
X131352744Y-66292740D01*
X131360808Y-66318089D01*
X131382957Y-66342337D01*
X131418874Y-66349837D01*
X131446248Y-66353084D01*
X131545231Y-66383541D01*
X131637879Y-66436158D01*
X131704857Y-66500733D01*
X131726365Y-66537438D01*
X131759895Y-66629648D01*
X131788590Y-66760834D01*
X131813893Y-66904337D01*
X131821946Y-66950008D01*
X132042820Y-67020926D01*
G37*
%TO.C,C15*%
X132865000Y-53138748D02*
X132865000Y-53661252D01*
X134335000Y-53138748D02*
X134335000Y-53661252D01*
%TO.C,G\u002A\u002A\u002A*%
G36*
X127503043Y-94429631D02*
G01*
X127563171Y-94464945D01*
X127676016Y-94550435D01*
X127803811Y-94650124D01*
X127910670Y-94736875D01*
X127992659Y-94807390D01*
X128045841Y-94858370D01*
X128066281Y-94886517D01*
X128057603Y-94927848D01*
X128028026Y-94977915D01*
X127983576Y-95034182D01*
X128205633Y-95207129D01*
X128210515Y-95210940D01*
X128295693Y-95280512D01*
X128366408Y-95343810D01*
X128415416Y-95393993D01*
X128435474Y-95424219D01*
X128436129Y-95428235D01*
X128434113Y-95466437D01*
X128410937Y-95506723D01*
X128359494Y-95561983D01*
X128348767Y-95574743D01*
X128345771Y-95592324D01*
X128359777Y-95615689D01*
X128395578Y-95650100D01*
X128457964Y-95700818D01*
X128551728Y-95773108D01*
X128561658Y-95780701D01*
X128655853Y-95854298D01*
X128719567Y-95908550D01*
X128758642Y-95949495D01*
X128778913Y-95983171D01*
X128786221Y-96015618D01*
X128786954Y-96032271D01*
X128778493Y-96072601D01*
X128747699Y-96110817D01*
X128686120Y-96159027D01*
X128640849Y-96192994D01*
X128597941Y-96229309D01*
X128581943Y-96248999D01*
X128599198Y-96267501D01*
X128645213Y-96307502D01*
X128712972Y-96363098D01*
X128795459Y-96428396D01*
X128894166Y-96508195D01*
X128973777Y-96584187D01*
X129013381Y-96644542D01*
X129015118Y-96647188D01*
X129018224Y-96702921D01*
X128983135Y-96757113D01*
X128909891Y-96815485D01*
X128798528Y-96883764D01*
X128759048Y-96904896D01*
X128663085Y-96949928D01*
X128550419Y-96997214D01*
X128437984Y-97039442D01*
X128208517Y-97119595D01*
X128238519Y-97289745D01*
X128265500Y-97442761D01*
X128139530Y-97473979D01*
X128087637Y-97485926D01*
X128007324Y-97501289D01*
X127948461Y-97508811D01*
X127935430Y-97509719D01*
X127864258Y-97517655D01*
X127786342Y-97529532D01*
X127689324Y-97546638D01*
X127631870Y-97220802D01*
X127398334Y-97223128D01*
X127346326Y-97223044D01*
X127221044Y-97219066D01*
X127100317Y-97210827D01*
X127004367Y-97199538D01*
X126913157Y-97182723D01*
X127808077Y-97182723D01*
X127839358Y-97360128D01*
X128061114Y-97321026D01*
X128029833Y-97143621D01*
X127808077Y-97182723D01*
X126913157Y-97182723D01*
X126890191Y-97178489D01*
X126792268Y-97150089D01*
X126733062Y-97113046D01*
X126710625Y-97062194D01*
X126721325Y-97001875D01*
X126907314Y-97001875D01*
X126923748Y-97013995D01*
X126977417Y-97029057D01*
X127059478Y-97043063D01*
X127160814Y-97054513D01*
X127272309Y-97061907D01*
X127277083Y-97062089D01*
X127370997Y-97060278D01*
X127498241Y-97050566D01*
X127648670Y-97033904D01*
X127812138Y-97011245D01*
X127829472Y-97008590D01*
X128049410Y-96970697D01*
X128235381Y-96929156D01*
X128397708Y-96880930D01*
X128546717Y-96822985D01*
X128692734Y-96752281D01*
X128838412Y-96675393D01*
X128772584Y-96620310D01*
X128734875Y-96589818D01*
X128667235Y-96536623D01*
X128582672Y-96471053D01*
X128491250Y-96400955D01*
X128490380Y-96400292D01*
X128406865Y-96335256D01*
X128338247Y-96279251D01*
X128291599Y-96238231D01*
X128273998Y-96218151D01*
X128274438Y-96216225D01*
X128298406Y-96195655D01*
X128351740Y-96163513D01*
X128424534Y-96125873D01*
X128437007Y-96119760D01*
X128508433Y-96081683D01*
X128559562Y-96049241D01*
X128580027Y-96028903D01*
X128575096Y-96019973D01*
X128541554Y-95985934D01*
X128481473Y-95933042D01*
X128400904Y-95866530D01*
X128305890Y-95791635D01*
X128250483Y-95748627D01*
X128162185Y-95678957D01*
X128091185Y-95621474D01*
X128043656Y-95581212D01*
X128025774Y-95563209D01*
X128032408Y-95554530D01*
X128069657Y-95531303D01*
X128129197Y-95502679D01*
X128168519Y-95484452D01*
X128215262Y-95458441D01*
X128232125Y-95442235D01*
X128226104Y-95435308D01*
X128190741Y-95404451D01*
X128129144Y-95354237D01*
X128047532Y-95289694D01*
X127952124Y-95215851D01*
X127898101Y-95174139D01*
X127809471Y-95104219D01*
X127738104Y-95045985D01*
X127690234Y-95004577D01*
X127672098Y-94985130D01*
X127686457Y-94968988D01*
X127729521Y-94954187D01*
X127777843Y-94943191D01*
X127819969Y-94926434D01*
X127831233Y-94903616D01*
X127810077Y-94869865D01*
X127754947Y-94820309D01*
X127664282Y-94750079D01*
X127467746Y-94601814D01*
X127334147Y-94808291D01*
X127288425Y-94880170D01*
X127245893Y-94954405D01*
X127229755Y-95000654D01*
X127240186Y-95024028D01*
X127277358Y-95029645D01*
X127341447Y-95022615D01*
X127384428Y-95021876D01*
X127406290Y-95033753D01*
X127403470Y-95043116D01*
X127381432Y-95085660D01*
X127341060Y-95155052D01*
X127286488Y-95244291D01*
X127221849Y-95346373D01*
X127185412Y-95403349D01*
X127125654Y-95498428D01*
X127078043Y-95576322D01*
X127046729Y-95630185D01*
X127035862Y-95653169D01*
X127044973Y-95659079D01*
X127087794Y-95668185D01*
X127153469Y-95674726D01*
X127196628Y-95678391D01*
X127249671Y-95686817D01*
X127271357Y-95696233D01*
X127268046Y-95705081D01*
X127245417Y-95746565D01*
X127204857Y-95815223D01*
X127150445Y-95904212D01*
X127086260Y-96006688D01*
X127049124Y-96066103D01*
X126991040Y-96162578D01*
X126945864Y-96242278D01*
X126917489Y-96298217D01*
X126909805Y-96323408D01*
X126910896Y-96324822D01*
X126941951Y-96337267D01*
X127004290Y-96350193D01*
X127085821Y-96361014D01*
X127096582Y-96362131D01*
X127176805Y-96371572D01*
X127236739Y-96380515D01*
X127264103Y-96387157D01*
X127262943Y-96395077D01*
X127243836Y-96434890D01*
X127206272Y-96502017D01*
X127154050Y-96589780D01*
X127090973Y-96691493D01*
X127054370Y-96749833D01*
X126995411Y-96845616D01*
X126948533Y-96924141D01*
X126917809Y-96978523D01*
X126907314Y-97001875D01*
X126721325Y-97001875D01*
X126723011Y-96992368D01*
X126768274Y-96898405D01*
X126844469Y-96775138D01*
X126898238Y-96690783D01*
X126943990Y-96615195D01*
X126974200Y-96560772D01*
X126984124Y-96535650D01*
X126970146Y-96524290D01*
X126922909Y-96503882D01*
X126854617Y-96481970D01*
X126824474Y-96473181D01*
X126762681Y-96449506D01*
X126729053Y-96421758D01*
X126711504Y-96381446D01*
X126710821Y-96378861D01*
X126707393Y-96345664D01*
X126716020Y-96306272D01*
X126740125Y-96252996D01*
X126783135Y-96178150D01*
X126848474Y-96074045D01*
X127003367Y-95832081D01*
X126924860Y-95790255D01*
X126911451Y-95782543D01*
X126862416Y-95743102D01*
X126838699Y-95705018D01*
X126838534Y-95703566D01*
X126848818Y-95666167D01*
X126879138Y-95600677D01*
X126925046Y-95515912D01*
X126982099Y-95420687D01*
X127030330Y-95343271D01*
X127075857Y-95267209D01*
X127101570Y-95217279D01*
X127110127Y-95186770D01*
X127104180Y-95168976D01*
X127086388Y-95157186D01*
X127055544Y-95140155D01*
X127022745Y-95108450D01*
X127013341Y-95066662D01*
X127028248Y-95008312D01*
X127068381Y-94926921D01*
X127134659Y-94816010D01*
X127162261Y-94771745D01*
X127238694Y-94649898D01*
X127296409Y-94559918D01*
X127339115Y-94496817D01*
X127370526Y-94455604D01*
X127394352Y-94431290D01*
X127414304Y-94418882D01*
X127434094Y-94413394D01*
X127448520Y-94413129D01*
X127503043Y-94429631D01*
G37*
G36*
X128392820Y-93870926D02*
G01*
X128545546Y-93925688D01*
X128825989Y-94059178D01*
X129079144Y-94223951D01*
X129303831Y-94416481D01*
X129498870Y-94633242D01*
X129663083Y-94870709D01*
X129795291Y-95125356D01*
X129894312Y-95393659D01*
X129933201Y-95561122D01*
X129958971Y-95672089D01*
X129988084Y-95957122D01*
X129980475Y-96245232D01*
X129934963Y-96532893D01*
X129850369Y-96816582D01*
X129725515Y-97092769D01*
X129559219Y-97357932D01*
X129493247Y-97445338D01*
X129285750Y-97677787D01*
X129056980Y-97872771D01*
X128801995Y-98034116D01*
X128515854Y-98165648D01*
X128385617Y-98209868D01*
X128141722Y-98266220D01*
X127881644Y-98297722D01*
X127619729Y-98302937D01*
X127370324Y-98280428D01*
X127292032Y-98266857D01*
X126992417Y-98187033D01*
X126708094Y-98067153D01*
X126443015Y-97910225D01*
X126201125Y-97719258D01*
X125986372Y-97497263D01*
X125802704Y-97247245D01*
X125654067Y-96972217D01*
X125550240Y-96695989D01*
X125481660Y-96396391D01*
X125462265Y-96179539D01*
X125639712Y-96179539D01*
X125678814Y-96464799D01*
X125756193Y-96737731D01*
X125869109Y-96995221D01*
X126014821Y-97234160D01*
X126190587Y-97451432D01*
X126393669Y-97643928D01*
X126621323Y-97808534D01*
X126870810Y-97942140D01*
X127139388Y-98041632D01*
X127424317Y-98103899D01*
X127722856Y-98125830D01*
X127869614Y-98120793D01*
X128161287Y-98078551D01*
X128441741Y-97995710D01*
X128706917Y-97875043D01*
X128952758Y-97719325D01*
X129175202Y-97531328D01*
X129370191Y-97313824D01*
X129533665Y-97069586D01*
X129661567Y-96801390D01*
X129714168Y-96650573D01*
X129770729Y-96418909D01*
X129804017Y-96164746D01*
X129807583Y-96010265D01*
X129791273Y-95805488D01*
X129755318Y-95592487D01*
X129702516Y-95387201D01*
X129635665Y-95205563D01*
X129626564Y-95185452D01*
X129543414Y-95025895D01*
X129441623Y-94862560D01*
X129331623Y-94711113D01*
X129223850Y-94587221D01*
X129067696Y-94447557D01*
X128869246Y-94305628D01*
X128652725Y-94180325D01*
X128431393Y-94079258D01*
X128218507Y-94010040D01*
X128180845Y-94001139D01*
X127908357Y-93961312D01*
X127625281Y-93959389D01*
X127340418Y-93993830D01*
X127062568Y-94063093D01*
X126800527Y-94165637D01*
X126563097Y-94299923D01*
X126541645Y-94314621D01*
X126338177Y-94479055D01*
X126148195Y-94676526D01*
X125981031Y-94896265D01*
X125846019Y-95127500D01*
X125767454Y-95306096D01*
X125698148Y-95529543D01*
X125653096Y-95775815D01*
X125641630Y-95885061D01*
X125639712Y-96179539D01*
X125462265Y-96179539D01*
X125454580Y-96093614D01*
X125467941Y-95791881D01*
X125520689Y-95495412D01*
X125611764Y-95208433D01*
X125740109Y-94935165D01*
X125904667Y-94679831D01*
X126104382Y-94446652D01*
X126338195Y-94239853D01*
X126510736Y-94107471D01*
X126473402Y-93894203D01*
X126463367Y-93835115D01*
X126451589Y-93750191D01*
X126450938Y-93732460D01*
X126635659Y-93732460D01*
X126642016Y-93799596D01*
X126654213Y-93880704D01*
X126662688Y-93926200D01*
X126677160Y-93984496D01*
X126691679Y-94009160D01*
X126709448Y-94007550D01*
X126716585Y-94003326D01*
X126845667Y-93940981D01*
X127006178Y-93883645D01*
X127185377Y-93834822D01*
X127370520Y-93798015D01*
X127548864Y-93776729D01*
X127601350Y-93773434D01*
X127711640Y-93769356D01*
X127810063Y-93769161D01*
X127880136Y-93773032D01*
X127986489Y-93785618D01*
X127959323Y-93631552D01*
X127946192Y-93563679D01*
X127928485Y-93502902D01*
X127905141Y-93464077D01*
X127870273Y-93434153D01*
X127837580Y-93414732D01*
X127768283Y-93391187D01*
X127677830Y-93380865D01*
X127558757Y-93383183D01*
X127403598Y-93397555D01*
X127277062Y-93415715D01*
X127115609Y-93449365D01*
X126967637Y-93491618D01*
X126839426Y-93540018D01*
X126737257Y-93592109D01*
X126667412Y-93645436D01*
X126636171Y-93697543D01*
X126635659Y-93732460D01*
X126450938Y-93732460D01*
X126449442Y-93691737D01*
X126456955Y-93648257D01*
X126474163Y-93608256D01*
X126492340Y-93574854D01*
X126535387Y-93511794D01*
X126588298Y-93464331D01*
X126667129Y-93416509D01*
X126723974Y-93381483D01*
X126748871Y-93352798D01*
X126745780Y-93323766D01*
X126735346Y-93286064D01*
X126734485Y-93200788D01*
X126735666Y-93194026D01*
X126920854Y-93194026D01*
X126924031Y-93249956D01*
X126934498Y-93281597D01*
X126936274Y-93282557D01*
X126970099Y-93282596D01*
X127037511Y-93273993D01*
X127129722Y-93258065D01*
X127237943Y-93236130D01*
X127524272Y-93174209D01*
X127505550Y-93108915D01*
X127490196Y-93067733D01*
X127425763Y-92982401D01*
X127324333Y-92922645D01*
X127295047Y-92912908D01*
X127188546Y-92904113D01*
X127088992Y-92932738D01*
X127005301Y-92992981D01*
X126946388Y-93079035D01*
X126921167Y-93185099D01*
X126920854Y-93194026D01*
X126735666Y-93194026D01*
X126751845Y-93101418D01*
X126784264Y-93003304D01*
X126828581Y-92921797D01*
X126869615Y-92872129D01*
X126974607Y-92788536D01*
X127093622Y-92739293D01*
X127219255Y-92722986D01*
X127344099Y-92738199D01*
X127460747Y-92783516D01*
X127561789Y-92857523D01*
X127639820Y-92958801D01*
X127687433Y-93085937D01*
X127694031Y-93115356D01*
X127702744Y-93142740D01*
X127710808Y-93168089D01*
X127732957Y-93192337D01*
X127768874Y-93199837D01*
X127796248Y-93203084D01*
X127895231Y-93233541D01*
X127987879Y-93286158D01*
X128054857Y-93350733D01*
X128076365Y-93387438D01*
X128109895Y-93479648D01*
X128138590Y-93610834D01*
X128163893Y-93754337D01*
X128171946Y-93800008D01*
X128392820Y-93870926D01*
G37*
%TO.C,C11*%
X149785000Y-80088748D02*
X149785000Y-80611252D01*
X148315000Y-80088748D02*
X148315000Y-80611252D01*
%TO.C,G\u002A\u002A\u002A*%
G36*
X155728040Y-98031545D02*
G01*
X155852827Y-98135239D01*
X156070700Y-98356596D01*
X156252232Y-98598016D01*
X156397520Y-98855783D01*
X156506660Y-99126179D01*
X156579752Y-99405489D01*
X156616892Y-99689997D01*
X156618177Y-99975986D01*
X156597444Y-100146650D01*
X156583707Y-100259739D01*
X156513578Y-100537540D01*
X156407887Y-100805672D01*
X156266735Y-101060419D01*
X156090215Y-101298066D01*
X155878429Y-101514895D01*
X155631471Y-101707190D01*
X155539583Y-101766761D01*
X155265097Y-101914224D01*
X154983435Y-102019205D01*
X154688645Y-102083610D01*
X154374773Y-102109343D01*
X154237266Y-102106353D01*
X153988806Y-102075890D01*
X153733639Y-102016540D01*
X153485736Y-101931860D01*
X153259070Y-101825407D01*
X153190141Y-101785877D01*
X152935896Y-101608392D01*
X152709722Y-101398498D01*
X152514301Y-101160372D01*
X152352314Y-100898190D01*
X152226439Y-100616133D01*
X152139358Y-100318375D01*
X152093751Y-100009096D01*
X152091809Y-99823680D01*
X152269916Y-99823680D01*
X152287956Y-100104262D01*
X152343159Y-100378627D01*
X152434014Y-100642911D01*
X152559011Y-100893256D01*
X152716637Y-101125798D01*
X152905382Y-101336676D01*
X153123734Y-101522027D01*
X153370183Y-101677991D01*
X153643217Y-101800705D01*
X153782847Y-101846166D01*
X154071378Y-101906229D01*
X154363252Y-101924306D01*
X154653707Y-101901612D01*
X154937980Y-101839367D01*
X155211308Y-101738787D01*
X155468929Y-101601091D01*
X155706078Y-101427494D01*
X155917995Y-101219217D01*
X156019006Y-101095485D01*
X156151390Y-100897137D01*
X156269599Y-100669688D01*
X156325786Y-100525743D01*
X156380498Y-100327737D01*
X156419561Y-100115285D01*
X156440156Y-99904319D01*
X156439461Y-99710771D01*
X156437787Y-99688760D01*
X156414223Y-99510387D01*
X156374434Y-99322087D01*
X156322866Y-99142152D01*
X156263966Y-98988870D01*
X156164998Y-98804221D01*
X156027058Y-98602978D01*
X155866451Y-98411177D01*
X155693034Y-98240505D01*
X155516661Y-98102650D01*
X155484314Y-98081405D01*
X155241881Y-97950783D01*
X154976534Y-97852159D01*
X154697071Y-97787094D01*
X154412287Y-97757149D01*
X154130978Y-97763886D01*
X153861937Y-97808867D01*
X153836752Y-97815342D01*
X153589315Y-97900270D01*
X153343251Y-98020854D01*
X153111014Y-98170168D01*
X152905057Y-98341280D01*
X152770147Y-98482235D01*
X152628597Y-98668503D01*
X152502031Y-98884514D01*
X152453893Y-98983249D01*
X152351374Y-99259312D01*
X152290553Y-99540743D01*
X152269916Y-99823680D01*
X152091809Y-99823680D01*
X152090660Y-99714016D01*
X152128685Y-99409030D01*
X152206794Y-99115251D01*
X152322549Y-98836284D01*
X152473513Y-98575735D01*
X152657248Y-98337213D01*
X152871317Y-98124321D01*
X153113280Y-97940668D01*
X153380702Y-97789858D01*
X153671144Y-97675499D01*
X153878557Y-97610114D01*
X153888971Y-97551475D01*
X154077005Y-97551475D01*
X154082212Y-97579617D01*
X154099460Y-97584182D01*
X154107611Y-97582653D01*
X154250232Y-97568217D01*
X154420673Y-97569237D01*
X154605763Y-97584648D01*
X154792330Y-97613383D01*
X154967199Y-97654378D01*
X155017647Y-97669233D01*
X155122679Y-97703122D01*
X155215234Y-97736602D01*
X155279757Y-97764206D01*
X155375391Y-97812408D01*
X155402558Y-97658341D01*
X155413433Y-97590071D01*
X155417580Y-97526903D01*
X155408923Y-97482435D01*
X155386392Y-97442391D01*
X155362313Y-97412959D01*
X155305248Y-97367133D01*
X155223781Y-97326497D01*
X155111095Y-97287949D01*
X154960379Y-97248388D01*
X154835263Y-97222174D01*
X154672037Y-97198575D01*
X154518537Y-97187670D01*
X154381505Y-97189301D01*
X154267681Y-97203306D01*
X154183810Y-97229528D01*
X154136631Y-97267808D01*
X154124208Y-97300444D01*
X154107219Y-97365705D01*
X154090940Y-97446094D01*
X154083344Y-97491745D01*
X154077005Y-97551475D01*
X153888971Y-97551475D01*
X153916417Y-97396938D01*
X153927196Y-97337982D01*
X153945174Y-97254151D01*
X153963148Y-97198487D01*
X153985080Y-97160199D01*
X154014931Y-97128496D01*
X154043436Y-97103325D01*
X154105455Y-97058791D01*
X154171409Y-97032287D01*
X154261841Y-97014311D01*
X154327238Y-97000839D01*
X154360444Y-96982400D01*
X154361292Y-96978981D01*
X154559228Y-96978981D01*
X154560569Y-96980491D01*
X154592341Y-96992096D01*
X154658630Y-97007068D01*
X154750728Y-97023639D01*
X154859925Y-97040040D01*
X155150164Y-97079784D01*
X155154903Y-97012025D01*
X155154559Y-96968074D01*
X155123198Y-96865851D01*
X155048322Y-96775007D01*
X155024133Y-96755842D01*
X154927062Y-96711152D01*
X154823722Y-96704001D01*
X154724474Y-96731986D01*
X154639682Y-96792701D01*
X154579706Y-96883743D01*
X154576358Y-96892024D01*
X154560215Y-96945668D01*
X154559228Y-96978981D01*
X154361292Y-96978981D01*
X154367469Y-96954062D01*
X154370559Y-96915065D01*
X154398916Y-96834637D01*
X154449216Y-96747197D01*
X154513237Y-96666088D01*
X154582758Y-96604654D01*
X154638305Y-96572016D01*
X154765555Y-96529373D01*
X154894235Y-96523805D01*
X155017869Y-96551451D01*
X155129981Y-96608446D01*
X155224094Y-96690925D01*
X155293731Y-96795027D01*
X155332417Y-96916886D01*
X155333676Y-97052639D01*
X155329814Y-97082541D01*
X155328635Y-97111253D01*
X155327543Y-97137832D01*
X155340063Y-97168193D01*
X155371249Y-97187525D01*
X155395862Y-97199938D01*
X155478459Y-97262413D01*
X155547523Y-97343544D01*
X155588375Y-97427133D01*
X155596033Y-97468980D01*
X155596003Y-97567098D01*
X155578099Y-97700186D01*
X155552796Y-97843689D01*
X155544743Y-97889360D01*
X155728040Y-98031545D01*
G37*
G36*
X154257709Y-101330677D02*
G01*
X154204860Y-101324154D01*
X154124136Y-101311123D01*
X154066250Y-101298058D01*
X154053694Y-101294454D01*
X153984100Y-101277570D01*
X153906821Y-101262081D01*
X153809803Y-101244974D01*
X153831658Y-101121026D01*
X154014579Y-101121026D01*
X154236335Y-101160128D01*
X154267616Y-100982723D01*
X154045860Y-100943621D01*
X154014579Y-101121026D01*
X153831658Y-101121026D01*
X153867256Y-100919138D01*
X153647009Y-100841449D01*
X153598166Y-100823583D01*
X153481800Y-100776996D01*
X153371172Y-100727962D01*
X153284870Y-100684537D01*
X153184778Y-100625708D01*
X153102474Y-100565529D01*
X153059508Y-100510470D01*
X153056522Y-100465601D01*
X153261274Y-100465601D01*
X153272572Y-100482611D01*
X153317853Y-100515120D01*
X153390174Y-100556348D01*
X153481483Y-100601766D01*
X153583725Y-100646849D01*
X153588149Y-100648652D01*
X153677018Y-100679071D01*
X153799910Y-100713465D01*
X153946966Y-100749258D01*
X154108325Y-100783874D01*
X154125522Y-100787308D01*
X154345157Y-100826924D01*
X154534120Y-100851493D01*
X154703151Y-100861695D01*
X154862993Y-100858208D01*
X155024386Y-100841709D01*
X155187576Y-100819283D01*
X155144557Y-100745007D01*
X155119551Y-100703457D01*
X155074184Y-100630335D01*
X155017148Y-100539797D01*
X154955214Y-100442659D01*
X154954623Y-100441738D01*
X154898389Y-100352061D01*
X154853063Y-100275964D01*
X154823258Y-100221464D01*
X154813586Y-100196575D01*
X154814659Y-100194915D01*
X154844217Y-100183784D01*
X154905327Y-100171822D01*
X154986605Y-100161348D01*
X155000416Y-100159870D01*
X155080558Y-100148518D01*
X155139699Y-100135520D01*
X155165887Y-100123408D01*
X155164307Y-100113330D01*
X155144429Y-100069871D01*
X155106062Y-99999621D01*
X155053100Y-99909564D01*
X154989432Y-99806688D01*
X154952076Y-99747324D01*
X154892932Y-99651656D01*
X154845874Y-99573356D01*
X154814982Y-99519267D01*
X154804336Y-99496233D01*
X154813538Y-99490346D01*
X154856484Y-99481260D01*
X154922223Y-99474726D01*
X154965408Y-99471047D01*
X155018229Y-99462592D01*
X155039618Y-99453131D01*
X155036329Y-99444562D01*
X155013653Y-99403471D01*
X154972944Y-99335218D01*
X154918329Y-99246655D01*
X154853931Y-99144633D01*
X154817432Y-99086960D01*
X154758061Y-98990944D01*
X154710915Y-98911813D01*
X154680095Y-98856529D01*
X154669703Y-98832052D01*
X154688717Y-98821795D01*
X154734246Y-98822615D01*
X154783415Y-98828809D01*
X154828732Y-98827471D01*
X154847120Y-98809881D01*
X154838785Y-98770930D01*
X154803928Y-98705507D01*
X154742751Y-98608503D01*
X154608777Y-98401960D01*
X154412616Y-98550292D01*
X154345067Y-98602198D01*
X154279711Y-98657409D01*
X154248728Y-98695349D01*
X154250534Y-98720882D01*
X154283544Y-98738873D01*
X154346172Y-98754187D01*
X154386814Y-98768194D01*
X154403295Y-98786832D01*
X154397443Y-98794665D01*
X154362183Y-98827105D01*
X154300513Y-98878505D01*
X154218710Y-98943698D01*
X154123055Y-99017515D01*
X154069329Y-99058594D01*
X153980656Y-99127500D01*
X153909275Y-99184412D01*
X153861427Y-99224316D01*
X153843354Y-99242198D01*
X153849895Y-99250868D01*
X153887019Y-99274070D01*
X153946495Y-99302679D01*
X153985798Y-99320884D01*
X154032761Y-99346943D01*
X154049919Y-99363209D01*
X154043780Y-99370391D01*
X154008329Y-99401634D01*
X153946732Y-99452279D01*
X153865165Y-99517291D01*
X153769802Y-99591635D01*
X153714585Y-99634765D01*
X153627007Y-99705556D01*
X153557297Y-99764998D01*
X153511500Y-99807859D01*
X153495665Y-99828903D01*
X153496206Y-99830605D01*
X153521132Y-99852921D01*
X153575290Y-99886388D01*
X153648203Y-99924442D01*
X153657933Y-99929172D01*
X153730089Y-99965482D01*
X153783350Y-99994384D01*
X153806792Y-100009984D01*
X153802993Y-100017030D01*
X153771421Y-100047906D01*
X153713164Y-100098138D01*
X153634075Y-100162747D01*
X153540014Y-100236753D01*
X153485664Y-100279055D01*
X153397502Y-100348897D01*
X153326594Y-100406653D01*
X153279123Y-100447247D01*
X153261274Y-100465601D01*
X153056522Y-100465601D01*
X153055817Y-100455011D01*
X153091338Y-100393632D01*
X153166008Y-100320817D01*
X153279767Y-100231044D01*
X153359145Y-100170166D01*
X153427991Y-100114784D01*
X153474993Y-100073976D01*
X153492910Y-100053763D01*
X153483660Y-100038307D01*
X153446253Y-100002975D01*
X153389573Y-99959027D01*
X153364254Y-99940458D01*
X153314285Y-99897077D01*
X153292175Y-99859501D01*
X153289472Y-99815618D01*
X153289714Y-99812954D01*
X153297847Y-99780588D01*
X153319426Y-99746522D01*
X153360299Y-99704703D01*
X153426315Y-99649081D01*
X153523319Y-99573602D01*
X153751627Y-99399206D01*
X153692160Y-99333052D01*
X153682198Y-99321219D01*
X153649610Y-99267385D01*
X153640348Y-99223486D01*
X153640690Y-99222066D01*
X153663145Y-99190440D01*
X153714035Y-99139269D01*
X153786166Y-99075317D01*
X153872347Y-99005348D01*
X153944148Y-98949098D01*
X154012943Y-98893194D01*
X154054183Y-98855069D01*
X154072658Y-98829327D01*
X154073156Y-98810571D01*
X154060469Y-98793407D01*
X154037310Y-98766854D01*
X154017333Y-98725843D01*
X154022788Y-98683359D01*
X154056753Y-98633627D01*
X154122304Y-98570870D01*
X154222519Y-98489316D01*
X154263595Y-98457162D01*
X154377093Y-98368804D01*
X154462102Y-98303991D01*
X154523815Y-98259301D01*
X154567427Y-98231317D01*
X154598132Y-98216618D01*
X154621125Y-98211783D01*
X154641598Y-98213394D01*
X154655245Y-98218079D01*
X154700835Y-98252234D01*
X154745259Y-98305983D01*
X154822060Y-98424913D01*
X154908051Y-98562298D01*
X154978796Y-98680366D01*
X155031722Y-98774669D01*
X155064261Y-98840765D01*
X155073842Y-98874205D01*
X155051551Y-98910075D01*
X155006634Y-98947007D01*
X154945620Y-98984678D01*
X155095134Y-99223143D01*
X155098418Y-99228394D01*
X155154664Y-99322903D01*
X155199465Y-99406569D01*
X155228354Y-99470488D01*
X155236865Y-99505750D01*
X155236107Y-99509749D01*
X155221146Y-99544958D01*
X155185590Y-99574887D01*
X155118349Y-99609220D01*
X155103905Y-99617542D01*
X155095076Y-99633038D01*
X155100246Y-99659784D01*
X155122119Y-99704364D01*
X155163396Y-99773361D01*
X155226781Y-99873360D01*
X155233515Y-99883892D01*
X155296857Y-99985267D01*
X155338174Y-100058039D01*
X155360888Y-100109879D01*
X155368419Y-100148457D01*
X155364189Y-100181446D01*
X155359182Y-100197346D01*
X155337437Y-100232350D01*
X155295430Y-100257729D01*
X155221076Y-100281970D01*
X155166917Y-100298405D01*
X155114177Y-100317855D01*
X155092409Y-100330886D01*
X155102296Y-100354173D01*
X155131855Y-100407500D01*
X155176512Y-100482919D01*
X155231691Y-100572490D01*
X155297153Y-100681237D01*
X155345972Y-100779875D01*
X155362545Y-100850135D01*
X155363272Y-100853216D01*
X155347128Y-100906650D01*
X155295621Y-100945573D01*
X155206829Y-100975374D01*
X155078830Y-101001446D01*
X155034503Y-101007801D01*
X154928926Y-101017296D01*
X154806882Y-101023196D01*
X154686785Y-101024422D01*
X154443742Y-101021259D01*
X154413740Y-101191409D01*
X154386759Y-101344426D01*
X154257709Y-101330677D01*
G37*
G36*
X148676127Y-105450926D02*
G01*
X148750630Y-105479270D01*
X148757333Y-105483372D01*
X148780934Y-105498943D01*
X148799933Y-105515854D01*
X148814892Y-105537588D01*
X148826376Y-105567628D01*
X148834947Y-105609457D01*
X148841169Y-105666557D01*
X148845604Y-105742413D01*
X148848817Y-105840505D01*
X148851371Y-105964319D01*
X148853829Y-106117336D01*
X148862001Y-106648346D01*
X148960071Y-106533413D01*
X148985385Y-106503690D01*
X149039882Y-106439510D01*
X149105576Y-106361983D01*
X149176354Y-106278324D01*
X149246107Y-106195746D01*
X149325796Y-106103565D01*
X149399006Y-106024799D01*
X149455151Y-105972129D01*
X149494806Y-105944975D01*
X149517476Y-105935898D01*
X149594406Y-105924312D01*
X149666683Y-105939363D01*
X149729699Y-105976389D01*
X149778846Y-106030724D01*
X149809519Y-106097703D01*
X149817109Y-106172663D01*
X149797011Y-106250940D01*
X149791294Y-106261113D01*
X149765379Y-106298228D01*
X149724299Y-106351835D01*
X149672360Y-106416397D01*
X149613868Y-106486380D01*
X149588116Y-106516619D01*
X149461494Y-106665343D01*
X149353809Y-106791889D01*
X149263142Y-106898528D01*
X149187568Y-106987530D01*
X149125168Y-107061166D01*
X149074019Y-107121705D01*
X149032199Y-107171418D01*
X148997787Y-107212575D01*
X148968860Y-107247447D01*
X148943497Y-107278304D01*
X148853459Y-107388358D01*
X148862001Y-108715928D01*
X148902864Y-108694205D01*
X148926907Y-108680931D01*
X148975221Y-108653551D01*
X149037831Y-108617647D01*
X149107175Y-108577538D01*
X149168705Y-108541824D01*
X149322490Y-108452787D01*
X149474939Y-108364819D01*
X149619333Y-108281785D01*
X149748958Y-108207549D01*
X149857096Y-108145977D01*
X149913828Y-108112261D01*
X149971415Y-108074345D01*
X150013026Y-108042641D01*
X150032219Y-108021718D01*
X150034710Y-108015286D01*
X150047599Y-107980336D01*
X150069677Y-107919565D01*
X150099714Y-107836386D01*
X150136481Y-107734216D01*
X150178746Y-107616468D01*
X150225282Y-107486557D01*
X150274858Y-107347899D01*
X150297530Y-107284547D01*
X150346235Y-107149243D01*
X150391637Y-107024168D01*
X150432468Y-106912753D01*
X150467458Y-106818430D01*
X150495340Y-106744628D01*
X150514845Y-106694778D01*
X150524703Y-106672312D01*
X150547512Y-106646198D01*
X150598908Y-106611228D01*
X150660233Y-106585321D01*
X150718114Y-106575193D01*
X150777998Y-106584431D01*
X150849002Y-106617431D01*
X150903256Y-106667571D01*
X150919001Y-106691094D01*
X150933662Y-106721944D01*
X150941213Y-106756699D01*
X150940994Y-106799158D01*
X150932342Y-106853124D01*
X150914598Y-106922397D01*
X150887099Y-107010777D01*
X150849186Y-107122065D01*
X150800196Y-107260063D01*
X150798872Y-107263753D01*
X150759869Y-107373083D01*
X150725071Y-107471716D01*
X150695862Y-107555643D01*
X150673625Y-107620855D01*
X150659744Y-107663345D01*
X150655601Y-107679103D01*
X150658630Y-107678038D01*
X150684333Y-107664649D01*
X150733328Y-107637577D01*
X150802159Y-107598778D01*
X150887366Y-107550209D01*
X150985493Y-107493825D01*
X151093082Y-107431584D01*
X151133293Y-107408333D01*
X151241502Y-107346629D01*
X151341375Y-107290892D01*
X151428949Y-107243257D01*
X151500266Y-107205855D01*
X151551362Y-107180821D01*
X151578278Y-107170287D01*
X151620457Y-107166262D01*
X151695752Y-107180097D01*
X151759375Y-107217908D01*
X151807389Y-107274280D01*
X151835858Y-107343799D01*
X151840846Y-107421050D01*
X151818416Y-107500619D01*
X151816303Y-107505062D01*
X151806830Y-107523713D01*
X151795657Y-107540710D01*
X151779824Y-107558048D01*
X151756369Y-107577716D01*
X151722331Y-107601708D01*
X151674749Y-107632016D01*
X151610662Y-107670630D01*
X151527108Y-107719544D01*
X151421126Y-107780750D01*
X151289755Y-107856238D01*
X151256673Y-107875250D01*
X151154541Y-107934141D01*
X151063709Y-107986812D01*
X150987592Y-108031261D01*
X150929606Y-108065488D01*
X150893168Y-108087491D01*
X150881693Y-108095270D01*
X150882130Y-108095305D01*
X150903012Y-108098688D01*
X150951413Y-108107072D01*
X151023147Y-108119714D01*
X151114026Y-108135874D01*
X151219864Y-108154811D01*
X151336473Y-108175783D01*
X151376999Y-108183099D01*
X151508144Y-108207142D01*
X151611872Y-108227336D01*
X151691959Y-108245056D01*
X151752178Y-108261678D01*
X151796304Y-108278575D01*
X151828112Y-108297122D01*
X151851375Y-108318693D01*
X151869867Y-108344664D01*
X151887364Y-108376408D01*
X151908706Y-108442243D01*
X151906279Y-108517712D01*
X151879264Y-108587688D01*
X151831606Y-108645703D01*
X151767247Y-108685287D01*
X151690132Y-108699971D01*
X151678467Y-108699193D01*
X151633521Y-108693516D01*
X151562074Y-108682852D01*
X151467843Y-108667813D01*
X151354547Y-108649010D01*
X151225901Y-108627056D01*
X151085623Y-108602560D01*
X150937431Y-108576136D01*
X150249650Y-108452240D01*
X150118039Y-108531188D01*
X150107600Y-108537419D01*
X150052719Y-108569719D01*
X149975656Y-108614609D01*
X149881304Y-108669258D01*
X149774554Y-108730839D01*
X149660298Y-108796523D01*
X149543427Y-108863481D01*
X149489425Y-108894425D01*
X149384758Y-108954761D01*
X149291468Y-109009017D01*
X149212964Y-109055182D01*
X149152657Y-109091242D01*
X149113957Y-109115186D01*
X149100273Y-109125000D01*
X149107742Y-109130985D01*
X149139804Y-109151463D01*
X149193602Y-109184079D01*
X149265283Y-109226535D01*
X149350996Y-109276535D01*
X149446891Y-109331780D01*
X149480200Y-109350864D01*
X149596966Y-109417835D01*
X149717871Y-109487280D01*
X149834784Y-109554523D01*
X149939577Y-109614890D01*
X150024120Y-109663707D01*
X150254578Y-109797025D01*
X150939686Y-109673496D01*
X151015118Y-109659966D01*
X151159511Y-109634468D01*
X151294118Y-109611212D01*
X151415213Y-109590811D01*
X151519069Y-109573879D01*
X151601957Y-109561029D01*
X151660151Y-109552874D01*
X151689923Y-109550029D01*
X151731375Y-109553693D01*
X151800952Y-109579757D01*
X151853910Y-109625844D01*
X151889225Y-109685999D01*
X151905877Y-109754271D01*
X151902841Y-109824704D01*
X151879097Y-109891346D01*
X151833621Y-109948243D01*
X151765390Y-109989441D01*
X151753874Y-109992946D01*
X151710536Y-110003142D01*
X151642951Y-110017290D01*
X151556291Y-110034358D01*
X151455727Y-110053313D01*
X151346429Y-110073122D01*
X151285852Y-110083955D01*
X151181125Y-110103019D01*
X151088172Y-110120360D01*
X151012099Y-110135005D01*
X150958015Y-110145979D01*
X150931027Y-110152310D01*
X150927985Y-110153442D01*
X150922437Y-110159608D01*
X150927833Y-110170129D01*
X150946682Y-110186671D01*
X150981488Y-110210904D01*
X151034759Y-110244495D01*
X151109001Y-110289112D01*
X151206720Y-110346423D01*
X151330423Y-110418095D01*
X151374526Y-110443681D01*
X151482372Y-110507298D01*
X151580536Y-110566659D01*
X151665260Y-110619400D01*
X151732787Y-110663159D01*
X151779362Y-110695571D01*
X151801227Y-110714275D01*
X151824282Y-110757745D01*
X151839926Y-110829932D01*
X151836715Y-110904328D01*
X151813949Y-110967001D01*
X151796347Y-110992345D01*
X151733799Y-111050642D01*
X151660047Y-111078605D01*
X151576699Y-111075867D01*
X151485360Y-111042061D01*
X151458630Y-111027599D01*
X151402878Y-110996455D01*
X151328167Y-110954115D01*
X151239720Y-110903588D01*
X151142760Y-110847885D01*
X151042509Y-110790013D01*
X150944191Y-110732984D01*
X150853028Y-110679807D01*
X150774245Y-110633492D01*
X150713063Y-110597047D01*
X150695240Y-110586725D01*
X150664096Y-110571378D01*
X150651770Y-110569690D01*
X150655519Y-110582118D01*
X150669141Y-110621738D01*
X150691294Y-110684320D01*
X150720471Y-110765647D01*
X150755167Y-110861501D01*
X150793878Y-110967668D01*
X150801684Y-110989047D01*
X150851761Y-111129178D01*
X150889927Y-111243221D01*
X150916830Y-111334745D01*
X150933119Y-111407319D01*
X150939444Y-111464512D01*
X150936452Y-111509891D01*
X150924793Y-111547025D01*
X150905116Y-111579483D01*
X150861812Y-111623095D01*
X150792881Y-111659240D01*
X150716977Y-111671924D01*
X150641705Y-111661316D01*
X150574670Y-111627588D01*
X150523478Y-111570911D01*
X150510252Y-111543724D01*
X150487551Y-111489365D01*
X150458749Y-111415513D01*
X150426197Y-111328210D01*
X150392242Y-111233494D01*
X150384843Y-111212465D01*
X150346039Y-111102839D01*
X150300281Y-110974406D01*
X150251048Y-110836888D01*
X150201818Y-110700004D01*
X150156069Y-110573474D01*
X150020393Y-110199491D01*
X149817130Y-110081909D01*
X149808145Y-110076711D01*
X149610356Y-109962336D01*
X149439325Y-109863518D01*
X149293608Y-109779430D01*
X149171759Y-109709243D01*
X149072333Y-109652128D01*
X148993884Y-109607256D01*
X148934967Y-109573798D01*
X148894136Y-109550926D01*
X148869946Y-109537810D01*
X148860952Y-109533623D01*
X148860295Y-109536453D01*
X148858799Y-109564912D01*
X148857433Y-109621196D01*
X148856233Y-109701880D01*
X148855236Y-109803536D01*
X148854479Y-109922738D01*
X148853998Y-110056057D01*
X148853829Y-110200068D01*
X148853829Y-110866513D01*
X149325514Y-111424364D01*
X149397317Y-111509588D01*
X149491081Y-111621839D01*
X149576780Y-111725531D01*
X149652219Y-111817948D01*
X149715202Y-111896376D01*
X149763534Y-111958098D01*
X149795021Y-112000399D01*
X149807466Y-112020563D01*
X149817138Y-112099562D01*
X149800710Y-112180919D01*
X149758216Y-112248680D01*
X149692875Y-112297951D01*
X149607907Y-112323842D01*
X149605423Y-112324164D01*
X149567606Y-112325687D01*
X149530910Y-112318710D01*
X149492322Y-112300750D01*
X149448829Y-112269325D01*
X149397418Y-112221952D01*
X149335076Y-112156147D01*
X149258789Y-112069427D01*
X149165544Y-111959310D01*
X149119500Y-111904481D01*
X149050394Y-111822737D01*
X148988935Y-111750689D01*
X148938438Y-111692195D01*
X148902219Y-111651112D01*
X148883594Y-111631298D01*
X148879940Y-111628137D01*
X148872416Y-111623986D01*
X148866495Y-111627229D01*
X148861985Y-111641028D01*
X148858695Y-111668545D01*
X148856432Y-111712942D01*
X148855006Y-111777382D01*
X148854224Y-111865025D01*
X148853896Y-111979034D01*
X148853829Y-112122570D01*
X148853828Y-112143854D01*
X148853614Y-112293838D01*
X148852644Y-112415079D01*
X148850361Y-112511081D01*
X148846209Y-112585345D01*
X148839631Y-112641374D01*
X148830071Y-112682670D01*
X148816972Y-112712737D01*
X148799778Y-112735075D01*
X148777933Y-112753188D01*
X148750880Y-112770578D01*
X148695784Y-112792923D01*
X148625000Y-112802484D01*
X148560363Y-112794482D01*
X148499121Y-112770578D01*
X148496182Y-112768782D01*
X148469619Y-112751433D01*
X148448230Y-112732999D01*
X148431454Y-112709970D01*
X148418733Y-112678834D01*
X148409505Y-112636078D01*
X148403211Y-112578192D01*
X148399291Y-112501663D01*
X148397184Y-112402980D01*
X148396331Y-112278631D01*
X148396171Y-112125104D01*
X148396065Y-112057427D01*
X148395320Y-111936826D01*
X148393939Y-111829488D01*
X148392015Y-111739298D01*
X148389641Y-111670143D01*
X148386909Y-111625906D01*
X148383913Y-111610473D01*
X148382787Y-111611037D01*
X148365626Y-111627903D01*
X148331646Y-111665338D01*
X148284151Y-111719461D01*
X148226451Y-111786393D01*
X148161851Y-111862256D01*
X148093658Y-111943170D01*
X148025179Y-112025256D01*
X147959722Y-112104635D01*
X147900593Y-112177427D01*
X147865794Y-112216311D01*
X147794829Y-112275506D01*
X147721613Y-112314520D01*
X147653993Y-112328542D01*
X147609971Y-112322440D01*
X147542739Y-112290590D01*
X147485919Y-112237973D01*
X147446628Y-112171924D01*
X147431983Y-112099775D01*
X147431904Y-112091750D01*
X147431570Y-112075254D01*
X147432187Y-112060009D01*
X147435190Y-112044139D01*
X147442013Y-112025768D01*
X147454090Y-112003018D01*
X147472857Y-111974013D01*
X147499747Y-111936875D01*
X147536196Y-111889729D01*
X147583637Y-111830696D01*
X147643505Y-111757901D01*
X147717234Y-111669465D01*
X147806260Y-111563514D01*
X147912016Y-111438169D01*
X148035937Y-111291554D01*
X148179458Y-111121792D01*
X148395885Y-110865733D01*
X148396028Y-110199678D01*
X148396018Y-110138557D01*
X148395816Y-109998632D01*
X148395383Y-109870829D01*
X148394746Y-109758576D01*
X148393934Y-109665301D01*
X148392973Y-109594432D01*
X148391891Y-109549396D01*
X148390715Y-109533623D01*
X148387831Y-109534997D01*
X148362135Y-109549123D01*
X148312367Y-109577158D01*
X148241533Y-109617388D01*
X148152638Y-109668100D01*
X148048689Y-109727581D01*
X147932690Y-109794118D01*
X147807648Y-109865996D01*
X147230037Y-110198369D01*
X147126903Y-110483017D01*
X147112833Y-110521894D01*
X147072850Y-110632680D01*
X147026490Y-110761475D01*
X146976991Y-110899267D01*
X146927592Y-111037043D01*
X146881531Y-111165792D01*
X146854194Y-111241872D01*
X146809603Y-111362681D01*
X146772175Y-111457519D01*
X146739971Y-111529720D01*
X146711051Y-111582617D01*
X146683475Y-111619543D01*
X146655305Y-111643832D01*
X146624600Y-111658817D01*
X146589422Y-111667832D01*
X146516012Y-111672777D01*
X146437361Y-111651802D01*
X146368357Y-111600177D01*
X146343628Y-111571776D01*
X146323638Y-111538546D01*
X146312388Y-111500428D01*
X146310386Y-111453794D01*
X146318136Y-111395012D01*
X146336146Y-111320455D01*
X146364920Y-111226491D01*
X146404965Y-111109493D01*
X146456786Y-110965829D01*
X146489949Y-110874677D01*
X146524901Y-110777373D01*
X146554292Y-110694186D01*
X146576679Y-110629251D01*
X146590618Y-110586705D01*
X146594665Y-110570684D01*
X146593430Y-110570698D01*
X146572480Y-110580237D01*
X146530038Y-110602922D01*
X146471422Y-110635846D01*
X146401949Y-110676099D01*
X146269521Y-110753744D01*
X146123687Y-110838829D01*
X146002533Y-110908934D01*
X145904194Y-110965114D01*
X145826802Y-111008422D01*
X145768492Y-111039913D01*
X145727396Y-111060642D01*
X145701647Y-111071662D01*
X145698440Y-111072749D01*
X145620821Y-111082341D01*
X145544862Y-111063171D01*
X145477937Y-111018473D01*
X145427422Y-110951479D01*
X145415371Y-110918755D01*
X145408588Y-110847960D01*
X145419977Y-110775082D01*
X145448203Y-110715305D01*
X145457845Y-110704956D01*
X145477912Y-110688509D01*
X145509358Y-110666307D01*
X145554316Y-110637053D01*
X145614915Y-110599449D01*
X145693287Y-110552195D01*
X145791563Y-110493995D01*
X145911873Y-110423548D01*
X146056349Y-110339558D01*
X146227122Y-110240725D01*
X146255751Y-110223861D01*
X146304824Y-110193120D01*
X146337109Y-110170260D01*
X146346719Y-110159289D01*
X146330642Y-110154738D01*
X146286415Y-110145164D01*
X146218406Y-110131504D01*
X146130912Y-110114604D01*
X146028234Y-110095306D01*
X145914670Y-110074456D01*
X145870309Y-110066325D01*
X145737336Y-110040879D01*
X145625788Y-110017804D01*
X145538392Y-109997715D01*
X145477875Y-109981226D01*
X145446962Y-109968953D01*
X145399733Y-109928748D01*
X145359017Y-109864438D01*
X145342360Y-109793503D01*
X145348107Y-109721959D01*
X145374607Y-109655823D01*
X145420205Y-109601112D01*
X145483249Y-109563842D01*
X145562084Y-109550029D01*
X145564892Y-109550074D01*
X145599101Y-109553214D01*
X145658705Y-109561396D01*
X145744542Y-109574762D01*
X145857451Y-109593458D01*
X145998268Y-109617625D01*
X146167833Y-109647409D01*
X146366982Y-109682952D01*
X146596554Y-109724397D01*
X146857386Y-109771889D01*
X146993955Y-109796841D01*
X147339561Y-109597860D01*
X147371822Y-109579290D01*
X147488526Y-109512167D01*
X147609640Y-109442582D01*
X147726980Y-109375232D01*
X147832364Y-109314814D01*
X147917610Y-109266025D01*
X147972553Y-109234392D01*
X148043150Y-109192982D01*
X148099434Y-109159038D01*
X148136685Y-109135423D01*
X148150181Y-109125000D01*
X148149976Y-109124333D01*
X148138597Y-109114865D01*
X148108391Y-109095420D01*
X148057395Y-109064841D01*
X147983647Y-109021969D01*
X147885187Y-108965646D01*
X147760053Y-108894715D01*
X147751855Y-108890063D01*
X147707926Y-108864905D01*
X147642795Y-108827404D01*
X147561905Y-108780701D01*
X147470698Y-108727937D01*
X147374614Y-108672252D01*
X147339092Y-108651660D01*
X147248401Y-108599214D01*
X147167186Y-108552425D01*
X147100142Y-108513986D01*
X147051966Y-108486594D01*
X147027351Y-108472943D01*
X147012418Y-108466940D01*
X146979052Y-108462739D01*
X146929368Y-108466470D01*
X146855729Y-108478375D01*
X146668696Y-108512423D01*
X146449283Y-108552199D01*
X146258869Y-108586489D01*
X146095672Y-108615599D01*
X145957913Y-108639835D01*
X145843811Y-108659503D01*
X145751586Y-108674910D01*
X145679458Y-108686360D01*
X145625646Y-108694159D01*
X145588371Y-108698615D01*
X145565851Y-108700032D01*
X145505657Y-108692394D01*
X145437495Y-108660704D01*
X145386340Y-108609961D01*
X145353919Y-108546199D01*
X145341959Y-108475449D01*
X145352185Y-108403746D01*
X145386325Y-108337122D01*
X145446105Y-108281608D01*
X145455254Y-108277109D01*
X145498082Y-108263447D01*
X145568568Y-108245811D01*
X145663470Y-108224931D01*
X145779548Y-108201537D01*
X145913561Y-108176357D01*
X146022609Y-108156289D01*
X146125942Y-108136825D01*
X146214288Y-108119718D01*
X146283349Y-108105815D01*
X146328826Y-108095963D01*
X146346420Y-108091010D01*
X146344423Y-108088395D01*
X146320921Y-108071818D01*
X146273908Y-108041991D01*
X146206725Y-108000943D01*
X146122714Y-107950701D01*
X146025217Y-107893293D01*
X145917576Y-107830749D01*
X145874939Y-107806016D01*
X145767332Y-107742549D01*
X145669327Y-107683284D01*
X145584695Y-107630595D01*
X145517211Y-107586855D01*
X145470645Y-107554441D01*
X145448773Y-107535725D01*
X145440164Y-107521785D01*
X145420690Y-107471300D01*
X145409485Y-107414087D01*
X145408426Y-107394018D01*
X145422657Y-107312587D01*
X145465946Y-107243770D01*
X145536137Y-107191358D01*
X145552364Y-107183436D01*
X145581971Y-107172783D01*
X145613264Y-107168697D01*
X145649541Y-107172453D01*
X145694099Y-107185324D01*
X145750238Y-107208584D01*
X145821253Y-107243506D01*
X145910443Y-107291365D01*
X146021106Y-107353434D01*
X146156540Y-107430987D01*
X146210835Y-107462208D01*
X146315073Y-107521959D01*
X146407965Y-107574955D01*
X146486119Y-107619278D01*
X146546142Y-107653007D01*
X146584643Y-107674223D01*
X146598230Y-107681005D01*
X146598229Y-107680987D01*
X146592837Y-107664721D01*
X146577901Y-107621751D01*
X146554841Y-107556110D01*
X146525078Y-107471831D01*
X146490033Y-107372945D01*
X146451126Y-107263484D01*
X146413712Y-107156776D01*
X146378135Y-107052010D01*
X146347910Y-106959542D01*
X146324506Y-106883972D01*
X146309387Y-106829903D01*
X146304022Y-106801937D01*
X146307830Y-106763224D01*
X146336643Y-106690393D01*
X146388383Y-106630585D01*
X146456645Y-106590089D01*
X146535021Y-106575193D01*
X146561001Y-106577283D01*
X146624126Y-106595198D01*
X146682048Y-106626093D01*
X146721024Y-106663447D01*
X146726413Y-106674318D01*
X146743117Y-106714568D01*
X146768334Y-106779302D01*
X146800584Y-106864590D01*
X146838389Y-106966501D01*
X146880267Y-107081105D01*
X146924739Y-107204472D01*
X146944220Y-107258872D01*
X146991219Y-107390093D01*
X147036827Y-107517401D01*
X147079119Y-107635423D01*
X147116170Y-107738786D01*
X147146053Y-107822118D01*
X147166844Y-107880046D01*
X147172164Y-107894814D01*
X147198776Y-107965877D01*
X147220016Y-108013821D01*
X147240023Y-108045432D01*
X147262935Y-108067499D01*
X147292889Y-108086811D01*
X147392127Y-108144286D01*
X147552534Y-108237070D01*
X147705258Y-108325268D01*
X147847727Y-108407401D01*
X147977366Y-108481991D01*
X148091603Y-108547560D01*
X148187864Y-108602630D01*
X148263574Y-108645721D01*
X148316161Y-108675356D01*
X148343050Y-108690057D01*
X148396171Y-108717216D01*
X148396171Y-107382511D01*
X148230746Y-107187250D01*
X148202286Y-107153681D01*
X148142841Y-107083719D01*
X148089754Y-107021436D01*
X148047942Y-106972594D01*
X148022320Y-106942954D01*
X148020994Y-106941440D01*
X147987983Y-106903096D01*
X147943800Y-106851004D01*
X147897623Y-106795981D01*
X147880874Y-106775954D01*
X147833179Y-106719195D01*
X147773203Y-106648063D01*
X147706955Y-106569681D01*
X147640444Y-106491169D01*
X147600863Y-106443900D01*
X147544594Y-106374468D01*
X147497748Y-106313968D01*
X147464341Y-106267636D01*
X147448391Y-106240714D01*
X147438393Y-106207719D01*
X147434252Y-106129344D01*
X147455199Y-106057902D01*
X147496467Y-105997655D01*
X147553288Y-105952863D01*
X147620894Y-105927788D01*
X147694517Y-105926691D01*
X147769389Y-105953833D01*
X147788452Y-105967685D01*
X147832171Y-106007907D01*
X147889389Y-106067115D01*
X147956129Y-106141133D01*
X148028411Y-106225782D01*
X148083221Y-106291326D01*
X148152289Y-106373149D01*
X148216612Y-106448561D01*
X148270837Y-106511295D01*
X148309610Y-106555081D01*
X148394670Y-106648745D01*
X148395482Y-106125708D01*
X148395509Y-106108547D01*
X148395866Y-105966447D01*
X148396554Y-105852957D01*
X148397781Y-105764397D01*
X148399757Y-105697083D01*
X148402691Y-105647334D01*
X148406793Y-105611468D01*
X148412272Y-105585802D01*
X148419338Y-105566654D01*
X148428199Y-105550343D01*
X148456521Y-105514503D01*
X148520221Y-105470494D01*
X148596374Y-105448651D01*
X148676127Y-105450926D01*
G37*
G36*
X135826127Y-87325926D02*
G01*
X135900630Y-87354270D01*
X135907333Y-87358372D01*
X135930934Y-87373943D01*
X135949933Y-87390854D01*
X135964892Y-87412588D01*
X135976376Y-87442628D01*
X135984947Y-87484457D01*
X135991169Y-87541557D01*
X135995604Y-87617413D01*
X135998817Y-87715505D01*
X136001371Y-87839319D01*
X136003829Y-87992336D01*
X136012001Y-88523346D01*
X136110071Y-88408413D01*
X136135385Y-88378690D01*
X136189882Y-88314510D01*
X136255576Y-88236983D01*
X136326354Y-88153324D01*
X136396107Y-88070746D01*
X136475796Y-87978565D01*
X136549006Y-87899799D01*
X136605151Y-87847129D01*
X136644806Y-87819975D01*
X136667476Y-87810898D01*
X136744406Y-87799312D01*
X136816683Y-87814363D01*
X136879699Y-87851389D01*
X136928846Y-87905724D01*
X136959519Y-87972703D01*
X136967109Y-88047663D01*
X136947011Y-88125940D01*
X136941294Y-88136113D01*
X136915379Y-88173228D01*
X136874299Y-88226835D01*
X136822360Y-88291397D01*
X136763868Y-88361380D01*
X136738116Y-88391619D01*
X136611494Y-88540343D01*
X136503809Y-88666889D01*
X136413142Y-88773528D01*
X136337568Y-88862530D01*
X136275168Y-88936166D01*
X136224019Y-88996705D01*
X136182199Y-89046418D01*
X136147787Y-89087575D01*
X136118860Y-89122447D01*
X136093497Y-89153304D01*
X136003459Y-89263358D01*
X136012001Y-90590928D01*
X136052864Y-90569205D01*
X136076907Y-90555931D01*
X136125221Y-90528551D01*
X136187831Y-90492647D01*
X136257175Y-90452538D01*
X136318705Y-90416824D01*
X136472490Y-90327787D01*
X136624939Y-90239819D01*
X136769333Y-90156785D01*
X136898958Y-90082549D01*
X137007096Y-90020977D01*
X137063828Y-89987261D01*
X137121415Y-89949345D01*
X137163026Y-89917641D01*
X137182219Y-89896718D01*
X137184710Y-89890286D01*
X137197599Y-89855336D01*
X137219677Y-89794565D01*
X137249714Y-89711386D01*
X137286481Y-89609216D01*
X137328746Y-89491468D01*
X137375282Y-89361557D01*
X137424858Y-89222899D01*
X137447530Y-89159547D01*
X137496235Y-89024243D01*
X137541637Y-88899168D01*
X137582468Y-88787753D01*
X137617458Y-88693430D01*
X137645340Y-88619628D01*
X137664845Y-88569778D01*
X137674703Y-88547312D01*
X137697512Y-88521198D01*
X137748908Y-88486228D01*
X137810233Y-88460321D01*
X137868114Y-88450193D01*
X137927998Y-88459431D01*
X137999002Y-88492431D01*
X138053256Y-88542571D01*
X138069001Y-88566094D01*
X138083662Y-88596944D01*
X138091213Y-88631699D01*
X138090994Y-88674158D01*
X138082342Y-88728124D01*
X138064598Y-88797397D01*
X138037099Y-88885777D01*
X137999186Y-88997065D01*
X137950196Y-89135063D01*
X137948872Y-89138753D01*
X137909869Y-89248083D01*
X137875071Y-89346716D01*
X137845862Y-89430643D01*
X137823625Y-89495855D01*
X137809744Y-89538345D01*
X137805601Y-89554103D01*
X137808630Y-89553038D01*
X137834333Y-89539649D01*
X137883328Y-89512577D01*
X137952159Y-89473778D01*
X138037366Y-89425209D01*
X138135493Y-89368825D01*
X138243082Y-89306584D01*
X138283293Y-89283333D01*
X138391502Y-89221629D01*
X138491375Y-89165892D01*
X138578949Y-89118257D01*
X138650266Y-89080855D01*
X138701362Y-89055821D01*
X138728278Y-89045287D01*
X138770457Y-89041262D01*
X138845752Y-89055097D01*
X138909375Y-89092908D01*
X138957389Y-89149280D01*
X138985858Y-89218799D01*
X138990846Y-89296050D01*
X138968416Y-89375619D01*
X138966303Y-89380062D01*
X138956830Y-89398713D01*
X138945657Y-89415710D01*
X138929824Y-89433048D01*
X138906369Y-89452716D01*
X138872331Y-89476708D01*
X138824749Y-89507016D01*
X138760662Y-89545630D01*
X138677108Y-89594544D01*
X138571126Y-89655750D01*
X138439755Y-89731238D01*
X138406673Y-89750250D01*
X138304541Y-89809141D01*
X138213709Y-89861812D01*
X138137592Y-89906261D01*
X138079606Y-89940488D01*
X138043168Y-89962491D01*
X138031693Y-89970270D01*
X138032130Y-89970305D01*
X138053012Y-89973688D01*
X138101413Y-89982072D01*
X138173147Y-89994714D01*
X138264026Y-90010874D01*
X138369864Y-90029811D01*
X138486473Y-90050783D01*
X138526999Y-90058099D01*
X138658144Y-90082142D01*
X138761872Y-90102336D01*
X138841959Y-90120056D01*
X138902178Y-90136678D01*
X138946304Y-90153575D01*
X138978112Y-90172122D01*
X139001375Y-90193693D01*
X139019867Y-90219664D01*
X139037364Y-90251408D01*
X139058706Y-90317243D01*
X139056279Y-90392712D01*
X139029264Y-90462688D01*
X138981606Y-90520703D01*
X138917247Y-90560287D01*
X138840132Y-90574971D01*
X138828467Y-90574193D01*
X138783521Y-90568516D01*
X138712074Y-90557852D01*
X138617843Y-90542813D01*
X138504547Y-90524010D01*
X138375901Y-90502056D01*
X138235623Y-90477560D01*
X138087431Y-90451136D01*
X137399650Y-90327240D01*
X137268039Y-90406188D01*
X137257600Y-90412419D01*
X137202719Y-90444719D01*
X137125656Y-90489609D01*
X137031304Y-90544258D01*
X136924554Y-90605839D01*
X136810298Y-90671523D01*
X136693427Y-90738481D01*
X136639425Y-90769425D01*
X136534758Y-90829761D01*
X136441468Y-90884017D01*
X136362964Y-90930182D01*
X136302657Y-90966242D01*
X136263957Y-90990186D01*
X136250273Y-91000000D01*
X136257742Y-91005985D01*
X136289804Y-91026463D01*
X136343602Y-91059079D01*
X136415283Y-91101535D01*
X136500996Y-91151535D01*
X136596891Y-91206780D01*
X136630200Y-91225864D01*
X136746966Y-91292835D01*
X136867871Y-91362280D01*
X136984784Y-91429523D01*
X137089577Y-91489890D01*
X137174120Y-91538707D01*
X137404578Y-91672025D01*
X138089686Y-91548496D01*
X138165118Y-91534966D01*
X138309511Y-91509468D01*
X138444118Y-91486212D01*
X138565213Y-91465811D01*
X138669069Y-91448879D01*
X138751957Y-91436029D01*
X138810151Y-91427874D01*
X138839923Y-91425029D01*
X138881375Y-91428693D01*
X138950952Y-91454757D01*
X139003910Y-91500844D01*
X139039225Y-91560999D01*
X139055877Y-91629271D01*
X139052841Y-91699704D01*
X139029097Y-91766346D01*
X138983621Y-91823243D01*
X138915390Y-91864441D01*
X138903874Y-91867946D01*
X138860536Y-91878142D01*
X138792951Y-91892290D01*
X138706291Y-91909358D01*
X138605727Y-91928313D01*
X138496429Y-91948122D01*
X138435852Y-91958955D01*
X138331125Y-91978019D01*
X138238172Y-91995360D01*
X138162099Y-92010005D01*
X138108015Y-92020979D01*
X138081027Y-92027310D01*
X138077985Y-92028442D01*
X138072437Y-92034608D01*
X138077833Y-92045129D01*
X138096682Y-92061671D01*
X138131488Y-92085904D01*
X138184759Y-92119495D01*
X138259001Y-92164112D01*
X138356720Y-92221423D01*
X138480423Y-92293095D01*
X138524526Y-92318681D01*
X138632372Y-92382298D01*
X138730536Y-92441659D01*
X138815260Y-92494400D01*
X138882787Y-92538159D01*
X138929362Y-92570571D01*
X138951227Y-92589275D01*
X138974282Y-92632745D01*
X138989926Y-92704932D01*
X138986715Y-92779328D01*
X138963949Y-92842001D01*
X138946347Y-92867345D01*
X138883799Y-92925642D01*
X138810047Y-92953605D01*
X138726699Y-92950867D01*
X138635360Y-92917061D01*
X138608630Y-92902599D01*
X138552878Y-92871455D01*
X138478167Y-92829115D01*
X138389720Y-92778588D01*
X138292760Y-92722885D01*
X138192509Y-92665013D01*
X138094191Y-92607984D01*
X138003028Y-92554807D01*
X137924245Y-92508492D01*
X137863063Y-92472047D01*
X137845240Y-92461725D01*
X137814096Y-92446378D01*
X137801770Y-92444690D01*
X137805519Y-92457118D01*
X137819141Y-92496738D01*
X137841294Y-92559320D01*
X137870471Y-92640647D01*
X137905167Y-92736501D01*
X137943878Y-92842668D01*
X137951684Y-92864047D01*
X138001761Y-93004178D01*
X138039927Y-93118221D01*
X138066830Y-93209745D01*
X138083119Y-93282319D01*
X138089444Y-93339512D01*
X138086452Y-93384891D01*
X138074793Y-93422025D01*
X138055116Y-93454483D01*
X138011812Y-93498095D01*
X137942881Y-93534240D01*
X137866977Y-93546924D01*
X137791705Y-93536316D01*
X137724670Y-93502588D01*
X137673478Y-93445911D01*
X137660252Y-93418724D01*
X137637551Y-93364365D01*
X137608749Y-93290513D01*
X137576197Y-93203210D01*
X137542242Y-93108494D01*
X137534843Y-93087465D01*
X137496039Y-92977839D01*
X137450281Y-92849406D01*
X137401048Y-92711888D01*
X137351818Y-92575004D01*
X137306069Y-92448474D01*
X137170393Y-92074491D01*
X136967130Y-91956909D01*
X136958145Y-91951711D01*
X136760356Y-91837336D01*
X136589325Y-91738518D01*
X136443608Y-91654430D01*
X136321759Y-91584243D01*
X136222333Y-91527128D01*
X136143884Y-91482256D01*
X136084967Y-91448798D01*
X136044136Y-91425926D01*
X136019946Y-91412810D01*
X136010952Y-91408623D01*
X136010295Y-91411453D01*
X136008799Y-91439912D01*
X136007433Y-91496196D01*
X136006233Y-91576880D01*
X136005236Y-91678536D01*
X136004479Y-91797738D01*
X136003998Y-91931057D01*
X136003829Y-92075068D01*
X136003829Y-92741513D01*
X136475514Y-93299364D01*
X136547317Y-93384588D01*
X136641081Y-93496839D01*
X136726780Y-93600531D01*
X136802219Y-93692948D01*
X136865202Y-93771376D01*
X136913534Y-93833098D01*
X136945021Y-93875399D01*
X136957466Y-93895563D01*
X136967138Y-93974562D01*
X136950710Y-94055919D01*
X136908216Y-94123680D01*
X136842875Y-94172951D01*
X136757907Y-94198842D01*
X136755423Y-94199164D01*
X136717606Y-94200687D01*
X136680910Y-94193710D01*
X136642322Y-94175750D01*
X136598829Y-94144325D01*
X136547418Y-94096952D01*
X136485076Y-94031147D01*
X136408789Y-93944427D01*
X136315544Y-93834310D01*
X136269500Y-93779481D01*
X136200394Y-93697737D01*
X136138935Y-93625689D01*
X136088438Y-93567195D01*
X136052219Y-93526112D01*
X136033594Y-93506298D01*
X136029940Y-93503137D01*
X136022416Y-93498986D01*
X136016495Y-93502229D01*
X136011985Y-93516028D01*
X136008695Y-93543545D01*
X136006432Y-93587942D01*
X136005006Y-93652382D01*
X136004224Y-93740025D01*
X136003896Y-93854034D01*
X136003829Y-93997570D01*
X136003828Y-94018854D01*
X136003614Y-94168838D01*
X136002644Y-94290079D01*
X136000361Y-94386081D01*
X135996209Y-94460345D01*
X135989631Y-94516374D01*
X135980071Y-94557670D01*
X135966972Y-94587737D01*
X135949778Y-94610075D01*
X135927933Y-94628188D01*
X135900880Y-94645578D01*
X135845784Y-94667923D01*
X135775000Y-94677484D01*
X135710363Y-94669482D01*
X135649121Y-94645578D01*
X135646182Y-94643782D01*
X135619619Y-94626433D01*
X135598230Y-94607999D01*
X135581454Y-94584970D01*
X135568733Y-94553834D01*
X135559505Y-94511078D01*
X135553211Y-94453192D01*
X135549291Y-94376663D01*
X135547184Y-94277980D01*
X135546331Y-94153631D01*
X135546171Y-94000104D01*
X135546065Y-93932427D01*
X135545320Y-93811826D01*
X135543939Y-93704488D01*
X135542015Y-93614298D01*
X135539641Y-93545143D01*
X135536909Y-93500906D01*
X135533913Y-93485473D01*
X135532787Y-93486037D01*
X135515626Y-93502903D01*
X135481646Y-93540338D01*
X135434151Y-93594461D01*
X135376451Y-93661393D01*
X135311851Y-93737256D01*
X135243658Y-93818170D01*
X135175179Y-93900256D01*
X135109722Y-93979635D01*
X135050593Y-94052427D01*
X135015794Y-94091311D01*
X134944829Y-94150506D01*
X134871613Y-94189520D01*
X134803993Y-94203542D01*
X134759971Y-94197440D01*
X134692739Y-94165590D01*
X134635919Y-94112973D01*
X134596628Y-94046924D01*
X134581983Y-93974775D01*
X134581904Y-93966750D01*
X134581570Y-93950254D01*
X134582187Y-93935009D01*
X134585190Y-93919139D01*
X134592013Y-93900768D01*
X134604090Y-93878018D01*
X134622857Y-93849013D01*
X134649747Y-93811875D01*
X134686196Y-93764729D01*
X134733637Y-93705696D01*
X134793505Y-93632901D01*
X134867234Y-93544465D01*
X134956260Y-93438514D01*
X135062016Y-93313169D01*
X135185937Y-93166554D01*
X135329458Y-92996792D01*
X135545885Y-92740733D01*
X135546028Y-92074678D01*
X135546018Y-92013557D01*
X135545816Y-91873632D01*
X135545383Y-91745829D01*
X135544746Y-91633576D01*
X135543934Y-91540301D01*
X135542973Y-91469432D01*
X135541891Y-91424396D01*
X135540715Y-91408623D01*
X135537831Y-91409997D01*
X135512135Y-91424123D01*
X135462367Y-91452158D01*
X135391533Y-91492388D01*
X135302638Y-91543100D01*
X135198689Y-91602581D01*
X135082690Y-91669118D01*
X134957648Y-91740996D01*
X134380037Y-92073369D01*
X134276903Y-92358017D01*
X134262833Y-92396894D01*
X134222850Y-92507680D01*
X134176490Y-92636475D01*
X134126991Y-92774267D01*
X134077592Y-92912043D01*
X134031531Y-93040792D01*
X134004194Y-93116872D01*
X133959603Y-93237681D01*
X133922175Y-93332519D01*
X133889971Y-93404720D01*
X133861051Y-93457617D01*
X133833475Y-93494543D01*
X133805305Y-93518832D01*
X133774600Y-93533817D01*
X133739422Y-93542832D01*
X133666012Y-93547777D01*
X133587361Y-93526802D01*
X133518357Y-93475177D01*
X133493628Y-93446776D01*
X133473638Y-93413546D01*
X133462388Y-93375428D01*
X133460386Y-93328794D01*
X133468136Y-93270012D01*
X133486146Y-93195455D01*
X133514920Y-93101491D01*
X133554965Y-92984493D01*
X133606786Y-92840829D01*
X133639949Y-92749677D01*
X133674901Y-92652373D01*
X133704292Y-92569186D01*
X133726679Y-92504251D01*
X133740618Y-92461705D01*
X133744665Y-92445684D01*
X133743430Y-92445698D01*
X133722480Y-92455237D01*
X133680038Y-92477922D01*
X133621422Y-92510846D01*
X133551949Y-92551099D01*
X133419521Y-92628744D01*
X133273687Y-92713829D01*
X133152533Y-92783934D01*
X133054194Y-92840114D01*
X132976802Y-92883422D01*
X132918492Y-92914913D01*
X132877396Y-92935642D01*
X132851647Y-92946662D01*
X132848440Y-92947749D01*
X132770821Y-92957341D01*
X132694862Y-92938171D01*
X132627937Y-92893473D01*
X132577422Y-92826479D01*
X132565371Y-92793755D01*
X132558588Y-92722960D01*
X132569977Y-92650082D01*
X132598203Y-92590305D01*
X132607845Y-92579956D01*
X132627912Y-92563509D01*
X132659358Y-92541307D01*
X132704316Y-92512053D01*
X132764915Y-92474449D01*
X132843287Y-92427195D01*
X132941563Y-92368995D01*
X133061873Y-92298548D01*
X133206349Y-92214558D01*
X133377122Y-92115725D01*
X133405751Y-92098861D01*
X133454824Y-92068120D01*
X133487109Y-92045260D01*
X133496719Y-92034289D01*
X133480642Y-92029738D01*
X133436415Y-92020164D01*
X133368406Y-92006504D01*
X133280912Y-91989604D01*
X133178234Y-91970306D01*
X133064670Y-91949456D01*
X133020309Y-91941325D01*
X132887336Y-91915879D01*
X132775788Y-91892804D01*
X132688392Y-91872715D01*
X132627875Y-91856226D01*
X132596962Y-91843953D01*
X132549733Y-91803748D01*
X132509017Y-91739438D01*
X132492360Y-91668503D01*
X132498107Y-91596959D01*
X132524607Y-91530823D01*
X132570205Y-91476112D01*
X132633249Y-91438842D01*
X132712084Y-91425029D01*
X132714892Y-91425074D01*
X132749101Y-91428214D01*
X132808705Y-91436396D01*
X132894542Y-91449762D01*
X133007451Y-91468458D01*
X133148268Y-91492625D01*
X133317833Y-91522409D01*
X133516982Y-91557952D01*
X133746554Y-91599397D01*
X134007386Y-91646889D01*
X134143955Y-91671841D01*
X134489561Y-91472860D01*
X134521822Y-91454290D01*
X134638526Y-91387167D01*
X134759640Y-91317582D01*
X134876980Y-91250232D01*
X134982364Y-91189814D01*
X135067610Y-91141025D01*
X135122553Y-91109392D01*
X135193150Y-91067982D01*
X135249434Y-91034038D01*
X135286685Y-91010423D01*
X135300181Y-91000000D01*
X135299976Y-90999333D01*
X135288597Y-90989865D01*
X135258391Y-90970420D01*
X135207395Y-90939841D01*
X135133647Y-90896969D01*
X135035187Y-90840646D01*
X134910053Y-90769715D01*
X134901855Y-90765063D01*
X134857926Y-90739905D01*
X134792795Y-90702404D01*
X134711905Y-90655701D01*
X134620698Y-90602937D01*
X134524614Y-90547252D01*
X134489092Y-90526660D01*
X134398401Y-90474214D01*
X134317186Y-90427425D01*
X134250142Y-90388986D01*
X134201966Y-90361594D01*
X134177351Y-90347943D01*
X134162418Y-90341940D01*
X134129052Y-90337739D01*
X134079368Y-90341470D01*
X134005729Y-90353375D01*
X133818696Y-90387423D01*
X133599283Y-90427199D01*
X133408869Y-90461489D01*
X133245672Y-90490599D01*
X133107913Y-90514835D01*
X132993811Y-90534503D01*
X132901586Y-90549910D01*
X132829458Y-90561360D01*
X132775646Y-90569159D01*
X132738371Y-90573615D01*
X132715851Y-90575032D01*
X132655657Y-90567394D01*
X132587495Y-90535704D01*
X132536340Y-90484961D01*
X132503919Y-90421199D01*
X132491959Y-90350449D01*
X132502185Y-90278746D01*
X132536325Y-90212122D01*
X132596105Y-90156608D01*
X132605254Y-90152109D01*
X132648082Y-90138447D01*
X132718568Y-90120811D01*
X132813470Y-90099931D01*
X132929548Y-90076537D01*
X133063561Y-90051357D01*
X133172609Y-90031289D01*
X133275942Y-90011825D01*
X133364288Y-89994718D01*
X133433349Y-89980815D01*
X133478826Y-89970963D01*
X133496420Y-89966010D01*
X133494423Y-89963395D01*
X133470921Y-89946818D01*
X133423908Y-89916991D01*
X133356725Y-89875943D01*
X133272714Y-89825701D01*
X133175217Y-89768293D01*
X133067576Y-89705749D01*
X133024939Y-89681016D01*
X132917332Y-89617549D01*
X132819327Y-89558284D01*
X132734695Y-89505595D01*
X132667211Y-89461855D01*
X132620645Y-89429441D01*
X132598773Y-89410725D01*
X132590164Y-89396785D01*
X132570690Y-89346300D01*
X132559485Y-89289087D01*
X132558426Y-89269018D01*
X132572657Y-89187587D01*
X132615946Y-89118770D01*
X132686137Y-89066358D01*
X132702364Y-89058436D01*
X132731971Y-89047783D01*
X132763264Y-89043697D01*
X132799541Y-89047453D01*
X132844099Y-89060324D01*
X132900238Y-89083584D01*
X132971253Y-89118506D01*
X133060443Y-89166365D01*
X133171106Y-89228434D01*
X133306540Y-89305987D01*
X133360835Y-89337208D01*
X133465073Y-89396959D01*
X133557965Y-89449955D01*
X133636119Y-89494278D01*
X133696142Y-89528007D01*
X133734643Y-89549223D01*
X133748230Y-89556005D01*
X133748229Y-89555987D01*
X133742837Y-89539721D01*
X133727901Y-89496751D01*
X133704841Y-89431110D01*
X133675078Y-89346831D01*
X133640033Y-89247945D01*
X133601126Y-89138484D01*
X133563712Y-89031776D01*
X133528135Y-88927010D01*
X133497910Y-88834542D01*
X133474506Y-88758972D01*
X133459387Y-88704903D01*
X133454022Y-88676937D01*
X133457830Y-88638224D01*
X133486643Y-88565393D01*
X133538383Y-88505585D01*
X133606645Y-88465089D01*
X133685021Y-88450193D01*
X133711001Y-88452283D01*
X133774126Y-88470198D01*
X133832048Y-88501093D01*
X133871024Y-88538447D01*
X133876413Y-88549318D01*
X133893117Y-88589568D01*
X133918334Y-88654302D01*
X133950584Y-88739590D01*
X133988389Y-88841501D01*
X134030267Y-88956105D01*
X134074739Y-89079472D01*
X134094220Y-89133872D01*
X134141219Y-89265093D01*
X134186827Y-89392401D01*
X134229119Y-89510423D01*
X134266170Y-89613786D01*
X134296053Y-89697118D01*
X134316844Y-89755046D01*
X134322164Y-89769814D01*
X134348776Y-89840877D01*
X134370016Y-89888821D01*
X134390023Y-89920432D01*
X134412935Y-89942499D01*
X134442889Y-89961811D01*
X134542127Y-90019286D01*
X134702534Y-90112070D01*
X134855258Y-90200268D01*
X134997727Y-90282401D01*
X135127366Y-90356991D01*
X135241603Y-90422560D01*
X135337864Y-90477630D01*
X135413574Y-90520721D01*
X135466161Y-90550356D01*
X135493050Y-90565057D01*
X135546171Y-90592216D01*
X135546171Y-89257511D01*
X135380746Y-89062250D01*
X135352286Y-89028681D01*
X135292841Y-88958719D01*
X135239754Y-88896436D01*
X135197942Y-88847594D01*
X135172320Y-88817954D01*
X135170994Y-88816440D01*
X135137983Y-88778096D01*
X135093800Y-88726004D01*
X135047623Y-88670981D01*
X135030874Y-88650954D01*
X134983179Y-88594195D01*
X134923203Y-88523063D01*
X134856955Y-88444681D01*
X134790444Y-88366169D01*
X134750863Y-88318900D01*
X134694594Y-88249468D01*
X134647748Y-88188968D01*
X134614341Y-88142636D01*
X134598391Y-88115714D01*
X134588393Y-88082719D01*
X134584252Y-88004344D01*
X134605199Y-87932902D01*
X134646467Y-87872655D01*
X134703288Y-87827863D01*
X134770894Y-87802788D01*
X134844517Y-87801691D01*
X134919389Y-87828833D01*
X134938452Y-87842685D01*
X134982171Y-87882907D01*
X135039389Y-87942115D01*
X135106129Y-88016133D01*
X135178411Y-88100782D01*
X135233221Y-88166326D01*
X135302289Y-88248149D01*
X135366612Y-88323561D01*
X135420837Y-88386295D01*
X135459610Y-88430081D01*
X135544670Y-88523745D01*
X135545482Y-88000708D01*
X135545509Y-87983547D01*
X135545866Y-87841447D01*
X135546554Y-87727957D01*
X135547781Y-87639397D01*
X135549757Y-87572083D01*
X135552691Y-87522334D01*
X135556793Y-87486468D01*
X135562272Y-87460802D01*
X135569338Y-87441654D01*
X135578199Y-87425343D01*
X135606521Y-87389503D01*
X135670221Y-87345494D01*
X135746374Y-87323651D01*
X135826127Y-87325926D01*
G37*
%TD*%
M02*
