%TF.GenerationSoftware,KiCad,Pcbnew,(6.0.6)*%
%TF.CreationDate,2022-12-01T22:03:14+01:00*%
%TF.ProjectId,Arbolito,4172626f-6c69-4746-9f2e-6b696361645f,rev?*%
%TF.SameCoordinates,Original*%
%TF.FileFunction,Legend,Bot*%
%TF.FilePolarity,Positive*%
%FSLAX46Y46*%
G04 Gerber Fmt 4.6, Leading zero omitted, Abs format (unit mm)*
G04 Created by KiCad (PCBNEW (6.0.6)) date 2022-12-01 22:03:14*
%MOMM*%
%LPD*%
G01*
G04 APERTURE LIST*
%ADD10C,0.150000*%
%ADD11C,0.120000*%
G04 APERTURE END LIST*
D10*
%TO.C,J1*%
X139352380Y-116666666D02*
X140066666Y-116666666D01*
X140209523Y-116619047D01*
X140304761Y-116523809D01*
X140352380Y-116380952D01*
X140352380Y-116285714D01*
X140352380Y-117666666D02*
X140352380Y-117095238D01*
X140352380Y-117380952D02*
X139352380Y-117380952D01*
X139495238Y-117285714D01*
X139590476Y-117190476D01*
X139638095Y-117095238D01*
%TO.C,G\u002A\u002A\u002A*%
G36*
X117487812Y-82862414D02*
G01*
X117504558Y-82871989D01*
X117544860Y-82906057D01*
X117578085Y-82955161D01*
X117606434Y-83024230D01*
X117632108Y-83118193D01*
X117657308Y-83241978D01*
X117660018Y-83256725D01*
X117676836Y-83346125D01*
X117692467Y-83425915D01*
X117705271Y-83487880D01*
X117713606Y-83523806D01*
X117720205Y-83542952D01*
X117745489Y-83582690D01*
X117775850Y-83601669D01*
X117803372Y-83593724D01*
X117814015Y-83578226D01*
X117831628Y-83524987D01*
X117844446Y-83447112D01*
X117852057Y-83351175D01*
X117854044Y-83243746D01*
X117849994Y-83131400D01*
X117839493Y-83020706D01*
X117838839Y-83015529D01*
X117833890Y-82932465D01*
X117844371Y-82877567D01*
X117871816Y-82847254D01*
X117917758Y-82837945D01*
X117951097Y-82844165D01*
X117982358Y-82874247D01*
X118002462Y-82933630D01*
X118011915Y-82978625D01*
X118022505Y-83029315D01*
X118025056Y-83046502D01*
X118029078Y-83102760D01*
X118031546Y-83179847D01*
X118032480Y-83268498D01*
X118031902Y-83359448D01*
X118029833Y-83443430D01*
X118026294Y-83511178D01*
X118021307Y-83553427D01*
X118017644Y-83569378D01*
X117979897Y-83673490D01*
X117924917Y-83749604D01*
X117854082Y-83796309D01*
X117768771Y-83812192D01*
X117756767Y-83812114D01*
X117706218Y-83807109D01*
X117669854Y-83788759D01*
X117630773Y-83749369D01*
X117616324Y-83732575D01*
X117590213Y-83698405D01*
X117569592Y-83662250D01*
X117552183Y-83617649D01*
X117535706Y-83558141D01*
X117517881Y-83477266D01*
X117496430Y-83368562D01*
X117475772Y-83265658D01*
X117452252Y-83163715D01*
X117430826Y-83092404D01*
X117410371Y-83049530D01*
X117389764Y-83032896D01*
X117367884Y-83040306D01*
X117343607Y-83069565D01*
X117332949Y-83091741D01*
X117318564Y-83156512D01*
X117311238Y-83252620D01*
X117310919Y-83380987D01*
X117317558Y-83542534D01*
X117320872Y-83623854D01*
X117321368Y-83697751D01*
X117318992Y-83753068D01*
X117313870Y-83781747D01*
X117298833Y-83797849D01*
X117258882Y-83810997D01*
X117213514Y-83807624D01*
X117178639Y-83787097D01*
X117171722Y-83775662D01*
X117156254Y-83733149D01*
X117143761Y-83678365D01*
X117136271Y-83619448D01*
X117129933Y-83525173D01*
X117127357Y-83419596D01*
X117128416Y-83311908D01*
X117132984Y-83211301D01*
X117140934Y-83126965D01*
X117152141Y-83068092D01*
X117159098Y-83046281D01*
X117203811Y-82951350D01*
X117262137Y-82883599D01*
X117330978Y-82844928D01*
X117407235Y-82837234D01*
X117487812Y-82862414D01*
G37*
G36*
X118972347Y-86443465D02*
G01*
X118856026Y-86441838D01*
X118759439Y-86440038D01*
X118681122Y-86438052D01*
X118619609Y-86435862D01*
X118573436Y-86433455D01*
X118541137Y-86430814D01*
X118521248Y-86427926D01*
X118512303Y-86424775D01*
X118506535Y-86418605D01*
X118488327Y-86380439D01*
X118477604Y-86329090D01*
X118477034Y-86313137D01*
X118476318Y-86262880D01*
X118475646Y-86181151D01*
X118475022Y-86069843D01*
X118474450Y-85930847D01*
X118473933Y-85766055D01*
X118473474Y-85577359D01*
X118473077Y-85366651D01*
X118472745Y-85135823D01*
X118472482Y-84886766D01*
X118472291Y-84621374D01*
X118472176Y-84341537D01*
X118472141Y-84049148D01*
X118472188Y-83746099D01*
X118472320Y-83434281D01*
X118472434Y-83231085D01*
X119100172Y-83231085D01*
X119100198Y-83364064D01*
X119100541Y-83489069D01*
X119101214Y-83601679D01*
X119102230Y-83697473D01*
X119103600Y-83772029D01*
X119105337Y-83820928D01*
X119107454Y-83839748D01*
X119116281Y-83842387D01*
X119151963Y-83845694D01*
X119204059Y-83846986D01*
X119239583Y-83849409D01*
X119339542Y-83875050D01*
X119459909Y-83928627D01*
X119600543Y-84010068D01*
X119761301Y-84119305D01*
X119784614Y-84136117D01*
X119909393Y-84226276D01*
X120040052Y-84320939D01*
X120171721Y-84416558D01*
X120299526Y-84509581D01*
X120418595Y-84596460D01*
X120524055Y-84673643D01*
X120611033Y-84737582D01*
X120674657Y-84784726D01*
X120805137Y-84882123D01*
X120170137Y-84887092D01*
X120003913Y-84888119D01*
X119840194Y-84888212D01*
X119704432Y-84886843D01*
X119592959Y-84883717D01*
X119502109Y-84878541D01*
X119428215Y-84871019D01*
X119367609Y-84860859D01*
X119316625Y-84847766D01*
X119271594Y-84831446D01*
X119228851Y-84811605D01*
X119195372Y-84795336D01*
X119151509Y-84776414D01*
X119126879Y-84769041D01*
X119125777Y-84769661D01*
X119120600Y-84793000D01*
X119116376Y-84850213D01*
X119113099Y-84941482D01*
X119110765Y-85066988D01*
X119109368Y-85226913D01*
X119108904Y-85421438D01*
X119108906Y-85438805D01*
X119109144Y-85584462D01*
X119109734Y-85718145D01*
X119110634Y-85836051D01*
X119111799Y-85934376D01*
X119113185Y-86009318D01*
X119114749Y-86057072D01*
X119116446Y-86073836D01*
X119129007Y-86068110D01*
X119163937Y-86048278D01*
X119211942Y-86019161D01*
X119233622Y-86005833D01*
X119261652Y-85990389D01*
X119290414Y-85978904D01*
X119325579Y-85970448D01*
X119372817Y-85964088D01*
X119437799Y-85958896D01*
X119526197Y-85953938D01*
X119643680Y-85948285D01*
X119663527Y-85947420D01*
X119754012Y-85944573D01*
X119870517Y-85942202D01*
X120010146Y-85940292D01*
X120170005Y-85938825D01*
X120347196Y-85937784D01*
X120538824Y-85937153D01*
X120741993Y-85936915D01*
X120953807Y-85937052D01*
X121171370Y-85937549D01*
X121391786Y-85938388D01*
X121612159Y-85939552D01*
X121829593Y-85941024D01*
X122041193Y-85942789D01*
X122244062Y-85944828D01*
X122435304Y-85947125D01*
X122612023Y-85949663D01*
X122771324Y-85952425D01*
X122910310Y-85955395D01*
X123026086Y-85958555D01*
X123115755Y-85961889D01*
X123176422Y-85965380D01*
X123205191Y-85969010D01*
X123212881Y-85971536D01*
X123276444Y-85998672D01*
X123335360Y-86032149D01*
X123350675Y-86042283D01*
X123388556Y-86064837D01*
X123410065Y-86073836D01*
X123410563Y-86073379D01*
X123413517Y-86051317D01*
X123416226Y-85998852D01*
X123418614Y-85919764D01*
X123420604Y-85817830D01*
X123422120Y-85696829D01*
X123423085Y-85560540D01*
X123423424Y-85412740D01*
X123423415Y-85388069D01*
X123422980Y-85241896D01*
X123421944Y-85107857D01*
X123420383Y-84989728D01*
X123418371Y-84891287D01*
X123415983Y-84816309D01*
X123413293Y-84768573D01*
X123410376Y-84751853D01*
X123400518Y-84754890D01*
X123366427Y-84771033D01*
X123319773Y-84796392D01*
X123281600Y-84817034D01*
X123237786Y-84836765D01*
X123190264Y-84852649D01*
X123135150Y-84865096D01*
X123068557Y-84874516D01*
X122986600Y-84881319D01*
X122885394Y-84885916D01*
X122761054Y-84888715D01*
X122609695Y-84890128D01*
X122427431Y-84890565D01*
X122306807Y-84890353D01*
X122175467Y-84889477D01*
X122059206Y-84888001D01*
X121961969Y-84886009D01*
X121887697Y-84883585D01*
X121840334Y-84880812D01*
X121823822Y-84877774D01*
X121824362Y-84876735D01*
X121842646Y-84859385D01*
X121884350Y-84824128D01*
X121946002Y-84773778D01*
X122024130Y-84711144D01*
X122115261Y-84639039D01*
X122215923Y-84560274D01*
X122221780Y-84555715D01*
X122404707Y-84413562D01*
X122562760Y-84291376D01*
X122698291Y-84187596D01*
X122813652Y-84100658D01*
X122911194Y-84028998D01*
X122993268Y-83971054D01*
X123062227Y-83925261D01*
X123120422Y-83890056D01*
X123170205Y-83863877D01*
X123213926Y-83845160D01*
X123253939Y-83832341D01*
X123292594Y-83823857D01*
X123332242Y-83818144D01*
X123423424Y-83807345D01*
X123423424Y-83105179D01*
X123423397Y-83045891D01*
X123423080Y-82897329D01*
X123422440Y-82761564D01*
X123421517Y-82642263D01*
X123420350Y-82543091D01*
X123418979Y-82467714D01*
X123417444Y-82419800D01*
X123415785Y-82403014D01*
X123412027Y-82405574D01*
X123388291Y-82427397D01*
X123346880Y-82467906D01*
X123292227Y-82522727D01*
X123228764Y-82587490D01*
X123157832Y-82657180D01*
X123066723Y-82741698D01*
X122964006Y-82833322D01*
X122857677Y-82924924D01*
X122755727Y-83009373D01*
X122711573Y-83045066D01*
X122466715Y-83242842D01*
X122248629Y-83418705D01*
X122057184Y-83572760D01*
X121892246Y-83705113D01*
X121753684Y-83815870D01*
X121641365Y-83905136D01*
X121555158Y-83973017D01*
X121494931Y-84019618D01*
X121460551Y-84045045D01*
X121388020Y-84095228D01*
X121270551Y-84015381D01*
X121242107Y-83995747D01*
X121178718Y-83951182D01*
X121093016Y-83890341D01*
X120988475Y-83815726D01*
X120868570Y-83729839D01*
X120736777Y-83635182D01*
X120596570Y-83534257D01*
X120451424Y-83429567D01*
X120304814Y-83323613D01*
X120160215Y-83218899D01*
X120021102Y-83117926D01*
X119890950Y-83023196D01*
X119773233Y-82937211D01*
X119745123Y-82916530D01*
X119638255Y-82836264D01*
X119531700Y-82753939D01*
X119432474Y-82675107D01*
X119347589Y-82605318D01*
X119284060Y-82550122D01*
X119277652Y-82544288D01*
X119216228Y-82489210D01*
X119164544Y-82444317D01*
X119127864Y-82414093D01*
X119119266Y-82408296D01*
X119111449Y-82403025D01*
X119109934Y-82410702D01*
X119107860Y-82448319D01*
X119106005Y-82513329D01*
X119104382Y-82601313D01*
X119103003Y-82707848D01*
X119101880Y-82828513D01*
X119101026Y-82958889D01*
X119100453Y-83094553D01*
X119100172Y-83231085D01*
X118472434Y-83231085D01*
X118473402Y-81507055D01*
X119108904Y-81507055D01*
X119109144Y-81639089D01*
X119109905Y-81771169D01*
X119111124Y-81888001D01*
X119112736Y-81985674D01*
X119114673Y-82060281D01*
X119116872Y-82107912D01*
X119119266Y-82124657D01*
X119121167Y-82124313D01*
X119144639Y-82112129D01*
X119181222Y-82087920D01*
X119188958Y-82082888D01*
X119214617Y-82070832D01*
X119249784Y-82060317D01*
X119296568Y-82051262D01*
X119357075Y-82043586D01*
X119433412Y-82037210D01*
X119527685Y-82032051D01*
X119642001Y-82028028D01*
X119778466Y-82025062D01*
X119939188Y-82023071D01*
X120126273Y-82021975D01*
X120341828Y-82021692D01*
X120587959Y-82022142D01*
X120866773Y-82023244D01*
X122076629Y-82028973D01*
X122169676Y-82077257D01*
X122212557Y-82098622D01*
X122251129Y-82115717D01*
X122268031Y-82120233D01*
X122268799Y-82114098D01*
X122270217Y-82078318D01*
X122271653Y-82014263D01*
X122273045Y-81926105D01*
X122274331Y-81818015D01*
X122275449Y-81694166D01*
X122276338Y-81558729D01*
X122276348Y-81556914D01*
X123534329Y-81556914D01*
X123555890Y-81682891D01*
X123609657Y-81800332D01*
X123695071Y-81905694D01*
X123709599Y-81919409D01*
X123808864Y-81991951D01*
X123916899Y-82033111D01*
X124041027Y-82045856D01*
X124062660Y-82045468D01*
X124184709Y-82028394D01*
X124292527Y-81983586D01*
X124394933Y-81907596D01*
X124408449Y-81894898D01*
X124486913Y-81795284D01*
X124538321Y-81679783D01*
X124561296Y-81555217D01*
X124554460Y-81428410D01*
X124516433Y-81306185D01*
X124490568Y-81253999D01*
X124433478Y-81167669D01*
X124363771Y-81101879D01*
X124272414Y-81047037D01*
X124233077Y-81029304D01*
X124109312Y-80996553D01*
X123986102Y-80995863D01*
X123868334Y-81025549D01*
X123760891Y-81083929D01*
X123668659Y-81169318D01*
X123596521Y-81280032D01*
X123590058Y-81293535D01*
X123545532Y-81425947D01*
X123534329Y-81556914D01*
X122276348Y-81556914D01*
X122279336Y-81002534D01*
X120786545Y-80997671D01*
X119293754Y-80992809D01*
X119209766Y-80941130D01*
X119173857Y-80919514D01*
X119135573Y-80897843D01*
X119117341Y-80889452D01*
X119115537Y-80903755D01*
X119113733Y-80949141D01*
X119112137Y-81021805D01*
X119110802Y-81117837D01*
X119109783Y-81233329D01*
X119109132Y-81364371D01*
X119108904Y-81507055D01*
X118473402Y-81507055D01*
X118473904Y-80612055D01*
X118513526Y-80572431D01*
X118553149Y-80532808D01*
X124215000Y-80532808D01*
X124342479Y-80574568D01*
X124470089Y-80626304D01*
X124622436Y-80718470D01*
X124753688Y-80834063D01*
X124861901Y-80969368D01*
X124945132Y-81120668D01*
X125001439Y-81284248D01*
X125028876Y-81456391D01*
X125025502Y-81633383D01*
X124989373Y-81811507D01*
X124977209Y-81848962D01*
X124907993Y-82000973D01*
X124813050Y-82141160D01*
X124697213Y-82264935D01*
X124565312Y-82367712D01*
X124422180Y-82444903D01*
X124272648Y-82491922D01*
X124180205Y-82510520D01*
X124176838Y-84432911D01*
X124176363Y-84735313D01*
X124175974Y-85009335D01*
X124175557Y-85252290D01*
X124174988Y-85466054D01*
X124174147Y-85652504D01*
X124172910Y-85813516D01*
X124171156Y-85950967D01*
X124168762Y-86066733D01*
X124165607Y-86162692D01*
X124161569Y-86240718D01*
X124156524Y-86302690D01*
X124150351Y-86350482D01*
X124142929Y-86385973D01*
X124134134Y-86411038D01*
X124123844Y-86427554D01*
X124111938Y-86437398D01*
X124098294Y-86442445D01*
X124082788Y-86444573D01*
X124065300Y-86445659D01*
X124045706Y-86447577D01*
X124041027Y-86447912D01*
X124037858Y-86448139D01*
X123996551Y-86449255D01*
X123923295Y-86450268D01*
X123820024Y-86451174D01*
X123688669Y-86451971D01*
X123531165Y-86452653D01*
X123349444Y-86453218D01*
X123145438Y-86453661D01*
X122921080Y-86453979D01*
X122678303Y-86454168D01*
X122419041Y-86454223D01*
X122145225Y-86454143D01*
X121858789Y-86453921D01*
X121561665Y-86453556D01*
X121255787Y-86453042D01*
X121149018Y-86452836D01*
X120789161Y-86452082D01*
X120462223Y-86451291D01*
X120166740Y-86450449D01*
X119901246Y-86449540D01*
X119664277Y-86448549D01*
X119454368Y-86447461D01*
X119270053Y-86446261D01*
X119116446Y-86444988D01*
X119109868Y-86444934D01*
X118972347Y-86443465D01*
G37*
G36*
X117248294Y-77971480D02*
G01*
X117276815Y-77988459D01*
X117281250Y-78008121D01*
X117286460Y-78057804D01*
X117291525Y-78130909D01*
X117296038Y-78221429D01*
X117299589Y-78323356D01*
X117308287Y-78636507D01*
X117499657Y-78636507D01*
X117504524Y-78425618D01*
X117504739Y-78416457D01*
X117507578Y-78327814D01*
X117511775Y-78266840D01*
X117518375Y-78226976D01*
X117528424Y-78201664D01*
X117542967Y-78184344D01*
X117559403Y-78172672D01*
X117604766Y-78162703D01*
X117646295Y-78177614D01*
X117671313Y-78214433D01*
X117674578Y-78235790D01*
X117678391Y-78288630D01*
X117681041Y-78360348D01*
X117682091Y-78441741D01*
X117682328Y-78629715D01*
X117764965Y-78624412D01*
X117847602Y-78619110D01*
X117858132Y-78323356D01*
X117861152Y-78249071D01*
X117866042Y-78156484D01*
X117871415Y-78079338D01*
X117876803Y-78024080D01*
X117881740Y-77997157D01*
X117895308Y-77981238D01*
X117933118Y-77967921D01*
X117976772Y-77970459D01*
X118010352Y-77989766D01*
X118016731Y-78010798D01*
X118023764Y-78064344D01*
X118030388Y-78146263D01*
X118036335Y-78253154D01*
X118041336Y-78381619D01*
X118043585Y-78452788D01*
X118046546Y-78558257D01*
X118047818Y-78636170D01*
X118047146Y-78691190D01*
X118044280Y-78727976D01*
X118038966Y-78751190D01*
X118030952Y-78765493D01*
X118019984Y-78775546D01*
X118012663Y-78779948D01*
X117989594Y-78787249D01*
X117951922Y-78792737D01*
X117895609Y-78796647D01*
X117816619Y-78799210D01*
X117710915Y-78800659D01*
X117574460Y-78801227D01*
X117491196Y-78801275D01*
X117379085Y-78800910D01*
X117294928Y-78799734D01*
X117234468Y-78797451D01*
X117193445Y-78793766D01*
X117167600Y-78788383D01*
X117152673Y-78781004D01*
X117144407Y-78771336D01*
X117138583Y-78748266D01*
X117133232Y-78695540D01*
X117129290Y-78620803D01*
X117126741Y-78530363D01*
X117125569Y-78430529D01*
X117125756Y-78327612D01*
X117127285Y-78227920D01*
X117130140Y-78137762D01*
X117134304Y-78063448D01*
X117139761Y-78011287D01*
X117146493Y-77987589D01*
X117162378Y-77977106D01*
X117204490Y-77967658D01*
X117248294Y-77971480D01*
G37*
G36*
X117843413Y-86466413D02*
G01*
X117774638Y-86468764D01*
X117688513Y-86469037D01*
X117591557Y-86467494D01*
X117490287Y-86464398D01*
X117391221Y-86460010D01*
X117300878Y-86454595D01*
X117225775Y-86448413D01*
X117172431Y-86441728D01*
X117147363Y-86434802D01*
X117140501Y-86424189D01*
X117132080Y-86384797D01*
X117127249Y-86316025D01*
X117126751Y-86282603D01*
X117294529Y-86282603D01*
X117861298Y-86282603D01*
X117852113Y-86102640D01*
X117849307Y-86057868D01*
X117834631Y-85940166D01*
X117809281Y-85848648D01*
X117771224Y-85777513D01*
X117718430Y-85720961D01*
X117648494Y-85674716D01*
X117577468Y-85658145D01*
X117506484Y-85675437D01*
X117431844Y-85726664D01*
X117422846Y-85735108D01*
X117376869Y-85793914D01*
X117343346Y-85861242D01*
X117337376Y-85881164D01*
X117323716Y-85946767D01*
X117312105Y-86028414D01*
X117304565Y-86112979D01*
X117294529Y-86282603D01*
X117126751Y-86282603D01*
X117125747Y-86215233D01*
X117128076Y-86093859D01*
X117140045Y-85938917D01*
X117162226Y-85816722D01*
X117194663Y-85726952D01*
X117208639Y-85702528D01*
X117272466Y-85624396D01*
X117355225Y-85556223D01*
X117444938Y-85508465D01*
X117525584Y-85488561D01*
X117634592Y-85489372D01*
X117741869Y-85517223D01*
X117838367Y-85569513D01*
X117915041Y-85643641D01*
X117955615Y-85714033D01*
X117993243Y-85822302D01*
X118020564Y-85955714D01*
X118036677Y-86109693D01*
X118040677Y-86279666D01*
X118037618Y-86350488D01*
X118025740Y-86402957D01*
X117998635Y-86434597D01*
X117949783Y-86452562D01*
X117872663Y-86464008D01*
X117861298Y-86464942D01*
X117843413Y-86466413D01*
G37*
G36*
X117730675Y-82211798D02*
G01*
X117826614Y-82213940D01*
X117907238Y-82217606D01*
X117966068Y-82222832D01*
X117996623Y-82229653D01*
X118019306Y-82249760D01*
X118028677Y-82295673D01*
X118009179Y-82360687D01*
X117988085Y-82406984D01*
X117592944Y-82400173D01*
X117533118Y-82399106D01*
X117418373Y-82396662D01*
X117331822Y-82393884D01*
X117268863Y-82390343D01*
X117224897Y-82385612D01*
X117195322Y-82379264D01*
X117175538Y-82370870D01*
X117160944Y-82360003D01*
X117156580Y-82355861D01*
X117131424Y-82311852D01*
X117138860Y-82268568D01*
X117177808Y-82234082D01*
X117196385Y-82228999D01*
X117248107Y-82222729D01*
X117323401Y-82217774D01*
X117415786Y-82214169D01*
X117518781Y-82211947D01*
X117625904Y-82211145D01*
X117730675Y-82211798D01*
G37*
G36*
X117557300Y-80758900D02*
G01*
X117593795Y-80776775D01*
X117612273Y-80811201D01*
X117618114Y-80866947D01*
X117616699Y-80948784D01*
X117616249Y-80961779D01*
X117612114Y-81044195D01*
X117605416Y-81098988D01*
X117594159Y-81132508D01*
X117576348Y-81151106D01*
X117549988Y-81161131D01*
X117518634Y-81164335D01*
X117475872Y-81145113D01*
X117447973Y-81094806D01*
X117435227Y-81013788D01*
X117430067Y-80958017D01*
X117419509Y-80923356D01*
X117401734Y-80910499D01*
X117372598Y-80914162D01*
X117341407Y-80945461D01*
X117319094Y-81002376D01*
X117306772Y-81080097D01*
X117305554Y-81173817D01*
X117316552Y-81278725D01*
X117332116Y-81358840D01*
X117356473Y-81433496D01*
X117390770Y-81490640D01*
X117439483Y-81539782D01*
X117507079Y-81584404D01*
X117578124Y-81600884D01*
X117649421Y-81583476D01*
X117724374Y-81532088D01*
X117742972Y-81514549D01*
X117784485Y-81461403D01*
X117814263Y-81395671D01*
X117833746Y-81311930D01*
X117844379Y-81204758D01*
X117847602Y-81068729D01*
X117847608Y-81058451D01*
X117848767Y-80957534D01*
X117852929Y-80886321D01*
X117861517Y-80840153D01*
X117875954Y-80814372D01*
X117897664Y-80804321D01*
X117928070Y-80805342D01*
X117947584Y-80810783D01*
X117980523Y-80839063D01*
X118004118Y-80892715D01*
X118019406Y-80974693D01*
X118027426Y-81087949D01*
X118027991Y-81203692D01*
X118013090Y-81360951D01*
X117978242Y-81491981D01*
X117922618Y-81598723D01*
X117845388Y-81683117D01*
X117745724Y-81747103D01*
X117722178Y-81758056D01*
X117624980Y-81788126D01*
X117533471Y-81787986D01*
X117438767Y-81757949D01*
X117354161Y-81707848D01*
X117262580Y-81620010D01*
X117190956Y-81509279D01*
X117143473Y-81380996D01*
X117138680Y-81351810D01*
X117133743Y-81288718D01*
X117131250Y-81208968D01*
X117131682Y-81123085D01*
X117133364Y-81067006D01*
X117137926Y-80991270D01*
X117145946Y-80935329D01*
X117159036Y-80889656D01*
X117178808Y-80844729D01*
X117221301Y-80758973D01*
X117397011Y-80754043D01*
X117408733Y-80753720D01*
X117497407Y-80752805D01*
X117557300Y-80758900D01*
G37*
G36*
X119451772Y-76983759D02*
G01*
X119484180Y-76998430D01*
X119538769Y-77026612D01*
X119610485Y-77065411D01*
X119694273Y-77111936D01*
X119785079Y-77163294D01*
X119877849Y-77216592D01*
X119967529Y-77268939D01*
X120049064Y-77317442D01*
X120117400Y-77359209D01*
X120167484Y-77391347D01*
X120194259Y-77410965D01*
X120195568Y-77413735D01*
X120187588Y-77438811D01*
X120161947Y-77481547D01*
X120122638Y-77535027D01*
X120071947Y-77602508D01*
X119969353Y-77770354D01*
X119899435Y-77937763D01*
X119862138Y-78102944D01*
X119857405Y-78264107D01*
X119885180Y-78419460D01*
X119945409Y-78567214D01*
X120038035Y-78705576D01*
X120163003Y-78832757D01*
X120225295Y-78881315D01*
X120378380Y-78970489D01*
X120558751Y-79040556D01*
X120764926Y-79091110D01*
X120995425Y-79121742D01*
X121248767Y-79132043D01*
X121436233Y-79126902D01*
X121687701Y-79100849D01*
X121912559Y-79052723D01*
X122111030Y-78982454D01*
X122283340Y-78889976D01*
X122429713Y-78775220D01*
X122495294Y-78707343D01*
X122576512Y-78593714D01*
X122631252Y-78467427D01*
X122663988Y-78319783D01*
X122670509Y-78263299D01*
X122669090Y-78095602D01*
X122634722Y-77935898D01*
X122566806Y-77782114D01*
X122464741Y-77632181D01*
X122455080Y-77620067D01*
X122416695Y-77570248D01*
X122389754Y-77532535D01*
X122379589Y-77514310D01*
X122379987Y-77513498D01*
X122398033Y-77498442D01*
X122439503Y-77468224D01*
X122499665Y-77426017D01*
X122573784Y-77374997D01*
X122657128Y-77318336D01*
X122744962Y-77259210D01*
X122832553Y-77200792D01*
X122915168Y-77146256D01*
X122988073Y-77098777D01*
X123046535Y-77061529D01*
X123085820Y-77037686D01*
X123101194Y-77030422D01*
X123103040Y-77033681D01*
X123116688Y-77061573D01*
X123141053Y-77113040D01*
X123173422Y-77182322D01*
X123211080Y-77263658D01*
X123268664Y-77391769D01*
X123339383Y-77563308D01*
X123393392Y-77717193D01*
X123432414Y-77860072D01*
X123458171Y-77998593D01*
X123472385Y-78139406D01*
X123476780Y-78289157D01*
X123469200Y-78464058D01*
X123431407Y-78704011D01*
X123361465Y-78932134D01*
X123258906Y-79149565D01*
X123123261Y-79357440D01*
X122954060Y-79556898D01*
X122773468Y-79726035D01*
X122567114Y-79876108D01*
X122343032Y-79997943D01*
X122100212Y-80091926D01*
X121837644Y-80158445D01*
X121554318Y-80197887D01*
X121249223Y-80210640D01*
X121139679Y-80208637D01*
X120839055Y-80182643D01*
X120555386Y-80126480D01*
X120288088Y-80039975D01*
X120036579Y-79922951D01*
X119800274Y-79775233D01*
X119772231Y-79754857D01*
X119585360Y-79596640D01*
X119422792Y-79418049D01*
X119286586Y-79222433D01*
X119178803Y-79013140D01*
X119101503Y-78793519D01*
X119056747Y-78566918D01*
X119052044Y-78523893D01*
X119041640Y-78316117D01*
X119048576Y-78098391D01*
X119071998Y-77884532D01*
X119111053Y-77688356D01*
X119111081Y-77688248D01*
X119128199Y-77634509D01*
X119156095Y-77561924D01*
X119192087Y-77476156D01*
X119233491Y-77382870D01*
X119277626Y-77287729D01*
X119321810Y-77196396D01*
X119363360Y-77114535D01*
X119399595Y-77047810D01*
X119427830Y-77001884D01*
X119445386Y-76982421D01*
X119451772Y-76983759D01*
G37*
G36*
X117712368Y-79306312D02*
G01*
X117820065Y-79306837D01*
X117900218Y-79308775D01*
X117956890Y-79313030D01*
X117994145Y-79320506D01*
X118016047Y-79332108D01*
X118026660Y-79348740D01*
X118030047Y-79371307D01*
X118030274Y-79400713D01*
X118029438Y-79418632D01*
X118021104Y-79447647D01*
X118000185Y-79468766D01*
X117962243Y-79483353D01*
X117902840Y-79492771D01*
X117817536Y-79498381D01*
X117701893Y-79501548D01*
X117436099Y-79506370D01*
X117702741Y-79800086D01*
X117794211Y-79901075D01*
X117875737Y-79992017D01*
X117937941Y-80063142D01*
X117983071Y-80117489D01*
X118013376Y-80158092D01*
X118031104Y-80187989D01*
X118038504Y-80210217D01*
X118037824Y-80227812D01*
X118031313Y-80243810D01*
X118024736Y-80254561D01*
X118007806Y-80271681D01*
X117981698Y-80284513D01*
X117942144Y-80293599D01*
X117884877Y-80299486D01*
X117805631Y-80302716D01*
X117700139Y-80303834D01*
X117564134Y-80303383D01*
X117534202Y-80303158D01*
X117416727Y-80301717D01*
X117328222Y-80299327D01*
X117263910Y-80295624D01*
X117219013Y-80290237D01*
X117188751Y-80282802D01*
X117168346Y-80272949D01*
X117160069Y-80266871D01*
X117131410Y-80226570D01*
X117127702Y-80180756D01*
X117150676Y-80142229D01*
X117178843Y-80132877D01*
X117238450Y-80124321D01*
X117325908Y-80117025D01*
X117437731Y-80111362D01*
X117485454Y-80109291D01*
X117570200Y-80104316D01*
X117638159Y-80098596D01*
X117683334Y-80092687D01*
X117699726Y-80087142D01*
X117697155Y-80079062D01*
X117674248Y-80044876D01*
X117629295Y-79990053D01*
X117564344Y-79917025D01*
X117481441Y-79828219D01*
X117443235Y-79787650D01*
X117359922Y-79696368D01*
X117284364Y-79609848D01*
X117219857Y-79532130D01*
X117169699Y-79467254D01*
X117137186Y-79419260D01*
X117125616Y-79392188D01*
X117135187Y-79364648D01*
X117164282Y-79333384D01*
X117176788Y-79326525D01*
X117201375Y-79319230D01*
X117238924Y-79313862D01*
X117293800Y-79310153D01*
X117370370Y-79307835D01*
X117472998Y-79306640D01*
X117606050Y-79306301D01*
X117712368Y-79306312D01*
G37*
G36*
X117999778Y-84201441D02*
G01*
X118025659Y-84243039D01*
X118026058Y-84244623D01*
X118030036Y-84279312D01*
X118033315Y-84341974D01*
X118035713Y-84426373D01*
X118037047Y-84526269D01*
X118037136Y-84635427D01*
X118036675Y-84704923D01*
X118035333Y-84808244D01*
X118033014Y-84884160D01*
X118029318Y-84937457D01*
X118023848Y-84972918D01*
X118016205Y-84995327D01*
X118005991Y-85009468D01*
X118002205Y-85012931D01*
X117987814Y-85021475D01*
X117965150Y-85027728D01*
X117929793Y-85031928D01*
X117877326Y-85034317D01*
X117803329Y-85035135D01*
X117703385Y-85034622D01*
X117573075Y-85033019D01*
X117555986Y-85032767D01*
X117423646Y-85029951D01*
X117313476Y-85026003D01*
X117228632Y-85021101D01*
X117172269Y-85015421D01*
X117147542Y-85009142D01*
X117143743Y-85004111D01*
X117136714Y-84979273D01*
X117131602Y-84932982D01*
X117128216Y-84861907D01*
X117126363Y-84762717D01*
X117125854Y-84632082D01*
X117125893Y-84608051D01*
X117126663Y-84499058D01*
X117128282Y-84401240D01*
X117130590Y-84320502D01*
X117133426Y-84262749D01*
X117136631Y-84233885D01*
X117144143Y-84216457D01*
X117177607Y-84188160D01*
X117221525Y-84182138D01*
X117261917Y-84201952D01*
X117262153Y-84202189D01*
X117272782Y-84217731D01*
X117280769Y-84243167D01*
X117286616Y-84283477D01*
X117290825Y-84343642D01*
X117293898Y-84428641D01*
X117296337Y-84543454D01*
X117301785Y-84856027D01*
X117508356Y-84856027D01*
X117508356Y-84663514D01*
X117509091Y-84586286D01*
X117513366Y-84507363D01*
X117523050Y-84454590D01*
X117539936Y-84423019D01*
X117565814Y-84407704D01*
X117602478Y-84403699D01*
X117635303Y-84405787D01*
X117659329Y-84420453D01*
X117671455Y-84458065D01*
X117673893Y-84474566D01*
X117678221Y-84528817D01*
X117681212Y-84601419D01*
X117682328Y-84681330D01*
X117682632Y-84726410D01*
X117684323Y-84791990D01*
X117687165Y-84838740D01*
X117690780Y-84858680D01*
X117695442Y-84860516D01*
X117726120Y-84861515D01*
X117773417Y-84857230D01*
X117847602Y-84847329D01*
X117856915Y-84538534D01*
X117859991Y-84446399D01*
X117864218Y-84354872D01*
X117869247Y-84289482D01*
X117875622Y-84245354D01*
X117883887Y-84217612D01*
X117894587Y-84201381D01*
X117914699Y-84187154D01*
X117958785Y-84181539D01*
X117999778Y-84201441D01*
G37*
G36*
X117977758Y-73765297D02*
G01*
X118015987Y-73793491D01*
X118036196Y-73834974D01*
X118031424Y-73876206D01*
X118031391Y-73876268D01*
X118003620Y-73903636D01*
X117945238Y-73941382D01*
X117858441Y-73988319D01*
X117745426Y-74043258D01*
X117608390Y-74105011D01*
X117553379Y-74129687D01*
X117494106Y-74158082D01*
X117453702Y-74179684D01*
X117438767Y-74191140D01*
X117449462Y-74200924D01*
X117485506Y-74223851D01*
X117540966Y-74255625D01*
X117609582Y-74292530D01*
X117666087Y-74323056D01*
X117732616Y-74361665D01*
X117783882Y-74394510D01*
X117811944Y-74416716D01*
X117828699Y-74437259D01*
X117833474Y-74460931D01*
X117815892Y-74493694D01*
X117799959Y-74510216D01*
X117755926Y-74542769D01*
X117694038Y-74581200D01*
X117622309Y-74620270D01*
X117568062Y-74648652D01*
X117510244Y-74681022D01*
X117470831Y-74705713D01*
X117456244Y-74718911D01*
X117458112Y-74721634D01*
X117482675Y-74738005D01*
X117531283Y-74764695D01*
X117598273Y-74798688D01*
X117677979Y-74836967D01*
X117746660Y-74869181D01*
X117841145Y-74913972D01*
X117910547Y-74948030D01*
X117958968Y-74973783D01*
X117990510Y-74993660D01*
X118009277Y-75010089D01*
X118019369Y-75025498D01*
X118024891Y-75042316D01*
X118025507Y-75044859D01*
X118024736Y-75096208D01*
X117995820Y-75128083D01*
X117940949Y-75137985D01*
X117933369Y-75136854D01*
X117893312Y-75124351D01*
X117829793Y-75100102D01*
X117748559Y-75066675D01*
X117655353Y-75026640D01*
X117555921Y-74982567D01*
X117456008Y-74937025D01*
X117361359Y-74892585D01*
X117277718Y-74851815D01*
X117210832Y-74817286D01*
X117166444Y-74791566D01*
X117135618Y-74761364D01*
X117128915Y-74717428D01*
X117128950Y-74717131D01*
X117135601Y-74695173D01*
X117153300Y-74673433D01*
X117187129Y-74648095D01*
X117242171Y-74615345D01*
X117323506Y-74571369D01*
X117327617Y-74569195D01*
X117400285Y-74530463D01*
X117460755Y-74497714D01*
X117502821Y-74474341D01*
X117520279Y-74463738D01*
X117520198Y-74462701D01*
X117502659Y-74449006D01*
X117460963Y-74423013D01*
X117400519Y-74387979D01*
X117326739Y-74347163D01*
X117267899Y-74315031D01*
X117203685Y-74278415D01*
X117162222Y-74251325D01*
X117138637Y-74229928D01*
X117128059Y-74210390D01*
X117125616Y-74188876D01*
X117126775Y-74172468D01*
X117134432Y-74153399D01*
X117153623Y-74134028D01*
X117189312Y-74110677D01*
X117246461Y-74079666D01*
X117330034Y-74037315D01*
X117464050Y-73971477D01*
X117592675Y-73910703D01*
X117708678Y-73858336D01*
X117808420Y-73815923D01*
X117888260Y-73785010D01*
X117944557Y-73767145D01*
X117973669Y-73763873D01*
X117977758Y-73765297D01*
G37*
G36*
X120566313Y-73736206D02*
G01*
X120460270Y-73737394D01*
X120376496Y-73736642D01*
X120308550Y-73733659D01*
X120249990Y-73728155D01*
X120194375Y-73719837D01*
X120135261Y-73708414D01*
X119990831Y-73672596D01*
X119781763Y-73596920D01*
X119595396Y-73498659D01*
X119433235Y-73379196D01*
X119296783Y-73239913D01*
X119187544Y-73082191D01*
X119107022Y-72907414D01*
X119056720Y-72716964D01*
X119052495Y-72684654D01*
X119048445Y-72598484D01*
X119050145Y-72495606D01*
X119056980Y-72387762D01*
X119068242Y-72287522D01*
X119824673Y-72287522D01*
X119828124Y-72343091D01*
X119838979Y-72387464D01*
X119858982Y-72432552D01*
X119902483Y-72498760D01*
X119984533Y-72572962D01*
X120094260Y-72630433D01*
X120232328Y-72671354D01*
X120399397Y-72695907D01*
X120596130Y-72704272D01*
X120823189Y-72696631D01*
X120928549Y-72687881D01*
X121105066Y-72661592D01*
X121252274Y-72621922D01*
X121372352Y-72568013D01*
X121467479Y-72499006D01*
X121539835Y-72414041D01*
X121550730Y-72397120D01*
X121570580Y-72359589D01*
X121581838Y-72320031D01*
X121586863Y-72267536D01*
X121588013Y-72191190D01*
X121587759Y-72149101D01*
X121584456Y-72083489D01*
X121574615Y-72030953D01*
X121554862Y-71977019D01*
X121521823Y-71907214D01*
X121455633Y-71773288D01*
X119983150Y-71773288D01*
X119908260Y-71920986D01*
X119889383Y-71958766D01*
X119859391Y-72025027D01*
X119841422Y-72080545D01*
X119831766Y-72138580D01*
X119826713Y-72212390D01*
X119824673Y-72287522D01*
X119068242Y-72287522D01*
X119068335Y-72286692D01*
X119083594Y-72204137D01*
X119104042Y-72134858D01*
X119169587Y-71984809D01*
X119267268Y-71822997D01*
X119284504Y-71797478D01*
X119311093Y-71755798D01*
X119320549Y-71732747D01*
X119314683Y-71721317D01*
X119295305Y-71714502D01*
X119282194Y-71711767D01*
X119232661Y-71706244D01*
X119174143Y-71703936D01*
X119091506Y-71703699D01*
X119091506Y-70641880D01*
X119179849Y-70686646D01*
X119213444Y-70701793D01*
X119285282Y-70726100D01*
X119349472Y-70739022D01*
X119364177Y-70740407D01*
X119438848Y-70747599D01*
X119509041Y-70754555D01*
X119520028Y-70755130D01*
X119565655Y-70756150D01*
X119642568Y-70757140D01*
X119748510Y-70758092D01*
X119881224Y-70758995D01*
X120038452Y-70759840D01*
X120217938Y-70760619D01*
X120417424Y-70761322D01*
X120634653Y-70761938D01*
X120867368Y-70762460D01*
X121113311Y-70762878D01*
X121370226Y-70763182D01*
X121635856Y-70763362D01*
X123684383Y-70764247D01*
X123684383Y-71329657D01*
X123684300Y-71415851D01*
X123683844Y-71545255D01*
X123683035Y-71660293D01*
X123681924Y-71756879D01*
X123680561Y-71830927D01*
X123679000Y-71878352D01*
X123677290Y-71895068D01*
X123666913Y-71891185D01*
X123632785Y-71875049D01*
X123584572Y-71850645D01*
X123565744Y-71841344D01*
X123518343Y-71822855D01*
X123462759Y-71809382D01*
X123390122Y-71799096D01*
X123291562Y-71790166D01*
X123237092Y-71786792D01*
X123151511Y-71783214D01*
X123048438Y-71780178D01*
X122932627Y-71777705D01*
X122808830Y-71775819D01*
X122681798Y-71774542D01*
X122556285Y-71773896D01*
X122437043Y-71773903D01*
X122328824Y-71774587D01*
X122236382Y-71775970D01*
X122164467Y-71778074D01*
X122117833Y-71780921D01*
X122101232Y-71784535D01*
X122109489Y-71802501D01*
X122132386Y-71841134D01*
X122164787Y-71891531D01*
X122204254Y-71955328D01*
X122254383Y-72060305D01*
X122288013Y-72173512D01*
X122309620Y-72307817D01*
X122320183Y-72413019D01*
X122327506Y-72558723D01*
X122322271Y-72684156D01*
X122303505Y-72797155D01*
X122270233Y-72905555D01*
X122221483Y-73017192D01*
X122144177Y-73150332D01*
X122024565Y-73296054D01*
X121877701Y-73421620D01*
X121703062Y-73527392D01*
X121500126Y-73613736D01*
X121268372Y-73681013D01*
X121226502Y-73690515D01*
X121161621Y-73703313D01*
X121096196Y-73713030D01*
X121023377Y-73720291D01*
X120936314Y-73725719D01*
X120828156Y-73729941D01*
X120692054Y-73733580D01*
X120596130Y-73735583D01*
X120566313Y-73736206D01*
G37*
G36*
X117605436Y-70646482D02*
G01*
X118003361Y-70651164D01*
X118020498Y-70699925D01*
X118022215Y-70704926D01*
X118031160Y-70747853D01*
X118021588Y-70777556D01*
X117989463Y-70796576D01*
X117930749Y-70807458D01*
X117841411Y-70812742D01*
X117682328Y-70817744D01*
X117682328Y-71442740D01*
X117817635Y-71442740D01*
X117902105Y-71447147D01*
X117977182Y-71464779D01*
X118020477Y-71496029D01*
X118032184Y-71541055D01*
X118012501Y-71600017D01*
X118008515Y-71606486D01*
X117998255Y-71615825D01*
X117980107Y-71622705D01*
X117949588Y-71627503D01*
X117902212Y-71630592D01*
X117833496Y-71632350D01*
X117738955Y-71633150D01*
X117614104Y-71633369D01*
X117489973Y-71632619D01*
X117375396Y-71630195D01*
X117282570Y-71626279D01*
X117215840Y-71621055D01*
X117179548Y-71614712D01*
X117140717Y-71590310D01*
X117124293Y-71548711D01*
X117140154Y-71498963D01*
X117159937Y-71481315D01*
X117214004Y-71460738D01*
X117292865Y-71447453D01*
X117390809Y-71442740D01*
X117508356Y-71442740D01*
X117508356Y-70816438D01*
X117350637Y-70816438D01*
X117275616Y-70815072D01*
X117203079Y-70808223D01*
X117156972Y-70794157D01*
X117132687Y-70771265D01*
X117125616Y-70737940D01*
X117125716Y-70731102D01*
X117129658Y-70703789D01*
X117142100Y-70682689D01*
X117166795Y-70667085D01*
X117207497Y-70656263D01*
X117267958Y-70649507D01*
X117351933Y-70646102D01*
X117463175Y-70645332D01*
X117605436Y-70646482D01*
G37*
G36*
X117904916Y-73233352D02*
G01*
X117953430Y-73235813D01*
X117985539Y-73239979D01*
X118005539Y-73246161D01*
X118017725Y-73254667D01*
X118026393Y-73265809D01*
X118035486Y-73281116D01*
X118040682Y-73310585D01*
X118025187Y-73349279D01*
X118000211Y-73396948D01*
X117576174Y-73392773D01*
X117497917Y-73391854D01*
X117367159Y-73389350D01*
X117268015Y-73385848D01*
X117198372Y-73381230D01*
X117156118Y-73375376D01*
X117139143Y-73368169D01*
X117131275Y-73349678D01*
X117127117Y-73300631D01*
X117139285Y-73257491D01*
X117146641Y-73252864D01*
X117177384Y-73246568D01*
X117233487Y-73241604D01*
X117317307Y-73237845D01*
X117431200Y-73235160D01*
X117577522Y-73233420D01*
X117617984Y-73233100D01*
X117741488Y-73232305D01*
X117835700Y-73232286D01*
X117904916Y-73233352D01*
G37*
G36*
X117973459Y-71939843D02*
G01*
X118021575Y-71956732D01*
X118032847Y-72408674D01*
X118034907Y-72494090D01*
X118037376Y-72615048D01*
X118038398Y-72707742D01*
X118037839Y-72776281D01*
X118035563Y-72824775D01*
X118031438Y-72857330D01*
X118025330Y-72878056D01*
X118017103Y-72891062D01*
X117980450Y-72915209D01*
X117929356Y-72918403D01*
X117883639Y-72894168D01*
X117871117Y-72874527D01*
X117862296Y-72838299D01*
X117857652Y-72780316D01*
X117856301Y-72694100D01*
X117856301Y-72521370D01*
X117529624Y-72521370D01*
X117421281Y-72520989D01*
X117328614Y-72519441D01*
X117261471Y-72516360D01*
X117214962Y-72511382D01*
X117184195Y-72504145D01*
X117164282Y-72494287D01*
X117141120Y-72473622D01*
X117126804Y-72433116D01*
X117143625Y-72381048D01*
X117145067Y-72378462D01*
X117153946Y-72367590D01*
X117169209Y-72359593D01*
X117195589Y-72354033D01*
X117237823Y-72350472D01*
X117300645Y-72348471D01*
X117388791Y-72347593D01*
X117506995Y-72347397D01*
X117852355Y-72347397D01*
X117859110Y-72164915D01*
X117861066Y-72121321D01*
X117868847Y-72033090D01*
X117882130Y-71974464D01*
X117902760Y-71941805D01*
X117932588Y-71931477D01*
X117973459Y-71939843D01*
G37*
G36*
X119908353Y-76935655D02*
G01*
X119805583Y-76914863D01*
X119714258Y-76885561D01*
X119550997Y-76806645D01*
X119406012Y-76700364D01*
X119281725Y-76569495D01*
X119180559Y-76416815D01*
X119104938Y-76245101D01*
X119057283Y-76057130D01*
X119048728Y-76000672D01*
X119043368Y-75941887D01*
X119042972Y-75880565D01*
X119047532Y-75806070D01*
X119057042Y-75707769D01*
X119059886Y-75683078D01*
X119082515Y-75573656D01*
X119753366Y-75573656D01*
X119758021Y-75662353D01*
X119778303Y-75757726D01*
X119817780Y-75836641D01*
X119879835Y-75908039D01*
X119886358Y-75914089D01*
X119973530Y-75972601D01*
X120066987Y-75998185D01*
X120162852Y-75991076D01*
X120257247Y-75951510D01*
X120346296Y-75879721D01*
X120392524Y-75827238D01*
X120432936Y-75765345D01*
X120461095Y-75695851D01*
X120478931Y-75612032D01*
X120488376Y-75507163D01*
X120491360Y-75374520D01*
X120491986Y-75139657D01*
X120238600Y-75134862D01*
X119985215Y-75130066D01*
X119914139Y-75199737D01*
X119889236Y-75226560D01*
X119838174Y-75293298D01*
X119797833Y-75360175D01*
X119793643Y-75368703D01*
X119768525Y-75430925D01*
X119756274Y-75493601D01*
X119753366Y-75573656D01*
X119082515Y-75573656D01*
X119095618Y-75510296D01*
X119159411Y-75350121D01*
X119254504Y-75194131D01*
X119334357Y-75082227D01*
X119212932Y-75070033D01*
X119091506Y-75057838D01*
X119091506Y-74749185D01*
X119091695Y-74689403D01*
X119093062Y-74564158D01*
X119095534Y-74438137D01*
X119098854Y-74323196D01*
X119102762Y-74231193D01*
X119114019Y-74021854D01*
X119283943Y-74110014D01*
X120244608Y-74124344D01*
X120294088Y-74125089D01*
X120525380Y-74128822D01*
X120725350Y-74132610D01*
X120896900Y-74136639D01*
X121042931Y-74141099D01*
X121166346Y-74146176D01*
X121270045Y-74152059D01*
X121356929Y-74158936D01*
X121429901Y-74166994D01*
X121491862Y-74176423D01*
X121545712Y-74187410D01*
X121594354Y-74200142D01*
X121640689Y-74214809D01*
X121684743Y-74230218D01*
X121789726Y-74272519D01*
X121874234Y-74317874D01*
X121948547Y-74372400D01*
X122022945Y-74442211D01*
X122036011Y-74455808D01*
X122129201Y-74572171D01*
X122203191Y-74704732D01*
X122259497Y-74857497D01*
X122299638Y-75034473D01*
X122325131Y-75239664D01*
X122331023Y-75321090D01*
X122334537Y-75421558D01*
X122332588Y-75519693D01*
X122324491Y-75621460D01*
X122309564Y-75732824D01*
X122287123Y-75859749D01*
X122256487Y-76008199D01*
X122216971Y-76184140D01*
X122207867Y-76223954D01*
X122186209Y-76321216D01*
X122167204Y-76409992D01*
X122152636Y-76481825D01*
X122144293Y-76528256D01*
X122140866Y-76549905D01*
X122131520Y-76588375D01*
X122118205Y-76602360D01*
X122095837Y-76599315D01*
X122075532Y-76592154D01*
X122022557Y-76571186D01*
X121951665Y-76541524D01*
X121869100Y-76505949D01*
X121781107Y-76467244D01*
X121693932Y-76428192D01*
X121613818Y-76391575D01*
X121547012Y-76360176D01*
X121499757Y-76336777D01*
X121478298Y-76324161D01*
X121472378Y-76315788D01*
X121469577Y-76294342D01*
X121476545Y-76258303D01*
X121494605Y-76201880D01*
X121525078Y-76119280D01*
X121586357Y-75938327D01*
X121628620Y-75762835D01*
X121646795Y-75607269D01*
X121640938Y-75472718D01*
X121611103Y-75360269D01*
X121557342Y-75271011D01*
X121479711Y-75206030D01*
X121462157Y-75196429D01*
X121395759Y-75166990D01*
X121320102Y-75140511D01*
X121248578Y-75121326D01*
X121194580Y-75113768D01*
X121186956Y-75115702D01*
X121178962Y-75126476D01*
X121172775Y-75150554D01*
X121167935Y-75192233D01*
X121163981Y-75255812D01*
X121160454Y-75345587D01*
X121156894Y-75465856D01*
X121153380Y-75565938D01*
X121147012Y-75688834D01*
X121139017Y-75801182D01*
X121129988Y-75894901D01*
X121120518Y-75961907D01*
X121096835Y-76071031D01*
X121035187Y-76268266D01*
X120954069Y-76445138D01*
X120855416Y-76597767D01*
X120741164Y-76722276D01*
X120649107Y-76792181D01*
X120534241Y-76858205D01*
X120413517Y-76910549D01*
X120300616Y-76942378D01*
X120252576Y-76948924D01*
X120145488Y-76953444D01*
X120066987Y-76950367D01*
X120026201Y-76948768D01*
X119908353Y-76935655D01*
G37*
G36*
X117526966Y-77527893D02*
G01*
X117405276Y-77525398D01*
X117312667Y-77522257D01*
X117245095Y-77518179D01*
X117198517Y-77512871D01*
X117168890Y-77506040D01*
X117152171Y-77497396D01*
X117151064Y-77496461D01*
X117139646Y-77483289D01*
X117131905Y-77463105D01*
X117127408Y-77430358D01*
X117125722Y-77379499D01*
X117126414Y-77304977D01*
X117127710Y-77253959D01*
X117301607Y-77253959D01*
X117303135Y-77303468D01*
X117309175Y-77327363D01*
X117316879Y-77329883D01*
X117354478Y-77334051D01*
X117417093Y-77337390D01*
X117498400Y-77339607D01*
X117592073Y-77340411D01*
X117861361Y-77340411D01*
X117851009Y-77170788D01*
X117850909Y-77169150D01*
X117841342Y-77054332D01*
X117827260Y-76966990D01*
X117806448Y-76899968D01*
X117776694Y-76846112D01*
X117735785Y-76798267D01*
X117707688Y-76772374D01*
X117634664Y-76727151D01*
X117563390Y-76716555D01*
X117492621Y-76740591D01*
X117421116Y-76799263D01*
X117403543Y-76819643D01*
X117363269Y-76880101D01*
X117336834Y-76938955D01*
X117328092Y-76975733D01*
X117317834Y-77039722D01*
X117309583Y-77113288D01*
X117303966Y-77187633D01*
X117301607Y-77253959D01*
X117127710Y-77253959D01*
X117129050Y-77201244D01*
X117129542Y-77184402D01*
X117133035Y-77083381D01*
X117137337Y-77008747D01*
X117143536Y-76953136D01*
X117152722Y-76909182D01*
X117165982Y-76869523D01*
X117184406Y-76826793D01*
X117207002Y-76780581D01*
X117262238Y-76694716D01*
X117328115Y-76631268D01*
X117412671Y-76581600D01*
X117478945Y-76556384D01*
X117590239Y-76541079D01*
X117698286Y-76559517D01*
X117800335Y-76611051D01*
X117893638Y-76695032D01*
X117924266Y-76733682D01*
X117961728Y-76798852D01*
X117990263Y-76877923D01*
X118012174Y-76977840D01*
X118029764Y-77105548D01*
X118040919Y-77216843D01*
X118046089Y-77307215D01*
X118044275Y-77375917D01*
X118035288Y-77429367D01*
X118018941Y-77473983D01*
X117990212Y-77534526D01*
X117861361Y-77532699D01*
X117586649Y-77528804D01*
X117526966Y-77527893D01*
G37*
D11*
%TO.C,J1*%
X168190000Y-63600000D02*
X111190000Y-63600000D01*
X111190000Y-63600000D02*
X111190000Y-126000000D01*
X111190000Y-126000000D02*
X168190000Y-126000000D01*
X168190000Y-126000000D02*
X168190000Y-63600000D01*
%TD*%
M02*
