M48
; DRILL file {KiCad (6.0.6)} date Thu Dec  1 22:03:19 2022
; FORMAT={-:-/ absolute / inch / decimal}
; #@! TF.CreationDate,2022-12-01T22:03:19+01:00
; #@! TF.GenerationSoftware,Kicad,Pcbnew,(6.0.6)
; #@! TF.FileFunction,Plated,1,2,PTH
FMAT,2
INCH
; #@! TA.AperFunction,Plated,PTH,ViaDrill
T1C0.0157
; #@! TA.AperFunction,Plated,PTH,ComponentDrill
T2C0.0236
; #@! TA.AperFunction,Plated,PTH,ComponentDrill
T3C0.0394
; #@! TA.AperFunction,Plated,PTH,ComponentDrill
T4C0.0402
; #@! TA.AperFunction,Plated,PTH,ComponentDrill
T5C0.1252
%
G90
G05
T1
X4.8131Y-4.2256
X4.8214Y-4.3489
X4.8919Y-4.3398
X4.9094Y-2.5866
X4.9409Y-4.378
X5.0787Y-3.5039
X5.1969Y-3.5039
X5.2047Y-3.0591
X5.2717Y-2.8071
X5.3622Y-3.1496
X5.4122Y-4.6516
X5.4823Y-3.6732
X5.4843Y-3.8228
X5.5504Y-4.5287
X5.6299Y-4.6457
X5.6299Y-4.685
X5.6732Y-3.8268
X5.6772Y-3.6732
X5.687Y-4.8843
X5.7087Y-4.0945
X5.7323Y-3.8858
X5.752Y-4.6437
X5.7559Y-4.6929
X5.7874Y-4.5276
X5.7992Y-4.6437
X5.8012Y-4.6929
X5.8661Y-4.5276
X5.8701Y-3.9685
X5.9488Y-3.5866
X5.9488Y-3.8858
X6.1024Y-4.0945
X6.1614Y-4.6339
X6.1811Y-4.2913
X6.1929Y-2.5591
X6.1969Y-2.752
X6.2598Y-3.3071
X6.2677Y-3.8819
X6.3386Y-3.8976
X6.3583Y-3.2953
X6.4016Y-4.626
X6.4173Y-2.9567
X6.4327Y-3.4957
X6.4331Y-2.752
X6.4349Y-3.9328
X6.437Y-2.563
X6.4724Y-3.6772
X6.4803Y-3.7815
X6.5138Y-3.9272
X6.5748Y-4.252
X6.6102Y-4.7795
X6.6142Y-4.5669
X6.6177Y-3.7358
X6.6535Y-4.252
X6.6535Y-4.5276
X6.6929Y-4.3268
T3
X4.9823Y-4.7638
X5.2815Y-4.7638
X5.8622Y-2.6457
X5.8622Y-2.7457
X5.8622Y-2.8457
X5.8622Y-2.9457
X5.8622Y-3.0457
X5.8622Y-3.1457
T4
X4.4882Y-4.1063
X4.4882Y-4.6063
T5
X5.5276Y-2.6063
X5.5276Y-4.8543
T2
G00X6.7545Y-4.2632
M15
G01X6.7073Y-4.2632
M16
G05
G00X6.7545Y-4.7139
M15
G01X6.7073Y-4.7139
M16
G05
G00X6.9146Y-4.2628
M15
G01X6.8674Y-4.2628
M16
G05
G00X6.9228Y-4.7132
M15
G01X6.8756Y-4.7132
M16
G05
T0
M30
