%TF.GenerationSoftware,KiCad,Pcbnew,(6.0.6)*%
%TF.CreationDate,2022-12-01T22:03:14+01:00*%
%TF.ProjectId,Arbolito,4172626f-6c69-4746-9f2e-6b696361645f,rev?*%
%TF.SameCoordinates,Original*%
%TF.FileFunction,Profile,NP*%
%FSLAX46Y46*%
G04 Gerber Fmt 4.6, Leading zero omitted, Abs format (unit mm)*
G04 Created by KiCad (PCBNEW (6.0.6)) date 2022-12-01 22:03:14*
%MOMM*%
%LPD*%
G01*
G04 APERTURE LIST*
%TA.AperFunction,Profile*%
%ADD10C,0.100000*%
%TD*%
G04 APERTURE END LIST*
D10*
X178000000Y-125000000D02*
X178000000Y-118800000D01*
X105000000Y-125000000D02*
G75*
G03*
X108000000Y-128000000I3000000J0D01*
G01*
X148900000Y-96100000D02*
X142600000Y-96100000D01*
X178000000Y-65000000D02*
G75*
G03*
X175000000Y-62000000I-3000000J0D01*
G01*
X178000000Y-118800000D02*
X170800000Y-118800000D01*
X140900000Y-104800000D02*
X140900000Y-96100000D01*
X142600000Y-104800000D02*
X140900000Y-104800000D01*
X140900000Y-96100000D02*
X134700000Y-96100000D01*
X170800000Y-117800000D02*
G75*
G03*
X170800000Y-118800000I0J-500000D01*
G01*
X140900000Y-94400000D02*
X140900000Y-85600000D01*
X142600000Y-85600000D02*
X142600000Y-94400000D01*
X134700000Y-96100000D02*
X134700000Y-94400000D01*
X134700000Y-94400000D02*
X140900000Y-94400000D01*
X108000000Y-62000000D02*
G75*
G03*
X105000000Y-65000000I0J-3000000D01*
G01*
X170800004Y-117800053D02*
G75*
G03*
X171300000Y-117400000I-38704J560853D01*
G01*
X171300000Y-117400000D02*
X171300000Y-110600000D01*
X142600000Y-96100000D02*
X142600000Y-104800000D01*
X140900000Y-85600000D02*
X142600000Y-85600000D01*
X148900000Y-94400000D02*
X148900000Y-96100000D01*
X105000000Y-65000000D02*
X105000000Y-125000000D01*
X108000000Y-128000000D02*
X175000000Y-128000000D01*
X171100000Y-109200000D02*
G75*
G03*
X171000000Y-110200000I0J-505000D01*
G01*
X171100000Y-109200000D02*
X178000000Y-109200000D01*
X175000000Y-62000000D02*
X108000000Y-62000000D01*
X175000000Y-128000000D02*
G75*
G03*
X178000000Y-125000000I0J3000000D01*
G01*
X178000000Y-109200000D02*
X178000000Y-65000000D01*
X171299974Y-110599999D02*
G75*
G03*
X171000000Y-110200000I-387874J21599D01*
G01*
X142600000Y-94400000D02*
X148900000Y-94400000D01*
M02*
