%TF.GenerationSoftware,KiCad,Pcbnew,(6.0.6)*%
%TF.CreationDate,2022-12-01T22:03:14+01:00*%
%TF.ProjectId,Arbolito,4172626f-6c69-4746-9f2e-6b696361645f,rev?*%
%TF.SameCoordinates,Original*%
%TF.FileFunction,Copper,L2,Bot*%
%TF.FilePolarity,Positive*%
%FSLAX46Y46*%
G04 Gerber Fmt 4.6, Leading zero omitted, Abs format (unit mm)*
G04 Created by KiCad (PCBNEW (6.0.6)) date 2022-12-01 22:03:14*
%MOMM*%
%LPD*%
G01*
G04 APERTURE LIST*
%TA.AperFunction,ComponentPad*%
%ADD10O,2.200000X1.000000*%
%TD*%
%TA.AperFunction,ComponentPad*%
%ADD11R,2.000000X2.000000*%
%TD*%
%TA.AperFunction,ComponentPad*%
%ADD12C,2.000000*%
%TD*%
%TA.AperFunction,ComponentPad*%
%ADD13R,1.700000X1.700000*%
%TD*%
%TA.AperFunction,ComponentPad*%
%ADD14O,1.700000X1.700000*%
%TD*%
%TA.AperFunction,ComponentPad*%
%ADD15C,2.286000*%
%TD*%
%TA.AperFunction,ComponentPad*%
%ADD16C,4.000000*%
%TD*%
%TA.AperFunction,ViaPad*%
%ADD17C,0.800000*%
%TD*%
%TA.AperFunction,Conductor*%
%ADD18C,0.500000*%
%TD*%
%TA.AperFunction,Conductor*%
%ADD19C,0.250000*%
%TD*%
%TA.AperFunction,Conductor*%
%ADD20C,0.200000*%
%TD*%
G04 APERTURE END LIST*
D10*
%TO.P,P1,S1,SHIELD*%
%TO.N,GND*%
X175032000Y-108275019D03*
X170964308Y-108285000D03*
X170964308Y-119732365D03*
X175240000Y-119715000D03*
%TD*%
D11*
%TO.P,BZ1,1,-*%
%TO.N,/BUZZER*%
X134150000Y-121000000D03*
D12*
%TO.P,BZ1,2,+*%
%TO.N,GND*%
X126550000Y-121000000D03*
%TD*%
D13*
%TO.P,J2,1,Pin_1*%
%TO.N,GND*%
X148900000Y-79900000D03*
D14*
%TO.P,J2,2,Pin_2*%
%TO.N,/GPIO0*%
X148900000Y-77360000D03*
%TO.P,J2,3,Pin_3*%
%TO.N,/nRST*%
X148900000Y-74820000D03*
%TO.P,J2,4,Pin_4*%
%TO.N,/TX*%
X148900000Y-72280000D03*
%TO.P,J2,5,Pin_5*%
%TO.N,/RX*%
X148900000Y-69740000D03*
%TO.P,J2,6,Pin_6*%
%TO.N,+3.3V*%
X148900000Y-67200000D03*
%TD*%
D15*
%TO.P,J1,1,Pin_1*%
%TO.N,GND*%
X114000000Y-104300000D03*
%TO.P,J1,2,Pin_2*%
%TO.N,Net-(J1-Pad2)*%
X114000000Y-117000000D03*
D16*
%TO.P,J1,3*%
%TO.N,N/C*%
X140400000Y-123300000D03*
X140400000Y-66200000D03*
%TD*%
D17*
%TO.N,GND*%
X163390000Y-88790000D03*
X168090000Y-94890000D03*
X155000000Y-104000000D03*
X140980000Y-115030000D03*
X132200000Y-77700000D03*
X167900000Y-121400000D03*
X157400000Y-69900000D03*
X146200000Y-119200000D03*
X129000000Y-89000000D03*
X156500000Y-117700000D03*
X170000000Y-109900000D03*
X133900000Y-71300000D03*
X163000000Y-75100000D03*
X132000000Y-89000000D03*
X146100000Y-117950000D03*
X145600000Y-98700000D03*
X147350000Y-119200000D03*
X136200000Y-80000000D03*
X162600000Y-117500000D03*
X147300000Y-117950000D03*
X137470000Y-118150000D03*
X144450000Y-124060000D03*
X164600000Y-96050000D03*
X163400000Y-69900000D03*
X122254000Y-107329500D03*
%TO.N,+3.3V*%
X157000000Y-109000000D03*
X151100000Y-91100000D03*
X151100000Y-98700000D03*
X122462500Y-110462500D03*
%TO.N,/nRST*%
X159200000Y-98600000D03*
X149100000Y-100800000D03*
X164400000Y-93400000D03*
%TO.N,/D+*%
X143000000Y-118000000D03*
X169000000Y-115000000D03*
%TO.N,/D-*%
X168000000Y-116000000D03*
X143000000Y-119000000D03*
%TO.N,/GPIO0*%
X161000000Y-99000000D03*
X145000000Y-104000000D03*
%TO.N,/RX*%
X149000000Y-115000000D03*
X169000000Y-108000000D03*
%TO.N,/TX*%
X167000000Y-108000000D03*
X147000000Y-115000000D03*
%TO.N,Net-(R16-Pad1)*%
X163500000Y-65100000D03*
X157300000Y-65000000D03*
%TO.N,/SCL*%
X165450000Y-99750000D03*
X124254000Y-110230000D03*
%TO.N,/SDA*%
X125500000Y-111200000D03*
X163446991Y-99893982D03*
%TO.N,/DIN*%
X159000000Y-84000000D03*
X144100000Y-97200000D03*
X144200000Y-93300000D03*
X139250000Y-93300000D03*
X139300000Y-97100000D03*
%TO.N,/Boton*%
X124700000Y-65700000D03*
X161500000Y-83700000D03*
%TD*%
D18*
%TO.N,+3.3V*%
X123800000Y-108100000D02*
X156100000Y-108100000D01*
X151100000Y-98700000D02*
X151100000Y-91100000D01*
X156100000Y-108100000D02*
X157000000Y-109000000D01*
X122462500Y-109437500D02*
X123800000Y-108100000D01*
X122462500Y-110462500D02*
X122462500Y-109437500D01*
D19*
%TO.N,/nRST*%
X159200000Y-98600000D02*
X159200000Y-98800000D01*
X162500000Y-80400000D02*
X154480000Y-80400000D01*
X158500000Y-99500000D02*
X151900000Y-99500000D01*
X151900000Y-99500000D02*
X150600000Y-100800000D01*
X159200000Y-98800000D02*
X158500000Y-99500000D01*
X150600000Y-100800000D02*
X149100000Y-100800000D01*
X164400000Y-82300000D02*
X162500000Y-80400000D01*
X154480000Y-80400000D02*
X148900000Y-74820000D01*
X164400000Y-93400000D02*
X164400000Y-82300000D01*
D20*
%TO.N,/D+*%
X167300000Y-115710050D02*
X167710050Y-115300000D01*
X143000000Y-118000000D02*
X143325001Y-118325001D01*
X146165686Y-120600000D02*
X162763602Y-120600000D01*
X143890687Y-118325001D02*
X146165686Y-120600000D01*
X167710050Y-115300000D02*
X168063602Y-115300000D01*
X168363602Y-115000000D02*
X169000000Y-115000000D01*
X168063602Y-115300000D02*
X168363602Y-115000000D01*
X162763602Y-120600000D02*
X167300000Y-116063602D01*
X167300000Y-116063602D02*
X167300000Y-115710050D01*
X143325001Y-118325001D02*
X143890687Y-118325001D01*
%TO.N,/D-*%
X143274999Y-118725001D02*
X143725001Y-118725001D01*
X146000000Y-121000000D02*
X163000000Y-121000000D01*
X163000000Y-121000000D02*
X168000000Y-116000000D01*
X143000000Y-119000000D02*
X143274999Y-118725001D01*
X143725001Y-118725001D02*
X146000000Y-121000000D01*
D19*
%TO.N,/GPIO0*%
X162500000Y-83000000D02*
X162500000Y-95400000D01*
X162500000Y-95400000D02*
X161000000Y-96900000D01*
X161000000Y-99000000D02*
X157800000Y-102200000D01*
X148900000Y-77360000D02*
X152940000Y-81400000D01*
X146800000Y-102200000D02*
X145000000Y-104000000D01*
X157800000Y-102200000D02*
X146800000Y-102200000D01*
X152940000Y-81400000D02*
X160900000Y-81400000D01*
X161000000Y-96900000D02*
X161000000Y-99000000D01*
X160900000Y-81400000D02*
X162500000Y-83000000D01*
%TO.N,/RX*%
X162000000Y-115000000D02*
X169000000Y-108000000D01*
X169000000Y-80000000D02*
X169000000Y-108000000D01*
X156160000Y-77000000D02*
X166000000Y-77000000D01*
X149000000Y-115000000D02*
X162000000Y-115000000D01*
X166000000Y-77000000D02*
X169000000Y-80000000D01*
X148900000Y-69740000D02*
X156160000Y-77000000D01*
%TO.N,/TX*%
X154000000Y-77380000D02*
X154000000Y-77400000D01*
X148900000Y-72280000D02*
X154000000Y-77380000D01*
X154000000Y-77400000D02*
X155500000Y-78900000D01*
X167000000Y-81600000D02*
X167000000Y-108000000D01*
X161000000Y-114000000D02*
X148000000Y-114000000D01*
X155500000Y-78900000D02*
X164300000Y-78900000D01*
X164300000Y-78900000D02*
X167000000Y-81600000D01*
X148000000Y-114000000D02*
X147000000Y-115000000D01*
X167000000Y-108000000D02*
X161000000Y-114000000D01*
%TO.N,Net-(R16-Pad1)*%
X157400000Y-65100000D02*
X157300000Y-65000000D01*
X163500000Y-65100000D02*
X157400000Y-65100000D01*
%TO.N,/SCL*%
X162721991Y-99178009D02*
X163400000Y-98500000D01*
X156625305Y-110400000D02*
X157725000Y-109300305D01*
X157725000Y-109300305D02*
X157725000Y-109275000D01*
X124424000Y-110400000D02*
X156625305Y-110400000D01*
X124254000Y-110230000D02*
X124424000Y-110400000D01*
X162721991Y-104278009D02*
X162721991Y-99178009D01*
X163400000Y-98500000D02*
X164850000Y-98500000D01*
X164850000Y-98500000D02*
X165450000Y-99100000D01*
X165450000Y-99100000D02*
X165450000Y-99750000D01*
X157725000Y-109275000D02*
X162721991Y-104278009D01*
%TO.N,/SDA*%
X163600000Y-104150000D02*
X163650000Y-104100000D01*
X163600000Y-104150000D02*
X163600000Y-100046991D01*
X125500000Y-111200000D02*
X157100000Y-111200000D01*
X163600000Y-104700000D02*
X163600000Y-104150000D01*
X163600000Y-100046991D02*
X163446991Y-99893982D01*
X157100000Y-111200000D02*
X163600000Y-104700000D01*
%TO.N,/DIN*%
X148650000Y-97200000D02*
X144100000Y-97200000D01*
X134000000Y-96300000D02*
X134000000Y-94200000D01*
X139300000Y-97100000D02*
X134800000Y-97100000D01*
X139250000Y-93300000D02*
X138850000Y-93300000D01*
X144200000Y-84000000D02*
X159000000Y-84000000D01*
X138250000Y-85700000D02*
X139950000Y-84000000D01*
X149600000Y-96250000D02*
X148650000Y-97200000D01*
X134900000Y-93300000D02*
X139250000Y-93300000D01*
X145250000Y-92250000D02*
X145250000Y-85050000D01*
X144200000Y-93300000D02*
X145250000Y-92250000D01*
X134800000Y-97100000D02*
X134000000Y-96300000D01*
X144200000Y-93300000D02*
X148700000Y-93300000D01*
X149600000Y-94200000D02*
X149600000Y-96250000D01*
X145250000Y-85050000D02*
X144200000Y-84000000D01*
X148700000Y-93300000D02*
X149600000Y-94200000D01*
X138250000Y-92650000D02*
X138250000Y-85700000D01*
X139950000Y-84000000D02*
X144200000Y-84000000D01*
X134000000Y-94200000D02*
X134900000Y-93300000D01*
X138850000Y-93300000D02*
X138250000Y-92700000D01*
%TO.N,/Boton*%
X160600000Y-82800000D02*
X148000000Y-82800000D01*
X148000000Y-82800000D02*
X130900000Y-65700000D01*
X161500000Y-83700000D02*
X160600000Y-82800000D01*
X130900000Y-65700000D02*
X124700000Y-65700000D01*
%TD*%
%TA.AperFunction,Conductor*%
%TO.N,GND*%
G36*
X174970018Y-62510000D02*
G01*
X174984851Y-62512310D01*
X174984855Y-62512310D01*
X174993724Y-62513691D01*
X175010923Y-62511442D01*
X175034863Y-62510609D01*
X175292710Y-62526206D01*
X175307814Y-62528040D01*
X175379786Y-62541229D01*
X175588760Y-62579525D01*
X175603526Y-62583164D01*
X175876231Y-62668142D01*
X175890445Y-62673534D01*
X176108223Y-62771547D01*
X176150906Y-62790757D01*
X176164379Y-62797828D01*
X176408813Y-62945595D01*
X176421334Y-62954238D01*
X176646171Y-63130385D01*
X176657560Y-63140475D01*
X176859525Y-63342440D01*
X176869614Y-63353828D01*
X176885831Y-63374527D01*
X177045762Y-63578666D01*
X177054405Y-63591187D01*
X177202172Y-63835621D01*
X177209242Y-63849092D01*
X177326466Y-64109555D01*
X177331858Y-64123769D01*
X177388705Y-64306197D01*
X177416836Y-64396473D01*
X177420475Y-64411240D01*
X177448624Y-64564841D01*
X177471960Y-64692186D01*
X177473794Y-64707290D01*
X177488953Y-64957904D01*
X177487692Y-64984716D01*
X177487690Y-64984852D01*
X177486309Y-64993724D01*
X177487473Y-65002626D01*
X177487473Y-65002628D01*
X177490436Y-65025283D01*
X177491500Y-65041621D01*
X177491500Y-85754000D01*
X177471498Y-85822121D01*
X177417842Y-85868614D01*
X177365500Y-85880000D01*
X170800000Y-85880000D01*
X170800000Y-102120000D01*
X177365500Y-102120000D01*
X177433621Y-102140002D01*
X177480114Y-102193658D01*
X177491500Y-102246000D01*
X177491500Y-108565500D01*
X177471498Y-108633621D01*
X177417842Y-108680114D01*
X177365500Y-108691500D01*
X176728984Y-108691500D01*
X176660863Y-108671498D01*
X176614370Y-108617842D01*
X176602997Y-108563661D01*
X176603456Y-108532224D01*
X176596701Y-108529019D01*
X173474076Y-108529019D01*
X173460545Y-108532992D01*
X173456248Y-108562883D01*
X173456285Y-108600879D01*
X173417961Y-108660643D01*
X173353409Y-108690200D01*
X173335354Y-108691500D01*
X172661438Y-108691500D01*
X172593317Y-108671498D01*
X172546824Y-108617842D01*
X172535451Y-108563661D01*
X172535764Y-108542205D01*
X172529009Y-108539000D01*
X170836308Y-108539000D01*
X170768187Y-108518998D01*
X170721694Y-108465342D01*
X170710308Y-108413000D01*
X170710308Y-108012885D01*
X171218308Y-108012885D01*
X171222783Y-108028124D01*
X171224173Y-108029329D01*
X171231856Y-108031000D01*
X172522232Y-108031000D01*
X172535763Y-108027027D01*
X172536883Y-108019232D01*
X172536466Y-108017814D01*
X173460544Y-108017814D01*
X173467299Y-108021019D01*
X174759885Y-108021019D01*
X174775124Y-108016544D01*
X174776329Y-108015154D01*
X174778000Y-108007471D01*
X174778000Y-108002904D01*
X175286000Y-108002904D01*
X175290475Y-108018143D01*
X175291865Y-108019348D01*
X175299548Y-108021019D01*
X176589924Y-108021019D01*
X176603455Y-108017046D01*
X176604575Y-108009251D01*
X176572862Y-107901498D01*
X176568269Y-107890130D01*
X176482393Y-107725865D01*
X176475679Y-107715604D01*
X176359532Y-107571146D01*
X176350954Y-107562387D01*
X176208961Y-107443241D01*
X176198841Y-107436311D01*
X176036415Y-107347017D01*
X176025142Y-107342185D01*
X175848462Y-107286139D01*
X175836468Y-107283589D01*
X175692239Y-107267412D01*
X175685215Y-107267019D01*
X175304115Y-107267019D01*
X175288876Y-107271494D01*
X175287671Y-107272884D01*
X175286000Y-107280567D01*
X175286000Y-108002904D01*
X174778000Y-108002904D01*
X174778000Y-107285134D01*
X174773525Y-107269895D01*
X174772135Y-107268690D01*
X174764452Y-107267019D01*
X174385343Y-107267019D01*
X174379195Y-107267320D01*
X174241397Y-107280831D01*
X174229362Y-107283214D01*
X174051924Y-107336786D01*
X174040584Y-107341460D01*
X173876923Y-107428479D01*
X173866706Y-107435268D01*
X173723067Y-107552416D01*
X173714363Y-107561060D01*
X173596216Y-107703875D01*
X173589356Y-107714046D01*
X173501196Y-107877095D01*
X173496444Y-107888400D01*
X173460750Y-108003711D01*
X173460544Y-108017814D01*
X172536466Y-108017814D01*
X172505170Y-107911479D01*
X172500577Y-107900111D01*
X172414701Y-107735846D01*
X172407987Y-107725585D01*
X172291840Y-107581127D01*
X172283262Y-107572368D01*
X172141269Y-107453222D01*
X172131149Y-107446292D01*
X171968723Y-107356998D01*
X171957450Y-107352166D01*
X171780770Y-107296120D01*
X171768776Y-107293570D01*
X171624547Y-107277393D01*
X171617523Y-107277000D01*
X171236423Y-107277000D01*
X171221184Y-107281475D01*
X171219979Y-107282865D01*
X171218308Y-107290548D01*
X171218308Y-108012885D01*
X170710308Y-108012885D01*
X170710308Y-107295115D01*
X170705833Y-107279876D01*
X170704443Y-107278671D01*
X170696760Y-107277000D01*
X170317651Y-107277000D01*
X170311503Y-107277301D01*
X170173705Y-107290812D01*
X170161670Y-107293195D01*
X169984232Y-107346767D01*
X169972891Y-107351441D01*
X169833706Y-107425446D01*
X169764168Y-107439765D01*
X169697928Y-107414217D01*
X169680923Y-107398510D01*
X169665863Y-107381785D01*
X169635147Y-107317779D01*
X169633500Y-107297476D01*
X169633500Y-80078768D01*
X169634027Y-80067585D01*
X169635702Y-80060092D01*
X169633562Y-79992001D01*
X169633500Y-79988044D01*
X169633500Y-79960144D01*
X169632996Y-79956153D01*
X169632063Y-79944311D01*
X169631421Y-79923865D01*
X169630674Y-79900111D01*
X169625021Y-79880652D01*
X169621012Y-79861293D01*
X169620846Y-79859983D01*
X169618474Y-79841203D01*
X169615558Y-79833837D01*
X169615556Y-79833831D01*
X169602200Y-79800098D01*
X169598355Y-79788868D01*
X169588230Y-79754017D01*
X169588230Y-79754016D01*
X169586019Y-79746407D01*
X169575705Y-79728966D01*
X169567008Y-79711213D01*
X169562472Y-79699758D01*
X169559552Y-79692383D01*
X169533563Y-79656612D01*
X169527047Y-79646692D01*
X169524937Y-79643124D01*
X169504542Y-79608638D01*
X169490221Y-79594317D01*
X169477380Y-79579283D01*
X169470131Y-79569306D01*
X169465472Y-79562893D01*
X169431395Y-79534702D01*
X169422616Y-79526712D01*
X166503652Y-76607747D01*
X166496112Y-76599461D01*
X166492000Y-76592982D01*
X166442348Y-76546356D01*
X166439507Y-76543602D01*
X166419770Y-76523865D01*
X166416573Y-76521385D01*
X166407551Y-76513680D01*
X166395260Y-76502138D01*
X166375321Y-76483414D01*
X166368375Y-76479595D01*
X166368372Y-76479593D01*
X166357566Y-76473652D01*
X166341047Y-76462801D01*
X166340583Y-76462441D01*
X166325041Y-76450386D01*
X166317772Y-76447241D01*
X166317768Y-76447238D01*
X166284463Y-76432826D01*
X166273813Y-76427609D01*
X166235060Y-76406305D01*
X166215437Y-76401267D01*
X166196734Y-76394863D01*
X166185420Y-76389967D01*
X166185419Y-76389967D01*
X166178145Y-76386819D01*
X166170322Y-76385580D01*
X166170312Y-76385577D01*
X166134476Y-76379901D01*
X166122856Y-76377495D01*
X166087711Y-76368472D01*
X166087710Y-76368472D01*
X166080030Y-76366500D01*
X166059776Y-76366500D01*
X166040065Y-76364949D01*
X166027886Y-76363020D01*
X166020057Y-76361780D01*
X166012165Y-76362526D01*
X165976039Y-76365941D01*
X165964181Y-76366500D01*
X156474595Y-76366500D01*
X156406474Y-76346498D01*
X156385500Y-76329595D01*
X150251218Y-70195313D01*
X150217192Y-70133001D01*
X150219755Y-70069589D01*
X150230865Y-70033022D01*
X150232370Y-70028069D01*
X150261529Y-69806590D01*
X150263156Y-69740000D01*
X150244852Y-69517361D01*
X150190431Y-69300702D01*
X150101354Y-69095840D01*
X149980014Y-68908277D01*
X149829670Y-68743051D01*
X149825619Y-68739852D01*
X149825615Y-68739848D01*
X149658414Y-68607800D01*
X149658410Y-68607798D01*
X149654359Y-68604598D01*
X149613053Y-68581796D01*
X149563084Y-68531364D01*
X149548312Y-68461921D01*
X149573428Y-68395516D01*
X149600780Y-68368909D01*
X149669548Y-68319857D01*
X149779860Y-68241173D01*
X149938096Y-68083489D01*
X149997594Y-68000689D01*
X150065435Y-67906277D01*
X150068453Y-67902077D01*
X150167430Y-67701811D01*
X150232370Y-67488069D01*
X150261529Y-67266590D01*
X150263156Y-67200000D01*
X150244852Y-66977361D01*
X150190431Y-66760702D01*
X150101354Y-66555840D01*
X150028627Y-66443421D01*
X149982822Y-66372617D01*
X149982820Y-66372614D01*
X149980014Y-66368277D01*
X149829670Y-66203051D01*
X149825619Y-66199852D01*
X149825615Y-66199848D01*
X149658414Y-66067800D01*
X149658410Y-66067798D01*
X149654359Y-66064598D01*
X149458789Y-65956638D01*
X149453920Y-65954914D01*
X149453916Y-65954912D01*
X149253087Y-65883795D01*
X149253083Y-65883794D01*
X149248212Y-65882069D01*
X149243119Y-65881162D01*
X149243116Y-65881161D01*
X149033373Y-65843800D01*
X149033367Y-65843799D01*
X149028284Y-65842894D01*
X148954452Y-65841992D01*
X148810081Y-65840228D01*
X148810079Y-65840228D01*
X148804911Y-65840165D01*
X148584091Y-65873955D01*
X148371756Y-65943357D01*
X148173607Y-66046507D01*
X148169474Y-66049610D01*
X148169471Y-66049612D01*
X148132622Y-66077279D01*
X147994965Y-66180635D01*
X147840629Y-66342138D01*
X147837715Y-66346410D01*
X147837714Y-66346411D01*
X147819838Y-66372617D01*
X147714743Y-66526680D01*
X147620688Y-66729305D01*
X147560989Y-66944570D01*
X147537251Y-67166695D01*
X147537548Y-67171848D01*
X147537548Y-67171851D01*
X147543011Y-67266590D01*
X147550110Y-67389715D01*
X147551247Y-67394761D01*
X147551248Y-67394767D01*
X147571119Y-67482939D01*
X147599222Y-67607639D01*
X147683266Y-67814616D01*
X147799987Y-68005088D01*
X147946250Y-68173938D01*
X148118126Y-68316632D01*
X148130894Y-68324093D01*
X148191445Y-68359476D01*
X148240169Y-68411114D01*
X148253240Y-68480897D01*
X148226509Y-68546669D01*
X148186055Y-68580027D01*
X148173607Y-68586507D01*
X148169474Y-68589610D01*
X148169471Y-68589612D01*
X148145247Y-68607800D01*
X147994965Y-68720635D01*
X147840629Y-68882138D01*
X147714743Y-69066680D01*
X147620688Y-69269305D01*
X147560989Y-69484570D01*
X147537251Y-69706695D01*
X147537548Y-69711848D01*
X147537548Y-69711851D01*
X147543011Y-69806590D01*
X147550110Y-69929715D01*
X147551247Y-69934761D01*
X147551248Y-69934767D01*
X147571119Y-70022939D01*
X147599222Y-70147639D01*
X147683266Y-70354616D01*
X147799987Y-70545088D01*
X147946250Y-70713938D01*
X148118126Y-70856632D01*
X148188595Y-70897811D01*
X148191445Y-70899476D01*
X148240169Y-70951114D01*
X148253240Y-71020897D01*
X148226509Y-71086669D01*
X148186055Y-71120027D01*
X148173607Y-71126507D01*
X148169474Y-71129610D01*
X148169471Y-71129612D01*
X147999100Y-71257530D01*
X147994965Y-71260635D01*
X147840629Y-71422138D01*
X147714743Y-71606680D01*
X147620688Y-71809305D01*
X147560989Y-72024570D01*
X147537251Y-72246695D01*
X147537548Y-72251848D01*
X147537548Y-72251851D01*
X147543011Y-72346590D01*
X147550110Y-72469715D01*
X147551247Y-72474761D01*
X147551248Y-72474767D01*
X147571119Y-72562939D01*
X147599222Y-72687639D01*
X147683266Y-72894616D01*
X147799987Y-73085088D01*
X147946250Y-73253938D01*
X148052108Y-73341823D01*
X148103140Y-73384190D01*
X148118126Y-73396632D01*
X148145377Y-73412556D01*
X148191445Y-73439476D01*
X148240169Y-73491114D01*
X148253240Y-73560897D01*
X148226509Y-73626669D01*
X148186055Y-73660027D01*
X148173607Y-73666507D01*
X148169474Y-73669610D01*
X148169471Y-73669612D01*
X147999100Y-73797530D01*
X147994965Y-73800635D01*
X147991393Y-73804373D01*
X147915644Y-73883640D01*
X147840629Y-73962138D01*
X147837715Y-73966410D01*
X147837714Y-73966411D01*
X147769291Y-74066715D01*
X147714743Y-74146680D01*
X147620688Y-74349305D01*
X147560989Y-74564570D01*
X147537251Y-74786695D01*
X147537548Y-74791848D01*
X147537548Y-74791851D01*
X147543011Y-74886590D01*
X147550110Y-75009715D01*
X147551247Y-75014761D01*
X147551248Y-75014767D01*
X147555354Y-75032985D01*
X147599222Y-75227639D01*
X147683266Y-75434616D01*
X147799987Y-75625088D01*
X147946250Y-75793938D01*
X148118126Y-75936632D01*
X148188595Y-75977811D01*
X148191445Y-75979476D01*
X148240169Y-76031114D01*
X148253240Y-76100897D01*
X148226509Y-76166669D01*
X148186055Y-76200027D01*
X148173607Y-76206507D01*
X148169474Y-76209610D01*
X148169471Y-76209612D01*
X147999100Y-76337530D01*
X147994965Y-76340635D01*
X147973573Y-76363020D01*
X147862174Y-76479593D01*
X147840629Y-76502138D01*
X147837715Y-76506410D01*
X147837714Y-76506411D01*
X147827495Y-76521392D01*
X147714743Y-76686680D01*
X147620688Y-76889305D01*
X147560989Y-77104570D01*
X147537251Y-77326695D01*
X147537548Y-77331848D01*
X147537548Y-77331851D01*
X147543011Y-77426590D01*
X147550110Y-77549715D01*
X147551247Y-77554761D01*
X147551248Y-77554767D01*
X147571119Y-77642939D01*
X147599222Y-77767639D01*
X147683266Y-77974616D01*
X147799987Y-78165088D01*
X147946250Y-78333938D01*
X147950225Y-78337238D01*
X147950231Y-78337244D01*
X147955425Y-78341556D01*
X147995059Y-78400460D01*
X147996555Y-78471441D01*
X147959439Y-78531962D01*
X147919168Y-78556480D01*
X147811946Y-78596676D01*
X147796351Y-78605214D01*
X147694276Y-78681715D01*
X147681715Y-78694276D01*
X147605214Y-78796351D01*
X147596676Y-78811946D01*
X147551522Y-78932394D01*
X147547895Y-78947649D01*
X147542369Y-78998514D01*
X147542000Y-79005328D01*
X147542000Y-79627885D01*
X147546475Y-79643124D01*
X147547865Y-79644329D01*
X147555548Y-79646000D01*
X150237905Y-79646000D01*
X150306026Y-79666002D01*
X150327000Y-79682905D01*
X152436348Y-81792253D01*
X152443888Y-81800539D01*
X152448000Y-81807018D01*
X152453777Y-81812443D01*
X152497651Y-81853643D01*
X152500493Y-81856398D01*
X152520230Y-81876135D01*
X152523427Y-81878615D01*
X152532447Y-81886318D01*
X152564679Y-81916586D01*
X152571625Y-81920405D01*
X152571628Y-81920407D01*
X152582434Y-81926348D01*
X152598949Y-81937196D01*
X152603770Y-81940935D01*
X152645341Y-81998488D01*
X152649197Y-82069380D01*
X152614113Y-82131103D01*
X152551229Y-82164060D01*
X152526551Y-82166500D01*
X148314594Y-82166500D01*
X148246473Y-82146498D01*
X148225499Y-82129595D01*
X146890573Y-80794669D01*
X147542001Y-80794669D01*
X147542371Y-80801490D01*
X147547895Y-80852352D01*
X147551521Y-80867604D01*
X147596676Y-80988054D01*
X147605214Y-81003649D01*
X147681715Y-81105724D01*
X147694276Y-81118285D01*
X147796351Y-81194786D01*
X147811946Y-81203324D01*
X147932394Y-81248478D01*
X147947649Y-81252105D01*
X147998514Y-81257631D01*
X148005328Y-81258000D01*
X148627885Y-81258000D01*
X148643124Y-81253525D01*
X148644329Y-81252135D01*
X148646000Y-81244452D01*
X148646000Y-81239884D01*
X149154000Y-81239884D01*
X149158475Y-81255123D01*
X149159865Y-81256328D01*
X149167548Y-81257999D01*
X149794669Y-81257999D01*
X149801490Y-81257629D01*
X149852352Y-81252105D01*
X149867604Y-81248479D01*
X149988054Y-81203324D01*
X150003649Y-81194786D01*
X150105724Y-81118285D01*
X150118285Y-81105724D01*
X150194786Y-81003649D01*
X150203324Y-80988054D01*
X150248478Y-80867606D01*
X150252105Y-80852351D01*
X150257631Y-80801486D01*
X150258000Y-80794672D01*
X150258000Y-80172115D01*
X150253525Y-80156876D01*
X150252135Y-80155671D01*
X150244452Y-80154000D01*
X149172115Y-80154000D01*
X149156876Y-80158475D01*
X149155671Y-80159865D01*
X149154000Y-80167548D01*
X149154000Y-81239884D01*
X148646000Y-81239884D01*
X148646000Y-80172115D01*
X148641525Y-80156876D01*
X148640135Y-80155671D01*
X148632452Y-80154000D01*
X147560116Y-80154000D01*
X147544877Y-80158475D01*
X147543672Y-80159865D01*
X147542001Y-80167548D01*
X147542001Y-80794669D01*
X146890573Y-80794669D01*
X132295905Y-66200000D01*
X137886540Y-66200000D01*
X137906359Y-66515020D01*
X137965505Y-66825072D01*
X138063044Y-67125266D01*
X138064731Y-67128852D01*
X138064733Y-67128856D01*
X138195750Y-67407283D01*
X138195754Y-67407290D01*
X138197438Y-67410869D01*
X138366568Y-67677375D01*
X138467168Y-67798979D01*
X138548621Y-67897438D01*
X138567767Y-67920582D01*
X138797860Y-68136654D01*
X139053221Y-68322184D01*
X139056690Y-68324091D01*
X139056693Y-68324093D01*
X139214983Y-68411114D01*
X139329821Y-68474247D01*
X139333490Y-68475700D01*
X139333495Y-68475702D01*
X139596990Y-68580027D01*
X139623298Y-68590443D01*
X139929025Y-68668940D01*
X140242179Y-68708500D01*
X140557821Y-68708500D01*
X140870975Y-68668940D01*
X141176702Y-68590443D01*
X141203010Y-68580027D01*
X141466505Y-68475702D01*
X141466510Y-68475700D01*
X141470179Y-68474247D01*
X141585017Y-68411114D01*
X141743307Y-68324093D01*
X141743310Y-68324091D01*
X141746779Y-68322184D01*
X142002140Y-68136654D01*
X142232233Y-67920582D01*
X142251380Y-67897438D01*
X142332833Y-67798978D01*
X142433432Y-67677375D01*
X142602562Y-67410869D01*
X142604246Y-67407290D01*
X142604250Y-67407283D01*
X142735267Y-67128856D01*
X142735269Y-67128852D01*
X142736956Y-67125266D01*
X142834495Y-66825072D01*
X142893641Y-66515020D01*
X142913460Y-66200000D01*
X142893641Y-65884980D01*
X142834495Y-65574928D01*
X142747683Y-65307747D01*
X142738182Y-65278507D01*
X142738182Y-65278506D01*
X142736956Y-65274734D01*
X142722972Y-65245016D01*
X142607677Y-65000000D01*
X156386496Y-65000000D01*
X156387186Y-65006565D01*
X156404246Y-65168879D01*
X156406458Y-65189928D01*
X156465473Y-65371556D01*
X156560960Y-65536944D01*
X156688747Y-65678866D01*
X156787843Y-65750864D01*
X156831724Y-65782745D01*
X156843248Y-65791118D01*
X156849276Y-65793802D01*
X156849278Y-65793803D01*
X156959539Y-65842894D01*
X157017712Y-65868794D01*
X157080166Y-65882069D01*
X157198056Y-65907128D01*
X157198061Y-65907128D01*
X157204513Y-65908500D01*
X157395487Y-65908500D01*
X157401939Y-65907128D01*
X157401944Y-65907128D01*
X157519834Y-65882069D01*
X157582288Y-65868794D01*
X157640461Y-65842894D01*
X157750722Y-65793803D01*
X157750724Y-65793802D01*
X157756752Y-65791118D01*
X157768277Y-65782745D01*
X157802935Y-65757564D01*
X157869803Y-65733706D01*
X157876996Y-65733500D01*
X162791800Y-65733500D01*
X162859921Y-65753502D01*
X162879147Y-65769843D01*
X162879420Y-65769540D01*
X162884332Y-65773963D01*
X162888747Y-65778866D01*
X162900269Y-65787237D01*
X163029435Y-65881082D01*
X163043248Y-65891118D01*
X163049276Y-65893802D01*
X163049278Y-65893803D01*
X163211681Y-65966109D01*
X163217712Y-65968794D01*
X163311112Y-65988647D01*
X163398056Y-66007128D01*
X163398061Y-66007128D01*
X163404513Y-66008500D01*
X163595487Y-66008500D01*
X163601939Y-66007128D01*
X163601944Y-66007128D01*
X163688888Y-65988647D01*
X163782288Y-65968794D01*
X163788319Y-65966109D01*
X163950722Y-65893803D01*
X163950724Y-65893802D01*
X163956752Y-65891118D01*
X163970566Y-65881082D01*
X164026796Y-65840228D01*
X164111253Y-65778866D01*
X164119650Y-65769540D01*
X164234621Y-65641852D01*
X164234622Y-65641851D01*
X164239040Y-65636944D01*
X164334527Y-65471556D01*
X164393542Y-65289928D01*
X164394743Y-65278507D01*
X164410067Y-65132703D01*
X172890743Y-65132703D01*
X172891302Y-65136947D01*
X172891302Y-65136951D01*
X172902745Y-65223865D01*
X172928268Y-65417734D01*
X173004129Y-65695036D01*
X173005813Y-65698984D01*
X173110048Y-65943357D01*
X173116923Y-65959476D01*
X173167580Y-66044118D01*
X173260874Y-66200000D01*
X173264561Y-66206161D01*
X173444313Y-66430528D01*
X173461397Y-66446740D01*
X173631857Y-66608500D01*
X173652851Y-66628423D01*
X173886317Y-66796186D01*
X173890112Y-66798195D01*
X173890113Y-66798196D01*
X173911869Y-66809715D01*
X174140392Y-66930712D01*
X174254151Y-66972342D01*
X174281970Y-66982522D01*
X174410373Y-67029511D01*
X174691264Y-67090755D01*
X174719841Y-67093004D01*
X174914282Y-67108307D01*
X174914291Y-67108307D01*
X174916739Y-67108500D01*
X175072271Y-67108500D01*
X175074407Y-67108354D01*
X175074418Y-67108354D01*
X175282548Y-67094165D01*
X175282554Y-67094164D01*
X175286825Y-67093873D01*
X175291020Y-67093004D01*
X175291022Y-67093004D01*
X175427583Y-67064724D01*
X175568342Y-67035574D01*
X175839343Y-66939607D01*
X176094812Y-66807750D01*
X176098313Y-66805289D01*
X176098317Y-66805287D01*
X176213108Y-66724610D01*
X176330023Y-66642441D01*
X176449544Y-66531375D01*
X176537479Y-66449661D01*
X176537481Y-66449658D01*
X176540622Y-66446740D01*
X176722713Y-66224268D01*
X176872927Y-65979142D01*
X176877470Y-65968794D01*
X176986757Y-65719830D01*
X176988483Y-65715898D01*
X177067244Y-65439406D01*
X177102904Y-65188841D01*
X177107146Y-65159036D01*
X177107146Y-65159034D01*
X177107751Y-65154784D01*
X177107775Y-65150386D01*
X177109235Y-64871583D01*
X177109235Y-64871576D01*
X177109257Y-64867297D01*
X177071732Y-64582266D01*
X176995871Y-64304964D01*
X176922902Y-64133891D01*
X176884763Y-64044476D01*
X176884761Y-64044472D01*
X176883077Y-64040524D01*
X176808527Y-63915960D01*
X176737643Y-63797521D01*
X176737640Y-63797517D01*
X176735439Y-63793839D01*
X176555687Y-63569472D01*
X176347149Y-63371577D01*
X176113683Y-63203814D01*
X176091843Y-63192250D01*
X176068654Y-63179972D01*
X175859608Y-63069288D01*
X175589627Y-62970489D01*
X175308736Y-62909245D01*
X175277685Y-62906801D01*
X175085718Y-62891693D01*
X175085709Y-62891693D01*
X175083261Y-62891500D01*
X174927729Y-62891500D01*
X174925593Y-62891646D01*
X174925582Y-62891646D01*
X174717452Y-62905835D01*
X174717446Y-62905836D01*
X174713175Y-62906127D01*
X174708980Y-62906996D01*
X174708978Y-62906996D01*
X174572416Y-62935277D01*
X174431658Y-62964426D01*
X174160657Y-63060393D01*
X174156848Y-63062359D01*
X174005501Y-63140475D01*
X173905188Y-63192250D01*
X173901687Y-63194711D01*
X173901683Y-63194713D01*
X173891594Y-63201804D01*
X173669977Y-63357559D01*
X173459378Y-63553260D01*
X173277287Y-63775732D01*
X173127073Y-64020858D01*
X173011517Y-64284102D01*
X172932756Y-64560594D01*
X172910130Y-64719573D01*
X172899699Y-64792872D01*
X172892249Y-64845216D01*
X172892227Y-64849505D01*
X172892226Y-64849512D01*
X172890765Y-65128417D01*
X172890743Y-65132703D01*
X164410067Y-65132703D01*
X164412814Y-65106565D01*
X164413504Y-65100000D01*
X164399995Y-64971469D01*
X164394232Y-64916635D01*
X164394232Y-64916633D01*
X164393542Y-64910072D01*
X164334527Y-64728444D01*
X164331168Y-64722625D01*
X164292524Y-64655692D01*
X164239040Y-64563056D01*
X164233107Y-64556466D01*
X164115675Y-64426045D01*
X164115674Y-64426044D01*
X164111253Y-64421134D01*
X163980375Y-64326045D01*
X163962094Y-64312763D01*
X163962093Y-64312762D01*
X163956752Y-64308882D01*
X163950724Y-64306198D01*
X163950722Y-64306197D01*
X163788319Y-64233891D01*
X163788318Y-64233891D01*
X163782288Y-64231206D01*
X163688887Y-64211353D01*
X163601944Y-64192872D01*
X163601939Y-64192872D01*
X163595487Y-64191500D01*
X163404513Y-64191500D01*
X163398061Y-64192872D01*
X163398056Y-64192872D01*
X163311113Y-64211353D01*
X163217712Y-64231206D01*
X163211682Y-64233891D01*
X163211681Y-64233891D01*
X163049278Y-64306197D01*
X163049276Y-64306198D01*
X163043248Y-64308882D01*
X163037907Y-64312762D01*
X163037906Y-64312763D01*
X163019625Y-64326045D01*
X162888747Y-64421134D01*
X162884332Y-64426037D01*
X162879420Y-64430460D01*
X162878295Y-64429211D01*
X162824986Y-64462051D01*
X162791800Y-64466500D01*
X158098239Y-64466500D01*
X158030118Y-64446498D01*
X158004603Y-64424810D01*
X157997801Y-64417255D01*
X157911253Y-64321134D01*
X157756752Y-64208882D01*
X157750724Y-64206198D01*
X157750722Y-64206197D01*
X157588319Y-64133891D01*
X157588318Y-64133891D01*
X157582288Y-64131206D01*
X157488888Y-64111353D01*
X157401944Y-64092872D01*
X157401939Y-64092872D01*
X157395487Y-64091500D01*
X157204513Y-64091500D01*
X157198061Y-64092872D01*
X157198056Y-64092872D01*
X157111112Y-64111353D01*
X157017712Y-64131206D01*
X157011682Y-64133891D01*
X157011681Y-64133891D01*
X156849278Y-64206197D01*
X156849276Y-64206198D01*
X156843248Y-64208882D01*
X156688747Y-64321134D01*
X156684326Y-64326044D01*
X156684325Y-64326045D01*
X156590310Y-64430460D01*
X156560960Y-64463056D01*
X156465473Y-64628444D01*
X156406458Y-64810072D01*
X156405768Y-64816633D01*
X156405768Y-64816635D01*
X156396355Y-64906197D01*
X156386496Y-65000000D01*
X142607677Y-65000000D01*
X142604250Y-64992717D01*
X142604246Y-64992710D01*
X142602562Y-64989131D01*
X142433432Y-64722625D01*
X142232233Y-64479418D01*
X142002140Y-64263346D01*
X141746779Y-64077816D01*
X141678946Y-64040524D01*
X141473648Y-63927660D01*
X141473647Y-63927659D01*
X141470179Y-63925753D01*
X141466510Y-63924300D01*
X141466505Y-63924298D01*
X141180372Y-63811010D01*
X141180371Y-63811010D01*
X141176702Y-63809557D01*
X140870975Y-63731060D01*
X140557821Y-63691500D01*
X140242179Y-63691500D01*
X139929025Y-63731060D01*
X139623298Y-63809557D01*
X139619629Y-63811010D01*
X139619628Y-63811010D01*
X139333495Y-63924298D01*
X139333490Y-63924300D01*
X139329821Y-63925753D01*
X139326353Y-63927659D01*
X139326352Y-63927660D01*
X139121055Y-64040524D01*
X139053221Y-64077816D01*
X138797860Y-64263346D01*
X138567767Y-64479418D01*
X138366568Y-64722625D01*
X138197438Y-64989131D01*
X138195754Y-64992710D01*
X138195750Y-64992717D01*
X138077028Y-65245016D01*
X138063044Y-65274734D01*
X138061818Y-65278506D01*
X138061818Y-65278507D01*
X138052317Y-65307747D01*
X137965505Y-65574928D01*
X137906359Y-65884980D01*
X137886540Y-66200000D01*
X132295905Y-66200000D01*
X131403652Y-65307747D01*
X131396112Y-65299461D01*
X131392000Y-65292982D01*
X131342348Y-65246356D01*
X131339507Y-65243602D01*
X131319770Y-65223865D01*
X131316573Y-65221385D01*
X131307551Y-65213680D01*
X131281100Y-65188841D01*
X131275321Y-65183414D01*
X131268375Y-65179595D01*
X131268372Y-65179593D01*
X131257566Y-65173652D01*
X131241047Y-65162801D01*
X131235048Y-65158148D01*
X131225041Y-65150386D01*
X131217772Y-65147241D01*
X131217768Y-65147238D01*
X131184463Y-65132826D01*
X131173813Y-65127609D01*
X131135060Y-65106305D01*
X131115437Y-65101267D01*
X131096734Y-65094863D01*
X131085420Y-65089967D01*
X131085419Y-65089967D01*
X131078145Y-65086819D01*
X131070322Y-65085580D01*
X131070312Y-65085577D01*
X131034476Y-65079901D01*
X131022856Y-65077495D01*
X130987711Y-65068472D01*
X130987710Y-65068472D01*
X130980030Y-65066500D01*
X130959776Y-65066500D01*
X130940065Y-65064949D01*
X130927886Y-65063020D01*
X130920057Y-65061780D01*
X130912165Y-65062526D01*
X130876039Y-65065941D01*
X130864181Y-65066500D01*
X125408200Y-65066500D01*
X125340079Y-65046498D01*
X125320853Y-65030157D01*
X125320580Y-65030460D01*
X125315668Y-65026037D01*
X125311253Y-65021134D01*
X125156752Y-64908882D01*
X125150724Y-64906198D01*
X125150722Y-64906197D01*
X124988319Y-64833891D01*
X124988318Y-64833891D01*
X124982288Y-64831206D01*
X124882861Y-64810072D01*
X124801944Y-64792872D01*
X124801939Y-64792872D01*
X124795487Y-64791500D01*
X124604513Y-64791500D01*
X124598061Y-64792872D01*
X124598056Y-64792872D01*
X124517139Y-64810072D01*
X124417712Y-64831206D01*
X124411682Y-64833891D01*
X124411681Y-64833891D01*
X124249278Y-64906197D01*
X124249276Y-64906198D01*
X124243248Y-64908882D01*
X124088747Y-65021134D01*
X124084326Y-65026044D01*
X124084325Y-65026045D01*
X123975203Y-65147238D01*
X123960960Y-65163056D01*
X123865473Y-65328444D01*
X123806458Y-65510072D01*
X123805768Y-65516633D01*
X123805768Y-65516635D01*
X123789233Y-65673955D01*
X123786496Y-65700000D01*
X123787186Y-65706565D01*
X123805537Y-65881161D01*
X123806458Y-65889928D01*
X123865473Y-66071556D01*
X123960960Y-66236944D01*
X124088747Y-66378866D01*
X124243248Y-66491118D01*
X124249276Y-66493802D01*
X124249278Y-66493803D01*
X124399285Y-66560590D01*
X124417712Y-66568794D01*
X124511112Y-66588647D01*
X124598056Y-66607128D01*
X124598061Y-66607128D01*
X124604513Y-66608500D01*
X124795487Y-66608500D01*
X124801939Y-66607128D01*
X124801944Y-66607128D01*
X124888888Y-66588647D01*
X124982288Y-66568794D01*
X125000715Y-66560590D01*
X125150722Y-66493803D01*
X125150724Y-66493802D01*
X125156752Y-66491118D01*
X125213813Y-66449661D01*
X125289671Y-66394546D01*
X125311253Y-66378866D01*
X125315668Y-66373963D01*
X125320580Y-66369540D01*
X125321705Y-66370789D01*
X125375014Y-66337949D01*
X125408200Y-66333500D01*
X130585406Y-66333500D01*
X130653527Y-66353502D01*
X130674501Y-66370405D01*
X147455500Y-83151405D01*
X147489526Y-83213717D01*
X147484461Y-83284532D01*
X147441914Y-83341368D01*
X147375394Y-83366179D01*
X147366405Y-83366500D01*
X144259776Y-83366500D01*
X144240065Y-83364949D01*
X144227886Y-83363020D01*
X144220057Y-83361780D01*
X144190786Y-83364547D01*
X144176039Y-83365941D01*
X144164181Y-83366500D01*
X140028767Y-83366500D01*
X140017584Y-83365973D01*
X140010091Y-83364298D01*
X140002165Y-83364547D01*
X140002164Y-83364547D01*
X139942014Y-83366438D01*
X139938055Y-83366500D01*
X139910144Y-83366500D01*
X139906210Y-83366997D01*
X139906209Y-83366997D01*
X139906144Y-83367005D01*
X139894307Y-83367938D01*
X139862049Y-83368952D01*
X139858030Y-83369078D01*
X139850111Y-83369327D01*
X139830657Y-83374979D01*
X139811300Y-83378987D01*
X139799070Y-83380532D01*
X139799069Y-83380532D01*
X139791203Y-83381526D01*
X139783832Y-83384445D01*
X139783830Y-83384445D01*
X139750088Y-83397804D01*
X139738858Y-83401649D01*
X139704017Y-83411771D01*
X139704016Y-83411771D01*
X139696407Y-83413982D01*
X139689588Y-83418015D01*
X139689583Y-83418017D01*
X139678972Y-83424293D01*
X139661224Y-83432988D01*
X139642383Y-83440448D01*
X139635967Y-83445110D01*
X139635966Y-83445110D01*
X139606613Y-83466436D01*
X139596693Y-83472952D01*
X139565465Y-83491420D01*
X139565462Y-83491422D01*
X139558638Y-83495458D01*
X139544317Y-83509779D01*
X139529284Y-83522619D01*
X139512893Y-83534528D01*
X139484702Y-83568605D01*
X139476712Y-83577384D01*
X137857747Y-85196348D01*
X137849461Y-85203888D01*
X137842982Y-85208000D01*
X137837557Y-85213777D01*
X137796357Y-85257651D01*
X137793602Y-85260493D01*
X137773865Y-85280230D01*
X137771385Y-85283427D01*
X137763682Y-85292447D01*
X137733414Y-85324679D01*
X137729595Y-85331625D01*
X137729593Y-85331628D01*
X137723652Y-85342434D01*
X137712801Y-85358953D01*
X137700386Y-85374959D01*
X137697241Y-85382228D01*
X137697238Y-85382232D01*
X137682826Y-85415537D01*
X137677609Y-85426187D01*
X137656305Y-85464940D01*
X137654334Y-85472615D01*
X137654334Y-85472616D01*
X137651267Y-85484562D01*
X137644863Y-85503266D01*
X137636819Y-85521855D01*
X137635580Y-85529678D01*
X137635577Y-85529688D01*
X137629901Y-85565524D01*
X137627495Y-85577144D01*
X137616500Y-85619970D01*
X137616500Y-85640224D01*
X137614949Y-85659934D01*
X137611780Y-85679943D01*
X137612526Y-85687835D01*
X137615941Y-85723961D01*
X137616500Y-85735819D01*
X137616500Y-92540500D01*
X137596498Y-92608621D01*
X137542842Y-92655114D01*
X137490500Y-92666500D01*
X134978767Y-92666500D01*
X134967584Y-92665973D01*
X134960091Y-92664298D01*
X134952165Y-92664547D01*
X134952164Y-92664547D01*
X134892014Y-92666438D01*
X134888055Y-92666500D01*
X134860144Y-92666500D01*
X134856210Y-92666997D01*
X134856209Y-92666997D01*
X134856144Y-92667005D01*
X134844307Y-92667938D01*
X134812490Y-92668938D01*
X134808029Y-92669078D01*
X134800110Y-92669327D01*
X134782454Y-92674456D01*
X134780658Y-92674978D01*
X134761306Y-92678986D01*
X134754235Y-92679880D01*
X134741203Y-92681526D01*
X134733834Y-92684443D01*
X134733832Y-92684444D01*
X134700097Y-92697800D01*
X134688869Y-92701645D01*
X134646407Y-92713982D01*
X134639585Y-92718016D01*
X134639579Y-92718019D01*
X134628968Y-92724294D01*
X134611218Y-92732990D01*
X134599756Y-92737528D01*
X134599751Y-92737531D01*
X134592383Y-92740448D01*
X134574970Y-92753099D01*
X134556625Y-92766427D01*
X134546707Y-92772943D01*
X134535463Y-92779593D01*
X134508637Y-92795458D01*
X134494313Y-92809782D01*
X134479281Y-92822621D01*
X134462893Y-92834528D01*
X134443349Y-92858153D01*
X134434712Y-92868593D01*
X134426722Y-92877373D01*
X133607747Y-93696348D01*
X133599461Y-93703888D01*
X133592982Y-93708000D01*
X133587557Y-93713777D01*
X133546357Y-93757651D01*
X133543602Y-93760493D01*
X133523865Y-93780230D01*
X133521385Y-93783427D01*
X133513682Y-93792447D01*
X133483414Y-93824679D01*
X133479595Y-93831625D01*
X133479593Y-93831628D01*
X133473652Y-93842434D01*
X133462801Y-93858953D01*
X133450386Y-93874959D01*
X133447241Y-93882228D01*
X133447238Y-93882232D01*
X133432826Y-93915537D01*
X133427609Y-93926187D01*
X133406305Y-93964940D01*
X133404334Y-93972615D01*
X133404334Y-93972616D01*
X133401267Y-93984562D01*
X133394863Y-94003266D01*
X133386819Y-94021855D01*
X133385580Y-94029678D01*
X133385577Y-94029688D01*
X133379901Y-94065524D01*
X133377495Y-94077144D01*
X133366500Y-94119970D01*
X133366500Y-94140224D01*
X133364949Y-94159934D01*
X133361780Y-94179943D01*
X133362526Y-94187835D01*
X133365941Y-94223961D01*
X133366500Y-94235819D01*
X133366500Y-96221233D01*
X133365973Y-96232416D01*
X133364298Y-96239909D01*
X133364547Y-96247835D01*
X133364547Y-96247836D01*
X133366438Y-96307986D01*
X133366500Y-96311945D01*
X133366500Y-96339856D01*
X133366997Y-96343790D01*
X133366997Y-96343791D01*
X133367005Y-96343856D01*
X133367938Y-96355693D01*
X133369327Y-96399889D01*
X133373362Y-96413777D01*
X133374978Y-96419339D01*
X133378987Y-96438700D01*
X133381526Y-96458797D01*
X133384445Y-96466168D01*
X133384445Y-96466170D01*
X133397804Y-96499912D01*
X133401649Y-96511142D01*
X133413982Y-96553593D01*
X133418015Y-96560412D01*
X133418017Y-96560417D01*
X133424293Y-96571028D01*
X133432988Y-96588776D01*
X133440448Y-96607617D01*
X133445110Y-96614033D01*
X133445110Y-96614034D01*
X133466436Y-96643387D01*
X133472952Y-96653307D01*
X133484787Y-96673318D01*
X133495458Y-96691362D01*
X133509779Y-96705683D01*
X133522619Y-96720716D01*
X133534528Y-96737107D01*
X133540633Y-96742158D01*
X133540638Y-96742163D01*
X133568604Y-96765299D01*
X133577382Y-96773287D01*
X134296348Y-97492253D01*
X134303888Y-97500539D01*
X134308000Y-97507018D01*
X134313777Y-97512443D01*
X134357651Y-97553643D01*
X134360493Y-97556398D01*
X134380230Y-97576135D01*
X134383427Y-97578615D01*
X134392447Y-97586318D01*
X134424679Y-97616586D01*
X134431625Y-97620405D01*
X134431628Y-97620407D01*
X134442434Y-97626348D01*
X134458953Y-97637199D01*
X134474959Y-97649614D01*
X134482228Y-97652759D01*
X134482232Y-97652762D01*
X134515537Y-97667174D01*
X134526187Y-97672391D01*
X134564940Y-97693695D01*
X134572615Y-97695666D01*
X134572616Y-97695666D01*
X134584562Y-97698733D01*
X134603266Y-97705137D01*
X134611223Y-97708580D01*
X134621855Y-97713181D01*
X134629678Y-97714420D01*
X134629688Y-97714423D01*
X134665524Y-97720099D01*
X134677144Y-97722505D01*
X134712289Y-97731528D01*
X134719970Y-97733500D01*
X134740224Y-97733500D01*
X134759934Y-97735051D01*
X134779943Y-97738220D01*
X134787835Y-97737474D01*
X134823961Y-97734059D01*
X134835819Y-97733500D01*
X138591800Y-97733500D01*
X138659921Y-97753502D01*
X138679147Y-97769843D01*
X138679420Y-97769540D01*
X138684332Y-97773963D01*
X138688747Y-97778866D01*
X138698591Y-97786018D01*
X138831724Y-97882745D01*
X138843248Y-97891118D01*
X138849276Y-97893802D01*
X138849278Y-97893803D01*
X139004251Y-97962801D01*
X139017712Y-97968794D01*
X139104479Y-97987237D01*
X139198056Y-98007128D01*
X139198061Y-98007128D01*
X139204513Y-98008500D01*
X139395487Y-98008500D01*
X139401939Y-98007128D01*
X139401944Y-98007128D01*
X139495521Y-97987237D01*
X139582288Y-97968794D01*
X139595749Y-97962801D01*
X139750722Y-97893803D01*
X139750724Y-97893802D01*
X139756752Y-97891118D01*
X139768277Y-97882745D01*
X139812157Y-97850864D01*
X139911253Y-97778866D01*
X139926017Y-97762469D01*
X140034621Y-97641852D01*
X140034622Y-97641851D01*
X140039040Y-97636944D01*
X140134527Y-97471556D01*
X140145668Y-97437269D01*
X140185741Y-97378665D01*
X140251138Y-97351028D01*
X140321094Y-97363135D01*
X140373400Y-97411141D01*
X140391500Y-97476207D01*
X140391500Y-104791377D01*
X140391498Y-104792147D01*
X140391024Y-104869721D01*
X140393491Y-104878352D01*
X140399150Y-104898153D01*
X140402728Y-104914915D01*
X140406920Y-104944187D01*
X140410634Y-104952355D01*
X140410634Y-104952356D01*
X140417548Y-104967562D01*
X140423996Y-104985086D01*
X140431051Y-105009771D01*
X140435843Y-105017365D01*
X140435844Y-105017368D01*
X140446830Y-105034780D01*
X140454969Y-105049863D01*
X140467208Y-105076782D01*
X140473069Y-105083584D01*
X140483970Y-105096235D01*
X140495073Y-105111239D01*
X140508776Y-105132958D01*
X140515501Y-105138897D01*
X140515504Y-105138901D01*
X140530938Y-105152532D01*
X140542982Y-105164724D01*
X140556427Y-105180327D01*
X140556430Y-105180329D01*
X140562287Y-105187127D01*
X140569816Y-105192007D01*
X140569817Y-105192008D01*
X140583835Y-105201094D01*
X140598709Y-105212385D01*
X140611217Y-105223431D01*
X140617951Y-105229378D01*
X140644711Y-105241942D01*
X140659691Y-105250263D01*
X140676983Y-105261471D01*
X140676988Y-105261473D01*
X140684515Y-105266352D01*
X140693108Y-105268922D01*
X140693113Y-105268924D01*
X140709120Y-105273711D01*
X140726564Y-105280372D01*
X140741676Y-105287467D01*
X140741678Y-105287468D01*
X140749800Y-105291281D01*
X140758667Y-105292662D01*
X140758668Y-105292662D01*
X140761353Y-105293080D01*
X140779017Y-105295830D01*
X140795732Y-105299613D01*
X140815466Y-105305515D01*
X140815472Y-105305516D01*
X140824066Y-105308086D01*
X140833037Y-105308141D01*
X140833038Y-105308141D01*
X140843097Y-105308202D01*
X140858506Y-105308296D01*
X140859289Y-105308329D01*
X140860386Y-105308500D01*
X140891377Y-105308500D01*
X140892147Y-105308502D01*
X140965785Y-105308952D01*
X140965786Y-105308952D01*
X140969721Y-105308976D01*
X140971065Y-105308592D01*
X140972410Y-105308500D01*
X142591377Y-105308500D01*
X142592148Y-105308502D01*
X142669721Y-105308976D01*
X142698152Y-105300850D01*
X142714915Y-105297272D01*
X142715753Y-105297152D01*
X142744187Y-105293080D01*
X142767564Y-105282451D01*
X142785087Y-105276004D01*
X142809771Y-105268949D01*
X142817365Y-105264157D01*
X142817368Y-105264156D01*
X142834780Y-105253170D01*
X142849865Y-105245030D01*
X142876782Y-105232792D01*
X142896235Y-105216030D01*
X142911239Y-105204927D01*
X142932958Y-105191224D01*
X142938897Y-105184499D01*
X142938901Y-105184496D01*
X142952532Y-105169062D01*
X142964724Y-105157018D01*
X142980327Y-105143573D01*
X142980329Y-105143570D01*
X142987127Y-105137713D01*
X143000782Y-105116647D01*
X143001094Y-105116165D01*
X143012385Y-105101291D01*
X143023431Y-105088783D01*
X143023432Y-105088782D01*
X143029378Y-105082049D01*
X143041943Y-105055287D01*
X143050263Y-105040309D01*
X143061471Y-105023017D01*
X143061473Y-105023012D01*
X143066352Y-105015485D01*
X143068922Y-105006892D01*
X143068924Y-105006887D01*
X143073711Y-104990880D01*
X143080372Y-104973436D01*
X143087467Y-104958324D01*
X143087468Y-104958322D01*
X143091281Y-104950200D01*
X143093639Y-104935060D01*
X143095830Y-104920985D01*
X143099613Y-104904268D01*
X143105515Y-104884534D01*
X143105516Y-104884528D01*
X143108086Y-104875934D01*
X143108296Y-104841494D01*
X143108329Y-104840711D01*
X143108500Y-104839614D01*
X143108500Y-104808623D01*
X143108502Y-104807853D01*
X143108952Y-104734215D01*
X143108952Y-104734214D01*
X143108976Y-104730279D01*
X143108592Y-104728935D01*
X143108500Y-104727590D01*
X143108500Y-97769909D01*
X143128502Y-97701788D01*
X143182158Y-97655295D01*
X143252432Y-97645191D01*
X143317012Y-97674685D01*
X143343618Y-97706907D01*
X143360960Y-97736944D01*
X143365378Y-97741851D01*
X143365379Y-97741852D01*
X143478060Y-97866997D01*
X143488747Y-97878866D01*
X143643248Y-97991118D01*
X143649276Y-97993802D01*
X143649278Y-97993803D01*
X143804824Y-98063056D01*
X143817712Y-98068794D01*
X143911113Y-98088647D01*
X143998056Y-98107128D01*
X143998061Y-98107128D01*
X144004513Y-98108500D01*
X144195487Y-98108500D01*
X144201939Y-98107128D01*
X144201944Y-98107128D01*
X144288887Y-98088647D01*
X144382288Y-98068794D01*
X144395176Y-98063056D01*
X144550722Y-97993803D01*
X144550724Y-97993802D01*
X144556752Y-97991118D01*
X144590723Y-97966437D01*
X144703576Y-97884444D01*
X144711253Y-97878866D01*
X144715668Y-97873963D01*
X144720580Y-97869540D01*
X144721705Y-97870789D01*
X144775014Y-97837949D01*
X144808200Y-97833500D01*
X148571233Y-97833500D01*
X148582416Y-97834027D01*
X148589909Y-97835702D01*
X148597835Y-97835453D01*
X148597836Y-97835453D01*
X148657986Y-97833562D01*
X148661945Y-97833500D01*
X148689856Y-97833500D01*
X148693791Y-97833003D01*
X148693856Y-97832995D01*
X148705693Y-97832062D01*
X148737951Y-97831048D01*
X148741970Y-97830922D01*
X148749889Y-97830673D01*
X148769343Y-97825021D01*
X148788700Y-97821013D01*
X148800930Y-97819468D01*
X148800931Y-97819468D01*
X148808797Y-97818474D01*
X148816168Y-97815555D01*
X148816170Y-97815555D01*
X148849912Y-97802196D01*
X148861142Y-97798351D01*
X148895983Y-97788229D01*
X148895984Y-97788229D01*
X148903593Y-97786018D01*
X148910412Y-97781985D01*
X148910417Y-97781983D01*
X148921028Y-97775707D01*
X148938776Y-97767012D01*
X148957617Y-97759552D01*
X148986979Y-97738220D01*
X148993387Y-97733564D01*
X149003307Y-97727048D01*
X149034535Y-97708580D01*
X149034538Y-97708578D01*
X149041362Y-97704542D01*
X149055683Y-97690221D01*
X149070717Y-97677380D01*
X149080694Y-97670131D01*
X149087107Y-97665472D01*
X149092158Y-97659367D01*
X149092163Y-97659362D01*
X149115299Y-97631396D01*
X149123287Y-97622618D01*
X149992253Y-96753652D01*
X150000539Y-96746112D01*
X150007018Y-96742000D01*
X150053644Y-96692348D01*
X150056398Y-96689507D01*
X150076135Y-96669770D01*
X150078615Y-96666573D01*
X150086320Y-96657551D01*
X150090306Y-96653307D01*
X150116586Y-96625321D01*
X150116667Y-96625397D01*
X150169791Y-96584435D01*
X150240527Y-96578363D01*
X150303318Y-96611497D01*
X150338227Y-96673318D01*
X150341500Y-96701852D01*
X150341500Y-98163001D01*
X150324619Y-98226000D01*
X150265473Y-98328444D01*
X150206458Y-98510072D01*
X150186496Y-98700000D01*
X150187186Y-98706565D01*
X150205440Y-98880239D01*
X150206458Y-98889928D01*
X150265473Y-99071556D01*
X150360960Y-99236944D01*
X150365378Y-99241851D01*
X150365379Y-99241852D01*
X150484325Y-99373955D01*
X150488747Y-99378866D01*
X150587843Y-99450864D01*
X150633022Y-99483688D01*
X150643248Y-99491118D01*
X150649274Y-99493801D01*
X150649281Y-99493805D01*
X150731594Y-99530452D01*
X150785690Y-99576432D01*
X150806340Y-99644359D01*
X150786988Y-99712667D01*
X150769441Y-99734654D01*
X150374500Y-100129595D01*
X150312188Y-100163621D01*
X150285405Y-100166500D01*
X149808200Y-100166500D01*
X149740079Y-100146498D01*
X149720853Y-100130157D01*
X149720580Y-100130460D01*
X149715668Y-100126037D01*
X149711253Y-100121134D01*
X149650986Y-100077347D01*
X149562094Y-100012763D01*
X149562093Y-100012762D01*
X149556752Y-100008882D01*
X149550724Y-100006198D01*
X149550722Y-100006197D01*
X149388319Y-99933891D01*
X149388318Y-99933891D01*
X149382288Y-99931206D01*
X149288888Y-99911353D01*
X149201944Y-99892872D01*
X149201939Y-99892872D01*
X149195487Y-99891500D01*
X149004513Y-99891500D01*
X148998061Y-99892872D01*
X148998056Y-99892872D01*
X148911112Y-99911353D01*
X148817712Y-99931206D01*
X148811682Y-99933891D01*
X148811681Y-99933891D01*
X148649278Y-100006197D01*
X148649276Y-100006198D01*
X148643248Y-100008882D01*
X148488747Y-100121134D01*
X148484326Y-100126044D01*
X148484325Y-100126045D01*
X148450492Y-100163621D01*
X148360960Y-100263056D01*
X148265473Y-100428444D01*
X148206458Y-100610072D01*
X148186496Y-100800000D01*
X148206458Y-100989928D01*
X148265473Y-101171556D01*
X148360960Y-101336944D01*
X148378291Y-101356192D01*
X148409007Y-101420198D01*
X148400242Y-101490651D01*
X148354779Y-101545182D01*
X148284653Y-101566500D01*
X146878763Y-101566500D01*
X146867579Y-101565973D01*
X146860091Y-101564299D01*
X146852168Y-101564548D01*
X146792033Y-101566438D01*
X146788075Y-101566500D01*
X146760144Y-101566500D01*
X146756229Y-101566995D01*
X146756225Y-101566995D01*
X146756167Y-101567003D01*
X146756138Y-101567006D01*
X146744296Y-101567939D01*
X146700110Y-101569327D01*
X146682744Y-101574372D01*
X146680658Y-101574978D01*
X146661306Y-101578986D01*
X146649068Y-101580532D01*
X146649066Y-101580533D01*
X146641203Y-101581526D01*
X146600086Y-101597806D01*
X146588885Y-101601641D01*
X146546406Y-101613982D01*
X146539587Y-101618015D01*
X146539582Y-101618017D01*
X146528971Y-101624293D01*
X146511221Y-101632990D01*
X146492383Y-101640448D01*
X146485967Y-101645109D01*
X146485966Y-101645110D01*
X146456625Y-101666428D01*
X146446701Y-101672947D01*
X146415460Y-101691422D01*
X146415455Y-101691426D01*
X146408637Y-101695458D01*
X146394313Y-101709782D01*
X146379281Y-101722621D01*
X146362893Y-101734528D01*
X146334712Y-101768593D01*
X146326722Y-101777373D01*
X145049500Y-103054595D01*
X144987188Y-103088621D01*
X144960405Y-103091500D01*
X144904513Y-103091500D01*
X144898061Y-103092872D01*
X144898056Y-103092872D01*
X144811112Y-103111353D01*
X144717712Y-103131206D01*
X144711682Y-103133891D01*
X144711681Y-103133891D01*
X144549278Y-103206197D01*
X144549276Y-103206198D01*
X144543248Y-103208882D01*
X144388747Y-103321134D01*
X144260960Y-103463056D01*
X144165473Y-103628444D01*
X144106458Y-103810072D01*
X144086496Y-104000000D01*
X144106458Y-104189928D01*
X144165473Y-104371556D01*
X144260960Y-104536944D01*
X144265378Y-104541851D01*
X144265379Y-104541852D01*
X144382584Y-104672021D01*
X144388747Y-104678866D01*
X144543248Y-104791118D01*
X144549276Y-104793802D01*
X144549278Y-104793803D01*
X144711681Y-104866109D01*
X144717712Y-104868794D01*
X144795926Y-104885419D01*
X144898056Y-104907128D01*
X144898061Y-104907128D01*
X144904513Y-104908500D01*
X145095487Y-104908500D01*
X145101939Y-104907128D01*
X145101944Y-104907128D01*
X145204074Y-104885419D01*
X145282288Y-104868794D01*
X145288319Y-104866109D01*
X145450722Y-104793803D01*
X145450724Y-104793802D01*
X145456752Y-104791118D01*
X145611253Y-104678866D01*
X145617416Y-104672021D01*
X145734621Y-104541852D01*
X145734622Y-104541851D01*
X145739040Y-104536944D01*
X145834527Y-104371556D01*
X145893542Y-104189928D01*
X145910907Y-104024706D01*
X145937920Y-103959050D01*
X145947122Y-103948782D01*
X147025499Y-102870405D01*
X147087811Y-102836379D01*
X147114594Y-102833500D01*
X157721233Y-102833500D01*
X157732416Y-102834027D01*
X157739909Y-102835702D01*
X157747835Y-102835453D01*
X157747836Y-102835453D01*
X157807986Y-102833562D01*
X157811945Y-102833500D01*
X157839856Y-102833500D01*
X157843791Y-102833003D01*
X157843856Y-102832995D01*
X157855693Y-102832062D01*
X157887951Y-102831048D01*
X157891970Y-102830922D01*
X157899889Y-102830673D01*
X157919343Y-102825021D01*
X157938700Y-102821013D01*
X157950930Y-102819468D01*
X157950931Y-102819468D01*
X157958797Y-102818474D01*
X157966168Y-102815555D01*
X157966170Y-102815555D01*
X157999912Y-102802196D01*
X158011142Y-102798351D01*
X158045983Y-102788229D01*
X158045984Y-102788229D01*
X158053593Y-102786018D01*
X158060412Y-102781985D01*
X158060417Y-102781983D01*
X158071028Y-102775707D01*
X158088776Y-102767012D01*
X158107617Y-102759552D01*
X158143387Y-102733564D01*
X158153307Y-102727048D01*
X158184535Y-102708580D01*
X158184538Y-102708578D01*
X158191362Y-102704542D01*
X158205683Y-102690221D01*
X158220717Y-102677380D01*
X158230694Y-102670131D01*
X158237107Y-102665472D01*
X158265298Y-102631395D01*
X158273288Y-102622616D01*
X160950499Y-99945405D01*
X161012811Y-99911379D01*
X161039594Y-99908500D01*
X161095487Y-99908500D01*
X161101939Y-99907128D01*
X161101944Y-99907128D01*
X161188888Y-99888647D01*
X161282288Y-99868794D01*
X161288319Y-99866109D01*
X161450722Y-99793803D01*
X161450724Y-99793802D01*
X161456752Y-99791118D01*
X161611253Y-99678866D01*
X161712306Y-99566635D01*
X161734621Y-99541852D01*
X161734622Y-99541851D01*
X161739040Y-99536944D01*
X161834527Y-99371556D01*
X161842658Y-99346530D01*
X161882732Y-99287926D01*
X161948129Y-99260289D01*
X162018086Y-99272396D01*
X162070391Y-99320403D01*
X162088491Y-99385468D01*
X162088491Y-103963414D01*
X162068489Y-104031535D01*
X162051586Y-104052509D01*
X157785666Y-108318429D01*
X157723354Y-108352455D01*
X157652539Y-108347390D01*
X157613683Y-108323833D01*
X157611253Y-108321134D01*
X157456752Y-108208882D01*
X157450724Y-108206198D01*
X157450722Y-108206197D01*
X157288319Y-108133891D01*
X157288318Y-108133891D01*
X157282288Y-108131206D01*
X157275833Y-108129834D01*
X157275824Y-108129831D01*
X157219228Y-108117801D01*
X157156331Y-108083650D01*
X156683770Y-107611089D01*
X156671384Y-107596677D01*
X156662851Y-107585082D01*
X156662846Y-107585077D01*
X156658508Y-107579182D01*
X156652930Y-107574443D01*
X156652927Y-107574440D01*
X156618232Y-107544965D01*
X156610716Y-107538035D01*
X156605021Y-107532340D01*
X156598880Y-107527482D01*
X156582749Y-107514719D01*
X156579345Y-107511928D01*
X156529297Y-107469409D01*
X156529295Y-107469408D01*
X156523715Y-107464667D01*
X156517199Y-107461339D01*
X156512150Y-107457972D01*
X156507021Y-107454805D01*
X156501284Y-107450266D01*
X156435125Y-107419345D01*
X156431225Y-107417439D01*
X156366192Y-107384231D01*
X156359084Y-107382492D01*
X156353441Y-107380393D01*
X156347678Y-107378476D01*
X156341050Y-107375378D01*
X156269583Y-107360513D01*
X156265299Y-107359543D01*
X156194390Y-107342192D01*
X156188788Y-107341844D01*
X156188785Y-107341844D01*
X156183236Y-107341500D01*
X156183238Y-107341464D01*
X156179245Y-107341225D01*
X156175053Y-107340851D01*
X156167885Y-107339360D01*
X156104120Y-107341085D01*
X156090479Y-107341454D01*
X156087072Y-107341500D01*
X123867070Y-107341500D01*
X123848120Y-107340067D01*
X123833885Y-107337901D01*
X123833881Y-107337901D01*
X123826651Y-107336801D01*
X123819359Y-107337394D01*
X123819356Y-107337394D01*
X123773982Y-107341085D01*
X123763767Y-107341500D01*
X123755707Y-107341500D01*
X123752073Y-107341924D01*
X123752067Y-107341924D01*
X123739042Y-107343443D01*
X123727480Y-107344791D01*
X123723132Y-107345221D01*
X123704125Y-107346767D01*
X123657662Y-107350546D01*
X123657659Y-107350547D01*
X123650364Y-107351140D01*
X123643400Y-107353396D01*
X123637461Y-107354583D01*
X123631590Y-107355970D01*
X123624319Y-107356818D01*
X123617443Y-107359314D01*
X123617434Y-107359316D01*
X123555702Y-107381725D01*
X123551598Y-107383135D01*
X123482101Y-107405648D01*
X123475846Y-107409444D01*
X123470387Y-107411943D01*
X123464939Y-107414671D01*
X123458063Y-107417167D01*
X123397010Y-107457195D01*
X123393327Y-107459519D01*
X123335686Y-107494496D01*
X123335682Y-107494499D01*
X123330893Y-107497405D01*
X123322517Y-107504803D01*
X123322493Y-107504776D01*
X123319511Y-107507421D01*
X123316274Y-107510128D01*
X123310148Y-107514144D01*
X123305112Y-107519460D01*
X123305111Y-107519461D01*
X123256855Y-107570401D01*
X123254477Y-107572843D01*
X121973589Y-108853730D01*
X121959177Y-108866116D01*
X121947582Y-108874649D01*
X121947577Y-108874654D01*
X121941682Y-108878992D01*
X121936943Y-108884570D01*
X121936940Y-108884573D01*
X121907465Y-108919268D01*
X121900535Y-108926784D01*
X121894840Y-108932479D01*
X121892560Y-108935361D01*
X121877219Y-108954751D01*
X121874428Y-108958155D01*
X121840890Y-108997632D01*
X121827167Y-109013785D01*
X121823839Y-109020301D01*
X121820472Y-109025350D01*
X121817305Y-109030479D01*
X121812766Y-109036216D01*
X121781845Y-109102375D01*
X121779942Y-109106269D01*
X121746731Y-109171308D01*
X121744992Y-109178416D01*
X121742893Y-109184059D01*
X121740976Y-109189822D01*
X121737878Y-109196450D01*
X121736388Y-109203612D01*
X121736388Y-109203613D01*
X121723014Y-109267912D01*
X121722044Y-109272196D01*
X121704692Y-109343110D01*
X121704344Y-109348712D01*
X121704344Y-109348715D01*
X121704000Y-109354262D01*
X121704000Y-109354264D01*
X121703964Y-109354262D01*
X121703725Y-109358255D01*
X121703351Y-109362447D01*
X121701860Y-109369615D01*
X121702058Y-109376932D01*
X121703954Y-109447021D01*
X121704000Y-109450428D01*
X121704000Y-109925501D01*
X121687119Y-109988500D01*
X121627973Y-110090944D01*
X121568958Y-110272572D01*
X121568268Y-110279133D01*
X121568268Y-110279135D01*
X121564231Y-110317550D01*
X121548996Y-110462500D01*
X121549686Y-110469065D01*
X121566450Y-110628562D01*
X121568958Y-110652428D01*
X121627973Y-110834056D01*
X121723460Y-110999444D01*
X121727878Y-111004351D01*
X121727879Y-111004352D01*
X121810497Y-111096109D01*
X121851247Y-111141366D01*
X121950343Y-111213364D01*
X121972882Y-111229739D01*
X122005748Y-111253618D01*
X122011776Y-111256302D01*
X122011778Y-111256303D01*
X122174181Y-111328609D01*
X122180212Y-111331294D01*
X122273612Y-111351147D01*
X122360556Y-111369628D01*
X122360561Y-111369628D01*
X122367013Y-111371000D01*
X122557987Y-111371000D01*
X122564439Y-111369628D01*
X122564444Y-111369628D01*
X122651388Y-111351147D01*
X122744788Y-111331294D01*
X122750819Y-111328609D01*
X122913222Y-111256303D01*
X122913224Y-111256302D01*
X122919252Y-111253618D01*
X122952119Y-111229739D01*
X122974657Y-111213364D01*
X123073753Y-111141366D01*
X123114503Y-111096109D01*
X123197121Y-111004352D01*
X123197122Y-111004351D01*
X123201540Y-110999444D01*
X123297027Y-110834056D01*
X123303401Y-110814439D01*
X123343475Y-110755833D01*
X123408871Y-110728196D01*
X123478828Y-110740303D01*
X123516869Y-110769064D01*
X123642747Y-110908866D01*
X123741843Y-110980864D01*
X123774172Y-111004352D01*
X123797248Y-111021118D01*
X123803276Y-111023802D01*
X123803278Y-111023803D01*
X123907879Y-111070374D01*
X123971712Y-111098794D01*
X124065112Y-111118647D01*
X124152056Y-111137128D01*
X124152061Y-111137128D01*
X124158513Y-111138500D01*
X124349487Y-111138500D01*
X124364397Y-111135331D01*
X124438116Y-111119662D01*
X124508907Y-111125064D01*
X124565539Y-111167882D01*
X124589622Y-111229738D01*
X124592414Y-111256303D01*
X124604469Y-111371000D01*
X124606458Y-111389928D01*
X124665473Y-111571556D01*
X124760960Y-111736944D01*
X124765378Y-111741851D01*
X124765379Y-111741852D01*
X124847452Y-111833003D01*
X124888747Y-111878866D01*
X125043248Y-111991118D01*
X125049276Y-111993802D01*
X125049278Y-111993803D01*
X125211681Y-112066109D01*
X125217712Y-112068794D01*
X125311113Y-112088647D01*
X125398056Y-112107128D01*
X125398061Y-112107128D01*
X125404513Y-112108500D01*
X125595487Y-112108500D01*
X125601939Y-112107128D01*
X125601944Y-112107128D01*
X125688887Y-112088647D01*
X125782288Y-112068794D01*
X125788319Y-112066109D01*
X125950722Y-111993803D01*
X125950724Y-111993802D01*
X125956752Y-111991118D01*
X126111253Y-111878866D01*
X126115668Y-111873963D01*
X126120580Y-111869540D01*
X126121705Y-111870789D01*
X126175014Y-111837949D01*
X126208200Y-111833500D01*
X157021233Y-111833500D01*
X157032416Y-111834027D01*
X157039909Y-111835702D01*
X157047835Y-111835453D01*
X157047836Y-111835453D01*
X157107986Y-111833562D01*
X157111945Y-111833500D01*
X157139856Y-111833500D01*
X157143791Y-111833003D01*
X157143856Y-111832995D01*
X157155693Y-111832062D01*
X157187951Y-111831048D01*
X157191970Y-111830922D01*
X157199889Y-111830673D01*
X157219343Y-111825021D01*
X157238700Y-111821013D01*
X157250930Y-111819468D01*
X157250931Y-111819468D01*
X157258797Y-111818474D01*
X157266168Y-111815555D01*
X157266170Y-111815555D01*
X157299912Y-111802196D01*
X157311142Y-111798351D01*
X157345983Y-111788229D01*
X157345984Y-111788229D01*
X157353593Y-111786018D01*
X157360412Y-111781985D01*
X157360417Y-111781983D01*
X157371028Y-111775707D01*
X157388776Y-111767012D01*
X157407617Y-111759552D01*
X157443387Y-111733564D01*
X157453307Y-111727048D01*
X157484535Y-111708580D01*
X157484538Y-111708578D01*
X157491362Y-111704542D01*
X157505683Y-111690221D01*
X157520717Y-111677380D01*
X157530694Y-111670131D01*
X157537107Y-111665472D01*
X157565298Y-111631395D01*
X157573288Y-111622616D01*
X163992247Y-105203657D01*
X164000537Y-105196113D01*
X164007018Y-105192000D01*
X164053659Y-105142332D01*
X164056413Y-105139491D01*
X164076134Y-105119770D01*
X164078612Y-105116575D01*
X164086318Y-105107553D01*
X164111158Y-105081101D01*
X164116586Y-105075321D01*
X164126346Y-105057568D01*
X164137199Y-105041045D01*
X164138356Y-105039553D01*
X164149613Y-105025041D01*
X164167176Y-104984457D01*
X164172383Y-104973827D01*
X164193695Y-104935060D01*
X164195666Y-104927383D01*
X164195668Y-104927378D01*
X164198732Y-104915442D01*
X164205138Y-104896730D01*
X164210033Y-104885419D01*
X164213181Y-104878145D01*
X164214421Y-104870317D01*
X164214423Y-104870310D01*
X164220099Y-104834476D01*
X164222505Y-104822856D01*
X164231528Y-104787711D01*
X164231528Y-104787710D01*
X164233500Y-104780030D01*
X164233500Y-104759776D01*
X164235051Y-104740065D01*
X164236980Y-104727886D01*
X164238220Y-104720057D01*
X164234059Y-104676038D01*
X164233500Y-104664181D01*
X164233500Y-104372826D01*
X164243862Y-104322788D01*
X164263181Y-104278145D01*
X164288220Y-104120057D01*
X164281835Y-104052509D01*
X164273903Y-103968596D01*
X164273902Y-103968593D01*
X164273157Y-103960708D01*
X164268864Y-103948782D01*
X164240949Y-103871246D01*
X164233500Y-103828565D01*
X164233500Y-100382468D01*
X164250380Y-100319470D01*
X164281518Y-100265538D01*
X164340533Y-100083910D01*
X164342780Y-100062531D01*
X164369794Y-99996874D01*
X164428015Y-99956245D01*
X164498960Y-99953542D01*
X164560104Y-99989624D01*
X164587923Y-100036765D01*
X164615473Y-100121556D01*
X164618776Y-100127278D01*
X164618777Y-100127279D01*
X164623496Y-100135453D01*
X164710960Y-100286944D01*
X164715378Y-100291851D01*
X164715379Y-100291852D01*
X164796970Y-100382468D01*
X164838747Y-100428866D01*
X164993248Y-100541118D01*
X164999276Y-100543802D01*
X164999278Y-100543803D01*
X165134021Y-100603794D01*
X165167712Y-100618794D01*
X165261113Y-100638647D01*
X165348056Y-100657128D01*
X165348061Y-100657128D01*
X165354513Y-100658500D01*
X165545487Y-100658500D01*
X165551939Y-100657128D01*
X165551944Y-100657128D01*
X165638887Y-100638647D01*
X165732288Y-100618794D01*
X165765979Y-100603794D01*
X165900722Y-100543803D01*
X165900724Y-100543802D01*
X165906752Y-100541118D01*
X166061253Y-100428866D01*
X166146864Y-100333785D01*
X166207310Y-100296545D01*
X166278293Y-100297897D01*
X166337278Y-100337410D01*
X166365536Y-100402541D01*
X166366500Y-100418095D01*
X166366500Y-107297476D01*
X166346498Y-107365597D01*
X166334142Y-107381779D01*
X166260960Y-107463056D01*
X166222275Y-107530060D01*
X166179387Y-107604345D01*
X166165473Y-107628444D01*
X166106458Y-107810072D01*
X166105768Y-107816633D01*
X166105768Y-107816635D01*
X166089093Y-107975292D01*
X166062080Y-108040949D01*
X166052878Y-108051217D01*
X160774500Y-113329595D01*
X160712188Y-113363621D01*
X160685405Y-113366500D01*
X148078768Y-113366500D01*
X148067585Y-113365973D01*
X148060092Y-113364298D01*
X148052166Y-113364547D01*
X148052165Y-113364547D01*
X147992002Y-113366438D01*
X147988044Y-113366500D01*
X147960144Y-113366500D01*
X147956154Y-113367004D01*
X147944320Y-113367936D01*
X147900111Y-113369326D01*
X147892495Y-113371539D01*
X147892493Y-113371539D01*
X147880652Y-113374979D01*
X147861293Y-113378988D01*
X147859983Y-113379154D01*
X147841203Y-113381526D01*
X147833837Y-113384442D01*
X147833831Y-113384444D01*
X147800098Y-113397800D01*
X147788868Y-113401645D01*
X147754017Y-113411770D01*
X147746407Y-113413981D01*
X147739584Y-113418016D01*
X147728966Y-113424295D01*
X147711213Y-113432992D01*
X147703568Y-113436019D01*
X147692383Y-113440448D01*
X147685968Y-113445109D01*
X147656612Y-113466437D01*
X147646695Y-113472951D01*
X147608638Y-113495458D01*
X147594317Y-113509779D01*
X147579284Y-113522619D01*
X147562893Y-113534528D01*
X147557843Y-113540632D01*
X147557838Y-113540637D01*
X147534707Y-113568598D01*
X147526717Y-113577379D01*
X147049499Y-114054596D01*
X146987187Y-114088621D01*
X146960404Y-114091500D01*
X146904513Y-114091500D01*
X146898061Y-114092872D01*
X146898056Y-114092872D01*
X146811112Y-114111353D01*
X146717712Y-114131206D01*
X146711682Y-114133891D01*
X146711681Y-114133891D01*
X146549278Y-114206197D01*
X146549276Y-114206198D01*
X146543248Y-114208882D01*
X146388747Y-114321134D01*
X146260960Y-114463056D01*
X146257659Y-114468774D01*
X146179719Y-114603770D01*
X146165473Y-114628444D01*
X146106458Y-114810072D01*
X146086496Y-115000000D01*
X146087186Y-115006565D01*
X146102993Y-115156956D01*
X146106458Y-115189928D01*
X146165473Y-115371556D01*
X146260960Y-115536944D01*
X146265378Y-115541851D01*
X146265379Y-115541852D01*
X146380917Y-115670170D01*
X146388747Y-115678866D01*
X146543248Y-115791118D01*
X146549276Y-115793802D01*
X146549278Y-115793803D01*
X146635888Y-115832364D01*
X146717712Y-115868794D01*
X146811113Y-115888647D01*
X146898056Y-115907128D01*
X146898061Y-115907128D01*
X146904513Y-115908500D01*
X147095487Y-115908500D01*
X147101939Y-115907128D01*
X147101944Y-115907128D01*
X147188887Y-115888647D01*
X147282288Y-115868794D01*
X147364112Y-115832364D01*
X147450722Y-115793803D01*
X147450724Y-115793802D01*
X147456752Y-115791118D01*
X147611253Y-115678866D01*
X147619083Y-115670170D01*
X147734621Y-115541852D01*
X147734622Y-115541851D01*
X147739040Y-115536944D01*
X147834527Y-115371556D01*
X147880167Y-115231090D01*
X147920241Y-115172486D01*
X147985637Y-115144849D01*
X148055594Y-115156956D01*
X148107900Y-115204962D01*
X148119832Y-115231089D01*
X148165473Y-115371556D01*
X148260960Y-115536944D01*
X148265378Y-115541851D01*
X148265379Y-115541852D01*
X148380917Y-115670170D01*
X148388747Y-115678866D01*
X148543248Y-115791118D01*
X148549276Y-115793802D01*
X148549278Y-115793803D01*
X148635888Y-115832364D01*
X148717712Y-115868794D01*
X148811113Y-115888647D01*
X148898056Y-115907128D01*
X148898061Y-115907128D01*
X148904513Y-115908500D01*
X149095487Y-115908500D01*
X149101939Y-115907128D01*
X149101944Y-115907128D01*
X149188887Y-115888647D01*
X149282288Y-115868794D01*
X149364112Y-115832364D01*
X149450722Y-115793803D01*
X149450724Y-115793802D01*
X149456752Y-115791118D01*
X149611253Y-115678866D01*
X149615668Y-115673963D01*
X149620580Y-115669540D01*
X149621705Y-115670789D01*
X149675014Y-115637949D01*
X149708200Y-115633500D01*
X161921233Y-115633500D01*
X161932416Y-115634027D01*
X161939909Y-115635702D01*
X161947835Y-115635453D01*
X161947836Y-115635453D01*
X162007986Y-115633562D01*
X162011945Y-115633500D01*
X162039856Y-115633500D01*
X162043791Y-115633003D01*
X162043856Y-115632995D01*
X162055693Y-115632062D01*
X162087951Y-115631048D01*
X162091970Y-115630922D01*
X162099889Y-115630673D01*
X162119343Y-115625021D01*
X162138700Y-115621013D01*
X162150930Y-115619468D01*
X162150931Y-115619468D01*
X162158797Y-115618474D01*
X162166168Y-115615555D01*
X162166170Y-115615555D01*
X162199912Y-115602196D01*
X162211142Y-115598351D01*
X162245983Y-115588229D01*
X162245984Y-115588229D01*
X162253593Y-115586018D01*
X162260412Y-115581985D01*
X162260417Y-115581983D01*
X162271028Y-115575707D01*
X162288776Y-115567012D01*
X162307617Y-115559552D01*
X162343387Y-115533564D01*
X162353307Y-115527048D01*
X162384535Y-115508580D01*
X162384538Y-115508578D01*
X162391362Y-115504542D01*
X162405683Y-115490221D01*
X162420717Y-115477380D01*
X162430694Y-115470131D01*
X162437107Y-115465472D01*
X162465298Y-115431395D01*
X162473288Y-115422616D01*
X168950500Y-108945405D01*
X169012812Y-108911379D01*
X169039595Y-108908500D01*
X169095487Y-108908500D01*
X169101939Y-108907128D01*
X169101944Y-108907128D01*
X169208054Y-108884573D01*
X169282288Y-108868794D01*
X169288315Y-108866111D01*
X169288323Y-108866108D01*
X169383591Y-108823692D01*
X169453958Y-108814258D01*
X169518255Y-108844365D01*
X169533036Y-108859847D01*
X169636776Y-108988873D01*
X169645354Y-108997632D01*
X169787347Y-109116778D01*
X169797467Y-109123708D01*
X169959893Y-109213002D01*
X169971163Y-109217833D01*
X170048268Y-109242292D01*
X170107152Y-109281956D01*
X170135244Y-109347158D01*
X170127388Y-109408606D01*
X170124930Y-109414840D01*
X170124927Y-109414849D01*
X170122805Y-109420233D01*
X170121702Y-109425917D01*
X170121702Y-109425918D01*
X170096430Y-109556190D01*
X170087209Y-109603721D01*
X170087164Y-109609519D01*
X170087164Y-109609521D01*
X170086705Y-109668949D01*
X170085766Y-109790624D01*
X170118523Y-109974639D01*
X170184376Y-110149562D01*
X170187377Y-110154524D01*
X170187379Y-110154528D01*
X170197749Y-110171673D01*
X170281105Y-110309494D01*
X170405447Y-110449042D01*
X170553211Y-110563501D01*
X170558365Y-110566153D01*
X170558367Y-110566154D01*
X170719412Y-110649010D01*
X170718660Y-110650471D01*
X170768321Y-110689728D01*
X170791500Y-110762556D01*
X170791500Y-117173102D01*
X170771498Y-117241223D01*
X170717842Y-117287716D01*
X170677125Y-117298565D01*
X170613895Y-117304424D01*
X170608299Y-117306016D01*
X170608295Y-117306017D01*
X170568813Y-117317251D01*
X170434127Y-117355573D01*
X170266818Y-117438882D01*
X170117667Y-117551516D01*
X169991751Y-117689639D01*
X169893360Y-117848547D01*
X169825843Y-118022828D01*
X169791500Y-118206549D01*
X169791500Y-118393451D01*
X169825843Y-118577172D01*
X169856617Y-118656607D01*
X169881761Y-118721512D01*
X169887717Y-118792258D01*
X169854480Y-118854994D01*
X169823420Y-118878281D01*
X169809231Y-118885825D01*
X169799014Y-118892614D01*
X169655375Y-119009762D01*
X169646671Y-119018406D01*
X169528524Y-119161221D01*
X169521664Y-119171392D01*
X169433504Y-119334441D01*
X169428752Y-119345746D01*
X169393058Y-119461057D01*
X169392852Y-119475160D01*
X169399607Y-119478365D01*
X172522232Y-119478365D01*
X172535763Y-119474392D01*
X172537901Y-119459519D01*
X172537862Y-119399080D01*
X172576207Y-119339329D01*
X172640769Y-119309794D01*
X172658781Y-119308500D01*
X173542870Y-119308500D01*
X173610991Y-119328502D01*
X173657484Y-119382158D01*
X173668857Y-119436339D01*
X173668544Y-119457795D01*
X173675299Y-119461000D01*
X176797924Y-119461000D01*
X176811455Y-119457027D01*
X176816040Y-119425136D01*
X176818331Y-119425465D01*
X176820819Y-119390509D01*
X176863346Y-119333658D01*
X176929857Y-119308824D01*
X176938890Y-119308500D01*
X177365500Y-119308500D01*
X177433621Y-119328502D01*
X177480114Y-119382158D01*
X177491500Y-119434500D01*
X177491500Y-124950633D01*
X177490000Y-124970018D01*
X177487690Y-124984851D01*
X177487690Y-124984855D01*
X177486309Y-124993724D01*
X177488558Y-125010919D01*
X177489391Y-125034863D01*
X177473794Y-125292710D01*
X177471960Y-125307814D01*
X177422869Y-125575702D01*
X177420477Y-125588754D01*
X177416836Y-125603526D01*
X177352964Y-125808500D01*
X177331859Y-125876227D01*
X177326466Y-125890445D01*
X177209243Y-126150906D01*
X177202172Y-126164379D01*
X177054405Y-126408813D01*
X177045762Y-126421334D01*
X176898824Y-126608889D01*
X176883520Y-126628423D01*
X176869615Y-126646171D01*
X176859525Y-126657560D01*
X176657560Y-126859525D01*
X176646171Y-126869615D01*
X176421334Y-127045762D01*
X176408813Y-127054405D01*
X176164379Y-127202172D01*
X176150908Y-127209242D01*
X175890445Y-127326466D01*
X175876231Y-127331858D01*
X175603527Y-127416836D01*
X175588760Y-127420475D01*
X175379786Y-127458771D01*
X175307814Y-127471960D01*
X175292710Y-127473794D01*
X175042096Y-127488953D01*
X175015284Y-127487692D01*
X175015148Y-127487690D01*
X175006276Y-127486309D01*
X174997374Y-127487473D01*
X174997372Y-127487473D01*
X174982707Y-127489391D01*
X174974714Y-127490436D01*
X174958379Y-127491500D01*
X108049367Y-127491500D01*
X108029982Y-127490000D01*
X108015149Y-127487690D01*
X108015145Y-127487690D01*
X108006276Y-127486309D01*
X107989077Y-127488558D01*
X107965137Y-127489391D01*
X107707290Y-127473794D01*
X107692186Y-127471960D01*
X107620214Y-127458771D01*
X107411240Y-127420475D01*
X107396473Y-127416836D01*
X107123769Y-127331858D01*
X107109555Y-127326466D01*
X106849092Y-127209242D01*
X106835621Y-127202172D01*
X106591187Y-127054405D01*
X106578666Y-127045762D01*
X106353829Y-126869615D01*
X106342440Y-126859525D01*
X106140475Y-126657560D01*
X106130385Y-126646171D01*
X106116481Y-126628423D01*
X106101176Y-126608889D01*
X105954238Y-126421334D01*
X105945595Y-126408813D01*
X105797828Y-126164379D01*
X105790757Y-126150906D01*
X105673534Y-125890445D01*
X105668141Y-125876227D01*
X105647037Y-125808500D01*
X105583164Y-125603526D01*
X105579523Y-125588754D01*
X105577132Y-125575702D01*
X105528040Y-125307814D01*
X105526206Y-125292710D01*
X105516528Y-125132703D01*
X105890743Y-125132703D01*
X105928268Y-125417734D01*
X106004129Y-125695036D01*
X106116923Y-125959476D01*
X106128693Y-125979142D01*
X106231492Y-126150906D01*
X106264561Y-126206161D01*
X106444313Y-126430528D01*
X106652851Y-126628423D01*
X106886317Y-126796186D01*
X106890112Y-126798195D01*
X106890113Y-126798196D01*
X106911869Y-126809715D01*
X107140392Y-126930712D01*
X107410373Y-127029511D01*
X107691264Y-127090755D01*
X107719841Y-127093004D01*
X107914282Y-127108307D01*
X107914291Y-127108307D01*
X107916739Y-127108500D01*
X108072271Y-127108500D01*
X108074407Y-127108354D01*
X108074418Y-127108354D01*
X108282548Y-127094165D01*
X108282554Y-127094164D01*
X108286825Y-127093873D01*
X108291020Y-127093004D01*
X108291022Y-127093004D01*
X108496440Y-127050464D01*
X108568342Y-127035574D01*
X108839343Y-126939607D01*
X108984057Y-126864915D01*
X109091005Y-126809715D01*
X109091006Y-126809715D01*
X109094812Y-126807750D01*
X109098313Y-126805289D01*
X109098317Y-126805287D01*
X109212418Y-126725095D01*
X109330023Y-126642441D01*
X109540622Y-126446740D01*
X109722713Y-126224268D01*
X109872927Y-125979142D01*
X109988483Y-125715898D01*
X110067244Y-125439406D01*
X110107751Y-125154784D01*
X110107845Y-125136951D01*
X110109235Y-124871583D01*
X110109235Y-124871576D01*
X110109257Y-124867297D01*
X110071732Y-124582266D01*
X109995871Y-124304964D01*
X109883077Y-124040524D01*
X109735439Y-123793839D01*
X109555687Y-123569472D01*
X109347149Y-123371577D01*
X109247539Y-123300000D01*
X137886540Y-123300000D01*
X137906359Y-123615020D01*
X137965505Y-123925072D01*
X138063044Y-124225266D01*
X138064731Y-124228852D01*
X138064733Y-124228856D01*
X138195750Y-124507283D01*
X138195754Y-124507290D01*
X138197438Y-124510869D01*
X138366568Y-124777375D01*
X138369093Y-124780427D01*
X138554761Y-125004860D01*
X138567767Y-125020582D01*
X138570657Y-125023296D01*
X138570658Y-125023297D01*
X138582975Y-125034863D01*
X138797860Y-125236654D01*
X139053221Y-125422184D01*
X139056690Y-125424091D01*
X139056693Y-125424093D01*
X139092056Y-125443534D01*
X139329821Y-125574247D01*
X139333490Y-125575700D01*
X139333495Y-125575702D01*
X139610308Y-125685300D01*
X139623298Y-125690443D01*
X139929025Y-125768940D01*
X140242179Y-125808500D01*
X140557821Y-125808500D01*
X140870975Y-125768940D01*
X141176702Y-125690443D01*
X141189692Y-125685300D01*
X141466505Y-125575702D01*
X141466510Y-125575700D01*
X141470179Y-125574247D01*
X141707944Y-125443534D01*
X141743307Y-125424093D01*
X141743310Y-125424091D01*
X141746779Y-125422184D01*
X142002140Y-125236654D01*
X142112836Y-125132703D01*
X172890743Y-125132703D01*
X172928268Y-125417734D01*
X173004129Y-125695036D01*
X173116923Y-125959476D01*
X173128693Y-125979142D01*
X173231492Y-126150906D01*
X173264561Y-126206161D01*
X173444313Y-126430528D01*
X173652851Y-126628423D01*
X173886317Y-126796186D01*
X173890112Y-126798195D01*
X173890113Y-126798196D01*
X173911869Y-126809715D01*
X174140392Y-126930712D01*
X174410373Y-127029511D01*
X174691264Y-127090755D01*
X174719841Y-127093004D01*
X174914282Y-127108307D01*
X174914291Y-127108307D01*
X174916739Y-127108500D01*
X175072271Y-127108500D01*
X175074407Y-127108354D01*
X175074418Y-127108354D01*
X175282548Y-127094165D01*
X175282554Y-127094164D01*
X175286825Y-127093873D01*
X175291020Y-127093004D01*
X175291022Y-127093004D01*
X175496440Y-127050464D01*
X175568342Y-127035574D01*
X175839343Y-126939607D01*
X175984057Y-126864915D01*
X176091005Y-126809715D01*
X176091006Y-126809715D01*
X176094812Y-126807750D01*
X176098313Y-126805289D01*
X176098317Y-126805287D01*
X176212418Y-126725095D01*
X176330023Y-126642441D01*
X176540622Y-126446740D01*
X176722713Y-126224268D01*
X176872927Y-125979142D01*
X176988483Y-125715898D01*
X177067244Y-125439406D01*
X177107751Y-125154784D01*
X177107845Y-125136951D01*
X177109235Y-124871583D01*
X177109235Y-124871576D01*
X177109257Y-124867297D01*
X177071732Y-124582266D01*
X176995871Y-124304964D01*
X176883077Y-124040524D01*
X176735439Y-123793839D01*
X176555687Y-123569472D01*
X176347149Y-123371577D01*
X176113683Y-123203814D01*
X176091843Y-123192250D01*
X176068654Y-123179972D01*
X175859608Y-123069288D01*
X175589627Y-122970489D01*
X175308736Y-122909245D01*
X175277685Y-122906801D01*
X175085718Y-122891693D01*
X175085709Y-122891693D01*
X175083261Y-122891500D01*
X174927729Y-122891500D01*
X174925593Y-122891646D01*
X174925582Y-122891646D01*
X174717452Y-122905835D01*
X174717446Y-122905836D01*
X174713175Y-122906127D01*
X174708980Y-122906996D01*
X174708978Y-122906996D01*
X174572417Y-122935276D01*
X174431658Y-122964426D01*
X174160657Y-123060393D01*
X173905188Y-123192250D01*
X173901687Y-123194711D01*
X173901683Y-123194713D01*
X173891594Y-123201804D01*
X173669977Y-123357559D01*
X173459378Y-123553260D01*
X173277287Y-123775732D01*
X173127073Y-124020858D01*
X173011517Y-124284102D01*
X172932756Y-124560594D01*
X172892249Y-124845216D01*
X172892227Y-124849505D01*
X172892226Y-124849512D01*
X172891198Y-125045768D01*
X172890743Y-125132703D01*
X142112836Y-125132703D01*
X142217025Y-125034863D01*
X142229342Y-125023297D01*
X142229343Y-125023296D01*
X142232233Y-125020582D01*
X142245240Y-125004860D01*
X142430907Y-124780427D01*
X142433432Y-124777375D01*
X142602562Y-124510869D01*
X142604246Y-124507290D01*
X142604250Y-124507283D01*
X142735267Y-124228856D01*
X142735269Y-124228852D01*
X142736956Y-124225266D01*
X142834495Y-123925072D01*
X142893641Y-123615020D01*
X142913460Y-123300000D01*
X142893641Y-122984980D01*
X142834495Y-122674928D01*
X142736956Y-122374734D01*
X142735267Y-122371144D01*
X142604250Y-122092717D01*
X142604246Y-122092710D01*
X142602562Y-122089131D01*
X142433432Y-121822625D01*
X142232233Y-121579418D01*
X142002140Y-121363346D01*
X141746779Y-121177816D01*
X141470179Y-121025753D01*
X141466510Y-121024300D01*
X141466505Y-121024298D01*
X141180372Y-120911010D01*
X141180371Y-120911010D01*
X141176702Y-120909557D01*
X140870975Y-120831060D01*
X140557821Y-120791500D01*
X140242179Y-120791500D01*
X139929025Y-120831060D01*
X139623298Y-120909557D01*
X139619629Y-120911010D01*
X139619628Y-120911010D01*
X139333495Y-121024298D01*
X139333490Y-121024300D01*
X139329821Y-121025753D01*
X139053221Y-121177816D01*
X138797860Y-121363346D01*
X138567767Y-121579418D01*
X138366568Y-121822625D01*
X138197438Y-122089131D01*
X138195754Y-122092710D01*
X138195750Y-122092717D01*
X138064733Y-122371144D01*
X138063044Y-122374734D01*
X137965505Y-122674928D01*
X137906359Y-122984980D01*
X137886540Y-123300000D01*
X109247539Y-123300000D01*
X109113683Y-123203814D01*
X109091843Y-123192250D01*
X109068654Y-123179972D01*
X108859608Y-123069288D01*
X108589627Y-122970489D01*
X108308736Y-122909245D01*
X108277685Y-122906801D01*
X108085718Y-122891693D01*
X108085709Y-122891693D01*
X108083261Y-122891500D01*
X107927729Y-122891500D01*
X107925593Y-122891646D01*
X107925582Y-122891646D01*
X107717452Y-122905835D01*
X107717446Y-122905836D01*
X107713175Y-122906127D01*
X107708980Y-122906996D01*
X107708978Y-122906996D01*
X107572417Y-122935276D01*
X107431658Y-122964426D01*
X107160657Y-123060393D01*
X106905188Y-123192250D01*
X106901687Y-123194711D01*
X106901683Y-123194713D01*
X106891594Y-123201804D01*
X106669977Y-123357559D01*
X106459378Y-123553260D01*
X106277287Y-123775732D01*
X106127073Y-124020858D01*
X106011517Y-124284102D01*
X105932756Y-124560594D01*
X105892249Y-124845216D01*
X105892227Y-124849505D01*
X105892226Y-124849512D01*
X105891198Y-125045768D01*
X105890743Y-125132703D01*
X105516528Y-125132703D01*
X105511269Y-125045768D01*
X105512520Y-125022216D01*
X105512334Y-125022199D01*
X105512769Y-125017350D01*
X105513576Y-125012552D01*
X105513729Y-125000000D01*
X105509773Y-124972376D01*
X105508500Y-124954514D01*
X105508500Y-122232670D01*
X125682160Y-122232670D01*
X125687887Y-122240320D01*
X125859042Y-122345205D01*
X125867837Y-122349687D01*
X126077988Y-122436734D01*
X126087373Y-122439783D01*
X126308554Y-122492885D01*
X126318301Y-122494428D01*
X126545070Y-122512275D01*
X126554930Y-122512275D01*
X126781699Y-122494428D01*
X126791446Y-122492885D01*
X127012627Y-122439783D01*
X127022012Y-122436734D01*
X127232163Y-122349687D01*
X127240958Y-122345205D01*
X127408445Y-122242568D01*
X127417907Y-122232110D01*
X127414124Y-122223334D01*
X127238924Y-122048134D01*
X132641500Y-122048134D01*
X132648255Y-122110316D01*
X132699385Y-122246705D01*
X132786739Y-122363261D01*
X132903295Y-122450615D01*
X133039684Y-122501745D01*
X133101866Y-122508500D01*
X135198134Y-122508500D01*
X135260316Y-122501745D01*
X135396705Y-122450615D01*
X135513261Y-122363261D01*
X135600615Y-122246705D01*
X135651745Y-122110316D01*
X135658500Y-122048134D01*
X135658500Y-119951866D01*
X135651745Y-119889684D01*
X135600615Y-119753295D01*
X135513261Y-119636739D01*
X135396705Y-119549385D01*
X135260316Y-119498255D01*
X135198134Y-119491500D01*
X133101866Y-119491500D01*
X133039684Y-119498255D01*
X132903295Y-119549385D01*
X132786739Y-119636739D01*
X132699385Y-119753295D01*
X132648255Y-119889684D01*
X132641500Y-119951866D01*
X132641500Y-122048134D01*
X127238924Y-122048134D01*
X126562812Y-121372022D01*
X126548868Y-121364408D01*
X126547035Y-121364539D01*
X126540420Y-121368790D01*
X125688920Y-122220290D01*
X125682160Y-122232670D01*
X105508500Y-122232670D01*
X105508500Y-121004930D01*
X125037725Y-121004930D01*
X125055572Y-121231699D01*
X125057115Y-121241446D01*
X125110217Y-121462627D01*
X125113266Y-121472012D01*
X125200313Y-121682163D01*
X125204795Y-121690958D01*
X125307432Y-121858445D01*
X125317890Y-121867907D01*
X125326666Y-121864124D01*
X126177978Y-121012812D01*
X126184356Y-121001132D01*
X126914408Y-121001132D01*
X126914539Y-121002965D01*
X126918790Y-121009580D01*
X127770290Y-121861080D01*
X127782670Y-121867840D01*
X127790320Y-121862113D01*
X127895205Y-121690958D01*
X127899687Y-121682163D01*
X127986734Y-121472012D01*
X127989783Y-121462627D01*
X128042885Y-121241446D01*
X128044428Y-121231699D01*
X128062275Y-121004930D01*
X128062275Y-120995070D01*
X128044428Y-120768301D01*
X128042885Y-120758554D01*
X127989783Y-120537373D01*
X127986734Y-120527988D01*
X127899687Y-120317837D01*
X127895205Y-120309042D01*
X127792568Y-120141555D01*
X127782110Y-120132093D01*
X127773334Y-120135876D01*
X126922022Y-120987188D01*
X126914408Y-121001132D01*
X126184356Y-121001132D01*
X126185592Y-120998868D01*
X126185461Y-120997035D01*
X126181210Y-120990420D01*
X125329710Y-120138920D01*
X125317330Y-120132160D01*
X125309680Y-120137887D01*
X125204795Y-120309042D01*
X125200313Y-120317837D01*
X125113266Y-120527988D01*
X125110217Y-120537373D01*
X125057115Y-120758554D01*
X125055572Y-120768301D01*
X125037725Y-120995070D01*
X125037725Y-121004930D01*
X105508500Y-121004930D01*
X105508500Y-119767890D01*
X125682093Y-119767890D01*
X125685876Y-119776666D01*
X126537188Y-120627978D01*
X126551132Y-120635592D01*
X126552965Y-120635461D01*
X126559580Y-120631210D01*
X127411080Y-119779710D01*
X127417840Y-119767330D01*
X127412113Y-119759680D01*
X127240958Y-119654795D01*
X127232163Y-119650313D01*
X127022012Y-119563266D01*
X127012627Y-119560217D01*
X126791446Y-119507115D01*
X126781699Y-119505572D01*
X126554930Y-119487725D01*
X126545070Y-119487725D01*
X126318301Y-119505572D01*
X126308554Y-119507115D01*
X126087373Y-119560217D01*
X126077988Y-119563266D01*
X125867837Y-119650313D01*
X125859042Y-119654795D01*
X125691555Y-119757432D01*
X125682093Y-119767890D01*
X105508500Y-119767890D01*
X105508500Y-119000000D01*
X142086496Y-119000000D01*
X142106458Y-119189928D01*
X142165473Y-119371556D01*
X142168776Y-119377278D01*
X142168777Y-119377279D01*
X142181364Y-119399080D01*
X142260960Y-119536944D01*
X142265378Y-119541851D01*
X142265379Y-119541852D01*
X142363038Y-119650313D01*
X142388747Y-119678866D01*
X142481299Y-119746109D01*
X142523357Y-119776666D01*
X142543248Y-119791118D01*
X142549276Y-119793802D01*
X142549278Y-119793803D01*
X142711681Y-119866109D01*
X142717712Y-119868794D01*
X142811113Y-119888647D01*
X142898056Y-119907128D01*
X142898061Y-119907128D01*
X142904513Y-119908500D01*
X143095487Y-119908500D01*
X143101939Y-119907128D01*
X143101944Y-119907128D01*
X143188887Y-119888647D01*
X143282288Y-119868794D01*
X143288319Y-119866109D01*
X143450722Y-119793803D01*
X143450724Y-119793802D01*
X143456752Y-119791118D01*
X143476644Y-119776666D01*
X143518701Y-119746109D01*
X143611253Y-119678866D01*
X143620518Y-119668577D01*
X143680964Y-119631339D01*
X143751947Y-119632693D01*
X143803246Y-119663795D01*
X145535685Y-121396234D01*
X145546552Y-121408625D01*
X145566013Y-121433987D01*
X145597925Y-121458474D01*
X145597928Y-121458477D01*
X145659842Y-121505985D01*
X145693125Y-121531524D01*
X145841150Y-121592838D01*
X145960115Y-121608500D01*
X145960120Y-121608500D01*
X145960129Y-121608501D01*
X145991812Y-121612672D01*
X146000000Y-121613750D01*
X146031693Y-121609578D01*
X146048136Y-121608500D01*
X162951864Y-121608500D01*
X162968307Y-121609578D01*
X163000000Y-121613750D01*
X163008189Y-121612672D01*
X163039874Y-121608501D01*
X163039884Y-121608500D01*
X163039885Y-121608500D01*
X163039893Y-121608499D01*
X163150664Y-121593916D01*
X163150666Y-121593915D01*
X163151057Y-121593864D01*
X163158851Y-121592838D01*
X163306876Y-121531524D01*
X163402072Y-121458477D01*
X163402075Y-121458474D01*
X163433987Y-121433987D01*
X163439017Y-121427432D01*
X163453452Y-121408621D01*
X163464319Y-121396230D01*
X164862416Y-119998133D01*
X169391733Y-119998133D01*
X169423446Y-120105886D01*
X169428039Y-120117254D01*
X169513915Y-120281519D01*
X169520629Y-120291780D01*
X169636776Y-120436238D01*
X169645354Y-120444997D01*
X169787347Y-120564143D01*
X169797467Y-120571073D01*
X169959893Y-120660367D01*
X169971166Y-120665199D01*
X170147846Y-120721245D01*
X170159840Y-120723795D01*
X170304069Y-120739972D01*
X170311093Y-120740365D01*
X170692193Y-120740365D01*
X170707432Y-120735890D01*
X170708637Y-120734500D01*
X170710308Y-120726817D01*
X170710308Y-120722250D01*
X171218308Y-120722250D01*
X171222783Y-120737489D01*
X171224173Y-120738694D01*
X171231856Y-120740365D01*
X171610965Y-120740365D01*
X171617113Y-120740064D01*
X171754911Y-120726553D01*
X171766946Y-120724170D01*
X171944384Y-120670598D01*
X171955724Y-120665924D01*
X172119385Y-120578905D01*
X172129602Y-120572116D01*
X172273241Y-120454968D01*
X172281945Y-120446324D01*
X172400092Y-120303509D01*
X172406952Y-120293338D01*
X172495112Y-120130289D01*
X172499864Y-120118984D01*
X172535558Y-120003673D01*
X172535764Y-119989570D01*
X172529009Y-119986365D01*
X171236423Y-119986365D01*
X171221184Y-119990840D01*
X171219979Y-119992230D01*
X171218308Y-119999913D01*
X171218308Y-120722250D01*
X170710308Y-120722250D01*
X170710308Y-120004480D01*
X170705833Y-119989241D01*
X170704443Y-119988036D01*
X170696760Y-119986365D01*
X169406384Y-119986365D01*
X169392853Y-119990338D01*
X169391733Y-119998133D01*
X164862416Y-119998133D01*
X164879781Y-119980768D01*
X173667425Y-119980768D01*
X173699138Y-120088521D01*
X173703731Y-120099889D01*
X173789607Y-120264154D01*
X173796321Y-120274415D01*
X173912468Y-120418873D01*
X173921046Y-120427632D01*
X174063039Y-120546778D01*
X174073159Y-120553708D01*
X174235585Y-120643002D01*
X174246858Y-120647834D01*
X174423538Y-120703880D01*
X174435532Y-120706430D01*
X174579761Y-120722607D01*
X174586785Y-120723000D01*
X174967885Y-120723000D01*
X174983124Y-120718525D01*
X174984329Y-120717135D01*
X174986000Y-120709452D01*
X174986000Y-120704885D01*
X175494000Y-120704885D01*
X175498475Y-120720124D01*
X175499865Y-120721329D01*
X175507548Y-120723000D01*
X175886657Y-120723000D01*
X175892805Y-120722699D01*
X176030603Y-120709188D01*
X176042638Y-120706805D01*
X176220076Y-120653233D01*
X176231416Y-120648559D01*
X176395077Y-120561540D01*
X176405294Y-120554751D01*
X176548933Y-120437603D01*
X176557637Y-120428959D01*
X176675784Y-120286144D01*
X176682644Y-120275973D01*
X176770804Y-120112924D01*
X176775556Y-120101619D01*
X176811250Y-119986308D01*
X176811456Y-119972205D01*
X176804701Y-119969000D01*
X175512115Y-119969000D01*
X175496876Y-119973475D01*
X175495671Y-119974865D01*
X175494000Y-119982548D01*
X175494000Y-120704885D01*
X174986000Y-120704885D01*
X174986000Y-119987115D01*
X174981525Y-119971876D01*
X174980135Y-119970671D01*
X174972452Y-119969000D01*
X173682076Y-119969000D01*
X173668545Y-119972973D01*
X173667425Y-119980768D01*
X164879781Y-119980768D01*
X167915144Y-116945405D01*
X167977456Y-116911379D01*
X168004239Y-116908500D01*
X168095487Y-116908500D01*
X168101939Y-116907128D01*
X168101944Y-116907128D01*
X168188887Y-116888647D01*
X168282288Y-116868794D01*
X168288319Y-116866109D01*
X168450722Y-116793803D01*
X168450724Y-116793802D01*
X168456752Y-116791118D01*
X168611253Y-116678866D01*
X168739040Y-116536944D01*
X168834527Y-116371556D01*
X168893542Y-116189928D01*
X168911262Y-116021329D01*
X168938275Y-115955673D01*
X168996497Y-115915043D01*
X169036572Y-115908500D01*
X169095487Y-115908500D01*
X169101939Y-115907128D01*
X169101944Y-115907128D01*
X169188887Y-115888647D01*
X169282288Y-115868794D01*
X169364112Y-115832364D01*
X169450722Y-115793803D01*
X169450724Y-115793802D01*
X169456752Y-115791118D01*
X169611253Y-115678866D01*
X169619083Y-115670170D01*
X169734621Y-115541852D01*
X169734622Y-115541851D01*
X169739040Y-115536944D01*
X169834527Y-115371556D01*
X169893542Y-115189928D01*
X169897008Y-115156956D01*
X169912814Y-115006565D01*
X169913504Y-115000000D01*
X169893542Y-114810072D01*
X169834527Y-114628444D01*
X169820282Y-114603770D01*
X169742341Y-114468774D01*
X169739040Y-114463056D01*
X169611253Y-114321134D01*
X169456752Y-114208882D01*
X169450724Y-114206198D01*
X169450722Y-114206197D01*
X169288319Y-114133891D01*
X169288318Y-114133891D01*
X169282288Y-114131206D01*
X169188888Y-114111353D01*
X169101944Y-114092872D01*
X169101939Y-114092872D01*
X169095487Y-114091500D01*
X168904513Y-114091500D01*
X168898061Y-114092872D01*
X168898056Y-114092872D01*
X168811112Y-114111353D01*
X168717712Y-114131206D01*
X168711682Y-114133891D01*
X168711681Y-114133891D01*
X168549278Y-114206197D01*
X168549276Y-114206198D01*
X168543248Y-114208882D01*
X168388747Y-114321134D01*
X168384336Y-114326033D01*
X168384327Y-114326041D01*
X168356717Y-114356706D01*
X168296271Y-114393946D01*
X168279530Y-114397317D01*
X168224145Y-114404609D01*
X168212938Y-114406084D01*
X168212936Y-114406085D01*
X168204751Y-114407162D01*
X168056726Y-114468476D01*
X167961530Y-114541523D01*
X167961527Y-114541526D01*
X167929615Y-114566013D01*
X167924585Y-114572568D01*
X167910150Y-114591379D01*
X167899283Y-114603770D01*
X167848458Y-114654595D01*
X167786146Y-114688621D01*
X167759363Y-114691500D01*
X167758186Y-114691500D01*
X167741740Y-114690422D01*
X167718238Y-114687328D01*
X167710050Y-114686250D01*
X167701862Y-114687328D01*
X167670179Y-114691499D01*
X167670170Y-114691500D01*
X167670165Y-114691500D01*
X167551200Y-114707162D01*
X167403175Y-114768476D01*
X167403173Y-114768477D01*
X167403174Y-114768477D01*
X167307978Y-114841523D01*
X167307975Y-114841526D01*
X167276063Y-114866013D01*
X167271033Y-114872568D01*
X167256598Y-114891379D01*
X167245731Y-114903770D01*
X166903766Y-115245735D01*
X166891375Y-115256602D01*
X166866013Y-115276063D01*
X166841526Y-115307975D01*
X166841523Y-115307978D01*
X166841517Y-115307986D01*
X166792738Y-115371556D01*
X166768476Y-115403174D01*
X166737739Y-115477380D01*
X166711034Y-115541852D01*
X166709883Y-115544630D01*
X166707162Y-115551200D01*
X166706085Y-115559384D01*
X166706084Y-115559386D01*
X166696392Y-115633003D01*
X166691500Y-115670165D01*
X166691500Y-115670170D01*
X166686250Y-115710050D01*
X166687328Y-115718238D01*
X166690422Y-115741740D01*
X166691500Y-115758186D01*
X166691500Y-115759363D01*
X166671498Y-115827484D01*
X166654595Y-115848458D01*
X162548458Y-119954595D01*
X162486146Y-119988621D01*
X162459363Y-119991500D01*
X146469925Y-119991500D01*
X146401804Y-119971498D01*
X146380830Y-119954595D01*
X144355002Y-117928767D01*
X144344135Y-117916376D01*
X144329700Y-117897564D01*
X144324674Y-117891014D01*
X144292762Y-117866527D01*
X144292759Y-117866524D01*
X144219190Y-117810072D01*
X144204116Y-117798505D01*
X144204114Y-117798504D01*
X144197563Y-117793477D01*
X144049538Y-117732163D01*
X144041351Y-117731085D01*
X144041350Y-117731085D01*
X144030145Y-117729610D01*
X144030144Y-117729610D01*
X143994255Y-117724885D01*
X143938944Y-117717603D01*
X143874017Y-117688880D01*
X143841137Y-117639919D01*
X143839254Y-117640758D01*
X143836568Y-117634725D01*
X143834527Y-117628444D01*
X143739040Y-117463056D01*
X143611253Y-117321134D01*
X143456752Y-117208882D01*
X143450724Y-117206198D01*
X143450722Y-117206197D01*
X143288319Y-117133891D01*
X143288318Y-117133891D01*
X143282288Y-117131206D01*
X143188888Y-117111353D01*
X143101944Y-117092872D01*
X143101939Y-117092872D01*
X143095487Y-117091500D01*
X142904513Y-117091500D01*
X142898061Y-117092872D01*
X142898056Y-117092872D01*
X142811112Y-117111353D01*
X142717712Y-117131206D01*
X142711682Y-117133891D01*
X142711681Y-117133891D01*
X142549278Y-117206197D01*
X142549276Y-117206198D01*
X142543248Y-117208882D01*
X142388747Y-117321134D01*
X142260960Y-117463056D01*
X142165473Y-117628444D01*
X142106458Y-117810072D01*
X142105768Y-117816633D01*
X142105768Y-117816635D01*
X142098479Y-117885988D01*
X142086496Y-118000000D01*
X142106458Y-118189928D01*
X142165473Y-118371556D01*
X142168776Y-118377278D01*
X142168777Y-118377279D01*
X142203257Y-118437000D01*
X142219995Y-118505995D01*
X142203257Y-118563000D01*
X142165473Y-118628444D01*
X142106458Y-118810072D01*
X142105768Y-118816633D01*
X142105768Y-118816635D01*
X142095917Y-118910361D01*
X142086496Y-119000000D01*
X105508500Y-119000000D01*
X105508500Y-117000000D01*
X112343393Y-117000000D01*
X112363789Y-117259150D01*
X112364943Y-117263957D01*
X112364944Y-117263963D01*
X112378670Y-117321134D01*
X112424473Y-117511920D01*
X112426366Y-117516491D01*
X112426367Y-117516493D01*
X112509670Y-117717603D01*
X112523952Y-117752084D01*
X112659777Y-117973729D01*
X112662994Y-117977496D01*
X112662995Y-117977497D01*
X112696924Y-118017223D01*
X112828602Y-118171398D01*
X112863053Y-118200822D01*
X113018573Y-118333648D01*
X113026271Y-118340223D01*
X113247916Y-118476048D01*
X113252486Y-118477941D01*
X113252488Y-118477942D01*
X113457837Y-118563000D01*
X113488080Y-118575527D01*
X113517542Y-118582600D01*
X113736037Y-118635056D01*
X113736043Y-118635057D01*
X113740850Y-118636211D01*
X114000000Y-118656607D01*
X114259150Y-118636211D01*
X114263957Y-118635057D01*
X114263963Y-118635056D01*
X114482458Y-118582600D01*
X114511920Y-118575527D01*
X114542163Y-118563000D01*
X114747512Y-118477942D01*
X114747514Y-118477941D01*
X114752084Y-118476048D01*
X114973729Y-118340223D01*
X114981428Y-118333648D01*
X115136947Y-118200822D01*
X115171398Y-118171398D01*
X115303076Y-118017223D01*
X115337005Y-117977497D01*
X115337006Y-117977496D01*
X115340223Y-117973729D01*
X115476048Y-117752084D01*
X115490331Y-117717603D01*
X115573633Y-117516493D01*
X115573634Y-117516491D01*
X115575527Y-117511920D01*
X115621330Y-117321134D01*
X115635056Y-117263963D01*
X115635057Y-117263957D01*
X115636211Y-117259150D01*
X115656607Y-117000000D01*
X115636211Y-116740850D01*
X115622263Y-116682749D01*
X115576682Y-116492892D01*
X115575527Y-116488080D01*
X115476048Y-116247916D01*
X115340223Y-116026271D01*
X115317786Y-116000000D01*
X115174611Y-115832364D01*
X115171398Y-115828602D01*
X115079285Y-115749930D01*
X114977497Y-115662995D01*
X114977496Y-115662994D01*
X114973729Y-115659777D01*
X114752084Y-115523952D01*
X114747514Y-115522059D01*
X114747512Y-115522058D01*
X114516493Y-115426367D01*
X114516491Y-115426366D01*
X114511920Y-115424473D01*
X114395907Y-115396621D01*
X114263963Y-115364944D01*
X114263957Y-115364943D01*
X114259150Y-115363789D01*
X114000000Y-115343393D01*
X113740850Y-115363789D01*
X113736043Y-115364943D01*
X113736037Y-115364944D01*
X113604093Y-115396621D01*
X113488080Y-115424473D01*
X113483509Y-115426366D01*
X113483507Y-115426367D01*
X113252488Y-115522058D01*
X113252486Y-115522059D01*
X113247916Y-115523952D01*
X113026271Y-115659777D01*
X113022504Y-115662994D01*
X113022503Y-115662995D01*
X112920715Y-115749930D01*
X112828602Y-115828602D01*
X112825389Y-115832364D01*
X112682215Y-116000000D01*
X112659777Y-116026271D01*
X112523952Y-116247916D01*
X112424473Y-116488080D01*
X112423318Y-116492892D01*
X112377738Y-116682749D01*
X112363789Y-116740850D01*
X112343393Y-117000000D01*
X105508500Y-117000000D01*
X105508500Y-105637237D01*
X113028117Y-105637237D01*
X113032439Y-105643416D01*
X113243924Y-105773014D01*
X113252718Y-105777495D01*
X113483662Y-105873155D01*
X113493047Y-105876204D01*
X113736115Y-105934561D01*
X113745862Y-105936104D01*
X113995070Y-105955717D01*
X114004930Y-105955717D01*
X114254138Y-105936104D01*
X114263885Y-105934561D01*
X114506953Y-105876204D01*
X114516338Y-105873155D01*
X114747282Y-105777495D01*
X114756076Y-105773014D01*
X114966128Y-105644294D01*
X114971956Y-105635365D01*
X114965952Y-105625163D01*
X114012811Y-104672021D01*
X113998868Y-104664408D01*
X113997034Y-104664539D01*
X113990420Y-104668790D01*
X113035506Y-105623705D01*
X113028117Y-105637237D01*
X105508500Y-105637237D01*
X105508500Y-104304930D01*
X112344283Y-104304930D01*
X112363896Y-104554138D01*
X112365439Y-104563885D01*
X112423796Y-104806953D01*
X112426845Y-104816338D01*
X112522505Y-105047282D01*
X112526986Y-105056076D01*
X112655706Y-105266128D01*
X112664635Y-105271956D01*
X112674837Y-105265952D01*
X113627979Y-104312811D01*
X113634356Y-104301132D01*
X114364408Y-104301132D01*
X114364539Y-104302966D01*
X114368790Y-104309580D01*
X115323705Y-105264494D01*
X115337237Y-105271883D01*
X115343416Y-105267561D01*
X115473014Y-105056076D01*
X115477495Y-105047282D01*
X115573155Y-104816338D01*
X115576204Y-104806953D01*
X115634561Y-104563885D01*
X115636104Y-104554138D01*
X115655717Y-104304930D01*
X115655717Y-104295070D01*
X115636104Y-104045862D01*
X115634561Y-104036115D01*
X115576204Y-103793047D01*
X115573155Y-103783662D01*
X115477495Y-103552718D01*
X115473014Y-103543924D01*
X115344294Y-103333872D01*
X115335365Y-103328044D01*
X115325163Y-103334048D01*
X114372021Y-104287189D01*
X114364408Y-104301132D01*
X113634356Y-104301132D01*
X113635592Y-104298868D01*
X113635461Y-104297034D01*
X113631210Y-104290420D01*
X112676295Y-103335506D01*
X112662763Y-103328117D01*
X112656584Y-103332439D01*
X112526986Y-103543924D01*
X112522505Y-103552718D01*
X112426845Y-103783662D01*
X112423796Y-103793047D01*
X112365439Y-104036115D01*
X112363896Y-104045862D01*
X112344283Y-104295070D01*
X112344283Y-104304930D01*
X105508500Y-104304930D01*
X105508500Y-102964635D01*
X113028044Y-102964635D01*
X113034048Y-102974837D01*
X113987189Y-103927979D01*
X114001132Y-103935592D01*
X114002966Y-103935461D01*
X114009580Y-103931210D01*
X114964494Y-102976295D01*
X114971883Y-102962763D01*
X114967561Y-102956584D01*
X114756076Y-102826986D01*
X114747282Y-102822505D01*
X114516338Y-102726845D01*
X114506953Y-102723796D01*
X114263885Y-102665439D01*
X114254138Y-102663896D01*
X114004930Y-102644283D01*
X113995070Y-102644283D01*
X113745862Y-102663896D01*
X113736115Y-102665439D01*
X113493047Y-102723796D01*
X113483662Y-102726845D01*
X113252718Y-102822505D01*
X113243924Y-102826986D01*
X113033872Y-102955706D01*
X113028044Y-102964635D01*
X105508500Y-102964635D01*
X105508500Y-81147064D01*
X108437707Y-81147064D01*
X108466825Y-81339599D01*
X108469028Y-81345585D01*
X108469029Y-81345591D01*
X108531860Y-81516360D01*
X108531862Y-81516365D01*
X108534063Y-81522346D01*
X108555025Y-81556154D01*
X108623696Y-81666908D01*
X108636674Y-81687840D01*
X108770466Y-81829322D01*
X108775696Y-81832984D01*
X108775697Y-81832985D01*
X108837322Y-81876135D01*
X108929975Y-81941011D01*
X108966029Y-81956613D01*
X109102825Y-82015810D01*
X109102829Y-82015811D01*
X109108684Y-82018345D01*
X109114931Y-82019650D01*
X109114934Y-82019651D01*
X109294557Y-82057176D01*
X109294562Y-82057177D01*
X109299293Y-82058165D01*
X109305685Y-82058500D01*
X109448663Y-82058500D01*
X109517951Y-82051462D01*
X109587378Y-82044410D01*
X109587379Y-82044410D01*
X109593727Y-82043765D01*
X109666285Y-82021027D01*
X109773451Y-81987444D01*
X109773456Y-81987442D01*
X109779541Y-81985535D01*
X109905949Y-81915465D01*
X109944271Y-81894223D01*
X109944274Y-81894221D01*
X109949850Y-81891130D01*
X109954691Y-81886981D01*
X109954695Y-81886978D01*
X110092855Y-81768560D01*
X110097698Y-81764409D01*
X110217046Y-81610547D01*
X110226172Y-81592002D01*
X110300200Y-81441556D01*
X110303018Y-81435829D01*
X110313763Y-81394579D01*
X110350492Y-81253575D01*
X110350492Y-81253572D01*
X110352102Y-81247393D01*
X110359527Y-81105724D01*
X110361959Y-81059317D01*
X110361959Y-81059313D01*
X110362293Y-81052936D01*
X110333175Y-80860401D01*
X110330972Y-80854415D01*
X110330971Y-80854409D01*
X110268140Y-80683640D01*
X110268138Y-80683635D01*
X110265937Y-80677654D01*
X110163326Y-80512160D01*
X110029534Y-80370678D01*
X109949438Y-80314594D01*
X109875259Y-80262654D01*
X109870025Y-80258989D01*
X109792634Y-80225499D01*
X109697175Y-80184190D01*
X109697171Y-80184189D01*
X109691316Y-80181655D01*
X109685069Y-80180350D01*
X109685066Y-80180349D01*
X109505443Y-80142824D01*
X109505438Y-80142823D01*
X109500707Y-80141835D01*
X109494315Y-80141500D01*
X109351337Y-80141500D01*
X109282049Y-80148538D01*
X109212622Y-80155590D01*
X109212621Y-80155590D01*
X109206273Y-80156235D01*
X109194690Y-80159865D01*
X109026549Y-80212556D01*
X109026544Y-80212558D01*
X109020459Y-80214465D01*
X108944713Y-80256452D01*
X108855729Y-80305777D01*
X108855726Y-80305779D01*
X108850150Y-80308870D01*
X108845309Y-80313019D01*
X108845305Y-80313022D01*
X108782311Y-80367015D01*
X108702302Y-80435591D01*
X108582954Y-80589453D01*
X108580138Y-80595176D01*
X108580136Y-80595179D01*
X108508202Y-80741368D01*
X108496982Y-80764171D01*
X108495373Y-80770349D01*
X108495372Y-80770351D01*
X108470040Y-80867604D01*
X108447898Y-80952607D01*
X108445223Y-81003649D01*
X108438355Y-81134702D01*
X108437707Y-81147064D01*
X105508500Y-81147064D01*
X105508500Y-74347064D01*
X108437707Y-74347064D01*
X108466825Y-74539599D01*
X108469028Y-74545585D01*
X108469029Y-74545591D01*
X108531860Y-74716360D01*
X108531862Y-74716365D01*
X108534063Y-74722346D01*
X108636674Y-74887840D01*
X108770466Y-75029322D01*
X108929975Y-75141011D01*
X108935838Y-75143548D01*
X109102825Y-75215810D01*
X109102829Y-75215811D01*
X109108684Y-75218345D01*
X109114931Y-75219650D01*
X109114934Y-75219651D01*
X109294557Y-75257176D01*
X109294562Y-75257177D01*
X109299293Y-75258165D01*
X109305685Y-75258500D01*
X109448663Y-75258500D01*
X109517951Y-75251462D01*
X109587378Y-75244410D01*
X109587379Y-75244410D01*
X109593727Y-75243765D01*
X109674843Y-75218345D01*
X109773451Y-75187444D01*
X109773456Y-75187442D01*
X109779541Y-75185535D01*
X109866475Y-75137346D01*
X109944271Y-75094223D01*
X109944274Y-75094221D01*
X109949850Y-75091130D01*
X109954691Y-75086981D01*
X109954695Y-75086978D01*
X110092855Y-74968560D01*
X110097698Y-74964409D01*
X110217046Y-74810547D01*
X110231309Y-74781562D01*
X110300200Y-74641556D01*
X110303018Y-74635829D01*
X110321580Y-74564570D01*
X110350492Y-74453575D01*
X110350492Y-74453572D01*
X110352102Y-74447393D01*
X110362293Y-74252936D01*
X110333175Y-74060401D01*
X110330972Y-74054415D01*
X110330971Y-74054409D01*
X110268140Y-73883640D01*
X110268138Y-73883635D01*
X110265937Y-73877654D01*
X110163326Y-73712160D01*
X110029534Y-73570678D01*
X110019079Y-73563357D01*
X109875259Y-73462654D01*
X109870025Y-73458989D01*
X109822013Y-73438212D01*
X109697175Y-73384190D01*
X109697171Y-73384189D01*
X109691316Y-73381655D01*
X109685069Y-73380350D01*
X109685066Y-73380349D01*
X109505443Y-73342824D01*
X109505438Y-73342823D01*
X109500707Y-73341835D01*
X109494315Y-73341500D01*
X109351337Y-73341500D01*
X109282049Y-73348538D01*
X109212622Y-73355590D01*
X109212621Y-73355590D01*
X109206273Y-73356235D01*
X109149939Y-73373889D01*
X109026549Y-73412556D01*
X109026544Y-73412558D01*
X109020459Y-73414465D01*
X108975339Y-73439476D01*
X108855729Y-73505777D01*
X108855726Y-73505779D01*
X108850150Y-73508870D01*
X108845309Y-73513019D01*
X108845305Y-73513022D01*
X108782311Y-73567015D01*
X108702302Y-73635591D01*
X108698391Y-73640633D01*
X108698390Y-73640634D01*
X108646503Y-73707526D01*
X108582954Y-73789453D01*
X108580138Y-73795176D01*
X108580136Y-73795179D01*
X108536608Y-73883640D01*
X108496982Y-73964171D01*
X108495373Y-73970349D01*
X108495372Y-73970351D01*
X108473477Y-74054409D01*
X108447898Y-74152607D01*
X108437707Y-74347064D01*
X105508500Y-74347064D01*
X105508500Y-65132703D01*
X105890743Y-65132703D01*
X105891302Y-65136947D01*
X105891302Y-65136951D01*
X105902745Y-65223865D01*
X105928268Y-65417734D01*
X106004129Y-65695036D01*
X106005813Y-65698984D01*
X106110048Y-65943357D01*
X106116923Y-65959476D01*
X106167580Y-66044118D01*
X106260874Y-66200000D01*
X106264561Y-66206161D01*
X106444313Y-66430528D01*
X106461397Y-66446740D01*
X106631857Y-66608500D01*
X106652851Y-66628423D01*
X106886317Y-66796186D01*
X106890112Y-66798195D01*
X106890113Y-66798196D01*
X106911869Y-66809715D01*
X107140392Y-66930712D01*
X107254151Y-66972342D01*
X107281970Y-66982522D01*
X107410373Y-67029511D01*
X107691264Y-67090755D01*
X107719841Y-67093004D01*
X107914282Y-67108307D01*
X107914291Y-67108307D01*
X107916739Y-67108500D01*
X108072271Y-67108500D01*
X108074407Y-67108354D01*
X108074418Y-67108354D01*
X108282548Y-67094165D01*
X108282554Y-67094164D01*
X108286825Y-67093873D01*
X108291020Y-67093004D01*
X108291022Y-67093004D01*
X108427583Y-67064724D01*
X108568342Y-67035574D01*
X108839343Y-66939607D01*
X109094812Y-66807750D01*
X109098313Y-66805289D01*
X109098317Y-66805287D01*
X109213108Y-66724610D01*
X109330023Y-66642441D01*
X109449544Y-66531375D01*
X109537479Y-66449661D01*
X109537481Y-66449658D01*
X109540622Y-66446740D01*
X109722713Y-66224268D01*
X109872927Y-65979142D01*
X109877470Y-65968794D01*
X109986757Y-65719830D01*
X109988483Y-65715898D01*
X110067244Y-65439406D01*
X110102904Y-65188841D01*
X110107146Y-65159036D01*
X110107146Y-65159034D01*
X110107751Y-65154784D01*
X110107775Y-65150386D01*
X110109235Y-64871583D01*
X110109235Y-64871576D01*
X110109257Y-64867297D01*
X110071732Y-64582266D01*
X109995871Y-64304964D01*
X109922902Y-64133891D01*
X109884763Y-64044476D01*
X109884761Y-64044472D01*
X109883077Y-64040524D01*
X109808527Y-63915960D01*
X109737643Y-63797521D01*
X109737640Y-63797517D01*
X109735439Y-63793839D01*
X109555687Y-63569472D01*
X109347149Y-63371577D01*
X109113683Y-63203814D01*
X109091843Y-63192250D01*
X109068654Y-63179972D01*
X108859608Y-63069288D01*
X108589627Y-62970489D01*
X108308736Y-62909245D01*
X108277685Y-62906801D01*
X108085718Y-62891693D01*
X108085709Y-62891693D01*
X108083261Y-62891500D01*
X107927729Y-62891500D01*
X107925593Y-62891646D01*
X107925582Y-62891646D01*
X107717452Y-62905835D01*
X107717446Y-62905836D01*
X107713175Y-62906127D01*
X107708980Y-62906996D01*
X107708978Y-62906996D01*
X107572416Y-62935277D01*
X107431658Y-62964426D01*
X107160657Y-63060393D01*
X107156848Y-63062359D01*
X107005501Y-63140475D01*
X106905188Y-63192250D01*
X106901687Y-63194711D01*
X106901683Y-63194713D01*
X106891594Y-63201804D01*
X106669977Y-63357559D01*
X106459378Y-63553260D01*
X106277287Y-63775732D01*
X106127073Y-64020858D01*
X106011517Y-64284102D01*
X105932756Y-64560594D01*
X105910130Y-64719573D01*
X105899699Y-64792872D01*
X105892249Y-64845216D01*
X105892227Y-64849505D01*
X105892226Y-64849512D01*
X105890765Y-65128417D01*
X105890743Y-65132703D01*
X105508500Y-65132703D01*
X105508500Y-65053250D01*
X105510246Y-65032345D01*
X105512770Y-65017344D01*
X105512770Y-65017341D01*
X105513576Y-65012552D01*
X105513729Y-65000000D01*
X105513040Y-64995186D01*
X105513039Y-64995177D01*
X105511869Y-64987006D01*
X105510827Y-64961540D01*
X105526206Y-64707290D01*
X105528040Y-64692186D01*
X105551376Y-64564841D01*
X105579525Y-64411240D01*
X105583164Y-64396473D01*
X105611295Y-64306197D01*
X105668142Y-64123769D01*
X105673534Y-64109555D01*
X105790758Y-63849092D01*
X105797828Y-63835621D01*
X105945595Y-63591187D01*
X105954238Y-63578666D01*
X106114169Y-63374527D01*
X106130386Y-63353828D01*
X106140475Y-63342440D01*
X106342440Y-63140475D01*
X106353829Y-63130385D01*
X106578666Y-62954238D01*
X106591187Y-62945595D01*
X106835621Y-62797828D01*
X106849094Y-62790757D01*
X106891777Y-62771547D01*
X107109555Y-62673534D01*
X107123769Y-62668142D01*
X107396474Y-62583164D01*
X107411240Y-62579525D01*
X107620214Y-62541229D01*
X107692186Y-62528040D01*
X107707290Y-62526206D01*
X107957904Y-62511047D01*
X107984716Y-62512308D01*
X107984852Y-62512310D01*
X107993724Y-62513691D01*
X108002626Y-62512527D01*
X108002628Y-62512527D01*
X108017677Y-62510559D01*
X108025286Y-62509564D01*
X108041621Y-62508500D01*
X174950633Y-62508500D01*
X174970018Y-62510000D01*
G37*
%TD.AperFunction*%
%TA.AperFunction,Conductor*%
G36*
X150477733Y-72213637D02*
G01*
X155656343Y-77392247D01*
X155663887Y-77400537D01*
X155668000Y-77407018D01*
X155673777Y-77412443D01*
X155717667Y-77453658D01*
X155720509Y-77456413D01*
X155740230Y-77476134D01*
X155743425Y-77478612D01*
X155752447Y-77486318D01*
X155784679Y-77516586D01*
X155791628Y-77520406D01*
X155802432Y-77526346D01*
X155818956Y-77537199D01*
X155834959Y-77549613D01*
X155875543Y-77567176D01*
X155886173Y-77572383D01*
X155924940Y-77593695D01*
X155932617Y-77595666D01*
X155932622Y-77595668D01*
X155944558Y-77598732D01*
X155963266Y-77605137D01*
X155981855Y-77613181D01*
X155989680Y-77614420D01*
X155989682Y-77614421D01*
X156025519Y-77620097D01*
X156037140Y-77622504D01*
X156072289Y-77631528D01*
X156079970Y-77633500D01*
X156100231Y-77633500D01*
X156119940Y-77635051D01*
X156139943Y-77638219D01*
X156147835Y-77637473D01*
X156153062Y-77636979D01*
X156183954Y-77634059D01*
X156195811Y-77633500D01*
X165685406Y-77633500D01*
X165753527Y-77653502D01*
X165774501Y-77670405D01*
X168329595Y-80225499D01*
X168363621Y-80287811D01*
X168366500Y-80314594D01*
X168366500Y-107297476D01*
X168346498Y-107365597D01*
X168334142Y-107381779D01*
X168260960Y-107463056D01*
X168222275Y-107530060D01*
X168179387Y-107604345D01*
X168165473Y-107628444D01*
X168163432Y-107634726D01*
X168119833Y-107768909D01*
X168079759Y-107827514D01*
X168014363Y-107855151D01*
X167944406Y-107843044D01*
X167892100Y-107795038D01*
X167880167Y-107768909D01*
X167836568Y-107634726D01*
X167834527Y-107628444D01*
X167820614Y-107604345D01*
X167777725Y-107530060D01*
X167739040Y-107463056D01*
X167665863Y-107381785D01*
X167635147Y-107317779D01*
X167633500Y-107297476D01*
X167633500Y-81678768D01*
X167634027Y-81667585D01*
X167635702Y-81660092D01*
X167634304Y-81615594D01*
X167633562Y-81592002D01*
X167633500Y-81588044D01*
X167633500Y-81560144D01*
X167632996Y-81556153D01*
X167632063Y-81544311D01*
X167630923Y-81508036D01*
X167630674Y-81500111D01*
X167625021Y-81480652D01*
X167621012Y-81461293D01*
X167620846Y-81459983D01*
X167618474Y-81441203D01*
X167615558Y-81433837D01*
X167615556Y-81433831D01*
X167602200Y-81400098D01*
X167598355Y-81388868D01*
X167588230Y-81354017D01*
X167588230Y-81354016D01*
X167586019Y-81346407D01*
X167575705Y-81328966D01*
X167567008Y-81311213D01*
X167562472Y-81299758D01*
X167559552Y-81292383D01*
X167533563Y-81256612D01*
X167527047Y-81246692D01*
X167508578Y-81215463D01*
X167504542Y-81208638D01*
X167490221Y-81194317D01*
X167477380Y-81179283D01*
X167470131Y-81169306D01*
X167465472Y-81162893D01*
X167431395Y-81134702D01*
X167422616Y-81126712D01*
X164803652Y-78507747D01*
X164796112Y-78499461D01*
X164792000Y-78492982D01*
X164742348Y-78446356D01*
X164739507Y-78443602D01*
X164719770Y-78423865D01*
X164716573Y-78421385D01*
X164707551Y-78413680D01*
X164681100Y-78388841D01*
X164675321Y-78383414D01*
X164668375Y-78379595D01*
X164668372Y-78379593D01*
X164657566Y-78373652D01*
X164641047Y-78362801D01*
X164640583Y-78362441D01*
X164625041Y-78350386D01*
X164617772Y-78347241D01*
X164617768Y-78347238D01*
X164584463Y-78332826D01*
X164573813Y-78327609D01*
X164535060Y-78306305D01*
X164515437Y-78301267D01*
X164496734Y-78294863D01*
X164485420Y-78289967D01*
X164485419Y-78289967D01*
X164478145Y-78286819D01*
X164470322Y-78285580D01*
X164470312Y-78285577D01*
X164434476Y-78279901D01*
X164422856Y-78277495D01*
X164387711Y-78268472D01*
X164387710Y-78268472D01*
X164380030Y-78266500D01*
X164359776Y-78266500D01*
X164340065Y-78264949D01*
X164327886Y-78263020D01*
X164320057Y-78261780D01*
X164312165Y-78262526D01*
X164276039Y-78265941D01*
X164264181Y-78266500D01*
X155814595Y-78266500D01*
X155746474Y-78246498D01*
X155725500Y-78229595D01*
X154544747Y-77048842D01*
X154525388Y-77023886D01*
X154508576Y-76995458D01*
X154504542Y-76988637D01*
X154490218Y-76974313D01*
X154477376Y-76959278D01*
X154465472Y-76942893D01*
X154431406Y-76914711D01*
X154422627Y-76906722D01*
X150251218Y-72735313D01*
X150217192Y-72673001D01*
X150219755Y-72609589D01*
X150230865Y-72573022D01*
X150232370Y-72568069D01*
X150261529Y-72346590D01*
X150262676Y-72299654D01*
X150284336Y-72232042D01*
X150339111Y-72186874D01*
X150409611Y-72178490D01*
X150477733Y-72213637D01*
G37*
%TD.AperFunction*%
%TA.AperFunction,Conductor*%
G36*
X164053527Y-79553502D02*
G01*
X164074501Y-79570405D01*
X166329595Y-81825499D01*
X166363621Y-81887811D01*
X166366500Y-81914594D01*
X166366500Y-99081904D01*
X166346498Y-99150025D01*
X166292842Y-99196518D01*
X166222568Y-99206622D01*
X166157988Y-99177128D01*
X166146865Y-99166215D01*
X166115008Y-99130835D01*
X166084290Y-99066828D01*
X166083537Y-99060151D01*
X166083502Y-99060155D01*
X166082995Y-99056144D01*
X166082062Y-99044301D01*
X166080922Y-99008029D01*
X166080673Y-99000110D01*
X166075022Y-98980658D01*
X166071014Y-98961306D01*
X166069467Y-98949063D01*
X166068474Y-98941203D01*
X166056423Y-98910764D01*
X166052200Y-98900097D01*
X166048355Y-98888870D01*
X166047721Y-98886687D01*
X166036018Y-98846407D01*
X166025707Y-98828972D01*
X166017012Y-98811224D01*
X166009552Y-98792383D01*
X165983564Y-98756613D01*
X165977048Y-98746693D01*
X165958580Y-98715465D01*
X165958578Y-98715462D01*
X165954542Y-98708638D01*
X165940221Y-98694317D01*
X165927380Y-98679283D01*
X165920132Y-98669307D01*
X165915472Y-98662893D01*
X165883587Y-98636516D01*
X165881407Y-98634712D01*
X165872626Y-98626722D01*
X165353647Y-98107742D01*
X165346113Y-98099463D01*
X165342000Y-98092982D01*
X165292348Y-98046356D01*
X165289507Y-98043602D01*
X165269770Y-98023865D01*
X165266573Y-98021385D01*
X165257551Y-98013680D01*
X165250574Y-98007128D01*
X165225321Y-97983414D01*
X165218375Y-97979595D01*
X165218372Y-97979593D01*
X165207566Y-97973652D01*
X165191047Y-97962801D01*
X165190583Y-97962441D01*
X165175041Y-97950386D01*
X165167772Y-97947241D01*
X165167768Y-97947238D01*
X165134463Y-97932826D01*
X165123813Y-97927609D01*
X165085060Y-97906305D01*
X165065437Y-97901267D01*
X165046734Y-97894863D01*
X165035420Y-97889967D01*
X165035419Y-97889967D01*
X165028145Y-97886819D01*
X165020322Y-97885580D01*
X165020312Y-97885577D01*
X164984476Y-97879901D01*
X164972856Y-97877495D01*
X164937711Y-97868472D01*
X164937710Y-97868472D01*
X164930030Y-97866500D01*
X164909776Y-97866500D01*
X164890065Y-97864949D01*
X164877886Y-97863020D01*
X164870057Y-97861780D01*
X164840786Y-97864547D01*
X164826039Y-97865941D01*
X164814181Y-97866500D01*
X163478768Y-97866500D01*
X163467585Y-97865973D01*
X163460092Y-97864298D01*
X163452166Y-97864547D01*
X163452165Y-97864547D01*
X163392002Y-97866438D01*
X163388044Y-97866500D01*
X163360144Y-97866500D01*
X163356154Y-97867004D01*
X163344320Y-97867936D01*
X163300111Y-97869326D01*
X163292495Y-97871539D01*
X163292493Y-97871539D01*
X163280652Y-97874979D01*
X163261293Y-97878988D01*
X163259983Y-97879154D01*
X163241203Y-97881526D01*
X163233837Y-97884442D01*
X163233831Y-97884444D01*
X163200098Y-97897800D01*
X163188868Y-97901645D01*
X163172828Y-97906305D01*
X163146407Y-97913981D01*
X163139584Y-97918016D01*
X163128966Y-97924295D01*
X163111213Y-97932992D01*
X163103568Y-97936019D01*
X163092383Y-97940448D01*
X163078705Y-97950386D01*
X163056612Y-97966437D01*
X163046695Y-97972951D01*
X163008638Y-97995458D01*
X162994317Y-98009779D01*
X162979284Y-98022619D01*
X162962893Y-98034528D01*
X162943353Y-98058148D01*
X162934712Y-98068593D01*
X162926722Y-98077374D01*
X162329733Y-98674362D01*
X162321454Y-98681896D01*
X162314973Y-98686009D01*
X162268348Y-98735660D01*
X162265593Y-98738502D01*
X162245856Y-98758239D01*
X162243376Y-98761436D01*
X162235673Y-98770456D01*
X162205405Y-98802688D01*
X162201586Y-98809634D01*
X162201584Y-98809637D01*
X162195643Y-98820443D01*
X162184792Y-98836962D01*
X162172377Y-98852968D01*
X162169232Y-98860237D01*
X162169229Y-98860241D01*
X162154817Y-98893546D01*
X162149595Y-98904206D01*
X162136642Y-98927768D01*
X162086297Y-98977827D01*
X162016881Y-98992721D01*
X161950431Y-98967721D01*
X161908047Y-98910764D01*
X161900917Y-98880239D01*
X161894232Y-98816635D01*
X161894232Y-98816633D01*
X161893542Y-98810072D01*
X161834527Y-98628444D01*
X161739040Y-98463056D01*
X161665863Y-98381785D01*
X161635147Y-98317779D01*
X161633500Y-98297476D01*
X161633500Y-97214594D01*
X161653502Y-97146473D01*
X161670405Y-97125499D01*
X162892247Y-95903657D01*
X162900537Y-95896113D01*
X162907018Y-95892000D01*
X162953659Y-95842332D01*
X162956413Y-95839491D01*
X162976134Y-95819770D01*
X162978612Y-95816575D01*
X162986318Y-95807553D01*
X163011158Y-95781101D01*
X163016586Y-95775321D01*
X163022732Y-95764142D01*
X163026346Y-95757568D01*
X163037199Y-95741045D01*
X163044753Y-95731306D01*
X163049613Y-95725041D01*
X163067176Y-95684457D01*
X163072383Y-95673827D01*
X163093695Y-95635060D01*
X163095666Y-95627383D01*
X163095668Y-95627378D01*
X163098732Y-95615442D01*
X163105138Y-95596730D01*
X163107402Y-95591500D01*
X163113181Y-95578145D01*
X163120097Y-95534481D01*
X163122504Y-95522860D01*
X163131528Y-95487711D01*
X163131528Y-95487710D01*
X163133500Y-95480030D01*
X163133500Y-95459769D01*
X163135051Y-95440058D01*
X163136979Y-95427885D01*
X163138219Y-95420057D01*
X163134059Y-95376046D01*
X163133500Y-95364189D01*
X163133500Y-83078768D01*
X163134027Y-83067585D01*
X163135702Y-83060092D01*
X163133562Y-82992001D01*
X163133500Y-82988044D01*
X163133500Y-82960144D01*
X163132996Y-82956153D01*
X163132063Y-82944311D01*
X163130923Y-82908036D01*
X163130674Y-82900111D01*
X163128462Y-82892497D01*
X163128461Y-82892492D01*
X163125023Y-82880659D01*
X163121012Y-82861295D01*
X163119467Y-82849064D01*
X163118474Y-82841203D01*
X163115557Y-82833836D01*
X163115556Y-82833831D01*
X163102198Y-82800092D01*
X163098354Y-82788865D01*
X163088230Y-82754022D01*
X163086018Y-82746407D01*
X163075707Y-82728972D01*
X163067012Y-82711224D01*
X163059552Y-82692383D01*
X163033564Y-82656613D01*
X163027048Y-82646693D01*
X163008580Y-82615465D01*
X163008578Y-82615462D01*
X163004542Y-82608638D01*
X162990221Y-82594317D01*
X162977380Y-82579283D01*
X162970131Y-82569306D01*
X162965472Y-82562893D01*
X162931395Y-82534702D01*
X162922616Y-82526712D01*
X161644500Y-81248595D01*
X161610474Y-81186283D01*
X161615539Y-81115467D01*
X161658086Y-81058632D01*
X161724606Y-81033821D01*
X161733595Y-81033500D01*
X162185406Y-81033500D01*
X162253527Y-81053502D01*
X162274501Y-81070405D01*
X163729595Y-82525500D01*
X163763621Y-82587812D01*
X163766500Y-82614595D01*
X163766500Y-92697476D01*
X163746498Y-92765597D01*
X163734142Y-92781779D01*
X163660960Y-92863056D01*
X163565473Y-93028444D01*
X163506458Y-93210072D01*
X163486496Y-93400000D01*
X163487186Y-93406565D01*
X163496608Y-93496206D01*
X163506458Y-93589928D01*
X163565473Y-93771556D01*
X163568776Y-93777278D01*
X163568777Y-93777279D01*
X163578612Y-93794313D01*
X163660960Y-93936944D01*
X163665378Y-93941851D01*
X163665379Y-93941852D01*
X163730864Y-94014580D01*
X163788747Y-94078866D01*
X163943248Y-94191118D01*
X163949276Y-94193802D01*
X163949278Y-94193803D01*
X164111681Y-94266109D01*
X164117712Y-94268794D01*
X164211113Y-94288647D01*
X164298056Y-94307128D01*
X164298061Y-94307128D01*
X164304513Y-94308500D01*
X164495487Y-94308500D01*
X164501939Y-94307128D01*
X164501944Y-94307128D01*
X164588888Y-94288647D01*
X164682288Y-94268794D01*
X164688319Y-94266109D01*
X164850722Y-94193803D01*
X164850724Y-94193802D01*
X164856752Y-94191118D01*
X165011253Y-94078866D01*
X165069136Y-94014580D01*
X165134621Y-93941852D01*
X165134622Y-93941851D01*
X165139040Y-93936944D01*
X165221388Y-93794313D01*
X165231223Y-93777279D01*
X165231224Y-93777278D01*
X165234527Y-93771556D01*
X165293542Y-93589928D01*
X165303393Y-93496206D01*
X165312814Y-93406565D01*
X165313504Y-93400000D01*
X165293542Y-93210072D01*
X165234527Y-93028444D01*
X165139040Y-92863056D01*
X165065863Y-92781785D01*
X165035147Y-92717779D01*
X165033500Y-92697476D01*
X165033500Y-82378768D01*
X165034027Y-82367585D01*
X165035702Y-82360092D01*
X165033562Y-82292001D01*
X165033500Y-82288044D01*
X165033500Y-82260144D01*
X165032996Y-82256153D01*
X165032063Y-82244311D01*
X165030923Y-82208036D01*
X165030674Y-82200111D01*
X165028462Y-82192497D01*
X165028461Y-82192492D01*
X165025023Y-82180659D01*
X165021012Y-82161295D01*
X165019467Y-82149064D01*
X165018474Y-82141203D01*
X165015557Y-82133836D01*
X165015556Y-82133831D01*
X165002198Y-82100092D01*
X164998354Y-82088865D01*
X164996232Y-82081561D01*
X164986018Y-82046407D01*
X164975707Y-82028972D01*
X164967012Y-82011224D01*
X164959552Y-81992383D01*
X164933564Y-81956613D01*
X164927048Y-81946693D01*
X164908580Y-81915465D01*
X164908578Y-81915462D01*
X164904542Y-81908638D01*
X164890221Y-81894317D01*
X164877380Y-81879283D01*
X164875093Y-81876135D01*
X164865472Y-81862893D01*
X164831395Y-81834702D01*
X164822616Y-81826712D01*
X163003652Y-80007747D01*
X162996112Y-79999461D01*
X162992000Y-79992982D01*
X162942348Y-79946356D01*
X162939507Y-79943602D01*
X162919770Y-79923865D01*
X162916573Y-79921385D01*
X162907551Y-79913680D01*
X162901541Y-79908036D01*
X162875321Y-79883414D01*
X162868375Y-79879595D01*
X162868372Y-79879593D01*
X162857566Y-79873652D01*
X162841047Y-79862801D01*
X162839103Y-79861293D01*
X162825041Y-79850386D01*
X162817772Y-79847241D01*
X162817768Y-79847238D01*
X162784463Y-79832826D01*
X162773813Y-79827609D01*
X162735060Y-79806305D01*
X162715437Y-79801267D01*
X162696734Y-79794863D01*
X162685420Y-79789967D01*
X162685419Y-79789967D01*
X162678145Y-79786819D01*
X162670320Y-79785579D01*
X162670311Y-79785577D01*
X162660026Y-79783948D01*
X162595873Y-79753535D01*
X162558347Y-79693267D01*
X162559362Y-79622277D01*
X162598595Y-79563106D01*
X162663591Y-79534539D01*
X162679738Y-79533500D01*
X163985406Y-79533500D01*
X164053527Y-79553502D01*
G37*
%TD.AperFunction*%
%TD*%
%TA.AperFunction,NonConductor*%
G36*
X150477733Y-74753637D02*
G01*
X153455253Y-77731157D01*
X153474611Y-77756112D01*
X153484259Y-77772425D01*
X153495458Y-77791362D01*
X153509779Y-77805683D01*
X153522619Y-77820716D01*
X153534528Y-77837107D01*
X153540634Y-77842158D01*
X153568605Y-77865298D01*
X153577384Y-77873288D01*
X154996343Y-79292247D01*
X155003887Y-79300537D01*
X155008000Y-79307018D01*
X155013777Y-79312443D01*
X155057667Y-79353658D01*
X155060509Y-79356413D01*
X155080230Y-79376134D01*
X155083425Y-79378612D01*
X155092447Y-79386318D01*
X155124679Y-79416586D01*
X155131628Y-79420406D01*
X155142432Y-79426346D01*
X155158956Y-79437199D01*
X155174959Y-79449613D01*
X155215543Y-79467176D01*
X155226173Y-79472383D01*
X155264940Y-79493695D01*
X155272617Y-79495666D01*
X155272622Y-79495668D01*
X155284558Y-79498732D01*
X155303266Y-79505137D01*
X155321855Y-79513181D01*
X155329682Y-79514421D01*
X155329683Y-79514421D01*
X155339975Y-79516051D01*
X155404128Y-79546464D01*
X155441655Y-79606732D01*
X155440641Y-79677721D01*
X155401408Y-79736893D01*
X155336412Y-79765461D01*
X155320264Y-79766500D01*
X154794594Y-79766500D01*
X154726473Y-79746498D01*
X154705499Y-79729595D01*
X150251218Y-75275313D01*
X150217192Y-75213001D01*
X150219755Y-75149589D01*
X150221591Y-75143548D01*
X150232370Y-75108069D01*
X150261529Y-74886590D01*
X150262676Y-74839654D01*
X150284336Y-74772042D01*
X150339111Y-74726874D01*
X150409611Y-74718490D01*
X150477733Y-74753637D01*
G37*
%TD.AperFunction*%
%TA.AperFunction,NonConductor*%
G36*
X150477733Y-77293637D02*
G01*
X153735501Y-80551405D01*
X153769527Y-80613717D01*
X153764462Y-80684532D01*
X153721915Y-80741368D01*
X153655395Y-80766179D01*
X153646406Y-80766500D01*
X153254594Y-80766500D01*
X153186473Y-80746498D01*
X153165499Y-80729595D01*
X150251218Y-77815313D01*
X150217192Y-77753001D01*
X150219755Y-77689589D01*
X150230865Y-77653022D01*
X150232370Y-77648069D01*
X150261529Y-77426590D01*
X150262154Y-77401026D01*
X150262676Y-77379654D01*
X150284336Y-77312042D01*
X150339111Y-77266874D01*
X150409611Y-77258490D01*
X150477733Y-77293637D01*
G37*
%TD.AperFunction*%
%TA.AperFunction,NonConductor*%
G36*
X143953527Y-84653502D02*
G01*
X143974501Y-84670405D01*
X144579595Y-85275499D01*
X144613621Y-85337811D01*
X144616500Y-85364594D01*
X144616500Y-91935405D01*
X144596498Y-92003526D01*
X144579595Y-92024500D01*
X144249500Y-92354595D01*
X144187188Y-92388621D01*
X144160405Y-92391500D01*
X144104513Y-92391500D01*
X144098061Y-92392872D01*
X144098056Y-92392872D01*
X144011113Y-92411353D01*
X143917712Y-92431206D01*
X143911682Y-92433891D01*
X143911681Y-92433891D01*
X143749278Y-92506197D01*
X143749276Y-92506198D01*
X143743248Y-92508882D01*
X143588747Y-92621134D01*
X143584326Y-92626044D01*
X143584325Y-92626045D01*
X143475203Y-92747238D01*
X143460960Y-92763056D01*
X143365473Y-92928444D01*
X143363432Y-92934726D01*
X143354333Y-92962730D01*
X143314259Y-93021335D01*
X143248862Y-93048972D01*
X143178906Y-93036865D01*
X143126600Y-92988859D01*
X143108500Y-92923793D01*
X143108500Y-85608623D01*
X143108502Y-85607853D01*
X143108800Y-85559102D01*
X143108976Y-85530279D01*
X143102585Y-85507918D01*
X143100850Y-85501847D01*
X143097272Y-85485085D01*
X143094352Y-85464698D01*
X143093080Y-85455813D01*
X143082451Y-85432436D01*
X143076004Y-85414913D01*
X143071416Y-85398862D01*
X143068949Y-85390229D01*
X143064156Y-85382632D01*
X143053170Y-85365220D01*
X143045030Y-85350135D01*
X143042564Y-85344711D01*
X143032792Y-85323218D01*
X143016030Y-85303765D01*
X143004927Y-85288761D01*
X142991224Y-85267042D01*
X142984499Y-85261103D01*
X142984496Y-85261099D01*
X142969062Y-85247468D01*
X142957018Y-85235276D01*
X142943573Y-85219673D01*
X142943570Y-85219671D01*
X142937713Y-85212873D01*
X142924009Y-85203990D01*
X142916165Y-85198906D01*
X142901291Y-85187615D01*
X142888783Y-85176569D01*
X142888782Y-85176568D01*
X142882049Y-85170622D01*
X142855287Y-85158057D01*
X142840309Y-85149737D01*
X142823017Y-85138529D01*
X142823012Y-85138527D01*
X142815485Y-85133648D01*
X142806892Y-85131078D01*
X142806887Y-85131076D01*
X142790880Y-85126289D01*
X142773436Y-85119628D01*
X142758324Y-85112533D01*
X142758322Y-85112532D01*
X142750200Y-85108719D01*
X142741333Y-85107338D01*
X142741332Y-85107338D01*
X142730478Y-85105648D01*
X142720983Y-85104170D01*
X142704268Y-85100387D01*
X142684534Y-85094485D01*
X142684528Y-85094484D01*
X142675934Y-85091914D01*
X142666963Y-85091859D01*
X142666962Y-85091859D01*
X142656903Y-85091798D01*
X142641494Y-85091704D01*
X142640711Y-85091671D01*
X142639614Y-85091500D01*
X142608623Y-85091500D01*
X142607853Y-85091498D01*
X142534215Y-85091048D01*
X142534214Y-85091048D01*
X142530279Y-85091024D01*
X142528935Y-85091408D01*
X142527590Y-85091500D01*
X140908623Y-85091500D01*
X140907853Y-85091498D01*
X140907037Y-85091493D01*
X140830279Y-85091024D01*
X140807918Y-85097415D01*
X140801847Y-85099150D01*
X140785085Y-85102728D01*
X140755813Y-85106920D01*
X140747645Y-85110634D01*
X140747644Y-85110634D01*
X140732438Y-85117548D01*
X140714914Y-85123996D01*
X140690229Y-85131051D01*
X140682635Y-85135843D01*
X140682632Y-85135844D01*
X140665220Y-85146830D01*
X140650137Y-85154969D01*
X140623218Y-85167208D01*
X140616416Y-85173069D01*
X140603765Y-85183970D01*
X140588761Y-85195073D01*
X140567042Y-85208776D01*
X140561103Y-85215501D01*
X140561099Y-85215504D01*
X140547468Y-85230938D01*
X140535276Y-85242982D01*
X140519673Y-85256427D01*
X140519671Y-85256430D01*
X140512873Y-85262287D01*
X140507993Y-85269816D01*
X140507992Y-85269817D01*
X140498906Y-85283835D01*
X140487615Y-85298709D01*
X140476569Y-85311217D01*
X140470622Y-85317951D01*
X140459127Y-85342434D01*
X140458058Y-85344711D01*
X140449737Y-85359691D01*
X140438529Y-85376983D01*
X140438527Y-85376988D01*
X140433648Y-85384515D01*
X140431078Y-85393108D01*
X140431076Y-85393113D01*
X140426289Y-85409120D01*
X140419628Y-85426564D01*
X140412533Y-85441676D01*
X140408719Y-85449800D01*
X140407338Y-85458667D01*
X140407338Y-85458668D01*
X140404170Y-85479015D01*
X140400387Y-85495732D01*
X140394485Y-85515466D01*
X140394484Y-85515472D01*
X140391914Y-85524066D01*
X140391859Y-85533037D01*
X140391859Y-85533038D01*
X140391704Y-85558497D01*
X140391671Y-85559289D01*
X140391500Y-85560386D01*
X140391500Y-85591377D01*
X140391498Y-85592147D01*
X140391024Y-85669721D01*
X140391408Y-85671065D01*
X140391500Y-85672410D01*
X140391500Y-93081133D01*
X140371498Y-93149254D01*
X140317842Y-93195747D01*
X140247568Y-93205851D01*
X140182988Y-93176357D01*
X140144604Y-93116631D01*
X140143966Y-93114106D01*
X140143542Y-93110072D01*
X140084527Y-92928444D01*
X139989040Y-92763056D01*
X139974798Y-92747238D01*
X139865675Y-92626045D01*
X139865674Y-92626044D01*
X139861253Y-92621134D01*
X139706752Y-92508882D01*
X139700724Y-92506198D01*
X139700722Y-92506197D01*
X139538319Y-92433891D01*
X139538318Y-92433891D01*
X139532288Y-92431206D01*
X139438887Y-92411353D01*
X139351944Y-92392872D01*
X139351939Y-92392872D01*
X139345487Y-92391500D01*
X139154513Y-92391500D01*
X139148061Y-92392872D01*
X139148056Y-92392872D01*
X139035697Y-92416755D01*
X138964906Y-92411353D01*
X138908273Y-92368536D01*
X138883780Y-92301898D01*
X138883500Y-92293508D01*
X138883500Y-86014594D01*
X138903502Y-85946473D01*
X138920405Y-85925499D01*
X140175500Y-84670405D01*
X140237812Y-84636379D01*
X140264595Y-84633500D01*
X143885406Y-84633500D01*
X143953527Y-84653502D01*
G37*
%TD.AperFunction*%
%TA.AperFunction,NonConductor*%
G36*
X140308971Y-93400603D02*
G01*
X140366008Y-93442879D01*
X140391135Y-93509281D01*
X140391500Y-93518867D01*
X140391500Y-93765500D01*
X140371498Y-93833621D01*
X140317842Y-93880114D01*
X140265500Y-93891500D01*
X140175780Y-93891500D01*
X140107659Y-93871498D01*
X140061166Y-93817842D01*
X140051062Y-93747568D01*
X140066662Y-93702499D01*
X140081222Y-93677281D01*
X140081223Y-93677278D01*
X140084527Y-93671556D01*
X140143542Y-93489928D01*
X140143705Y-93489981D01*
X140175982Y-93430196D01*
X140238132Y-93395875D01*
X140308971Y-93400603D01*
G37*
%TD.AperFunction*%
%TA.AperFunction,NonConductor*%
G36*
X160353527Y-83453502D02*
G01*
X160374501Y-83470405D01*
X160552878Y-83648782D01*
X160586904Y-83711094D01*
X160589092Y-83724703D01*
X160606458Y-83889928D01*
X160665473Y-84071556D01*
X160760960Y-84236944D01*
X160888747Y-84378866D01*
X161043248Y-84491118D01*
X161049276Y-84493802D01*
X161049278Y-84493803D01*
X161146175Y-84536944D01*
X161217712Y-84568794D01*
X161311113Y-84588647D01*
X161398056Y-84607128D01*
X161398061Y-84607128D01*
X161404513Y-84608500D01*
X161595487Y-84608500D01*
X161601939Y-84607128D01*
X161601944Y-84607128D01*
X161714303Y-84583245D01*
X161785094Y-84588647D01*
X161841727Y-84631464D01*
X161866220Y-84698102D01*
X161866500Y-84706492D01*
X161866500Y-95085405D01*
X161846498Y-95153526D01*
X161829595Y-95174500D01*
X160607747Y-96396348D01*
X160599461Y-96403888D01*
X160592982Y-96408000D01*
X160587557Y-96413777D01*
X160546357Y-96457651D01*
X160543602Y-96460493D01*
X160523865Y-96480230D01*
X160521385Y-96483427D01*
X160513682Y-96492447D01*
X160483414Y-96524679D01*
X160479595Y-96531625D01*
X160479593Y-96531628D01*
X160473652Y-96542434D01*
X160462801Y-96558953D01*
X160450386Y-96574959D01*
X160447241Y-96582228D01*
X160447238Y-96582232D01*
X160432826Y-96615537D01*
X160427609Y-96626187D01*
X160406305Y-96664940D01*
X160404334Y-96672615D01*
X160404334Y-96672616D01*
X160401267Y-96684562D01*
X160394863Y-96703266D01*
X160386819Y-96721855D01*
X160385580Y-96729678D01*
X160385577Y-96729688D01*
X160379901Y-96765524D01*
X160377495Y-96777144D01*
X160366500Y-96819970D01*
X160366500Y-96840224D01*
X160364949Y-96859934D01*
X160361780Y-96879943D01*
X160362526Y-96887835D01*
X160365941Y-96923961D01*
X160366500Y-96935819D01*
X160366500Y-98297476D01*
X160346498Y-98365597D01*
X160334142Y-98381779D01*
X160296615Y-98423457D01*
X160236171Y-98460695D01*
X160165187Y-98459343D01*
X160106203Y-98419829D01*
X160083148Y-98378082D01*
X160036568Y-98234726D01*
X160034527Y-98228444D01*
X159939040Y-98063056D01*
X159909158Y-98029868D01*
X159815675Y-97926045D01*
X159815674Y-97926044D01*
X159811253Y-97921134D01*
X159696759Y-97837949D01*
X159662094Y-97812763D01*
X159662093Y-97812762D01*
X159656752Y-97808882D01*
X159650724Y-97806198D01*
X159650722Y-97806197D01*
X159488319Y-97733891D01*
X159488318Y-97733891D01*
X159482288Y-97731206D01*
X159388887Y-97711353D01*
X159301944Y-97692872D01*
X159301939Y-97692872D01*
X159295487Y-97691500D01*
X159104513Y-97691500D01*
X159098061Y-97692872D01*
X159098056Y-97692872D01*
X159011113Y-97711353D01*
X158917712Y-97731206D01*
X158911682Y-97733891D01*
X158911681Y-97733891D01*
X158749278Y-97806197D01*
X158749276Y-97806198D01*
X158743248Y-97808882D01*
X158737907Y-97812762D01*
X158737906Y-97812763D01*
X158703241Y-97837949D01*
X158588747Y-97921134D01*
X158584326Y-97926044D01*
X158584325Y-97926045D01*
X158490843Y-98029868D01*
X158460960Y-98063056D01*
X158365473Y-98228444D01*
X158306458Y-98410072D01*
X158305768Y-98416633D01*
X158305768Y-98416635D01*
X158295948Y-98510072D01*
X158286496Y-98600000D01*
X158297697Y-98706565D01*
X158299879Y-98727329D01*
X158287107Y-98797168D01*
X158238605Y-98849014D01*
X158174569Y-98866500D01*
X152135942Y-98866500D01*
X152067821Y-98846498D01*
X152021328Y-98792842D01*
X152010632Y-98727331D01*
X152012814Y-98706568D01*
X152012814Y-98706565D01*
X152013504Y-98700000D01*
X151993542Y-98510072D01*
X151934527Y-98328444D01*
X151875381Y-98226000D01*
X151858500Y-98163001D01*
X151858500Y-91636999D01*
X151875381Y-91573999D01*
X151931223Y-91477279D01*
X151931224Y-91477278D01*
X151934527Y-91471556D01*
X151993542Y-91289928D01*
X152013504Y-91100000D01*
X151993542Y-90910072D01*
X151934527Y-90728444D01*
X151839040Y-90563056D01*
X151711253Y-90421134D01*
X151556752Y-90308882D01*
X151550724Y-90306198D01*
X151550722Y-90306197D01*
X151388319Y-90233891D01*
X151388318Y-90233891D01*
X151382288Y-90231206D01*
X151288888Y-90211353D01*
X151201944Y-90192872D01*
X151201939Y-90192872D01*
X151195487Y-90191500D01*
X151004513Y-90191500D01*
X150998061Y-90192872D01*
X150998056Y-90192872D01*
X150911112Y-90211353D01*
X150817712Y-90231206D01*
X150811682Y-90233891D01*
X150811681Y-90233891D01*
X150649278Y-90306197D01*
X150649276Y-90306198D01*
X150643248Y-90308882D01*
X150488747Y-90421134D01*
X150360960Y-90563056D01*
X150265473Y-90728444D01*
X150206458Y-90910072D01*
X150186496Y-91100000D01*
X150206458Y-91289928D01*
X150265473Y-91471556D01*
X150268776Y-91477278D01*
X150268777Y-91477279D01*
X150324619Y-91573999D01*
X150341500Y-91636999D01*
X150341500Y-93748732D01*
X150321498Y-93816853D01*
X150267842Y-93863346D01*
X150197568Y-93873450D01*
X150132988Y-93843956D01*
X150114045Y-93821257D01*
X150113439Y-93821727D01*
X150108576Y-93815458D01*
X150104542Y-93808637D01*
X150090218Y-93794313D01*
X150077376Y-93779278D01*
X150065472Y-93762893D01*
X150031406Y-93734711D01*
X150022627Y-93726722D01*
X149203652Y-92907747D01*
X149196112Y-92899461D01*
X149192000Y-92892982D01*
X149142348Y-92846356D01*
X149139507Y-92843602D01*
X149119770Y-92823865D01*
X149116573Y-92821385D01*
X149107551Y-92813680D01*
X149094116Y-92801064D01*
X149075321Y-92783414D01*
X149068375Y-92779595D01*
X149068372Y-92779593D01*
X149057566Y-92773652D01*
X149041047Y-92762801D01*
X149035048Y-92758148D01*
X149025041Y-92750386D01*
X149017772Y-92747241D01*
X149017768Y-92747238D01*
X148984463Y-92732826D01*
X148973813Y-92727609D01*
X148935060Y-92706305D01*
X148915437Y-92701267D01*
X148896734Y-92694863D01*
X148885420Y-92689967D01*
X148885419Y-92689967D01*
X148878145Y-92686819D01*
X148870322Y-92685580D01*
X148870312Y-92685577D01*
X148834476Y-92679901D01*
X148822856Y-92677495D01*
X148787711Y-92668472D01*
X148787710Y-92668472D01*
X148780030Y-92666500D01*
X148759776Y-92666500D01*
X148740065Y-92664949D01*
X148727886Y-92663020D01*
X148720057Y-92661780D01*
X148690786Y-92664547D01*
X148676039Y-92665941D01*
X148664181Y-92666500D01*
X145956193Y-92666500D01*
X145888072Y-92646498D01*
X145841579Y-92592842D01*
X145831475Y-92522568D01*
X145839041Y-92494117D01*
X145839878Y-92492004D01*
X145843695Y-92485060D01*
X145845665Y-92477387D01*
X145845667Y-92477382D01*
X145848732Y-92465442D01*
X145855138Y-92446730D01*
X145859092Y-92437595D01*
X145863181Y-92428145D01*
X145864421Y-92420317D01*
X145864423Y-92420310D01*
X145870099Y-92384476D01*
X145872505Y-92372856D01*
X145881528Y-92337711D01*
X145881528Y-92337710D01*
X145883500Y-92330030D01*
X145883500Y-92309776D01*
X145885051Y-92290065D01*
X145886980Y-92277886D01*
X145888220Y-92270057D01*
X145884059Y-92226038D01*
X145883500Y-92214181D01*
X145883500Y-85128767D01*
X145884027Y-85117584D01*
X145885702Y-85110091D01*
X145885212Y-85094485D01*
X145883562Y-85042014D01*
X145883500Y-85038055D01*
X145883500Y-85010144D01*
X145882995Y-85006144D01*
X145882062Y-84994301D01*
X145880922Y-84958029D01*
X145880673Y-84950110D01*
X145875022Y-84930658D01*
X145871014Y-84911306D01*
X145869467Y-84899063D01*
X145868474Y-84891203D01*
X145865556Y-84883832D01*
X145852200Y-84850097D01*
X145848355Y-84838870D01*
X145836018Y-84796408D01*
X145838899Y-84795571D01*
X145831918Y-84739103D01*
X145862683Y-84675119D01*
X145923158Y-84637925D01*
X145956256Y-84633500D01*
X158291800Y-84633500D01*
X158359921Y-84653502D01*
X158379147Y-84669843D01*
X158379420Y-84669540D01*
X158384332Y-84673963D01*
X158388747Y-84678866D01*
X158543248Y-84791118D01*
X158549276Y-84793802D01*
X158549278Y-84793803D01*
X158711681Y-84866109D01*
X158717712Y-84868794D01*
X158788460Y-84883832D01*
X158898056Y-84907128D01*
X158898061Y-84907128D01*
X158904513Y-84908500D01*
X159095487Y-84908500D01*
X159101939Y-84907128D01*
X159101944Y-84907128D01*
X159211540Y-84883832D01*
X159282288Y-84868794D01*
X159288319Y-84866109D01*
X159450722Y-84793803D01*
X159450724Y-84793802D01*
X159456752Y-84791118D01*
X159611253Y-84678866D01*
X159634091Y-84653502D01*
X159734621Y-84541852D01*
X159734622Y-84541851D01*
X159739040Y-84536944D01*
X159834527Y-84371556D01*
X159893542Y-84189928D01*
X159913504Y-84000000D01*
X159893542Y-83810072D01*
X159834527Y-83628444D01*
X159831097Y-83622503D01*
X159831063Y-83622361D01*
X159828539Y-83616693D01*
X159829575Y-83616232D01*
X159814357Y-83553508D01*
X159837575Y-83486416D01*
X159893381Y-83442527D01*
X159940214Y-83433500D01*
X160285406Y-83433500D01*
X160353527Y-83453502D01*
G37*
%TD.AperFunction*%
%TA.AperFunction,NonConductor*%
G36*
X164603527Y-99153502D02*
G01*
X164624501Y-99170405D01*
X164626560Y-99172464D01*
X164660586Y-99234776D01*
X164655521Y-99305591D01*
X164646589Y-99324550D01*
X164615473Y-99378444D01*
X164556458Y-99560072D01*
X164555768Y-99566633D01*
X164555768Y-99566635D01*
X164554211Y-99581451D01*
X164527197Y-99647108D01*
X164468976Y-99687737D01*
X164398031Y-99690440D01*
X164336887Y-99654358D01*
X164309068Y-99607216D01*
X164303282Y-99589407D01*
X164281518Y-99522426D01*
X164250554Y-99468794D01*
X164189332Y-99362756D01*
X164186031Y-99357038D01*
X164174120Y-99343809D01*
X164143403Y-99279805D01*
X164152166Y-99209351D01*
X164197628Y-99154820D01*
X164267756Y-99133500D01*
X164535406Y-99133500D01*
X164603527Y-99153502D01*
G37*
%TD.AperFunction*%
%TA.AperFunction,NonConductor*%
G36*
X158658852Y-100118904D02*
G01*
X158724756Y-100121167D01*
X158783130Y-100161577D01*
X158810390Y-100227132D01*
X158797881Y-100297018D01*
X158774226Y-100329869D01*
X157574500Y-101529595D01*
X157512188Y-101563621D01*
X157485405Y-101566500D01*
X151010566Y-101566500D01*
X150942445Y-101546498D01*
X150895952Y-101492842D01*
X150885848Y-101422568D01*
X150915342Y-101357988D01*
X150936504Y-101338565D01*
X150943397Y-101333557D01*
X150953307Y-101327048D01*
X150984535Y-101308580D01*
X150984538Y-101308578D01*
X150991362Y-101304542D01*
X151005683Y-101290221D01*
X151020717Y-101277380D01*
X151030694Y-101270131D01*
X151037107Y-101265472D01*
X151065298Y-101231395D01*
X151073288Y-101222616D01*
X152125499Y-100170405D01*
X152187811Y-100136379D01*
X152214594Y-100133500D01*
X158421233Y-100133500D01*
X158432416Y-100134027D01*
X158439909Y-100135702D01*
X158447835Y-100135453D01*
X158447836Y-100135453D01*
X158507986Y-100133562D01*
X158511945Y-100133500D01*
X158539856Y-100133500D01*
X158543791Y-100133003D01*
X158543856Y-100132995D01*
X158555693Y-100132062D01*
X158587951Y-100131048D01*
X158591970Y-100130922D01*
X158599889Y-100130673D01*
X158619343Y-100125021D01*
X158638700Y-100121013D01*
X158650930Y-100119468D01*
X158650931Y-100119468D01*
X158656130Y-100118811D01*
X158656131Y-100118811D01*
X158658798Y-100118474D01*
X158658852Y-100118904D01*
G37*
%TD.AperFunction*%
%TA.AperFunction,NonConductor*%
G36*
X155801750Y-108878502D02*
G01*
X155822724Y-108895405D01*
X156079875Y-109152556D01*
X156110613Y-109202714D01*
X156165473Y-109371556D01*
X156260960Y-109536944D01*
X156278291Y-109556192D01*
X156309007Y-109620198D01*
X156300242Y-109690651D01*
X156254779Y-109745182D01*
X156184653Y-109766500D01*
X125108189Y-109766500D01*
X125040068Y-109746498D01*
X124999070Y-109703501D01*
X124993040Y-109693056D01*
X124927439Y-109620198D01*
X124869675Y-109556045D01*
X124869674Y-109556044D01*
X124865253Y-109551134D01*
X124722629Y-109447511D01*
X124716094Y-109442763D01*
X124716093Y-109442762D01*
X124710752Y-109438882D01*
X124704724Y-109436198D01*
X124704722Y-109436197D01*
X124542319Y-109363891D01*
X124542318Y-109363891D01*
X124536288Y-109361206D01*
X124425490Y-109337655D01*
X124355944Y-109322872D01*
X124355939Y-109322872D01*
X124349487Y-109321500D01*
X124158513Y-109321500D01*
X124152061Y-109322872D01*
X124152056Y-109322872D01*
X124082510Y-109337655D01*
X123971712Y-109361206D01*
X123965679Y-109363892D01*
X123965673Y-109363894D01*
X123943428Y-109373798D01*
X123873061Y-109383233D01*
X123808764Y-109353127D01*
X123770951Y-109293038D01*
X123771626Y-109222045D01*
X123803084Y-109169597D01*
X124077276Y-108895405D01*
X124139588Y-108861379D01*
X124166371Y-108858500D01*
X155733629Y-108858500D01*
X155801750Y-108878502D01*
G37*
%TD.AperFunction*%
M02*
