%TF.GenerationSoftware,KiCad,Pcbnew,(6.0.6)*%
%TF.CreationDate,2022-12-01T22:03:14+01:00*%
%TF.ProjectId,Arbolito,4172626f-6c69-4746-9f2e-6b696361645f,rev?*%
%TF.SameCoordinates,Original*%
%TF.FileFunction,Paste,Top*%
%TF.FilePolarity,Positive*%
%FSLAX46Y46*%
G04 Gerber Fmt 4.6, Leading zero omitted, Abs format (unit mm)*
G04 Created by KiCad (PCBNEW (6.0.6)) date 2022-12-01 22:03:14*
%MOMM*%
%LPD*%
G01*
G04 APERTURE LIST*
G04 Aperture macros list*
%AMRoundRect*
0 Rectangle with rounded corners*
0 $1 Rounding radius*
0 $2 $3 $4 $5 $6 $7 $8 $9 X,Y pos of 4 corners*
0 Add a 4 corners polygon primitive as box body*
4,1,4,$2,$3,$4,$5,$6,$7,$8,$9,$2,$3,0*
0 Add four circle primitives for the rounded corners*
1,1,$1+$1,$2,$3*
1,1,$1+$1,$4,$5*
1,1,$1+$1,$6,$7*
1,1,$1+$1,$8,$9*
0 Add four rect primitives between the rounded corners*
20,1,$1+$1,$2,$3,$4,$5,0*
20,1,$1+$1,$4,$5,$6,$7,0*
20,1,$1+$1,$6,$7,$8,$9,0*
20,1,$1+$1,$8,$9,$2,$3,0*%
G04 Aperture macros list end*
%ADD10RoundRect,0.250000X-0.475000X0.250000X-0.475000X-0.250000X0.475000X-0.250000X0.475000X0.250000X0*%
%ADD11RoundRect,0.250000X-0.450000X0.350000X-0.450000X-0.350000X0.450000X-0.350000X0.450000X0.350000X0*%
%ADD12RoundRect,0.243750X0.243750X0.456250X-0.243750X0.456250X-0.243750X-0.456250X0.243750X-0.456250X0*%
%ADD13RoundRect,0.250000X0.475000X-0.250000X0.475000X0.250000X-0.475000X0.250000X-0.475000X-0.250000X0*%
%ADD14RoundRect,0.250000X0.350000X0.450000X-0.350000X0.450000X-0.350000X-0.450000X0.350000X-0.450000X0*%
%ADD15RoundRect,0.250000X0.450000X-0.350000X0.450000X0.350000X-0.450000X0.350000X-0.450000X-0.350000X0*%
%ADD16R,1.600000X1.000000*%
%ADD17RoundRect,0.150000X0.150000X-0.587500X0.150000X0.587500X-0.150000X0.587500X-0.150000X-0.587500X0*%
%ADD18R,2.700000X0.800000*%
%ADD19RoundRect,0.250000X-0.250000X-0.475000X0.250000X-0.475000X0.250000X0.475000X-0.250000X0.475000X0*%
%ADD20RoundRect,0.250000X-0.350000X-0.450000X0.350000X-0.450000X0.350000X0.450000X-0.350000X0.450000X0*%
%ADD21RoundRect,0.125000X0.575000X-0.125000X0.575000X0.125000X-0.575000X0.125000X-0.575000X-0.125000X0*%
%ADD22RoundRect,0.087500X-0.087500X0.187500X-0.087500X-0.187500X0.087500X-0.187500X0.087500X0.187500X0*%
%ADD23RoundRect,0.087500X0.087500X-0.187500X0.087500X0.187500X-0.087500X0.187500X-0.087500X-0.187500X0*%
%ADD24R,1.000000X2.500000*%
%ADD25R,1.800000X1.000000*%
%ADD26R,0.650000X1.560000*%
%ADD27RoundRect,0.250000X-0.275000X-0.275000X0.275000X-0.275000X0.275000X0.275000X-0.275000X0.275000X0*%
%ADD28RoundRect,0.062500X-0.350000X-0.062500X0.350000X-0.062500X0.350000X0.062500X-0.350000X0.062500X0*%
%ADD29RoundRect,0.062500X-0.062500X-0.350000X0.062500X-0.350000X0.062500X0.350000X-0.062500X0.350000X0*%
%ADD30R,1.160000X0.600000*%
%ADD31R,1.160000X0.300000*%
%ADD32R,1.800000X1.100000*%
%ADD33RoundRect,0.150000X-0.150000X0.512500X-0.150000X-0.512500X0.150000X-0.512500X0.150000X0.512500X0*%
G04 APERTURE END LIST*
D10*
%TO.C,C7*%
X132540000Y-85410000D03*
X132540000Y-87310000D03*
%TD*%
D11*
%TO.C,R21*%
X138110000Y-76470000D03*
X138110000Y-78470000D03*
%TD*%
D10*
%TO.C,C4*%
X144440000Y-122140000D03*
X144440000Y-124040000D03*
%TD*%
D12*
%TO.C,D2*%
X161637500Y-72900000D03*
X159762500Y-72900000D03*
%TD*%
D10*
%TO.C,C3*%
X114040000Y-85060000D03*
X114040000Y-86960000D03*
%TD*%
D13*
%TO.C,C5*%
X141090000Y-118160000D03*
X141090000Y-116260000D03*
%TD*%
D14*
%TO.C,R2*%
X148420000Y-122360000D03*
X146420000Y-122360000D03*
%TD*%
%TO.C,R15*%
X157700000Y-72900000D03*
X155700000Y-72900000D03*
%TD*%
D12*
%TO.C,D1*%
X161637500Y-75100000D03*
X159762500Y-75100000D03*
%TD*%
D10*
%TO.C,C9*%
X129540000Y-85410000D03*
X129540000Y-87310000D03*
%TD*%
D11*
%TO.C,R1*%
X168000000Y-118000000D03*
X168000000Y-120000000D03*
%TD*%
D15*
%TO.C,R8*%
X159046000Y-106970000D03*
X159046000Y-104970000D03*
%TD*%
D16*
%TO.C,SW1*%
X108200000Y-80200000D03*
X110600000Y-80200000D03*
X108200000Y-77700000D03*
X110600000Y-77700000D03*
X108200000Y-75200000D03*
X110600000Y-75200000D03*
%TD*%
D17*
%TO.C,Q1*%
X144146000Y-107257500D03*
X146046000Y-107257500D03*
X145096000Y-105382500D03*
%TD*%
D18*
%TO.C,L1*%
X122200000Y-87400000D03*
X122200000Y-85200000D03*
%TD*%
D19*
%TO.C,C1*%
X133150000Y-80000000D03*
X135050000Y-80000000D03*
%TD*%
D14*
%TO.C,R14*%
X124300000Y-112200000D03*
X122300000Y-112200000D03*
%TD*%
D15*
%TO.C,R18*%
X157046000Y-106970000D03*
X157046000Y-104970000D03*
%TD*%
D20*
%TO.C,R10*%
X170000000Y-77900000D03*
X172000000Y-77900000D03*
%TD*%
D15*
%TO.C,R7*%
X163046000Y-106970000D03*
X163046000Y-104970000D03*
%TD*%
D14*
%TO.C,R16*%
X165700000Y-72900000D03*
X163700000Y-72900000D03*
%TD*%
D11*
%TO.C,R6*%
X146096000Y-111320000D03*
X146096000Y-113320000D03*
%TD*%
D14*
%TO.C,R3*%
X157700000Y-75100000D03*
X155700000Y-75100000D03*
%TD*%
D11*
%TO.C,R20*%
X138090000Y-80380000D03*
X138090000Y-82380000D03*
%TD*%
D15*
%TO.C,R13*%
X161046000Y-106970000D03*
X161046000Y-104970000D03*
%TD*%
D21*
%TO.C,U5*%
X124300000Y-108200000D03*
D22*
X124800000Y-107175000D03*
D23*
X123800000Y-109225000D03*
D22*
X123800000Y-107175000D03*
D23*
X124800000Y-109225000D03*
%TD*%
D24*
%TO.C,U4*%
X169500000Y-86400000D03*
X167500000Y-86400000D03*
X165500000Y-86400000D03*
X163500000Y-86400000D03*
X161500000Y-86400000D03*
X159500000Y-86400000D03*
X157500000Y-86400000D03*
X155500000Y-86400000D03*
D25*
X154000000Y-89000000D03*
X154000000Y-91000000D03*
X154000000Y-93000000D03*
X154000000Y-95000000D03*
X154000000Y-97000000D03*
X154000000Y-99000000D03*
D24*
X155500000Y-101600000D03*
X157500000Y-101600000D03*
X159500000Y-101600000D03*
X161500000Y-101600000D03*
X163500000Y-101600000D03*
X165500000Y-101600000D03*
X167500000Y-101600000D03*
X169500000Y-101600000D03*
%TD*%
D13*
%TO.C,C10*%
X175000000Y-77850000D03*
X175000000Y-75950000D03*
%TD*%
D26*
%TO.C,U1*%
X131250000Y-76150000D03*
X132200000Y-76150000D03*
X133150000Y-76150000D03*
X133150000Y-73450000D03*
X131250000Y-73450000D03*
%TD*%
D11*
%TO.C,R11*%
X169046000Y-104970000D03*
X169046000Y-106970000D03*
%TD*%
D27*
%TO.C,U2*%
X147300000Y-118000000D03*
X146000000Y-119300000D03*
X146000000Y-118000000D03*
X147300000Y-119300000D03*
D28*
X144712500Y-117400000D03*
X144712500Y-117900000D03*
X144712500Y-118400000D03*
X144712500Y-118900000D03*
X144712500Y-119400000D03*
X144712500Y-119900000D03*
D29*
X145400000Y-120587500D03*
X145900000Y-120587500D03*
X146400000Y-120587500D03*
X146900000Y-120587500D03*
X147400000Y-120587500D03*
X147900000Y-120587500D03*
D28*
X148587500Y-119900000D03*
X148587500Y-119400000D03*
X148587500Y-118900000D03*
X148587500Y-118400000D03*
X148587500Y-117900000D03*
X148587500Y-117400000D03*
D29*
X147900000Y-116712500D03*
X147400000Y-116712500D03*
X146900000Y-116712500D03*
X146400000Y-116712500D03*
X145900000Y-116712500D03*
X145400000Y-116712500D03*
%TD*%
D14*
%TO.C,R4*%
X126700000Y-67400000D03*
X124700000Y-67400000D03*
%TD*%
%TO.C,R17*%
X124300000Y-115200000D03*
X122300000Y-115200000D03*
%TD*%
D30*
%TO.C,P1*%
X170490000Y-117200000D03*
X170490000Y-116400000D03*
D31*
X170490000Y-115250000D03*
X170490000Y-114250000D03*
X170490000Y-113750000D03*
X170490000Y-112750000D03*
D30*
X170490000Y-111600000D03*
X170490000Y-110800000D03*
X170490000Y-110800000D03*
X170490000Y-111600000D03*
D31*
X170490000Y-112250000D03*
X170490000Y-113250000D03*
X170490000Y-114750000D03*
X170490000Y-115750000D03*
D30*
X170490000Y-116400000D03*
X170490000Y-117200000D03*
%TD*%
D32*
%TO.C,SW2*%
X113900000Y-67550000D03*
X120100000Y-67550000D03*
X120100000Y-71250000D03*
X113900000Y-71250000D03*
%TD*%
D19*
%TO.C,C8*%
X149250000Y-87700000D03*
X151150000Y-87700000D03*
%TD*%
D11*
%TO.C,R9*%
X165046000Y-80970000D03*
X165046000Y-82970000D03*
%TD*%
D32*
%TO.C,SW3*%
X164200000Y-120850000D03*
X158000000Y-120850000D03*
X158000000Y-124550000D03*
X164200000Y-124550000D03*
%TD*%
D11*
%TO.C,R19*%
X167700000Y-72900000D03*
X167700000Y-74900000D03*
%TD*%
%TO.C,R12*%
X167046000Y-104970000D03*
X167046000Y-106970000D03*
%TD*%
D19*
%TO.C,C6*%
X117040000Y-90010000D03*
X118940000Y-90010000D03*
%TD*%
D33*
%TO.C,U3*%
X117816000Y-85162500D03*
X116866000Y-85162500D03*
X115916000Y-85162500D03*
X115916000Y-87437500D03*
X116866000Y-87437500D03*
X117816000Y-87437500D03*
%TD*%
D19*
%TO.C,C2*%
X130850000Y-71400000D03*
X132750000Y-71400000D03*
%TD*%
D11*
%TO.C,R5*%
X150000000Y-111320000D03*
X150000000Y-113320000D03*
%TD*%
D32*
%TO.C,SW4*%
X163500000Y-65050000D03*
X157300000Y-65050000D03*
X163500000Y-68750000D03*
X157300000Y-68750000D03*
%TD*%
D17*
%TO.C,Q2*%
X148146000Y-107257500D03*
X150046000Y-107257500D03*
X149096000Y-105382500D03*
%TD*%
M02*
