%
M48
METRIC,000.000
T01C0.40
T02C0.60
T03C1.00
T04C1.02
T05C3.18
%
T01
X062330Y043252
X065462Y043463
X065230Y045254
X020699Y045698
X066201Y046498
X043999Y049998
X043999Y053001
X032701Y053199
X026300Y054901
X034999Y057199
X073150Y058469
X048299Y060250
X052099Y060301
X070028Y061980
X073000Y063999
X073999Y063999
X052200Y065099
X048299Y065200
X079061Y065449
X059000Y066000
X073000Y066999
X073999Y066999
X070001Y067999
X073000Y067999
X073999Y067999
X070001Y069998
X055799Y070100
X046099Y072099
X053699Y072099
X059000Y076000
X072701Y077499
X063999Y077999
X020001Y078299
X024900Y078401
X039000Y079998
X053600Y080199
X053999Y082000
X038700Y082500
X072500Y083600
X030100Y083999
X053999Y083999
X043790Y084390
X024900Y084400
X020100Y084499
X048400Y085398
X053999Y086000
X063000Y087999
X076399Y088899
X070999Y089000
X049889Y089089
X063000Y089998
X070001Y089998
T02
X063285Y092564G85X063285Y091365
X074733Y092564G85X074733Y091365
X063275Y096630G85X063275Y095431
X074715Y096839G85X074715Y095640
T03
X022200Y069899
X024740Y069899
X027280Y069899
X029820Y069899
X032360Y069899
X034900Y069899
T04
X060879Y035040
X073579Y035040
T05
X022779Y061710
X077580Y061710
M30