%TF.GenerationSoftware,KiCad,Pcbnew,(6.0.7)*%
%TF.CreationDate,2022-11-21T20:09:17+01:00*%
%TF.ProjectId,Arbolito Tronco,4172626f-6c69-4746-9f20-54726f6e636f,rev?*%
%TF.SameCoordinates,Original*%
%TF.FileFunction,Copper,L1,Top*%
%TF.FilePolarity,Positive*%
%FSLAX46Y46*%
G04 Gerber Fmt 4.6, Leading zero omitted, Abs format (unit mm)*
G04 Created by KiCad (PCBNEW (6.0.7)) date 2022-11-21 20:09:17*
%MOMM*%
%LPD*%
G01*
G04 APERTURE LIST*
G04 Aperture macros list*
%AMRoundRect*
4,1,4,2,3,4,5,6,7,8,9,2,3,0*
1,1,$1,$2,$3*
1,1,$1,$2,$3*
1,1,$1,$2,$3*
1,1,$1,$2,$3*
20,1,$1,$2,$3,$4,$5,0*
20,1,$1,$2,$3,$4,$5,0*
20,1,$1,$2,$3,$4,$5,0*
20,1,$1,$2,$3,$4,$5,0*%
G04 Aperture macros list end*
%TA.AperFunction,SMDPad,CuDef*%
%AMCOMP52*
4,1,3,
-0.475,0.25,
-0.475,-0.25,
0.475,-0.25,
0.475,0.25,
0*
4,1,19,
-0.475,0.5,
-0.39774575140626311,0.48776412907378841,
-0.32805368692688169,0.45225424859373686,
-0.27274575140626311,0.39694631307311828,
-0.2372358709262116,0.32725424859373686,
-0.22499999999999998,0.25,
-0.23723587092621157,0.17274575140626316,
-0.27274575140626311,0.10305368692688174,
-0.32805368692688164,0.047745751406263165,
-0.39774575140626311,0.012235870926211617,
-0.47499999999999992,0,
-0.552254248593737,0.012235870926211617,
-0.62194631307311821,0.047745751406263109,
-0.67725424859373684,0.10305368692688169,
-0.71276412907378839,0.17274575140626311,
-0.725,0.24999999999999994,
-0.71276412907378839,0.32725424859373681,
-0.67725424859373684,0.39694631307311823,
-0.62194631307311832,0.45225424859373686,
-0.55225424859373684,0.48776412907378841,
0*
4,1,19,
-0.475,0,
-0.39774575140626311,-0.012235870926211617,
-0.32805368692688169,-0.047745751406263137,
-0.27274575140626311,-0.10305368692688172,
-0.2372358709262116,-0.17274575140626314,
-0.22499999999999998,-0.24999999999999997,
-0.23723587092621157,-0.32725424859373686,
-0.27274575140626311,-0.39694631307311823,
-0.32805368692688164,-0.45225424859373686,
-0.39774575140626311,-0.48776412907378841,
-0.47499999999999992,-0.5,
-0.552254248593737,-0.48776412907378841,
-0.62194631307311821,-0.45225424859373686,
-0.67725424859373684,-0.39694631307311834,
-0.71276412907378839,-0.32725424859373686,
-0.725,-0.25000000000000006,
-0.71276412907378839,-0.17274575140626319,
-0.67725424859373684,-0.10305368692688177,
-0.62194631307311832,-0.047745751406263165,
-0.55225424859373684,-0.012235870926211617,
0*
4,1,19,
0.475,0,
0.55225424859373684,-0.012235870926211617,
0.62194631307311821,-0.047745751406263137,
0.67725424859373684,-0.10305368692688172,
0.71276412907378839,-0.17274575140626314,
0.725,-0.24999999999999997,
0.71276412907378839,-0.32725424859373686,
0.67725424859373684,-0.39694631307311823,
0.62194631307311832,-0.45225424859373686,
0.55225424859373684,-0.48776412907378841,
0.47500000000000003,-0.5,
0.39774575140626306,-0.48776412907378841,
0.32805368692688175,-0.45225424859373686,
0.27274575140626311,-0.39694631307311834,
0.2372358709262116,-0.32725424859373686,
0.22499999999999998,-0.25000000000000006,
0.23723587092621157,-0.17274575140626319,
0.27274575140626311,-0.10305368692688177,
0.32805368692688164,-0.047745751406263165,
0.39774575140626306,-0.012235870926211617,
0*
4,1,19,
0.475,0.5,
0.55225424859373684,0.48776412907378841,
0.62194631307311821,0.45225424859373686,
0.67725424859373684,0.39694631307311828,
0.71276412907378839,0.32725424859373686,
0.725,0.25,
0.71276412907378839,0.17274575140626316,
0.67725424859373684,0.10305368692688174,
0.62194631307311832,0.047745751406263165,
0.55225424859373684,0.012235870926211617,
0.47500000000000003,0,
0.39774575140626306,0.012235870926211617,
0.32805368692688175,0.047745751406263109,
0.27274575140626311,0.10305368692688169,
0.2372358709262116,0.17274575140626311,
0.22499999999999998,0.24999999999999994,
0.23723587092621157,0.32725424859373681,
0.27274575140626311,0.39694631307311823,
0.32805368692688164,0.45225424859373686,
0.39774575140626306,0.48776412907378841,
0*
4,1,3,
-0.725,0.25,
-0.22499999999999998,0.24999999999999997,
-0.22499999999999998,-0.25,
-0.725,-0.24999999999999997,
0*
4,1,3,
-0.475,-0.5,
-0.475,0,
0.475,0,
0.475,-0.5,
0*
4,1,3,
0.725,-0.25,
0.22499999999999998,-0.24999999999999997,
0.22499999999999998,0.25,
0.725,0.24999999999999997,
0*
4,1,3,
0.475,0.5,
0.475,0,
-0.475,0,
-0.475,0.5,
0*%
%ADD10COMP52,0.25X-0.475X0.25X-0.475X-0.25X0.475X-0.25X0.475X0.25X0*%
%TD*%
%TA.AperFunction,SMDPad,CuDef*%
%ADD11R,1.5X1*%
%TD*%
%TA.AperFunction,ViaPad*%
%ADD12C,0.8*%
%TD*%
%TA.AperFunction,Conductor*%
%ADD13C,0.5*%
%TD*%
G04 APERTURE END LIST*
D10*
%TO.P,C16,1*%
%TO.N,+5V*%
X-0030000000Y0130000000D02*
X0119050000Y0050599999D03*
%TO.P,C16,2*%
%TO.N,GND*%
X0119050000Y0048700000D03*
%TD*%
D11*
%TO.P,U5,1,VDD*%
%TO.N,+5V*%
X0095400000Y0078000000D03*
%TO.P,U5,2,DIN*%
%TO.N,Net-(U4-Pad4)*%
X0095400000Y0074800000D03*
%TO.P,U5,3,VSS*%
%TO.N,GND*%
X0100300000Y0074800000D03*
%TO.P,U5,4,DOUT*%
%TO.N,Net-(U5-Pad4)*%
X0100300000Y0078000000D03*
%TD*%
D10*
%TO.P,C12,1*%
%TO.N,+5V*%
X0103600000Y0077550000D03*
%TO.P,C12,2*%
%TO.N,GND*%
X0103600000Y0075650000D03*
%TD*%
D11*
%TO.P,U1,1,VDD*%
%TO.N,+5V*%
X0084650000Y0021599999D03*
%TO.P,U1,2,DIN*%
%TO.N,/DIN*%
X0084650000Y0018400000D03*
%TO.P,U1,3,VSS*%
%TO.N,GND*%
X0089550000Y0018400000D03*
%TO.P,U1,4,DOUT*%
%TO.N,Net-(U1-Pad4)*%
X0089550000Y0021599999D03*
%TD*%
D10*
%TO.P,C14,1*%
%TO.N,+5V*%
X0092700000Y0021099999D03*
%TO.P,C14,2*%
%TO.N,GND*%
X0092700000Y0019200000D03*
%TD*%
D11*
%TO.P,U4,1,VDD*%
%TO.N,+5V*%
X0122250000Y0050650000D03*
%TO.P,U4,2,DIN*%
%TO.N,Net-(U3-Pad4)*%
X0122250000Y0047450000D03*
%TO.P,U4,3,VSS*%
%TO.N,GND*%
X0127150000Y0047450000D03*
%TO.P,U4,4,DOUT*%
%TO.N,Net-(U4-Pad4)*%
X0127150000Y0050650000D03*
%TD*%
D12*
%TO.N,+5V*%
X0102000000Y0002500000D03*
X0092700000Y0021099999D03*
X0119050000Y0050599999D03*
X0107100000Y0067900000D03*
X0097950000Y0078100000D03*
X0105000000Y0002500000D03*
X0087250000Y0021549999D03*
X0111900000Y0067900000D03*
X0103600000Y0077550000D03*
X0125050000Y0050650000D03*
%TO.N,GND*%
X0125100000Y0047400000D03*
X0092700000Y0019150000D03*
X0107100000Y0061900000D03*
X0111900000Y0061900000D03*
X0087300000Y0018299999D03*
X0103600000Y0075650000D03*
X0117000000Y0002500000D03*
X0097850000Y0074750000D03*
X0119000000Y0048650000D03*
X0114000000Y0002500000D03*
%TO.N,/DIN*%
X0111000000Y0002500000D03*
X0108000000Y0002500000D03*
%TO.N,Net-(U1-Pad4)*%
X0089650000Y0019950000D03*
%TO.N,Net-(U3-Pad4)*%
X0122250000Y0049050000D03*
%TO.N,Net-(U5-Pad4)*%
X0100350000Y0076450000D03*
%TO.N,/Dout*%
X0111900000Y0064900000D03*
X0107100000Y0065000000D03*
%TD*%
D13*
%TO.N,+5V*%
X0087250000Y0021549999D02*
X0084700000Y0021549999D01*
X0125050000Y0050650000D02*
X0122250000Y0050650000D01*
X0084700000Y0021549999D02*
X0084650000Y0021599999D01*
%TO.N,GND*%
X0100250000Y0074750000D02*
X0100300000Y0074800000D01*
X0110610050Y0049599999D02*
X0111900000Y0050889950D01*
X0107100000Y0061900000D02*
X0107100000Y0051099999D01*
X0087400000Y0018400000D02*
X0087300000Y0018299999D01*
X0097850000Y0074750000D02*
X0100250000Y0074750000D01*
X0107100000Y0051099999D02*
X0108600000Y0049599999D01*
X0127100000Y0047400000D02*
X0127150000Y0047450000D01*
X0111900000Y0050889950D02*
X0111900000Y0061900000D01*
X0108600000Y0049599999D02*
X0110610050Y0049599999D01*
X0089550000Y0018400000D02*
X0087400000Y0018400000D01*
X0125100000Y0047400000D02*
X0127100000Y0047400000D01*
%TO.N,/DIN*%
X0108000000Y0002500000D02*
X0109550000Y0002500000D01*
X0087800000Y0015250000D02*
X0108350000Y0015250000D01*
X0084650000Y0018400000D02*
X0087800000Y0015250000D01*
X0109550000Y0002500000D02*
X0111000000Y0002500000D01*
X0109550000Y0014049999D02*
X0109550000Y0002500000D01*
X0108350000Y0015250000D02*
X0109550000Y0014049999D01*
%TO.N,Net-(U1-Pad4)*%
X0089650000Y0019950000D02*
X0089650000Y0021500000D01*
X0089650000Y0021500000D02*
X0089550000Y0021599999D01*
X0089600000Y0021650000D02*
X0089550000Y0021599999D01*
%TO.N,Net-(U3-Pad4)*%
X0122250000Y0049050000D02*
X0122250000Y0047450000D01*
%TO.N,Net-(U4-Pad4)*%
X0103400000Y0073300000D02*
X0104699999Y0072000000D01*
X0123000000Y0054050000D02*
X0126400000Y0050650000D01*
X0118550000Y0054050000D02*
X0123000000Y0054050000D01*
X0096600000Y0073300000D02*
X0103400000Y0073300000D01*
X0104699999Y0050900000D02*
X0107900000Y0047700000D01*
X0095400000Y0074800000D02*
X0095400000Y0074500000D01*
X0104699999Y0072000000D02*
X0104699999Y0050900000D01*
X0107900000Y0047700000D02*
X0112199999Y0047700000D01*
X0095400000Y0074500000D02*
X0096600000Y0073300000D01*
X0112199999Y0047700000D02*
X0118550000Y0054050000D01*
X0126400000Y0050650000D02*
X0127150000Y0050650000D01*
%TO.N,Net-(U5-Pad4)*%
X0100300000Y0078000000D02*
X0100300000Y0076500000D01*
X0100300000Y0076500000D02*
X0100350000Y0076450000D01*
%TO.N,/Dout*%
X0106100000Y0064000000D02*
X0106100000Y0051000000D01*
X0107100000Y0065000000D02*
X0106100000Y0064000000D01*
X0106100000Y0051000000D02*
X0108500000Y0048599999D01*
X0113199999Y0063599999D02*
X0111900000Y0064900000D01*
X0113199999Y0051200000D02*
X0113199999Y0063599999D01*
X0108500000Y0048599999D02*
X0110600000Y0048599999D01*
X0110600000Y0048599999D02*
X0113199999Y0051200000D01*
%TD*%
%TA.AperFunction,Conductor*%
%TO.N,/Dout*%
G36*
X0108033621Y0065879998D02*
G01*
X0108080114Y0065826342D01*
X0108091500Y0065774000D01*
X0108091500Y0064025999D01*
X0108071497Y0063957879D01*
X0108017842Y0063911385D01*
X0107965499Y0063900000D01*
X0107226000Y0063900000D01*
X0107157879Y0063920002D01*
X0107111386Y0063973658D01*
X0107100000Y0064025999D01*
X0107100000Y0065774000D01*
X0107120002Y0065842121D01*
X0107173657Y0065888614D01*
X0107226000Y0065900000D01*
X0107965499Y0065900000D01*
X0108033621Y0065879998D01*
G37*
%TD.AperFunction*%
%TD*%
%TA.AperFunction,Conductor*%
%TO.N,/Dout*%
G36*
X0111842120Y0065879998D02*
G01*
X0111888613Y0065826342D01*
X0111900000Y0065774000D01*
X0111900000Y0064025999D01*
X0111879998Y0063957879D01*
X0111826342Y0063911385D01*
X0111774000Y0063900000D01*
X0111026000Y0063900000D01*
X0110957878Y0063920002D01*
X0110911386Y0063973658D01*
X0110900000Y0064025999D01*
X0110900000Y0065774000D01*
X0110920002Y0065842121D01*
X0110973658Y0065888614D01*
X0111026000Y0065900000D01*
X0111774000Y0065900000D01*
X0111842120Y0065879998D01*
G37*
%TD.AperFunction*%
%TD*%
%TA.AperFunction,Conductor*%
%TO.N,+5V*%
G36*
X0108091500Y0066900000D02*
G01*
X0107100000Y0066900000D01*
X0107100000Y0068900000D01*
X0108091500Y0068900000D01*
X0108091500Y0066900000D01*
G37*
%TD.AperFunction*%
%TD*%
%TA.AperFunction,Conductor*%
%TO.N,+5V*%
G36*
X0111900000Y0066900000D02*
G01*
X0110900000Y0066900000D01*
X0110900000Y0068900000D01*
X0111900000Y0068900000D01*
X0111900000Y0066900000D01*
G37*
%TD.AperFunction*%
%TD*%
%TA.AperFunction,Conductor*%
%TO.N,GND*%
G36*
X0108033621Y0062879998D02*
G01*
X0108080114Y0062826342D01*
X0108091500Y0062774000D01*
X0108091500Y0061025999D01*
X0108071497Y0060957879D01*
X0108017842Y0060911385D01*
X0107965499Y0060900000D01*
X0107226000Y0060900000D01*
X0107157879Y0060920002D01*
X0107111386Y0060973658D01*
X0107100000Y0061025999D01*
X0107100000Y0062774000D01*
X0107120002Y0062842121D01*
X0107173657Y0062888614D01*
X0107226000Y0062900000D01*
X0107965499Y0062900000D01*
X0108033621Y0062879998D01*
G37*
%TD.AperFunction*%
%TD*%
%TA.AperFunction,Conductor*%
%TO.N,GND*%
G36*
X0111842120Y0062879998D02*
G01*
X0111888613Y0062826342D01*
X0111900000Y0062774000D01*
X0111900000Y0061025999D01*
X0111879998Y0060957879D01*
X0111826342Y0060911385D01*
X0111774000Y0060900000D01*
X0111026000Y0060900000D01*
X0110957878Y0060920002D01*
X0110911386Y0060973658D01*
X0110900000Y0061025999D01*
X0110900000Y0062774000D01*
X0110920002Y0062842121D01*
X0110973658Y0062888614D01*
X0111026000Y0062900000D01*
X0111774000Y0062900000D01*
X0111842120Y0062879998D01*
G37*
%TD.AperFunction*%
%TD*%
%TA.AperFunction,Conductor*%
%TO.N,GND*%
G36*
X0117942120Y0002479997D02*
G01*
X0117988614Y0002426342D01*
X0118000000Y0002373999D01*
X0118000000Y0001626000D01*
X0117979998Y0001557879D01*
X0117926342Y0001511385D01*
X0117874000Y0001500000D01*
X0116126000Y0001500000D01*
X0116057879Y0001520002D01*
X0116011385Y0001573657D01*
X0116000000Y0001626000D01*
X0116000000Y0002373999D01*
X0116020002Y0002442121D01*
X0116073658Y0002488613D01*
X0116126000Y0002500000D01*
X0117874000Y0002500000D01*
X0117942120Y0002479997D01*
G37*
%TD.AperFunction*%
%TD*%
%TA.AperFunction,Conductor*%
%TO.N,+5V*%
G36*
X0103000000Y0001500000D02*
G01*
X0101000000Y0001500000D01*
X0101000000Y0002500000D01*
X0103000000Y0002500000D01*
X0103000000Y0001500000D01*
G37*
%TD.AperFunction*%
%TD*%
%TA.AperFunction,Conductor*%
%TO.N,+5V*%
G36*
X0106000000Y0001500000D02*
G01*
X0104000000Y0001500000D01*
X0104000000Y0002500000D01*
X0106000000Y0002500000D01*
X0106000000Y0001500000D01*
G37*
%TD.AperFunction*%
%TD*%
%TA.AperFunction,Conductor*%
%TO.N,+5V*%
G36*
X0108029968Y0097241118D02*
G01*
X0108078263Y0097189078D01*
X0108091500Y0097132860D01*
X0108091500Y0068900000D01*
X0107100000Y0068900000D01*
X0107100000Y0066900000D01*
X0108091500Y0066900000D01*
X0108091500Y0066539500D01*
X0108071497Y0066471379D01*
X0108017842Y0066424886D01*
X0107965499Y0066413500D01*
X0107226000Y0066413500D01*
X0107222654Y0066413140D01*
X0107222648Y0066413140D01*
X0107120215Y0066402128D01*
X0107120207Y0066402127D01*
X0107116851Y0066401766D01*
X0107113551Y0066401048D01*
X0107113550Y0066401048D01*
X0107067790Y0066391094D01*
X0107067784Y0066391093D01*
X0107064508Y0066390379D01*
X0106960343Y0066355710D01*
X0106837388Y0066276692D01*
X0106783731Y0066230199D01*
X0106780791Y0066226806D01*
X0106693919Y0066126550D01*
X0106693917Y0066126547D01*
X0106688018Y0066119739D01*
X0106627301Y0065986790D01*
X0106607300Y0065918668D01*
X0106606660Y0065914220D01*
X0106606659Y0065914214D01*
X0106590206Y0065799781D01*
X0106560713Y0065735201D01*
X0106539553Y0065715779D01*
X0106488746Y0065678866D01*
X0106484326Y0065673956D01*
X0106484325Y0065673955D01*
X0106428677Y0065612151D01*
X0106360960Y0065536944D01*
X0106265472Y0065371556D01*
X0106263431Y0065365271D01*
X0106210613Y0065202715D01*
X0106179875Y0065152556D01*
X0105673595Y0064646276D01*
X0105611282Y0064612250D01*
X0105540468Y0064617315D01*
X0105483632Y0064659862D01*
X0105458821Y0064726382D01*
X0105458499Y0064735371D01*
X0105458499Y0071932930D01*
X0105459933Y0071951880D01*
X0105462099Y0071966115D01*
X0105462099Y0071966118D01*
X0105463199Y0071973349D01*
X0105458914Y0072026018D01*
X0105458499Y0072036233D01*
X0105458499Y0072044293D01*
X0105455209Y0072072520D01*
X0105454778Y0072076878D01*
X0105449454Y0072142338D01*
X0105449453Y0072142341D01*
X0105448860Y0072149636D01*
X0105446604Y0072156600D01*
X0105445416Y0072162539D01*
X0105444030Y0072168410D01*
X0105443182Y0072175681D01*
X0105440686Y0072182557D01*
X0105440684Y0072182566D01*
X0105418275Y0072244298D01*
X0105416865Y0072248402D01*
X0105394352Y0072317899D01*
X0105390556Y0072324154D01*
X0105388057Y0072329613D01*
X0105385329Y0072335061D01*
X0105382833Y0072341937D01*
X0105342805Y0072402990D01*
X0105340481Y0072406673D01*
X0105305504Y0072464314D01*
X0105305500Y0072464317D01*
X0105302595Y0072469107D01*
X0105295197Y0072477483D01*
X0105295223Y0072477507D01*
X0105292578Y0072480489D01*
X0105289872Y0072483725D01*
X0105285856Y0072489852D01*
X0105229598Y0072543146D01*
X0105227157Y0072545523D01*
X0103983770Y0073788911D01*
X0103971384Y0073803323D01*
X0103962851Y0073814918D01*
X0103962846Y0073814923D01*
X0103958508Y0073820818D01*
X0103952930Y0073825557D01*
X0103952926Y0073825560D01*
X0103918231Y0073855035D01*
X0103910716Y0073861965D01*
X0103905021Y0073867660D01*
X0103898879Y0073872518D01*
X0103882748Y0073885280D01*
X0103879345Y0073888072D01*
X0103829297Y0073930591D01*
X0103829295Y0073930591D01*
X0103823715Y0073935333D01*
X0103817198Y0073938661D01*
X0103812150Y0073942028D01*
X0103807020Y0073945195D01*
X0103801284Y0073949734D01*
X0103735125Y0073980655D01*
X0103731225Y0073982561D01*
X0103666192Y0074015769D01*
X0103659084Y0074017507D01*
X0103653440Y0074019607D01*
X0103647678Y0074021524D01*
X0103641050Y0074024622D01*
X0103569583Y0074039487D01*
X0103565299Y0074040457D01*
X0103494390Y0074057808D01*
X0103488788Y0074058156D01*
X0103488785Y0074058156D01*
X0103483236Y0074058500D01*
X0103483238Y0074058536D01*
X0103479244Y0074058775D01*
X0103475053Y0074059148D01*
X0103467885Y0074060640D01*
X0103401675Y0074058849D01*
X0103390479Y0074058546D01*
X0103387071Y0074058500D01*
X0101677923Y0074058500D01*
X0101609802Y0074078502D01*
X0101563309Y0074132158D01*
X0101552660Y0074198107D01*
X0101558131Y0074248469D01*
X0101558500Y0074251866D01*
X0101558500Y0075348134D01*
X0101558341Y0075349600D01*
X0102366500Y0075349600D01*
X0102366837Y0075346353D01*
X0102366837Y0075346350D01*
X0102372492Y0075291852D01*
X0102377474Y0075243834D01*
X0102433450Y0075076054D01*
X0102526522Y0074925652D01*
X0102651697Y0074800694D01*
X0102657927Y0074796855D01*
X0102657928Y0074796854D01*
X0102795089Y0074712306D01*
X0102802262Y0074707885D01*
X0102882004Y0074681435D01*
X0102963610Y0074654368D01*
X0102963613Y0074654368D01*
X0102970138Y0074652203D01*
X0102976975Y0074651502D01*
X0102976978Y0074651502D01*
X0103020030Y0074647091D01*
X0103074600Y0074641500D01*
X0104125400Y0074641500D01*
X0104128646Y0074641837D01*
X0104128650Y0074641837D01*
X0104224308Y0074651761D01*
X0104224312Y0074651763D01*
X0104231166Y0074652474D01*
X0104237702Y0074654654D01*
X0104237704Y0074654654D01*
X0104369806Y0074698728D01*
X0104398946Y0074708450D01*
X0104549348Y0074801522D01*
X0104674305Y0074926696D01*
X0104767114Y0075077261D01*
X0104822797Y0075245139D01*
X0104823737Y0075254307D01*
X0104831311Y0075328237D01*
X0104833499Y0075349600D01*
X0104833499Y0075950400D01*
X0104831831Y0075966478D01*
X0104823238Y0076049308D01*
X0104823237Y0076049312D01*
X0104822526Y0076056165D01*
X0104815093Y0076078443D01*
X0104768868Y0076216997D01*
X0104766550Y0076223946D01*
X0104673477Y0076374348D01*
X0104548303Y0076499305D01*
X0104543765Y0076502102D01*
X0104503176Y0076559353D01*
X0104499946Y0076630276D01*
X0104535572Y0076691687D01*
X0104544068Y0076699062D01*
X0104554206Y0076707098D01*
X0104668738Y0076821829D01*
X0104677751Y0076833240D01*
X0104762815Y0076971243D01*
X0104768963Y0076984423D01*
X0104820137Y0077138710D01*
X0104823005Y0077152086D01*
X0104832672Y0077246438D01*
X0104833000Y0077252854D01*
X0104833000Y0077277885D01*
X0104828525Y0077293124D01*
X0104827135Y0077294329D01*
X0104819452Y0077295999D01*
X0102385116Y0077295999D01*
X0102369877Y0077291525D01*
X0102368672Y0077290134D01*
X0102367000Y0077282452D01*
X0102367000Y0077252905D01*
X0102367337Y0077246386D01*
X0102377256Y0077150793D01*
X0102380148Y0077137400D01*
X0102431588Y0076983216D01*
X0102437761Y0076970038D01*
X0102523063Y0076832192D01*
X0102532098Y0076820792D01*
X0102646828Y0076706262D01*
X0102655762Y0076699206D01*
X0102696823Y0076641288D01*
X0102700053Y0076570365D01*
X0102664425Y0076508954D01*
X0102656592Y0076502153D01*
X0102650652Y0076498478D01*
X0102525695Y0076373303D01*
X0102521854Y0076367073D01*
X0102521853Y0076367072D01*
X0102453690Y0076256489D01*
X0102432885Y0076222738D01*
X0102377203Y0076054861D01*
X0102366500Y0075950400D01*
X0102366500Y0075349600D01*
X0101558341Y0075349600D01*
X0101551745Y0075410316D01*
X0101500615Y0075546705D01*
X0101413261Y0075663261D01*
X0101296705Y0075750615D01*
X0101188133Y0075791316D01*
X0101131369Y0075833959D01*
X0101106669Y0075900520D01*
X0101123244Y0075972298D01*
X0101181222Y0076072721D01*
X0101181223Y0076072722D01*
X0101184527Y0076078443D01*
X0101243541Y0076260072D01*
X0101256097Y0076379521D01*
X0101262813Y0076443435D01*
X0101263504Y0076450000D01*
X0101262813Y0076456565D01*
X0101244232Y0076633365D01*
X0101244232Y0076633367D01*
X0101243541Y0076639928D01*
X0101184527Y0076821556D01*
X0101170707Y0076845493D01*
X0101153967Y0076914488D01*
X0101177188Y0076981580D01*
X0101235595Y0077026476D01*
X0101288295Y0077046232D01*
X0101288296Y0077046233D01*
X0101296705Y0077049385D01*
X0101413261Y0077136739D01*
X0101500615Y0077253295D01*
X0101551745Y0077389684D01*
X0101558500Y0077451866D01*
X0101558500Y0077822115D01*
X0102366999Y0077822115D01*
X0102371475Y0077806876D01*
X0102372864Y0077805670D01*
X0102380548Y0077804000D01*
X0103327885Y0077804000D01*
X0103343123Y0077808475D01*
X0103344328Y0077809865D01*
X0103346000Y0077817548D01*
X0103346000Y0077822115D01*
X0103854000Y0077822115D01*
X0103858475Y0077806876D01*
X0103859865Y0077805670D01*
X0103867548Y0077804000D01*
X0104814884Y0077804000D01*
X0104830122Y0077808475D01*
X0104831328Y0077809865D01*
X0104832999Y0077817548D01*
X0104832999Y0077847095D01*
X0104832662Y0077853614D01*
X0104822743Y0077949206D01*
X0104819851Y0077962600D01*
X0104768412Y0078116784D01*
X0104762239Y0078129962D01*
X0104676937Y0078267807D01*
X0104667901Y0078279208D01*
X0104553170Y0078393739D01*
X0104541760Y0078402751D01*
X0104403757Y0078487816D01*
X0104390576Y0078493963D01*
X0104236290Y0078545138D01*
X0104222914Y0078548005D01*
X0104128561Y0078557672D01*
X0104122144Y0078558000D01*
X0103872115Y0078558000D01*
X0103856876Y0078553525D01*
X0103855671Y0078552135D01*
X0103854000Y0078544452D01*
X0103854000Y0077822115D01*
X0103346000Y0077822115D01*
X0103346000Y0078539884D01*
X0103341524Y0078555123D01*
X0103340135Y0078556328D01*
X0103332451Y0078557999D01*
X0103077904Y0078557999D01*
X0103071385Y0078557662D01*
X0102975794Y0078547743D01*
X0102962400Y0078544851D01*
X0102808215Y0078493412D01*
X0102795038Y0078487239D01*
X0102657193Y0078401937D01*
X0102645792Y0078392901D01*
X0102531261Y0078278171D01*
X0102522248Y0078266760D01*
X0102437184Y0078128757D01*
X0102431037Y0078115576D01*
X0102379862Y0077961289D01*
X0102376995Y0077947914D01*
X0102367327Y0077853562D01*
X0102366999Y0077847145D01*
X0102366999Y0077822115D01*
X0101558500Y0077822115D01*
X0101558500Y0078548134D01*
X0101551745Y0078610316D01*
X0101500615Y0078746704D01*
X0101413261Y0078863261D01*
X0101296705Y0078950615D01*
X0101160316Y0079001745D01*
X0101098133Y0079008500D01*
X0099501866Y0079008500D01*
X0099439684Y0079001745D01*
X0099303294Y0078950615D01*
X0099186738Y0078863261D01*
X0099099385Y0078746704D01*
X0099048255Y0078610316D01*
X0099041500Y0078548134D01*
X0099041500Y0077451866D01*
X0099048255Y0077389684D01*
X0099099385Y0077253295D01*
X0099186738Y0077136739D01*
X0099303294Y0077049385D01*
X0099433051Y0077000742D01*
X0099433052Y0077000741D01*
X0099439684Y0076998255D01*
X0099439281Y0076997182D01*
X0099494383Y0076965699D01*
X0099527200Y0076902743D01*
X0099518699Y0076827144D01*
X0099515472Y0076821556D01*
X0099456458Y0076639928D01*
X0099455768Y0076633367D01*
X0099455768Y0076633365D01*
X0099437186Y0076456565D01*
X0099436496Y0076450000D01*
X0099437186Y0076443435D01*
X0099443904Y0076379521D01*
X0099456458Y0076260072D01*
X0099515472Y0076078443D01*
X0099518776Y0076072722D01*
X0099518777Y0076072721D01*
X0099564682Y0075993211D01*
X0099581420Y0075924215D01*
X0099558199Y0075857124D01*
X0099502391Y0075813237D01*
X0099469170Y0075804948D01*
X0099439684Y0075801745D01*
X0099303294Y0075750615D01*
X0099186738Y0075663261D01*
X0099141316Y0075602655D01*
X0099108551Y0075558934D01*
X0099051692Y0075516420D01*
X0099007725Y0075508500D01*
X0098392586Y0075508500D01*
X0098318527Y0075532563D01*
X0098312097Y0075537235D01*
X0098312091Y0075537239D01*
X0098306751Y0075541118D01*
X0098300724Y0075543802D01*
X0098300722Y0075543803D01*
X0098138319Y0075616109D01*
X0098138318Y0075616109D01*
X0098132287Y0075618794D01*
X0098038887Y0075638646D01*
X0097951944Y0075657128D01*
X0097951939Y0075657128D01*
X0097945487Y0075658500D01*
X0097754513Y0075658500D01*
X0097748061Y0075657128D01*
X0097748056Y0075657128D01*
X0097661112Y0075638646D01*
X0097567712Y0075618794D01*
X0097561682Y0075616109D01*
X0097561681Y0075616109D01*
X0097399278Y0075543803D01*
X0097399276Y0075543802D01*
X0097393248Y0075541118D01*
X0097387907Y0075537238D01*
X0097387906Y0075537237D01*
X0097372319Y0075525912D01*
X0097238747Y0075428866D01*
X0097234326Y0075423956D01*
X0097234325Y0075423955D01*
X0097167376Y0075349600D01*
X0097110960Y0075286944D01*
X0097015473Y0075121556D01*
X0096956458Y0074939928D01*
X0096955768Y0074933367D01*
X0096955768Y0074933365D01*
X0096954523Y0074921517D01*
X0096936496Y0074750000D01*
X0096956458Y0074560071D01*
X0097015473Y0074378444D01*
X0097090515Y0074248469D01*
X0097091074Y0074247500D01*
X0097107812Y0074178505D01*
X0097084592Y0074111413D01*
X0097028785Y0074067526D01*
X0096981955Y0074058500D01*
X0096966371Y0074058500D01*
X0096898250Y0074078502D01*
X0096877276Y0074095405D01*
X0096695405Y0074277276D01*
X0096661379Y0074339587D01*
X0096658500Y0074366371D01*
X0096658500Y0075348134D01*
X0096651745Y0075410316D01*
X0096600615Y0075546705D01*
X0096513261Y0075663261D01*
X0096396705Y0075750615D01*
X0096260316Y0075801745D01*
X0096198134Y0075808500D01*
X0094601866Y0075808500D01*
X0094539684Y0075801745D01*
X0094403295Y0075750615D01*
X0094286739Y0075663261D01*
X0094199385Y0075546705D01*
X0094148255Y0075410316D01*
X0094141500Y0075348134D01*
X0094141500Y0074251866D01*
X0094148255Y0074189684D01*
X0094199385Y0074053294D01*
X0094286739Y0073936739D01*
X0094403295Y0073849385D01*
X0094539684Y0073798255D01*
X0094601866Y0073791500D01*
X0094983629Y0073791500D01*
X0095051750Y0073771498D01*
X0095072724Y0073754595D01*
X0096016230Y0072811089D01*
X0096028616Y0072796677D01*
X0096037149Y0072785082D01*
X0096037154Y0072785077D01*
X0096041492Y0072779181D01*
X0096047070Y0072774442D01*
X0096047073Y0072774440D01*
X0096081768Y0072744965D01*
X0096089284Y0072738035D01*
X0096094979Y0072732340D01*
X0096097861Y0072730060D01*
X0096117251Y0072714719D01*
X0096120655Y0072711928D01*
X0096170703Y0072669409D01*
X0096176285Y0072664667D01*
X0096182801Y0072661339D01*
X0096187850Y0072657972D01*
X0096192979Y0072654805D01*
X0096198716Y0072650266D01*
X0096264875Y0072619345D01*
X0096268769Y0072617442D01*
X0096333808Y0072584231D01*
X0096340916Y0072582492D01*
X0096346559Y0072580393D01*
X0096352322Y0072578476D01*
X0096358950Y0072575378D01*
X0096366112Y0072573888D01*
X0096366113Y0072573888D01*
X0096430412Y0072560514D01*
X0096434696Y0072559544D01*
X0096505610Y0072542192D01*
X0096511212Y0072541844D01*
X0096511215Y0072541844D01*
X0096516764Y0072541500D01*
X0096516762Y0072541463D01*
X0096520755Y0072541225D01*
X0096524947Y0072540851D01*
X0096532115Y0072539360D01*
X0096609520Y0072541454D01*
X0096612928Y0072541500D01*
X0103033628Y0072541500D01*
X0103101750Y0072521498D01*
X0103122724Y0072504595D01*
X0103904595Y0071722724D01*
X0103938621Y0071660412D01*
X0103941499Y0071633629D01*
X0103941499Y0050967070D01*
X0103940067Y0050948120D01*
X0103939830Y0050946558D01*
X0103936801Y0050926651D01*
X0103937394Y0050919359D01*
X0103937394Y0050919355D01*
X0103941084Y0050873982D01*
X0103941499Y0050863766D01*
X0103941499Y0050855706D01*
X0103941925Y0050852063D01*
X0103944788Y0050827493D01*
X0103945222Y0050823117D01*
X0103949486Y0050770703D01*
X0103951140Y0050750362D01*
X0103953396Y0050743399D01*
X0103954587Y0050737440D01*
X0103955971Y0050731584D01*
X0103956818Y0050724318D01*
X0103981734Y0050655672D01*
X0103983151Y0050651545D01*
X0104005649Y0050582100D01*
X0104009445Y0050575846D01*
X0104011951Y0050570372D01*
X0104014670Y0050564942D01*
X0104017167Y0050558063D01*
X0104021179Y0050551942D01*
X0104021179Y0050551942D01*
X0104057186Y0050497023D01*
X0104059523Y0050493320D01*
X0104097405Y0050430893D01*
X0104101121Y0050426685D01*
X0104101122Y0050426683D01*
X0104104803Y0050422516D01*
X0104104775Y0050422492D01*
X0104107429Y0050419500D01*
X0104110132Y0050416267D01*
X0104114144Y0050410148D01*
X0104119456Y0050405116D01*
X0104170382Y0050356871D01*
X0104172824Y0050354494D01*
X0107316229Y0047211089D01*
X0107328616Y0047196676D01*
X0107337149Y0047185081D01*
X0107337154Y0047185077D01*
X0107341491Y0047179182D01*
X0107347070Y0047174443D01*
X0107347073Y0047174440D01*
X0107381768Y0047144965D01*
X0107389284Y0047138035D01*
X0107394979Y0047132340D01*
X0107397861Y0047130060D01*
X0107417251Y0047114718D01*
X0107420655Y0047111928D01*
X0107470702Y0047069408D01*
X0107476284Y0047064667D01*
X0107482801Y0047061339D01*
X0107487850Y0047057972D01*
X0107492978Y0047054805D01*
X0107498716Y0047050265D01*
X0107564875Y0047019345D01*
X0107568769Y0047017442D01*
X0107633807Y0046984230D01*
X0107640916Y0046982491D01*
X0107646559Y0046980393D01*
X0107652322Y0046978476D01*
X0107658950Y0046975378D01*
X0107666112Y0046973888D01*
X0107666113Y0046973888D01*
X0107730412Y0046960514D01*
X0107734696Y0046959543D01*
X0107805610Y0046942192D01*
X0107811212Y0046941844D01*
X0107811215Y0046941844D01*
X0107816764Y0046941500D01*
X0107816762Y0046941464D01*
X0107820754Y0046941225D01*
X0107824947Y0046940850D01*
X0107832114Y0046939359D01*
X0107909519Y0046941453D01*
X0107912928Y0046941500D01*
X0112132929Y0046941500D01*
X0112151880Y0046940067D01*
X0112166114Y0046937901D01*
X0112166119Y0046937901D01*
X0112173349Y0046936801D01*
X0112180641Y0046937394D01*
X0112180644Y0046937394D01*
X0112226018Y0046941085D01*
X0112236233Y0046941500D01*
X0112244293Y0046941500D01*
X0112261680Y0046943527D01*
X0112272506Y0046944789D01*
X0112276882Y0046945222D01*
X0112342339Y0046950546D01*
X0112342342Y0046950547D01*
X0112349637Y0046951139D01*
X0112356601Y0046953396D01*
X0112362560Y0046954587D01*
X0112368415Y0046955971D01*
X0112375680Y0046956818D01*
X0112444326Y0046981735D01*
X0112448455Y0046983152D01*
X0112510935Y0047003393D01*
X0112510938Y0047003394D01*
X0112517899Y0047005649D01*
X0112524154Y0047009445D01*
X0112529628Y0047011950D01*
X0112535057Y0047014669D01*
X0112541936Y0047017167D01*
X0112559137Y0047028443D01*
X0112602976Y0047057186D01*
X0112606680Y0047059523D01*
X0112669107Y0047097404D01*
X0112677484Y0047104803D01*
X0112677507Y0047104776D01*
X0112680500Y0047107428D01*
X0112683732Y0047110131D01*
X0112689852Y0047114143D01*
X0112743128Y0047170383D01*
X0112745506Y0047172825D01*
X0113972281Y0048399600D01*
X0117816499Y0048399600D01*
X0117816836Y0048396354D01*
X0117816836Y0048396350D01*
X0117826095Y0048307128D01*
X0117827474Y0048293834D01*
X0117829655Y0048287298D01*
X0117829655Y0048287296D01*
X0117850411Y0048225083D01*
X0117883450Y0048126054D01*
X0117976521Y0047975652D01*
X0117981704Y0047970479D01*
X0118027143Y0047925118D01*
X0118101697Y0047850695D01*
X0118107926Y0047846855D01*
X0118107927Y0047846853D01*
X0118245090Y0047762305D01*
X0118252262Y0047757885D01*
X0118332005Y0047731436D01*
X0118413611Y0047704368D01*
X0118413613Y0047704368D01*
X0118420139Y0047702203D01*
X0118426975Y0047701503D01*
X0118426977Y0047701502D01*
X0118470031Y0047697091D01*
X0118524599Y0047691500D01*
X0119575400Y0047691500D01*
X0119578645Y0047691837D01*
X0119578650Y0047691837D01*
X0119674308Y0047701762D01*
X0119674311Y0047701763D01*
X0119681165Y0047702473D01*
X0119687702Y0047704655D01*
X0119687704Y0047704655D01*
X0119819806Y0047748728D01*
X0119848946Y0047758450D01*
X0119999348Y0047851522D01*
X0120124305Y0047976697D01*
X0120139613Y0048001531D01*
X0120213275Y0048121032D01*
X0120213276Y0048121033D01*
X0120217115Y0048127262D01*
X0120264059Y0048268794D01*
X0120270632Y0048288611D01*
X0120270632Y0048288613D01*
X0120272797Y0048295139D01*
X0120274025Y0048307128D01*
X0120277909Y0048345031D01*
X0120283500Y0048399600D01*
X0120283500Y0049000400D01*
X0120278354Y0049050000D01*
X0120273237Y0049099307D01*
X0120273237Y0049099312D01*
X0120272526Y0049106166D01*
X0120216550Y0049273945D01*
X0120123478Y0049424347D01*
X0119998303Y0049549305D01*
X0119993765Y0049552102D01*
X0119953176Y0049609353D01*
X0119949946Y0049680276D01*
X0119985571Y0049741687D01*
X0119994068Y0049749061D01*
X0120004207Y0049757098D01*
X0120118739Y0049871829D01*
X0120127750Y0049883240D01*
X0120212816Y0050021243D01*
X0120218963Y0050034424D01*
X0120270138Y0050188710D01*
X0120273005Y0050202085D01*
X0120282671Y0050296437D01*
X0120282999Y0050302854D01*
X0120282999Y0050327884D01*
X0120278525Y0050343124D01*
X0120277134Y0050344329D01*
X0120269452Y0050346000D01*
X0117835116Y0050346000D01*
X0117819876Y0050341525D01*
X0117818671Y0050340135D01*
X0117817001Y0050332452D01*
X0117817001Y0050302904D01*
X0117817338Y0050296386D01*
X0117827257Y0050200794D01*
X0117830149Y0050187400D01*
X0117881588Y0050033215D01*
X0117887761Y0050020038D01*
X0117973063Y0049882193D01*
X0117982099Y0049870791D01*
X0118096827Y0049756262D01*
X0118105762Y0049749206D01*
X0118146823Y0049691288D01*
X0118150053Y0049620365D01*
X0118114426Y0049558954D01*
X0118106593Y0049552154D01*
X0118100652Y0049548478D01*
X0117975695Y0049423303D01*
X0117882884Y0049272738D01*
X0117827203Y0049104861D01*
X0117816499Y0049000400D01*
X0117816499Y0048399600D01*
X0113972281Y0048399600D01*
X0116444796Y0050872114D01*
X0117817000Y0050872114D01*
X0117821474Y0050856876D01*
X0117822865Y0050855671D01*
X0117830548Y0050854000D01*
X0118777885Y0050854000D01*
X0118793124Y0050858475D01*
X0118794329Y0050859865D01*
X0118795999Y0050867548D01*
X0118795999Y0050872114D01*
X0119304000Y0050872114D01*
X0119308474Y0050856876D01*
X0119309865Y0050855671D01*
X0119317547Y0050854000D01*
X0120264884Y0050854000D01*
X0120280123Y0050858475D01*
X0120281328Y0050859865D01*
X0120282998Y0050867548D01*
X0120282998Y0050897094D01*
X0120282661Y0050903614D01*
X0120280742Y0050922115D01*
X0120991999Y0050922115D01*
X0120996475Y0050906876D01*
X0120997864Y0050905671D01*
X0121005548Y0050904000D01*
X0121977884Y0050904000D01*
X0121993124Y0050908474D01*
X0121994329Y0050909865D01*
X0121996000Y0050917548D01*
X0121996000Y0050922115D01*
X0122503999Y0050922115D01*
X0122508475Y0050906876D01*
X0122509864Y0050905671D01*
X0122517548Y0050904000D01*
X0123489883Y0050904000D01*
X0123505123Y0050908474D01*
X0123506328Y0050909865D01*
X0123507999Y0050917548D01*
X0123507999Y0051194669D01*
X0123507629Y0051201490D01*
X0123502105Y0051252352D01*
X0123498479Y0051267604D01*
X0123453324Y0051388054D01*
X0123444786Y0051403649D01*
X0123368284Y0051505724D01*
X0123355724Y0051518285D01*
X0123253649Y0051594786D01*
X0123238054Y0051603324D01*
X0123117606Y0051648478D01*
X0123102351Y0051652105D01*
X0123051486Y0051657630D01*
X0123044671Y0051658000D01*
X0122522115Y0051658000D01*
X0122506876Y0051653525D01*
X0122505671Y0051652135D01*
X0122503999Y0051644452D01*
X0122503999Y0050922115D01*
X0121996000Y0050922115D01*
X0121996000Y0051639883D01*
X0121991525Y0051655123D01*
X0121990135Y0051656328D01*
X0121982452Y0051657999D01*
X0121455331Y0051657999D01*
X0121448510Y0051657629D01*
X0121397648Y0051652105D01*
X0121382396Y0051648478D01*
X0121261946Y0051603324D01*
X0121246351Y0051594786D01*
X0121144275Y0051518285D01*
X0121131715Y0051505724D01*
X0121055214Y0051403649D01*
X0121046675Y0051388054D01*
X0121001522Y0051267606D01*
X0120997895Y0051252351D01*
X0120992369Y0051201486D01*
X0120991999Y0051194672D01*
X0120991999Y0050922115D01*
X0120280742Y0050922115D01*
X0120272742Y0050999206D01*
X0120269850Y0051012600D01*
X0120218412Y0051166784D01*
X0120212239Y0051179962D01*
X0120126937Y0051317807D01*
X0120117900Y0051329207D01*
X0120003171Y0051443738D01*
X0119991760Y0051452751D01*
X0119853757Y0051537816D01*
X0119840576Y0051543963D01*
X0119686290Y0051595138D01*
X0119672913Y0051598005D01*
X0119578562Y0051607671D01*
X0119572145Y0051608000D01*
X0119322115Y0051608000D01*
X0119306875Y0051603525D01*
X0119305670Y0051602135D01*
X0119304000Y0051594452D01*
X0119304000Y0050872114D01*
X0118795999Y0050872114D01*
X0118795999Y0051589884D01*
X0118791525Y0051605123D01*
X0118790134Y0051606328D01*
X0118782452Y0051607999D01*
X0118527905Y0051607999D01*
X0118521386Y0051607662D01*
X0118425794Y0051597742D01*
X0118412399Y0051594851D01*
X0118258216Y0051543412D01*
X0118245038Y0051537239D01*
X0118107193Y0051451937D01*
X0118095791Y0051442901D01*
X0117981260Y0051328171D01*
X0117972249Y0051316760D01*
X0117887183Y0051178757D01*
X0117881036Y0051165576D01*
X0117829861Y0051011290D01*
X0117826995Y0050997913D01*
X0117817328Y0050903561D01*
X0117817000Y0050897144D01*
X0117817000Y0050872114D01*
X0116444796Y0050872114D01*
X0118827276Y0053254594D01*
X0118889588Y0053288621D01*
X0118916371Y0053291500D01*
X0122633629Y0053291500D01*
X0122701750Y0053271497D01*
X0122722724Y0053254594D01*
X0125816229Y0050161089D01*
X0125828616Y0050146677D01*
X0125837149Y0050135082D01*
X0125837154Y0050135076D01*
X0125841491Y0050129182D01*
X0125847071Y0050124443D01*
X0125847073Y0050124438D01*
X0125855773Y0050117048D01*
X0125894736Y0050057700D01*
X0125896775Y0050050171D01*
X0125897402Y0050047540D01*
X0125898255Y0050039683D01*
X0125949385Y0049903295D01*
X0126036739Y0049786739D01*
X0126153295Y0049699385D01*
X0126289684Y0049648255D01*
X0126351866Y0049641499D01*
X0127948134Y0049641499D01*
X0128010315Y0049648255D01*
X0128146705Y0049699385D01*
X0128263261Y0049786739D01*
X0128350615Y0049903295D01*
X0128401745Y0050039683D01*
X0128408500Y0050101866D01*
X0128408500Y0051069230D01*
X0128428502Y0051137350D01*
X0128482158Y0051183843D01*
X0128552432Y0051193948D01*
X0128618080Y0051163518D01*
X0129333463Y0050529374D01*
X0129334162Y0050528791D01*
X0129334166Y0050528788D01*
X0130269470Y0049748144D01*
X0130269487Y0049748131D01*
X0130270175Y0049747556D01*
X0131229736Y0048993959D01*
X0131230503Y0048993393D01*
X0131230504Y0048993392D01*
X0132210528Y0048269819D01*
X0132210550Y0048269802D01*
X0132211298Y0048269251D01*
X0132480301Y0048082749D01*
X0132483680Y0048080406D01*
X0132528265Y0048025155D01*
X0132535902Y0047954570D01*
X0132504166Y0047891062D01*
X0132483608Y0047873260D01*
X0131793444Y0047395473D01*
X0131789378Y0047392774D01*
X0131067629Y0046933424D01*
X0131063493Y0046930904D01*
X0130907105Y0046839684D01*
X0130324506Y0046499860D01*
X0130320243Y0046497483D01*
X0129565140Y0046095398D01*
X0129560788Y0046093187D01*
X0128790648Y0045720636D01*
X0128786214Y0045718596D01*
X0128479541Y0045584643D01*
X0128002225Y0045376155D01*
X0127997740Y0045374297D01*
X0127201034Y0045062462D01*
X0127196492Y0045060785D01*
X0126388339Y0044780054D01*
X0126383731Y0044778552D01*
X0125565336Y0044529340D01*
X0125560645Y0044528009D01*
X0125410864Y0044488669D01*
X0124733169Y0044310671D01*
X0124728423Y0044309523D01*
X0123893210Y0044124410D01*
X0123888425Y0044123447D01*
X0123046618Y0043970814D01*
X0123041815Y0043970039D01*
X0122227193Y0043854720D01*
X0122194775Y0043850131D01*
X0122189929Y0043849540D01*
X0121338843Y0043762527D01*
X0121333979Y0043762125D01*
X0120976651Y0043739532D01*
X0120540241Y0043711940D01*
X0120528125Y0043711788D01*
X0120519505Y0043713358D01*
X0120510577Y0043712424D01*
X0120501614Y0043712764D01*
X0120492708Y0043712483D01*
X0120483792Y0043713474D01*
X0120433782Y0043704694D01*
X0120425121Y0043703481D01*
X0120374639Y0043698199D01*
X0120366330Y0043694795D01*
X0120357657Y0043692612D01*
X0120349174Y0043689839D01*
X0120340329Y0043688286D01*
X0120332277Y0043684314D01*
X0120332275Y0043684313D01*
X0120294800Y0043665825D01*
X0120286820Y0043662228D01*
X0120239848Y0043642989D01*
X0120232831Y0043637392D01*
X0120225123Y0043632864D01*
X0120217748Y0043627814D01*
X0120209701Y0043623844D01*
X0120203093Y0043617777D01*
X0120203092Y0043617776D01*
X0120172309Y0043589512D01*
X0120165658Y0043583817D01*
X0120125974Y0043552167D01*
X0120120810Y0043544827D01*
X0120114676Y0043538312D01*
X0120109024Y0043531403D01*
X0120102409Y0043525330D01*
X0120076146Y0043481864D01*
X0120071373Y0043474553D01*
X0120047329Y0043440377D01*
X0120047327Y0043440372D01*
X0120042166Y0043433035D01*
X0120039271Y0043424544D01*
X0120035214Y0043416573D01*
X0120031722Y0043408343D01*
X0120027082Y0043400664D01*
X0120024783Y0043391990D01*
X0120024783Y0043391988D01*
X0120014079Y0043351595D01*
X0120011549Y0043343232D01*
X0119995162Y0043295170D01*
X0119994768Y0043286199D01*
X0119993113Y0043277423D01*
X0119992071Y0043268546D01*
X0119989770Y0043259867D01*
X0119989999Y0043250895D01*
X0119989999Y0043250891D01*
X0119991062Y0043209130D01*
X0119990981Y0043200373D01*
X0119988744Y0043149654D01*
X0119990882Y0043140933D01*
X0119991757Y0043132045D01*
X0119993248Y0043123234D01*
X0119993477Y0043114255D01*
X0119996217Y0043105700D01*
X0120008958Y0043065915D01*
X0120011338Y0043057485D01*
X0120023424Y0043008185D01*
X0120028253Y0042996598D01*
X0120029958Y0042993813D01*
X0120030600Y0042992473D01*
X0120037175Y0042977807D01*
X0120037902Y0042975539D01*
X0120038677Y0042974391D01*
X0120038703Y0042974234D01*
X0120038763Y0042974262D01*
X0120565461Y0041799477D01*
X0121136473Y0040618115D01*
X0121741233Y0039453666D01*
X0122379241Y0038307098D01*
X0123049968Y0037179357D01*
X0123752859Y0036071380D01*
X0123753332Y0036070679D01*
X0123753341Y0036070666D01*
X0123794189Y0036010194D01*
X0124487333Y0034984080D01*
X0125252782Y0033918358D01*
X0126048571Y0032875097D01*
X0126874043Y0031855163D01*
X0126874604Y0031854510D01*
X0126874630Y0031854478D01*
X0127200543Y0031474672D01*
X0127728513Y0030859395D01*
X0127729116Y0030858733D01*
X0127729131Y0030858716D01*
X0127786689Y0030795419D01*
X0128611277Y0029888621D01*
X0128611906Y0029887968D01*
X0128611907Y0029887967D01*
X0128828612Y0029663013D01*
X0129521601Y0028943642D01*
X0130458732Y0028025243D01*
X0131421896Y0027134182D01*
X0131422572Y0027133593D01*
X0131422594Y0027133573D01*
X0132409589Y0026271812D01*
X0132409611Y0026271794D01*
X0132410294Y0026271198D01*
X0133423108Y0025437004D01*
X0134459501Y0024632290D01*
X0134460226Y0024631760D01*
X0134460235Y0024631754D01*
X0134529715Y0024580940D01*
X0135518615Y0023857726D01*
X0136599572Y0023113947D01*
X0136600333Y0023113456D01*
X0136600348Y0023113445D01*
X0136978675Y0022868860D01*
X0137701478Y0022401574D01*
X0138823421Y0021721194D01*
X0139964472Y0021073372D01*
X0139965276Y0021072945D01*
X0139965279Y0021072944D01*
X0140021561Y0021043098D01*
X0141123688Y0020458641D01*
X0141124485Y0020458247D01*
X0141124509Y0020458236D01*
X0141887516Y0020081325D01*
X0142300107Y0019877512D01*
X0142541840Y0019766634D01*
X0142565630Y0019755723D01*
X0142619209Y0019709142D01*
X0142639099Y0019640987D01*
X0142618984Y0019572901D01*
X0142593437Y0019544129D01*
X0142570768Y0019525368D01*
X0142532301Y0019493531D01*
X0142529049Y0019490928D01*
X0141671205Y0018827459D01*
X0141667869Y0018824966D01*
X0140788573Y0018190219D01*
X0140785156Y0018187838D01*
X0140772145Y0018179085D01*
X0139885332Y0017582483D01*
X0139881886Y0017580246D01*
X0139303768Y0017218486D01*
X0138962514Y0017004946D01*
X0138958956Y0017002801D01*
X0138943623Y0016993898D01*
X0138021140Y0016458243D01*
X0138017504Y0016456211D01*
X0137062181Y0015942938D01*
X0137058482Y0015941029D01*
X0136845022Y0015835280D01*
X0136086715Y0015459614D01*
X0136082953Y0015457826D01*
X0135095806Y0015008795D01*
X0135091986Y0015007132D01*
X0135077851Y0015001259D01*
X0134095717Y0014593127D01*
X0134090526Y0014590970D01*
X0134086660Y0014589438D01*
X0133072003Y0014206609D01*
X0133068108Y0014205213D01*
X0132041305Y0013856115D01*
X0132037383Y0013854854D01*
X0130999620Y0013539891D01*
X0130995674Y0013538764D01*
X0129948046Y0013258270D01*
X0129944045Y0013257270D01*
X0128887701Y0013011551D01*
X0128883683Y0013010688D01*
X0128238269Y0012882885D01*
X0127819868Y0012800034D01*
X0127815768Y0012799293D01*
X0127077968Y0012678387D01*
X0126745530Y0012623911D01*
X0126741424Y0012623307D01*
X0126434886Y0012583428D01*
X0125666022Y0012483402D01*
X0125661882Y0012482934D01*
X0125215815Y0012439840D01*
X0124582409Y0012378647D01*
X0124578312Y0012378320D01*
X0124029048Y0012343532D01*
X0123495992Y0012309771D01*
X0123491830Y0012309577D01*
X0122533504Y0012280636D01*
X0122407806Y0012276840D01*
X0122403650Y0012276784D01*
X0121828541Y0012278434D01*
X0121319228Y0012279894D01*
X0121315063Y0012279974D01*
X0120231248Y0012318931D01*
X0120227088Y0012319149D01*
X0119145235Y0012393904D01*
X0119141085Y0012394259D01*
X0118780282Y0012431206D01*
X0118117224Y0012499105D01*
X0118095597Y0012503595D01*
X0118092946Y0012504036D01*
X0118084394Y0012506749D01*
X0118075695Y0012506947D01*
X0118075377Y0012506996D01*
X0118067001Y0012509341D01*
X0118042536Y0012509061D01*
X0118005025Y0012508632D01*
X0118000715Y0012508657D01*
X0117968584Y0012509388D01*
X0117938773Y0012510068D01*
X0117930372Y0012507817D01*
X0117930050Y0012507773D01*
X0117921353Y0012507673D01*
X0117912767Y0012505055D01*
X0117912766Y0012505055D01*
X0117862057Y0012489596D01*
X0117857914Y0012488410D01*
X0117798076Y0012472380D01*
X0117790651Y0012467867D01*
X0117790341Y0012467729D01*
X0117782027Y0012465193D01*
X0117730180Y0012431195D01*
X0117726570Y0012428914D01*
X0117701489Y0012413668D01*
X0117681282Y0012401385D01*
X0117681279Y0012401383D01*
X0117673610Y0012396721D01*
X0117667746Y0012390299D01*
X0117667493Y0012390085D01*
X0117660224Y0012385317D01*
X0117620004Y0012338133D01*
X0117617196Y0012334951D01*
X0117575382Y0012289168D01*
X0117571553Y0012281351D01*
X0117571378Y0012281085D01*
X0117565735Y0012274466D01*
X0117562063Y0012266272D01*
X0117540395Y0012217935D01*
X0117538569Y0012214039D01*
X0117511290Y0012158368D01*
X0117509808Y0012149794D01*
X0117509715Y0012149486D01*
X0117506157Y0012141551D01*
X0117504932Y0012132655D01*
X0117504931Y0012132654D01*
X0117497700Y0012080162D01*
X0117497038Y0012075901D01*
X0117486484Y0012014838D01*
X0117486276Y0012002287D01*
X0117486625Y0011999773D01*
X0117486278Y0011997255D01*
X0117487315Y0011990279D01*
X0117487462Y0011985901D01*
X0117489856Y0011617424D01*
X0117497218Y0010483992D01*
X0117497237Y0010483310D01*
X0117497238Y0010483275D01*
X0117539183Y0009006449D01*
X0117540324Y0008966283D01*
X0117616653Y0007449881D01*
X0117726168Y0005935513D01*
X0117868817Y0004423907D01*
X0117868898Y0004423215D01*
X0118016915Y0003152811D01*
X0118004931Y0003082834D01*
X0117957017Y0003030444D01*
X0117882776Y0003012551D01*
X0117878448Y0003012860D01*
X0117874000Y0003013499D01*
X0117816247Y0003013499D01*
X0117748126Y0003033501D01*
X0117722611Y0003055189D01*
X0117697721Y0003082834D01*
X0117611253Y0003178865D01*
X0117456752Y0003291117D01*
X0117450724Y0003293801D01*
X0117450722Y0003293802D01*
X0117288319Y0003366108D01*
X0117288318Y0003366108D01*
X0117282288Y0003368793D01*
X0117188887Y0003388647D01*
X0117101944Y0003407128D01*
X0117101938Y0003407128D01*
X0117095486Y0003408500D01*
X0116904513Y0003408500D01*
X0116898061Y0003407128D01*
X0116898056Y0003407128D01*
X0116811112Y0003388647D01*
X0116717712Y0003368793D01*
X0116711682Y0003366108D01*
X0116711681Y0003366108D01*
X0116549277Y0003293802D01*
X0116549275Y0003293801D01*
X0116543248Y0003291117D01*
X0116388747Y0003178865D01*
X0116302280Y0003082834D01*
X0116277389Y0003055189D01*
X0116216942Y0003017949D01*
X0116183753Y0003013499D01*
X0116126000Y0003013499D01*
X0116117220Y0003012556D01*
X0116047351Y0003025165D01*
X0115995392Y0003073545D01*
X0115978036Y0003129453D01*
X0115975069Y0003173955D01*
X0115400000Y0011799999D01*
X0114611806Y0011792547D01*
X0110435690Y0011753066D01*
X0110367383Y0011772423D01*
X0110320386Y0011825637D01*
X0110308500Y0011879059D01*
X0110308500Y0013982930D01*
X0110309933Y0014001881D01*
X0110312098Y0014016116D01*
X0110312098Y0014016119D01*
X0110313199Y0014023348D01*
X0110308915Y0014076018D01*
X0110308500Y0014086232D01*
X0110308500Y0014094292D01*
X0110305211Y0014122506D01*
X0110304778Y0014126881D01*
X0110299454Y0014192339D01*
X0110299453Y0014192341D01*
X0110298859Y0014199636D01*
X0110296604Y0014206601D01*
X0110295413Y0014212559D01*
X0110294029Y0014218414D01*
X0110293182Y0014225680D01*
X0110268265Y0014294326D01*
X0110266848Y0014298455D01*
X0110246607Y0014360935D01*
X0110246606Y0014360938D01*
X0110244351Y0014367898D01*
X0110240555Y0014374154D01*
X0110238048Y0014379627D01*
X0110235330Y0014385058D01*
X0110232833Y0014391936D01*
X0110192809Y0014452984D01*
X0110190472Y0014456688D01*
X0110155509Y0014514307D01*
X0110155505Y0014514312D01*
X0110152594Y0014519108D01*
X0110145197Y0014527484D01*
X0110145222Y0014527507D01*
X0110142574Y0014530496D01*
X0110139866Y0014533736D01*
X0110135855Y0014539851D01*
X0110130549Y0014544878D01*
X0110130546Y0014544882D01*
X0110079617Y0014593127D01*
X0110077175Y0014595506D01*
X0108933770Y0015738911D01*
X0108921383Y0015753322D01*
X0108912850Y0015764917D01*
X0108912846Y0015764922D01*
X0108908508Y0015770818D01*
X0108902930Y0015775557D01*
X0108902927Y0015775559D01*
X0108868232Y0015805035D01*
X0108860716Y0015811965D01*
X0108855021Y0015817660D01*
X0108848880Y0015822518D01*
X0108832749Y0015835280D01*
X0108829344Y0015838071D01*
X0108779297Y0015880590D01*
X0108779294Y0015880591D01*
X0108773715Y0015885333D01*
X0108767199Y0015888660D01*
X0108762149Y0015892027D01*
X0108757021Y0015895195D01*
X0108751284Y0015899733D01*
X0108685125Y0015930655D01*
X0108681225Y0015932561D01*
X0108679496Y0015933443D01*
X0108616192Y0015965768D01*
X0108609084Y0015967507D01*
X0108603441Y0015969606D01*
X0108597678Y0015971524D01*
X0108591050Y0015974621D01*
X0108519583Y0015989486D01*
X0108515299Y0015990457D01*
X0108444390Y0016007807D01*
X0108438787Y0016008156D01*
X0108438785Y0016008156D01*
X0108433236Y0016008499D01*
X0108433237Y0016008536D01*
X0108429245Y0016008775D01*
X0108425052Y0016009148D01*
X0108417885Y0016010639D01*
X0108351675Y0016008848D01*
X0108340478Y0016008545D01*
X0108337072Y0016008499D01*
X0088166371Y0016008499D01*
X0088098250Y0016028502D01*
X0088077276Y0016045405D01*
X0086904194Y0017218486D01*
X0086870168Y0017280799D01*
X0086875233Y0017351613D01*
X0086917780Y0017408450D01*
X0086984300Y0017433261D01*
X0087019486Y0017430829D01*
X0087198056Y0017392871D01*
X0087198061Y0017392871D01*
X0087204513Y0017391499D01*
X0087395487Y0017391499D01*
X0087401939Y0017392871D01*
X0087401944Y0017392871D01*
X0087488887Y0017411353D01*
X0087582288Y0017431206D01*
X0087588319Y0017433891D01*
X0087750722Y0017506197D01*
X0087750724Y0017506197D01*
X0087756752Y0017508882D01*
X0087787688Y0017531357D01*
X0087906163Y0017617435D01*
X0087973031Y0017641294D01*
X0087980224Y0017641499D01*
X0088295198Y0017641499D01*
X0088363319Y0017621498D01*
X0088396024Y0017591065D01*
X0088436739Y0017536738D01*
X0088553295Y0017449385D01*
X0088689684Y0017398255D01*
X0088751866Y0017391499D01*
X0090348134Y0017391499D01*
X0090410316Y0017398255D01*
X0090546705Y0017449385D01*
X0090663261Y0017536738D01*
X0090750615Y0017653295D01*
X0090801745Y0017789683D01*
X0090808500Y0017851866D01*
X0090808500Y0018899600D01*
X0091466500Y0018899600D01*
X0091466837Y0018896354D01*
X0091466837Y0018896350D01*
X0091475185Y0018815899D01*
X0091477474Y0018793834D01*
X0091533450Y0018626053D01*
X0091626522Y0018475651D01*
X0091751697Y0018350695D01*
X0091757927Y0018346855D01*
X0091757928Y0018346853D01*
X0091895090Y0018262305D01*
X0091902262Y0018257885D01*
X0091957426Y0018239587D01*
X0092063611Y0018204368D01*
X0092063613Y0018204368D01*
X0092070139Y0018202202D01*
X0092076975Y0018201503D01*
X0092076978Y0018201502D01*
X0092120031Y0018197091D01*
X0092174600Y0018191500D01*
X0093225400Y0018191500D01*
X0093228646Y0018191837D01*
X0093228650Y0018191837D01*
X0093324308Y0018201762D01*
X0093324312Y0018201763D01*
X0093331166Y0018202473D01*
X0093337702Y0018204655D01*
X0093337704Y0018204655D01*
X0093469806Y0018248728D01*
X0093498946Y0018258449D01*
X0093649348Y0018351522D01*
X0093774305Y0018476697D01*
X0093867115Y0018627262D01*
X0093922797Y0018795139D01*
X0093924799Y0018814672D01*
X0093933172Y0018896401D01*
X0093933500Y0018899600D01*
X0093933500Y0019500400D01*
X0093932453Y0019510493D01*
X0093923238Y0019599307D01*
X0093923237Y0019599311D01*
X0093922526Y0019606166D01*
X0093910909Y0019640987D01*
X0093868868Y0019766998D01*
X0093866550Y0019773945D01*
X0093773478Y0019924347D01*
X0093648303Y0020049305D01*
X0093643765Y0020052102D01*
X0093603176Y0020109353D01*
X0093599946Y0020180276D01*
X0093635572Y0020241687D01*
X0093644068Y0020249061D01*
X0093654207Y0020257098D01*
X0093768739Y0020371829D01*
X0093777751Y0020383240D01*
X0093862816Y0020521243D01*
X0093868963Y0020534424D01*
X0093920138Y0020688710D01*
X0093923005Y0020702085D01*
X0093932672Y0020796437D01*
X0093933000Y0020802853D01*
X0093933000Y0020827884D01*
X0093928525Y0020843124D01*
X0093927135Y0020844329D01*
X0093919452Y0020846000D01*
X0091485116Y0020846000D01*
X0091469877Y0020841525D01*
X0091468672Y0020840135D01*
X0091467001Y0020832452D01*
X0091467001Y0020802904D01*
X0091467338Y0020796386D01*
X0091477257Y0020700794D01*
X0091480149Y0020687399D01*
X0091531588Y0020533215D01*
X0091537761Y0020520038D01*
X0091623063Y0020382193D01*
X0091632099Y0020370791D01*
X0091746828Y0020256262D01*
X0091755762Y0020249206D01*
X0091796823Y0020191288D01*
X0091800053Y0020120365D01*
X0091764426Y0020058954D01*
X0091756593Y0020052154D01*
X0091750652Y0020048478D01*
X0091625695Y0019923303D01*
X0091621855Y0019917073D01*
X0091621854Y0019917072D01*
X0091546706Y0019795159D01*
X0091532885Y0019772738D01*
X0091477203Y0019604861D01*
X0091476503Y0019598025D01*
X0091476502Y0019598022D01*
X0091475140Y0019584728D01*
X0091466500Y0019500400D01*
X0091466500Y0018899600D01*
X0090808500Y0018899600D01*
X0090808500Y0018948133D01*
X0090801745Y0019010316D01*
X0090750615Y0019146704D01*
X0090663261Y0019263261D01*
X0090546705Y0019350615D01*
X0090526699Y0019358114D01*
X0090469935Y0019400757D01*
X0090445235Y0019467319D01*
X0090461810Y0019539097D01*
X0090481223Y0019572721D01*
X0090481224Y0019572722D01*
X0090484527Y0019578444D01*
X0090543542Y0019760071D01*
X0090548007Y0019802548D01*
X0090562814Y0019943434D01*
X0090563504Y0019950000D01*
X0090550609Y0020072692D01*
X0090544232Y0020133364D01*
X0090544232Y0020133367D01*
X0090543542Y0020139927D01*
X0090484527Y0020321556D01*
X0090425381Y0020424000D01*
X0090408500Y0020486998D01*
X0090408500Y0020510245D01*
X0090428502Y0020578367D01*
X0090482158Y0020624860D01*
X0090490270Y0020628227D01*
X0090538297Y0020646232D01*
X0090546705Y0020649384D01*
X0090663261Y0020736739D01*
X0090750615Y0020853295D01*
X0090801745Y0020989683D01*
X0090808500Y0021051866D01*
X0090808500Y0021372114D01*
X0091467000Y0021372114D01*
X0091471475Y0021356876D01*
X0091472865Y0021355671D01*
X0091480548Y0021354000D01*
X0092427885Y0021354000D01*
X0092443124Y0021358475D01*
X0092444329Y0021359865D01*
X0092446000Y0021367548D01*
X0092446000Y0021372114D01*
X0092954000Y0021372114D01*
X0092958475Y0021356876D01*
X0092959865Y0021355671D01*
X0092967548Y0021354000D01*
X0093914884Y0021354000D01*
X0093930123Y0021358475D01*
X0093931328Y0021359865D01*
X0093932999Y0021367548D01*
X0093932999Y0021397094D01*
X0093932662Y0021403614D01*
X0093922743Y0021499206D01*
X0093919851Y0021512600D01*
X0093868412Y0021666784D01*
X0093862239Y0021679962D01*
X0093776937Y0021817807D01*
X0093767901Y0021829207D01*
X0093653171Y0021943738D01*
X0093641760Y0021952751D01*
X0093503757Y0022037816D01*
X0093490576Y0022043963D01*
X0093336290Y0022095138D01*
X0093322914Y0022098005D01*
X0093228562Y0022107671D01*
X0093222145Y0022108000D01*
X0092972115Y0022108000D01*
X0092956876Y0022103525D01*
X0092955671Y0022102135D01*
X0092954000Y0022094452D01*
X0092954000Y0021372114D01*
X0092446000Y0021372114D01*
X0092446000Y0022089883D01*
X0092441525Y0022105123D01*
X0092440135Y0022106328D01*
X0092432452Y0022107999D01*
X0092177905Y0022107999D01*
X0092171386Y0022107662D01*
X0092075794Y0022097742D01*
X0092062400Y0022094851D01*
X0091908216Y0022043412D01*
X0091895038Y0022037239D01*
X0091757193Y0021951937D01*
X0091745792Y0021942901D01*
X0091631261Y0021828170D01*
X0091622249Y0021816760D01*
X0091537184Y0021678757D01*
X0091531037Y0021665576D01*
X0091479862Y0021511290D01*
X0091476995Y0021497913D01*
X0091467328Y0021403561D01*
X0091467000Y0021397144D01*
X0091467000Y0021372114D01*
X0090808500Y0021372114D01*
X0090808500Y0022148134D01*
X0090801745Y0022210316D01*
X0090750615Y0022346705D01*
X0090663261Y0022463261D01*
X0090546705Y0022550614D01*
X0090410316Y0022601744D01*
X0090348134Y0022608500D01*
X0088751866Y0022608500D01*
X0088689684Y0022601744D01*
X0088553295Y0022550614D01*
X0088436739Y0022463261D01*
X0088349385Y0022346705D01*
X0088298255Y0022210316D01*
X0088291500Y0022148134D01*
X0088291500Y0021051866D01*
X0088298255Y0020989683D01*
X0088349385Y0020853295D01*
X0088436739Y0020736739D01*
X0088553295Y0020649384D01*
X0088689684Y0020598254D01*
X0088751866Y0020591499D01*
X0088755282Y0020591499D01*
X0088758680Y0020591316D01*
X0088758602Y0020589881D01*
X0088821208Y0020571498D01*
X0088867701Y0020517842D01*
X0088877805Y0020447568D01*
X0088862206Y0020402500D01*
X0088818777Y0020327279D01*
X0088815473Y0020321556D01*
X0088756458Y0020139927D01*
X0088755768Y0020133367D01*
X0088755768Y0020133364D01*
X0088749391Y0020072692D01*
X0088736496Y0019950000D01*
X0088737186Y0019943434D01*
X0088751994Y0019802548D01*
X0088756458Y0019760071D01*
X0088815473Y0019578444D01*
X0088815478Y0019578435D01*
X0088824587Y0019510493D01*
X0088794481Y0019446196D01*
X0088734392Y0019408383D01*
X0088713654Y0019404348D01*
X0088711244Y0019404087D01*
X0088689684Y0019401745D01*
X0088553295Y0019350615D01*
X0088436739Y0019263261D01*
X0088431358Y0019256080D01*
X0088396024Y0019208934D01*
X0088339165Y0019166420D01*
X0088295198Y0019158500D01*
X0087631693Y0019158500D01*
X0087592756Y0019164666D01*
X0087588319Y0019166109D01*
X0087582288Y0019168794D01*
X0087575836Y0019170165D01*
X0087575831Y0019170167D01*
X0087401944Y0019207127D01*
X0087401939Y0019207127D01*
X0087395487Y0019208500D01*
X0087204513Y0019208500D01*
X0087198061Y0019207127D01*
X0087198056Y0019207127D01*
X0087111113Y0019188647D01*
X0087017712Y0019168794D01*
X0087011682Y0019166109D01*
X0087011681Y0019166109D01*
X0086849278Y0019093802D01*
X0086849276Y0019093801D01*
X0086843248Y0019091117D01*
X0086688747Y0018978865D01*
X0086684326Y0018973956D01*
X0086684325Y0018973955D01*
X0086617376Y0018899600D01*
X0086560960Y0018836944D01*
X0086465473Y0018671555D01*
X0086406458Y0018489928D01*
X0086405768Y0018483367D01*
X0086405768Y0018483365D01*
X0086404523Y0018471517D01*
X0086386496Y0018299999D01*
X0086387186Y0018293435D01*
X0086399205Y0018179085D01*
X0086406458Y0018110072D01*
X0086408497Y0018103797D01*
X0086433840Y0018025801D01*
X0086435868Y0017954832D01*
X0086399205Y0017894035D01*
X0086335493Y0017862710D01*
X0086264959Y0017870801D01*
X0086224912Y0017897768D01*
X0085945405Y0018177276D01*
X0085911379Y0018239587D01*
X0085908500Y0018266371D01*
X0085908500Y0018948133D01*
X0085901745Y0019010316D01*
X0085850615Y0019146704D01*
X0085763261Y0019263261D01*
X0085646705Y0019350615D01*
X0085510316Y0019401745D01*
X0085448134Y0019408500D01*
X0083851866Y0019408500D01*
X0083789684Y0019401745D01*
X0083653295Y0019350615D01*
X0083536739Y0019263261D01*
X0083449385Y0019146704D01*
X0083398255Y0019010316D01*
X0083391500Y0018948133D01*
X0083391500Y0017851866D01*
X0083398255Y0017789683D01*
X0083449385Y0017653295D01*
X0083536739Y0017536738D01*
X0083653295Y0017449385D01*
X0083789684Y0017398255D01*
X0083851866Y0017391499D01*
X0084533629Y0017391499D01*
X0084601750Y0017371498D01*
X0084622724Y0017354595D01*
X0087216230Y0014761088D01*
X0087228616Y0014746677D01*
X0087237149Y0014735082D01*
X0087237154Y0014735077D01*
X0087241492Y0014729181D01*
X0087247070Y0014724442D01*
X0087247073Y0014724440D01*
X0087281768Y0014694964D01*
X0087289284Y0014688035D01*
X0087294980Y0014682338D01*
X0087297841Y0014680076D01*
X0087297846Y0014680070D01*
X0087317266Y0014664707D01*
X0087320667Y0014661918D01*
X0087376285Y0014614666D01*
X0087382798Y0014611340D01*
X0087387837Y0014607979D01*
X0087392979Y0014604804D01*
X0087398716Y0014600266D01*
X0087464875Y0014569344D01*
X0087468769Y0014567442D01*
X0087533808Y0014534231D01*
X0087540917Y0014532492D01*
X0087546551Y0014530395D01*
X0087552321Y0014528476D01*
X0087558950Y0014525378D01*
X0087566113Y0014523888D01*
X0087566116Y0014523887D01*
X0087612174Y0014514307D01*
X0087630435Y0014510508D01*
X0087634701Y0014509542D01*
X0087705610Y0014492192D01*
X0087711212Y0014491844D01*
X0087711215Y0014491844D01*
X0087716764Y0014491500D01*
X0087716762Y0014491465D01*
X0087720734Y0014491225D01*
X0087724955Y0014490848D01*
X0087732115Y0014489358D01*
X0087809542Y0014491454D01*
X0087812950Y0014491500D01*
X0107983629Y0014491500D01*
X0108051750Y0014471497D01*
X0108072724Y0014454594D01*
X0108754595Y0013772723D01*
X0108788621Y0013710412D01*
X0108791500Y0013683628D01*
X0108791500Y0011862335D01*
X0108771498Y0011794213D01*
X0108717841Y0011747720D01*
X0108666690Y0011736340D01*
X0108558031Y0011735314D01*
X0103919850Y0011691462D01*
X0103918988Y0011680818D01*
X0103918988Y0011680817D01*
X0103699220Y0008966283D01*
X0103199999Y0002799999D01*
X0106428611Y0002799999D01*
X0106496733Y0002779998D01*
X0106543226Y0002726342D01*
X0106553329Y0002656068D01*
X0106543225Y0002621656D01*
X0106529172Y0002590888D01*
X0106529170Y0002590881D01*
X0106527301Y0002586789D01*
X0106507299Y0002518669D01*
X0106506660Y0002514219D01*
X0106506659Y0002514213D01*
X0106487139Y0002378446D01*
X0106486500Y0002373999D01*
X0106486500Y0001626000D01*
X0106498234Y0001516851D01*
X0106498952Y0001513551D01*
X0106498952Y0001513550D01*
X0106505961Y0001481331D01*
X0106509620Y0001464508D01*
X0106544289Y0001360343D01*
X0106623308Y0001237388D01*
X0106669801Y0001183731D01*
X0106673194Y0001180791D01*
X0106773450Y0001093918D01*
X0106773452Y0001093917D01*
X0106780261Y0001088018D01*
X0106913209Y0001027301D01*
X0106936963Y0001020327D01*
X0106977008Y0001008568D01*
X0106977012Y0001008567D01*
X0106981331Y0001007299D01*
X0106985780Y0001006660D01*
X0106985785Y0001006659D01*
X0107121553Y0000987139D01*
X0107121558Y0000987139D01*
X0107126000Y0000986500D01*
X0108874000Y0000986500D01*
X0108877345Y0000986860D01*
X0108877351Y0000986860D01*
X0108979785Y0000997872D01*
X0108979792Y0000997872D01*
X0108983149Y0000998233D01*
X0108986449Y0000998952D01*
X0109032209Y0001008905D01*
X0109032215Y0001008906D01*
X0109035491Y0001009620D01*
X0109139657Y0001044289D01*
X0109262611Y0001123308D01*
X0109316268Y0001169801D01*
X0109407274Y0001274828D01*
X0109466998Y0001313210D01*
X0109537996Y0001313210D01*
X0109597722Y0001274828D01*
X0109608496Y0001260435D01*
X0109623308Y0001237388D01*
X0109669801Y0001183731D01*
X0109673194Y0001180791D01*
X0109773450Y0001093918D01*
X0109773452Y0001093917D01*
X0109780261Y0001088018D01*
X0109913209Y0001027301D01*
X0109936963Y0001020327D01*
X0109977008Y0001008568D01*
X0109977012Y0001008567D01*
X0109981331Y0001007299D01*
X0109985780Y0001006660D01*
X0109985785Y0001006659D01*
X0110121553Y0000987139D01*
X0110121558Y0000987139D01*
X0110126000Y0000986500D01*
X0111874000Y0000986500D01*
X0111877345Y0000986860D01*
X0111877351Y0000986860D01*
X0111979785Y0000997872D01*
X0111979792Y0000997872D01*
X0111983149Y0000998233D01*
X0111986449Y0000998952D01*
X0112032209Y0001008905D01*
X0112032215Y0001008906D01*
X0112035491Y0001009620D01*
X0112139657Y0001044289D01*
X0112262611Y0001123308D01*
X0112316268Y0001169801D01*
X0112407274Y0001274828D01*
X0112466998Y0001313210D01*
X0112537996Y0001313210D01*
X0112597722Y0001274828D01*
X0112608496Y0001260435D01*
X0112623308Y0001237388D01*
X0112669801Y0001183731D01*
X0112673194Y0001180791D01*
X0112773450Y0001093918D01*
X0112773452Y0001093917D01*
X0112780261Y0001088018D01*
X0112913209Y0001027301D01*
X0112936963Y0001020327D01*
X0112977008Y0001008568D01*
X0112977012Y0001008567D01*
X0112981331Y0001007299D01*
X0112985780Y0001006660D01*
X0112985785Y0001006659D01*
X0113121553Y0000987139D01*
X0113121558Y0000987139D01*
X0113126000Y0000986500D01*
X0114874000Y0000986500D01*
X0114877345Y0000986860D01*
X0114877351Y0000986860D01*
X0114979785Y0000997872D01*
X0114979792Y0000997872D01*
X0114983149Y0000998233D01*
X0114986449Y0000998952D01*
X0115032209Y0001008905D01*
X0115032215Y0001008906D01*
X0115035491Y0001009620D01*
X0115139657Y0001044289D01*
X0115262611Y0001123308D01*
X0115316268Y0001169801D01*
X0115407274Y0001274828D01*
X0115466998Y0001313210D01*
X0115537996Y0001313210D01*
X0115597722Y0001274828D01*
X0115608496Y0001260435D01*
X0115623308Y0001237388D01*
X0115669801Y0001183731D01*
X0115673194Y0001180791D01*
X0115773450Y0001093918D01*
X0115773452Y0001093917D01*
X0115780261Y0001088018D01*
X0115913209Y0001027301D01*
X0115936963Y0001020327D01*
X0115977008Y0001008568D01*
X0115977012Y0001008567D01*
X0115981331Y0001007299D01*
X0115985780Y0001006660D01*
X0115985785Y0001006659D01*
X0116121553Y0000987139D01*
X0116121558Y0000987139D01*
X0116126000Y0000986500D01*
X0117874000Y0000986500D01*
X0117877345Y0000986860D01*
X0117877351Y0000986860D01*
X0117979785Y0000997872D01*
X0117979792Y0000997872D01*
X0117983149Y0000998233D01*
X0117986449Y0000998952D01*
X0118032209Y0001008905D01*
X0118032215Y0001008906D01*
X0118035491Y0001009620D01*
X0118139657Y0001044289D01*
X0118146286Y0001048550D01*
X0118147964Y0001049352D01*
X0118218045Y0001060709D01*
X0118283143Y0001032372D01*
X0118322586Y0000973340D01*
X0118326737Y0000955738D01*
X0118375277Y0000654548D01*
X0118366368Y0000584112D01*
X0118320793Y0000529674D01*
X0118250881Y0000508499D01*
X0100750131Y0000508499D01*
X0100682009Y0000528502D01*
X0100635517Y0000582157D01*
X0100625760Y0000654697D01*
X0100679645Y0000986500D01*
X0100763036Y0001500000D01*
X0101000000Y0001500000D01*
X0103000000Y0001500000D01*
X0104000000Y0001500000D01*
X0106000000Y0001500000D01*
X0106000000Y0002500000D01*
X0104000000Y0002500000D01*
X0104000000Y0001500000D01*
X0103000000Y0001500000D01*
X0103000000Y0002500000D01*
X0101000000Y0002500000D01*
X0101000000Y0001500000D01*
X0100763036Y0001500000D01*
X0100783854Y0001628196D01*
X0100889462Y0002369504D01*
X0101028860Y0003348005D01*
X0101028864Y0003348037D01*
X0101028945Y0003348612D01*
X0101240471Y0005073476D01*
X0101418348Y0006802136D01*
X0101474072Y0007471534D01*
X0101562465Y0008533362D01*
X0101562468Y0008533407D01*
X0101562512Y0008533933D01*
X0101562547Y0008534497D01*
X0101672868Y0010267611D01*
X0101672868Y0010267624D01*
X0101672906Y0010268209D01*
X0101683211Y0010501806D01*
X0101735689Y0011691462D01*
X0101748397Y0011979553D01*
X0101749094Y0011987831D01*
X0101749889Y0011991735D01*
X0101750147Y0011997255D01*
X0101750247Y0011999414D01*
X0101750247Y0011999419D01*
X0101750473Y0012004273D01*
X0101750281Y0012006048D01*
X0101750582Y0012007806D01*
X0101749772Y0012014838D01*
X0101742494Y0012077965D01*
X0101742398Y0012078824D01*
X0101735702Y0012140634D01*
X0101734787Y0012149085D01*
X0101734104Y0012150734D01*
X0101733900Y0012152506D01*
X0101730603Y0012160320D01*
X0101730601Y0012160326D01*
X0101706464Y0012217530D01*
X0101706130Y0012218329D01*
X0101682336Y0012275818D01*
X0101679087Y0012283671D01*
X0101677968Y0012285062D01*
X0101677276Y0012286705D01*
X0101671910Y0012293290D01*
X0101671907Y0012293295D01*
X0101632622Y0012341504D01*
X0101632222Y0012341998D01*
X0101587853Y0012397216D01*
X0101586387Y0012398240D01*
X0101585262Y0012399620D01*
X0101527054Y0012439660D01*
X0101526446Y0012440083D01*
X0101475382Y0012475729D01*
X0101468416Y0012480591D01*
X0101466724Y0012481161D01*
X0101465256Y0012482170D01*
X0101397901Y0012504345D01*
X0101397639Y0012504434D01*
X0101330380Y0012527091D01*
X0101328598Y0012527164D01*
X0101326904Y0012527721D01*
X0101286043Y0012529094D01*
X0101256314Y0012530092D01*
X0101255448Y0012530124D01*
X0101193322Y0012532640D01*
X0101193321Y0012532640D01*
X0101184843Y0012532983D01*
X0101183112Y0012532551D01*
X0101181328Y0012532612D01*
X0101155177Y0012525908D01*
X0101137019Y0012522649D01*
X0100740733Y0012481161D01*
X0100095344Y0012413593D01*
X0100091237Y0012413230D01*
X0099448359Y0012367406D01*
X0099009787Y0012336144D01*
X0099005617Y0012335915D01*
X0097922244Y0012294715D01*
X0097918068Y0012294625D01*
X0097536199Y0012292771D01*
X0096833888Y0012289359D01*
X0096829727Y0012289407D01*
X0095745938Y0012320080D01*
X0095741824Y0012320266D01*
X0095165733Y0012355709D01*
X0094659710Y0012386841D01*
X0094655546Y0012387165D01*
X0094002027Y0012449172D01*
X0093576166Y0012489577D01*
X0093572062Y0012490037D01*
X0092496702Y0012628165D01*
X0092492585Y0012628765D01*
X0092138598Y0012686218D01*
X0091422438Y0012802454D01*
X0091418326Y0012803191D01*
X0090948265Y0012895571D01*
X0090354476Y0013012266D01*
X0090350430Y0013013131D01*
X0089294099Y0013257352D01*
X0089290069Y0013258354D01*
X0088242411Y0013537456D01*
X0088238409Y0013538593D01*
X0087463754Y0013772723D01*
X0087200585Y0013852264D01*
X0087196608Y0013853538D01*
X0086472071Y0014099010D01*
X0086169769Y0014201430D01*
X0086165857Y0014202827D01*
X0085646892Y0014398058D01*
X0085151109Y0014584567D01*
X0085147225Y0014586101D01*
X0084145702Y0015001259D01*
X0084141870Y0015002921D01*
X0083154620Y0015451064D01*
X0083150846Y0015452854D01*
X0083140791Y0015457826D01*
X0082734497Y0015658755D01*
X0082179054Y0015933443D01*
X0082175341Y0015935356D01*
X0081219975Y0016447913D01*
X0081216328Y0016449948D01*
X0080278461Y0016993898D01*
X0080274883Y0016996054D01*
X0079355618Y0017570755D01*
X0079352113Y0017573026D01*
X0078909179Y0017870801D01*
X0078452320Y0018177938D01*
X0078448922Y0018180307D01*
X0077977075Y0018520757D01*
X0077569726Y0018814672D01*
X0077566380Y0018817172D01*
X0076708679Y0019480340D01*
X0076705417Y0019482950D01*
X0076680405Y0019503649D01*
X0076650086Y0019528740D01*
X0076610358Y0019587581D01*
X0076608749Y0019658561D01*
X0076645770Y0019719140D01*
X0076678618Y0019740669D01*
X0076707719Y0019753794D01*
X0076940667Y0019858852D01*
X0078123030Y0020433942D01*
X0078149094Y0020447568D01*
X0079287440Y0021042697D01*
X0079287441Y0021042697D01*
X0079288207Y0021043098D01*
X0079310039Y0021055330D01*
X0083392001Y0021055330D01*
X0083392371Y0021048509D01*
X0083397895Y0020997647D01*
X0083401521Y0020982395D01*
X0083446676Y0020861946D01*
X0083455214Y0020846351D01*
X0083531715Y0020744276D01*
X0083544276Y0020731714D01*
X0083646351Y0020655214D01*
X0083661946Y0020646676D01*
X0083782394Y0020601522D01*
X0083797649Y0020597894D01*
X0083848514Y0020592369D01*
X0083855328Y0020592000D01*
X0084377885Y0020592000D01*
X0084393124Y0020596474D01*
X0084394329Y0020597865D01*
X0084396000Y0020605548D01*
X0084396000Y0020610116D01*
X0084904000Y0020610116D01*
X0084908475Y0020594876D01*
X0084909865Y0020593671D01*
X0084917548Y0020592000D01*
X0085444669Y0020592000D01*
X0085451490Y0020592371D01*
X0085502352Y0020597894D01*
X0085517604Y0020601521D01*
X0085638054Y0020646676D01*
X0085653649Y0020655214D01*
X0085755724Y0020731714D01*
X0085768285Y0020744276D01*
X0085844786Y0020846351D01*
X0085853324Y0020861946D01*
X0085898478Y0020982394D01*
X0085902105Y0020997648D01*
X0085907631Y0021048513D01*
X0085908000Y0021055328D01*
X0085908000Y0021327884D01*
X0085903525Y0021343124D01*
X0085902135Y0021344329D01*
X0085894452Y0021346000D01*
X0084922115Y0021346000D01*
X0084906876Y0021341525D01*
X0084905671Y0021340135D01*
X0084904000Y0021332452D01*
X0084904000Y0020610116D01*
X0084396000Y0020610116D01*
X0084396000Y0021327884D01*
X0084391525Y0021343124D01*
X0084390135Y0021344329D01*
X0084382452Y0021346000D01*
X0083410116Y0021346000D01*
X0083394877Y0021341525D01*
X0083393672Y0021340135D01*
X0083392001Y0021332452D01*
X0083392001Y0021055330D01*
X0079310039Y0021055330D01*
X0080401267Y0021666784D01*
X0080434399Y0021685349D01*
X0080434403Y0021685351D01*
X0080435218Y0021685807D01*
X0080746192Y0021872114D01*
X0083392000Y0021872114D01*
X0083396475Y0021856876D01*
X0083397865Y0021855671D01*
X0083405548Y0021854000D01*
X0084377885Y0021854000D01*
X0084393124Y0021858475D01*
X0084394329Y0021859865D01*
X0084396000Y0021867548D01*
X0084396000Y0021872114D01*
X0084904000Y0021872114D01*
X0084908475Y0021856876D01*
X0084909865Y0021855671D01*
X0084917548Y0021854000D01*
X0085889884Y0021854000D01*
X0085905123Y0021858475D01*
X0085906328Y0021859865D01*
X0085907999Y0021867548D01*
X0085907999Y0022144668D01*
X0085907629Y0022151489D01*
X0085902105Y0022202352D01*
X0085898479Y0022217603D01*
X0085853324Y0022338054D01*
X0085844786Y0022353649D01*
X0085768285Y0022455724D01*
X0085755724Y0022468284D01*
X0085653649Y0022544786D01*
X0085638054Y0022553324D01*
X0085517606Y0022598478D01*
X0085502351Y0022602104D01*
X0085451486Y0022607630D01*
X0085444672Y0022608000D01*
X0084922115Y0022608000D01*
X0084906876Y0022603525D01*
X0084905671Y0022602135D01*
X0084904000Y0022594452D01*
X0084904000Y0021872114D01*
X0084396000Y0021872114D01*
X0084396000Y0022589883D01*
X0084391525Y0022605123D01*
X0084390135Y0022606328D01*
X0084382452Y0022607999D01*
X0083855331Y0022607999D01*
X0083848510Y0022607629D01*
X0083797648Y0022602104D01*
X0083782396Y0022598478D01*
X0083661946Y0022553324D01*
X0083646351Y0022544786D01*
X0083544276Y0022468284D01*
X0083531715Y0022455724D01*
X0083455214Y0022353649D01*
X0083446676Y0022338054D01*
X0083401522Y0022217606D01*
X0083397895Y0022202350D01*
X0083392369Y0022151486D01*
X0083392000Y0022144672D01*
X0083392000Y0021872114D01*
X0080746192Y0021872114D01*
X0081135116Y0022105123D01*
X0081562321Y0022361064D01*
X0081562325Y0022361068D01*
X0081563097Y0022361530D01*
X0082670893Y0023069694D01*
X0083757674Y0023809706D01*
X0084822524Y0024580940D01*
X0085864548Y0025382750D01*
X0086882866Y0026214456D01*
X0087876622Y0027075362D01*
X0088299943Y0027464158D01*
X0088844299Y0027964117D01*
X0088844316Y0027964133D01*
X0088844979Y0027964742D01*
X0088845615Y0027965361D01*
X0088845635Y0027965379D01*
X0089786462Y0028881203D01*
X0089786480Y0028881220D01*
X0089787121Y0028881845D01*
X0089787752Y0028882496D01*
X0089787772Y0028882515D01*
X0090701605Y0029825228D01*
X0090701620Y0029825244D01*
X0090702255Y0029825900D01*
X0090759022Y0029887967D01*
X0091588978Y0030795419D01*
X0091589610Y0030796110D01*
X0092448439Y0031791663D01*
X0093278018Y0032811716D01*
X0094077649Y0033855411D01*
X0094123572Y0033919095D01*
X0094288479Y0034147789D01*
X0094846659Y0034921870D01*
X0095584399Y0036010194D01*
X0096290249Y0037119466D01*
X0096963614Y0038248752D01*
X0096964077Y0038249583D01*
X0097603467Y0039396276D01*
X0097603487Y0039396311D01*
X0097603928Y0039397104D01*
X0098210649Y0040563551D01*
X0098783268Y0041747111D01*
X0099313505Y0042929400D01*
X0099315373Y0042933177D01*
X0099316636Y0042935132D01*
X0099318615Y0042939572D01*
X0099318619Y0042939578D01*
X0099319768Y0042942159D01*
X0099321746Y0042946599D01*
X0099335036Y0042995596D01*
X0099337621Y0043003962D01*
X0099339088Y0043008185D01*
X0099354277Y0043051907D01*
X0099354725Y0043060875D01*
X0099356430Y0043069649D01*
X0099357524Y0043078513D01*
X0099359873Y0043087179D01*
X0099358876Y0043137941D01*
X0099359008Y0043146700D01*
X0099361090Y0043188416D01*
X0099361539Y0043197384D01*
X0099359452Y0043206118D01*
X0099358625Y0043215031D01*
X0099357187Y0043223840D01*
X0099357011Y0043232808D01*
X0099354324Y0043241365D01*
X0099354323Y0043241372D01*
X0099341807Y0043281248D01*
X0099339476Y0043289689D01*
X0099336137Y0043303666D01*
X0099327678Y0043339051D01*
X0099323227Y0043346841D01*
X0099319943Y0043355138D01*
X0099316081Y0043363212D01*
X0099313391Y0043371780D01*
X0099285199Y0043414012D01*
X0099280597Y0043421454D01*
X0099259871Y0043457728D01*
X0099259870Y0043457729D01*
X0099255417Y0043465520D01*
X0099248960Y0043471748D01*
X0099243464Y0043478809D01*
X0099237502Y0043485461D01*
X0099232519Y0043492925D01*
X0099193602Y0043525549D01*
X0099187091Y0043531406D01*
X0099157029Y0043560393D01*
X0099150567Y0043566625D01*
X0099142615Y0043570792D01*
X0099135361Y0043576025D01*
X0099127779Y0043580731D01*
X0099120895Y0043586501D01*
X0099074379Y0043606894D01*
X0099066514Y0043610675D01*
X0099052965Y0043617776D01*
X0099021553Y0043634238D01*
X0099012754Y0043636005D01*
X0099004319Y0043638994D01*
X0098995713Y0043641385D01*
X0098987496Y0043644987D01*
X0098978599Y0043646137D01*
X0098978597Y0043646139D01*
X0098937149Y0043651503D01*
X0098928523Y0043652925D01*
X0098878747Y0043662924D01*
X0098869797Y0043662150D01*
X0098860870Y0043662650D01*
X0098851942Y0043662529D01*
X0098843043Y0043663681D01*
X0098834178Y0043662289D01*
X0098825199Y0043662167D01*
X0098825195Y0043662435D01*
X0098811826Y0043661812D01*
X0098537259Y0043679081D01*
X0097994157Y0043713241D01*
X0097989405Y0043713632D01*
X0097431797Y0043770087D01*
X0097116475Y0043802012D01*
X0097111711Y0043802586D01*
X0096242775Y0043924142D01*
X0096238036Y0043924897D01*
X0095374357Y0044079453D01*
X0095369650Y0044080388D01*
X0094512474Y0044267720D01*
X0094507806Y0044268834D01*
X0094004831Y0044399007D01*
X0093658386Y0044488671D01*
X0093653770Y0044489960D01*
X0093526889Y0044528008D01*
X0092813353Y0044741978D01*
X0092808813Y0044743432D01*
X0091978554Y0045027285D01*
X0091974045Y0045028924D01*
X0091886916Y0045062468D01*
X0091155243Y0045344167D01*
X0091150823Y0045345966D01*
X0090344591Y0045692171D01*
X0090340219Y0045694148D01*
X0089547792Y0046070784D01*
X0089543497Y0046072925D01*
X0088838592Y0046441500D01*
X0088765939Y0046479488D01*
X0088761764Y0046481774D01*
X0088027826Y0046901866D01*
X0120991500Y0046901866D01*
X0120998255Y0046839684D01*
X0121049385Y0046703295D01*
X0121136739Y0046586738D01*
X0121253295Y0046499385D01*
X0121389683Y0046448255D01*
X0121451866Y0046441500D01*
X0123048134Y0046441500D01*
X0123110316Y0046448255D01*
X0123246704Y0046499385D01*
X0123363261Y0046586738D01*
X0123450615Y0046703295D01*
X0123501745Y0046839684D01*
X0123508500Y0046901866D01*
X0123508500Y0047400000D01*
X0124186496Y0047400000D01*
X0124206458Y0047210072D01*
X0124265472Y0047028443D01*
X0124268776Y0047022722D01*
X0124268777Y0047022721D01*
X0124271827Y0047017438D01*
X0124360960Y0046863056D01*
X0124365378Y0046858149D01*
X0124365378Y0046858148D01*
X0124382004Y0046839684D01*
X0124488746Y0046721134D01*
X0124523191Y0046696109D01*
X0124637903Y0046612764D01*
X0124643248Y0046608881D01*
X0124649275Y0046606198D01*
X0124649278Y0046606196D01*
X0124692982Y0046586738D01*
X0124817712Y0046531206D01*
X0124911112Y0046511353D01*
X0124998055Y0046492872D01*
X0124998061Y0046492872D01*
X0125004513Y0046491500D01*
X0125195487Y0046491500D01*
X0125201939Y0046492872D01*
X0125201944Y0046492872D01*
X0125288887Y0046511353D01*
X0125382287Y0046531206D01*
X0125507017Y0046586738D01*
X0125550722Y0046606196D01*
X0125550724Y0046606198D01*
X0125556751Y0046608881D01*
X0125562091Y0046612761D01*
X0125562097Y0046612764D01*
X0125568527Y0046617436D01*
X0125642586Y0046641499D01*
X0125932671Y0046641499D01*
X0126000791Y0046621498D01*
X0126024331Y0046599593D01*
X0126025008Y0046600269D01*
X0126031358Y0046593919D01*
X0126036739Y0046586738D01*
X0126153295Y0046499385D01*
X0126289684Y0046448255D01*
X0126351866Y0046441500D01*
X0127948134Y0046441500D01*
X0128010315Y0046448255D01*
X0128146705Y0046499385D01*
X0128263261Y0046586738D01*
X0128350615Y0046703295D01*
X0128401745Y0046839684D01*
X0128408500Y0046901866D01*
X0128408500Y0047998133D01*
X0128401745Y0048060316D01*
X0128350615Y0048196704D01*
X0128263261Y0048313261D01*
X0128146705Y0048400615D01*
X0128010315Y0048451745D01*
X0127948134Y0048458500D01*
X0126351866Y0048458500D01*
X0126289684Y0048451745D01*
X0126153295Y0048400615D01*
X0126036739Y0048313261D01*
X0125977290Y0048233939D01*
X0125958551Y0048208935D01*
X0125901692Y0048166420D01*
X0125857724Y0048158500D01*
X0125642586Y0048158500D01*
X0125568527Y0048182563D01*
X0125562097Y0048187235D01*
X0125562091Y0048187239D01*
X0125556751Y0048191118D01*
X0125550724Y0048193802D01*
X0125550722Y0048193803D01*
X0125388319Y0048266109D01*
X0125388318Y0048266109D01*
X0125382287Y0048268794D01*
X0125264485Y0048293834D01*
X0125201944Y0048307128D01*
X0125201939Y0048307128D01*
X0125195487Y0048308499D01*
X0125004513Y0048308499D01*
X0124998061Y0048307128D01*
X0124998055Y0048307128D01*
X0124935515Y0048293834D01*
X0124817712Y0048268794D01*
X0124811681Y0048266109D01*
X0124811681Y0048266109D01*
X0124649278Y0048193803D01*
X0124649275Y0048193802D01*
X0124643248Y0048191118D01*
X0124637907Y0048187237D01*
X0124637905Y0048187236D01*
X0124631473Y0048182563D01*
X0124488746Y0048078866D01*
X0124484326Y0048073955D01*
X0124484325Y0048073955D01*
X0124375040Y0047952580D01*
X0124360960Y0047936944D01*
X0124265472Y0047771556D01*
X0124206458Y0047589928D01*
X0124186496Y0047400000D01*
X0123508500Y0047400000D01*
X0123508500Y0047998133D01*
X0123501745Y0048060316D01*
X0123450615Y0048196704D01*
X0123363261Y0048313261D01*
X0123246704Y0048400615D01*
X0123234610Y0048405148D01*
X0123120760Y0048447829D01*
X0123063997Y0048490472D01*
X0123039297Y0048557034D01*
X0123055872Y0048628812D01*
X0123081223Y0048672720D01*
X0123081223Y0048672721D01*
X0123084527Y0048678444D01*
X0123143542Y0048860072D01*
X0123158633Y0049003649D01*
X0123162814Y0049043435D01*
X0123163503Y0049050000D01*
X0123143542Y0049239928D01*
X0123084527Y0049421555D01*
X0123055617Y0049471628D01*
X0123038880Y0049540621D01*
X0123062099Y0049607713D01*
X0123120507Y0049652609D01*
X0123238054Y0049696676D01*
X0123253649Y0049705214D01*
X0123355724Y0049781715D01*
X0123368284Y0049794276D01*
X0123444786Y0049896350D01*
X0123453324Y0049911946D01*
X0123498478Y0050032394D01*
X0123502105Y0050047649D01*
X0123507631Y0050098513D01*
X0123508000Y0050105328D01*
X0123508000Y0050377885D01*
X0123503525Y0050393124D01*
X0123502135Y0050394329D01*
X0123494452Y0050396000D01*
X0121010116Y0050396000D01*
X0120994877Y0050391525D01*
X0120993672Y0050390135D01*
X0120992000Y0050382452D01*
X0120992000Y0050105331D01*
X0120992370Y0050098510D01*
X0120997895Y0050047647D01*
X0121001521Y0050032396D01*
X0121046675Y0049911946D01*
X0121055214Y0049896350D01*
X0121131715Y0049794276D01*
X0121144275Y0049781715D01*
X0121246351Y0049705214D01*
X0121261946Y0049696676D01*
X0121379493Y0049652609D01*
X0121436257Y0049609967D01*
X0121460957Y0049543405D01*
X0121444382Y0049471628D01*
X0121415472Y0049421555D01*
X0121356458Y0049239928D01*
X0121336496Y0049050000D01*
X0121337186Y0049043435D01*
X0121341367Y0049003649D01*
X0121356458Y0048860072D01*
X0121415472Y0048678444D01*
X0121418776Y0048672721D01*
X0121418777Y0048672720D01*
X0121444128Y0048628812D01*
X0121460866Y0048559816D01*
X0121437646Y0048492724D01*
X0121379239Y0048447829D01*
X0121265390Y0048405148D01*
X0121253295Y0048400615D01*
X0121136739Y0048313261D01*
X0121049385Y0048196704D01*
X0120998255Y0048060316D01*
X0120991500Y0047998133D01*
X0120991500Y0046901866D01*
X0088027826Y0046901866D01*
X0088000255Y0046917647D01*
X0087996148Y0046920103D01*
X0087978858Y0046930893D01*
X0087588622Y0047174440D01*
X0087251802Y0047384648D01*
X0087247781Y0047387266D01*
X0086524771Y0047877711D01*
X0086479625Y0047932505D01*
X0086471269Y0048003007D01*
X0086502357Y0048066835D01*
X0086523712Y0048085532D01*
X0086701703Y0048208935D01*
X0086788702Y0048269251D01*
X0086789450Y0048269803D01*
X0086789472Y0048269819D01*
X0087769496Y0048993393D01*
X0087770264Y0048993960D01*
X0088729825Y0049747557D01*
X0088730513Y0049748132D01*
X0088730530Y0049748144D01*
X0089665833Y0050528789D01*
X0089665836Y0050528791D01*
X0089666535Y0050529375D01*
X0090579565Y0051338721D01*
X0090899594Y0051639883D01*
X0091467415Y0052174229D01*
X0091467438Y0052174252D01*
X0091468105Y0052174880D01*
X0091468777Y0052175551D01*
X0092330729Y0053036468D01*
X0092331370Y0053037109D01*
X0093168594Y0053924645D01*
X0093727227Y0054553323D01*
X0093978422Y0054836015D01*
X0093978426Y0054836020D01*
X0093979035Y0054836704D01*
X0094761976Y0055772476D01*
X0094762570Y0055773230D01*
X0094762571Y0055773231D01*
X0095516134Y0056730384D01*
X0095516156Y0056730413D01*
X0095516723Y0056731133D01*
X0096242054Y0057711076D01*
X0096242055Y0057711077D01*
X0096242075Y0057711105D01*
X0096242608Y0057711825D01*
X0096938987Y0058713684D01*
X0097604727Y0059735027D01*
X0097604728Y0059735028D01*
X0097604744Y0059735052D01*
X0097605245Y0059735822D01*
X0098240790Y0060777333D01*
X0098536711Y0061296413D01*
X0098844615Y0061836513D01*
X0098844625Y0061836533D01*
X0098845060Y0061837297D01*
X0099417520Y0062914773D01*
X0099417932Y0062915608D01*
X0099957231Y0064007932D01*
X0099957244Y0064007959D01*
X0099957663Y0064008808D01*
X0100465009Y0065118432D01*
X0100638294Y0065529338D01*
X0100938752Y0066241812D01*
X0100938763Y0066241838D01*
X0100939111Y0066242661D01*
X0100939433Y0066243494D01*
X0100939448Y0066243530D01*
X0101216241Y0066958610D01*
X0101379547Y0067380503D01*
X0101785928Y0068530946D01*
X0101890241Y0068856820D01*
X0102157602Y0069692064D01*
X0102157603Y0069692066D01*
X0102157893Y0069692973D01*
X0102487924Y0070840556D01*
X0102489578Y0070840082D01*
X0102490536Y0070849392D01*
X0102492338Y0070853302D01*
X0102493669Y0070857973D01*
X0102493671Y0070857979D01*
X0102494445Y0070860699D01*
X0102494445Y0070860701D01*
X0102495776Y0070865375D01*
X0102502960Y0070923532D01*
X0102503779Y0070929125D01*
X0102512059Y0070977995D01*
X0102512059Y0070977995D01*
X0102513560Y0070986848D01*
X0102512515Y0070995762D01*
X0102512524Y0070996100D01*
X0102512644Y0070997721D01*
X0102512649Y0070999071D01*
X0102512538Y0071000693D01*
X0102512532Y0071001021D01*
X0102513633Y0071009935D01*
X0102512188Y0071018799D01*
X0102512188Y0071018802D01*
X0102504210Y0071067744D01*
X0102503424Y0071073354D01*
X0102497654Y0071122602D01*
X0102496610Y0071131516D01*
X0102493106Y0071139777D01*
X0102493013Y0071140126D01*
X0102492679Y0071141694D01*
X0102492303Y0071142996D01*
X0102491740Y0071144527D01*
X0102491643Y0071144837D01*
X0102490198Y0071153694D01*
X0102486327Y0071161788D01*
X0102486325Y0071161795D01*
X0102464931Y0071206533D01*
X0102462603Y0071211694D01*
X0102443242Y0071257345D01*
X0102443241Y0071257346D01*
X0102439736Y0071265611D01*
X0102434051Y0071272561D01*
X0102433879Y0071272843D01*
X0102433108Y0071274275D01*
X0102432384Y0071275415D01*
X0102431419Y0071276719D01*
X0102431232Y0071276997D01*
X0102427359Y0071285099D01*
X0102388265Y0071328733D01*
X0102384582Y0071333035D01*
X0102353197Y0071371405D01*
X0102347512Y0071378354D01*
X0102340106Y0071383428D01*
X0102339872Y0071383644D01*
X0102338724Y0071384806D01*
X0102337700Y0071385705D01*
X0102336421Y0071386676D01*
X0102336153Y0071386900D01*
X0102330164Y0071393586D01*
X0102280397Y0071424493D01*
X0102275657Y0071427587D01*
X0102234757Y0071455609D01*
X0102227353Y0071460681D01*
X0102218822Y0071463472D01*
X0102218528Y0071463617D01*
X0102217109Y0071464406D01*
X0102215879Y0071464979D01*
X0102214360Y0071465559D01*
X0102214055Y0071465693D01*
X0102206426Y0071470430D01*
X0102149948Y0071486139D01*
X0102144579Y0071487764D01*
X0102097453Y0071503183D01*
X0102097448Y0071503184D01*
X0102088917Y0071505975D01*
X0102079940Y0071506260D01*
X0102079617Y0071506317D01*
X0102078017Y0071506678D01*
X0102076709Y0071506879D01*
X0102075090Y0071507009D01*
X0102074749Y0071507053D01*
X0102066094Y0071509459D01*
X0102046434Y0071509200D01*
X0102007532Y0071508685D01*
X0102001870Y0071508737D01*
X0101975674Y0071509568D01*
X0101943332Y0071510594D01*
X0101934642Y0071508349D01*
X0101934294Y0071508310D01*
X0101932683Y0071508211D01*
X0101931356Y0071508034D01*
X0101929748Y0071507701D01*
X0101929430Y0071507651D01*
X0101920449Y0071507532D01*
X0101910594Y0071504508D01*
X0101885998Y0071499573D01*
X0101244090Y0071436302D01*
X0101237942Y0071435847D01*
X0100544851Y0071401678D01*
X0100538695Y0071401524D01*
X0100193069Y0071401432D01*
X0099844753Y0071401339D01*
X0099838582Y0071401489D01*
X0099303389Y0071427587D01*
X0099145502Y0071435285D01*
X0099139352Y0071435737D01*
X0098764254Y0071472507D01*
X0098448714Y0071503439D01*
X0098442588Y0071504192D01*
X0098099365Y0071554910D01*
X0097756139Y0071605629D01*
X0097750060Y0071606680D01*
X0097614118Y0071633629D01*
X0097069366Y0071741620D01*
X0097063369Y0071742962D01*
X0096390074Y0071911082D01*
X0096384154Y0071912716D01*
X0096031661Y0072019320D01*
X0095719933Y0072113598D01*
X0095714071Y0072115529D01*
X0095060495Y0072348694D01*
X0095054734Y0072350910D01*
X0094924245Y0072404803D01*
X0094413359Y0072615804D01*
X0094407739Y0072618287D01*
X0094003504Y0072808921D01*
X0093780086Y0072914283D01*
X0093774569Y0072917052D01*
X0093162194Y0073243415D01*
X0093156820Y0073246450D01*
X0092561148Y0073602419D01*
X0092555929Y0073605714D01*
X0091978412Y0073990423D01*
X0091973360Y0073993969D01*
X0091415375Y0074406500D01*
X0091410503Y0074410291D01*
X0090873386Y0074849656D01*
X0090868706Y0074853680D01*
X0090695721Y0075009931D01*
X0090353762Y0075318812D01*
X0090349288Y0075323056D01*
X0090344089Y0075328237D01*
X0089894229Y0075776490D01*
X0089860093Y0075838742D01*
X0089865031Y0075909566D01*
X0089907476Y0075966478D01*
X0089915819Y0075972237D01*
X0090364577Y0076256033D01*
X0090364579Y0076256034D01*
X0090365298Y0076256489D01*
X0091241670Y0076845493D01*
X0091442004Y0076980136D01*
X0091442011Y0076980141D01*
X0091442715Y0076980614D01*
X0091443411Y0076981110D01*
X0091443432Y0076981124D01*
X0092108239Y0077455331D01*
X0094142001Y0077455331D01*
X0094142371Y0077448510D01*
X0094147895Y0077397648D01*
X0094151521Y0077382396D01*
X0094196676Y0077261946D01*
X0094205214Y0077246351D01*
X0094281715Y0077144275D01*
X0094294276Y0077131715D01*
X0094396351Y0077055214D01*
X0094411946Y0077046675D01*
X0094532394Y0077001522D01*
X0094547649Y0076997895D01*
X0094598514Y0076992369D01*
X0094605328Y0076991999D01*
X0095127885Y0076991999D01*
X0095143124Y0076996475D01*
X0095144329Y0076997864D01*
X0095146000Y0077005548D01*
X0095146000Y0077010116D01*
X0095654000Y0077010116D01*
X0095658475Y0076994877D01*
X0095659865Y0076993672D01*
X0095667548Y0076992001D01*
X0096194669Y0076992001D01*
X0096201490Y0076992370D01*
X0096252352Y0076997895D01*
X0096267604Y0077001521D01*
X0096388054Y0077046675D01*
X0096403649Y0077055214D01*
X0096505724Y0077131715D01*
X0096518285Y0077144275D01*
X0096594786Y0077246351D01*
X0096603324Y0077261946D01*
X0096648478Y0077382394D01*
X0096652105Y0077397649D01*
X0096657631Y0077448514D01*
X0096658000Y0077455328D01*
X0096658000Y0077727885D01*
X0096653525Y0077743124D01*
X0096652135Y0077744329D01*
X0096644452Y0077746000D01*
X0095672115Y0077746000D01*
X0095656876Y0077741525D01*
X0095655671Y0077740135D01*
X0095654000Y0077732452D01*
X0095654000Y0077010116D01*
X0095146000Y0077010116D01*
X0095146000Y0077727885D01*
X0095141525Y0077743124D01*
X0095140135Y0077744329D01*
X0095132452Y0077746000D01*
X0094160116Y0077746000D01*
X0094144877Y0077741525D01*
X0094143672Y0077740135D01*
X0094142001Y0077732452D01*
X0094142001Y0077455331D01*
X0092108239Y0077455331D01*
X0092490343Y0077727885D01*
X0092499555Y0077734456D01*
X0092500292Y0077735013D01*
X0093534253Y0078516865D01*
X0093534272Y0078516879D01*
X0093534997Y0078517428D01*
X0094006273Y0078894869D01*
X0094071947Y0078921840D01*
X0094141777Y0078909024D01*
X0094193593Y0078860489D01*
X0094210944Y0078791645D01*
X0094198577Y0078746930D01*
X0094199828Y0078746462D01*
X0094151522Y0078617606D01*
X0094147895Y0078602351D01*
X0094142369Y0078551486D01*
X0094142000Y0078544671D01*
X0094142000Y0078272115D01*
X0094146475Y0078256876D01*
X0094147865Y0078255671D01*
X0094155548Y0078253999D01*
X0095127885Y0078253999D01*
X0095143124Y0078258475D01*
X0095144329Y0078259864D01*
X0095146000Y0078267548D01*
X0095146000Y0078272115D01*
X0095654000Y0078272115D01*
X0095658475Y0078256876D01*
X0095659865Y0078255671D01*
X0095667548Y0078253999D01*
X0096639884Y0078253999D01*
X0096655123Y0078258475D01*
X0096656328Y0078259864D01*
X0096657999Y0078267548D01*
X0096657999Y0078544669D01*
X0096657629Y0078551490D01*
X0096652105Y0078602352D01*
X0096648479Y0078617604D01*
X0096603324Y0078738054D01*
X0096594786Y0078753649D01*
X0096518285Y0078855724D01*
X0096505724Y0078868285D01*
X0096403649Y0078944786D01*
X0096388054Y0078953324D01*
X0096267606Y0078998478D01*
X0096252351Y0079002105D01*
X0096201486Y0079007631D01*
X0096194672Y0079008000D01*
X0095672115Y0079008000D01*
X0095656876Y0079003525D01*
X0095655671Y0079002135D01*
X0095654000Y0078994452D01*
X0095654000Y0078272115D01*
X0095146000Y0078272115D01*
X0095146000Y0078989884D01*
X0095141525Y0079005123D01*
X0095140135Y0079006328D01*
X0095132452Y0079007999D01*
X0094605331Y0079007999D01*
X0094598510Y0079007629D01*
X0094547648Y0079002105D01*
X0094532393Y0078998478D01*
X0094525534Y0078995907D01*
X0094454727Y0078990724D01*
X0094392358Y0079024644D01*
X0094358229Y0079086901D01*
X0094363176Y0079157725D01*
X0094402540Y0079212235D01*
X0094547556Y0079328378D01*
X0094548239Y0079328925D01*
X0094548873Y0079329463D01*
X0094548898Y0079329483D01*
X0095537845Y0080167766D01*
X0095537846Y0080167767D01*
X0095538495Y0080168317D01*
X0096504998Y0081034954D01*
X0097130283Y0081627851D01*
X0097446348Y0081927546D01*
X0097446372Y0081927570D01*
X0097446998Y0081928163D01*
X0098363765Y0082847252D01*
X0099254589Y0083791508D01*
X0100118777Y0084760201D01*
X0100755369Y0085515070D01*
X0100955085Y0085751892D01*
X0100955108Y0085751920D01*
X0100955661Y0085752577D01*
X0100956202Y0085753256D01*
X0101764050Y0086767187D01*
X0101764063Y0086767203D01*
X0101764592Y0086767868D01*
X0102544943Y0087805287D01*
X0102826254Y0088201786D01*
X0103295596Y0088863310D01*
X0103295605Y0088863322D01*
X0103296109Y0088864032D01*
X0103689090Y0089451953D01*
X0104017035Y0089942573D01*
X0104017044Y0089942585D01*
X0104017507Y0089943277D01*
X0104259255Y0090327695D01*
X0104708098Y0091041428D01*
X0104708103Y0091041438D01*
X0104708576Y0091042190D01*
X0105368785Y0092159916D01*
X0105934163Y0093180989D01*
X0105997184Y0093294806D01*
X0105997187Y0093294812D01*
X0105997617Y0093295590D01*
X0106594589Y0094448331D01*
X0106815382Y0094905410D01*
X0107158819Y0095616384D01*
X0107158830Y0095616407D01*
X0107159235Y0095617246D01*
X0107691118Y0096801428D01*
X0107849168Y0097181265D01*
X0107893806Y0097236474D01*
X0107961205Y0097258787D01*
X0108029968Y0097241118D01*
G37*
%TD.AperFunction*%
%TA.AperFunction,Conductor*%
G36*
X0111070426Y0097186429D02*
G01*
X0111104486Y0097139175D01*
X0111243471Y0096802284D01*
X0111267474Y0096744099D01*
X0111267835Y0096743289D01*
X0111267839Y0096743282D01*
X0111612703Y0095969494D01*
X0111803849Y0095540609D01*
X0112373683Y0094352596D01*
X0112976528Y0093180989D01*
X0113611914Y0092026705D01*
X0113612328Y0092025999D01*
X0113612343Y0092025975D01*
X0113968114Y0091420405D01*
X0114279344Y0090890650D01*
X0114978293Y0089773710D01*
X0115198044Y0089443463D01*
X0115707730Y0088677493D01*
X0115707749Y0088677465D01*
X0115708216Y0088676762D01*
X0116468543Y0087600662D01*
X0117258675Y0086546254D01*
X0117259213Y0086545575D01*
X0117259228Y0086545557D01*
X0117888856Y0085752577D01*
X0118077997Y0085514364D01*
X0118925864Y0084505799D01*
X0119188145Y0084210962D01*
X0119801007Y0083522032D01*
X0119801030Y0083522007D01*
X0119801617Y0083521346D01*
X0119802236Y0083520689D01*
X0119802248Y0083520675D01*
X0120435938Y0082847252D01*
X0120704567Y0082561781D01*
X0120705167Y0082561177D01*
X0120705171Y0082561174D01*
X0121476698Y0081785921D01*
X0121634007Y0081627851D01*
X0121634659Y0081627232D01*
X0121634680Y0081627212D01*
X0121799443Y0081470666D01*
X0122589212Y0080720289D01*
X0122589899Y0080719672D01*
X0123568750Y0079840416D01*
X0123568773Y0079840395D01*
X0123569432Y0079839804D01*
X0124573901Y0078987086D01*
X0124574600Y0078986526D01*
X0124574603Y0078986523D01*
X0124626099Y0078945229D01*
X0125601831Y0078162803D01*
X0125602504Y0078162294D01*
X0125602523Y0078162278D01*
X0126612863Y0077397539D01*
X0126652420Y0077367599D01*
X0126653145Y0077367081D01*
X0126653162Y0077367069D01*
X0127671844Y0076639928D01*
X0127724843Y0076602097D01*
X0128818263Y0075866897D01*
X0129283215Y0075572816D01*
X0129330091Y0075519500D01*
X0129340702Y0075449302D01*
X0129311677Y0075384510D01*
X0129304368Y0075376654D01*
X0129176430Y0075250385D01*
X0128842165Y0074920479D01*
X0128840820Y0074919152D01*
X0128836030Y0074914665D01*
X0128704411Y0074797668D01*
X0128313959Y0074450591D01*
X0128308934Y0074446354D01*
X0127763392Y0074010155D01*
X0127758152Y0074006185D01*
X0127190604Y0073599032D01*
X0127185165Y0073595342D01*
X0126822097Y0073362563D01*
X0126636260Y0073243415D01*
X0126597153Y0073218342D01*
X0126591535Y0073214943D01*
X0125984645Y0072869114D01*
X0125978857Y0072866013D01*
X0125354762Y0072552309D01*
X0125348823Y0072549515D01*
X0124709218Y0072268788D01*
X0124703133Y0072266303D01*
X0124106140Y0072040629D01*
X0124049771Y0072019320D01*
X0124043567Y0072017158D01*
X0123868072Y0071961090D01*
X0123378214Y0071804587D01*
X0123371902Y0071802750D01*
X0122696359Y0071625166D01*
X0122689960Y0071623661D01*
X0122006071Y0071481550D01*
X0121999603Y0071480381D01*
X0121309240Y0071374132D01*
X0121302720Y0071373302D01*
X0121091337Y0071351980D01*
X0120607751Y0071303201D01*
X0120601214Y0071302714D01*
X0120357450Y0071290918D01*
X0119903522Y0071268953D01*
X0119896950Y0071268807D01*
X0119568154Y0071270063D01*
X0119198445Y0071271479D01*
X0119191909Y0071271673D01*
X0118494503Y0071310773D01*
X0118487952Y0071311312D01*
X0117793545Y0071386727D01*
X0117787031Y0071387607D01*
X0117139164Y0071492397D01*
X0117117157Y0071498031D01*
X0117109852Y0071500622D01*
X0117109854Y0071500622D01*
X0117101389Y0071503625D01*
X0117096533Y0071503898D01*
X0117091927Y0071505437D01*
X0117082961Y0071505775D01*
X0117082960Y0071505775D01*
X0117058968Y0071506678D01*
X0117025058Y0071507957D01*
X0117022743Y0071508067D01*
X0116955963Y0071511839D01*
X0116951227Y0071510740D01*
X0116946373Y0071510922D01*
X0116937670Y0071508730D01*
X0116937669Y0071508730D01*
X0116881525Y0071494584D01*
X0116879231Y0071494028D01*
X0116814077Y0071478905D01*
X0116809844Y0071476523D01*
X0116805129Y0071475335D01*
X0116758401Y0071447874D01*
X0116747458Y0071441442D01*
X0116745510Y0071440322D01*
X0116687137Y0071407474D01*
X0116683739Y0071403995D01*
X0116679552Y0071401535D01*
X0116633750Y0071352860D01*
X0116632117Y0071351157D01*
X0116585349Y0071303285D01*
X0116583066Y0071298997D01*
X0116579734Y0071295456D01*
X0116549420Y0071235854D01*
X0116548330Y0071233759D01*
X0116521111Y0071182640D01*
X0116521110Y0071182638D01*
X0116516893Y0071174715D01*
X0116515905Y0071169957D01*
X0116513702Y0071165626D01*
X0116512042Y0071156804D01*
X0116512041Y0071156802D01*
X0116501341Y0071099942D01*
X0116500882Y0071097624D01*
X0116487275Y0071032101D01*
X0116487662Y0071027258D01*
X0116486763Y0071022481D01*
X0116487644Y0071013550D01*
X0116487644Y0071013547D01*
X0116493339Y0070955897D01*
X0116493550Y0070953546D01*
X0116498874Y0070886907D01*
X0116500604Y0070882369D01*
X0116501082Y0070877529D01*
X0116504224Y0070865375D01*
X0116505984Y0070861298D01*
X0116507488Y0070856522D01*
X0116842109Y0069692974D01*
X0116842401Y0069692066D01*
X0117213801Y0068531799D01*
X0117213808Y0068531782D01*
X0117214075Y0068530947D01*
X0117620455Y0067380504D01*
X0117620804Y0067379603D01*
X0118048859Y0066273748D01*
X0118060891Y0066242662D01*
X0118534991Y0065118432D01*
X0119042338Y0064008808D01*
X0119042757Y0064007959D01*
X0119042769Y0064007932D01*
X0119582067Y0062915608D01*
X0119582480Y0062914773D01*
X0120154940Y0061837297D01*
X0120155375Y0061836533D01*
X0120155386Y0061836513D01*
X0120758740Y0060778155D01*
X0120759210Y0060777333D01*
X0121394755Y0059735821D01*
X0121395255Y0059735051D01*
X0121395272Y0059735027D01*
X0121673624Y0059307992D01*
X0122061012Y0058713683D01*
X0122061556Y0058712901D01*
X0122061567Y0058712885D01*
X0122757392Y0057711823D01*
X0122757925Y0057711104D01*
X0122757945Y0057711076D01*
X0123024439Y0057351034D01*
X0123483276Y0056731132D01*
X0123483844Y0056730412D01*
X0123483866Y0056730383D01*
X0124237428Y0055773230D01*
X0124237448Y0055773207D01*
X0124238024Y0055772476D01*
X0125020963Y0054836704D01*
X0125021572Y0054836018D01*
X0125021577Y0054836014D01*
X0125199945Y0054635281D01*
X0125831405Y0053924645D01*
X0126668629Y0053037108D01*
X0126669277Y0053036458D01*
X0127531220Y0052175551D01*
X0127531894Y0052174879D01*
X0127532560Y0052174251D01*
X0127532584Y0052174229D01*
X0127849221Y0051876259D01*
X0127885122Y0051815008D01*
X0127882208Y0051744072D01*
X0127841407Y0051685970D01*
X0127775670Y0051659152D01*
X0127762870Y0051658500D01*
X0126516370Y0051658500D01*
X0126448250Y0051678501D01*
X0126427276Y0051695404D01*
X0123583769Y0054538911D01*
X0123571384Y0054553323D01*
X0123562851Y0054564918D01*
X0123562846Y0054564922D01*
X0123558507Y0054570818D01*
X0123552930Y0054575557D01*
X0123552927Y0054575559D01*
X0123518232Y0054605035D01*
X0123510716Y0054611965D01*
X0123505021Y0054617660D01*
X0123488735Y0054630544D01*
X0123482749Y0054635281D01*
X0123479345Y0054638071D01*
X0123429296Y0054680591D01*
X0123429295Y0054680592D01*
X0123423714Y0054685333D01*
X0123417199Y0054688660D01*
X0123412150Y0054692027D01*
X0123407020Y0054695195D01*
X0123401284Y0054699734D01*
X0123335125Y0054730655D01*
X0123331224Y0054732561D01*
X0123266191Y0054765769D01*
X0123259084Y0054767508D01*
X0123253441Y0054769606D01*
X0123247678Y0054771524D01*
X0123241050Y0054774621D01*
X0123169582Y0054789486D01*
X0123165299Y0054790457D01*
X0123130958Y0054798860D01*
X0123094390Y0054807807D01*
X0123088788Y0054808156D01*
X0123088785Y0054808156D01*
X0123083236Y0054808499D01*
X0123083238Y0054808536D01*
X0123079244Y0054808775D01*
X0123075053Y0054809149D01*
X0123067884Y0054810640D01*
X0123004120Y0054808915D01*
X0122990479Y0054808546D01*
X0122987072Y0054808499D01*
X0118617068Y0054808499D01*
X0118598120Y0054809933D01*
X0118590780Y0054811049D01*
X0118583882Y0054812099D01*
X0118583880Y0054812099D01*
X0118576651Y0054813199D01*
X0118569358Y0054812606D01*
X0118569356Y0054812606D01*
X0118523981Y0054808915D01*
X0118513767Y0054808499D01*
X0118505707Y0054808499D01*
X0118492416Y0054806951D01*
X0118477493Y0054805211D01*
X0118473118Y0054804778D01*
X0118407660Y0054799454D01*
X0118407658Y0054799453D01*
X0118400363Y0054798860D01*
X0118393398Y0054796604D01*
X0118387440Y0054795413D01*
X0118381585Y0054794028D01*
X0118374319Y0054793182D01*
X0118305673Y0054768265D01*
X0118301545Y0054766847D01*
X0118239064Y0054746607D01*
X0118239061Y0054746606D01*
X0118232101Y0054744350D01*
X0118225845Y0054740555D01*
X0118220372Y0054738049D01*
X0118214942Y0054735330D01*
X0118208063Y0054732833D01*
X0118201943Y0054728820D01*
X0118201942Y0054728820D01*
X0118147023Y0054692814D01*
X0118143319Y0054690477D01*
X0118080893Y0054652595D01*
X0118072516Y0054645196D01*
X0118072492Y0054645224D01*
X0118069500Y0054642571D01*
X0118066267Y0054639868D01*
X0118060148Y0054635856D01*
X0118030950Y0054605035D01*
X0118006871Y0054579617D01*
X0118004494Y0054577175D01*
X0113957630Y0050530311D01*
X0113895319Y0050496286D01*
X0113824503Y0050501351D01*
X0113767667Y0050543898D01*
X0113742856Y0050610417D01*
X0113757948Y0050679792D01*
X0113769721Y0050697582D01*
X0113785281Y0050717251D01*
X0113788072Y0050720654D01*
X0113830591Y0050770703D01*
X0113830592Y0050770705D01*
X0113835332Y0050776285D01*
X0113838661Y0050782801D01*
X0113842028Y0050787850D01*
X0113845194Y0050792979D01*
X0113849734Y0050798716D01*
X0113880654Y0050864875D01*
X0113882561Y0050868775D01*
X0113882614Y0050868880D01*
X0113915769Y0050933808D01*
X0113917508Y0050940916D01*
X0113919607Y0050946558D01*
X0113921524Y0050952321D01*
X0113924622Y0050958950D01*
X0113927078Y0050970760D01*
X0113939485Y0051030412D01*
X0113940457Y0051034701D01*
X0113956472Y0051100155D01*
X0113957808Y0051105610D01*
X0113958499Y0051116764D01*
X0113958536Y0051116761D01*
X0113958775Y0051120755D01*
X0113959149Y0051124947D01*
X0113960640Y0051132115D01*
X0113958546Y0051209520D01*
X0113958499Y0051212928D01*
X0113958499Y0063532929D01*
X0113959933Y0063551880D01*
X0113962099Y0063566115D01*
X0113962099Y0063566119D01*
X0113963199Y0063573348D01*
X0113958914Y0063626018D01*
X0113958499Y0063636233D01*
X0113958499Y0063644293D01*
X0113955209Y0063672520D01*
X0113954778Y0063676879D01*
X0113949454Y0063742338D01*
X0113949453Y0063742340D01*
X0113948860Y0063749635D01*
X0113946604Y0063756600D01*
X0113945416Y0063762539D01*
X0113944030Y0063768410D01*
X0113943182Y0063775681D01*
X0113940686Y0063782557D01*
X0113940684Y0063782566D01*
X0113918275Y0063844297D01*
X0113916865Y0063848401D01*
X0113894352Y0063917899D01*
X0113890556Y0063924154D01*
X0113888057Y0063929613D01*
X0113885329Y0063935061D01*
X0113882833Y0063941936D01*
X0113842805Y0064002990D01*
X0113840481Y0064006673D01*
X0113839186Y0064008808D01*
X0113829096Y0064025433D01*
X0113805504Y0064064313D01*
X0113805500Y0064064318D01*
X0113802595Y0064069107D01*
X0113795197Y0064077483D01*
X0113795223Y0064077507D01*
X0113792578Y0064080489D01*
X0113789872Y0064083726D01*
X0113785856Y0064089851D01*
X0113729616Y0064143128D01*
X0113727174Y0064145505D01*
X0112820124Y0065052556D01*
X0112789387Y0065102716D01*
X0112736569Y0065265271D01*
X0112734527Y0065271556D01*
X0112639040Y0065436944D01*
X0112511253Y0065578866D01*
X0112465439Y0065612151D01*
X0112422085Y0065668375D01*
X0112413500Y0065714088D01*
X0112413500Y0065774000D01*
X0112413140Y0065777350D01*
X0112402128Y0065879785D01*
X0112402127Y0065879791D01*
X0112401766Y0065883149D01*
X0112401048Y0065886450D01*
X0112391094Y0065932210D01*
X0112391093Y0065932215D01*
X0112390380Y0065935491D01*
X0112355709Y0066039657D01*
X0112276692Y0066162611D01*
X0112230199Y0066216268D01*
X0112220933Y0066224297D01*
X0112126550Y0066306081D01*
X0112126546Y0066306083D01*
X0112119739Y0066311982D01*
X0111986790Y0066372698D01*
X0111963035Y0066379673D01*
X0111922992Y0066391431D01*
X0111922988Y0066391432D01*
X0111918669Y0066392699D01*
X0111914220Y0066393339D01*
X0111914213Y0066393340D01*
X0111778447Y0066412860D01*
X0111778442Y0066412860D01*
X0111774000Y0066413500D01*
X0111026000Y0066413500D01*
X0111024891Y0066413381D01*
X0110956214Y0066429607D01*
X0110906915Y0066480695D01*
X0110892561Y0066538974D01*
X0110892200Y0066900000D01*
X0110900000Y0066900000D01*
X0111900000Y0066900000D01*
X0111900000Y0068900000D01*
X0110900000Y0068900000D01*
X0110900000Y0066900000D01*
X0110892200Y0066900000D01*
X0110875577Y0083522032D01*
X0110862009Y0097090998D01*
X0110881943Y0097159137D01*
X0110935552Y0097205683D01*
X0111005816Y0097215857D01*
X0111070426Y0097186429D01*
G37*
%TD.AperFunction*%
%TD*%
%TA.AperFunction,Conductor*%
%TO.N,/DIN*%
G36*
X0111942120Y0002479997D02*
G01*
X0111988614Y0002426342D01*
X0112000000Y0002373999D01*
X0112000000Y0001626000D01*
X0111979998Y0001557879D01*
X0111926342Y0001511385D01*
X0111874000Y0001500000D01*
X0110126000Y0001500000D01*
X0110057879Y0001520002D01*
X0110011385Y0001573657D01*
X0110000000Y0001626000D01*
X0110000000Y0002373999D01*
X0110020002Y0002442121D01*
X0110073658Y0002488613D01*
X0110126000Y0002500000D01*
X0111874000Y0002500000D01*
X0111942120Y0002479997D01*
G37*
%TD.AperFunction*%
%TD*%
%TA.AperFunction,Conductor*%
%TO.N,/DIN*%
G36*
X0108942120Y0002479997D02*
G01*
X0108988614Y0002426342D01*
X0109000000Y0002373999D01*
X0109000000Y0001626000D01*
X0108979998Y0001557879D01*
X0108926342Y0001511385D01*
X0108874000Y0001500000D01*
X0107126000Y0001500000D01*
X0107057879Y0001520002D01*
X0107011385Y0001573657D01*
X0107000000Y0001626000D01*
X0107000000Y0002373999D01*
X0107020002Y0002442121D01*
X0107073658Y0002488613D01*
X0107126000Y0002500000D01*
X0108874000Y0002500000D01*
X0108942120Y0002479997D01*
G37*
%TD.AperFunction*%
%TD*%
%TA.AperFunction,Conductor*%
%TO.N,GND*%
G36*
X0114942120Y0002479997D02*
G01*
X0114988614Y0002426342D01*
X0115000000Y0002373999D01*
X0115000000Y0001626000D01*
X0114979998Y0001557879D01*
X0114926342Y0001511385D01*
X0114874000Y0001500000D01*
X0113126000Y0001500000D01*
X0113057879Y0001520002D01*
X0113011385Y0001573657D01*
X0113000000Y0001626000D01*
X0113000000Y0002373999D01*
X0113020002Y0002442121D01*
X0113073658Y0002488613D01*
X0113126000Y0002500000D01*
X0114874000Y0002500000D01*
X0114942120Y0002479997D01*
G37*
%TD.AperFunction*%
%TD*%
M02*