%
M48
METRIC,000.000
T01C0.40
%
T01
X087248Y021549
X087299Y018300
X089649Y019949
X092699Y021100
X092699Y019149
X097850Y074749
X097949Y078100
X100350Y076449
X102001Y002499
X103598Y077549
X103598Y075649
X105001Y002499
X107099Y067899
X107099Y064998
X107099Y061900
X108000Y002499
X111000Y002499
X111899Y067899
X111899Y064899
X111899Y061900
X114000Y002499
X116999Y002499
X118998Y048648
X119049Y050599
X122250Y049050
X125049Y050650
X125100Y047399
M30