%TF.GenerationSoftware,KiCad,Pcbnew,(6.0.7)*%
%TF.CreationDate,2022-11-21T20:11:54+01:00*%
%TF.ProjectId,Arbolito Tronco 2,4172626f-6c69-4746-9f20-54726f6e636f,rev?*%
%TF.SameCoordinates,Original*%
%TF.FileFunction,Copper,L2,Bot*%
%TF.FilePolarity,Positive*%
%FSLAX46Y46*%
G04 Gerber Fmt 4.6, Leading zero omitted, Abs format (unit mm)*
G04 Created by KiCad (PCBNEW (6.0.7)) date 2022-11-21 20:11:54*
%MOMM*%
%LPD*%
G01*
G04 APERTURE LIST*
G04 Aperture macros list*
%AMRoundRect*
4,1,4,-2.0000000000000004,-2.9999999999999996,-4.0000000000000009,-4.9999999999999991,-6.0000000000000009,-6.9999999999999991,-8.0000000000000018,-8.9999999999999982,-2.0000000000000004,-2.9999999999999996,0*
1,1,$1,$2,$3*
1,1,$1,$2,$3*
1,1,$1,$2,$3*
1,1,$1,$2,$3*
20,1,$1,$2,$3,$4,$5,180*
20,1,$1,$2,$3,$4,$5,180*
20,1,$1,$2,$3,$4,$5,180*
20,1,$1,$2,$3,$4,$5,180*%
G04 Aperture macros list end*
%TA.AperFunction,SMDPad,CuDef*%
%ADD10R,1.5X1*%
%TD*%
%TA.AperFunction,SMDPad,CuDef*%
%AMCOMP55*
4,1,3,
0.47499999999999992,-0.25000000000000006,
0.47500000000000003,0.24999999999999994,
-0.47499999999999992,0.25000000000000006,
-0.47500000000000003,-0.24999999999999994,
0*
4,1,19,
0.47499999999999992,-0.50000000000000011,
0.39774575140626306,-0.48776412907378847,
0.32805368692688164,-0.45225424859373692,
0.27274575140626306,-0.39694631307311834,
0.23723587092621157,-0.32725424859373692,
0.22499999999999995,-0.25,
0.23723587092621154,-0.17274575140626319,
0.27274575140626311,-0.10305368692688177,
0.32805368692688164,-0.047745751406263207,
0.39774575140626311,-0.012235870926211666,
0.47499999999999992,-0.000000000000000058168801806562912,
0.552254248593737,-0.012235870926211685,
0.62194631307311821,-0.047745751406263186,
0.67725424859373684,-0.10305368692688177,
0.71276412907378839,-0.17274575140626319,
0.725,-0.25000000000000006,
0.71276412907378839,-0.32725424859373692,
0.67725424859373684,-0.39694631307311828,
0.62194631307311832,-0.45225424859373692,
0.55225424859373673,-0.48776412907378847,
0*
4,1,19,
0.475,-0.000000000000000058168801806562912,
0.39774575140626311,0.012235870926211569,
0.32805368692688169,0.047745751406263096,
0.27274575140626311,0.10305368692688169,
0.23723587092621162,0.17274575140626311,
0.225,0.24999999999999994,
0.2372358709262116,0.32725424859373681,
0.27274575140626317,0.39694631307311817,
0.32805368692688169,0.45225424859373681,
0.39774575140626317,0.48776412907378836,
0.475,0.49999999999999994,
0.55225424859373706,0.48776412907378836,
0.62194631307311821,0.45225424859373681,
0.67725424859373684,0.39694631307311828,
0.71276412907378839,0.32725424859373675,
0.725,0.24999999999999997,
0.71276412907378839,0.17274575140626311,
0.67725424859373684,0.10305368692688169,
0.62194631307311832,0.047745751406263089,
0.55225424859373684,0.01223587092621155,
0*
4,1,19,
-0.475,0.000000000000000058168801806562912,
-0.55225424859373684,0.012235870926211685,
-0.62194631307311821,0.047745751406263214,
-0.67725424859373684,0.1030536869268818,
-0.71276412907378839,0.17274575140626322,
-0.725,0.25000000000000006,
-0.71276412907378839,0.327254248593737,
-0.67725424859373684,0.39694631307311828,
-0.62194631307311832,0.45225424859373692,
-0.55225424859373673,0.48776412907378847,
-0.475,0.50000000000000011,
-0.397745751406263,0.48776412907378847,
-0.32805368692688169,0.45225424859373692,
-0.27274575140626306,0.3969463130731184,
-0.23723587092621157,0.32725424859373692,
-0.22499999999999995,0.25000000000000006,
-0.23723587092621154,0.17274575140626322,
-0.27274575140626311,0.1030536869268818,
-0.32805368692688164,0.047745751406263207,
-0.39774575140626306,0.012235870926211666,
0*
4,1,19,
-0.47500000000000003,-0.49999999999999994,
-0.552254248593737,-0.48776412907378836,
-0.62194631307311821,-0.45225424859373681,
-0.67725424859373684,-0.39694631307311823,
-0.71276412907378839,-0.32725424859373675,
-0.725,-0.24999999999999992,
-0.71276412907378839,-0.17274575140626308,
-0.67725424859373684,-0.10305368692688166,
-0.62194631307311832,-0.047745751406263089,
-0.55225424859373684,-0.01223587092621155,
-0.47500000000000003,0.000000000000000058168801806562925,
-0.39774575140626306,-0.012235870926211569,
-0.32805368692688175,-0.047745751406263068,
-0.27274575140626311,-0.10305368692688166,
-0.23723587092621162,-0.17274575140626308,
-0.225,-0.24999999999999992,
-0.2372358709262116,-0.32725424859373675,
-0.27274575140626317,-0.39694631307311817,
-0.32805368692688169,-0.45225424859373681,
-0.39774575140626311,-0.48776412907378836,
0*
4,1,3,
0.725,-0.25000000000000011,
0.22499999999999995,-0.25,
0.225,0.24999999999999997,
0.725,0.24999999999999989,
0*
4,1,3,
0.47500000000000003,0.49999999999999994,
0.475,-0.000000000000000058168801806562912,
-0.475,0.000000000000000058168801806562912,
-0.47499999999999992,0.50000000000000011,
0*
4,1,3,
-0.725,0.25000000000000011,
-0.22499999999999995,0.25,
-0.225,-0.24999999999999997,
-0.725,-0.24999999999999989,
0*
4,1,3,
-0.47500000000000003,-0.49999999999999994,
-0.475,0.000000000000000058168801806562912,
0.475,-0.000000000000000058168801806562912,
0.47499999999999992,-0.50000000000000011,
0*%
%ADD11COMP55,0.25X-0.475X0.25X-0.475X-0.25X0.475X-0.25X0.475X0.25X0*%
%TD*%
%TA.AperFunction,ViaPad*%
%ADD12C,0.8*%
%TD*%
%TA.AperFunction,Conductor*%
%ADD13C,0.5*%
%TD*%
G04 APERTURE END LIST*
D10*
%TO.P,U3,1,VDD*%
%TO.N,+5V*%
X0289000000Y-0015000000D02*
X0131850000Y0064350000D03*
%TO.P,U3,2,DIN*%
%TO.N,Net-(U2-Pad4)*%
X0131850000Y0067550000D03*
%TO.P,U3,3,VSS*%
%TO.N,GND*%
X0136750000Y0067550000D03*
%TO.P,U3,4,DOUT*%
%TO.N,Net-(U3-Pad4)*%
X0136750000Y0064350000D03*
%TD*%
D11*
%TO.P,C13,1*%
%TO.N,+5V*%
X0166300000Y0093900000D03*
%TO.P,C13,2*%
%TO.N,GND*%
X0166300000Y0095800000D03*
%TD*%
D10*
%TO.P,U6,1,VDD*%
%TO.N,+5V*%
X0158700000Y0036950000D03*
%TO.P,U6,2,DIN*%
%TO.N,Net-(U5-Pad4)*%
X0158700000Y0040150000D03*
%TO.P,U6,3,VSS*%
%TO.N,GND*%
X0163600000Y0040150000D03*
%TO.P,U6,4,DOUT*%
%TO.N,/Dout*%
X0163600000Y0036950000D03*
%TD*%
%TO.P,U2,1,VDD*%
%TO.N,+5V*%
X0169450000Y0093400000D03*
%TO.P,U2,2,DIN*%
%TO.N,Net-(U1-Pad4)*%
X0169450000Y0096600000D03*
%TO.P,U2,3,VSS*%
%TO.N,GND*%
X0174350000Y0096600000D03*
%TO.P,U2,4,DOUT*%
%TO.N,Net-(U2-Pad4)*%
X0174350000Y0093400000D03*
%TD*%
D11*
%TO.P,C15,1*%
%TO.N,+5V*%
X0155400000Y0037450000D03*
%TO.P,C15,2*%
%TO.N,GND*%
X0155400000Y0039350000D03*
%TD*%
%TO.P,C11,1*%
%TO.N,+5V*%
X0139950000Y0064400000D03*
%TO.P,C11,2*%
%TO.N,GND*%
X0139950000Y0066300000D03*
%TD*%
D12*
%TO.N,+5V*%
X0166300000Y0093900000D03*
X0139950000Y0064400000D03*
X0151900000Y0047100000D03*
X0161050000Y0036900000D03*
X0171750000Y0093450000D03*
X0147100000Y0047100000D03*
X0155400000Y0037450000D03*
X0133949999Y0064350000D03*
%TO.N,GND*%
X0133900000Y0067600000D03*
X0166300000Y0095850000D03*
X0151900000Y0053100000D03*
X0147100000Y0053100000D03*
X0171700000Y0096700000D03*
X0155400000Y0039350000D03*
X0161150000Y0040250000D03*
X0140000000Y0066350000D03*
%TO.N,/DIN*%
X0147100000Y0050100000D03*
X0151900000Y0050000000D03*
%TO.N,Net-(U1-Pad4)*%
X0169350000Y0095050000D03*
%TO.N,Net-(U3-Pad4)*%
X0136750000Y0065950000D03*
%TO.N,Net-(U5-Pad4)*%
X0158650000Y0038550000D03*
%TD*%
D13*
%TO.N,+5V*%
X0169500000Y0093450000D02*
X0169450000Y0093400000D01*
X0133949999Y0064350000D02*
X0131850000Y0064350000D01*
X0161050000Y0036900000D02*
X0158750000Y0036900000D01*
X0158750000Y0036900000D02*
X0158700000Y0036950000D01*
X0147100000Y0047100000D02*
X0147100000Y0047300000D01*
X0171750000Y0093450000D02*
X0169500000Y0093450000D01*
%TO.N,GND*%
X0174250000Y0096700000D02*
X0174350000Y0096600000D01*
X0171700000Y0096700000D02*
X0174250000Y0096700000D01*
X0140250000Y0066350000D02*
X0140000000Y0066350000D01*
X0136700000Y0067600000D02*
X0136750000Y0067550000D01*
X0133900000Y0067600000D02*
X0136700000Y0067600000D01*
%TO.N,Net-(U1-Pad4)*%
X0169450000Y0096600000D02*
X0169450000Y0095150000D01*
X0169450000Y0095150000D02*
X0169350000Y0095050000D01*
%TO.N,Net-(U2-Pad4)*%
X0131800000Y0067600000D02*
X0131850000Y0067550000D01*
X0147600000Y0062100000D02*
X0151200000Y0062100000D01*
X0151200000Y0062100000D02*
X0152075000Y0062975000D01*
X0133199999Y0068900000D02*
X0144500000Y0068900000D01*
X0146700000Y0063000000D02*
X0147600000Y0062100000D01*
X0146700000Y0066700000D02*
X0146700000Y0063000000D01*
X0131850000Y0067550000D02*
X0133199999Y0068900000D01*
X0152075000Y0071125000D02*
X0174350000Y0093400000D01*
X0152075000Y0062975000D02*
X0152075000Y0071125000D01*
X0144500000Y0068900000D02*
X0146700000Y0066700000D01*
%TO.N,Net-(U3-Pad4)*%
X0136750000Y0064350000D02*
X0136750000Y0065950000D01*
%TO.N,Net-(U5-Pad4)*%
X0158650000Y0038550000D02*
X0158650000Y0040100000D01*
X0158650000Y0040100000D02*
X0158700000Y0040150000D01*
%TD*%
%TA.AperFunction,Conductor*%
%TO.N,/DIN*%
G36*
X0150957879Y0049120002D02*
G01*
X0150911386Y0049173658D01*
X0150900000Y0049226000D01*
X0150900000Y0050974000D01*
X0150920002Y0051042121D01*
X0150973658Y0051088614D01*
X0151026000Y0051100000D01*
X0151774000Y0051100000D01*
X0151842121Y0051079998D01*
X0151888614Y0051026342D01*
X0151900000Y0050974000D01*
X0151900000Y0049226000D01*
X0151879998Y0049157879D01*
X0151826342Y0049111386D01*
X0151774000Y0049100000D01*
X0151026000Y0049100000D01*
X0150957879Y0049120002D01*
G37*
%TD.AperFunction*%
%TD*%
%TA.AperFunction,Conductor*%
%TO.N,/DIN*%
G36*
X0147157879Y0049120002D02*
G01*
X0147111386Y0049173658D01*
X0147100000Y0049226000D01*
X0147100000Y0050974000D01*
X0147120002Y0051042121D01*
X0147173658Y0051088614D01*
X0147226000Y0051100000D01*
X0147974000Y0051100000D01*
X0148042121Y0051079998D01*
X0148088614Y0051026342D01*
X0148100000Y0050974000D01*
X0148100000Y0049226000D01*
X0148079998Y0049157879D01*
X0148026342Y0049111386D01*
X0147974000Y0049100000D01*
X0147226000Y0049100000D01*
X0147157879Y0049120002D01*
G37*
%TD.AperFunction*%
%TD*%
%TA.AperFunction,Conductor*%
%TO.N,+5V*%
G36*
X0150957879Y0046120002D02*
G01*
X0150911386Y0046173658D01*
X0150900000Y0046226000D01*
X0150900000Y0047974000D01*
X0150920002Y0048042121D01*
X0150973658Y0048088614D01*
X0151026000Y0048100000D01*
X0151774000Y0048100000D01*
X0151842121Y0048079998D01*
X0151888614Y0048026342D01*
X0151900000Y0047974000D01*
X0151900000Y0046226000D01*
X0151879998Y0046157879D01*
X0151826342Y0046111386D01*
X0151774000Y0046100000D01*
X0151026000Y0046100000D01*
X0150957879Y0046120002D01*
G37*
%TD.AperFunction*%
%TD*%
%TA.AperFunction,Conductor*%
%TO.N,+5V*%
G36*
X0147157879Y0046120002D02*
G01*
X0147111386Y0046173658D01*
X0147100000Y0046226000D01*
X0147100000Y0047974000D01*
X0147120002Y0048042121D01*
X0147173658Y0048088614D01*
X0147226000Y0048100000D01*
X0147974000Y0048100000D01*
X0148042121Y0048079998D01*
X0148088614Y0048026342D01*
X0148100000Y0047974000D01*
X0148100000Y0046226000D01*
X0148079998Y0046157879D01*
X0148026342Y0046111386D01*
X0147974000Y0046100000D01*
X0147226000Y0046100000D01*
X0147157879Y0046120002D01*
G37*
%TD.AperFunction*%
%TD*%
%TA.AperFunction,Conductor*%
%TO.N,GND*%
G36*
X0150900000Y0054100000D02*
G01*
X0151900000Y0054100000D01*
X0151900000Y0052100000D01*
X0150900000Y0052100000D01*
X0150900000Y0054100000D01*
G37*
%TD.AperFunction*%
%TD*%
%TA.AperFunction,NonConductor*%
G36*
X0141057879Y0112120002D02*
G01*
X0141011386Y0112173658D01*
X0141000000Y0112226000D01*
X0141000000Y0112765500D01*
X0141020002Y0112833621D01*
X0141073658Y0112880114D01*
X0141126000Y0112891500D01*
X0144974000Y0112891500D01*
X0145042121Y0112871498D01*
X0145088614Y0112817842D01*
X0145100000Y0112765500D01*
X0145100000Y0112226000D01*
X0145079998Y0112157879D01*
X0145026342Y0112111386D01*
X0144974000Y0112100000D01*
X0141126000Y0112100000D01*
X0141057879Y0112120002D01*
G37*
%TD.AperFunction*%
%TA.AperFunction,Conductor*%
%TO.N,GND*%
G36*
X0147100000Y0054100000D02*
G01*
X0148100000Y0054100000D01*
X0148100000Y0052100000D01*
X0147100000Y0052100000D01*
X0147100000Y0054100000D01*
G37*
%TD.AperFunction*%
%TD*%
%TA.AperFunction,NonConductor*%
G36*
X0153957879Y0112120002D02*
G01*
X0153911386Y0112173658D01*
X0153900000Y0112226000D01*
X0153900000Y0112765500D01*
X0153920002Y0112833621D01*
X0153973658Y0112880114D01*
X0154026000Y0112891500D01*
X0157874000Y0112891500D01*
X0157942121Y0112871498D01*
X0157988614Y0112817842D01*
X0158000000Y0112765500D01*
X0158000000Y0112226000D01*
X0157979998Y0112157879D01*
X0157926342Y0112111386D01*
X0157874000Y0112100000D01*
X0154026000Y0112100000D01*
X0153957879Y0112120002D01*
G37*
%TD.AperFunction*%
%TA.AperFunction,Conductor*%
%TO.N,GND*%
G36*
X0149343549Y0004869837D02*
G01*
X0149291609Y0004918239D01*
X0149280466Y0004942639D01*
X0147901661Y0009079054D01*
X0147900840Y0009082044D01*
X0147900958Y0009093704D01*
X0147889614Y0009117899D01*
X0147886932Y0009124613D01*
X0147885301Y0009128133D01*
X0147883063Y0009134847D01*
X0147879386Y0009140898D01*
X0147878571Y0009142657D01*
X0147874078Y0009151037D01*
X0147868152Y0009163676D01*
X0147862126Y0009176528D01*
X0147853429Y0009183616D01*
X0147847600Y0009193209D01*
X0147835702Y0009200940D01*
X0147835699Y0009200943D01*
X0147823986Y0009208554D01*
X0147813036Y0009216538D01*
X0147802220Y0009225353D01*
X0147802217Y0009225354D01*
X0147791218Y0009234319D01*
X0147780306Y0009236935D01*
X0147770895Y0009243050D01*
X0147756827Y0009244856D01*
X0147756821Y0009244858D01*
X0147742968Y0009246636D01*
X0147733366Y0009248397D01*
X0147731570Y0009248618D01*
X0147724636Y0009250280D01*
X0147717510Y0009250346D01*
X0147713407Y0009250850D01*
X0147706378Y0009251332D01*
X0147697308Y0009252496D01*
X0147694240Y0009252890D01*
X0147694239Y0009252890D01*
X0147680164Y0009254697D01*
X0147668955Y0009250971D01*
X0147665631Y0009250826D01*
X0143281315Y0009291422D01*
X0143213383Y0009312054D01*
X0143167389Y0009366138D01*
X0143157936Y0009436503D01*
X0143188026Y0009500808D01*
X0143207819Y0009518913D01*
X0146739627Y0012117025D01*
X0146742412Y0012118855D01*
X0146753681Y0012122392D01*
X0146764037Y0012132091D01*
X0146764036Y0012132091D01*
X0146772968Y0012140457D01*
X0146778122Y0012144740D01*
X0146781314Y0012147692D01*
X0146787017Y0012151887D01*
X0146791644Y0012157245D01*
X0146792833Y0012158345D01*
X0146799691Y0012165485D01*
X0146820446Y0012184924D01*
X0146824434Y0012195218D01*
X0146831650Y0012203575D01*
X0146837913Y0012226770D01*
X0146839065Y0012231036D01*
X0146843213Y0012243697D01*
X0146853489Y0012270223D01*
X0146852618Y0012281229D01*
X0146855496Y0012291887D01*
X0146852313Y0012308910D01*
X0146850270Y0012319838D01*
X0146848933Y0012329914D01*
X0146848651Y0012331366D01*
X0146848088Y0012338478D01*
X0146845947Y0012345279D01*
X0146845075Y0012349767D01*
X0146843489Y0012356111D01*
X0146838685Y0012381805D01*
X0146831609Y0012391441D01*
X0146830361Y0012394788D01*
X0145441225Y0016807335D01*
X0145439848Y0016878318D01*
X0145477066Y0016938777D01*
X0145541063Y0016969517D01*
X0145611520Y0016960778D01*
X0145636051Y0016946683D01*
X0148200480Y0015061074D01*
X0148198185Y0015057953D01*
X0148204430Y0015054489D01*
X0148204523Y0015054636D01*
X0148233277Y0015036547D01*
X0148240809Y0015031420D01*
X0148249436Y0015025077D01*
X0148255700Y0015022357D01*
X0148258823Y0015020477D01*
X0148269937Y0015013486D01*
X0148269938Y0015013486D01*
X0148281952Y0015005928D01*
X0148296052Y0015004328D01*
X0148297533Y0015003809D01*
X0148299065Y0015003522D01*
X0148312075Y0014997871D01*
X0148326251Y0014998421D01*
X0148326253Y0014998421D01*
X0148332976Y0014998682D01*
X0148352062Y0014997974D01*
X0148358745Y0014997216D01*
X0148358747Y0014997216D01*
X0148372845Y0014995617D01*
X0148386239Y0015000288D01*
X0148387795Y0015000462D01*
X0148389307Y0015000869D01*
X0148403481Y0015001420D01*
X0148421963Y0015011215D01*
X0148439462Y0015018851D01*
X0148444123Y0015020477D01*
X0148459218Y0015025742D01*
X0148469263Y0015035762D01*
X0148470581Y0015036588D01*
X0148471768Y0015037612D01*
X0148484306Y0015044257D01*
X0148492722Y0015055682D01*
X0148496706Y0015061090D01*
X0148509168Y0015075567D01*
X0148523982Y0015090344D01*
X0148528688Y0015103728D01*
X0148529518Y0015105045D01*
X0148530144Y0015106482D01*
X0148538560Y0015117907D01*
X0148541189Y0015131850D01*
X0148541190Y0015131853D01*
X0148542435Y0015138456D01*
X0148547387Y0015156906D01*
X0148549617Y0015163249D01*
X0148549617Y0015163252D01*
X0148554325Y0015176640D01*
X0148552760Y0015190748D01*
X0148552938Y0015192303D01*
X0148552879Y0015193858D01*
X0148555508Y0015207799D01*
X0148551831Y0015221499D01*
X0148551831Y0015221503D01*
X0148550086Y0015228005D01*
X0148546548Y0015246774D01*
X0148544243Y0015267558D01*
X0148544006Y0015268236D01*
X0148542873Y0015270033D01*
X0148542834Y0015270140D01*
X0148542823Y0015270187D01*
X0148542778Y0015270292D01*
X0148542236Y0015271766D01*
X0148085344Y0016514055D01*
X0148085022Y0016514860D01*
X0147912111Y0016946683D01*
X0147591853Y0017746486D01*
X0147591509Y0017747278D01*
X0147591504Y0017747291D01*
X0147063876Y0018963551D01*
X0147063514Y0018964385D01*
X0146500753Y0020166766D01*
X0145904027Y0021352657D01*
X0145273817Y0022521099D01*
X0144610634Y0023671146D01*
X0143915014Y0024801868D01*
X0143187520Y0025912351D01*
X0142428739Y0027001696D01*
X0141639287Y0028069022D01*
X0141638729Y0028069733D01*
X0140820365Y0029112748D01*
X0140820343Y0029112775D01*
X0140819801Y0029113466D01*
X0139970945Y0030134182D01*
X0139093404Y0031130346D01*
X0139092807Y0031130986D01*
X0138449836Y0031820318D01*
X0138187890Y0032101152D01*
X0138187316Y0032101734D01*
X0138187300Y0032101750D01*
X0137547820Y0032749392D01*
X0137255134Y0033045814D01*
X0136295890Y0033963567D01*
X0135310935Y0034853671D01*
X0135310259Y0034854247D01*
X0135310252Y0034854254D01*
X0134698073Y0035376633D01*
X0134301066Y0035715404D01*
X0133267099Y0036548070D01*
X0133266357Y0036548633D01*
X0133266349Y0036548639D01*
X0132210576Y0037350460D01*
X0132210557Y0037350474D01*
X0132209871Y0037350995D01*
X0132209179Y0037351491D01*
X0132209167Y0037351499D01*
X0131271701Y0038022304D01*
X0131130237Y0038123529D01*
X0130029069Y0038865049D01*
X0129239522Y0039364690D01*
X0129192657Y0039418018D01*
X0129182062Y0039488220D01*
X0129213837Y0039556101D01*
X0129435476Y0039798941D01*
X0129440033Y0039803679D01*
X0129948628Y0040305640D01*
X0129953416Y0040310125D01*
X0130062256Y0040406876D01*
X0130487488Y0040784868D01*
X0130492513Y0040789105D01*
X0131050605Y0041235339D01*
X0131055846Y0041239309D01*
X0131636450Y0041655827D01*
X0131641888Y0041659518D01*
X0132006150Y0041893063D01*
X0132209296Y0042023309D01*
X0132243427Y0042045191D01*
X0132249045Y0042048590D01*
X0132794964Y0042359676D01*
X0132869897Y0042402375D01*
X0132875685Y0042405476D01*
X0133514137Y0042726397D01*
X0133520076Y0042729191D01*
X0134174394Y0043016376D01*
X0134180479Y0043018860D01*
X0134848873Y0043271525D01*
X0134855080Y0043273688D01*
X0135535737Y0043491148D01*
X0135542049Y0043492985D01*
X0136233133Y0043674655D01*
X0136239532Y0043676160D01*
X0136939152Y0043821540D01*
X0136945621Y0043822709D01*
X0137651865Y0043931403D01*
X0137658386Y0043932233D01*
X0137874886Y0043954071D01*
X0138369342Y0044003946D01*
X0138375879Y0044004433D01*
X0138647797Y0044017591D01*
X0139089622Y0044038971D01*
X0139096194Y0044039117D01*
X0139432428Y0044037831D01*
X0139810766Y0044036383D01*
X0139817303Y0044036188D01*
X0140530753Y0043996190D01*
X0140537304Y0043995651D01*
X0141247685Y0043918500D01*
X0141254199Y0043917620D01*
X0141840991Y0043822709D01*
X0141926769Y0043808835D01*
X0141936663Y0043805921D01*
X0141948530Y0043803661D01*
X0141961525Y0043797975D01*
X0141975701Y0043798487D01*
X0141980377Y0043797596D01*
X0141989160Y0043796937D01*
X0141993916Y0043797119D01*
X0142007865Y0043794494D01*
X0142021571Y0043798177D01*
X0142027257Y0043798395D01*
X0142033255Y0043799297D01*
X0142038759Y0043800763D01*
X0142052941Y0043801275D01*
X0142065499Y0043807887D01*
X0142070109Y0043809115D01*
X0142078293Y0043812323D01*
X0142082504Y0043814552D01*
X0142096207Y0043818234D01*
X0142106958Y0043827495D01*
X0142111976Y0043830151D01*
X0142117012Y0043833580D01*
X0142121327Y0043837281D01*
X0142133883Y0043843892D01*
X0142142331Y0043855296D01*
X0142145948Y0043858398D01*
X0142151935Y0043864842D01*
X0142154762Y0043868675D01*
X0142165514Y0043877937D01*
X0142171185Y0043890944D01*
X0142174564Y0043895526D01*
X0142177603Y0043900780D01*
X0142179890Y0043905994D01*
X0142188336Y0043917394D01*
X0142191003Y0043931332D01*
X0142192915Y0043935690D01*
X0142195518Y0043944101D01*
X0142196403Y0043948781D01*
X0142202074Y0043961788D01*
X0142201544Y0043975967D01*
X0142202601Y0043981557D01*
X0142203062Y0043987623D01*
X0142202862Y0043993303D01*
X0142205529Y0044007240D01*
X0142201889Y0044020954D01*
X0142201721Y0044025712D01*
X0142199005Y0044043874D01*
X0142198656Y0044053200D01*
X0142198469Y0044053893D01*
X0142197195Y0044056284D01*
X0142196611Y0044057999D01*
X0141863154Y0045217494D01*
X0141862863Y0045218403D01*
X0141535391Y0046241432D01*
X0141493984Y0046370790D01*
X0141090657Y0047512589D01*
X0140653531Y0048641881D01*
X0140653183Y0048642706D01*
X0140653173Y0048642731D01*
X0140408614Y0049222649D01*
X0140182992Y0049757664D01*
X0139679458Y0050858950D01*
X0139679039Y0050859800D01*
X0139679026Y0050859826D01*
X0139143787Y0051943931D01*
X0139143375Y0051944765D01*
X0138575217Y0053014145D01*
X0138574781Y0053014909D01*
X0138574771Y0053014928D01*
X0137975956Y0054065322D01*
X0137975487Y0054066145D01*
X0137344717Y0055099831D01*
X0137344216Y0055100600D01*
X0137344200Y0055100625D01*
X0137067940Y0055524448D01*
X0136683466Y0056114289D01*
X0135992319Y0057108621D01*
X0135991786Y0057109341D01*
X0135991766Y0057109369D01*
X0135454028Y0057835868D01*
X0135271888Y0058081944D01*
X0135271321Y0058082664D01*
X0135271299Y0058082693D01*
X0134523407Y0059032642D01*
X0134523388Y0059032666D01*
X0134522812Y0059033397D01*
X0133745754Y0059962138D01*
X0132941402Y0060867343D01*
X0132940808Y0060867973D01*
X0132940794Y0060867988D01*
X0132126308Y0061731420D01*
X0132110469Y0061748212D01*
X0131253691Y0062603963D01*
X0130371827Y0063433838D01*
X0129465657Y0064237104D01*
X0129464958Y0064237687D01*
X0129464955Y0064237690D01*
X0128536690Y0065012459D01*
X0128536673Y0065012472D01*
X0128535985Y0065013047D01*
X0127583633Y0065760981D01*
X0127582866Y0065761548D01*
X0126610217Y0066479676D01*
X0126610195Y0066479692D01*
X0126609446Y0066480244D01*
X0126608669Y0066480783D01*
X0126608657Y0066480792D01*
X0125989695Y0066909924D01*
X0125945109Y0066965175D01*
X0125937472Y0067035760D01*
X0125969208Y0067099268D01*
X0125985807Y0067114214D01*
X0126319002Y0067364509D01*
X0126322958Y0067367364D01*
X0127036210Y0067861133D01*
X0127040218Y0067863794D01*
X0127772063Y0068329569D01*
X0127776198Y0068332089D01*
X0127977488Y0068449500D01*
X0128525492Y0068769144D01*
X0128529755Y0068771521D01*
X0129295390Y0069179215D01*
X0129299742Y0069181426D01*
X0130080623Y0069559173D01*
X0130085057Y0069561213D01*
X0130145305Y0069587529D01*
X0130879979Y0069908430D01*
X0130884464Y0069910287D01*
X0131692281Y0070226471D01*
X0131696823Y0070228147D01*
X0132516248Y0070512795D01*
X0132520857Y0070514297D01*
X0133350665Y0070766984D01*
X0133355356Y0070768314D01*
X0133995984Y0070936577D01*
X0134194371Y0070988684D01*
X0134199117Y0070989832D01*
X0135045981Y0071177527D01*
X0135050766Y0071178491D01*
X0135904331Y0071333257D01*
X0135909105Y0071334026D01*
X0136767988Y0071455610D01*
X0136772792Y0071456196D01*
X0137165187Y0071496313D01*
X0137635773Y0071544425D01*
X0137640637Y0071544827D01*
X0138472189Y0071597404D01*
X0138484513Y0071596669D01*
X0138494687Y0071597097D01*
X0138508640Y0071594525D01*
X0138521575Y0071598053D01*
X0138522531Y0071598052D01*
X0138523463Y0071598264D01*
X0138536856Y0071597673D01*
X0138549899Y0071603256D01*
X0138549898Y0071603256D01*
X0138558138Y0071606783D01*
X0138574563Y0071612507D01*
X0138583200Y0071614863D01*
X0138583204Y0071614865D01*
X0138596892Y0071618599D01*
X0138607016Y0071627387D01*
X0138607877Y0071627800D01*
X0138608624Y0071628394D01*
X0138620952Y0071633671D01*
X0138634559Y0071649255D01*
X0138636178Y0071651109D01*
X0138648495Y0071663390D01*
X0138665973Y0071678561D01*
X0138671285Y0071690872D01*
X0138671882Y0071691618D01*
X0138672297Y0071692476D01*
X0138681117Y0071702577D01*
X0138684890Y0071716253D01*
X0138684892Y0071716256D01*
X0138687277Y0071724900D01*
X0138693050Y0071741307D01*
X0138696595Y0071749521D01*
X0138696595Y0071749523D01*
X0138702217Y0071762550D01*
X0138701665Y0071775949D01*
X0138701879Y0071776878D01*
X0138701881Y0071777829D01*
X0138705448Y0071790757D01*
X0138701370Y0071813256D01*
X0138701319Y0071813535D01*
X0138699406Y0071830822D01*
X0138698454Y0071853949D01*
X0138692148Y0071865781D01*
X0138690647Y0071872418D01*
X0138690576Y0071872809D01*
X0138689133Y0071880766D01*
X0138688850Y0071881426D01*
X0138687678Y0071883029D01*
X0138155305Y0073070476D01*
X0137588149Y0074243860D01*
X0136987474Y0075400443D01*
X0136353776Y0076539267D01*
X0135687579Y0077659391D01*
X0134989434Y0078759886D01*
X0134988961Y0078760586D01*
X0134988952Y0078760600D01*
X0134416577Y0079607933D01*
X0134259921Y0079839843D01*
X0133499642Y0080898366D01*
X0132709228Y0081934580D01*
X0132708677Y0081935261D01*
X0132708668Y0081935271D01*
X0131889900Y0082946924D01*
X0131889331Y0082947627D01*
X0131888770Y0082948280D01*
X0131888744Y0082948312D01*
X0131218081Y0083729876D01*
X0131040630Y0083936669D01*
X0130163830Y0084900887D01*
X0130163202Y0084901540D01*
X0130163200Y0084901541D01*
X0129534821Y0085553840D01*
X0129259655Y0085839482D01*
X0128328853Y0086751679D01*
X0128328189Y0086752293D01*
X0128328183Y0086752299D01*
X0128264256Y0086811439D01*
X0127372195Y0087636721D01*
X0127371519Y0087637311D01*
X0127371497Y0087637331D01*
X0127305709Y0087694771D01*
X0126390471Y0088493877D01*
X0125384498Y0089322437D01*
X0124355105Y0090121715D01*
X0124354408Y0090122225D01*
X0124354405Y0090122227D01*
X0123755585Y0090560164D01*
X0123303145Y0090891049D01*
X0122229489Y0091629803D01*
X0122228727Y0091630295D01*
X0122228713Y0091630305D01*
X0121852994Y0091873204D01*
X0121135025Y0092337365D01*
X0120020659Y0093013149D01*
X0119692428Y0093199500D01*
X0118975091Y0093606762D01*
X0118887315Y0093656597D01*
X0117735929Y0094267175D01*
X0117735132Y0094267569D01*
X0117735108Y0094267581D01*
X0117018203Y0094621718D01*
X0116567455Y0094844379D01*
X0116566596Y0094844773D01*
X0115860175Y0095168795D01*
X0115806596Y0095215376D01*
X0115786706Y0095283530D01*
X0115806821Y0095351618D01*
X0115832368Y0095380388D01*
X0116275265Y0095746955D01*
X0116278518Y0095749558D01*
X0117144416Y0096419257D01*
X0117147752Y0096421750D01*
X0118035305Y0097062456D01*
X0118038722Y0097064838D01*
X0118167519Y0097151486D01*
X0118946993Y0097675875D01*
X0118950439Y0097678113D01*
X0119492414Y0098017255D01*
X0119878443Y0098258814D01*
X0119882001Y0098260959D01*
X0120399359Y0098561371D01*
X0120828622Y0098810629D01*
X0120832258Y0098812661D01*
X0121796550Y0099330752D01*
X0121800249Y0099332661D01*
X0122203357Y0099532362D01*
X0122781140Y0099818598D01*
X0122784901Y0099820385D01*
X0123781317Y0100273632D01*
X0123785136Y0100275294D01*
X0124795999Y0100695364D01*
X0124799865Y0100696896D01*
X0125824048Y0101083319D01*
X0125827943Y0101084715D01*
X0126864386Y0101437091D01*
X0126868308Y0101438352D01*
X0127915814Y0101756271D01*
X0127919761Y0101757399D01*
X0128977224Y0102040526D01*
X0128981224Y0102041527D01*
X0129415322Y0102142503D01*
X0130047459Y0102289545D01*
X0130051531Y0102290421D01*
X0131125306Y0102503046D01*
X0131129405Y0102503788D01*
X0131873394Y0102625707D01*
X0132209692Y0102680817D01*
X0132213797Y0102681420D01*
X0132524498Y0102721841D01*
X0133299298Y0102822638D01*
X0133303437Y0102823107D01*
X0133728926Y0102864213D01*
X0134393045Y0102928372D01*
X0134397142Y0102928700D01*
X0134922507Y0102961974D01*
X0135489623Y0102997892D01*
X0135493784Y0102998087D01*
X0136459171Y0103027242D01*
X0136587986Y0103031132D01*
X0136592144Y0103031188D01*
X0137203811Y0103029433D01*
X0137686748Y0103028047D01*
X0137690912Y0103027967D01*
X0138784902Y0102988645D01*
X0138789062Y0102988426D01*
X0139881073Y0102912971D01*
X0139885223Y0102912616D01*
X0140939939Y0102804610D01*
X0140945785Y0102803282D01*
X0140952845Y0102799823D01*
X0140964420Y0102799741D01*
X0140975315Y0102795831D01*
X0140989425Y0102797303D01*
X0140989426Y0102797303D01*
X0141002760Y0102798694D01*
X0141016724Y0102799371D01*
X0141030132Y0102799276D01*
X0141030134Y0102799276D01*
X0141044319Y0102799176D01*
X0141054785Y0102804122D01*
X0141066296Y0102805323D01*
X0141078376Y0102812771D01*
X0141089781Y0102819803D01*
X0141102072Y0102826470D01*
X0141113185Y0102831722D01*
X0141127024Y0102838262D01*
X0141134309Y0102847257D01*
X0141144161Y0102853331D01*
X0141159047Y0102876569D01*
X0141167231Y0102887905D01*
X0141171832Y0102893586D01*
X0141184597Y0102909346D01*
X0141187261Y0102920609D01*
X0141193505Y0102930356D01*
X0141196841Y0102957747D01*
X0141199300Y0102971514D01*
X0141204004Y0102991404D01*
X0141204005Y0102991408D01*
X0141205650Y0102998366D01*
X0141205654Y0102999084D01*
X0141204652Y0103003567D01*
X0141204643Y0103003727D01*
X0141204505Y0103004225D01*
X0141204279Y0103005236D01*
X0141204232Y0103013293D01*
X0141204204Y0103018202D01*
X0141205285Y0103018208D01*
X0141206024Y0103022306D01*
X0141204180Y0103022295D01*
X0141201977Y0103403181D01*
X0141195672Y0104493573D01*
X0141156434Y0105987566D01*
X0141156403Y0105988237D01*
X0141156401Y0105988281D01*
X0141087697Y0107457393D01*
X0141086619Y0107480443D01*
X0140986255Y0108971577D01*
X0140986198Y0108972223D01*
X0140899277Y0109961020D01*
X0140855384Y0110460345D01*
X0140855322Y0110460912D01*
X0140855319Y0110460947D01*
X0140742894Y0111496368D01*
X0140755426Y0111566250D01*
X0140803750Y0111618263D01*
X0140872522Y0111635893D01*
X0140911190Y0111628225D01*
X0140913210Y0111627302D01*
X0140943994Y0111618263D01*
X0140977008Y0111608569D01*
X0140977012Y0111608568D01*
X0140981331Y0111607300D01*
X0140985780Y0111606660D01*
X0140985786Y0111606659D01*
X0141121553Y0111587139D01*
X0141121558Y0111587139D01*
X0141126000Y0111586500D01*
X0142976294Y0111586500D01*
X0143044415Y0111566498D01*
X0143090908Y0111512842D01*
X0143102037Y0111468545D01*
X0143166539Y0110460345D01*
X0143533061Y0104731496D01*
X0143638843Y0103078081D01*
X0143638843Y0103078080D01*
X0143640000Y0103060000D01*
X0148273004Y0103078290D01*
X0148341202Y0103058557D01*
X0148387906Y0103005085D01*
X0148399500Y0102952291D01*
X0148399500Y0063905383D01*
X0148399468Y0063868625D01*
X0148399455Y0063854437D01*
X0148405598Y0063841644D01*
X0148406713Y0063836735D01*
X0148409350Y0063829183D01*
X0148411532Y0063824649D01*
X0148414688Y0063810815D01*
X0148423529Y0063799720D01*
X0148425875Y0063794846D01*
X0148429546Y0063788994D01*
X0148432912Y0063784762D01*
X0148439052Y0063771976D01*
X0148450131Y0063763116D01*
X0148453265Y0063759176D01*
X0148458916Y0063753515D01*
X0148462852Y0063750373D01*
X0148471695Y0063739276D01*
X0148484477Y0063733111D01*
X0148488704Y0063729737D01*
X0148494547Y0063726058D01*
X0148499410Y0063723707D01*
X0148510492Y0063714844D01*
X0148524320Y0063711664D01*
X0148528851Y0063709474D01*
X0148536397Y0063706824D01*
X0148541307Y0063705700D01*
X0148554087Y0063699535D01*
X0148577155Y0063699515D01*
X0148577153Y0063697490D01*
X0148577219Y0063697474D01*
X0148577219Y0063699500D01*
X0148594108Y0063699500D01*
X0148645563Y0063699455D01*
X0148645559Y0063694650D01*
X0148645657Y0063694644D01*
X0148645657Y0063699500D01*
X0150394108Y0063699500D01*
X0150431374Y0063699467D01*
X0150431376Y0063699467D01*
X0150445563Y0063699455D01*
X0150458354Y0063705597D01*
X0150463267Y0063706713D01*
X0150470817Y0063709350D01*
X0150475351Y0063711532D01*
X0150489185Y0063714688D01*
X0150500280Y0063723529D01*
X0150505154Y0063725875D01*
X0150511006Y0063729546D01*
X0150515238Y0063732912D01*
X0150528024Y0063739052D01*
X0150536884Y0063750131D01*
X0150540824Y0063753265D01*
X0150546485Y0063758916D01*
X0150549627Y0063762852D01*
X0150560724Y0063771695D01*
X0150566889Y0063784477D01*
X0150570263Y0063788704D01*
X0150573942Y0063794547D01*
X0150576293Y0063799410D01*
X0150585156Y0063810492D01*
X0150588336Y0063824320D01*
X0150590526Y0063828851D01*
X0150593176Y0063836397D01*
X0150594300Y0063841307D01*
X0150600465Y0063854087D01*
X0150600485Y0063877155D01*
X0150602510Y0063877153D01*
X0150602526Y0063877219D01*
X0150600500Y0063877219D01*
X0150600500Y0063894108D01*
X0150600545Y0063945563D01*
X0150605350Y0063945559D01*
X0150605356Y0063945657D01*
X0150600500Y0063945657D01*
X0150600500Y0102961974D01*
X0150620502Y0103030095D01*
X0150674158Y0103076588D01*
X0150726003Y0103087973D01*
X0155130268Y0103105359D01*
X0155130270Y0103105359D01*
X0155148384Y0103105431D01*
X0155743884Y0110460947D01*
X0155825631Y0111470668D01*
X0155851065Y0111536952D01*
X0155908297Y0111578964D01*
X0155951220Y0111586500D01*
X0157874000Y0111586500D01*
X0157877346Y0111586860D01*
X0157877351Y0111586860D01*
X0157979785Y0111597872D01*
X0157979792Y0111597873D01*
X0157983149Y0111598234D01*
X0157986449Y0111598952D01*
X0157986450Y0111598952D01*
X0158032210Y0111608906D01*
X0158032215Y0111608907D01*
X0158035491Y0111609620D01*
X0158071272Y0111621529D01*
X0158142222Y0111624063D01*
X0158203280Y0111587836D01*
X0158235060Y0111524350D01*
X0158236196Y0111487227D01*
X0158056294Y0109961020D01*
X0158056222Y0109960410D01*
X0157883579Y0108220323D01*
X0157743056Y0106477349D01*
X0157634701Y0104732080D01*
X0157559289Y0103002056D01*
X0157557115Y0103002151D01*
X0157558553Y0102989998D01*
X0157557444Y0102985866D01*
X0157557418Y0102985148D01*
X0157561873Y0102961974D01*
X0157563896Y0102951449D01*
X0157565255Y0102942750D01*
X0157567665Y0102922764D01*
X0157567667Y0102922758D01*
X0157569366Y0102908672D01*
X0157573306Y0102902506D01*
X0157574688Y0102895317D01*
X0157595150Y0102867747D01*
X0157600147Y0102860498D01*
X0157610978Y0102843547D01*
X0157618619Y0102831588D01*
X0157624843Y0102827741D01*
X0157629205Y0102821863D01*
X0157641764Y0102815265D01*
X0157641767Y0102815262D01*
X0157659582Y0102805902D01*
X0157667229Y0102801537D01*
X0157684358Y0102790948D01*
X0157684361Y0102790947D01*
X0157696427Y0102783488D01*
X0157703707Y0102782720D01*
X0157710184Y0102779317D01*
X0157744478Y0102778109D01*
X0157753264Y0102777491D01*
X0157773284Y0102775378D01*
X0157773286Y0102775378D01*
X0157787398Y0102773889D01*
X0157794290Y0102776354D01*
X0157801604Y0102776096D01*
X0157810333Y0102779925D01*
X0157822966Y0102782802D01*
X0158877668Y0102893222D01*
X0158881775Y0102893584D01*
X0159531265Y0102939881D01*
X0159973408Y0102971398D01*
X0159977579Y0102971626D01*
X0161071155Y0103013213D01*
X0161075331Y0103013303D01*
X0161461925Y0103015181D01*
X0162169721Y0103018620D01*
X0162173882Y0103018571D01*
X0163267877Y0102987610D01*
X0163271991Y0102987424D01*
X0163856738Y0102951449D01*
X0164364297Y0102920222D01*
X0164368461Y0102919897D01*
X0165039108Y0102856266D01*
X0165458005Y0102816521D01*
X0165462108Y0102816062D01*
X0166547596Y0102676632D01*
X0166551713Y0102676033D01*
X0166909260Y0102618002D01*
X0167631939Y0102500707D01*
X0167636050Y0102499970D01*
X0168704388Y0102290014D01*
X0168709907Y0102288929D01*
X0168713965Y0102288062D01*
X0169780244Y0102041540D01*
X0169784275Y0102040538D01*
X0170841799Y0101758809D01*
X0170845801Y0101757672D01*
X0171811324Y0101465853D01*
X0171893398Y0101441047D01*
X0171897375Y0101439772D01*
X0172629735Y0101191649D01*
X0172933883Y0101088604D01*
X0172937796Y0101087206D01*
X0173449954Y0100894537D01*
X0173962101Y0100701872D01*
X0173965985Y0100700337D01*
X0174976940Y0100281271D01*
X0174980772Y0100279608D01*
X0175977320Y0099827245D01*
X0175981094Y0099825455D01*
X0176962038Y0099340339D01*
X0176965751Y0099338426D01*
X0177930114Y0098821043D01*
X0177933761Y0098819008D01*
X0177946397Y0098811679D01*
X0178880461Y0098269936D01*
X0178884039Y0098267780D01*
X0179811961Y0097687665D01*
X0179815466Y0097685393D01*
X0180024617Y0097544786D01*
X0180619784Y0097144669D01*
X0175607999Y0097144669D01*
X0175607629Y0097151490D01*
X0175602105Y0097202352D01*
X0175598479Y0097217604D01*
X0175553324Y0097338054D01*
X0175544786Y0097353649D01*
X0175468285Y0097455724D01*
X0175455724Y0097468285D01*
X0175353649Y0097544786D01*
X0175338054Y0097553324D01*
X0175217606Y0097598478D01*
X0175202351Y0097602105D01*
X0175151486Y0097607631D01*
X0175144672Y0097608000D01*
X0174622115Y0097608000D01*
X0174606876Y0097603525D01*
X0174605671Y0097602135D01*
X0174604000Y0097594452D01*
X0174604000Y0097589884D01*
X0174096000Y0097589884D01*
X0174091525Y0097605123D01*
X0174090135Y0097606328D01*
X0174082452Y0097607999D01*
X0173555331Y0097607999D01*
X0173548510Y0097607629D01*
X0173497648Y0097602105D01*
X0173482396Y0097598479D01*
X0173361946Y0097553324D01*
X0173346351Y0097544786D01*
X0173244276Y0097468285D01*
X0173231715Y0097455724D01*
X0173155214Y0097353649D01*
X0173146676Y0097338054D01*
X0173101522Y0097217606D01*
X0173097895Y0097202351D01*
X0173092369Y0097151486D01*
X0173092000Y0097144672D01*
X0173092000Y0097119748D01*
X0170400500Y0097119748D01*
X0170388867Y0097178231D01*
X0170344552Y0097244552D01*
X0170278231Y0097288867D01*
X0170266062Y0097291288D01*
X0170266061Y0097291288D01*
X0170225816Y0097299293D01*
X0170219748Y0097300500D01*
X0168680252Y0097300500D01*
X0168674184Y0097299293D01*
X0168633939Y0097291288D01*
X0168633938Y0097291288D01*
X0168621769Y0097288867D01*
X0168555448Y0097244552D01*
X0168511133Y0097178231D01*
X0168499500Y0097119748D01*
X0168499500Y0096097095D01*
X0167532999Y0096097095D01*
X0167532662Y0096103614D01*
X0167522743Y0096199206D01*
X0167519851Y0096212600D01*
X0167468412Y0096366784D01*
X0167462239Y0096379962D01*
X0167376937Y0096517807D01*
X0167367901Y0096529208D01*
X0167253171Y0096643739D01*
X0167241760Y0096652751D01*
X0167103757Y0096737816D01*
X0167090576Y0096743963D01*
X0166936290Y0096795138D01*
X0166922914Y0096798005D01*
X0166828562Y0096807672D01*
X0166822146Y0096808000D01*
X0166572115Y0096808000D01*
X0166556876Y0096803525D01*
X0166555671Y0096802135D01*
X0166554000Y0096794452D01*
X0166554000Y0096789884D01*
X0166046000Y0096789884D01*
X0166041525Y0096805123D01*
X0166040135Y0096806328D01*
X0166032452Y0096807999D01*
X0165777905Y0096807999D01*
X0165771386Y0096807662D01*
X0165675794Y0096797743D01*
X0165662400Y0096794851D01*
X0165508216Y0096743412D01*
X0165495038Y0096737239D01*
X0165357193Y0096651937D01*
X0165345792Y0096642901D01*
X0165231261Y0096528171D01*
X0165222249Y0096516760D01*
X0165137184Y0096378757D01*
X0165131037Y0096365576D01*
X0165079862Y0096211290D01*
X0165076995Y0096197914D01*
X0165067328Y0096103562D01*
X0165067000Y0096097146D01*
X0165067000Y0096072115D01*
X0165071475Y0096056876D01*
X0165072865Y0096055671D01*
X0165080548Y0096054000D01*
X0166027885Y0096054000D01*
X0166043124Y0096058475D01*
X0166044329Y0096059865D01*
X0166046000Y0096067548D01*
X0166046000Y0096789884D01*
X0166554000Y0096789884D01*
X0166554000Y0096072115D01*
X0166558475Y0096056876D01*
X0166559865Y0096055671D01*
X0166567548Y0096054000D01*
X0167514884Y0096054000D01*
X0167530123Y0096058475D01*
X0167531328Y0096059865D01*
X0167532999Y0096067548D01*
X0167532999Y0096097095D01*
X0168499500Y0096097095D01*
X0168499500Y0096080252D01*
X0168511133Y0096021769D01*
X0168555448Y0095955448D01*
X0168621769Y0095911133D01*
X0168633938Y0095908712D01*
X0168633939Y0095908712D01*
X0168674184Y0095900707D01*
X0168680252Y0095899500D01*
X0168873500Y0095899500D01*
X0168941621Y0095879498D01*
X0168988114Y0095825842D01*
X0168999500Y0095773500D01*
X0168999500Y0095600103D01*
X0168979498Y0095531982D01*
X0168975729Y0095527885D01*
X0167533000Y0095527885D01*
X0167528525Y0095543124D01*
X0167527135Y0095544329D01*
X0167519452Y0095546000D01*
X0165085116Y0095546000D01*
X0165069877Y0095541525D01*
X0165068672Y0095540135D01*
X0165067001Y0095532452D01*
X0165067001Y0095502905D01*
X0165067338Y0095496386D01*
X0165077257Y0095400794D01*
X0165080149Y0095387400D01*
X0165131588Y0095233216D01*
X0165137761Y0095220038D01*
X0165223063Y0095082193D01*
X0165232099Y0095070792D01*
X0165346829Y0094956261D01*
X0165358240Y0094947249D01*
X0165496243Y0094862184D01*
X0165509424Y0094856037D01*
X0165656092Y0094807389D01*
X0165714451Y0094766958D01*
X0165741688Y0094701394D01*
X0165729154Y0094631512D01*
X0165680830Y0094579500D01*
X0165658172Y0094568913D01*
X0165652092Y0094566778D01*
X0165611816Y0094552634D01*
X0165604246Y0094547042D01*
X0165604243Y0094547041D01*
X0165510421Y0094477742D01*
X0165502850Y0094472150D01*
X0165482293Y0094444318D01*
X0165427959Y0094370757D01*
X0165427958Y0094370754D01*
X0165422366Y0094363184D01*
X0165377481Y0094235369D01*
X0165374500Y0094203834D01*
X0165374500Y0093596166D01*
X0165377481Y0093564631D01*
X0165422366Y0093436816D01*
X0165427958Y0093429246D01*
X0165427959Y0093429243D01*
X0165497258Y0093335421D01*
X0165502850Y0093327850D01*
X0165538625Y0093301426D01*
X0165604243Y0093252959D01*
X0165604246Y0093252958D01*
X0165611816Y0093247366D01*
X0165739631Y0093202481D01*
X0165747277Y0093201758D01*
X0165747278Y0093201758D01*
X0165753248Y0093201194D01*
X0165771166Y0093199500D01*
X0166828834Y0093199500D01*
X0166846752Y0093201194D01*
X0166852722Y0093201758D01*
X0166852723Y0093201758D01*
X0166860369Y0093202481D01*
X0166988184Y0093247366D01*
X0166995754Y0093252958D01*
X0166995757Y0093252959D01*
X0167061375Y0093301426D01*
X0167097150Y0093327850D01*
X0167102742Y0093335421D01*
X0167172041Y0093429243D01*
X0167172042Y0093429246D01*
X0167177634Y0093436816D01*
X0167222519Y0093564631D01*
X0167225500Y0093596166D01*
X0167225500Y0094203834D01*
X0167222519Y0094235369D01*
X0167177634Y0094363184D01*
X0167172042Y0094370754D01*
X0167172041Y0094370757D01*
X0167117707Y0094444318D01*
X0167097150Y0094472150D01*
X0167089579Y0094477742D01*
X0166995757Y0094547041D01*
X0166995754Y0094547042D01*
X0166988184Y0094552634D01*
X0166942027Y0094568843D01*
X0166884381Y0094610286D01*
X0166858293Y0094676316D01*
X0166872044Y0094745968D01*
X0166921269Y0094797129D01*
X0166943899Y0094807250D01*
X0167091784Y0094856588D01*
X0167104962Y0094862761D01*
X0167242807Y0094948063D01*
X0167254208Y0094957099D01*
X0167368739Y0095071829D01*
X0167377751Y0095083240D01*
X0167462816Y0095221243D01*
X0167468963Y0095234424D01*
X0167520138Y0095388710D01*
X0167523005Y0095402086D01*
X0167532672Y0095496438D01*
X0167533000Y0095502855D01*
X0167533000Y0095527885D01*
X0168975729Y0095527885D01*
X0168950204Y0095500140D01*
X0168928264Y0095483305D01*
X0168921718Y0095478282D01*
X0168825464Y0095352841D01*
X0168764956Y0095206762D01*
X0168744318Y0095050000D01*
X0168764956Y0094893238D01*
X0168825464Y0094747159D01*
X0168921718Y0094621718D01*
X0168936616Y0094610286D01*
X0168990626Y0094568843D01*
X0169047159Y0094525464D01*
X0169193238Y0094464956D01*
X0169350000Y0094444318D01*
X0169506762Y0094464956D01*
X0169652841Y0094525464D01*
X0169709374Y0094568843D01*
X0169763383Y0094610286D01*
X0169778282Y0094621718D01*
X0169874536Y0094747159D01*
X0169935044Y0094893238D01*
X0169955682Y0095050000D01*
X0169935044Y0095206762D01*
X0169910090Y0095267005D01*
X0169900500Y0095315221D01*
X0169900500Y0095773500D01*
X0169920502Y0095841621D01*
X0169974158Y0095888114D01*
X0170026500Y0095899500D01*
X0170219748Y0095899500D01*
X0170225816Y0095900707D01*
X0170266061Y0095908712D01*
X0170266062Y0095908712D01*
X0170278231Y0095911133D01*
X0170344552Y0095955448D01*
X0170388867Y0096021769D01*
X0170400500Y0096080252D01*
X0170400500Y0097119748D01*
X0173092000Y0097119748D01*
X0173092000Y0096872115D01*
X0173096475Y0096856876D01*
X0173097865Y0096855671D01*
X0173105548Y0096854000D01*
X0174077885Y0096854000D01*
X0174093124Y0096858475D01*
X0174094329Y0096859865D01*
X0174096000Y0096867548D01*
X0174096000Y0097589884D01*
X0174604000Y0097589884D01*
X0174604000Y0096872115D01*
X0174608475Y0096856876D01*
X0174609865Y0096855671D01*
X0174617548Y0096854000D01*
X0175589884Y0096854000D01*
X0175605123Y0096858475D01*
X0175606328Y0096859865D01*
X0175607999Y0096867548D01*
X0175607999Y0097144669D01*
X0180619784Y0097144669D01*
X0180723734Y0097074786D01*
X0180727131Y0097072419D01*
X0181322418Y0096642901D01*
X0181614607Y0096432078D01*
X0181617954Y0096429578D01*
X0181749477Y0096327885D01*
X0175608000Y0096327885D01*
X0175603525Y0096343124D01*
X0175602135Y0096344329D01*
X0175594452Y0096346000D01*
X0174622115Y0096346000D01*
X0174606876Y0096341525D01*
X0174605671Y0096340135D01*
X0174604000Y0096332452D01*
X0174604000Y0096327885D01*
X0174096000Y0096327885D01*
X0174091525Y0096343124D01*
X0174090135Y0096344329D01*
X0174082452Y0096346000D01*
X0173110116Y0096346000D01*
X0173094877Y0096341525D01*
X0173093672Y0096340135D01*
X0173092001Y0096332452D01*
X0173092001Y0096055331D01*
X0173092371Y0096048510D01*
X0173097895Y0095997648D01*
X0173101521Y0095982396D01*
X0173146676Y0095861946D01*
X0173155214Y0095846351D01*
X0173231715Y0095744276D01*
X0173244276Y0095731715D01*
X0173346351Y0095655214D01*
X0173361946Y0095646676D01*
X0173482394Y0095601522D01*
X0173497649Y0095597895D01*
X0173548514Y0095592369D01*
X0173555328Y0095592000D01*
X0174077885Y0095592000D01*
X0174093124Y0095596475D01*
X0174094329Y0095597865D01*
X0174096000Y0095605548D01*
X0174096000Y0096327885D01*
X0174604000Y0096327885D01*
X0174604000Y0095610116D01*
X0174608475Y0095594877D01*
X0174609865Y0095593672D01*
X0174617548Y0095592001D01*
X0175144669Y0095592001D01*
X0175151490Y0095592371D01*
X0175202352Y0095597895D01*
X0175217604Y0095601521D01*
X0175338054Y0095646676D01*
X0175353649Y0095655214D01*
X0175455724Y0095731715D01*
X0175468285Y0095744276D01*
X0175544786Y0095846351D01*
X0175553324Y0095861946D01*
X0175598478Y0095982394D01*
X0175602105Y0095997649D01*
X0175607631Y0096048514D01*
X0175608000Y0096055328D01*
X0175608000Y0096327885D01*
X0181749477Y0096327885D01*
X0182301961Y0095900707D01*
X0182483740Y0095760156D01*
X0182486993Y0095757554D01*
X0182665149Y0095610116D01*
X0182926817Y0095393564D01*
X0182966545Y0095334724D01*
X0182968154Y0095263746D01*
X0182931133Y0095203165D01*
X0182898286Y0095181637D01*
X0182190031Y0094862219D01*
X0181015707Y0094291039D01*
X0180970060Y0094267175D01*
X0180305512Y0093919748D01*
X0175300500Y0093919748D01*
X0175288867Y0093978231D01*
X0175244552Y0094044552D01*
X0175178231Y0094088867D01*
X0175166062Y0094091288D01*
X0175166061Y0094091288D01*
X0175125816Y0094099293D01*
X0175119748Y0094100500D01*
X0173580252Y0094100500D01*
X0173574184Y0094099293D01*
X0173533939Y0094091288D01*
X0173533938Y0094091288D01*
X0173521769Y0094088867D01*
X0173455448Y0094044552D01*
X0173411133Y0093978231D01*
X0173399500Y0093919748D01*
X0173399500Y0093450000D01*
X0172355682Y0093450000D01*
X0172335044Y0093606762D01*
X0172274536Y0093752841D01*
X0172178282Y0093878282D01*
X0172052841Y0093974536D01*
X0171906762Y0094035044D01*
X0171750000Y0094055682D01*
X0171741812Y0094054604D01*
X0171717801Y0094051443D01*
X0171593238Y0094035044D01*
X0171447159Y0093974536D01*
X0171406662Y0093943462D01*
X0171384605Y0093926537D01*
X0171318384Y0093900937D01*
X0171307901Y0093900500D01*
X0170502634Y0093900500D01*
X0170434513Y0093920502D01*
X0170389679Y0093974150D01*
X0170388867Y0093978231D01*
X0170344552Y0094044552D01*
X0170278231Y0094088867D01*
X0170266062Y0094091288D01*
X0170266061Y0094091288D01*
X0170225816Y0094099293D01*
X0170219748Y0094100500D01*
X0168680252Y0094100500D01*
X0168674184Y0094099293D01*
X0168633939Y0094091288D01*
X0168633938Y0094091288D01*
X0168621769Y0094088867D01*
X0168555448Y0094044552D01*
X0168511133Y0093978231D01*
X0168499500Y0093919748D01*
X0168499500Y0092880252D01*
X0168511133Y0092821769D01*
X0168555448Y0092755448D01*
X0168621769Y0092711133D01*
X0168633938Y0092708712D01*
X0168633939Y0092708712D01*
X0168674184Y0092700707D01*
X0168680252Y0092699500D01*
X0170219748Y0092699500D01*
X0170225816Y0092700707D01*
X0170266061Y0092708712D01*
X0170266062Y0092708712D01*
X0170278231Y0092711133D01*
X0170344552Y0092755448D01*
X0170388867Y0092821769D01*
X0170400500Y0092880252D01*
X0170400500Y0092885994D01*
X0170427024Y0092951682D01*
X0170484979Y0092992692D01*
X0170525835Y0092999500D01*
X0171307901Y0092999500D01*
X0171376022Y0092979498D01*
X0171384605Y0092973463D01*
X0171440608Y0092930491D01*
X0171447159Y0092925464D01*
X0171593238Y0092864956D01*
X0171750000Y0092844318D01*
X0171906762Y0092864956D01*
X0172052841Y0092925464D01*
X0172178282Y0093021718D01*
X0172274536Y0093147159D01*
X0172335044Y0093293238D01*
X0172355682Y0093450000D01*
X0173399500Y0093450000D01*
X0173399500Y0093138793D01*
X0173379498Y0093070672D01*
X0173362595Y0093049698D01*
X0151780650Y0071467753D01*
X0151769561Y0071457899D01*
X0151750291Y0071442707D01*
X0151750289Y0071442705D01*
X0151742890Y0071436872D01*
X0151735114Y0071425622D01*
X0151709545Y0071388625D01*
X0151707243Y0071385403D01*
X0151677960Y0071345758D01*
X0151677959Y0071345757D01*
X0151672366Y0071338184D01*
X0151669973Y0071331368D01*
X0151665869Y0071325431D01*
X0151648174Y0071269481D01*
X0151646929Y0071265750D01*
X0151630604Y0071219263D01*
X0151630604Y0071219261D01*
X0151627481Y0071210369D01*
X0151627199Y0071203181D01*
X0151627188Y0071203122D01*
X0151625020Y0071196270D01*
X0151624500Y0071189663D01*
X0151624500Y0071136984D01*
X0151624403Y0071132037D01*
X0151622532Y0071084415D01*
X0151622162Y0071075006D01*
X0151624046Y0071067900D01*
X0151624500Y0071059653D01*
X0151624500Y0063213793D01*
X0151604498Y0063145672D01*
X0151587595Y0063124698D01*
X0151050302Y0062587405D01*
X0150987990Y0062553379D01*
X0150961207Y0062550500D01*
X0147838793Y0062550500D01*
X0147770672Y0062570502D01*
X0147749698Y0062587405D01*
X0147187405Y0063149698D01*
X0147153379Y0063212010D01*
X0147150500Y0063238793D01*
X0147150500Y0066665780D01*
X0147151373Y0066680589D01*
X0147155364Y0066714310D01*
X0147153672Y0066723574D01*
X0147153672Y0066723575D01*
X0147144828Y0066772001D01*
X0147144178Y0066775904D01*
X0147135449Y0066833962D01*
X0147132321Y0066840475D01*
X0147131025Y0066847573D01*
X0147103975Y0066899647D01*
X0147102232Y0066903137D01*
X0147076809Y0066956079D01*
X0147071923Y0066961365D01*
X0147071890Y0066961413D01*
X0147068579Y0066967788D01*
X0147064275Y0066972828D01*
X0147027048Y0067010055D01*
X0147023619Y0067013620D01*
X0146984854Y0067055556D01*
X0146978495Y0067059249D01*
X0146972337Y0067064766D01*
X0144842753Y0069194350D01*
X0144832899Y0069205439D01*
X0144818567Y0069223618D01*
X0144811872Y0069232110D01*
X0144804124Y0069237465D01*
X0144804122Y0069237467D01*
X0144763600Y0069265474D01*
X0144760381Y0069267774D01*
X0144747395Y0069277365D01*
X0144713183Y0069302634D01*
X0144706369Y0069305027D01*
X0144700431Y0069309131D01*
X0144691451Y0069311971D01*
X0144644509Y0069326817D01*
X0144640753Y0069328070D01*
X0144585369Y0069347520D01*
X0144578183Y0069347803D01*
X0144578112Y0069347817D01*
X0144571270Y0069349980D01*
X0144564663Y0069350500D01*
X0144511994Y0069350500D01*
X0144507048Y0069350597D01*
X0144450006Y0069352838D01*
X0144442900Y0069350954D01*
X0144434653Y0069350500D01*
X0133234220Y0069350500D01*
X0133219411Y0069351373D01*
X0133185690Y0069355364D01*
X0133176425Y0069353672D01*
X0133176425Y0069353672D01*
X0133127998Y0069344828D01*
X0133124096Y0069344178D01*
X0133075355Y0069336850D01*
X0133075354Y0069336850D01*
X0133066037Y0069335449D01*
X0133059525Y0069332321D01*
X0133052427Y0069331025D01*
X0133000352Y0069303975D01*
X0132996862Y0069302232D01*
X0132943920Y0069276809D01*
X0132938635Y0069271923D01*
X0132938587Y0069271890D01*
X0132932212Y0069268579D01*
X0132927172Y0069264275D01*
X0132889945Y0069227048D01*
X0132886379Y0069223618D01*
X0132851359Y0069191246D01*
X0132844444Y0069184854D01*
X0132840751Y0069178495D01*
X0132835234Y0069172337D01*
X0131950302Y0068287405D01*
X0131887990Y0068253379D01*
X0131861207Y0068250500D01*
X0131080252Y0068250500D01*
X0131074184Y0068249293D01*
X0131033939Y0068241288D01*
X0131033938Y0068241288D01*
X0131021769Y0068238867D01*
X0130955447Y0068194552D01*
X0130911133Y0068128231D01*
X0130899499Y0068069748D01*
X0130899499Y0067030252D01*
X0130904458Y0067005328D01*
X0130908712Y0066983939D01*
X0130908712Y0066983938D01*
X0130911133Y0066971769D01*
X0130955447Y0066905448D01*
X0131021769Y0066861133D01*
X0131033938Y0066858712D01*
X0131033939Y0066858712D01*
X0131074184Y0066850707D01*
X0131080252Y0066849500D01*
X0132619747Y0066849500D01*
X0132625815Y0066850707D01*
X0132666061Y0066858712D01*
X0132666062Y0066858712D01*
X0132678231Y0066861133D01*
X0132744552Y0066905448D01*
X0132788867Y0066971769D01*
X0132791288Y0066983938D01*
X0132791288Y0066983939D01*
X0132795542Y0067005328D01*
X0132800500Y0067030252D01*
X0132800500Y0067811207D01*
X0132820502Y0067879328D01*
X0132837404Y0067900302D01*
X0133349697Y0068412595D01*
X0133412010Y0068446621D01*
X0133438793Y0068449500D01*
X0135425401Y0068449500D01*
X0135493522Y0068429498D01*
X0135540015Y0068375842D01*
X0135550119Y0068305568D01*
X0135543383Y0068279270D01*
X0135501522Y0068167606D01*
X0135497895Y0068152351D01*
X0135492369Y0068101486D01*
X0135492000Y0068094672D01*
X0135492000Y0067822115D01*
X0135496475Y0067806876D01*
X0135497865Y0067805671D01*
X0135505548Y0067804000D01*
X0137989884Y0067804000D01*
X0138005123Y0067808475D01*
X0138006328Y0067809865D01*
X0138007999Y0067817548D01*
X0138007999Y0068094669D01*
X0138007629Y0068101490D01*
X0138002105Y0068152352D01*
X0137998479Y0068167604D01*
X0137956617Y0068279270D01*
X0137951434Y0068350077D01*
X0137985355Y0068412446D01*
X0138047610Y0068446576D01*
X0138074599Y0068449500D01*
X0144261207Y0068449500D01*
X0144329328Y0068429498D01*
X0144350302Y0068412595D01*
X0146165802Y0066597095D01*
X0141182999Y0066597095D01*
X0141182662Y0066603614D01*
X0141172743Y0066699206D01*
X0141169851Y0066712600D01*
X0141118412Y0066866784D01*
X0141112239Y0066879962D01*
X0141026937Y0067017807D01*
X0141017901Y0067029208D01*
X0140903171Y0067143739D01*
X0140891760Y0067152751D01*
X0140753757Y0067237816D01*
X0140740576Y0067243963D01*
X0140586290Y0067295138D01*
X0140572914Y0067298005D01*
X0140478562Y0067307672D01*
X0140472146Y0067308000D01*
X0140222115Y0067308000D01*
X0140206876Y0067303525D01*
X0140205671Y0067302135D01*
X0140204000Y0067294452D01*
X0140204000Y0067289884D01*
X0139696000Y0067289884D01*
X0139691525Y0067305123D01*
X0139690135Y0067306328D01*
X0139682452Y0067307999D01*
X0139427905Y0067307999D01*
X0139421386Y0067307662D01*
X0139325794Y0067297743D01*
X0139312400Y0067294851D01*
X0139261546Y0067277885D01*
X0138008000Y0067277885D01*
X0138003525Y0067293124D01*
X0138002135Y0067294329D01*
X0137994452Y0067296000D01*
X0135510116Y0067296000D01*
X0135494877Y0067291525D01*
X0135493672Y0067290135D01*
X0135492001Y0067282452D01*
X0135492001Y0067005331D01*
X0135492371Y0066998510D01*
X0135497895Y0066947648D01*
X0135501521Y0066932396D01*
X0135546676Y0066811946D01*
X0135555214Y0066796351D01*
X0135631715Y0066694276D01*
X0135644276Y0066681715D01*
X0135746351Y0066605214D01*
X0135761946Y0066596676D01*
X0135882394Y0066551522D01*
X0135897649Y0066547895D01*
X0135948514Y0066542369D01*
X0135955328Y0066542000D01*
X0136191840Y0066542000D01*
X0136259961Y0066521998D01*
X0136306454Y0066468342D01*
X0136316558Y0066398068D01*
X0136291803Y0066339296D01*
X0136230491Y0066259392D01*
X0136225464Y0066252841D01*
X0136164956Y0066106762D01*
X0136144318Y0065950000D01*
X0136164956Y0065793238D01*
X0136225464Y0065647159D01*
X0136273463Y0065584605D01*
X0136299063Y0065518384D01*
X0136299500Y0065507901D01*
X0136299500Y0065176500D01*
X0136279498Y0065108379D01*
X0136225842Y0065061886D01*
X0136173500Y0065050500D01*
X0135980252Y0065050500D01*
X0135962862Y0065047041D01*
X0135933939Y0065041288D01*
X0135933938Y0065041288D01*
X0135921769Y0065038867D01*
X0135855448Y0064994552D01*
X0135811133Y0064928231D01*
X0135799500Y0064869748D01*
X0135799500Y0064350000D01*
X0134555682Y0064350000D01*
X0134535044Y0064506762D01*
X0134474536Y0064652841D01*
X0134378282Y0064778282D01*
X0134252841Y0064874536D01*
X0134106762Y0064935044D01*
X0133949999Y0064955682D01*
X0133941812Y0064954604D01*
X0133801425Y0064936122D01*
X0133793238Y0064935044D01*
X0133647158Y0064874536D01*
X0133584605Y0064826537D01*
X0133518384Y0064800937D01*
X0133507901Y0064800500D01*
X0132917679Y0064800500D01*
X0132849559Y0064820502D01*
X0132803066Y0064874158D01*
X0132794101Y0064901918D01*
X0132788867Y0064928231D01*
X0132744552Y0064994552D01*
X0132678231Y0065038867D01*
X0132666062Y0065041288D01*
X0132666061Y0065041288D01*
X0132637138Y0065047041D01*
X0132619747Y0065050500D01*
X0131080252Y0065050500D01*
X0131062862Y0065047041D01*
X0131033939Y0065041288D01*
X0131033938Y0065041288D01*
X0131021769Y0065038867D01*
X0130955447Y0064994552D01*
X0130911133Y0064928231D01*
X0130899499Y0064869748D01*
X0130899499Y0063830252D01*
X0130903366Y0063810815D01*
X0130908712Y0063783939D01*
X0130908712Y0063783938D01*
X0130911133Y0063771769D01*
X0130919547Y0063759176D01*
X0130948557Y0063715761D01*
X0130955447Y0063705448D01*
X0131021769Y0063661133D01*
X0131033938Y0063658712D01*
X0131033939Y0063658712D01*
X0131074184Y0063650707D01*
X0131080252Y0063649500D01*
X0132619747Y0063649500D01*
X0132625815Y0063650707D01*
X0132666061Y0063658712D01*
X0132666062Y0063658712D01*
X0132678231Y0063661133D01*
X0132744552Y0063705448D01*
X0132751443Y0063715761D01*
X0132780452Y0063759176D01*
X0132788867Y0063771769D01*
X0132791288Y0063783938D01*
X0132791288Y0063783939D01*
X0132794101Y0063798082D01*
X0132827009Y0063860992D01*
X0132888703Y0063896123D01*
X0132917679Y0063899500D01*
X0133507901Y0063899500D01*
X0133576022Y0063879498D01*
X0133584605Y0063873463D01*
X0133606662Y0063856538D01*
X0133647158Y0063825464D01*
X0133793238Y0063764956D01*
X0133839115Y0063758916D01*
X0133871619Y0063754637D01*
X0133949999Y0063744318D01*
X0134028381Y0063754637D01*
X0134060882Y0063758916D01*
X0134106762Y0063764956D01*
X0134252841Y0063825464D01*
X0134378282Y0063921718D01*
X0134474536Y0064047159D01*
X0134535044Y0064193238D01*
X0134555682Y0064350000D01*
X0135799500Y0064350000D01*
X0135799500Y0063830252D01*
X0135803366Y0063810815D01*
X0135808712Y0063783939D01*
X0135808712Y0063783938D01*
X0135811133Y0063771769D01*
X0135819547Y0063759176D01*
X0135848557Y0063715761D01*
X0135855448Y0063705448D01*
X0135921769Y0063661133D01*
X0135933938Y0063658712D01*
X0135933939Y0063658712D01*
X0135974184Y0063650707D01*
X0135980252Y0063649500D01*
X0137519748Y0063649500D01*
X0137525816Y0063650707D01*
X0137566061Y0063658712D01*
X0137566062Y0063658712D01*
X0137578231Y0063661133D01*
X0137644552Y0063705448D01*
X0137651443Y0063715761D01*
X0137680452Y0063759176D01*
X0137688867Y0063771769D01*
X0137691288Y0063783938D01*
X0137691288Y0063783939D01*
X0137696634Y0063810815D01*
X0137700500Y0063830252D01*
X0137700500Y0064869748D01*
X0137688867Y0064928231D01*
X0137644552Y0064994552D01*
X0137578231Y0065038867D01*
X0137566062Y0065041288D01*
X0137566061Y0065041288D01*
X0137537138Y0065047041D01*
X0137519748Y0065050500D01*
X0137326500Y0065050500D01*
X0137258379Y0065070502D01*
X0137211886Y0065124158D01*
X0137200500Y0065176500D01*
X0137200500Y0065507901D01*
X0137220502Y0065576022D01*
X0137226537Y0065584605D01*
X0137274536Y0065647159D01*
X0137335044Y0065793238D01*
X0137355682Y0065950000D01*
X0137335044Y0066106762D01*
X0137274536Y0066252841D01*
X0137269509Y0066259392D01*
X0137208196Y0066339297D01*
X0137182596Y0066405517D01*
X0137196861Y0066475066D01*
X0137246462Y0066525862D01*
X0137308159Y0066542001D01*
X0137544669Y0066542001D01*
X0137551490Y0066542371D01*
X0137602352Y0066547895D01*
X0137617604Y0066551521D01*
X0137738054Y0066596676D01*
X0137753649Y0066605214D01*
X0137855724Y0066681715D01*
X0137868285Y0066694276D01*
X0137944786Y0066796351D01*
X0137953324Y0066811946D01*
X0137998478Y0066932394D01*
X0138002105Y0066947649D01*
X0138007631Y0066998514D01*
X0138008000Y0067005328D01*
X0138008000Y0067277885D01*
X0139261546Y0067277885D01*
X0139158216Y0067243412D01*
X0139145038Y0067237239D01*
X0139007193Y0067151937D01*
X0138995792Y0067142901D01*
X0138881261Y0067028171D01*
X0138872249Y0067016760D01*
X0138787184Y0066878757D01*
X0138781037Y0066865576D01*
X0138729862Y0066711290D01*
X0138726995Y0066697914D01*
X0138717328Y0066603562D01*
X0138717000Y0066597146D01*
X0138717000Y0066572115D01*
X0138721475Y0066556876D01*
X0138722865Y0066555671D01*
X0138730548Y0066554000D01*
X0139677885Y0066554000D01*
X0139693124Y0066558475D01*
X0139694329Y0066559865D01*
X0139696000Y0066567548D01*
X0139696000Y0067289884D01*
X0140204000Y0067289884D01*
X0140204000Y0066572115D01*
X0140208475Y0066556876D01*
X0140209865Y0066555671D01*
X0140217548Y0066554000D01*
X0141164884Y0066554000D01*
X0141180123Y0066558475D01*
X0141181328Y0066559865D01*
X0141182999Y0066567548D01*
X0141182999Y0066597095D01*
X0146165802Y0066597095D01*
X0146212595Y0066550302D01*
X0146246621Y0066487990D01*
X0146249500Y0066461207D01*
X0146249500Y0066027885D01*
X0141183000Y0066027885D01*
X0141178525Y0066043124D01*
X0141177135Y0066044329D01*
X0141169452Y0066046000D01*
X0138735116Y0066046000D01*
X0138719877Y0066041525D01*
X0138718672Y0066040135D01*
X0138717001Y0066032452D01*
X0138717001Y0066002905D01*
X0138717338Y0065996386D01*
X0138727257Y0065900794D01*
X0138730149Y0065887400D01*
X0138781588Y0065733216D01*
X0138787761Y0065720038D01*
X0138873063Y0065582193D01*
X0138882099Y0065570792D01*
X0138996829Y0065456261D01*
X0139008240Y0065447249D01*
X0139146243Y0065362184D01*
X0139159424Y0065356037D01*
X0139306092Y0065307389D01*
X0139364451Y0065266958D01*
X0139391688Y0065201394D01*
X0139379154Y0065131512D01*
X0139330830Y0065079500D01*
X0139308172Y0065068913D01*
X0139302092Y0065066778D01*
X0139261816Y0065052634D01*
X0139254246Y0065047042D01*
X0139254243Y0065047041D01*
X0139160421Y0064977742D01*
X0139152850Y0064972150D01*
X0139111422Y0064916061D01*
X0139077959Y0064870757D01*
X0139077958Y0064870754D01*
X0139072366Y0064863184D01*
X0139027481Y0064735369D01*
X0139024500Y0064703834D01*
X0139024500Y0064096166D01*
X0139027481Y0064064631D01*
X0139072366Y0063936816D01*
X0139077958Y0063929246D01*
X0139077959Y0063929243D01*
X0139147258Y0063835421D01*
X0139152850Y0063827850D01*
X0139193152Y0063798082D01*
X0139254243Y0063752959D01*
X0139254246Y0063752958D01*
X0139261816Y0063747366D01*
X0139389631Y0063702481D01*
X0139397277Y0063701758D01*
X0139397278Y0063701758D01*
X0139403248Y0063701194D01*
X0139421166Y0063699500D01*
X0140478834Y0063699500D01*
X0140496752Y0063701194D01*
X0140502722Y0063701758D01*
X0140502723Y0063701758D01*
X0140510369Y0063702481D01*
X0140638184Y0063747366D01*
X0140645754Y0063752958D01*
X0140645757Y0063752959D01*
X0140706848Y0063798082D01*
X0140747150Y0063827850D01*
X0140752742Y0063835421D01*
X0140822041Y0063929243D01*
X0140822042Y0063929246D01*
X0140827634Y0063936816D01*
X0140872519Y0064064631D01*
X0140875500Y0064096166D01*
X0140875500Y0064703834D01*
X0140872519Y0064735369D01*
X0140827634Y0064863184D01*
X0140822042Y0064870754D01*
X0140822041Y0064870757D01*
X0140788578Y0064916061D01*
X0140747150Y0064972150D01*
X0140739579Y0064977742D01*
X0140645757Y0065047041D01*
X0140645754Y0065047042D01*
X0140638184Y0065052634D01*
X0140592027Y0065068843D01*
X0140534381Y0065110286D01*
X0140508293Y0065176316D01*
X0140522044Y0065245968D01*
X0140571269Y0065297129D01*
X0140593899Y0065307250D01*
X0140741784Y0065356588D01*
X0140754962Y0065362761D01*
X0140892807Y0065448063D01*
X0140904208Y0065457099D01*
X0141018739Y0065571829D01*
X0141027751Y0065583240D01*
X0141112816Y0065721243D01*
X0141118963Y0065734424D01*
X0141170138Y0065888710D01*
X0141173005Y0065902086D01*
X0141182672Y0065996438D01*
X0141183000Y0066002855D01*
X0141183000Y0066027885D01*
X0146249500Y0066027885D01*
X0146249500Y0063034219D01*
X0146248627Y0063019410D01*
X0146245743Y0062995041D01*
X0146244636Y0062985689D01*
X0146246328Y0062976426D01*
X0146246328Y0062976419D01*
X0146255175Y0062927982D01*
X0146255826Y0062924075D01*
X0146263150Y0062875356D01*
X0146263150Y0062875355D01*
X0146264551Y0062866038D01*
X0146267679Y0062859525D01*
X0146268975Y0062852427D01*
X0146296028Y0062800347D01*
X0146297777Y0062796845D01*
X0146319113Y0062752413D01*
X0146319114Y0062752412D01*
X0146323191Y0062743921D01*
X0146328077Y0062738636D01*
X0146328108Y0062738589D01*
X0146331421Y0062732211D01*
X0146335725Y0062727172D01*
X0146372952Y0062689945D01*
X0146376382Y0062686379D01*
X0146408754Y0062651359D01*
X0146415146Y0062644444D01*
X0146421505Y0062640751D01*
X0146427663Y0062635234D01*
X0147257247Y0061805650D01*
X0147267101Y0061794561D01*
X0147282293Y0061775291D01*
X0147282295Y0061775289D01*
X0147288128Y0061767890D01*
X0147295875Y0061762535D01*
X0147295877Y0061762534D01*
X0147332124Y0061737483D01*
X0147336385Y0061734538D01*
X0147339597Y0061732243D01*
X0147379242Y0061702960D01*
X0147379243Y0061702959D01*
X0147386816Y0061697366D01*
X0147393632Y0061694973D01*
X0147399569Y0061690869D01*
X0147408549Y0061688029D01*
X0147408551Y0061688028D01*
X0147428717Y0061681650D01*
X0147455519Y0061673174D01*
X0147459250Y0061671929D01*
X0147505737Y0061655604D01*
X0147505739Y0061655604D01*
X0147514631Y0061652481D01*
X0147521819Y0061652199D01*
X0147521878Y0061652188D01*
X0147528730Y0061650020D01*
X0147535337Y0061649500D01*
X0147588016Y0061649500D01*
X0147592963Y0061649403D01*
X0147649994Y0061647162D01*
X0147657100Y0061649046D01*
X0147665347Y0061649500D01*
X0151165780Y0061649500D01*
X0151180589Y0061648627D01*
X0151204957Y0061645743D01*
X0151214310Y0061644636D01*
X0151223574Y0061646328D01*
X0151223578Y0061646328D01*
X0151272011Y0061655173D01*
X0151275912Y0061655822D01*
X0151324645Y0061663149D01*
X0151324653Y0061663151D01*
X0151333962Y0061664551D01*
X0151340472Y0061667677D01*
X0151347573Y0061668974D01*
X0151355928Y0061673314D01*
X0151399637Y0061696018D01*
X0151403175Y0061697786D01*
X0151404041Y0061698202D01*
X0151456079Y0061723191D01*
X0151461365Y0061728078D01*
X0151461405Y0061728105D01*
X0151467788Y0061731420D01*
X0151472828Y0061735725D01*
X0151510055Y0061772952D01*
X0151513620Y0061776381D01*
X0151555556Y0061815146D01*
X0151559249Y0061821505D01*
X0151564766Y0061827663D01*
X0152369350Y0062632247D01*
X0152380439Y0062642101D01*
X0152399709Y0062657293D01*
X0152399711Y0062657295D01*
X0152407110Y0062663128D01*
X0152412465Y0062670875D01*
X0152412466Y0062670877D01*
X0152440455Y0062711375D01*
X0152442757Y0062714597D01*
X0152464416Y0062743921D01*
X0152477634Y0062761816D01*
X0152480027Y0062768632D01*
X0152484131Y0062774569D01*
X0152486971Y0062783549D01*
X0152486972Y0062783551D01*
X0152501818Y0062830495D01*
X0152503071Y0062834250D01*
X0152512650Y0062861529D01*
X0152522519Y0062889631D01*
X0152522801Y0062896819D01*
X0152522812Y0062896878D01*
X0152524980Y0062903730D01*
X0152525500Y0062910337D01*
X0152525500Y0062963016D01*
X0152525597Y0062967962D01*
X0152527838Y0063024994D01*
X0152525954Y0063032100D01*
X0152525500Y0063040347D01*
X0152525500Y0070886207D01*
X0152545502Y0070954328D01*
X0152562405Y0070975302D01*
X0174249698Y0092662595D01*
X0174312010Y0092696621D01*
X0174338793Y0092699500D01*
X0175119748Y0092699500D01*
X0175125816Y0092700707D01*
X0175166061Y0092708712D01*
X0175166062Y0092708712D01*
X0175178231Y0092711133D01*
X0175244552Y0092755448D01*
X0175288867Y0092821769D01*
X0175300500Y0092880252D01*
X0175300500Y0093919748D01*
X0180305512Y0093919748D01*
X0179859219Y0093686425D01*
X0179859218Y0093686425D01*
X0179858452Y0093686024D01*
X0178788696Y0093086603D01*
X0178720058Y0093048143D01*
X0178720053Y0093048140D01*
X0178719239Y0093047684D01*
X0177599029Y0092376556D01*
X0176498764Y0091673206D01*
X0175419372Y0090938226D01*
X0174361761Y0090172234D01*
X0173326823Y0089375877D01*
X0173261392Y0089322437D01*
X0172316151Y0088550415D01*
X0172315427Y0088549824D01*
X0171328428Y0087694771D01*
X0170907883Y0087308526D01*
X0170367334Y0086812064D01*
X0170367317Y0086812048D01*
X0170366654Y0086811439D01*
X0170366018Y0086810820D01*
X0170365998Y0086810801D01*
X0169431577Y0085901213D01*
X0169431559Y0085901195D01*
X0169430918Y0085900571D01*
X0169430287Y0085899920D01*
X0169430267Y0085899900D01*
X0168522656Y0084963606D01*
X0168522641Y0084963590D01*
X0168522006Y0084962935D01*
X0167640684Y0083999319D01*
X0167408244Y0083729876D01*
X0166788285Y0083011221D01*
X0166787694Y0083010536D01*
X0165963755Y0081997418D01*
X0165169560Y0080960819D01*
X0165123994Y0080897629D01*
X0164950463Y0080656976D01*
X0164405779Y0079901611D01*
X0163673054Y0078820686D01*
X0162972003Y0077718956D01*
X0162303216Y0076597346D01*
X0162302776Y0076596557D01*
X0162302753Y0076596517D01*
X0161667717Y0075457631D01*
X0161667697Y0075457595D01*
X0161667256Y0075456803D01*
X0161064659Y0074298287D01*
X0160495932Y0073122773D01*
X0159962976Y0071934418D01*
X0159962789Y0071934053D01*
X0159962741Y0071933894D01*
X0159962697Y0071933797D01*
X0159961435Y0071932084D01*
X0159961150Y0071931426D01*
X0159959607Y0071923081D01*
X0159958084Y0071916452D01*
X0159951736Y0071904641D01*
X0159950703Y0071881518D01*
X0159948731Y0071864247D01*
X0159944521Y0071841474D01*
X0159948042Y0071828538D01*
X0159948040Y0071827583D01*
X0159948251Y0071826651D01*
X0159947653Y0071813256D01*
X0159956750Y0071791973D01*
X0159962465Y0071775546D01*
X0159964817Y0071766905D01*
X0159968544Y0071753210D01*
X0159977330Y0071743078D01*
X0159977742Y0071742217D01*
X0159978334Y0071741471D01*
X0159983604Y0071729141D01*
X0159994286Y0071719804D01*
X0159994287Y0071719802D01*
X0160001034Y0071713905D01*
X0160013309Y0071701580D01*
X0160019174Y0071694815D01*
X0160019175Y0071694814D01*
X0160028469Y0071684095D01*
X0160040776Y0071678776D01*
X0160041522Y0071678178D01*
X0160042381Y0071677762D01*
X0160052476Y0071668938D01*
X0160066149Y0071665157D01*
X0160066151Y0071665156D01*
X0160074788Y0071662768D01*
X0160091193Y0071656986D01*
X0160099416Y0071653432D01*
X0160112438Y0071647804D01*
X0160125832Y0071648348D01*
X0160126764Y0071648133D01*
X0160127720Y0071648131D01*
X0160140643Y0071644557D01*
X0160154605Y0071647079D01*
X0160163811Y0071646660D01*
X0160177137Y0071647433D01*
X0160351779Y0071636449D01*
X0161031027Y0071593727D01*
X0161035779Y0071593336D01*
X0161585594Y0071537670D01*
X0161920380Y0071503775D01*
X0161925144Y0071503201D01*
X0162805697Y0071380020D01*
X0162810436Y0071379265D01*
X0163685662Y0071222643D01*
X0163690369Y0071221708D01*
X0164559004Y0071031871D01*
X0164563672Y0071030757D01*
X0164721801Y0070989832D01*
X0165424448Y0070807981D01*
X0165429064Y0070806692D01*
X0165557039Y0070768316D01*
X0166280717Y0070551305D01*
X0166285257Y0070549850D01*
X0167126616Y0070262203D01*
X0167131125Y0070260564D01*
X0167219695Y0070226464D01*
X0167960874Y0069941107D01*
X0167965294Y0069939308D01*
X0168782319Y0069588468D01*
X0168786642Y0069586513D01*
X0169589713Y0069204818D01*
X0169594003Y0069202678D01*
X0169599872Y0069199609D01*
X0169743772Y0069124368D01*
X0170381928Y0068790694D01*
X0170386137Y0068788390D01*
X0170983239Y0068446621D01*
X0171157810Y0068346700D01*
X0171161917Y0068344244D01*
X0171185446Y0068329559D01*
X0171561813Y0068094669D01*
X0171916215Y0067873487D01*
X0171920236Y0067870869D01*
X0172656023Y0067371758D01*
X0172659943Y0067368989D01*
X0173009130Y0067112177D01*
X0173052156Y0067055704D01*
X0173057821Y0066984934D01*
X0173024325Y0066922335D01*
X0173006269Y0066907125D01*
X0172893679Y0066829065D01*
X0172390553Y0066480243D01*
X0172389805Y0066479691D01*
X0172389783Y0066479675D01*
X0171417135Y0065761548D01*
X0171416367Y0065760981D01*
X0170464016Y0065013046D01*
X0170463327Y0065012471D01*
X0170463311Y0065012458D01*
X0169535045Y0064237689D01*
X0169535042Y0064237686D01*
X0169534343Y0064237103D01*
X0168628174Y0063433837D01*
X0167746310Y0062603962D01*
X0166969078Y0061827663D01*
X0166890180Y0061748860D01*
X0166889531Y0061748211D01*
X0166873692Y0061731420D01*
X0166059206Y0060867987D01*
X0166059192Y0060867972D01*
X0166058598Y0060867342D01*
X0165254247Y0059962137D01*
X0164477189Y0059033396D01*
X0164476595Y0059032642D01*
X0164476594Y0059032641D01*
X0163728701Y0058082692D01*
X0163728679Y0058082663D01*
X0163728112Y0058081943D01*
X0163545973Y0057835868D01*
X0163008235Y0057109368D01*
X0163008215Y0057109340D01*
X0163007682Y0057108620D01*
X0162316534Y0056114289D01*
X0161932060Y0055524448D01*
X0161655800Y0055100625D01*
X0161655784Y0055100600D01*
X0161655283Y0055099831D01*
X0161045172Y0054100000D01*
X0151900000Y0054100000D01*
X0150900000Y0054100000D01*
X0148100000Y0054100000D01*
X0147100000Y0054100000D01*
X0147100000Y0052100000D01*
X0148100000Y0052100000D01*
X0148100000Y0054100000D01*
X0150900000Y0054100000D01*
X0150900000Y0052100000D01*
X0151900000Y0052100000D01*
X0151900000Y0054100000D01*
X0161045172Y0054100000D01*
X0161024513Y0054066144D01*
X0160907045Y0053860092D01*
X0160425229Y0053014928D01*
X0160425219Y0053014909D01*
X0160424783Y0053014145D01*
X0159856625Y0051944765D01*
X0159856213Y0051943931D01*
X0159320973Y0050859826D01*
X0159320960Y0050859799D01*
X0159320541Y0050858950D01*
X0158927808Y0050000000D01*
X0152505682Y0050000000D01*
X0152485044Y0050156762D01*
X0152481884Y0050164391D01*
X0152424536Y0050302841D01*
X0152426835Y0050303793D01*
X0152413500Y0050353562D01*
X0152413500Y0050974000D01*
X0152401766Y0051083149D01*
X0152401048Y0051086449D01*
X0152401048Y0051086450D01*
X0152394039Y0051118669D01*
X0152390380Y0051135491D01*
X0152355710Y0051239657D01*
X0152276692Y0051362612D01*
X0152230199Y0051416268D01*
X0152226806Y0051419208D01*
X0152126550Y0051506081D01*
X0152126547Y0051506083D01*
X0152119739Y0051511982D01*
X0151986790Y0051572698D01*
X0151963036Y0051579673D01*
X0151922992Y0051591431D01*
X0151922988Y0051591432D01*
X0151918669Y0051592700D01*
X0151914220Y0051593340D01*
X0151914214Y0051593341D01*
X0151778447Y0051612861D01*
X0151778442Y0051612861D01*
X0151774000Y0051613500D01*
X0151026000Y0051613500D01*
X0151022654Y0051613140D01*
X0151022649Y0051613140D01*
X0150920215Y0051602128D01*
X0150920208Y0051602127D01*
X0150916851Y0051601766D01*
X0150913550Y0051601048D01*
X0150867790Y0051591094D01*
X0150867785Y0051591093D01*
X0150864509Y0051590380D01*
X0150760343Y0051555710D01*
X0150637388Y0051476692D01*
X0150583732Y0051430199D01*
X0150528112Y0051366010D01*
X0150493919Y0051326550D01*
X0150493917Y0051326547D01*
X0150488018Y0051319739D01*
X0150427302Y0051186790D01*
X0150407300Y0051118669D01*
X0150402667Y0051086450D01*
X0150387139Y0050978447D01*
X0150387139Y0050978442D01*
X0150386500Y0050974000D01*
X0148613500Y0050974000D01*
X0148601766Y0051083149D01*
X0148601048Y0051086449D01*
X0148601048Y0051086450D01*
X0148594039Y0051118669D01*
X0148590380Y0051135491D01*
X0148555710Y0051239657D01*
X0148476692Y0051362612D01*
X0148430199Y0051416268D01*
X0148426806Y0051419208D01*
X0148326550Y0051506081D01*
X0148326547Y0051506083D01*
X0148319739Y0051511982D01*
X0148186790Y0051572698D01*
X0148163036Y0051579673D01*
X0148122992Y0051591431D01*
X0148122988Y0051591432D01*
X0148118669Y0051592700D01*
X0148114220Y0051593340D01*
X0148114214Y0051593341D01*
X0147978447Y0051612861D01*
X0147978442Y0051612861D01*
X0147974000Y0051613500D01*
X0147226000Y0051613500D01*
X0147222654Y0051613140D01*
X0147222649Y0051613140D01*
X0147120215Y0051602128D01*
X0147120208Y0051602127D01*
X0147116851Y0051601766D01*
X0147113550Y0051601048D01*
X0147067790Y0051591094D01*
X0147067785Y0051591093D01*
X0147064509Y0051590380D01*
X0146960343Y0051555710D01*
X0146837388Y0051476692D01*
X0146783732Y0051430199D01*
X0146728112Y0051366010D01*
X0146693919Y0051326550D01*
X0146693917Y0051326547D01*
X0146688018Y0051319739D01*
X0146627302Y0051186790D01*
X0146607300Y0051118669D01*
X0146602667Y0051086450D01*
X0146587139Y0050978447D01*
X0146587139Y0050978442D01*
X0146586500Y0050974000D01*
X0146586500Y0050453562D01*
X0146573165Y0050403793D01*
X0146575464Y0050402841D01*
X0146518116Y0050264391D01*
X0146514956Y0050256762D01*
X0146494318Y0050100000D01*
X0146514956Y0049943238D01*
X0146575464Y0049797159D01*
X0146573165Y0049796207D01*
X0146586500Y0049746438D01*
X0146586500Y0049226000D01*
X0146598234Y0049116851D01*
X0146598952Y0049113550D01*
X0146608906Y0049067790D01*
X0146608907Y0049067785D01*
X0146609620Y0049064509D01*
X0146644290Y0048960343D01*
X0146723308Y0048837388D01*
X0146769801Y0048783732D01*
X0146874828Y0048692726D01*
X0146913211Y0048633001D01*
X0146913211Y0048562004D01*
X0146874828Y0048502278D01*
X0146860436Y0048491504D01*
X0146859701Y0048491031D01*
X0146837388Y0048476692D01*
X0146783732Y0048430199D01*
X0146728112Y0048366010D01*
X0146693919Y0048326550D01*
X0146693917Y0048326547D01*
X0146688018Y0048319739D01*
X0146627302Y0048186790D01*
X0146607300Y0048118669D01*
X0146602667Y0048086450D01*
X0146587139Y0047978447D01*
X0146587139Y0047978442D01*
X0146586500Y0047974000D01*
X0146586500Y0047453562D01*
X0146573165Y0047403793D01*
X0146575464Y0047402841D01*
X0146518116Y0047264391D01*
X0146514956Y0047256762D01*
X0146494318Y0047100000D01*
X0146514956Y0046943238D01*
X0146575464Y0046797159D01*
X0146573165Y0046796207D01*
X0146586500Y0046746438D01*
X0146586500Y0046226000D01*
X0146598234Y0046116851D01*
X0146598952Y0046113550D01*
X0146608906Y0046067790D01*
X0146608907Y0046067785D01*
X0146609620Y0046064509D01*
X0146644290Y0045960343D01*
X0146723308Y0045837388D01*
X0146769801Y0045783732D01*
X0146779067Y0045775703D01*
X0146873450Y0045693919D01*
X0146873453Y0045693917D01*
X0146880261Y0045688018D01*
X0147013210Y0045627302D01*
X0147036964Y0045620327D01*
X0147077008Y0045608569D01*
X0147077012Y0045608568D01*
X0147081331Y0045607300D01*
X0147085780Y0045606660D01*
X0147085786Y0045606659D01*
X0147221553Y0045587139D01*
X0147221558Y0045587139D01*
X0147226000Y0045586500D01*
X0147974000Y0045586500D01*
X0147977346Y0045586860D01*
X0147977351Y0045586860D01*
X0148079785Y0045597872D01*
X0148079792Y0045597873D01*
X0148083149Y0045598234D01*
X0148086449Y0045598952D01*
X0148086450Y0045598952D01*
X0148132210Y0045608906D01*
X0148132215Y0045608907D01*
X0148135491Y0045609620D01*
X0148239657Y0045644290D01*
X0148362612Y0045723308D01*
X0148416268Y0045769801D01*
X0148419208Y0045773194D01*
X0148506081Y0045873450D01*
X0148506083Y0045873453D01*
X0148511982Y0045880261D01*
X0148572698Y0046013210D01*
X0148592700Y0046081331D01*
X0148593340Y0046085780D01*
X0148593341Y0046085786D01*
X0148597807Y0046116851D01*
X0148613500Y0046226000D01*
X0148613500Y0047974000D01*
X0148601766Y0048083149D01*
X0148601048Y0048086449D01*
X0148601048Y0048086450D01*
X0148594039Y0048118669D01*
X0148590380Y0048135491D01*
X0148555710Y0048239657D01*
X0148476692Y0048362612D01*
X0148430199Y0048416268D01*
X0148343371Y0048491504D01*
X0148325173Y0048507273D01*
X0148286789Y0048566999D01*
X0148286789Y0048637996D01*
X0148325172Y0048697722D01*
X0148339564Y0048708496D01*
X0148362612Y0048723308D01*
X0148416268Y0048769801D01*
X0148419208Y0048773194D01*
X0148506081Y0048873450D01*
X0148506083Y0048873453D01*
X0148511982Y0048880261D01*
X0148572698Y0049013210D01*
X0148592700Y0049081331D01*
X0148593340Y0049085780D01*
X0148593341Y0049085786D01*
X0148597807Y0049116851D01*
X0148613500Y0049226000D01*
X0148613500Y0050974000D01*
X0150386500Y0050974000D01*
X0150386500Y0049226000D01*
X0150398234Y0049116851D01*
X0150398952Y0049113550D01*
X0150408906Y0049067790D01*
X0150408907Y0049067785D01*
X0150409620Y0049064509D01*
X0150444290Y0048960343D01*
X0150523308Y0048837388D01*
X0150569801Y0048783732D01*
X0150674828Y0048692726D01*
X0150713211Y0048633001D01*
X0150713211Y0048562004D01*
X0150674828Y0048502278D01*
X0150660436Y0048491504D01*
X0150659701Y0048491031D01*
X0150637388Y0048476692D01*
X0150583732Y0048430199D01*
X0150528112Y0048366010D01*
X0150493919Y0048326550D01*
X0150493917Y0048326547D01*
X0150488018Y0048319739D01*
X0150427302Y0048186790D01*
X0150407300Y0048118669D01*
X0150402667Y0048086450D01*
X0150387139Y0047978447D01*
X0150387139Y0047978442D01*
X0150386500Y0047974000D01*
X0150386500Y0046226000D01*
X0150398234Y0046116851D01*
X0150398952Y0046113550D01*
X0150408906Y0046067790D01*
X0150408907Y0046067785D01*
X0150409620Y0046064509D01*
X0150444290Y0045960343D01*
X0150523308Y0045837388D01*
X0150569801Y0045783732D01*
X0150579067Y0045775703D01*
X0150673450Y0045693919D01*
X0150673453Y0045693917D01*
X0150680261Y0045688018D01*
X0150813210Y0045627302D01*
X0150836964Y0045620327D01*
X0150877008Y0045608569D01*
X0150877012Y0045608568D01*
X0150881331Y0045607300D01*
X0150885780Y0045606660D01*
X0150885786Y0045606659D01*
X0151021553Y0045587139D01*
X0151021558Y0045587139D01*
X0151026000Y0045586500D01*
X0151774000Y0045586500D01*
X0151777346Y0045586860D01*
X0151777351Y0045586860D01*
X0151879785Y0045597872D01*
X0151879792Y0045597873D01*
X0151883149Y0045598234D01*
X0151886449Y0045598952D01*
X0151886450Y0045598952D01*
X0151932210Y0045608906D01*
X0151932215Y0045608907D01*
X0151935491Y0045609620D01*
X0152039657Y0045644290D01*
X0152162612Y0045723308D01*
X0152216268Y0045769801D01*
X0152219208Y0045773194D01*
X0152306081Y0045873450D01*
X0152306083Y0045873453D01*
X0152311982Y0045880261D01*
X0152372698Y0046013210D01*
X0152392700Y0046081331D01*
X0152393340Y0046085780D01*
X0152393341Y0046085786D01*
X0152397807Y0046116851D01*
X0152413500Y0046226000D01*
X0152413500Y0046746438D01*
X0152426835Y0046796207D01*
X0152424536Y0046797159D01*
X0152485044Y0046943238D01*
X0152505682Y0047100000D01*
X0152485044Y0047256762D01*
X0152481884Y0047264391D01*
X0152424536Y0047402841D01*
X0152426835Y0047403793D01*
X0152413500Y0047453562D01*
X0152413500Y0047974000D01*
X0152401766Y0048083149D01*
X0152401048Y0048086449D01*
X0152401048Y0048086450D01*
X0152394039Y0048118669D01*
X0152390380Y0048135491D01*
X0152355710Y0048239657D01*
X0152276692Y0048362612D01*
X0152230199Y0048416268D01*
X0152143371Y0048491504D01*
X0152125173Y0048507273D01*
X0152086789Y0048566999D01*
X0152086789Y0048637996D01*
X0152125172Y0048697722D01*
X0152139564Y0048708496D01*
X0152162612Y0048723308D01*
X0152216268Y0048769801D01*
X0152219208Y0048773194D01*
X0152306081Y0048873450D01*
X0152306083Y0048873453D01*
X0152311982Y0048880261D01*
X0152372698Y0049013210D01*
X0152392700Y0049081331D01*
X0152393340Y0049085780D01*
X0152393341Y0049085786D01*
X0152397807Y0049116851D01*
X0152413500Y0049226000D01*
X0152413500Y0049646438D01*
X0152426835Y0049696207D01*
X0152424536Y0049697159D01*
X0152485044Y0049843238D01*
X0152505682Y0050000000D01*
X0158927808Y0050000000D01*
X0158817006Y0049757664D01*
X0158591384Y0049222649D01*
X0158346825Y0048642731D01*
X0158346814Y0048642705D01*
X0158346467Y0048641881D01*
X0158346145Y0048641048D01*
X0158346130Y0048641012D01*
X0157909681Y0047513470D01*
X0157909340Y0047512590D01*
X0157506013Y0046370790D01*
X0157461104Y0046230496D01*
X0157137133Y0045218404D01*
X0157137133Y0045218403D01*
X0157136842Y0045217495D01*
X0156803653Y0044058933D01*
X0156802947Y0044056871D01*
X0156801720Y0044054586D01*
X0156801531Y0044053893D01*
X0156801241Y0044046791D01*
X0156801020Y0044045366D01*
X0156800843Y0044042899D01*
X0156799976Y0044034465D01*
X0156795422Y0044021023D01*
X0156797745Y0044002054D01*
X0156798574Y0043981598D01*
X0156798373Y0043976671D01*
X0156797793Y0043962493D01*
X0156803418Y0043949467D01*
X0156803907Y0043946833D01*
X0156804818Y0043944306D01*
X0156806543Y0043930225D01*
X0156816861Y0043914143D01*
X0156826479Y0043896069D01*
X0156834060Y0043878516D01*
X0156844776Y0043869219D01*
X0156846363Y0043867052D01*
X0156848278Y0043865172D01*
X0156855938Y0043853233D01*
X0156872216Y0043843212D01*
X0156888726Y0043831093D01*
X0156903159Y0043818572D01*
X0156916847Y0043814842D01*
X0156919214Y0043813579D01*
X0156921755Y0043812716D01*
X0156933836Y0043805278D01*
X0156952854Y0043803307D01*
X0156972974Y0043799548D01*
X0156991417Y0043794523D01*
X0157005370Y0043797098D01*
X0157008056Y0043796986D01*
X0157010714Y0043797309D01*
X0157024824Y0043795847D01*
X0157038174Y0043800649D01*
X0157048765Y0043801937D01*
X0157060260Y0043804529D01*
X0157733214Y0043870861D01*
X0157739362Y0043871316D01*
X0158447523Y0043906228D01*
X0158453678Y0043906381D01*
X0158806862Y0043906475D01*
X0159162708Y0043906570D01*
X0159168879Y0043906420D01*
X0159741123Y0043878516D01*
X0159877030Y0043871889D01*
X0159883180Y0043871438D01*
X0160273186Y0043833206D01*
X0160588834Y0043802263D01*
X0160594960Y0043801510D01*
X0160945646Y0043749689D01*
X0161296335Y0043697867D01*
X0161302414Y0043696817D01*
X0161997909Y0043558943D01*
X0162003906Y0043557601D01*
X0162691839Y0043385826D01*
X0162697759Y0043384192D01*
X0163010950Y0043289473D01*
X0163376422Y0043178942D01*
X0163382284Y0043177011D01*
X0164050071Y0042938776D01*
X0164055832Y0042936560D01*
X0164557927Y0042729191D01*
X0164711153Y0042665907D01*
X0164716773Y0042663424D01*
X0165266875Y0042404000D01*
X0165358072Y0042360992D01*
X0165363589Y0042358223D01*
X0165989280Y0042024764D01*
X0165994654Y0042021729D01*
X0166603277Y0041658020D01*
X0166608496Y0041654725D01*
X0167198570Y0041261652D01*
X0167203622Y0041258105D01*
X0167773739Y0040836604D01*
X0167778611Y0040832814D01*
X0167816961Y0040801443D01*
X0167947491Y0040694669D01*
X0164857999Y0040694669D01*
X0164857629Y0040701490D01*
X0164852105Y0040752352D01*
X0164848479Y0040767604D01*
X0164803324Y0040888054D01*
X0164794786Y0040903649D01*
X0164718284Y0041005724D01*
X0164705724Y0041018285D01*
X0164603649Y0041094786D01*
X0164588054Y0041103324D01*
X0164467606Y0041148478D01*
X0164452351Y0041152105D01*
X0164401486Y0041157631D01*
X0164394672Y0041158000D01*
X0163872115Y0041158000D01*
X0163856876Y0041153525D01*
X0163855671Y0041152135D01*
X0163853999Y0041144452D01*
X0163853999Y0041139884D01*
X0163346000Y0041139884D01*
X0163341525Y0041155123D01*
X0163340135Y0041156328D01*
X0163332452Y0041157999D01*
X0162805331Y0041157999D01*
X0162798510Y0041157629D01*
X0162747648Y0041152105D01*
X0162732396Y0041148479D01*
X0162611946Y0041103324D01*
X0162596351Y0041094786D01*
X0162494276Y0041018285D01*
X0162481715Y0041005724D01*
X0162405214Y0040903649D01*
X0162396676Y0040888054D01*
X0162351522Y0040767606D01*
X0162347895Y0040752351D01*
X0162342369Y0040701486D01*
X0162341999Y0040694672D01*
X0162341999Y0040669748D01*
X0159650500Y0040669748D01*
X0159638867Y0040728231D01*
X0159594552Y0040794552D01*
X0159528231Y0040838867D01*
X0159516062Y0040841288D01*
X0159516061Y0040841288D01*
X0159475816Y0040849293D01*
X0159469748Y0040850500D01*
X0157930252Y0040850500D01*
X0157924184Y0040849293D01*
X0157883939Y0040841288D01*
X0157883938Y0040841288D01*
X0157871769Y0040838867D01*
X0157805448Y0040794552D01*
X0157761133Y0040728231D01*
X0157749500Y0040669748D01*
X0157749500Y0039647095D01*
X0156632999Y0039647095D01*
X0156632662Y0039653614D01*
X0156622743Y0039749206D01*
X0156619851Y0039762600D01*
X0156568412Y0039916784D01*
X0156562239Y0039929962D01*
X0156476937Y0040067807D01*
X0156467901Y0040079208D01*
X0156353171Y0040193739D01*
X0156341760Y0040202751D01*
X0156203757Y0040287816D01*
X0156190576Y0040293963D01*
X0156036290Y0040345138D01*
X0156022914Y0040348005D01*
X0155928562Y0040357672D01*
X0155922146Y0040358000D01*
X0155672115Y0040358000D01*
X0155656876Y0040353525D01*
X0155655671Y0040352135D01*
X0155654000Y0040344452D01*
X0155654000Y0040339884D01*
X0155146000Y0040339884D01*
X0155141525Y0040355123D01*
X0155140135Y0040356328D01*
X0155132452Y0040357999D01*
X0154877905Y0040357999D01*
X0154871386Y0040357662D01*
X0154775794Y0040347743D01*
X0154762400Y0040344851D01*
X0154608216Y0040293412D01*
X0154595038Y0040287239D01*
X0154457193Y0040201937D01*
X0154445792Y0040192901D01*
X0154331261Y0040078171D01*
X0154322249Y0040066760D01*
X0154237184Y0039928757D01*
X0154231037Y0039915576D01*
X0154179862Y0039761290D01*
X0154176995Y0039747914D01*
X0154167328Y0039653562D01*
X0154167000Y0039647146D01*
X0154167000Y0039622115D01*
X0154171475Y0039606876D01*
X0154172865Y0039605671D01*
X0154180548Y0039604000D01*
X0155127885Y0039604000D01*
X0155143124Y0039608475D01*
X0155144329Y0039609865D01*
X0155146000Y0039617548D01*
X0155146000Y0040339884D01*
X0155654000Y0040339884D01*
X0155654000Y0039622115D01*
X0155658475Y0039606876D01*
X0155659865Y0039605671D01*
X0155667548Y0039604000D01*
X0156614884Y0039604000D01*
X0156630123Y0039608475D01*
X0156631328Y0039609865D01*
X0156632999Y0039617548D01*
X0156632999Y0039647095D01*
X0157749500Y0039647095D01*
X0157749500Y0039630252D01*
X0157761133Y0039571769D01*
X0157805448Y0039505448D01*
X0157871769Y0039461133D01*
X0157883938Y0039458712D01*
X0157883939Y0039458712D01*
X0157924184Y0039450707D01*
X0157930252Y0039449500D01*
X0158073500Y0039449500D01*
X0158141621Y0039429498D01*
X0158188114Y0039375842D01*
X0158199500Y0039323500D01*
X0158199500Y0039077885D01*
X0156633000Y0039077885D01*
X0156628525Y0039093124D01*
X0156627135Y0039094329D01*
X0156619452Y0039096000D01*
X0154185116Y0039096000D01*
X0154169877Y0039091525D01*
X0154168672Y0039090135D01*
X0154167001Y0039082452D01*
X0154167001Y0039052905D01*
X0154167338Y0039046386D01*
X0154177257Y0038950794D01*
X0154180149Y0038937400D01*
X0154231588Y0038783216D01*
X0154237761Y0038770038D01*
X0154323063Y0038632193D01*
X0154332099Y0038620792D01*
X0154446829Y0038506261D01*
X0154458240Y0038497249D01*
X0154596243Y0038412184D01*
X0154609424Y0038406037D01*
X0154756092Y0038357389D01*
X0154814451Y0038316958D01*
X0154841688Y0038251394D01*
X0154829154Y0038181512D01*
X0154780830Y0038129500D01*
X0154758172Y0038118913D01*
X0154751856Y0038116695D01*
X0154711816Y0038102634D01*
X0154704246Y0038097042D01*
X0154704243Y0038097041D01*
X0154610421Y0038027742D01*
X0154602850Y0038022150D01*
X0154590335Y0038005206D01*
X0154527959Y0037920757D01*
X0154527958Y0037920754D01*
X0154522366Y0037913184D01*
X0154477481Y0037785369D01*
X0154474500Y0037753834D01*
X0154474500Y0037146166D01*
X0154477481Y0037114631D01*
X0154522366Y0036986816D01*
X0154527958Y0036979246D01*
X0154527959Y0036979243D01*
X0154597258Y0036885421D01*
X0154602850Y0036877850D01*
X0154619794Y0036865335D01*
X0154704243Y0036802959D01*
X0154704246Y0036802958D01*
X0154711816Y0036797366D01*
X0154839631Y0036752481D01*
X0154847277Y0036751758D01*
X0154847278Y0036751758D01*
X0154853248Y0036751194D01*
X0154871166Y0036749500D01*
X0155928834Y0036749500D01*
X0155946752Y0036751194D01*
X0155952722Y0036751758D01*
X0155952723Y0036751758D01*
X0155960369Y0036752481D01*
X0156088184Y0036797366D01*
X0156095754Y0036802958D01*
X0156095757Y0036802959D01*
X0156180206Y0036865335D01*
X0156197150Y0036877850D01*
X0156202742Y0036885421D01*
X0156272041Y0036979243D01*
X0156272042Y0036979246D01*
X0156277634Y0036986816D01*
X0156322519Y0037114631D01*
X0156325500Y0037146166D01*
X0156325500Y0037753834D01*
X0156322519Y0037785369D01*
X0156277634Y0037913184D01*
X0156272042Y0037920754D01*
X0156272041Y0037920757D01*
X0156209665Y0038005206D01*
X0156197150Y0038022150D01*
X0156189579Y0038027742D01*
X0156095757Y0038097041D01*
X0156095754Y0038097042D01*
X0156088184Y0038102634D01*
X0156042027Y0038118843D01*
X0155984381Y0038160286D01*
X0155958293Y0038226316D01*
X0155972044Y0038295968D01*
X0156021269Y0038347129D01*
X0156043899Y0038357250D01*
X0156191784Y0038406588D01*
X0156204962Y0038412761D01*
X0156342807Y0038498063D01*
X0156354208Y0038507099D01*
X0156468739Y0038621829D01*
X0156477751Y0038633240D01*
X0156562816Y0038771243D01*
X0156568963Y0038784424D01*
X0156620138Y0038938710D01*
X0156623005Y0038952086D01*
X0156632672Y0039046438D01*
X0156633000Y0039052855D01*
X0156633000Y0039077885D01*
X0158199500Y0039077885D01*
X0158199500Y0038992099D01*
X0158179498Y0038923978D01*
X0158173463Y0038915395D01*
X0158135192Y0038865519D01*
X0158125464Y0038852841D01*
X0158064956Y0038706762D01*
X0158044318Y0038550000D01*
X0158064956Y0038393238D01*
X0158125464Y0038247159D01*
X0158221718Y0038121718D01*
X0158347159Y0038025464D01*
X0158493238Y0037964956D01*
X0158650000Y0037944318D01*
X0158806762Y0037964956D01*
X0158952841Y0038025464D01*
X0159078282Y0038121718D01*
X0159174536Y0038247159D01*
X0159235044Y0038393238D01*
X0159255682Y0038550000D01*
X0159235044Y0038706762D01*
X0159174536Y0038852841D01*
X0159164808Y0038865519D01*
X0159126537Y0038915395D01*
X0159100937Y0038981616D01*
X0159100500Y0038992099D01*
X0159100500Y0039323500D01*
X0159120502Y0039391621D01*
X0159174158Y0039438114D01*
X0159226500Y0039449500D01*
X0159469748Y0039449500D01*
X0159475816Y0039450707D01*
X0159516061Y0039458712D01*
X0159516062Y0039458712D01*
X0159528231Y0039461133D01*
X0159594552Y0039505448D01*
X0159638867Y0039571769D01*
X0159650500Y0039630252D01*
X0159650500Y0040669748D01*
X0162341999Y0040669748D01*
X0162341999Y0040422115D01*
X0162346475Y0040406876D01*
X0162347865Y0040405671D01*
X0162355548Y0040404000D01*
X0163327884Y0040404000D01*
X0163343124Y0040408475D01*
X0163344329Y0040409865D01*
X0163346000Y0040417548D01*
X0163346000Y0041139884D01*
X0163853999Y0041139884D01*
X0163853999Y0040422115D01*
X0163858475Y0040406876D01*
X0163859865Y0040405671D01*
X0163867548Y0040404000D01*
X0164839883Y0040404000D01*
X0164855123Y0040408475D01*
X0164856328Y0040409865D01*
X0164857999Y0040417548D01*
X0164857999Y0040694669D01*
X0167947491Y0040694669D01*
X0168295659Y0040409865D01*
X0168327407Y0040383895D01*
X0168332087Y0040379871D01*
X0168539081Y0040192901D01*
X0168858228Y0039904626D01*
X0168862702Y0039900382D01*
X0168867099Y0039896000D01*
X0168885279Y0039877885D01*
X0164858000Y0039877885D01*
X0164853525Y0039893124D01*
X0164852135Y0039894329D01*
X0164844452Y0039896000D01*
X0163872115Y0039896000D01*
X0163856876Y0039891525D01*
X0163855671Y0039890135D01*
X0163853999Y0039882452D01*
X0163853999Y0039877885D01*
X0163346000Y0039877885D01*
X0163341525Y0039893124D01*
X0163340135Y0039894329D01*
X0163332452Y0039896000D01*
X0162360116Y0039896000D01*
X0162344877Y0039891525D01*
X0162343672Y0039890135D01*
X0162342000Y0039882452D01*
X0162342000Y0039605331D01*
X0162342371Y0039598510D01*
X0162347895Y0039547648D01*
X0162351521Y0039532396D01*
X0162396676Y0039411946D01*
X0162405214Y0039396351D01*
X0162481715Y0039294276D01*
X0162494276Y0039281715D01*
X0162596351Y0039205214D01*
X0162611946Y0039196676D01*
X0162732394Y0039151522D01*
X0162747649Y0039147895D01*
X0162798514Y0039142369D01*
X0162805328Y0039142000D01*
X0163327884Y0039142000D01*
X0163343124Y0039146475D01*
X0163344329Y0039147865D01*
X0163346000Y0039155548D01*
X0163346000Y0039877885D01*
X0163853999Y0039877885D01*
X0163853999Y0039160116D01*
X0163858475Y0039144877D01*
X0163859865Y0039143672D01*
X0163867548Y0039142001D01*
X0164394669Y0039142001D01*
X0164401490Y0039142371D01*
X0164452352Y0039147895D01*
X0164467604Y0039151521D01*
X0164588054Y0039196676D01*
X0164603649Y0039205214D01*
X0164705724Y0039281715D01*
X0164718284Y0039294276D01*
X0164794786Y0039396351D01*
X0164803324Y0039411946D01*
X0164848478Y0039532394D01*
X0164852105Y0039547649D01*
X0164857631Y0039598514D01*
X0164858000Y0039605328D01*
X0164858000Y0039877885D01*
X0168885279Y0039877885D01*
X0169160146Y0039604000D01*
X0169364958Y0039399919D01*
X0169369221Y0039395456D01*
X0169586858Y0039156239D01*
X0169617905Y0039092391D01*
X0169609504Y0039021893D01*
X0169561029Y0038964971D01*
X0168787994Y0038475861D01*
X0167750730Y0037777722D01*
X0167704174Y0037746387D01*
X0167704166Y0037746382D01*
X0167703415Y0037745876D01*
X0167570016Y0037650500D01*
X0167317204Y0037469748D01*
X0164550500Y0037469748D01*
X0164538866Y0037528231D01*
X0164494552Y0037594552D01*
X0164428230Y0037638867D01*
X0164416062Y0037641288D01*
X0164416061Y0037641288D01*
X0164375816Y0037649293D01*
X0164369748Y0037650500D01*
X0162830252Y0037650500D01*
X0162824184Y0037649293D01*
X0162783939Y0037641288D01*
X0162783938Y0037641288D01*
X0162771769Y0037638867D01*
X0162705448Y0037594552D01*
X0162661133Y0037528231D01*
X0162649500Y0037469748D01*
X0162649500Y0036900000D01*
X0161655682Y0036900000D01*
X0161635044Y0037056762D01*
X0161574536Y0037202841D01*
X0161478281Y0037328282D01*
X0161352841Y0037424536D01*
X0161206762Y0037485044D01*
X0161050000Y0037505682D01*
X0161041812Y0037504604D01*
X0160901426Y0037486122D01*
X0160893238Y0037485044D01*
X0160747159Y0037424536D01*
X0160684605Y0037376537D01*
X0160618384Y0037350937D01*
X0160607901Y0037350500D01*
X0159775835Y0037350500D01*
X0159707714Y0037370502D01*
X0159661221Y0037424158D01*
X0159650500Y0037463935D01*
X0159650500Y0037469748D01*
X0159638867Y0037528231D01*
X0159594552Y0037594552D01*
X0159528231Y0037638867D01*
X0159516062Y0037641288D01*
X0159516061Y0037641288D01*
X0159475816Y0037649293D01*
X0159469748Y0037650500D01*
X0157930252Y0037650500D01*
X0157924184Y0037649293D01*
X0157883939Y0037641288D01*
X0157883938Y0037641288D01*
X0157871769Y0037638867D01*
X0157805448Y0037594552D01*
X0157761133Y0037528231D01*
X0157749500Y0037469748D01*
X0157749500Y0036430252D01*
X0157761133Y0036371769D01*
X0157805448Y0036305448D01*
X0157871769Y0036261133D01*
X0157883938Y0036258712D01*
X0157883939Y0036258712D01*
X0157924184Y0036250707D01*
X0157930252Y0036249500D01*
X0159469748Y0036249500D01*
X0159475816Y0036250707D01*
X0159516061Y0036258712D01*
X0159516062Y0036258712D01*
X0159528231Y0036261133D01*
X0159594552Y0036305448D01*
X0159638867Y0036371769D01*
X0159639719Y0036376054D01*
X0159680771Y0036426998D01*
X0159752634Y0036449500D01*
X0160607901Y0036449500D01*
X0160676022Y0036429498D01*
X0160684605Y0036423463D01*
X0160740608Y0036380491D01*
X0160747159Y0036375464D01*
X0160893238Y0036314956D01*
X0161050000Y0036294318D01*
X0161206762Y0036314956D01*
X0161352841Y0036375464D01*
X0161478281Y0036471718D01*
X0161574536Y0036597159D01*
X0161635044Y0036743238D01*
X0161655682Y0036900000D01*
X0162649500Y0036900000D01*
X0162649500Y0036430252D01*
X0162661133Y0036371769D01*
X0162705448Y0036305448D01*
X0162771769Y0036261133D01*
X0162783938Y0036258712D01*
X0162783939Y0036258712D01*
X0162824184Y0036250707D01*
X0162830252Y0036249500D01*
X0164369748Y0036249500D01*
X0164375816Y0036250707D01*
X0164416061Y0036258712D01*
X0164416062Y0036258712D01*
X0164428230Y0036261133D01*
X0164494552Y0036305448D01*
X0164538866Y0036371769D01*
X0164550500Y0036430252D01*
X0164550500Y0037469748D01*
X0167317204Y0037469748D01*
X0166640630Y0036986020D01*
X0166640606Y0036986002D01*
X0166639916Y0036985509D01*
X0166490628Y0036872258D01*
X0166127993Y0036597159D01*
X0165598348Y0036195365D01*
X0165200840Y0035875703D01*
X0164580233Y0035376633D01*
X0164580202Y0035376608D01*
X0164579545Y0035376079D01*
X0163966961Y0034854254D01*
X0163585042Y0034528920D01*
X0163585015Y0034528896D01*
X0163584322Y0034528306D01*
X0162613475Y0033652723D01*
X0161667780Y0032750031D01*
X0160747996Y0031820954D01*
X0159854856Y0030866233D01*
X0159207863Y0030134182D01*
X0158989653Y0029887285D01*
X0158989645Y0029887275D01*
X0158989077Y0029886633D01*
X0158343160Y0029112748D01*
X0158151913Y0028883612D01*
X0158151895Y0028883589D01*
X0158151351Y0028882938D01*
X0157342347Y0027855951D01*
X0156562714Y0026806493D01*
X0155937433Y0025913089D01*
X0155813574Y0025736119D01*
X0155813551Y0025736085D01*
X0155813075Y0025735405D01*
X0155094030Y0024643542D01*
X0154492844Y0023671888D01*
X0154406597Y0023532494D01*
X0154406585Y0023532474D01*
X0154406155Y0023531779D01*
X0153820131Y0022521867D01*
X0153750463Y0022401806D01*
X0153750457Y0022401794D01*
X0153749999Y0022401006D01*
X0153126087Y0021252126D01*
X0152534920Y0020086060D01*
X0152534549Y0020085273D01*
X0152534530Y0020085235D01*
X0151977339Y0018904524D01*
X0151976969Y0018903740D01*
X0151452681Y0017706113D01*
X0150962477Y0016494136D01*
X0150508273Y0015272883D01*
X0150507667Y0015271473D01*
X0150507665Y0015271465D01*
X0150506491Y0015269632D01*
X0150506249Y0015268956D01*
X0150503809Y0015248307D01*
X0150500113Y0015229483D01*
X0150494560Y0015209429D01*
X0150497078Y0015195466D01*
X0150497003Y0015193835D01*
X0150497178Y0015192204D01*
X0150495512Y0015178112D01*
X0150502271Y0015158438D01*
X0150507105Y0015139866D01*
X0150508277Y0015133367D01*
X0150508277Y0015133366D01*
X0150510795Y0015119405D01*
X0150519118Y0015107916D01*
X0150519762Y0015106404D01*
X0150520622Y0015105017D01*
X0150525232Y0015091600D01*
X0150535203Y0015081510D01*
X0150535204Y0015081508D01*
X0150539852Y0015076805D01*
X0150552264Y0015062164D01*
X0150556138Y0015056817D01*
X0150564462Y0015045327D01*
X0150576945Y0015038584D01*
X0150578172Y0015037508D01*
X0150579555Y0015036627D01*
X0150589529Y0015026534D01*
X0150602893Y0015021765D01*
X0150602894Y0015021764D01*
X0150609112Y0015019545D01*
X0150626649Y0015011734D01*
X0150644945Y0015001850D01*
X0150659121Y0015001187D01*
X0150660698Y0015000749D01*
X0150662321Y0015000556D01*
X0150675683Y0014995787D01*
X0150689790Y0014997284D01*
X0150689794Y0014997284D01*
X0150696366Y0014997982D01*
X0150715540Y0014998549D01*
X0150736321Y0014997577D01*
X0150749378Y0015003125D01*
X0150750993Y0015003415D01*
X0150752541Y0015003945D01*
X0150766648Y0015005443D01*
X0150788307Y0015018851D01*
X0150789708Y0015019718D01*
X0150792970Y0015021649D01*
X0150799336Y0015024354D01*
X0150808006Y0015030647D01*
X0150815674Y0015035792D01*
X0150817425Y0015036876D01*
X0150841855Y0015051999D01*
X0150841871Y0015052008D01*
X0150844427Y0015053591D01*
X0150844524Y0015053434D01*
X0150850913Y0015056867D01*
X0150848573Y0015060091D01*
X0153106939Y0016699227D01*
X0153173816Y0016723052D01*
X0153242960Y0016706938D01*
X0153292416Y0016656000D01*
X0153306482Y0016586411D01*
X0153300831Y0016558469D01*
X0151970381Y0012446165D01*
X0151969483Y0012443846D01*
X0151962690Y0012434907D01*
X0151957179Y0012407904D01*
X0151954999Y0012399613D01*
X0151954455Y0012396943D01*
X0151952278Y0012390212D01*
X0151951652Y0012383170D01*
X0151951058Y0012380250D01*
X0151949862Y0012372053D01*
X0151944398Y0012345279D01*
X0151947273Y0012333889D01*
X0151946233Y0012322188D01*
X0151955862Y0012296600D01*
X0151960097Y0012283079D01*
X0151963311Y0012270346D01*
X0151966784Y0012256585D01*
X0151974314Y0012247569D01*
X0151978451Y0012236574D01*
X0151988714Y0012226774D01*
X0151988717Y0012226770D01*
X0151998213Y0012217703D01*
X0152004061Y0012211452D01*
X0152006099Y0012209507D01*
X0152010671Y0012204032D01*
X0152016355Y0012199720D01*
X0152018476Y0012197696D01*
X0152024886Y0012192234D01*
X0152034350Y0012183197D01*
X0152044609Y0012173401D01*
X0152055428Y0012169891D01*
X0152057661Y0012168384D01*
X0155605549Y0009476883D01*
X0155647731Y0009419776D01*
X0155652343Y0009348930D01*
X0155617920Y0009286836D01*
X0155555391Y0009253211D01*
X0155529396Y0009250500D01*
X0151136435Y0009250500D01*
X0151131988Y0009250719D01*
X0151120193Y0009254662D01*
X0151106117Y0009252880D01*
X0151106116Y0009252880D01*
X0151095201Y0009251498D01*
X0151090956Y0009251230D01*
X0151084472Y0009250500D01*
X0151077397Y0009250500D01*
X0151070502Y0009248927D01*
X0151070047Y0009248876D01*
X0151058872Y0009246899D01*
X0151056795Y0009246636D01*
X0151029442Y0009243173D01*
X0151020825Y0009237595D01*
X0151010815Y0009235312D01*
X0150987611Y0009216822D01*
X0150977557Y0009209588D01*
X0150964563Y0009201177D01*
X0150964562Y0009201176D01*
X0150952651Y0009193466D01*
X0150947305Y0009184703D01*
X0150939276Y0009178305D01*
X0150926381Y0009151572D01*
X0150920848Y0009141410D01*
X0150920703Y0009141098D01*
X0150916993Y0009135016D01*
X0150914740Y0009128257D01*
X0150911865Y0009122065D01*
X0150910357Y0009118349D01*
X0150905699Y0009108692D01*
X0150899535Y0009095913D01*
X0150899524Y0009083333D01*
X0150898240Y0009078757D01*
X0150896930Y0009074829D01*
X0149519534Y0004942639D01*
X0149479017Y0004884339D01*
X0149413412Y0004857200D01*
X0149343549Y0004869837D01*
G37*
%TD.AperFunction*%
%TD*%
M02*