%TF.GenerationSoftware,KiCad,Pcbnew,(6.0.7)*%
%TF.CreationDate,2022-11-21T20:11:54+01:00*%
%TF.ProjectId,Arbolito Tronco 2,4172626f-6c69-4746-9f20-54726f6e636f,rev?*%
%TF.SameCoordinates,Original*%
%TF.FileFunction,Profile,NP*%
%FSLAX46Y46*%
G04 Gerber Fmt 4.6, Leading zero omitted, Abs format (unit mm)*
G04 Created by KiCad (PCBNEW (6.0.7)) date 2022-11-21 20:11:54*
%MOMM*%
%LPD*%
G01*
G04 APERTURE LIST*
%TA.AperFunction,Profile*%
%ADD10C,0.1*%
%TD*%
G04 APERTURE END LIST*
D10*
X0150400000Y0063900000D02*
X0150400000Y0115000000D01*
X0141999995Y0043999999D02*
G75*
G03*
X0125500000Y0067000000I-0039068195J-0010608698D01*
G01*
X0151100000Y0009050000D02*
X0156500000Y0009050000D01*
X0153900000Y0115000000D02*
X0153900000Y0113400000D01*
X0146650000Y0012300000D02*
X0144950000Y0017700000D01*
X0146650000Y0012300000D02*
X0142300000Y0009100000D01*
X0153900000Y0113400000D02*
X0158700000Y0113400000D01*
X0140999998Y0102999981D02*
G75*
G03*
X0115300000Y0095200000I-0003955898J-0033204980D01*
G01*
X0170000000Y0038999999D02*
G75*
G03*
X0150700000Y0015200000I0024050169J-0039228289D01*
G01*
X0173500000Y0067000000D02*
G75*
G03*
X0157000000Y0044000000I0022568229J-0033608730D01*
G01*
X0149400000Y0003950000D02*
X0151100000Y0009050000D01*
X0148600000Y0063900000D02*
X0148600000Y0115000000D01*
X0150400000Y0115000000D02*
X0153900000Y0115000000D01*
X0183462079Y0095210808D02*
G75*
G03*
X0160150000Y0071850000I0017821030J-0041095988D01*
G01*
X0183462082Y0095210811D02*
G75*
G03*
X0157762953Y0102978087I-0021678582J-0025328410D01*
G01*
X0145100000Y0115000000D02*
X0148600000Y0115000000D01*
X0138499999Y0071800026D02*
G75*
G03*
X0125500000Y0067000000I0000994100J-0022696426D01*
G01*
X0147700000Y0009050000D02*
X0142300000Y0009100000D01*
X0142000005Y0044000027D02*
G75*
G03*
X0128800000Y0039400000I-0002599405J-0013779927D01*
G01*
X0140999996Y0103000000D02*
G75*
G03*
X0140300000Y0113400000I-0072790896J0000324200D01*
G01*
X0147700000Y0009050000D02*
X0149400000Y0003950000D01*
X0158699998Y0113400000D02*
G75*
G03*
X0157762953Y0102978087I0093617202J-0013670300D01*
G01*
X0148349997Y0015199999D02*
G75*
G03*
X0128800000Y0039400000I-0043839877J-0015419348D01*
G01*
X0173500003Y0067000004D02*
G75*
G03*
X0160150000Y0071850000I-0014385803J-0018799604D01*
G01*
X0153800000Y0017450000D02*
X0150700000Y0015200000D01*
X0138500036Y0071800016D02*
G75*
G03*
X0115300000Y0095200000I-0041408836J-0017854115D01*
G01*
X0148600000Y0063900000D02*
X0150400000Y0063900000D01*
X0144950000Y0017700000D02*
X0148350000Y0015200000D01*
X0140300000Y0113400000D02*
X0145100000Y0113400000D01*
X0156500000Y0009050000D02*
X0152150000Y0012350000D01*
X0169999990Y0038999991D02*
G75*
G03*
X0157000000Y0044000000I-0011187890J-0009688491D01*
G01*
X0145100000Y0113400000D02*
X0145100000Y0115000000D01*
X0152150000Y0012350000D02*
X0153800000Y0017450000D01*
M02*