%TF.GenerationSoftware,KiCad,Pcbnew,(6.0.7)*%
%TF.CreationDate,2022-11-21T20:11:54+01:00*%
%TF.ProjectId,Arbolito Tronco 2,4172626f-6c69-4746-9f20-54726f6e636f,rev?*%
%TF.SameCoordinates,Original*%
%TF.FileFunction,Copper,L1,Top*%
%TF.FilePolarity,Positive*%
%FSLAX46Y46*%
G04 Gerber Fmt 4.6, Leading zero omitted, Abs format (unit mm)*
G04 Created by KiCad (PCBNEW (6.0.7)) date 2022-11-21 20:11:54*
%MOMM*%
%LPD*%
G01*
G04 APERTURE LIST*
G04 Aperture macros list*
%AMRoundRect*
4,1,4,-2.0000000000000004,-2.9999999999999996,-4.0000000000000009,-4.9999999999999991,-6.0000000000000009,-6.9999999999999991,-8.0000000000000018,-8.9999999999999982,-2.0000000000000004,-2.9999999999999996,0*
1,1,$1,$2,$3*
1,1,$1,$2,$3*
1,1,$1,$2,$3*
1,1,$1,$2,$3*
20,1,$1,$2,$3,$4,$5,180*
20,1,$1,$2,$3,$4,$5,180*
20,1,$1,$2,$3,$4,$5,180*
20,1,$1,$2,$3,$4,$5,180*%
G04 Aperture macros list end*
%TA.AperFunction,SMDPad,CuDef*%
%AMCOMP58*
4,1,3,
0.47499999999999992,-0.25000000000000006,
0.47500000000000003,0.24999999999999994,
-0.47499999999999992,0.25000000000000006,
-0.47500000000000003,-0.24999999999999994,
0*
4,1,19,
0.47499999999999992,-0.50000000000000011,
0.39774575140626306,-0.48776412907378847,
0.32805368692688164,-0.45225424859373692,
0.27274575140626306,-0.39694631307311834,
0.23723587092621157,-0.32725424859373692,
0.22499999999999995,-0.25,
0.23723587092621154,-0.17274575140626319,
0.27274575140626311,-0.10305368692688177,
0.32805368692688164,-0.047745751406263207,
0.39774575140626311,-0.012235870926211666,
0.47499999999999992,-0.000000000000000058168801806562912,
0.552254248593737,-0.012235870926211685,
0.62194631307311821,-0.047745751406263186,
0.67725424859373684,-0.10305368692688177,
0.71276412907378839,-0.17274575140626319,
0.725,-0.25000000000000006,
0.71276412907378839,-0.32725424859373692,
0.67725424859373684,-0.39694631307311828,
0.62194631307311832,-0.45225424859373692,
0.55225424859373673,-0.48776412907378847,
0*
4,1,19,
0.475,-0.000000000000000058168801806562912,
0.39774575140626311,0.012235870926211569,
0.32805368692688169,0.047745751406263096,
0.27274575140626311,0.10305368692688169,
0.23723587092621162,0.17274575140626311,
0.225,0.24999999999999994,
0.2372358709262116,0.32725424859373681,
0.27274575140626317,0.39694631307311817,
0.32805368692688169,0.45225424859373681,
0.39774575140626317,0.48776412907378836,
0.475,0.49999999999999994,
0.55225424859373706,0.48776412907378836,
0.62194631307311821,0.45225424859373681,
0.67725424859373684,0.39694631307311828,
0.71276412907378839,0.32725424859373675,
0.725,0.24999999999999997,
0.71276412907378839,0.17274575140626311,
0.67725424859373684,0.10305368692688169,
0.62194631307311832,0.047745751406263089,
0.55225424859373684,0.01223587092621155,
0*
4,1,19,
-0.475,0.000000000000000058168801806562912,
-0.55225424859373684,0.012235870926211685,
-0.62194631307311821,0.047745751406263214,
-0.67725424859373684,0.1030536869268818,
-0.71276412907378839,0.17274575140626322,
-0.725,0.25000000000000006,
-0.71276412907378839,0.327254248593737,
-0.67725424859373684,0.39694631307311828,
-0.62194631307311832,0.45225424859373692,
-0.55225424859373673,0.48776412907378847,
-0.475,0.50000000000000011,
-0.397745751406263,0.48776412907378847,
-0.32805368692688169,0.45225424859373692,
-0.27274575140626306,0.3969463130731184,
-0.23723587092621157,0.32725424859373692,
-0.22499999999999995,0.25000000000000006,
-0.23723587092621154,0.17274575140626322,
-0.27274575140626311,0.1030536869268818,
-0.32805368692688164,0.047745751406263207,
-0.39774575140626306,0.012235870926211666,
0*
4,1,19,
-0.47500000000000003,-0.49999999999999994,
-0.552254248593737,-0.48776412907378836,
-0.62194631307311821,-0.45225424859373681,
-0.67725424859373684,-0.39694631307311823,
-0.71276412907378839,-0.32725424859373675,
-0.725,-0.24999999999999992,
-0.71276412907378839,-0.17274575140626308,
-0.67725424859373684,-0.10305368692688166,
-0.62194631307311832,-0.047745751406263089,
-0.55225424859373684,-0.01223587092621155,
-0.47500000000000003,0.000000000000000058168801806562925,
-0.39774575140626306,-0.012235870926211569,
-0.32805368692688175,-0.047745751406263068,
-0.27274575140626311,-0.10305368692688166,
-0.23723587092621162,-0.17274575140626308,
-0.225,-0.24999999999999992,
-0.2372358709262116,-0.32725424859373675,
-0.27274575140626317,-0.39694631307311817,
-0.32805368692688169,-0.45225424859373681,
-0.39774575140626311,-0.48776412907378836,
0*
4,1,3,
0.725,-0.25000000000000011,
0.22499999999999995,-0.25,
0.225,0.24999999999999997,
0.725,0.24999999999999989,
0*
4,1,3,
0.47500000000000003,0.49999999999999994,
0.475,-0.000000000000000058168801806562912,
-0.475,0.000000000000000058168801806562912,
-0.47499999999999992,0.50000000000000011,
0*
4,1,3,
-0.725,0.25000000000000011,
-0.22499999999999995,0.25,
-0.225,-0.24999999999999997,
-0.725,-0.24999999999999989,
0*
4,1,3,
-0.47500000000000003,-0.49999999999999994,
-0.475,0.000000000000000058168801806562912,
0.475,-0.000000000000000058168801806562912,
0.47499999999999992,-0.50000000000000011,
0*%
%ADD10COMP58,0.25X-0.475X0.25X-0.475X-0.25X0.475X-0.25X0.475X0.25X0*%
%TD*%
%TA.AperFunction,SMDPad,CuDef*%
%ADD11R,1.5X1*%
%TD*%
%TA.AperFunction,ViaPad*%
%ADD12C,0.8*%
%TD*%
%TA.AperFunction,Conductor*%
%ADD13C,0.5*%
%TD*%
G04 APERTURE END LIST*
D10*
%TO.P,C16,1*%
%TO.N,+5V*%
X0289000000Y-0015000000D02*
X0139950000Y0064400000D03*
%TO.P,C16,2*%
%TO.N,GND*%
X0139950000Y0066300000D03*
%TD*%
D11*
%TO.P,U5,1,VDD*%
%TO.N,+5V*%
X0163600000Y0037000000D03*
%TO.P,U5,2,DIN*%
%TO.N,Net-(U4-Pad4)*%
X0163600000Y0040200000D03*
%TO.P,U5,3,VSS*%
%TO.N,GND*%
X0158700000Y0040200000D03*
%TO.P,U5,4,DOUT*%
%TO.N,Net-(U5-Pad4)*%
X0158700000Y0037000000D03*
%TD*%
D10*
%TO.P,C12,1*%
%TO.N,+5V*%
X0155400000Y0037450000D03*
%TO.P,C12,2*%
%TO.N,GND*%
X0155400000Y0039350000D03*
%TD*%
D11*
%TO.P,U1,1,VDD*%
%TO.N,+5V*%
X0174350000Y0093400000D03*
%TO.P,U1,2,DIN*%
%TO.N,/DIN*%
X0174350000Y0096600000D03*
%TO.P,U1,3,VSS*%
%TO.N,GND*%
X0169450000Y0096600000D03*
%TO.P,U1,4,DOUT*%
%TO.N,Net-(U1-Pad4)*%
X0169450000Y0093400000D03*
%TD*%
D10*
%TO.P,C14,1*%
%TO.N,+5V*%
X0166300000Y0093900000D03*
%TO.P,C14,2*%
%TO.N,GND*%
X0166300000Y0095800000D03*
%TD*%
D11*
%TO.P,U4,1,VDD*%
%TO.N,+5V*%
X0136750000Y0064350000D03*
%TO.P,U4,2,DIN*%
%TO.N,Net-(U3-Pad4)*%
X0136750000Y0067550000D03*
%TO.P,U4,3,VSS*%
%TO.N,GND*%
X0131850000Y0067550000D03*
%TO.P,U4,4,DOUT*%
%TO.N,Net-(U4-Pad4)*%
X0131850000Y0064350000D03*
%TD*%
D12*
%TO.N,+5V*%
X0166300000Y0093900000D03*
X0139950000Y0064400000D03*
X0151900000Y0047100000D03*
X0161050000Y0036900000D03*
X0171750000Y0093450000D03*
X0147100000Y0047100000D03*
X0155400000Y0037450000D03*
X0133949999Y0064350000D03*
%TO.N,GND*%
X0133900000Y0067600000D03*
X0166300000Y0095850000D03*
X0151900000Y0053100000D03*
X0147100000Y0053100000D03*
X0171700000Y0096700000D03*
X0155400000Y0039350000D03*
X0161150000Y0040250000D03*
X0140000000Y0066350000D03*
%TO.N,/DIN*%
X0147100000Y0050100000D03*
X0151900000Y0050000000D03*
%TO.N,Net-(U1-Pad4)*%
X0169350000Y0095050000D03*
%TO.N,Net-(U3-Pad4)*%
X0136750000Y0065950000D03*
%TO.N,Net-(U5-Pad4)*%
X0158650000Y0038550000D03*
%TD*%
D13*
%TO.N,+5V*%
X0171750000Y0093450000D02*
X0174300000Y0093450000D01*
X0133949999Y0064350000D02*
X0136750000Y0064350000D01*
X0174300000Y0093450000D02*
X0174350000Y0093400000D01*
%TO.N,GND*%
X0158750000Y0040250000D02*
X0158700000Y0040200000D01*
X0171600000Y0096600000D02*
X0171700000Y0096700000D01*
X0161150000Y0040250000D02*
X0158750000Y0040250000D01*
X0131900000Y0067600000D02*
X0131850000Y0067550000D01*
X0169450000Y0096600000D02*
X0171600000Y0096600000D01*
X0133900000Y0067600000D02*
X0131900000Y0067600000D01*
%TO.N,/DIN*%
X0155100000Y0093250000D02*
X0155100000Y0052000000D01*
X0155100000Y0052000000D02*
X0153100000Y0050000000D01*
X0153100000Y0050000000D02*
X0151900000Y0050000000D01*
X0174350000Y0096600000D02*
X0174350000Y0097150000D01*
X0174350000Y0097150000D02*
X0172000000Y0099500000D01*
X0151900000Y0050000000D02*
X0147200000Y0050000000D01*
X0172000000Y0099500000D02*
X0161350000Y0099500000D01*
X0147200000Y0050000000D02*
X0147100000Y0050100000D01*
X0161350000Y0099500000D02*
X0155100000Y0093250000D01*
%TO.N,Net-(U1-Pad4)*%
X0169350000Y0095050000D02*
X0169350000Y0093500000D01*
X0169350000Y0093500000D02*
X0169450000Y0093400000D01*
X0169400000Y0093350000D02*
X0169450000Y0093400000D01*
%TO.N,Net-(U3-Pad4)*%
X0136750000Y0065950000D02*
X0136750000Y0067550000D01*
%TO.N,Net-(U4-Pad4)*%
X0163600000Y0040500000D02*
X0163600000Y0040200000D01*
X0147600000Y0043000000D02*
X0154300000Y0043000000D01*
X0155600000Y0041700000D02*
X0162400000Y0041700000D01*
X0132600000Y0064350000D02*
X0143800000Y0053150000D01*
X0143800000Y0053150000D02*
X0143800000Y0046800000D01*
X0154300000Y0043000000D02*
X0155600000Y0041700000D01*
X0143800000Y0046800000D02*
X0147600000Y0043000000D01*
X0162400000Y0041700000D02*
X0163600000Y0040500000D01*
X0131850000Y0064350000D02*
X0132600000Y0064350000D01*
%TO.N,Net-(U5-Pad4)*%
X0158700000Y0037000000D02*
X0158700000Y0038500000D01*
X0158700000Y0038500000D02*
X0158650000Y0038550000D01*
%TD*%
%TA.AperFunction,Conductor*%
%TO.N,/DIN*%
G36*
X0150957879Y0049120002D02*
G01*
X0150911386Y0049173658D01*
X0150900000Y0049226000D01*
X0150900000Y0050974000D01*
X0150920002Y0051042121D01*
X0150973658Y0051088614D01*
X0151026000Y0051100000D01*
X0151774000Y0051100000D01*
X0151842121Y0051079998D01*
X0151888614Y0051026342D01*
X0151900000Y0050974000D01*
X0151900000Y0049226000D01*
X0151879998Y0049157879D01*
X0151826342Y0049111386D01*
X0151774000Y0049100000D01*
X0151026000Y0049100000D01*
X0150957879Y0049120002D01*
G37*
%TD.AperFunction*%
%TD*%
%TA.AperFunction,Conductor*%
%TO.N,/DIN*%
G36*
X0147157879Y0049120002D02*
G01*
X0147111386Y0049173658D01*
X0147100000Y0049226000D01*
X0147100000Y0050974000D01*
X0147120002Y0051042121D01*
X0147173658Y0051088614D01*
X0147226000Y0051100000D01*
X0147974000Y0051100000D01*
X0148042121Y0051079998D01*
X0148088614Y0051026342D01*
X0148100000Y0050974000D01*
X0148100000Y0049226000D01*
X0148079998Y0049157879D01*
X0148026342Y0049111386D01*
X0147974000Y0049100000D01*
X0147226000Y0049100000D01*
X0147157879Y0049120002D01*
G37*
%TD.AperFunction*%
%TD*%
%TA.AperFunction,Conductor*%
%TO.N,+5V*%
G36*
X0150900000Y0048100000D02*
G01*
X0151900000Y0048100000D01*
X0151900000Y0046100000D01*
X0150900000Y0046100000D01*
X0150900000Y0048100000D01*
G37*
%TD.AperFunction*%
%TD*%
%TA.AperFunction,Conductor*%
%TO.N,+5V*%
G36*
X0147100000Y0048100000D02*
G01*
X0148100000Y0048100000D01*
X0148100000Y0046100000D01*
X0147100000Y0046100000D01*
X0147100000Y0048100000D01*
G37*
%TD.AperFunction*%
%TD*%
%TA.AperFunction,Conductor*%
%TO.N,GND*%
G36*
X0150957879Y0052120002D02*
G01*
X0150911386Y0052173658D01*
X0150900000Y0052226000D01*
X0150900000Y0053974000D01*
X0150920002Y0054042121D01*
X0150973658Y0054088614D01*
X0151026000Y0054100000D01*
X0151774000Y0054100000D01*
X0151842121Y0054079998D01*
X0151888614Y0054026342D01*
X0151900000Y0053974000D01*
X0151900000Y0052226000D01*
X0151879998Y0052157879D01*
X0151826342Y0052111386D01*
X0151774000Y0052100000D01*
X0151026000Y0052100000D01*
X0150957879Y0052120002D01*
G37*
%TD.AperFunction*%
%TD*%
%TA.AperFunction,NonConductor*%
G36*
X0141057879Y0112120002D02*
G01*
X0141011386Y0112173658D01*
X0141000000Y0112226000D01*
X0141000000Y0112765500D01*
X0141020002Y0112833621D01*
X0141073658Y0112880114D01*
X0141126000Y0112891500D01*
X0144974000Y0112891500D01*
X0145042121Y0112871498D01*
X0145088614Y0112817842D01*
X0145100000Y0112765500D01*
X0145100000Y0112226000D01*
X0145079998Y0112157879D01*
X0145026342Y0112111386D01*
X0144974000Y0112100000D01*
X0141126000Y0112100000D01*
X0141057879Y0112120002D01*
G37*
%TD.AperFunction*%
%TA.AperFunction,Conductor*%
%TO.N,GND*%
G36*
X0147157879Y0052120002D02*
G01*
X0147111386Y0052173658D01*
X0147100000Y0052226000D01*
X0147100000Y0053974000D01*
X0147120002Y0054042121D01*
X0147173658Y0054088614D01*
X0147226000Y0054100000D01*
X0147974000Y0054100000D01*
X0148042121Y0054079998D01*
X0148088614Y0054026342D01*
X0148100000Y0053974000D01*
X0148100000Y0052226000D01*
X0148079998Y0052157879D01*
X0148026342Y0052111386D01*
X0147974000Y0052100000D01*
X0147226000Y0052100000D01*
X0147157879Y0052120002D01*
G37*
%TD.AperFunction*%
%TD*%
%TA.AperFunction,NonConductor*%
G36*
X0153957879Y0112120002D02*
G01*
X0153911386Y0112173658D01*
X0153900000Y0112226000D01*
X0153900000Y0112765500D01*
X0153920002Y0112833621D01*
X0153973658Y0112880114D01*
X0154026000Y0112891500D01*
X0157874000Y0112891500D01*
X0157942121Y0112871498D01*
X0157988614Y0112817842D01*
X0158000000Y0112765500D01*
X0158000000Y0112226000D01*
X0157979998Y0112157879D01*
X0157926342Y0112111386D01*
X0157874000Y0112100000D01*
X0154026000Y0112100000D01*
X0153957879Y0112120002D01*
G37*
%TD.AperFunction*%
%TA.AperFunction,Conductor*%
%TO.N,+5V*%
G36*
X0149343549Y0004869837D02*
G01*
X0149291609Y0004918239D01*
X0149280466Y0004942639D01*
X0147901661Y0009079054D01*
X0147900840Y0009082044D01*
X0147900958Y0009093704D01*
X0147889614Y0009117899D01*
X0147886932Y0009124613D01*
X0147885301Y0009128133D01*
X0147883063Y0009134847D01*
X0147879386Y0009140898D01*
X0147878571Y0009142657D01*
X0147874078Y0009151037D01*
X0147868152Y0009163676D01*
X0147862126Y0009176528D01*
X0147853429Y0009183616D01*
X0147847600Y0009193209D01*
X0147835702Y0009200940D01*
X0147835699Y0009200943D01*
X0147823986Y0009208554D01*
X0147813036Y0009216538D01*
X0147802220Y0009225353D01*
X0147802217Y0009225354D01*
X0147791218Y0009234319D01*
X0147780306Y0009236935D01*
X0147770895Y0009243050D01*
X0147756827Y0009244856D01*
X0147756821Y0009244858D01*
X0147742968Y0009246636D01*
X0147733366Y0009248397D01*
X0147731570Y0009248618D01*
X0147724636Y0009250280D01*
X0147717510Y0009250346D01*
X0147713407Y0009250850D01*
X0147706378Y0009251332D01*
X0147697308Y0009252496D01*
X0147694240Y0009252890D01*
X0147694239Y0009252890D01*
X0147680164Y0009254697D01*
X0147668955Y0009250971D01*
X0147665631Y0009250826D01*
X0143281315Y0009291422D01*
X0143213383Y0009312054D01*
X0143167389Y0009366138D01*
X0143157936Y0009436503D01*
X0143188026Y0009500808D01*
X0143207819Y0009518913D01*
X0146739627Y0012117025D01*
X0146742412Y0012118855D01*
X0146753681Y0012122392D01*
X0146764037Y0012132091D01*
X0146764036Y0012132091D01*
X0146772968Y0012140457D01*
X0146778122Y0012144740D01*
X0146781314Y0012147692D01*
X0146787017Y0012151887D01*
X0146791644Y0012157245D01*
X0146792833Y0012158345D01*
X0146799691Y0012165485D01*
X0146820446Y0012184924D01*
X0146824434Y0012195218D01*
X0146831650Y0012203575D01*
X0146837913Y0012226770D01*
X0146839065Y0012231036D01*
X0146843213Y0012243697D01*
X0146853489Y0012270223D01*
X0146852618Y0012281229D01*
X0146855496Y0012291887D01*
X0146852313Y0012308910D01*
X0146850270Y0012319838D01*
X0146848933Y0012329914D01*
X0146848651Y0012331366D01*
X0146848088Y0012338478D01*
X0146845947Y0012345279D01*
X0146845075Y0012349767D01*
X0146843489Y0012356111D01*
X0146838685Y0012381805D01*
X0146831609Y0012391441D01*
X0146830361Y0012394788D01*
X0145441225Y0016807335D01*
X0145439848Y0016878318D01*
X0145477066Y0016938777D01*
X0145541063Y0016969517D01*
X0145611520Y0016960778D01*
X0145636051Y0016946683D01*
X0148200480Y0015061074D01*
X0148198185Y0015057953D01*
X0148204430Y0015054489D01*
X0148204523Y0015054636D01*
X0148233277Y0015036547D01*
X0148240809Y0015031420D01*
X0148249436Y0015025077D01*
X0148255700Y0015022357D01*
X0148258823Y0015020477D01*
X0148269937Y0015013486D01*
X0148269938Y0015013486D01*
X0148281952Y0015005928D01*
X0148296052Y0015004328D01*
X0148297533Y0015003809D01*
X0148299065Y0015003522D01*
X0148312075Y0014997871D01*
X0148326251Y0014998421D01*
X0148326253Y0014998421D01*
X0148332976Y0014998682D01*
X0148352062Y0014997974D01*
X0148358745Y0014997216D01*
X0148358747Y0014997216D01*
X0148372845Y0014995617D01*
X0148386239Y0015000288D01*
X0148387795Y0015000462D01*
X0148389307Y0015000869D01*
X0148403481Y0015001420D01*
X0148421963Y0015011215D01*
X0148439462Y0015018851D01*
X0148444123Y0015020477D01*
X0148459218Y0015025742D01*
X0148469263Y0015035762D01*
X0148470581Y0015036588D01*
X0148471768Y0015037612D01*
X0148484306Y0015044257D01*
X0148492722Y0015055682D01*
X0148496706Y0015061090D01*
X0148509168Y0015075567D01*
X0148523982Y0015090344D01*
X0148528688Y0015103728D01*
X0148529518Y0015105045D01*
X0148530144Y0015106482D01*
X0148538560Y0015117907D01*
X0148541189Y0015131850D01*
X0148541190Y0015131853D01*
X0148542435Y0015138456D01*
X0148547387Y0015156906D01*
X0148549617Y0015163249D01*
X0148549617Y0015163252D01*
X0148554325Y0015176640D01*
X0148552760Y0015190748D01*
X0148552938Y0015192303D01*
X0148552879Y0015193858D01*
X0148555508Y0015207799D01*
X0148551831Y0015221499D01*
X0148551831Y0015221503D01*
X0148550086Y0015228005D01*
X0148546548Y0015246774D01*
X0148544243Y0015267558D01*
X0148544006Y0015268236D01*
X0148542873Y0015270033D01*
X0148542834Y0015270140D01*
X0148542823Y0015270187D01*
X0148542778Y0015270292D01*
X0148542236Y0015271766D01*
X0148085344Y0016514055D01*
X0148085022Y0016514860D01*
X0147912111Y0016946683D01*
X0147591853Y0017746486D01*
X0147591509Y0017747278D01*
X0147591504Y0017747291D01*
X0147063876Y0018963551D01*
X0147063514Y0018964385D01*
X0146500753Y0020166766D01*
X0145904027Y0021352657D01*
X0145273817Y0022521099D01*
X0144610634Y0023671146D01*
X0143915014Y0024801868D01*
X0143187520Y0025912351D01*
X0142428739Y0027001696D01*
X0141639287Y0028069022D01*
X0141638729Y0028069733D01*
X0140820365Y0029112748D01*
X0140820343Y0029112775D01*
X0140819801Y0029113466D01*
X0139970945Y0030134182D01*
X0139093404Y0031130346D01*
X0139092807Y0031130986D01*
X0138449836Y0031820318D01*
X0138187890Y0032101152D01*
X0138187316Y0032101734D01*
X0138187300Y0032101750D01*
X0137547820Y0032749392D01*
X0137255134Y0033045814D01*
X0136295890Y0033963567D01*
X0135310935Y0034853671D01*
X0135310259Y0034854247D01*
X0135310252Y0034854254D01*
X0134698073Y0035376633D01*
X0134301066Y0035715404D01*
X0133267099Y0036548070D01*
X0133266357Y0036548633D01*
X0133266349Y0036548639D01*
X0132210576Y0037350460D01*
X0132210557Y0037350474D01*
X0132209871Y0037350995D01*
X0132209179Y0037351491D01*
X0132209167Y0037351499D01*
X0131132768Y0038121718D01*
X0131130237Y0038123529D01*
X0130029069Y0038865049D01*
X0129239522Y0039364690D01*
X0129192657Y0039418018D01*
X0129182062Y0039488220D01*
X0129213837Y0039556101D01*
X0129435476Y0039798941D01*
X0129440033Y0039803679D01*
X0129948628Y0040305640D01*
X0129953416Y0040310125D01*
X0130217880Y0040545211D01*
X0130487488Y0040784868D01*
X0130492513Y0040789105D01*
X0131050605Y0041235339D01*
X0131055846Y0041239309D01*
X0131636450Y0041655827D01*
X0131641888Y0041659518D01*
X0132006150Y0041893063D01*
X0132231378Y0042037466D01*
X0132243427Y0042045191D01*
X0132249045Y0042048590D01*
X0132794964Y0042359676D01*
X0132869897Y0042402375D01*
X0132875685Y0042405476D01*
X0133514137Y0042726397D01*
X0133520076Y0042729191D01*
X0134174394Y0043016376D01*
X0134180479Y0043018860D01*
X0134848873Y0043271525D01*
X0134855080Y0043273688D01*
X0135535737Y0043491148D01*
X0135542049Y0043492985D01*
X0136233133Y0043674655D01*
X0136239532Y0043676160D01*
X0136939152Y0043821540D01*
X0136945621Y0043822709D01*
X0137651865Y0043931403D01*
X0137658386Y0043932233D01*
X0137874886Y0043954071D01*
X0138369342Y0044003946D01*
X0138375879Y0044004433D01*
X0138647797Y0044017591D01*
X0139089622Y0044038971D01*
X0139096194Y0044039117D01*
X0139432428Y0044037831D01*
X0139810766Y0044036383D01*
X0139817303Y0044036188D01*
X0140530753Y0043996190D01*
X0140537304Y0043995651D01*
X0141247685Y0043918500D01*
X0141254199Y0043917620D01*
X0141840991Y0043822709D01*
X0141926769Y0043808835D01*
X0141936663Y0043805921D01*
X0141948530Y0043803661D01*
X0141961525Y0043797975D01*
X0141975701Y0043798487D01*
X0141980377Y0043797596D01*
X0141989160Y0043796937D01*
X0141993916Y0043797119D01*
X0142007865Y0043794494D01*
X0142021571Y0043798177D01*
X0142027257Y0043798395D01*
X0142033255Y0043799297D01*
X0142038759Y0043800763D01*
X0142052941Y0043801275D01*
X0142065499Y0043807887D01*
X0142070109Y0043809115D01*
X0142078293Y0043812323D01*
X0142082504Y0043814552D01*
X0142096207Y0043818234D01*
X0142106958Y0043827495D01*
X0142111976Y0043830151D01*
X0142117012Y0043833580D01*
X0142121327Y0043837281D01*
X0142133883Y0043843892D01*
X0142142331Y0043855296D01*
X0142145948Y0043858398D01*
X0142151935Y0043864842D01*
X0142154762Y0043868675D01*
X0142165514Y0043877937D01*
X0142171185Y0043890944D01*
X0142174564Y0043895526D01*
X0142177603Y0043900780D01*
X0142179890Y0043905994D01*
X0142188336Y0043917394D01*
X0142191003Y0043931332D01*
X0142192915Y0043935690D01*
X0142195518Y0043944101D01*
X0142196403Y0043948781D01*
X0142202074Y0043961788D01*
X0142201544Y0043975967D01*
X0142202601Y0043981557D01*
X0142203062Y0043987623D01*
X0142202862Y0043993303D01*
X0142205529Y0044007240D01*
X0142201889Y0044020954D01*
X0142201721Y0044025712D01*
X0142199005Y0044043874D01*
X0142198656Y0044053200D01*
X0142198469Y0044053893D01*
X0142197195Y0044056284D01*
X0142196611Y0044057999D01*
X0141863154Y0045217494D01*
X0141862863Y0045218403D01*
X0141535391Y0046241432D01*
X0141493984Y0046370790D01*
X0141090657Y0047512589D01*
X0140653531Y0048641881D01*
X0140653183Y0048642706D01*
X0140653173Y0048642731D01*
X0140408614Y0049222649D01*
X0140182992Y0049757664D01*
X0139679458Y0050858950D01*
X0139679039Y0050859800D01*
X0139679026Y0050859826D01*
X0139143787Y0051943931D01*
X0139143375Y0051944765D01*
X0138575217Y0053014145D01*
X0138574781Y0053014909D01*
X0138574771Y0053014928D01*
X0137975956Y0054065322D01*
X0137975487Y0054066145D01*
X0137344717Y0055099831D01*
X0137344216Y0055100600D01*
X0137344200Y0055100625D01*
X0137067940Y0055524448D01*
X0136683466Y0056114289D01*
X0135992319Y0057108621D01*
X0135991786Y0057109341D01*
X0135991766Y0057109369D01*
X0135454028Y0057835868D01*
X0135271888Y0058081944D01*
X0135271321Y0058082664D01*
X0135271299Y0058082693D01*
X0134523407Y0059032642D01*
X0134523388Y0059032666D01*
X0134522812Y0059033397D01*
X0133745754Y0059962138D01*
X0132941402Y0060867343D01*
X0132110469Y0061748212D01*
X0131253691Y0062603963D01*
X0130371827Y0063433838D01*
X0129465657Y0064237104D01*
X0129464958Y0064237687D01*
X0129464955Y0064237690D01*
X0128536690Y0065012459D01*
X0128536673Y0065012472D01*
X0128535985Y0065013047D01*
X0127583633Y0065760981D01*
X0127582866Y0065761548D01*
X0126610217Y0066479676D01*
X0126610195Y0066479692D01*
X0126609446Y0066480244D01*
X0126608669Y0066480783D01*
X0126608657Y0066480792D01*
X0125989695Y0066909924D01*
X0125945109Y0066965175D01*
X0125937472Y0067035760D01*
X0125969208Y0067099268D01*
X0125985807Y0067114214D01*
X0126319002Y0067364509D01*
X0126322958Y0067367364D01*
X0127036210Y0067861133D01*
X0127040218Y0067863794D01*
X0127772063Y0068329569D01*
X0127776198Y0068332089D01*
X0128089566Y0068514874D01*
X0128525492Y0068769144D01*
X0128529755Y0068771521D01*
X0129295390Y0069179215D01*
X0129299742Y0069181426D01*
X0130080623Y0069559173D01*
X0130085057Y0069561213D01*
X0130145305Y0069587529D01*
X0130879979Y0069908430D01*
X0130884464Y0069910287D01*
X0131692281Y0070226471D01*
X0131696823Y0070228147D01*
X0132516248Y0070512795D01*
X0132520857Y0070514297D01*
X0133350665Y0070766984D01*
X0133355356Y0070768314D01*
X0133995984Y0070936577D01*
X0134194371Y0070988684D01*
X0134199117Y0070989832D01*
X0135045981Y0071177527D01*
X0135050766Y0071178491D01*
X0135904331Y0071333257D01*
X0135909105Y0071334026D01*
X0136767988Y0071455610D01*
X0136772792Y0071456196D01*
X0137165187Y0071496313D01*
X0137635773Y0071544425D01*
X0137640637Y0071544827D01*
X0138472189Y0071597404D01*
X0138484513Y0071596669D01*
X0138494687Y0071597097D01*
X0138508640Y0071594525D01*
X0138521575Y0071598053D01*
X0138522531Y0071598052D01*
X0138523463Y0071598264D01*
X0138536856Y0071597673D01*
X0138549899Y0071603256D01*
X0138549898Y0071603256D01*
X0138558138Y0071606783D01*
X0138574563Y0071612507D01*
X0138583200Y0071614863D01*
X0138583204Y0071614865D01*
X0138596892Y0071618599D01*
X0138607016Y0071627387D01*
X0138607877Y0071627800D01*
X0138608624Y0071628394D01*
X0138620952Y0071633671D01*
X0138634559Y0071649255D01*
X0138636178Y0071651109D01*
X0138648495Y0071663390D01*
X0138665973Y0071678561D01*
X0138671285Y0071690872D01*
X0138671882Y0071691618D01*
X0138672297Y0071692476D01*
X0138681117Y0071702577D01*
X0138684890Y0071716253D01*
X0138684892Y0071716256D01*
X0138687277Y0071724900D01*
X0138693050Y0071741307D01*
X0138696595Y0071749521D01*
X0138696595Y0071749523D01*
X0138702217Y0071762550D01*
X0138701665Y0071775949D01*
X0138701879Y0071776878D01*
X0138701881Y0071777829D01*
X0138705448Y0071790757D01*
X0138701370Y0071813256D01*
X0138701319Y0071813535D01*
X0138699406Y0071830822D01*
X0138698454Y0071853949D01*
X0138692148Y0071865781D01*
X0138690647Y0071872418D01*
X0138690576Y0071872809D01*
X0138689133Y0071880766D01*
X0138688850Y0071881426D01*
X0138687678Y0071883029D01*
X0138155305Y0073070476D01*
X0137588149Y0074243860D01*
X0136987474Y0075400443D01*
X0136353776Y0076539267D01*
X0135687579Y0077659391D01*
X0134989434Y0078759886D01*
X0134988961Y0078760586D01*
X0134988952Y0078760600D01*
X0134416577Y0079607933D01*
X0134259921Y0079839843D01*
X0133499642Y0080898366D01*
X0132709228Y0081934580D01*
X0132708677Y0081935261D01*
X0132708668Y0081935271D01*
X0131889900Y0082946924D01*
X0131889331Y0082947627D01*
X0131888770Y0082948280D01*
X0131888744Y0082948312D01*
X0131218081Y0083729876D01*
X0131040630Y0083936669D01*
X0130163830Y0084900887D01*
X0130163202Y0084901540D01*
X0130163200Y0084901541D01*
X0129534821Y0085553840D01*
X0129259655Y0085839482D01*
X0128328853Y0086751679D01*
X0128328189Y0086752293D01*
X0128328183Y0086752299D01*
X0128264256Y0086811439D01*
X0127372195Y0087636721D01*
X0127371519Y0087637311D01*
X0127371497Y0087637331D01*
X0127305709Y0087694771D01*
X0126390471Y0088493877D01*
X0125384498Y0089322437D01*
X0124355105Y0090121715D01*
X0124354408Y0090122225D01*
X0124354405Y0090122227D01*
X0123755585Y0090560164D01*
X0123303145Y0090891049D01*
X0122229489Y0091629803D01*
X0122228727Y0091630295D01*
X0122228713Y0091630305D01*
X0121852994Y0091873204D01*
X0121135025Y0092337365D01*
X0120020659Y0093013149D01*
X0119586717Y0093259517D01*
X0118891888Y0093654000D01*
X0118887315Y0093656597D01*
X0118886511Y0093657024D01*
X0118886507Y0093657025D01*
X0118866663Y0093667548D01*
X0117735929Y0094267175D01*
X0117735132Y0094267569D01*
X0117735108Y0094267581D01*
X0117307609Y0094478757D01*
X0116567455Y0094844379D01*
X0116062474Y0095076004D01*
X0115860175Y0095168795D01*
X0115806596Y0095215376D01*
X0115786706Y0095283530D01*
X0115806821Y0095351618D01*
X0115832368Y0095380388D01*
X0116275265Y0095746955D01*
X0116278518Y0095749558D01*
X0117144416Y0096419257D01*
X0117147752Y0096421750D01*
X0118035305Y0097062456D01*
X0118038722Y0097064838D01*
X0118126898Y0097124158D01*
X0118946993Y0097675875D01*
X0118950439Y0097678113D01*
X0119492414Y0098017255D01*
X0119878443Y0098258814D01*
X0119882001Y0098260959D01*
X0120399359Y0098561371D01*
X0120828622Y0098810629D01*
X0120832258Y0098812661D01*
X0121796550Y0099330752D01*
X0121800249Y0099332661D01*
X0122203357Y0099532362D01*
X0122781140Y0099818598D01*
X0122784901Y0099820385D01*
X0123781317Y0100273632D01*
X0123785136Y0100275294D01*
X0124795999Y0100695364D01*
X0124799865Y0100696896D01*
X0125824048Y0101083319D01*
X0125827943Y0101084715D01*
X0126864386Y0101437091D01*
X0126868308Y0101438352D01*
X0127915814Y0101756271D01*
X0127919761Y0101757399D01*
X0128977224Y0102040526D01*
X0128981224Y0102041527D01*
X0129415322Y0102142503D01*
X0130047459Y0102289545D01*
X0130051531Y0102290421D01*
X0131125306Y0102503046D01*
X0131129405Y0102503788D01*
X0131873394Y0102625707D01*
X0132209692Y0102680817D01*
X0132213797Y0102681420D01*
X0132524498Y0102721841D01*
X0133299298Y0102822638D01*
X0133303437Y0102823107D01*
X0133728926Y0102864213D01*
X0134393045Y0102928372D01*
X0134397142Y0102928700D01*
X0134922507Y0102961974D01*
X0135489623Y0102997892D01*
X0135493784Y0102998087D01*
X0136459171Y0103027242D01*
X0136587986Y0103031132D01*
X0136592144Y0103031188D01*
X0137203811Y0103029433D01*
X0137686748Y0103028047D01*
X0137690912Y0103027967D01*
X0138784902Y0102988645D01*
X0138789062Y0102988426D01*
X0139881073Y0102912971D01*
X0139885223Y0102912616D01*
X0140939939Y0102804610D01*
X0140945785Y0102803282D01*
X0140952845Y0102799823D01*
X0140964420Y0102799741D01*
X0140975315Y0102795831D01*
X0140989425Y0102797303D01*
X0140989426Y0102797303D01*
X0141002760Y0102798694D01*
X0141016724Y0102799371D01*
X0141030132Y0102799276D01*
X0141030134Y0102799276D01*
X0141044319Y0102799176D01*
X0141054785Y0102804122D01*
X0141066296Y0102805323D01*
X0141078376Y0102812771D01*
X0141089781Y0102819803D01*
X0141102072Y0102826470D01*
X0141113185Y0102831722D01*
X0141127024Y0102838262D01*
X0141134309Y0102847257D01*
X0141144161Y0102853331D01*
X0141159047Y0102876569D01*
X0141167231Y0102887905D01*
X0141171832Y0102893586D01*
X0141184597Y0102909346D01*
X0141187261Y0102920609D01*
X0141193505Y0102930356D01*
X0141196841Y0102957747D01*
X0141199300Y0102971514D01*
X0141204004Y0102991404D01*
X0141204005Y0102991408D01*
X0141205650Y0102998366D01*
X0141205654Y0102999084D01*
X0141204652Y0103003567D01*
X0141204643Y0103003727D01*
X0141204505Y0103004225D01*
X0141204279Y0103005236D01*
X0141204232Y0103013293D01*
X0141204204Y0103018202D01*
X0141205285Y0103018208D01*
X0141206024Y0103022306D01*
X0141204180Y0103022295D01*
X0141201977Y0103403181D01*
X0141195672Y0104493573D01*
X0141156434Y0105987566D01*
X0141156403Y0105988237D01*
X0141156401Y0105988281D01*
X0141087697Y0107457393D01*
X0141086619Y0107480443D01*
X0140986255Y0108971577D01*
X0140986198Y0108972223D01*
X0140899277Y0109961020D01*
X0140855384Y0110460345D01*
X0140855322Y0110460912D01*
X0140855319Y0110460947D01*
X0140742894Y0111496368D01*
X0140755426Y0111566250D01*
X0140803750Y0111618263D01*
X0140872522Y0111635893D01*
X0140911190Y0111628225D01*
X0140913210Y0111627302D01*
X0140943994Y0111618263D01*
X0140977008Y0111608569D01*
X0140977012Y0111608568D01*
X0140981331Y0111607300D01*
X0140985780Y0111606660D01*
X0140985786Y0111606659D01*
X0141121553Y0111587139D01*
X0141121558Y0111587139D01*
X0141126000Y0111586500D01*
X0142976294Y0111586500D01*
X0143044415Y0111566498D01*
X0143090908Y0111512842D01*
X0143102037Y0111468545D01*
X0143166539Y0110460345D01*
X0143533061Y0104731496D01*
X0143638843Y0103078081D01*
X0143638843Y0103078080D01*
X0143640000Y0103060000D01*
X0148273004Y0103078290D01*
X0148341202Y0103058557D01*
X0148387906Y0103005085D01*
X0148399500Y0102952291D01*
X0148399500Y0064697095D01*
X0141182999Y0064697095D01*
X0141182662Y0064703614D01*
X0141172743Y0064799206D01*
X0141169851Y0064812600D01*
X0141118412Y0064966784D01*
X0141112239Y0064979962D01*
X0141026937Y0065117807D01*
X0141017901Y0065129208D01*
X0140903171Y0065243739D01*
X0140891760Y0065252751D01*
X0140753757Y0065337816D01*
X0140740576Y0065343963D01*
X0140593908Y0065392611D01*
X0140535549Y0065433042D01*
X0140508312Y0065498606D01*
X0140520846Y0065568488D01*
X0140569170Y0065620500D01*
X0140591829Y0065631087D01*
X0140638184Y0065647366D01*
X0140645754Y0065652958D01*
X0140645757Y0065652959D01*
X0140730206Y0065715335D01*
X0140747150Y0065727850D01*
X0140752742Y0065735421D01*
X0140822041Y0065829243D01*
X0140822042Y0065829246D01*
X0140827634Y0065836816D01*
X0140872519Y0065964631D01*
X0140875500Y0065996166D01*
X0140875500Y0066603834D01*
X0140872519Y0066635369D01*
X0140827634Y0066763184D01*
X0140822042Y0066770754D01*
X0140822041Y0066770757D01*
X0140773575Y0066836374D01*
X0140747150Y0066872150D01*
X0140739579Y0066877742D01*
X0140645757Y0066947041D01*
X0140645754Y0066947042D01*
X0140638184Y0066952634D01*
X0140510369Y0066997519D01*
X0140502723Y0066998242D01*
X0140502722Y0066998242D01*
X0140496752Y0066998806D01*
X0140478834Y0067000500D01*
X0139421166Y0067000500D01*
X0139403248Y0066998806D01*
X0139397278Y0066998242D01*
X0139397277Y0066998242D01*
X0139389631Y0066997519D01*
X0139261816Y0066952634D01*
X0139254246Y0066947042D01*
X0139254243Y0066947041D01*
X0139160421Y0066877742D01*
X0139152850Y0066872150D01*
X0139126425Y0066836374D01*
X0139077959Y0066770757D01*
X0139077958Y0066770754D01*
X0139072366Y0066763184D01*
X0139027481Y0066635369D01*
X0139024500Y0066603834D01*
X0139024500Y0065996166D01*
X0139027481Y0065964631D01*
X0139072366Y0065836816D01*
X0139077958Y0065829246D01*
X0139077959Y0065829243D01*
X0139147258Y0065735421D01*
X0139152850Y0065727850D01*
X0139169794Y0065715335D01*
X0139254243Y0065652959D01*
X0139254246Y0065652958D01*
X0139261816Y0065647366D01*
X0139307973Y0065631157D01*
X0139365619Y0065589714D01*
X0139391707Y0065523684D01*
X0139377956Y0065454032D01*
X0139328731Y0065402871D01*
X0139306101Y0065392750D01*
X0139158216Y0065343412D01*
X0139145038Y0065337239D01*
X0139007193Y0065251937D01*
X0138995792Y0065242901D01*
X0138881261Y0065128171D01*
X0138872249Y0065116760D01*
X0138787184Y0064978757D01*
X0138781037Y0064965576D01*
X0138757518Y0064894669D01*
X0138007999Y0064894669D01*
X0138007629Y0064901490D01*
X0138002105Y0064952352D01*
X0137998479Y0064967604D01*
X0137953324Y0065088054D01*
X0137944786Y0065103649D01*
X0137868285Y0065205724D01*
X0137855724Y0065218285D01*
X0137753649Y0065294786D01*
X0137738054Y0065303324D01*
X0137617606Y0065348478D01*
X0137602351Y0065352105D01*
X0137551486Y0065357631D01*
X0137544672Y0065358000D01*
X0137308160Y0065358000D01*
X0137240039Y0065378002D01*
X0137193546Y0065431658D01*
X0137183442Y0065501932D01*
X0137208197Y0065560704D01*
X0137274536Y0065647159D01*
X0137335044Y0065793238D01*
X0137355682Y0065950000D01*
X0137335044Y0066106762D01*
X0137274536Y0066252841D01*
X0137269509Y0066259392D01*
X0137226537Y0066315395D01*
X0137200937Y0066381616D01*
X0137200500Y0066392099D01*
X0137200500Y0066723500D01*
X0137220502Y0066791621D01*
X0137274158Y0066838114D01*
X0137326500Y0066849500D01*
X0137519748Y0066849500D01*
X0137525816Y0066850707D01*
X0137566061Y0066858712D01*
X0137566062Y0066858712D01*
X0137578231Y0066861133D01*
X0137644552Y0066905448D01*
X0137688867Y0066971769D01*
X0137691288Y0066983938D01*
X0137691288Y0066983939D01*
X0137696004Y0067007648D01*
X0137700500Y0067030252D01*
X0137700500Y0068069748D01*
X0137688867Y0068128231D01*
X0137644552Y0068194552D01*
X0137578231Y0068238867D01*
X0137566062Y0068241288D01*
X0137566061Y0068241288D01*
X0137525816Y0068249293D01*
X0137519748Y0068250500D01*
X0135980252Y0068250500D01*
X0135974184Y0068249293D01*
X0135933939Y0068241288D01*
X0135933938Y0068241288D01*
X0135921769Y0068238867D01*
X0135855448Y0068194552D01*
X0135811133Y0068128231D01*
X0135799500Y0068069748D01*
X0135799500Y0067600000D01*
X0134505682Y0067600000D01*
X0134485044Y0067756762D01*
X0134424536Y0067902841D01*
X0134328282Y0068028282D01*
X0134202841Y0068124536D01*
X0134056761Y0068185044D01*
X0133900000Y0068205682D01*
X0133891811Y0068204604D01*
X0133867800Y0068201443D01*
X0133743237Y0068185044D01*
X0133597159Y0068124536D01*
X0133534605Y0068076537D01*
X0133468383Y0068050937D01*
X0133457901Y0068050500D01*
X0132902634Y0068050500D01*
X0132834512Y0068070502D01*
X0132789679Y0068124150D01*
X0132788867Y0068128231D01*
X0132744552Y0068194552D01*
X0132678231Y0068238867D01*
X0132666062Y0068241288D01*
X0132666061Y0068241288D01*
X0132625815Y0068249293D01*
X0132619747Y0068250500D01*
X0131080252Y0068250500D01*
X0131074184Y0068249293D01*
X0131033939Y0068241288D01*
X0131033938Y0068241288D01*
X0131021769Y0068238867D01*
X0130955447Y0068194552D01*
X0130911133Y0068128231D01*
X0130899499Y0068069748D01*
X0130899499Y0067030252D01*
X0130903996Y0067007648D01*
X0130908712Y0066983939D01*
X0130908712Y0066983938D01*
X0130911133Y0066971769D01*
X0130955447Y0066905448D01*
X0131021769Y0066861133D01*
X0131033938Y0066858712D01*
X0131033939Y0066858712D01*
X0131074184Y0066850707D01*
X0131080252Y0066849500D01*
X0132619747Y0066849500D01*
X0132625815Y0066850707D01*
X0132666061Y0066858712D01*
X0132666062Y0066858712D01*
X0132678231Y0066861133D01*
X0132744552Y0066905448D01*
X0132788867Y0066971769D01*
X0132791288Y0066983938D01*
X0132791288Y0066983939D01*
X0132796004Y0067007648D01*
X0132800500Y0067030252D01*
X0132800500Y0067035994D01*
X0132827024Y0067101682D01*
X0132884978Y0067142692D01*
X0132925835Y0067149500D01*
X0133457901Y0067149500D01*
X0133526022Y0067129498D01*
X0133534605Y0067123463D01*
X0133566137Y0067099268D01*
X0133597159Y0067075464D01*
X0133743237Y0067014956D01*
X0133900000Y0066994318D01*
X0134056761Y0067014956D01*
X0134202841Y0067075464D01*
X0134328282Y0067171718D01*
X0134424536Y0067297159D01*
X0134485044Y0067443238D01*
X0134505682Y0067600000D01*
X0135799500Y0067600000D01*
X0135799500Y0067030252D01*
X0135803996Y0067007648D01*
X0135808712Y0066983939D01*
X0135808712Y0066983938D01*
X0135811133Y0066971769D01*
X0135855448Y0066905448D01*
X0135921769Y0066861133D01*
X0135933938Y0066858712D01*
X0135933939Y0066858712D01*
X0135974184Y0066850707D01*
X0135980252Y0066849500D01*
X0136173500Y0066849500D01*
X0136241621Y0066829498D01*
X0136288114Y0066775842D01*
X0136299500Y0066723500D01*
X0136299500Y0066392099D01*
X0136279498Y0066323978D01*
X0136273463Y0066315395D01*
X0136230491Y0066259392D01*
X0136225464Y0066252841D01*
X0136164956Y0066106762D01*
X0136144318Y0065950000D01*
X0136164956Y0065793238D01*
X0136225464Y0065647159D01*
X0136291804Y0065560703D01*
X0136317404Y0065494483D01*
X0136303139Y0065424934D01*
X0136253538Y0065374138D01*
X0136191841Y0065357999D01*
X0135955331Y0065357999D01*
X0135948510Y0065357629D01*
X0135897648Y0065352105D01*
X0135882396Y0065348479D01*
X0135761946Y0065303324D01*
X0135746351Y0065294786D01*
X0135644276Y0065218285D01*
X0135631715Y0065205724D01*
X0135555214Y0065103649D01*
X0135546676Y0065088054D01*
X0135501522Y0064967606D01*
X0135497895Y0064952351D01*
X0135492369Y0064901486D01*
X0135492000Y0064894672D01*
X0135492000Y0064622115D01*
X0135496475Y0064606876D01*
X0135497865Y0064605671D01*
X0135505548Y0064604000D01*
X0137989884Y0064604000D01*
X0138005123Y0064608475D01*
X0138006328Y0064609865D01*
X0138007999Y0064617548D01*
X0138007999Y0064894669D01*
X0138757518Y0064894669D01*
X0138729862Y0064811290D01*
X0138726995Y0064797914D01*
X0138717328Y0064703562D01*
X0138717000Y0064697146D01*
X0138717000Y0064672115D01*
X0138721475Y0064656876D01*
X0138722865Y0064655671D01*
X0138730548Y0064654000D01*
X0141164884Y0064654000D01*
X0141180123Y0064658475D01*
X0141181328Y0064659865D01*
X0141182999Y0064667548D01*
X0141182999Y0064697095D01*
X0148399500Y0064697095D01*
X0148399500Y0064127885D01*
X0141183000Y0064127885D01*
X0141178525Y0064143124D01*
X0141177135Y0064144329D01*
X0141169452Y0064146000D01*
X0140222115Y0064146000D01*
X0140206876Y0064141525D01*
X0140205671Y0064140135D01*
X0140204000Y0064132452D01*
X0140204000Y0064127885D01*
X0139696000Y0064127885D01*
X0139691525Y0064143124D01*
X0139690135Y0064144329D01*
X0139682452Y0064146000D01*
X0138735116Y0064146000D01*
X0138719877Y0064141525D01*
X0138718672Y0064140135D01*
X0138717001Y0064132452D01*
X0138717001Y0064102905D01*
X0138717338Y0064096386D01*
X0138719258Y0064077885D01*
X0138008000Y0064077885D01*
X0138003525Y0064093124D01*
X0138002135Y0064094329D01*
X0137994452Y0064096000D01*
X0137022115Y0064096000D01*
X0137006876Y0064091525D01*
X0137005671Y0064090135D01*
X0137004000Y0064082452D01*
X0137004000Y0064077885D01*
X0136496000Y0064077885D01*
X0136491525Y0064093124D01*
X0136490135Y0064094329D01*
X0136482452Y0064096000D01*
X0135510116Y0064096000D01*
X0135494877Y0064091525D01*
X0135493672Y0064090135D01*
X0135492001Y0064082452D01*
X0135492001Y0063805331D01*
X0135492371Y0063798510D01*
X0135497895Y0063747648D01*
X0135501521Y0063732396D01*
X0135546676Y0063611946D01*
X0135555214Y0063596351D01*
X0135631715Y0063494276D01*
X0135644276Y0063481715D01*
X0135746351Y0063405214D01*
X0135761946Y0063396676D01*
X0135882394Y0063351522D01*
X0135897649Y0063347895D01*
X0135948514Y0063342369D01*
X0135955328Y0063342000D01*
X0136477885Y0063342000D01*
X0136493124Y0063346475D01*
X0136494329Y0063347865D01*
X0136496000Y0063355548D01*
X0136496000Y0064077885D01*
X0137004000Y0064077885D01*
X0137004000Y0063360116D01*
X0137008475Y0063344877D01*
X0137009865Y0063343672D01*
X0137017548Y0063342001D01*
X0137544669Y0063342001D01*
X0137551490Y0063342371D01*
X0137602352Y0063347895D01*
X0137617604Y0063351521D01*
X0137738054Y0063396676D01*
X0137753649Y0063405214D01*
X0137855724Y0063481715D01*
X0137868285Y0063494276D01*
X0137944786Y0063596351D01*
X0137953324Y0063611946D01*
X0137998478Y0063732394D01*
X0138002105Y0063747649D01*
X0138007631Y0063798514D01*
X0138008000Y0063805328D01*
X0138008000Y0064077885D01*
X0138719258Y0064077885D01*
X0138727257Y0064000794D01*
X0138730149Y0063987400D01*
X0138781588Y0063833216D01*
X0138787761Y0063820038D01*
X0138873063Y0063682193D01*
X0138882099Y0063670792D01*
X0138996829Y0063556261D01*
X0139008240Y0063547249D01*
X0139146243Y0063462184D01*
X0139159424Y0063456037D01*
X0139313710Y0063404862D01*
X0139327086Y0063401995D01*
X0139421438Y0063392328D01*
X0139427855Y0063392000D01*
X0139677885Y0063392000D01*
X0139693124Y0063396475D01*
X0139694329Y0063397865D01*
X0139696000Y0063405548D01*
X0139696000Y0064127885D01*
X0140204000Y0064127885D01*
X0140204000Y0063410116D01*
X0140208475Y0063394877D01*
X0140209865Y0063393672D01*
X0140217548Y0063392001D01*
X0140472095Y0063392001D01*
X0140478614Y0063392338D01*
X0140574206Y0063402257D01*
X0140587600Y0063405149D01*
X0140741784Y0063456588D01*
X0140754962Y0063462761D01*
X0140892807Y0063548063D01*
X0140904208Y0063557099D01*
X0141018739Y0063671829D01*
X0141027751Y0063683240D01*
X0141112816Y0063821243D01*
X0141118963Y0063834424D01*
X0141170138Y0063988710D01*
X0141173005Y0064002086D01*
X0141182672Y0064096438D01*
X0141183000Y0064102855D01*
X0141183000Y0064127885D01*
X0148399500Y0064127885D01*
X0148399500Y0063905892D01*
X0148399467Y0063868626D01*
X0148399467Y0063868624D01*
X0148399455Y0063854437D01*
X0148405597Y0063841646D01*
X0148406713Y0063836733D01*
X0148409350Y0063829183D01*
X0148411532Y0063824649D01*
X0148414688Y0063810815D01*
X0148423529Y0063799720D01*
X0148425875Y0063794846D01*
X0148429546Y0063788994D01*
X0148432912Y0063784762D01*
X0148439052Y0063771976D01*
X0148450131Y0063763116D01*
X0148453265Y0063759176D01*
X0148458916Y0063753515D01*
X0148462852Y0063750373D01*
X0148471695Y0063739276D01*
X0148484477Y0063733111D01*
X0148488704Y0063729737D01*
X0148494547Y0063726058D01*
X0148499410Y0063723707D01*
X0148510492Y0063714844D01*
X0148524320Y0063711664D01*
X0148528851Y0063709474D01*
X0148536397Y0063706824D01*
X0148541307Y0063705700D01*
X0148554087Y0063699535D01*
X0148577155Y0063699515D01*
X0148577153Y0063697490D01*
X0148577219Y0063697474D01*
X0148577219Y0063699500D01*
X0148594108Y0063699500D01*
X0148645563Y0063699455D01*
X0148645559Y0063694650D01*
X0148645657Y0063694644D01*
X0148645657Y0063699500D01*
X0150394108Y0063699500D01*
X0150431374Y0063699467D01*
X0150431376Y0063699467D01*
X0150445563Y0063699455D01*
X0150458354Y0063705597D01*
X0150463267Y0063706713D01*
X0150470817Y0063709350D01*
X0150475351Y0063711532D01*
X0150489185Y0063714688D01*
X0150500280Y0063723529D01*
X0150505154Y0063725875D01*
X0150511006Y0063729546D01*
X0150515238Y0063732912D01*
X0150528024Y0063739052D01*
X0150536884Y0063750131D01*
X0150540824Y0063753265D01*
X0150546485Y0063758916D01*
X0150549627Y0063762852D01*
X0150560724Y0063771695D01*
X0150566889Y0063784477D01*
X0150570263Y0063788704D01*
X0150573942Y0063794547D01*
X0150576293Y0063799410D01*
X0150585156Y0063810492D01*
X0150588336Y0063824320D01*
X0150590526Y0063828851D01*
X0150593176Y0063836397D01*
X0150594300Y0063841307D01*
X0150600465Y0063854087D01*
X0150600485Y0063877155D01*
X0150602510Y0063877153D01*
X0150602526Y0063877219D01*
X0150600500Y0063877219D01*
X0150600500Y0063894108D01*
X0150600545Y0063945563D01*
X0150605350Y0063945559D01*
X0150605356Y0063945657D01*
X0150600500Y0063945657D01*
X0150600500Y0102961974D01*
X0150620502Y0103030095D01*
X0150674158Y0103076588D01*
X0150726003Y0103087973D01*
X0155130268Y0103105359D01*
X0155130270Y0103105359D01*
X0155148384Y0103105431D01*
X0155743884Y0110460947D01*
X0155825631Y0111470668D01*
X0155851065Y0111536952D01*
X0155908297Y0111578964D01*
X0155951220Y0111586500D01*
X0157874000Y0111586500D01*
X0157877346Y0111586860D01*
X0157877351Y0111586860D01*
X0157979785Y0111597872D01*
X0157979792Y0111597873D01*
X0157983149Y0111598234D01*
X0157986449Y0111598952D01*
X0157986450Y0111598952D01*
X0158032210Y0111608906D01*
X0158032215Y0111608907D01*
X0158035491Y0111609620D01*
X0158071272Y0111621529D01*
X0158142222Y0111624063D01*
X0158203280Y0111587836D01*
X0158235060Y0111524350D01*
X0158236196Y0111487227D01*
X0158056294Y0109961020D01*
X0158056222Y0109960410D01*
X0157883579Y0108220323D01*
X0157743056Y0106477349D01*
X0157634701Y0104732080D01*
X0157559289Y0103002056D01*
X0157557115Y0103002151D01*
X0157558553Y0102989998D01*
X0157557444Y0102985866D01*
X0157557418Y0102985148D01*
X0157561873Y0102961974D01*
X0157563896Y0102951449D01*
X0157565255Y0102942750D01*
X0157567665Y0102922764D01*
X0157567667Y0102922758D01*
X0157569366Y0102908672D01*
X0157573306Y0102902506D01*
X0157574688Y0102895317D01*
X0157595150Y0102867747D01*
X0157600147Y0102860498D01*
X0157610978Y0102843547D01*
X0157618619Y0102831588D01*
X0157624843Y0102827741D01*
X0157629205Y0102821863D01*
X0157641764Y0102815265D01*
X0157641767Y0102815262D01*
X0157659582Y0102805902D01*
X0157667229Y0102801537D01*
X0157684358Y0102790948D01*
X0157684361Y0102790947D01*
X0157696427Y0102783488D01*
X0157703707Y0102782720D01*
X0157710184Y0102779317D01*
X0157744478Y0102778109D01*
X0157753264Y0102777491D01*
X0157773284Y0102775378D01*
X0157773286Y0102775378D01*
X0157787398Y0102773889D01*
X0157794290Y0102776354D01*
X0157801604Y0102776096D01*
X0157810333Y0102779925D01*
X0157822966Y0102782802D01*
X0158877668Y0102893222D01*
X0158881775Y0102893584D01*
X0159531265Y0102939881D01*
X0159973408Y0102971398D01*
X0159977579Y0102971626D01*
X0161071155Y0103013213D01*
X0161075331Y0103013303D01*
X0161461925Y0103015181D01*
X0162169721Y0103018620D01*
X0162173882Y0103018571D01*
X0163267877Y0102987610D01*
X0163271991Y0102987424D01*
X0163856738Y0102951449D01*
X0164364297Y0102920222D01*
X0164368461Y0102919897D01*
X0165039108Y0102856266D01*
X0165458005Y0102816521D01*
X0165462108Y0102816062D01*
X0166547596Y0102676632D01*
X0166551713Y0102676033D01*
X0166909260Y0102618002D01*
X0167631939Y0102500707D01*
X0167636050Y0102499970D01*
X0168704388Y0102290014D01*
X0168709907Y0102288929D01*
X0168713965Y0102288062D01*
X0169780244Y0102041540D01*
X0169784275Y0102040538D01*
X0170841799Y0101758809D01*
X0170845801Y0101757672D01*
X0171811324Y0101465853D01*
X0171893398Y0101441047D01*
X0171897375Y0101439772D01*
X0172629735Y0101191649D01*
X0172933883Y0101088604D01*
X0172937796Y0101087206D01*
X0173449954Y0100894537D01*
X0173962101Y0100701872D01*
X0173965985Y0100700337D01*
X0174976940Y0100281271D01*
X0174980772Y0100279608D01*
X0175704115Y0099951261D01*
X0175977328Y0099827241D01*
X0175981094Y0099825455D01*
X0175984808Y0099823618D01*
X0176962038Y0099340339D01*
X0176965751Y0099338426D01*
X0177930114Y0098821043D01*
X0177933761Y0098819008D01*
X0177946397Y0098811679D01*
X0178880461Y0098269936D01*
X0178884039Y0098267780D01*
X0179811961Y0097687665D01*
X0179815466Y0097685393D01*
X0180076153Y0097510139D01*
X0180656854Y0097119748D01*
X0175300500Y0097119748D01*
X0175288867Y0097178231D01*
X0175244552Y0097244552D01*
X0175178231Y0097288867D01*
X0175166062Y0097291288D01*
X0175166061Y0097291288D01*
X0175134639Y0097297538D01*
X0175119748Y0097300500D01*
X0174856777Y0097300500D01*
X0174788656Y0097320502D01*
X0174743194Y0097371956D01*
X0174726809Y0097406079D01*
X0174721923Y0097411365D01*
X0174721890Y0097411413D01*
X0174718579Y0097417788D01*
X0174714275Y0097422828D01*
X0174677048Y0097460055D01*
X0174673619Y0097463620D01*
X0174634854Y0097505556D01*
X0174628495Y0097509249D01*
X0174622337Y0097514766D01*
X0172342753Y0099794350D01*
X0172332899Y0099805439D01*
X0172318567Y0099823618D01*
X0172311872Y0099832110D01*
X0172304124Y0099837465D01*
X0172304122Y0099837467D01*
X0172263600Y0099865474D01*
X0172260381Y0099867774D01*
X0172247395Y0099877365D01*
X0172213183Y0099902634D01*
X0172206369Y0099905027D01*
X0172200431Y0099909131D01*
X0172191454Y0099911970D01*
X0172191452Y0099911971D01*
X0172144483Y0099926825D01*
X0172140734Y0099928076D01*
X0172085369Y0099947519D01*
X0172078182Y0099947801D01*
X0172078120Y0099947813D01*
X0172071270Y0099949980D01*
X0172064663Y0099950500D01*
X0172011984Y0099950500D01*
X0172007038Y0099950597D01*
X0171950006Y0099952838D01*
X0171942900Y0099950954D01*
X0171934653Y0099950500D01*
X0161384220Y0099950500D01*
X0161369411Y0099951373D01*
X0161335690Y0099955364D01*
X0161326426Y0099953672D01*
X0161326425Y0099953672D01*
X0161277999Y0099944828D01*
X0161274096Y0099944178D01*
X0161225355Y0099936850D01*
X0161225354Y0099936850D01*
X0161216038Y0099935449D01*
X0161209525Y0099932321D01*
X0161202427Y0099931025D01*
X0161150353Y0099903975D01*
X0161146863Y0099902232D01*
X0161093921Y0099876809D01*
X0161088635Y0099871923D01*
X0161088587Y0099871890D01*
X0161082212Y0099868579D01*
X0161077172Y0099864275D01*
X0161039945Y0099827048D01*
X0161036379Y0099823618D01*
X0160994444Y0099784854D01*
X0160990751Y0099778495D01*
X0160985234Y0099772337D01*
X0154805650Y0093592753D01*
X0154794561Y0093582899D01*
X0154775289Y0093567706D01*
X0154775285Y0093567702D01*
X0154767890Y0093561872D01*
X0154762536Y0093554125D01*
X0154762532Y0093554121D01*
X0154734523Y0093513596D01*
X0154732242Y0093510402D01*
X0154697365Y0093463183D01*
X0154694971Y0093456366D01*
X0154690869Y0093450431D01*
X0154673188Y0093394525D01*
X0154671940Y0093390785D01*
X0154655600Y0093344255D01*
X0154655599Y0093344252D01*
X0154652480Y0093335369D01*
X0154652197Y0093328184D01*
X0154652183Y0093328111D01*
X0154650020Y0093321270D01*
X0154649500Y0093314663D01*
X0154649500Y0093261994D01*
X0154649403Y0093257048D01*
X0154647532Y0093209415D01*
X0154647162Y0093200006D01*
X0154649046Y0093192900D01*
X0154649500Y0093184653D01*
X0154649500Y0052238793D01*
X0154629498Y0052170672D01*
X0154612595Y0052149698D01*
X0152950302Y0050487405D01*
X0152887990Y0050453379D01*
X0152861207Y0050450500D01*
X0152539500Y0050450500D01*
X0152471379Y0050470502D01*
X0152424886Y0050524158D01*
X0152413500Y0050576500D01*
X0152413500Y0050974000D01*
X0152401766Y0051083149D01*
X0152401048Y0051086449D01*
X0152401048Y0051086450D01*
X0152394039Y0051118669D01*
X0152390380Y0051135491D01*
X0152355710Y0051239657D01*
X0152276692Y0051362612D01*
X0152230199Y0051416268D01*
X0152143371Y0051491504D01*
X0152125173Y0051507273D01*
X0152086789Y0051566999D01*
X0152086789Y0051637996D01*
X0152125172Y0051697722D01*
X0152139564Y0051708496D01*
X0152162612Y0051723308D01*
X0152216268Y0051769801D01*
X0152219208Y0051773194D01*
X0152306081Y0051873450D01*
X0152306083Y0051873453D01*
X0152311982Y0051880261D01*
X0152372698Y0052013210D01*
X0152392700Y0052081331D01*
X0152393340Y0052085780D01*
X0152393341Y0052085786D01*
X0152407836Y0052186603D01*
X0152413500Y0052226000D01*
X0152413500Y0052746438D01*
X0152426835Y0052796207D01*
X0152424536Y0052797159D01*
X0152485044Y0052943238D01*
X0152505682Y0053100000D01*
X0152485044Y0053256762D01*
X0152481884Y0053264391D01*
X0152424536Y0053402841D01*
X0152426835Y0053403793D01*
X0152413500Y0053453562D01*
X0152413500Y0053974000D01*
X0152413140Y0053977346D01*
X0152413140Y0053977351D01*
X0152403682Y0054065323D01*
X0152401766Y0054083149D01*
X0152401048Y0054086449D01*
X0152401048Y0054086450D01*
X0152394039Y0054118669D01*
X0152390380Y0054135491D01*
X0152355710Y0054239657D01*
X0152276692Y0054362612D01*
X0152230199Y0054416268D01*
X0152226806Y0054419208D01*
X0152126550Y0054506081D01*
X0152126547Y0054506083D01*
X0152119739Y0054511982D01*
X0151986790Y0054572698D01*
X0151963036Y0054579673D01*
X0151922992Y0054591431D01*
X0151922988Y0054591432D01*
X0151918669Y0054592700D01*
X0151914220Y0054593340D01*
X0151914214Y0054593341D01*
X0151778447Y0054612861D01*
X0151778442Y0054612861D01*
X0151774000Y0054613500D01*
X0151026000Y0054613500D01*
X0151022654Y0054613140D01*
X0151022649Y0054613140D01*
X0150920215Y0054602128D01*
X0150920208Y0054602127D01*
X0150916851Y0054601766D01*
X0150913550Y0054601048D01*
X0150867790Y0054591094D01*
X0150867785Y0054591093D01*
X0150864509Y0054590380D01*
X0150760343Y0054555710D01*
X0150637388Y0054476692D01*
X0150583732Y0054430199D01*
X0150528112Y0054366010D01*
X0150493919Y0054326550D01*
X0150493917Y0054326547D01*
X0150488018Y0054319739D01*
X0150427302Y0054186790D01*
X0150407300Y0054118669D01*
X0150402667Y0054086450D01*
X0150387139Y0053978447D01*
X0150387139Y0053978442D01*
X0150386500Y0053974000D01*
X0150386500Y0052226000D01*
X0150392448Y0052170672D01*
X0150397872Y0052120215D01*
X0150397873Y0052120208D01*
X0150398234Y0052116851D01*
X0150398952Y0052113550D01*
X0150408906Y0052067790D01*
X0150408907Y0052067785D01*
X0150409620Y0052064509D01*
X0150444290Y0051960343D01*
X0150523308Y0051837388D01*
X0150569801Y0051783732D01*
X0150674828Y0051692726D01*
X0150713211Y0051633001D01*
X0150713211Y0051562004D01*
X0150674828Y0051502278D01*
X0150660436Y0051491504D01*
X0150659701Y0051491031D01*
X0150637388Y0051476692D01*
X0150583732Y0051430199D01*
X0150528112Y0051366010D01*
X0150493919Y0051326550D01*
X0150493917Y0051326547D01*
X0150488018Y0051319739D01*
X0150427302Y0051186790D01*
X0150407300Y0051118669D01*
X0150402667Y0051086450D01*
X0150387139Y0050978447D01*
X0150387139Y0050978442D01*
X0150386500Y0050974000D01*
X0150386500Y0050576500D01*
X0150366498Y0050508379D01*
X0150312842Y0050461886D01*
X0150260500Y0050450500D01*
X0148739500Y0050450500D01*
X0148671379Y0050470502D01*
X0148624886Y0050524158D01*
X0148613500Y0050576500D01*
X0148613500Y0050974000D01*
X0148601766Y0051083149D01*
X0148601048Y0051086449D01*
X0148601048Y0051086450D01*
X0148594039Y0051118669D01*
X0148590380Y0051135491D01*
X0148555710Y0051239657D01*
X0148476692Y0051362612D01*
X0148430199Y0051416268D01*
X0148343371Y0051491504D01*
X0148325173Y0051507273D01*
X0148286789Y0051566999D01*
X0148286789Y0051637996D01*
X0148325172Y0051697722D01*
X0148339564Y0051708496D01*
X0148362612Y0051723308D01*
X0148416268Y0051769801D01*
X0148419208Y0051773194D01*
X0148506081Y0051873450D01*
X0148506083Y0051873453D01*
X0148511982Y0051880261D01*
X0148572698Y0052013210D01*
X0148592700Y0052081331D01*
X0148593340Y0052085780D01*
X0148593341Y0052085786D01*
X0148607836Y0052186603D01*
X0148613500Y0052226000D01*
X0148613500Y0053974000D01*
X0148613140Y0053977346D01*
X0148613140Y0053977351D01*
X0148603682Y0054065323D01*
X0148601766Y0054083149D01*
X0148601048Y0054086449D01*
X0148601048Y0054086450D01*
X0148594039Y0054118669D01*
X0148590380Y0054135491D01*
X0148555710Y0054239657D01*
X0148476692Y0054362612D01*
X0148430199Y0054416268D01*
X0148426806Y0054419208D01*
X0148326550Y0054506081D01*
X0148326547Y0054506083D01*
X0148319739Y0054511982D01*
X0148186790Y0054572698D01*
X0148163036Y0054579673D01*
X0148122992Y0054591431D01*
X0148122988Y0054591432D01*
X0148118669Y0054592700D01*
X0148114220Y0054593340D01*
X0148114214Y0054593341D01*
X0147978447Y0054612861D01*
X0147978442Y0054612861D01*
X0147974000Y0054613500D01*
X0147226000Y0054613500D01*
X0147222654Y0054613140D01*
X0147222649Y0054613140D01*
X0147120215Y0054602128D01*
X0147120208Y0054602127D01*
X0147116851Y0054601766D01*
X0147113550Y0054601048D01*
X0147067790Y0054591094D01*
X0147067785Y0054591093D01*
X0147064509Y0054590380D01*
X0146960343Y0054555710D01*
X0146837388Y0054476692D01*
X0146783732Y0054430199D01*
X0146728112Y0054366010D01*
X0146693919Y0054326550D01*
X0146693917Y0054326547D01*
X0146688018Y0054319739D01*
X0146627302Y0054186790D01*
X0146607300Y0054118669D01*
X0146602667Y0054086450D01*
X0146587139Y0053978447D01*
X0146587139Y0053978442D01*
X0146586500Y0053974000D01*
X0146586500Y0053453562D01*
X0146573165Y0053403793D01*
X0146575464Y0053402841D01*
X0146518116Y0053264391D01*
X0146514956Y0053256762D01*
X0146494318Y0053100000D01*
X0146514956Y0052943238D01*
X0146575464Y0052797159D01*
X0146573165Y0052796207D01*
X0146586500Y0052746438D01*
X0146586500Y0052226000D01*
X0146592448Y0052170672D01*
X0146597872Y0052120215D01*
X0146597873Y0052120208D01*
X0146598234Y0052116851D01*
X0146598952Y0052113550D01*
X0146608906Y0052067790D01*
X0146608907Y0052067785D01*
X0146609620Y0052064509D01*
X0146644290Y0051960343D01*
X0146723308Y0051837388D01*
X0146769801Y0051783732D01*
X0146874828Y0051692726D01*
X0146913211Y0051633001D01*
X0146913211Y0051562004D01*
X0146874828Y0051502278D01*
X0146860436Y0051491504D01*
X0146859701Y0051491031D01*
X0146837388Y0051476692D01*
X0146783732Y0051430199D01*
X0146728112Y0051366010D01*
X0146693919Y0051326550D01*
X0146693917Y0051326547D01*
X0146688018Y0051319739D01*
X0146627302Y0051186790D01*
X0146607300Y0051118669D01*
X0146602667Y0051086450D01*
X0146587139Y0050978447D01*
X0146587139Y0050978442D01*
X0146586500Y0050974000D01*
X0146586500Y0050453562D01*
X0146573165Y0050403793D01*
X0146575464Y0050402841D01*
X0146518116Y0050264391D01*
X0146514956Y0050256762D01*
X0146494318Y0050100000D01*
X0146514956Y0049943238D01*
X0146575464Y0049797159D01*
X0146573165Y0049796207D01*
X0146586500Y0049746438D01*
X0146586500Y0049226000D01*
X0146598234Y0049116851D01*
X0146598952Y0049113550D01*
X0146608906Y0049067790D01*
X0146608907Y0049067785D01*
X0146609620Y0049064509D01*
X0146644290Y0048960343D01*
X0146723308Y0048837388D01*
X0146769801Y0048783732D01*
X0146779067Y0048775703D01*
X0146873450Y0048693919D01*
X0146873453Y0048693917D01*
X0146880261Y0048688018D01*
X0147013210Y0048627302D01*
X0147036964Y0048620327D01*
X0147077008Y0048608569D01*
X0147077012Y0048608568D01*
X0147081331Y0048607300D01*
X0147085780Y0048606660D01*
X0147085786Y0048606659D01*
X0147221553Y0048587139D01*
X0147221558Y0048587139D01*
X0147226000Y0048586500D01*
X0147974000Y0048586500D01*
X0147977346Y0048586860D01*
X0147977351Y0048586860D01*
X0148079785Y0048597872D01*
X0148079792Y0048597873D01*
X0148083149Y0048598234D01*
X0148086449Y0048598952D01*
X0148086450Y0048598952D01*
X0148132210Y0048608906D01*
X0148132215Y0048608907D01*
X0148135491Y0048609620D01*
X0148239657Y0048644290D01*
X0148362612Y0048723308D01*
X0148416268Y0048769801D01*
X0148419208Y0048773194D01*
X0148506081Y0048873450D01*
X0148506083Y0048873453D01*
X0148511982Y0048880261D01*
X0148572698Y0049013210D01*
X0148592700Y0049081331D01*
X0148593340Y0049085780D01*
X0148593341Y0049085786D01*
X0148597807Y0049116851D01*
X0148613500Y0049226000D01*
X0148613500Y0049423500D01*
X0148633502Y0049491621D01*
X0148687158Y0049538114D01*
X0148739500Y0049549500D01*
X0150260500Y0049549500D01*
X0150328621Y0049529498D01*
X0150375114Y0049475842D01*
X0150386500Y0049423500D01*
X0150386500Y0049226000D01*
X0150398234Y0049116851D01*
X0150398952Y0049113550D01*
X0150408906Y0049067790D01*
X0150408907Y0049067785D01*
X0150409620Y0049064509D01*
X0150444290Y0048960343D01*
X0150523308Y0048837388D01*
X0150569801Y0048783732D01*
X0150579067Y0048775703D01*
X0150673450Y0048693919D01*
X0150673453Y0048693917D01*
X0150680261Y0048688018D01*
X0150813210Y0048627302D01*
X0150836964Y0048620327D01*
X0150877008Y0048608569D01*
X0150877012Y0048608568D01*
X0150881331Y0048607300D01*
X0150885780Y0048606660D01*
X0150885786Y0048606659D01*
X0151021553Y0048587139D01*
X0151021558Y0048587139D01*
X0151026000Y0048586500D01*
X0151774000Y0048586500D01*
X0151777346Y0048586860D01*
X0151777351Y0048586860D01*
X0151879785Y0048597872D01*
X0151879792Y0048597873D01*
X0151883149Y0048598234D01*
X0151886449Y0048598952D01*
X0151886450Y0048598952D01*
X0151932210Y0048608906D01*
X0151932215Y0048608907D01*
X0151935491Y0048609620D01*
X0152039657Y0048644290D01*
X0152162612Y0048723308D01*
X0152216268Y0048769801D01*
X0152219208Y0048773194D01*
X0152306081Y0048873450D01*
X0152306083Y0048873453D01*
X0152311982Y0048880261D01*
X0152372698Y0049013210D01*
X0152392700Y0049081331D01*
X0152393340Y0049085780D01*
X0152393341Y0049085786D01*
X0152397807Y0049116851D01*
X0152413500Y0049226000D01*
X0152413500Y0049423500D01*
X0152433502Y0049491621D01*
X0152487158Y0049538114D01*
X0152539500Y0049549500D01*
X0153065781Y0049549500D01*
X0153080590Y0049548627D01*
X0153083407Y0049548294D01*
X0153114311Y0049544636D01*
X0153123574Y0049546328D01*
X0153123581Y0049546328D01*
X0153172018Y0049555175D01*
X0153175917Y0049555825D01*
X0153198647Y0049559242D01*
X0153224644Y0049563150D01*
X0153224645Y0049563150D01*
X0153233962Y0049564551D01*
X0153240475Y0049567679D01*
X0153247573Y0049568975D01*
X0153299647Y0049596025D01*
X0153303137Y0049597768D01*
X0153356079Y0049623191D01*
X0153361365Y0049628077D01*
X0153361413Y0049628110D01*
X0153367788Y0049631421D01*
X0153372828Y0049635725D01*
X0153410055Y0049672952D01*
X0153413620Y0049676381D01*
X0153455556Y0049715146D01*
X0153459249Y0049721505D01*
X0153464766Y0049727663D01*
X0155394350Y0051657247D01*
X0155405439Y0051667101D01*
X0155424709Y0051682293D01*
X0155424711Y0051682295D01*
X0155432110Y0051688128D01*
X0155437465Y0051695875D01*
X0155437466Y0051695877D01*
X0155465455Y0051736375D01*
X0155467757Y0051739597D01*
X0155490066Y0051769801D01*
X0155502634Y0051786816D01*
X0155505027Y0051793632D01*
X0155509131Y0051799569D01*
X0155511971Y0051808549D01*
X0155511972Y0051808551D01*
X0155526818Y0051855495D01*
X0155528071Y0051859250D01*
X0155535449Y0051880261D01*
X0155547519Y0051914631D01*
X0155547801Y0051921819D01*
X0155547812Y0051921878D01*
X0155549980Y0051928730D01*
X0155550500Y0051935337D01*
X0155550500Y0051988016D01*
X0155550597Y0051992962D01*
X0155552838Y0052049994D01*
X0155550954Y0052057100D01*
X0155550500Y0052065347D01*
X0155550500Y0093011207D01*
X0155570502Y0093079328D01*
X0155587405Y0093100302D01*
X0161499698Y0099012595D01*
X0161562010Y0099046621D01*
X0161588793Y0099049500D01*
X0171761207Y0099049500D01*
X0171829328Y0099029498D01*
X0171850302Y0099012595D01*
X0173449512Y0097413385D01*
X0173483538Y0097351073D01*
X0173478473Y0097280258D01*
X0173455587Y0097244645D01*
X0173455448Y0097244552D01*
X0173411133Y0097178231D01*
X0173399500Y0097119748D01*
X0173399500Y0096700000D01*
X0172305682Y0096700000D01*
X0172285044Y0096856762D01*
X0172224536Y0097002841D01*
X0172128282Y0097128282D01*
X0172002841Y0097224536D01*
X0171856762Y0097285044D01*
X0171700000Y0097305682D01*
X0171691812Y0097304604D01*
X0171651470Y0097299293D01*
X0171543238Y0097285044D01*
X0171397159Y0097224536D01*
X0171271718Y0097128282D01*
X0171249860Y0097099796D01*
X0171192522Y0097057929D01*
X0171149897Y0097050500D01*
X0170517680Y0097050500D01*
X0170449559Y0097070502D01*
X0170403066Y0097124158D01*
X0170394101Y0097151918D01*
X0170388867Y0097178231D01*
X0170344552Y0097244552D01*
X0170278231Y0097288867D01*
X0170266062Y0097291288D01*
X0170266061Y0097291288D01*
X0170234639Y0097297538D01*
X0170219748Y0097300500D01*
X0168680252Y0097300500D01*
X0168665361Y0097297538D01*
X0168633939Y0097291288D01*
X0168633938Y0097291288D01*
X0168621769Y0097288867D01*
X0168555448Y0097244552D01*
X0168511133Y0097178231D01*
X0168499500Y0097119748D01*
X0168499500Y0096080252D01*
X0168511133Y0096021769D01*
X0168555448Y0095955448D01*
X0168621769Y0095911133D01*
X0168633938Y0095908712D01*
X0168633939Y0095908712D01*
X0168674184Y0095900707D01*
X0168680252Y0095899500D01*
X0169279593Y0095899500D01*
X0169347714Y0095879498D01*
X0169351778Y0095874808D01*
X0169400992Y0095897995D01*
X0169420407Y0095899500D01*
X0170219748Y0095899500D01*
X0170225816Y0095900707D01*
X0170266061Y0095908712D01*
X0170266062Y0095908712D01*
X0170278231Y0095911133D01*
X0170344552Y0095955448D01*
X0170388867Y0096021769D01*
X0170391288Y0096033938D01*
X0170391288Y0096033939D01*
X0170394101Y0096048082D01*
X0170427009Y0096110992D01*
X0170488704Y0096146123D01*
X0170517680Y0096149500D01*
X0171434779Y0096149500D01*
X0171482995Y0096139910D01*
X0171543238Y0096114956D01*
X0171700000Y0096094318D01*
X0171856762Y0096114956D01*
X0172002841Y0096175464D01*
X0172128282Y0096271718D01*
X0172224536Y0096397159D01*
X0172285044Y0096543238D01*
X0172305682Y0096700000D01*
X0173399500Y0096700000D01*
X0173399500Y0096080252D01*
X0173411133Y0096021769D01*
X0173455448Y0095955448D01*
X0173521769Y0095911133D01*
X0173533938Y0095908712D01*
X0173533939Y0095908712D01*
X0173574184Y0095900707D01*
X0173580252Y0095899500D01*
X0175119748Y0095899500D01*
X0175125816Y0095900707D01*
X0175166061Y0095908712D01*
X0175166062Y0095908712D01*
X0175178231Y0095911133D01*
X0175244552Y0095955448D01*
X0175288867Y0096021769D01*
X0175300500Y0096080252D01*
X0175300500Y0097119748D01*
X0180656854Y0097119748D01*
X0180723734Y0097074786D01*
X0180727131Y0097072419D01*
X0181254630Y0096691812D01*
X0181614607Y0096432078D01*
X0181617954Y0096429578D01*
X0182301961Y0095900707D01*
X0182483740Y0095760156D01*
X0182486993Y0095757554D01*
X0182610089Y0095655682D01*
X0182926817Y0095393564D01*
X0182966545Y0095334724D01*
X0182968154Y0095263746D01*
X0182931133Y0095203165D01*
X0182898286Y0095181637D01*
X0182190031Y0094862219D01*
X0181015707Y0094291039D01*
X0180972183Y0094268285D01*
X0180353180Y0093944669D01*
X0175607999Y0093944669D01*
X0175607629Y0093951490D01*
X0175602105Y0094002352D01*
X0175598479Y0094017604D01*
X0175553324Y0094138054D01*
X0175544786Y0094153649D01*
X0175468285Y0094255724D01*
X0175455724Y0094268285D01*
X0175353649Y0094344786D01*
X0175338054Y0094353324D01*
X0175217606Y0094398478D01*
X0175202351Y0094402105D01*
X0175151486Y0094407631D01*
X0175144672Y0094408000D01*
X0174622115Y0094408000D01*
X0174606876Y0094403525D01*
X0174605671Y0094402135D01*
X0174604000Y0094394452D01*
X0174604000Y0094389884D01*
X0174096000Y0094389884D01*
X0174091525Y0094405123D01*
X0174090135Y0094406328D01*
X0174082452Y0094407999D01*
X0173555331Y0094407999D01*
X0173548510Y0094407629D01*
X0173497648Y0094402105D01*
X0173482396Y0094398479D01*
X0173361946Y0094353324D01*
X0173346351Y0094344786D01*
X0173244276Y0094268285D01*
X0173231715Y0094255724D01*
X0173155214Y0094153649D01*
X0173146676Y0094138054D01*
X0173101522Y0094017606D01*
X0173097895Y0094002351D01*
X0173092369Y0093951486D01*
X0173092000Y0093944672D01*
X0173092000Y0093919748D01*
X0170400500Y0093919748D01*
X0170388867Y0093978231D01*
X0170344552Y0094044552D01*
X0170278231Y0094088867D01*
X0170266062Y0094091288D01*
X0170266061Y0094091288D01*
X0170225816Y0094099293D01*
X0170219748Y0094100500D01*
X0169926500Y0094100500D01*
X0169858379Y0094120502D01*
X0169811886Y0094174158D01*
X0169800500Y0094226500D01*
X0169800500Y0094607901D01*
X0169820502Y0094676022D01*
X0169826537Y0094684605D01*
X0169874536Y0094747159D01*
X0169935044Y0094893238D01*
X0169955682Y0095050000D01*
X0169935044Y0095206762D01*
X0169874536Y0095352841D01*
X0169778282Y0095478282D01*
X0169652841Y0095574536D01*
X0169506762Y0095635044D01*
X0169498574Y0095636122D01*
X0169403961Y0095648578D01*
X0169347613Y0095673505D01*
X0169315091Y0095652604D01*
X0169296039Y0095648578D01*
X0169201426Y0095636122D01*
X0169193238Y0095635044D01*
X0169047159Y0095574536D01*
X0168921718Y0095478282D01*
X0168825464Y0095352841D01*
X0168764956Y0095206762D01*
X0168744318Y0095050000D01*
X0168764956Y0094893238D01*
X0168825464Y0094747159D01*
X0168873463Y0094684605D01*
X0168899063Y0094618384D01*
X0168899500Y0094607901D01*
X0168899500Y0094226500D01*
X0168890866Y0094197095D01*
X0167532999Y0094197095D01*
X0167532662Y0094203614D01*
X0167522743Y0094299206D01*
X0167519851Y0094312600D01*
X0167468412Y0094466784D01*
X0167462239Y0094479962D01*
X0167376937Y0094617807D01*
X0167367901Y0094629208D01*
X0167253171Y0094743739D01*
X0167241760Y0094752751D01*
X0167103757Y0094837816D01*
X0167090576Y0094843963D01*
X0166943908Y0094892611D01*
X0166885549Y0094933042D01*
X0166858312Y0094998606D01*
X0166870846Y0095068488D01*
X0166919170Y0095120500D01*
X0166941829Y0095131087D01*
X0166988184Y0095147366D01*
X0166995754Y0095152958D01*
X0166995757Y0095152959D01*
X0167068599Y0095206762D01*
X0167097150Y0095227850D01*
X0167102742Y0095235421D01*
X0167172041Y0095329243D01*
X0167172042Y0095329246D01*
X0167177634Y0095336816D01*
X0167222519Y0095464631D01*
X0167225500Y0095496166D01*
X0167225500Y0096103834D01*
X0167222519Y0096135369D01*
X0167177634Y0096263184D01*
X0167172042Y0096270754D01*
X0167172041Y0096270757D01*
X0167171331Y0096271718D01*
X0167097150Y0096372150D01*
X0167089579Y0096377742D01*
X0166995757Y0096447041D01*
X0166995754Y0096447042D01*
X0166988184Y0096452634D01*
X0166860369Y0096497519D01*
X0166852723Y0096498242D01*
X0166852722Y0096498242D01*
X0166846752Y0096498806D01*
X0166828834Y0096500500D01*
X0165771166Y0096500500D01*
X0165753248Y0096498806D01*
X0165747278Y0096498242D01*
X0165747277Y0096498242D01*
X0165739631Y0096497519D01*
X0165611816Y0096452634D01*
X0165604246Y0096447042D01*
X0165604243Y0096447041D01*
X0165510421Y0096377742D01*
X0165502850Y0096372150D01*
X0165428669Y0096271718D01*
X0165427959Y0096270757D01*
X0165427958Y0096270754D01*
X0165422366Y0096263184D01*
X0165377481Y0096135369D01*
X0165374500Y0096103834D01*
X0165374500Y0095496166D01*
X0165377481Y0095464631D01*
X0165422366Y0095336816D01*
X0165427958Y0095329246D01*
X0165427959Y0095329243D01*
X0165497258Y0095235421D01*
X0165502850Y0095227850D01*
X0165531401Y0095206762D01*
X0165604243Y0095152959D01*
X0165604246Y0095152958D01*
X0165611816Y0095147366D01*
X0165657973Y0095131157D01*
X0165715619Y0095089714D01*
X0165741707Y0095023684D01*
X0165727956Y0094954032D01*
X0165678731Y0094902871D01*
X0165656101Y0094892750D01*
X0165508216Y0094843412D01*
X0165495038Y0094837239D01*
X0165357193Y0094751937D01*
X0165345792Y0094742901D01*
X0165231261Y0094628171D01*
X0165222249Y0094616760D01*
X0165137184Y0094478757D01*
X0165131037Y0094465576D01*
X0165079862Y0094311290D01*
X0165076995Y0094297914D01*
X0165067328Y0094203562D01*
X0165067000Y0094197146D01*
X0165067000Y0094172115D01*
X0165071475Y0094156876D01*
X0165072865Y0094155671D01*
X0165080548Y0094154000D01*
X0167514884Y0094154000D01*
X0167530123Y0094158475D01*
X0167531328Y0094159865D01*
X0167532999Y0094167548D01*
X0167532999Y0094197095D01*
X0168890866Y0094197095D01*
X0168879498Y0094158379D01*
X0168825842Y0094111886D01*
X0168773500Y0094100500D01*
X0168680252Y0094100500D01*
X0168674184Y0094099293D01*
X0168633939Y0094091288D01*
X0168633938Y0094091288D01*
X0168621769Y0094088867D01*
X0168555448Y0094044552D01*
X0168511133Y0093978231D01*
X0168499500Y0093919748D01*
X0168499500Y0093627885D01*
X0167533000Y0093627885D01*
X0167528525Y0093643124D01*
X0167527135Y0093644329D01*
X0167519452Y0093646000D01*
X0166572115Y0093646000D01*
X0166556876Y0093641525D01*
X0166555671Y0093640135D01*
X0166554000Y0093632452D01*
X0166554000Y0093627885D01*
X0166046000Y0093627885D01*
X0166041525Y0093643124D01*
X0166040135Y0093644329D01*
X0166032452Y0093646000D01*
X0165085116Y0093646000D01*
X0165069877Y0093641525D01*
X0165068672Y0093640135D01*
X0165067001Y0093632452D01*
X0165067001Y0093602905D01*
X0165067338Y0093596386D01*
X0165077257Y0093500794D01*
X0165080149Y0093487400D01*
X0165131588Y0093333216D01*
X0165137761Y0093320038D01*
X0165223063Y0093182193D01*
X0165232099Y0093170792D01*
X0165346829Y0093056261D01*
X0165358240Y0093047249D01*
X0165496243Y0092962184D01*
X0165509424Y0092956037D01*
X0165663710Y0092904862D01*
X0165677086Y0092901995D01*
X0165771438Y0092892328D01*
X0165777855Y0092892000D01*
X0166027885Y0092892000D01*
X0166043124Y0092896475D01*
X0166044329Y0092897865D01*
X0166046000Y0092905548D01*
X0166046000Y0093627885D01*
X0166554000Y0093627885D01*
X0166554000Y0092910116D01*
X0166558475Y0092894877D01*
X0166559865Y0092893672D01*
X0166567548Y0092892001D01*
X0166822095Y0092892001D01*
X0166828614Y0092892338D01*
X0166924206Y0092902257D01*
X0166937600Y0092905149D01*
X0167091784Y0092956588D01*
X0167104962Y0092962761D01*
X0167242807Y0093048063D01*
X0167254208Y0093057099D01*
X0167368739Y0093171829D01*
X0167377751Y0093183240D01*
X0167462816Y0093321243D01*
X0167468963Y0093334424D01*
X0167520138Y0093488710D01*
X0167523005Y0093502086D01*
X0167532672Y0093596438D01*
X0167533000Y0093602855D01*
X0167533000Y0093627885D01*
X0168499500Y0093627885D01*
X0168499500Y0092880252D01*
X0168511133Y0092821769D01*
X0168555448Y0092755448D01*
X0168621769Y0092711133D01*
X0168633938Y0092708712D01*
X0168633939Y0092708712D01*
X0168674184Y0092700707D01*
X0168680252Y0092699500D01*
X0170219748Y0092699500D01*
X0170225816Y0092700707D01*
X0170266061Y0092708712D01*
X0170266062Y0092708712D01*
X0170278231Y0092711133D01*
X0170344552Y0092755448D01*
X0170388867Y0092821769D01*
X0170400500Y0092880252D01*
X0170400500Y0093919748D01*
X0173092000Y0093919748D01*
X0173092000Y0093672115D01*
X0173096475Y0093656876D01*
X0173097865Y0093655671D01*
X0173105548Y0093654000D01*
X0174077885Y0093654000D01*
X0174093124Y0093658475D01*
X0174094329Y0093659865D01*
X0174096000Y0093667548D01*
X0174096000Y0094389884D01*
X0174604000Y0094389884D01*
X0174604000Y0093672115D01*
X0174608475Y0093656876D01*
X0174609865Y0093655671D01*
X0174617548Y0093654000D01*
X0175589884Y0093654000D01*
X0175605123Y0093658475D01*
X0175606328Y0093659865D01*
X0175607999Y0093667548D01*
X0175607999Y0093944669D01*
X0180353180Y0093944669D01*
X0179859219Y0093686425D01*
X0179859218Y0093686425D01*
X0179858452Y0093686024D01*
X0178862370Y0093127885D01*
X0175608000Y0093127885D01*
X0175603525Y0093143124D01*
X0175602135Y0093144329D01*
X0175594452Y0093146000D01*
X0174622115Y0093146000D01*
X0174606876Y0093141525D01*
X0174605671Y0093140135D01*
X0174604000Y0093132452D01*
X0174604000Y0093127885D01*
X0174096000Y0093127885D01*
X0174091525Y0093143124D01*
X0174090135Y0093144329D01*
X0174082452Y0093146000D01*
X0173110116Y0093146000D01*
X0173094877Y0093141525D01*
X0173093672Y0093140135D01*
X0173092001Y0093132452D01*
X0173092001Y0092855331D01*
X0173092371Y0092848510D01*
X0173097895Y0092797648D01*
X0173101521Y0092782396D01*
X0173146676Y0092661946D01*
X0173155214Y0092646351D01*
X0173231715Y0092544276D01*
X0173244276Y0092531715D01*
X0173346351Y0092455214D01*
X0173361946Y0092446676D01*
X0173482394Y0092401522D01*
X0173497649Y0092397895D01*
X0173548514Y0092392369D01*
X0173555328Y0092392000D01*
X0174077885Y0092392000D01*
X0174093124Y0092396475D01*
X0174094329Y0092397865D01*
X0174096000Y0092405548D01*
X0174096000Y0093127885D01*
X0174604000Y0093127885D01*
X0174604000Y0092410116D01*
X0174608475Y0092394877D01*
X0174609865Y0092393672D01*
X0174617548Y0092392001D01*
X0175144669Y0092392001D01*
X0175151490Y0092392371D01*
X0175202352Y0092397895D01*
X0175217604Y0092401521D01*
X0175338054Y0092446676D01*
X0175353649Y0092455214D01*
X0175455724Y0092531715D01*
X0175468285Y0092544276D01*
X0175544786Y0092646351D01*
X0175553324Y0092661946D01*
X0175598478Y0092782394D01*
X0175602105Y0092797649D01*
X0175607631Y0092848514D01*
X0175608000Y0092855328D01*
X0175608000Y0093127885D01*
X0178862370Y0093127885D01*
X0178719239Y0093047684D01*
X0177858012Y0092531715D01*
X0177599805Y0092377021D01*
X0177599801Y0092377018D01*
X0177599029Y0092376556D01*
X0176498764Y0091673206D01*
X0175419372Y0090938226D01*
X0174361761Y0090172234D01*
X0173326823Y0089375877D01*
X0173261392Y0089322437D01*
X0172316151Y0088550415D01*
X0172315427Y0088549824D01*
X0171328428Y0087694771D01*
X0170907883Y0087308526D01*
X0170367334Y0086812064D01*
X0170367317Y0086812048D01*
X0170366654Y0086811439D01*
X0170366018Y0086810820D01*
X0170365998Y0086810801D01*
X0169431577Y0085901213D01*
X0169431559Y0085901195D01*
X0169430918Y0085900571D01*
X0169430287Y0085899920D01*
X0169430267Y0085899900D01*
X0168522656Y0084963606D01*
X0168522641Y0084963590D01*
X0168522006Y0084962935D01*
X0167640684Y0083999319D01*
X0167408244Y0083729876D01*
X0166788285Y0083011221D01*
X0166787694Y0083010536D01*
X0165963755Y0081997418D01*
X0165169560Y0080960819D01*
X0165123994Y0080897629D01*
X0164950463Y0080656976D01*
X0164405779Y0079901611D01*
X0163673054Y0078820686D01*
X0162972003Y0077718956D01*
X0162303216Y0076597346D01*
X0162302776Y0076596557D01*
X0162302753Y0076596517D01*
X0161667717Y0075457631D01*
X0161667697Y0075457595D01*
X0161667256Y0075456803D01*
X0161064659Y0074298287D01*
X0160495932Y0073122773D01*
X0159962976Y0071934418D01*
X0159962789Y0071934053D01*
X0159962741Y0071933894D01*
X0159962697Y0071933797D01*
X0159961435Y0071932084D01*
X0159961150Y0071931426D01*
X0159959607Y0071923081D01*
X0159958084Y0071916452D01*
X0159951736Y0071904641D01*
X0159950703Y0071881518D01*
X0159948731Y0071864247D01*
X0159944521Y0071841474D01*
X0159948042Y0071828538D01*
X0159948040Y0071827583D01*
X0159948251Y0071826651D01*
X0159947653Y0071813256D01*
X0159956750Y0071791973D01*
X0159962465Y0071775546D01*
X0159964817Y0071766905D01*
X0159968544Y0071753210D01*
X0159977330Y0071743078D01*
X0159977742Y0071742217D01*
X0159978334Y0071741471D01*
X0159983604Y0071729141D01*
X0159994286Y0071719804D01*
X0159994287Y0071719802D01*
X0160001034Y0071713905D01*
X0160013309Y0071701580D01*
X0160019174Y0071694815D01*
X0160019175Y0071694814D01*
X0160028469Y0071684095D01*
X0160040776Y0071678776D01*
X0160041522Y0071678178D01*
X0160042381Y0071677762D01*
X0160052476Y0071668938D01*
X0160066149Y0071665157D01*
X0160066151Y0071665156D01*
X0160074788Y0071662768D01*
X0160091193Y0071656986D01*
X0160099416Y0071653432D01*
X0160112438Y0071647804D01*
X0160125832Y0071648348D01*
X0160126764Y0071648133D01*
X0160127720Y0071648131D01*
X0160140643Y0071644557D01*
X0160154605Y0071647079D01*
X0160163811Y0071646660D01*
X0160177137Y0071647433D01*
X0160351779Y0071636449D01*
X0161031027Y0071593727D01*
X0161035779Y0071593336D01*
X0161585594Y0071537670D01*
X0161920380Y0071503775D01*
X0161925144Y0071503201D01*
X0162805697Y0071380020D01*
X0162810436Y0071379265D01*
X0163685662Y0071222643D01*
X0163690369Y0071221708D01*
X0164559004Y0071031871D01*
X0164563672Y0071030757D01*
X0164721801Y0070989832D01*
X0165424448Y0070807981D01*
X0165429064Y0070806692D01*
X0165557039Y0070768316D01*
X0166280717Y0070551305D01*
X0166285257Y0070549850D01*
X0167126616Y0070262203D01*
X0167131125Y0070260564D01*
X0167219695Y0070226464D01*
X0167960874Y0069941107D01*
X0167965294Y0069939308D01*
X0168782319Y0069588468D01*
X0168786642Y0069586513D01*
X0169589713Y0069204818D01*
X0169594003Y0069202678D01*
X0170381928Y0068790694D01*
X0170386137Y0068788390D01*
X0170894663Y0068497320D01*
X0171157810Y0068346700D01*
X0171161917Y0068344244D01*
X0171185446Y0068329559D01*
X0171590866Y0068076537D01*
X0171916215Y0067873487D01*
X0171920236Y0067870869D01*
X0172656023Y0067371758D01*
X0172659943Y0067368989D01*
X0173009130Y0067112177D01*
X0173052156Y0067055704D01*
X0173057821Y0066984934D01*
X0173024325Y0066922335D01*
X0173006269Y0066907125D01*
X0172603270Y0066627722D01*
X0172390553Y0066480243D01*
X0172389805Y0066479691D01*
X0172389783Y0066479675D01*
X0171417135Y0065761548D01*
X0171416367Y0065760981D01*
X0170464016Y0065013046D01*
X0170463328Y0065012471D01*
X0170463311Y0065012458D01*
X0169535045Y0064237689D01*
X0169535042Y0064237686D01*
X0169534343Y0064237103D01*
X0168628174Y0063433837D01*
X0167746310Y0062603962D01*
X0167454816Y0062312818D01*
X0166890180Y0061748860D01*
X0166889531Y0061748211D01*
X0166058598Y0060867342D01*
X0165254247Y0059962137D01*
X0164477189Y0059033396D01*
X0164476595Y0059032642D01*
X0164476594Y0059032641D01*
X0163728701Y0058082692D01*
X0163728679Y0058082663D01*
X0163728112Y0058081943D01*
X0163545973Y0057835868D01*
X0163008235Y0057109368D01*
X0163008215Y0057109340D01*
X0163007682Y0057108620D01*
X0162316534Y0056114289D01*
X0161932060Y0055524448D01*
X0161655800Y0055100625D01*
X0161655784Y0055100600D01*
X0161655283Y0055099831D01*
X0161024513Y0054066144D01*
X0160969419Y0053969504D01*
X0160425229Y0053014928D01*
X0160425219Y0053014909D01*
X0160424783Y0053014145D01*
X0159856625Y0051944765D01*
X0159856213Y0051943931D01*
X0159320973Y0050859826D01*
X0159320960Y0050859799D01*
X0159320541Y0050858950D01*
X0158817006Y0049757664D01*
X0158591384Y0049222649D01*
X0158346825Y0048642731D01*
X0158346814Y0048642705D01*
X0158346467Y0048641881D01*
X0158346145Y0048641048D01*
X0158346130Y0048641012D01*
X0158136715Y0048100000D01*
X0151900000Y0048100000D01*
X0150900000Y0048100000D01*
X0148100000Y0048100000D01*
X0147100000Y0048100000D01*
X0147100000Y0046100000D01*
X0148100000Y0046100000D01*
X0148100000Y0048100000D01*
X0150900000Y0048100000D01*
X0150900000Y0046100000D01*
X0151900000Y0046100000D01*
X0151900000Y0048100000D01*
X0158136715Y0048100000D01*
X0157909681Y0047513470D01*
X0157909340Y0047512590D01*
X0157506013Y0046370790D01*
X0157136842Y0045217495D01*
X0156803653Y0044058933D01*
X0156802947Y0044056871D01*
X0156801720Y0044054586D01*
X0156801531Y0044053893D01*
X0156801241Y0044046791D01*
X0156801020Y0044045366D01*
X0156800843Y0044042899D01*
X0156799976Y0044034465D01*
X0156795422Y0044021023D01*
X0156797745Y0044002054D01*
X0156798574Y0043981598D01*
X0156798373Y0043976671D01*
X0156797793Y0043962493D01*
X0156803418Y0043949467D01*
X0156803907Y0043946833D01*
X0156804818Y0043944306D01*
X0156806543Y0043930225D01*
X0156816861Y0043914143D01*
X0156826479Y0043896069D01*
X0156834060Y0043878516D01*
X0156844776Y0043869219D01*
X0156846363Y0043867052D01*
X0156848278Y0043865172D01*
X0156855938Y0043853233D01*
X0156872216Y0043843212D01*
X0156888726Y0043831093D01*
X0156903159Y0043818572D01*
X0156916847Y0043814842D01*
X0156919214Y0043813579D01*
X0156921755Y0043812716D01*
X0156933836Y0043805278D01*
X0156952854Y0043803307D01*
X0156972974Y0043799548D01*
X0156991417Y0043794523D01*
X0157005370Y0043797098D01*
X0157008056Y0043796986D01*
X0157010714Y0043797309D01*
X0157024824Y0043795847D01*
X0157038174Y0043800649D01*
X0157048765Y0043801937D01*
X0157060260Y0043804529D01*
X0157733214Y0043870861D01*
X0157739362Y0043871316D01*
X0158447523Y0043906228D01*
X0158453678Y0043906381D01*
X0158806862Y0043906475D01*
X0159162708Y0043906570D01*
X0159168879Y0043906420D01*
X0159741123Y0043878516D01*
X0159877030Y0043871889D01*
X0159883180Y0043871438D01*
X0160273186Y0043833206D01*
X0160588834Y0043802263D01*
X0160594960Y0043801510D01*
X0160945646Y0043749689D01*
X0161296335Y0043697867D01*
X0161302414Y0043696817D01*
X0161997909Y0043558943D01*
X0162003906Y0043557601D01*
X0162691839Y0043385826D01*
X0162697759Y0043384192D01*
X0163010950Y0043289473D01*
X0163376422Y0043178942D01*
X0163382284Y0043177011D01*
X0164050071Y0042938776D01*
X0164055832Y0042936560D01*
X0164557927Y0042729191D01*
X0164711153Y0042665907D01*
X0164716773Y0042663424D01*
X0165266875Y0042404000D01*
X0165358072Y0042360992D01*
X0165363589Y0042358223D01*
X0165989280Y0042024764D01*
X0165994654Y0042021729D01*
X0166603277Y0041658020D01*
X0166608496Y0041654725D01*
X0167198570Y0041261652D01*
X0167203622Y0041258105D01*
X0167773739Y0040836604D01*
X0167778611Y0040832814D01*
X0167832044Y0040789105D01*
X0167916832Y0040719748D01*
X0164550500Y0040719748D01*
X0164538866Y0040778231D01*
X0164494552Y0040844552D01*
X0164428230Y0040888867D01*
X0164416062Y0040891288D01*
X0164416061Y0040891288D01*
X0164375816Y0040899293D01*
X0164369748Y0040900500D01*
X0163888793Y0040900500D01*
X0163820672Y0040920502D01*
X0163799698Y0040937405D01*
X0162742753Y0041994350D01*
X0162732899Y0042005439D01*
X0162717707Y0042024709D01*
X0162711872Y0042032110D01*
X0162704125Y0042037465D01*
X0162704122Y0042037466D01*
X0162663625Y0042065455D01*
X0162660413Y0042067750D01*
X0162613184Y0042102634D01*
X0162606368Y0042105027D01*
X0162600431Y0042109131D01*
X0162591451Y0042111971D01*
X0162591449Y0042111972D01*
X0162571283Y0042118350D01*
X0162544481Y0042126826D01*
X0162540750Y0042128071D01*
X0162494263Y0042144396D01*
X0162494261Y0042144396D01*
X0162485369Y0042147519D01*
X0162478181Y0042147801D01*
X0162478121Y0042147812D01*
X0162471270Y0042149980D01*
X0162464663Y0042150500D01*
X0162411984Y0042150500D01*
X0162407038Y0042150597D01*
X0162350006Y0042152838D01*
X0162342900Y0042150954D01*
X0162334656Y0042150500D01*
X0155838793Y0042150500D01*
X0155770672Y0042170502D01*
X0155749698Y0042187405D01*
X0154642753Y0043294350D01*
X0154632899Y0043305439D01*
X0154617706Y0043324711D01*
X0154617702Y0043324715D01*
X0154611872Y0043332110D01*
X0154604125Y0043337464D01*
X0154604121Y0043337468D01*
X0154563596Y0043365477D01*
X0154560402Y0043367758D01*
X0154513183Y0043402635D01*
X0154506366Y0043405029D01*
X0154500431Y0043409131D01*
X0154491456Y0043411969D01*
X0154491455Y0043411970D01*
X0154469493Y0043418915D01*
X0154444525Y0043426812D01*
X0154440785Y0043428060D01*
X0154394255Y0043444400D01*
X0154394252Y0043444401D01*
X0154385369Y0043447520D01*
X0154378184Y0043447803D01*
X0154378111Y0043447817D01*
X0154371270Y0043449980D01*
X0154364663Y0043450500D01*
X0154312009Y0043450500D01*
X0154307063Y0043450597D01*
X0154250006Y0043452839D01*
X0154242897Y0043450954D01*
X0154234648Y0043450500D01*
X0147838793Y0043450500D01*
X0147770672Y0043470502D01*
X0147749698Y0043487405D01*
X0144287405Y0046949698D01*
X0144253379Y0047012010D01*
X0144250500Y0047038793D01*
X0144250500Y0053115780D01*
X0144251373Y0053130589D01*
X0144255364Y0053164310D01*
X0144253672Y0053173574D01*
X0144253672Y0053173575D01*
X0144244828Y0053222001D01*
X0144244178Y0053225904D01*
X0144238391Y0053264391D01*
X0144235449Y0053283962D01*
X0144232321Y0053290475D01*
X0144231025Y0053297573D01*
X0144203975Y0053349647D01*
X0144202232Y0053353137D01*
X0144176809Y0053406079D01*
X0144171923Y0053411365D01*
X0144171890Y0053411413D01*
X0144168579Y0053417788D01*
X0144164275Y0053422828D01*
X0144127048Y0053460055D01*
X0144123619Y0053463620D01*
X0144084854Y0053505556D01*
X0144078495Y0053509249D01*
X0144072337Y0053514766D01*
X0132942753Y0064644350D01*
X0132932898Y0064655439D01*
X0132923352Y0064667548D01*
X0132911871Y0064682110D01*
X0132904124Y0064687465D01*
X0132904122Y0064687467D01*
X0132863599Y0064715474D01*
X0132860378Y0064717776D01*
X0132851639Y0064724231D01*
X0132808729Y0064780793D01*
X0132800500Y0064825581D01*
X0132800500Y0064869748D01*
X0132788867Y0064928231D01*
X0132744552Y0064994552D01*
X0132678231Y0065038867D01*
X0132666062Y0065041288D01*
X0132666061Y0065041288D01*
X0132625815Y0065049293D01*
X0132619747Y0065050500D01*
X0131080252Y0065050500D01*
X0131074184Y0065049293D01*
X0131033939Y0065041288D01*
X0131033938Y0065041288D01*
X0131021769Y0065038867D01*
X0130955447Y0064994552D01*
X0130911133Y0064928231D01*
X0130899499Y0064869748D01*
X0130899499Y0063830252D01*
X0130903366Y0063810815D01*
X0130908712Y0063783939D01*
X0130908712Y0063783938D01*
X0130911133Y0063771769D01*
X0130919547Y0063759176D01*
X0130948557Y0063715761D01*
X0130955447Y0063705448D01*
X0131005762Y0063671829D01*
X0131011452Y0063668026D01*
X0131021769Y0063661133D01*
X0131033938Y0063658712D01*
X0131033939Y0063658712D01*
X0131074184Y0063650707D01*
X0131080252Y0063649500D01*
X0132611207Y0063649500D01*
X0132679328Y0063629498D01*
X0132700302Y0063612595D01*
X0143312595Y0053000302D01*
X0143346621Y0052937990D01*
X0143349500Y0052911207D01*
X0143349500Y0046834220D01*
X0143348627Y0046819411D01*
X0143345743Y0046795043D01*
X0143344636Y0046785690D01*
X0143346328Y0046776426D01*
X0143346328Y0046776422D01*
X0143355173Y0046727989D01*
X0143355822Y0046724088D01*
X0143363149Y0046675355D01*
X0143363151Y0046675347D01*
X0143364551Y0046666038D01*
X0143367677Y0046659528D01*
X0143368974Y0046652427D01*
X0143396018Y0046600363D01*
X0143397786Y0046596825D01*
X0143419114Y0046552411D01*
X0143423191Y0046543921D01*
X0143428074Y0046538640D01*
X0143428109Y0046538588D01*
X0143431420Y0046532212D01*
X0143435724Y0046527172D01*
X0143472964Y0046489932D01*
X0143476394Y0046486366D01*
X0143508755Y0046451357D01*
X0143508758Y0046451355D01*
X0143515146Y0046444444D01*
X0143521502Y0046440753D01*
X0143527656Y0046435240D01*
X0147257247Y0042705650D01*
X0147267101Y0042694561D01*
X0147282293Y0042675291D01*
X0147282295Y0042675289D01*
X0147288128Y0042667890D01*
X0147295875Y0042662535D01*
X0147295877Y0042662534D01*
X0147336375Y0042634545D01*
X0147339597Y0042632243D01*
X0147379242Y0042602960D01*
X0147379243Y0042602959D01*
X0147386816Y0042597366D01*
X0147393632Y0042594973D01*
X0147399569Y0042590869D01*
X0147408549Y0042588029D01*
X0147408551Y0042588028D01*
X0147428717Y0042581650D01*
X0147455519Y0042573174D01*
X0147459250Y0042571929D01*
X0147505737Y0042555604D01*
X0147505739Y0042555604D01*
X0147514631Y0042552481D01*
X0147521819Y0042552199D01*
X0147521878Y0042552188D01*
X0147528730Y0042550020D01*
X0147535337Y0042549500D01*
X0147588016Y0042549500D01*
X0147592963Y0042549403D01*
X0147649994Y0042547162D01*
X0147657100Y0042549046D01*
X0147665347Y0042549500D01*
X0154061206Y0042549500D01*
X0154129327Y0042529498D01*
X0154150301Y0042512595D01*
X0155257248Y0041405649D01*
X0155267103Y0041394560D01*
X0155282297Y0041375287D01*
X0155288128Y0041367890D01*
X0155295875Y0041362535D01*
X0155295877Y0041362534D01*
X0155336375Y0041334545D01*
X0155339597Y0041332243D01*
X0155379242Y0041302960D01*
X0155379243Y0041302959D01*
X0155386816Y0041297366D01*
X0155393632Y0041294973D01*
X0155399569Y0041290869D01*
X0155408549Y0041288029D01*
X0155408551Y0041288028D01*
X0155428717Y0041281650D01*
X0155455519Y0041273174D01*
X0155459250Y0041271929D01*
X0155505737Y0041255604D01*
X0155505739Y0041255604D01*
X0155514631Y0041252481D01*
X0155521819Y0041252199D01*
X0155521878Y0041252188D01*
X0155528730Y0041250020D01*
X0155535337Y0041249500D01*
X0155588016Y0041249500D01*
X0155592963Y0041249403D01*
X0155649994Y0041247162D01*
X0155657100Y0041249046D01*
X0155665347Y0041249500D01*
X0162161207Y0041249500D01*
X0162229328Y0041229498D01*
X0162250302Y0041212595D01*
X0162617415Y0040845482D01*
X0162651441Y0040783170D01*
X0162651898Y0040731803D01*
X0162649500Y0040719748D01*
X0162649500Y0040250000D01*
X0161755681Y0040250000D01*
X0161754604Y0040258188D01*
X0161738054Y0040383895D01*
X0161735044Y0040406762D01*
X0161674536Y0040552841D01*
X0161578282Y0040678282D01*
X0161452841Y0040774536D01*
X0161306762Y0040835044D01*
X0161150000Y0040855682D01*
X0161141812Y0040854604D01*
X0161117801Y0040851443D01*
X0160993238Y0040835044D01*
X0160847159Y0040774536D01*
X0160784605Y0040726537D01*
X0160718384Y0040700937D01*
X0160707901Y0040700500D01*
X0159752634Y0040700500D01*
X0159684513Y0040720502D01*
X0159639679Y0040774150D01*
X0159638867Y0040778231D01*
X0159594552Y0040844552D01*
X0159528231Y0040888867D01*
X0159516062Y0040891288D01*
X0159516061Y0040891288D01*
X0159475816Y0040899293D01*
X0159469748Y0040900500D01*
X0157930252Y0040900500D01*
X0157924184Y0040899293D01*
X0157883939Y0040891288D01*
X0157883938Y0040891288D01*
X0157871769Y0040888867D01*
X0157805448Y0040844552D01*
X0157761133Y0040778231D01*
X0157749500Y0040719748D01*
X0157749500Y0039680252D01*
X0157761133Y0039621769D01*
X0157805448Y0039555448D01*
X0157871769Y0039511133D01*
X0157883938Y0039508712D01*
X0157883939Y0039508712D01*
X0157924184Y0039500707D01*
X0157930252Y0039499500D01*
X0159469748Y0039499500D01*
X0159475816Y0039500707D01*
X0159516061Y0039508712D01*
X0159516062Y0039508712D01*
X0159528231Y0039511133D01*
X0159594552Y0039555448D01*
X0159638867Y0039621769D01*
X0159650500Y0039680252D01*
X0159650500Y0039685994D01*
X0159677024Y0039751682D01*
X0159734979Y0039792692D01*
X0159775835Y0039799500D01*
X0160707901Y0039799500D01*
X0160776022Y0039779498D01*
X0160784605Y0039773463D01*
X0160840608Y0039730491D01*
X0160847159Y0039725464D01*
X0160993238Y0039664956D01*
X0161150000Y0039644318D01*
X0161306762Y0039664956D01*
X0161452841Y0039725464D01*
X0161578282Y0039821718D01*
X0161674536Y0039947159D01*
X0161735044Y0040093238D01*
X0161755681Y0040250000D01*
X0162649500Y0040250000D01*
X0162649500Y0039680252D01*
X0162661133Y0039621769D01*
X0162705448Y0039555448D01*
X0162771769Y0039511133D01*
X0162783938Y0039508712D01*
X0162783939Y0039508712D01*
X0162824184Y0039500707D01*
X0162830252Y0039499500D01*
X0164369748Y0039499500D01*
X0164375816Y0039500707D01*
X0164416061Y0039508712D01*
X0164416062Y0039508712D01*
X0164428230Y0039511133D01*
X0164494552Y0039555448D01*
X0164538866Y0039621769D01*
X0164550500Y0039680252D01*
X0164550500Y0040719748D01*
X0167916832Y0040719748D01*
X0168290126Y0040414391D01*
X0168327407Y0040383895D01*
X0168332087Y0040379871D01*
X0168832637Y0039927742D01*
X0168858228Y0039904626D01*
X0168862702Y0039900382D01*
X0169364958Y0039399919D01*
X0169369221Y0039395456D01*
X0169586858Y0039156239D01*
X0169617905Y0039092391D01*
X0169609504Y0039021893D01*
X0169561029Y0038964971D01*
X0168787994Y0038475861D01*
X0167855018Y0037847914D01*
X0167704174Y0037746387D01*
X0167704166Y0037746382D01*
X0167703415Y0037745876D01*
X0167702658Y0037745335D01*
X0167421993Y0037544669D01*
X0164857999Y0037544669D01*
X0164857629Y0037551490D01*
X0164852105Y0037602352D01*
X0164848479Y0037617604D01*
X0164803324Y0037738054D01*
X0164794786Y0037753649D01*
X0164718284Y0037855724D01*
X0164705724Y0037868285D01*
X0164603649Y0037944786D01*
X0164588054Y0037953324D01*
X0164467606Y0037998478D01*
X0164452351Y0038002105D01*
X0164401486Y0038007631D01*
X0164394672Y0038008000D01*
X0163872115Y0038008000D01*
X0163856876Y0038003525D01*
X0163855671Y0038002135D01*
X0163853999Y0037994452D01*
X0163853999Y0037989884D01*
X0163346000Y0037989884D01*
X0163341525Y0038005123D01*
X0163340135Y0038006328D01*
X0163332452Y0038007999D01*
X0162805331Y0038007999D01*
X0162798510Y0038007629D01*
X0162747648Y0038002105D01*
X0162732396Y0037998479D01*
X0162611946Y0037953324D01*
X0162596351Y0037944786D01*
X0162494276Y0037868285D01*
X0162481715Y0037855724D01*
X0162405214Y0037753649D01*
X0162396676Y0037738054D01*
X0162351522Y0037617606D01*
X0162347895Y0037602351D01*
X0162342369Y0037551486D01*
X0162341999Y0037544672D01*
X0162341999Y0037519748D01*
X0159650500Y0037519748D01*
X0159638867Y0037578231D01*
X0159594552Y0037644552D01*
X0159528231Y0037688867D01*
X0159516062Y0037691288D01*
X0159516061Y0037691288D01*
X0159475816Y0037699293D01*
X0159469748Y0037700500D01*
X0159276500Y0037700500D01*
X0159208379Y0037720502D01*
X0159161886Y0037774158D01*
X0159150500Y0037826500D01*
X0159150500Y0038173922D01*
X0159167381Y0038236923D01*
X0159169506Y0038240604D01*
X0159174536Y0038247159D01*
X0159235044Y0038393238D01*
X0159255682Y0038550000D01*
X0159235044Y0038706762D01*
X0159174536Y0038852841D01*
X0159078282Y0038978282D01*
X0158952841Y0039074536D01*
X0158806762Y0039135044D01*
X0158650000Y0039155682D01*
X0158641812Y0039154604D01*
X0158501426Y0039136122D01*
X0158493238Y0039135044D01*
X0158347159Y0039074536D01*
X0158221718Y0038978282D01*
X0158125464Y0038852841D01*
X0158064956Y0038706762D01*
X0158044318Y0038550000D01*
X0158064956Y0038393238D01*
X0158125464Y0038247159D01*
X0158221718Y0038121718D01*
X0158219386Y0038119928D01*
X0158246621Y0038070052D01*
X0158249500Y0038043269D01*
X0158249500Y0037826500D01*
X0158229498Y0037758379D01*
X0158216476Y0037747095D01*
X0156632999Y0037747095D01*
X0156632662Y0037753614D01*
X0156622743Y0037849206D01*
X0156619851Y0037862600D01*
X0156568412Y0038016784D01*
X0156562239Y0038029962D01*
X0156476937Y0038167807D01*
X0156467901Y0038179208D01*
X0156353171Y0038293739D01*
X0156341760Y0038302751D01*
X0156203757Y0038387816D01*
X0156190576Y0038393963D01*
X0156043908Y0038442611D01*
X0155985549Y0038483042D01*
X0155958312Y0038548606D01*
X0155970846Y0038618488D01*
X0156019170Y0038670500D01*
X0156041829Y0038681087D01*
X0156088184Y0038697366D01*
X0156095754Y0038702958D01*
X0156095757Y0038702959D01*
X0156111234Y0038714391D01*
X0156197150Y0038777850D01*
X0156202742Y0038785421D01*
X0156272041Y0038879243D01*
X0156272042Y0038879246D01*
X0156277634Y0038886816D01*
X0156322519Y0039014631D01*
X0156325500Y0039046166D01*
X0156325500Y0039653834D01*
X0156322519Y0039685369D01*
X0156277634Y0039813184D01*
X0156272042Y0039820754D01*
X0156272041Y0039820757D01*
X0156271331Y0039821718D01*
X0156197150Y0039922150D01*
X0156189579Y0039927742D01*
X0156095757Y0039997041D01*
X0156095754Y0039997042D01*
X0156088184Y0040002634D01*
X0155960369Y0040047519D01*
X0155952723Y0040048242D01*
X0155952722Y0040048242D01*
X0155946752Y0040048806D01*
X0155928834Y0040050500D01*
X0154871166Y0040050500D01*
X0154853248Y0040048806D01*
X0154847278Y0040048242D01*
X0154847277Y0040048242D01*
X0154839631Y0040047519D01*
X0154711816Y0040002634D01*
X0154704246Y0039997042D01*
X0154704243Y0039997041D01*
X0154610421Y0039927742D01*
X0154602850Y0039922150D01*
X0154528669Y0039821718D01*
X0154527959Y0039820757D01*
X0154527958Y0039820754D01*
X0154522366Y0039813184D01*
X0154477481Y0039685369D01*
X0154474500Y0039653834D01*
X0154474500Y0039046166D01*
X0154477481Y0039014631D01*
X0154522366Y0038886816D01*
X0154527958Y0038879246D01*
X0154527959Y0038879243D01*
X0154597258Y0038785421D01*
X0154602850Y0038777850D01*
X0154688766Y0038714391D01*
X0154704243Y0038702959D01*
X0154704246Y0038702958D01*
X0154711816Y0038697366D01*
X0154757973Y0038681157D01*
X0154815619Y0038639714D01*
X0154841707Y0038573684D01*
X0154827956Y0038504032D01*
X0154778731Y0038452871D01*
X0154756101Y0038442750D01*
X0154608216Y0038393412D01*
X0154595038Y0038387239D01*
X0154457193Y0038301937D01*
X0154445792Y0038292901D01*
X0154331261Y0038178171D01*
X0154322249Y0038166760D01*
X0154237184Y0038028757D01*
X0154231037Y0038015576D01*
X0154179862Y0037861290D01*
X0154176995Y0037847914D01*
X0154167328Y0037753562D01*
X0154167000Y0037747146D01*
X0154167000Y0037722115D01*
X0154171475Y0037706876D01*
X0154172865Y0037705671D01*
X0154180548Y0037704000D01*
X0156614884Y0037704000D01*
X0156630123Y0037708475D01*
X0156631328Y0037709865D01*
X0156632999Y0037717548D01*
X0156632999Y0037747095D01*
X0158216476Y0037747095D01*
X0158175842Y0037711886D01*
X0158123500Y0037700500D01*
X0157930252Y0037700500D01*
X0157924184Y0037699293D01*
X0157883939Y0037691288D01*
X0157883938Y0037691288D01*
X0157871769Y0037688867D01*
X0157805448Y0037644552D01*
X0157761133Y0037578231D01*
X0157749500Y0037519748D01*
X0157749500Y0037177885D01*
X0156633000Y0037177885D01*
X0156628525Y0037193124D01*
X0156627135Y0037194329D01*
X0156619452Y0037196000D01*
X0155672115Y0037196000D01*
X0155656876Y0037191525D01*
X0155655671Y0037190135D01*
X0155654000Y0037182452D01*
X0155654000Y0037177885D01*
X0155146000Y0037177885D01*
X0155141525Y0037193124D01*
X0155140135Y0037194329D01*
X0155132452Y0037196000D01*
X0154185116Y0037196000D01*
X0154169877Y0037191525D01*
X0154168672Y0037190135D01*
X0154167001Y0037182452D01*
X0154167001Y0037152905D01*
X0154167338Y0037146386D01*
X0154177257Y0037050794D01*
X0154180149Y0037037400D01*
X0154231588Y0036883216D01*
X0154237761Y0036870038D01*
X0154323063Y0036732193D01*
X0154332099Y0036720792D01*
X0154446829Y0036606261D01*
X0154458240Y0036597249D01*
X0154596243Y0036512184D01*
X0154609424Y0036506037D01*
X0154763710Y0036454862D01*
X0154777086Y0036451995D01*
X0154871438Y0036442328D01*
X0154877855Y0036442000D01*
X0155127885Y0036442000D01*
X0155143124Y0036446475D01*
X0155144329Y0036447865D01*
X0155146000Y0036455548D01*
X0155146000Y0037177885D01*
X0155654000Y0037177885D01*
X0155654000Y0036460116D01*
X0155658475Y0036444877D01*
X0155659865Y0036443672D01*
X0155667548Y0036442001D01*
X0155922095Y0036442001D01*
X0155928614Y0036442338D01*
X0156024206Y0036452257D01*
X0156037600Y0036455149D01*
X0156191784Y0036506588D01*
X0156204962Y0036512761D01*
X0156342807Y0036598063D01*
X0156354208Y0036607099D01*
X0156468739Y0036721829D01*
X0156477751Y0036733240D01*
X0156562816Y0036871243D01*
X0156568963Y0036884424D01*
X0156620138Y0037038710D01*
X0156623005Y0037052086D01*
X0156632672Y0037146438D01*
X0156633000Y0037152855D01*
X0156633000Y0037177885D01*
X0157749500Y0037177885D01*
X0157749500Y0036480252D01*
X0157754550Y0036454862D01*
X0157758712Y0036433939D01*
X0157758712Y0036433938D01*
X0157761133Y0036421769D01*
X0157805448Y0036355448D01*
X0157871769Y0036311133D01*
X0157883938Y0036308712D01*
X0157883939Y0036308712D01*
X0157924184Y0036300707D01*
X0157930252Y0036299500D01*
X0159469748Y0036299500D01*
X0159475816Y0036300707D01*
X0159516061Y0036308712D01*
X0159516062Y0036308712D01*
X0159528231Y0036311133D01*
X0159594552Y0036355448D01*
X0159638867Y0036421769D01*
X0159641288Y0036433938D01*
X0159641288Y0036433939D01*
X0159645450Y0036454862D01*
X0159650500Y0036480252D01*
X0159650500Y0037519748D01*
X0162341999Y0037519748D01*
X0162341999Y0037272115D01*
X0162346475Y0037256876D01*
X0162347865Y0037255671D01*
X0162355548Y0037254000D01*
X0163327884Y0037254000D01*
X0163343124Y0037258475D01*
X0163344329Y0037259865D01*
X0163346000Y0037267548D01*
X0163346000Y0037989884D01*
X0163853999Y0037989884D01*
X0163853999Y0037272115D01*
X0163858475Y0037256876D01*
X0163859865Y0037255671D01*
X0163867548Y0037254000D01*
X0164839883Y0037254000D01*
X0164855123Y0037258475D01*
X0164856328Y0037259865D01*
X0164857999Y0037267548D01*
X0164857999Y0037544669D01*
X0167421993Y0037544669D01*
X0166640630Y0036986020D01*
X0166640606Y0036986002D01*
X0166639916Y0036985509D01*
X0166489289Y0036871243D01*
X0166300316Y0036727885D01*
X0164858000Y0036727885D01*
X0164853525Y0036743124D01*
X0164852135Y0036744329D01*
X0164844452Y0036746000D01*
X0163872115Y0036746000D01*
X0163856876Y0036741525D01*
X0163855671Y0036740135D01*
X0163853999Y0036732452D01*
X0163853999Y0036727885D01*
X0163346000Y0036727885D01*
X0163341525Y0036743124D01*
X0163340135Y0036744329D01*
X0163332452Y0036746000D01*
X0162360116Y0036746000D01*
X0162344877Y0036741525D01*
X0162343672Y0036740135D01*
X0162342000Y0036732452D01*
X0162342000Y0036455331D01*
X0162342371Y0036448510D01*
X0162347895Y0036397648D01*
X0162351521Y0036382396D01*
X0162396676Y0036261946D01*
X0162405214Y0036246351D01*
X0162481715Y0036144276D01*
X0162494276Y0036131715D01*
X0162596351Y0036055214D01*
X0162611946Y0036046676D01*
X0162732394Y0036001522D01*
X0162747649Y0035997895D01*
X0162798514Y0035992369D01*
X0162805328Y0035992000D01*
X0163327884Y0035992000D01*
X0163343124Y0035996475D01*
X0163344329Y0035997865D01*
X0163346000Y0036005548D01*
X0163346000Y0036727885D01*
X0163853999Y0036727885D01*
X0163853999Y0036010116D01*
X0163858475Y0035994877D01*
X0163859865Y0035993672D01*
X0163867548Y0035992001D01*
X0164394669Y0035992001D01*
X0164401490Y0035992371D01*
X0164452352Y0035997895D01*
X0164467604Y0036001521D01*
X0164588054Y0036046676D01*
X0164603649Y0036055214D01*
X0164705724Y0036131715D01*
X0164718284Y0036144276D01*
X0164794786Y0036246351D01*
X0164803324Y0036261946D01*
X0164848478Y0036382394D01*
X0164852105Y0036397649D01*
X0164857631Y0036448514D01*
X0164858000Y0036455328D01*
X0164858000Y0036727885D01*
X0166300316Y0036727885D01*
X0166063284Y0036548070D01*
X0165598348Y0036195365D01*
X0165597701Y0036194845D01*
X0164580233Y0035376633D01*
X0164580202Y0035376608D01*
X0164579545Y0035376079D01*
X0163966961Y0034854254D01*
X0163585042Y0034528920D01*
X0163585015Y0034528896D01*
X0163584322Y0034528306D01*
X0162613475Y0033652723D01*
X0161667780Y0032750031D01*
X0160747996Y0031820954D01*
X0159854856Y0030866233D01*
X0159207863Y0030134182D01*
X0158989653Y0029887285D01*
X0158989645Y0029887275D01*
X0158989077Y0029886633D01*
X0158343160Y0029112748D01*
X0158151913Y0028883612D01*
X0158151895Y0028883589D01*
X0158151351Y0028882938D01*
X0157342347Y0027855951D01*
X0156562714Y0026806493D01*
X0155937433Y0025913089D01*
X0155813574Y0025736119D01*
X0155813551Y0025736085D01*
X0155813075Y0025735405D01*
X0155094030Y0024643542D01*
X0154492844Y0023671888D01*
X0154406597Y0023532494D01*
X0154406585Y0023532474D01*
X0154406155Y0023531779D01*
X0153820131Y0022521867D01*
X0153750463Y0022401806D01*
X0153750457Y0022401794D01*
X0153749999Y0022401006D01*
X0153126087Y0021252126D01*
X0152534920Y0020086060D01*
X0152534549Y0020085273D01*
X0152534530Y0020085235D01*
X0151977339Y0018904524D01*
X0151976969Y0018903740D01*
X0151452681Y0017706113D01*
X0150962477Y0016494136D01*
X0150508273Y0015272883D01*
X0150507667Y0015271473D01*
X0150507665Y0015271465D01*
X0150506491Y0015269632D01*
X0150506249Y0015268956D01*
X0150503809Y0015248307D01*
X0150500113Y0015229483D01*
X0150494560Y0015209429D01*
X0150497078Y0015195466D01*
X0150497003Y0015193835D01*
X0150497178Y0015192204D01*
X0150495512Y0015178112D01*
X0150502271Y0015158438D01*
X0150507105Y0015139866D01*
X0150508277Y0015133367D01*
X0150508277Y0015133366D01*
X0150510795Y0015119405D01*
X0150519118Y0015107916D01*
X0150519762Y0015106404D01*
X0150520622Y0015105017D01*
X0150525232Y0015091600D01*
X0150535203Y0015081510D01*
X0150535204Y0015081508D01*
X0150539852Y0015076805D01*
X0150552264Y0015062164D01*
X0150556138Y0015056817D01*
X0150564462Y0015045327D01*
X0150576945Y0015038584D01*
X0150578172Y0015037508D01*
X0150579555Y0015036627D01*
X0150589529Y0015026534D01*
X0150602893Y0015021765D01*
X0150602894Y0015021764D01*
X0150609112Y0015019545D01*
X0150626649Y0015011734D01*
X0150644945Y0015001850D01*
X0150659121Y0015001187D01*
X0150660698Y0015000749D01*
X0150662321Y0015000556D01*
X0150675683Y0014995787D01*
X0150689790Y0014997284D01*
X0150689794Y0014997284D01*
X0150696366Y0014997982D01*
X0150715540Y0014998549D01*
X0150736321Y0014997577D01*
X0150749378Y0015003125D01*
X0150750993Y0015003415D01*
X0150752541Y0015003945D01*
X0150766648Y0015005443D01*
X0150788307Y0015018851D01*
X0150789708Y0015019718D01*
X0150792970Y0015021649D01*
X0150799336Y0015024354D01*
X0150808006Y0015030647D01*
X0150815674Y0015035792D01*
X0150817425Y0015036876D01*
X0150841855Y0015051999D01*
X0150841871Y0015052008D01*
X0150844427Y0015053591D01*
X0150844524Y0015053434D01*
X0150850913Y0015056867D01*
X0150848573Y0015060091D01*
X0153106939Y0016699227D01*
X0153173816Y0016723052D01*
X0153242960Y0016706938D01*
X0153292416Y0016656000D01*
X0153306482Y0016586411D01*
X0153300831Y0016558469D01*
X0151970381Y0012446165D01*
X0151969483Y0012443846D01*
X0151962690Y0012434907D01*
X0151957179Y0012407904D01*
X0151954999Y0012399613D01*
X0151954455Y0012396943D01*
X0151952278Y0012390212D01*
X0151951652Y0012383170D01*
X0151951058Y0012380250D01*
X0151949862Y0012372053D01*
X0151944398Y0012345279D01*
X0151947273Y0012333889D01*
X0151946233Y0012322188D01*
X0151955862Y0012296600D01*
X0151960097Y0012283079D01*
X0151963311Y0012270346D01*
X0151966784Y0012256585D01*
X0151974314Y0012247569D01*
X0151978451Y0012236574D01*
X0151988714Y0012226774D01*
X0151988717Y0012226770D01*
X0151998213Y0012217703D01*
X0152004061Y0012211452D01*
X0152006099Y0012209507D01*
X0152010671Y0012204032D01*
X0152016355Y0012199720D01*
X0152018476Y0012197696D01*
X0152024886Y0012192234D01*
X0152034350Y0012183197D01*
X0152044609Y0012173401D01*
X0152055428Y0012169891D01*
X0152057661Y0012168384D01*
X0155605549Y0009476883D01*
X0155647731Y0009419776D01*
X0155652343Y0009348930D01*
X0155617920Y0009286836D01*
X0155555391Y0009253211D01*
X0155529396Y0009250500D01*
X0151136435Y0009250500D01*
X0151131988Y0009250719D01*
X0151120193Y0009254662D01*
X0151106117Y0009252880D01*
X0151106116Y0009252880D01*
X0151095201Y0009251498D01*
X0151090956Y0009251230D01*
X0151084472Y0009250500D01*
X0151077397Y0009250500D01*
X0151070502Y0009248927D01*
X0151070047Y0009248876D01*
X0151058872Y0009246899D01*
X0151056795Y0009246636D01*
X0151029442Y0009243173D01*
X0151020825Y0009237595D01*
X0151010815Y0009235312D01*
X0150987611Y0009216822D01*
X0150977557Y0009209588D01*
X0150964563Y0009201177D01*
X0150964562Y0009201176D01*
X0150952651Y0009193466D01*
X0150947305Y0009184703D01*
X0150939276Y0009178305D01*
X0150926381Y0009151572D01*
X0150920848Y0009141410D01*
X0150920703Y0009141098D01*
X0150916993Y0009135016D01*
X0150914740Y0009128257D01*
X0150911865Y0009122065D01*
X0150910357Y0009118349D01*
X0150905699Y0009108692D01*
X0150899535Y0009095913D01*
X0150899524Y0009083333D01*
X0150898240Y0009078757D01*
X0150896930Y0009074829D01*
X0149519534Y0004942639D01*
X0149479017Y0004884339D01*
X0149413412Y0004857200D01*
X0149343549Y0004869837D01*
G37*
%TD.AperFunction*%
%TD*%
M02*