%
M48
METRIC,000.000
T01C0.40
%
T01
X171751Y093450
X171700Y096699
X169350Y095050
X166300Y093899
X166300Y095850
X161149Y040250
X161050Y036899
X158649Y038550
X155401Y037451
X155401Y039350
X151900Y047100
X151900Y050001
X151900Y053099
X147100Y047100
X147100Y050100
X147100Y053099
X140001Y066351
X139950Y064400
X136749Y065949
X133950Y064349
X133899Y067600
M30