%TF.GenerationSoftware,KiCad,Pcbnew,(6.0.7)*%
%TF.CreationDate,2022-11-21T20:08:05+01:00*%
%TF.ProjectId,Arbolito,4172626f-6c69-4746-9f2e-6b696361645f,rev?*%
%TF.SameCoordinates,Original*%
%TF.FileFunction,Soldermask,Top*%
%TF.FilePolarity,Negative*%
%FSLAX46Y46*%
G04 Gerber Fmt 4.6, Leading zero omitted, Abs format (unit mm)*
G04 Created by KiCad (PCBNEW (6.0.7)) date 2022-11-21 20:08:05*
%MOMM*%
%LPD*%
G01*
G04 APERTURE LIST*
G04 Aperture macros list*
%AMRoundRect*
4,1,4,-3,2,-5,4,-7,6,-9,8,-3,2,0*
1,1,$1,$2,$3*
1,1,$1,$2,$3*
1,1,$1,$2,$3*
1,1,$1,$2,$3*
20,1,$1,$2,$3,$4,$5,90*
20,1,$1,$2,$3,$4,$5,90*
20,1,$1,$2,$3,$4,$5,90*
20,1,$1,$2,$3,$4,$5,90*%
%AMFreePoly0*
4,1,22,0.75,0.49999999999999994,0.75,-0.000000000000000045922738268339147,0.745033,-0.000000000000000045618607280367356,0.743568,-0.07994100000000004,0.701293,-0.21525600000000006,0.622738,-0.33326600000000006,0.514219,-0.42448600000000003,0.38445999999999997,-0.481581,0.24999999999999997,-0.499164,0.24999999999999997,-0.5,-0.25000000000000006,-0.5,-0.25000000000000006,-0.499164,-0.25610900000000003,-0.499963,-0.39618600000000004,-0.478152,-0.524511,-0.41790399999999994,-0.630769,-0.32405999999999996,-0.706417,-0.20416499999999996,-0.745374,-0.06785799999999996,-0.744959,0.000000000000000045614076236858221,-0.75,0.000000000000000045922738268339147,-0.75,0.5,0.75,0.49999999999999994,0.75,0.49999999999999994,0*%
%AMFreePoly1*
4,1,20,-0.744959,0.000000000000000045614076236858221,-0.744508,0.07390500000000004,-0.703889,0.20972600000000005,-0.626782,0.32868800000000004,-0.519385,0.42122600000000004,-0.39033299999999993,0.479903,-0.24999999999999997,0.5,0.25000000000000006,0.5,0.26221600000000006,0.499851,0.40201700000000007,0.476331,0.529596,0.41451899999999997,0.6347,0.31938399999999995,0.708877,0.19857399999999994,0.746166,0.061800999999999953,0.745033,-0.000000000000000045618607280367356,0.75,-0.000000000000000045922738268339147,0.75,-0.5,-0.75,-0.49999999999999994,-0.75,0.000000000000000045922738268339147,-0.744959,0.000000000000000045614076236858221,-0.744959,0.000000000000000045614076236858221,0*%
G04 Aperture macros list end*
%ADD10C,0.15*%
%AMCOMP17*
4,1,3,
-0.25000000000000006,-0.475,
0.24999999999999997,-0.475,
0.25000000000000006,0.475,
-0.24999999999999997,0.475,
0*
4,1,19,
-0.5,-0.47499999999999992,
-0.48776412907378841,-0.39774575140626306,
-0.45225424859373686,-0.32805368692688169,
-0.39694631307311828,-0.27274575140626311,
-0.32725424859373686,-0.23723587092621157,
-0.25,-0.22499999999999995,
-0.17274575140626319,-0.23723587092621157,
-0.10305368692688176,-0.27274575140626311,
-0.047745751406263186,-0.32805368692688164,
-0.012235870926211641,-0.39774575140626311,
-0.000000000000000029084400903281456,-0.47499999999999992,
-0.01223587092621165,-0.552254248593737,
-0.047745751406263144,-0.62194631307311821,
-0.10305368692688173,-0.67725424859373684,
-0.17274575140626316,-0.71276412907378839,
-0.25,-0.725,
-0.32725424859373686,-0.71276412907378839,
-0.39694631307311828,-0.67725424859373684,
-0.45225424859373692,-0.62194631307311832,
-0.48776412907378847,-0.55225424859373684,
0*
4,1,19,
-0.000000000000000029084400903281456,-0.475,
0.012235870926211593,-0.39774575140626311,
0.047745751406263116,-0.32805368692688169,
0.1030536869268817,-0.27274575140626311,
0.17274575140626311,-0.2372358709262116,
0.24999999999999997,-0.225,
0.32725424859373686,-0.2372358709262116,
0.39694631307311823,-0.27274575140626311,
0.45225424859373686,-0.32805368692688164,
0.48776412907378841,-0.39774575140626317,
0.49999999999999994,-0.475,
0.48776412907378836,-0.552254248593737,
0.45225424859373681,-0.62194631307311821,
0.39694631307311828,-0.67725424859373684,
0.32725424859373681,-0.71276412907378839,
0.25,-0.725,
0.17274575140626314,-0.71276412907378839,
0.10305368692688173,-0.67725424859373684,
0.04774575140626313,-0.62194631307311832,
0.012235870926211584,-0.55225424859373684,
0*
4,1,19,
0.000000000000000029084400903281456,0.475,
0.01223587092621165,0.55225424859373684,
0.047745751406263172,0.62194631307311821,
0.10305368692688176,0.67725424859373684,
0.17274575140626319,0.71276412907378839,
0.25,0.725,
0.32725424859373692,0.71276412907378839,
0.39694631307311828,0.67725424859373684,
0.45225424859373692,0.62194631307311832,
0.48776412907378847,0.55225424859373684,
0.5,0.475,
0.48776412907378841,0.397745751406263,
0.45225424859373686,0.32805368692688175,
0.39694631307311834,0.27274575140626311,
0.32725424859373686,0.23723587092621157,
0.25000000000000006,0.22499999999999995,
0.17274575140626322,0.23723587092621157,
0.10305368692688179,0.27274575140626311,
0.047745751406263186,0.32805368692688164,
0.012235870926211641,0.39774575140626306,
0*
4,1,19,
-0.49999999999999994,0.47500000000000003,
-0.48776412907378836,0.55225424859373684,
-0.45225424859373681,0.62194631307311821,
-0.39694631307311823,0.67725424859373684,
-0.32725424859373681,0.71276412907378839,
-0.24999999999999994,0.725,
-0.17274575140626311,0.71276412907378839,
-0.1030536869268817,0.67725424859373684,
-0.04774575140626313,0.62194631307311832,
-0.012235870926211584,0.55225424859373684,
0.000000000000000029084400903281462,0.47500000000000003,
-0.012235870926211593,0.39774575140626306,
-0.047745751406263089,0.32805368692688175,
-0.10305368692688167,0.27274575140626311,
-0.17274575140626308,0.2372358709262116,
-0.24999999999999994,0.225,
-0.32725424859373681,0.2372358709262116,
-0.39694631307311823,0.27274575140626311,
-0.45225424859373686,0.32805368692688164,
-0.48776412907378841,0.39774575140626311,
0*
4,1,3,
-0.25000000000000006,-0.725,
-0.24999999999999997,-0.22499999999999995,
0.25,-0.225,
0.24999999999999992,-0.725,
0*
4,1,3,
0.49999999999999994,-0.47500000000000003,
-0.000000000000000029084400903281456,-0.475,
0.000000000000000029084400903281456,0.475,
0.5,0.47499999999999992,
0*
4,1,3,
0.25000000000000006,0.725,
0.24999999999999997,0.22499999999999995,
-0.25,0.225,
-0.24999999999999992,0.725,
0*
4,1,3,
-0.49999999999999994,0.47500000000000003,
0.000000000000000029084400903281456,0.475,
-0.000000000000000029084400903281456,-0.475,
-0.5,-0.47499999999999992,
0*%
%ADD11COMP17,0.25X-0.475X0.25X-0.475X-0.25X0.475X-0.25X0.475X0.25X0*%
%AMCOMP18*
4,1,3,
-0.35,-0.45,
0.35,-0.45,
0.35,0.45,
-0.35,0.45,
0*
4,1,19,
-0.6,-0.44999999999999996,
-0.58776412907378839,-0.37274575140626309,
-0.55225424859373684,-0.30305368692688167,
-0.49694631307311826,-0.24774575140626312,
-0.42725424859373684,-0.2122358709262116,
-0.35,-0.19999999999999998,
-0.27274575140626311,-0.21223587092621157,
-0.20305368692688175,-0.24774575140626315,
-0.14774575140626317,-0.30305368692688173,
-0.11223587092621162,-0.37274575140626315,
-0.1,-0.44999999999999996,
-0.11223587092621162,-0.52725424859373693,
-0.14774575140626311,-0.5969463130731183,
-0.20305368692688169,-0.65225424859373682,
-0.27274575140626317,-0.68776412907378837,
-0.35,-0.7,
-0.42725424859373684,-0.68776412907378837,
-0.49694631307311826,-0.65225424859373693,
-0.55225424859373684,-0.5969463130731183,
-0.58776412907378839,-0.52725424859373693,
0*
4,1,19,
0.09999999999999995,-0.45,
0.11223587092621157,-0.37274575140626315,
0.14774575140626309,-0.30305368692688173,
0.20305368692688167,-0.24774575140626315,
0.27274575140626311,-0.21223587092621166,
0.35,-0.20000000000000004,
0.42725424859373684,-0.21223587092621163,
0.49694631307311821,-0.24774575140626318,
0.55225424859373684,-0.30305368692688178,
0.58776412907378839,-0.3727457514062632,
0.6,-0.45,
0.58776412907378839,-0.52725424859373693,
0.55225424859373684,-0.5969463130731183,
0.49694631307311826,-0.65225424859373682,
0.42725424859373679,-0.68776412907378837,
0.35,-0.7,
0.27274575140626311,-0.68776412907378837,
0.20305368692688172,-0.65225424859373693,
0.14774575140626311,-0.5969463130731183,
0.11223587092621157,-0.52725424859373693,
0*
4,1,19,
0.1,0.45,
0.11223587092621162,0.52725424859373682,
0.14774575140626314,0.5969463130731183,
0.20305368692688172,0.65225424859373682,
0.27274575140626317,0.68776412907378837,
0.35000000000000003,0.7,
0.4272542485937369,0.68776412907378837,
0.49694631307311826,0.65225424859373682,
0.55225424859373684,0.5969463130731183,
0.58776412907378839,0.52725424859373693,
0.6,0.45,
0.58776412907378839,0.37274575140626304,
0.55225424859373684,0.30305368692688167,
0.49694631307311832,0.24774575140626315,
0.42725424859373684,0.2122358709262116,
0.35000000000000003,0.19999999999999998,
0.27274575140626317,0.21223587092621157,
0.20305368692688178,0.24774575140626312,
0.14774575140626317,0.30305368692688167,
0.11223587092621162,0.37274575140626309,
0*
4,1,19,
-0.6,0.45000000000000007,
-0.58776412907378839,0.52725424859373682,
-0.55225424859373684,0.5969463130731183,
-0.49694631307311821,0.65225424859373682,
-0.42725424859373679,0.68776412907378837,
-0.34999999999999992,0.7,
-0.27274575140626306,0.68776412907378837,
-0.20305368692688169,0.65225424859373682,
-0.14774575140626311,0.5969463130731183,
-0.11223587092621157,0.52725424859373693,
-0.09999999999999995,0.45000000000000007,
-0.11223587092621157,0.37274575140626309,
-0.14774575140626306,0.30305368692688173,
-0.20305368692688164,0.24774575140626318,
-0.27274575140626311,0.21223587092621166,
-0.34999999999999992,0.20000000000000004,
-0.42725424859373679,0.21223587092621163,
-0.49694631307311821,0.24774575140626315,
-0.55225424859373684,0.30305368692688173,
-0.58776412907378839,0.37274575140626315,
0*
4,1,3,
-0.35000000000000003,-0.7,
-0.35,-0.19999999999999998,
0.35,-0.20000000000000004,
0.34999999999999992,-0.7,
0*
4,1,3,
0.6,-0.45000000000000007,
0.09999999999999995,-0.45,
0.1,0.45,
0.6,0.44999999999999996,
0*
4,1,3,
0.35000000000000003,0.7,
0.35,0.19999999999999998,
-0.35,0.20000000000000004,
-0.34999999999999992,0.7,
0*
4,1,3,
-0.6,0.45000000000000007,
-0.09999999999999995,0.45,
-0.1,-0.45,
-0.6,-0.44999999999999996,
0*%
%ADD12COMP18,0.25X-0.45X0.35X-0.45X-0.35X0.45X-0.35X0.45X0.35X0*%
%ADD13C,3.2*%
%AMCOMP19*
4,1,3,
-0.45625,0.24375000000000002,
-0.45625,-0.24374999999999997,
0.45625,-0.24375000000000002,
0.45625,0.24374999999999997,
0*
4,1,19,
-0.7,0.24375000000000005,
-0.68807002584694366,0.31907289237889347,
-0.65344789237889345,0.38702265524629037,
-0.59952265524629034,0.44094789237889348,
-0.53157289237889338,0.47557002584694369,
-0.45624999999999993,0.48750000000000004,
-0.38092710762110654,0.47557002584694369,
-0.3129773447537097,0.44094789237889342,
-0.25905210762110659,0.38702265524629031,
-0.22442997415305629,0.31907289237889347,
-0.21249999999999997,0.24375000000000002,
-0.22442997415305632,0.16842710762110649,
-0.25905210762110653,0.10047734475370972,
-0.31297734475370964,0.046552107621106613,
-0.38092710762110654,0.01192997415305635,
-0.45624999999999993,0.000000000000000027936332446572976,
-0.53157289237889338,0.011929974153056333,
-0.59952265524629023,0.046552107621106571,
-0.65344789237889334,0.10047734475370966,
-0.68807002584694366,0.16842710762110658,
0*
4,1,19,
-0.7,-0.24374999999999994,
-0.68807002584694366,-0.16842710762110652,
-0.65344789237889345,-0.10047734475370963,
-0.59952265524629034,-0.04655210762110653,
-0.53157289237889338,-0.011929974153056295,
-0.45625,0.000000000000000027936332446572982,
-0.3809271076211066,-0.011929974153056277,
-0.3129773447537097,-0.046552107621106543,
-0.25905210762110659,-0.10047734475370963,
-0.22442997415305632,-0.16842710762110655,
-0.21250000000000002,-0.24374999999999997,
-0.22442997415305635,-0.31907289237889347,
-0.25905210762110653,-0.38702265524629031,
-0.31297734475370964,-0.44094789237889342,
-0.3809271076211066,-0.47557002584694363,
-0.45625,-0.48749999999999993,
-0.53157289237889338,-0.47557002584694363,
-0.59952265524629023,-0.44094789237889337,
-0.65344789237889334,-0.38702265524629031,
-0.68807002584694366,-0.31907289237889341,
0*
4,1,19,
0.21249999999999997,-0.24375,
0.22442997415305632,-0.16842710762110658,
0.25905210762110653,-0.10047734475370969,
0.31297734475370964,-0.046552107621106585,
0.38092710762110654,-0.01192997415305635,
0.45625,-0.000000000000000027936332446572982,
0.53157289237889338,-0.011929974153056333,
0.59952265524629023,-0.0465521076211066,
0.65344789237889334,-0.10047734475370969,
0.68807002584694366,-0.1684271076211066,
0.7,-0.24375000000000002,
0.68807002584694366,-0.31907289237889352,
0.65344789237889345,-0.38702265524629037,
0.59952265524629034,-0.44094789237889348,
0.53157289237889349,-0.47557002584694369,
0.45625,-0.48750000000000004,
0.38092710762110654,-0.47557002584694369,
0.31297734475370975,-0.44094789237889342,
0.25905210762110659,-0.38702265524629037,
0.22442997415305629,-0.31907289237889347,
0*
4,1,19,
0.21250000000000002,0.24375,
0.22442997415305635,0.31907289237889341,
0.25905210762110653,0.38702265524629031,
0.31297734475370964,0.44094789237889342,
0.3809271076211066,0.47557002584694363,
0.45625000000000004,0.48749999999999993,
0.53157289237889338,0.47557002584694363,
0.59952265524629023,0.44094789237889337,
0.65344789237889334,0.38702265524629026,
0.68807002584694366,0.31907289237889341,
0.7,0.24374999999999997,
0.68807002584694366,0.16842710762110644,
0.65344789237889345,0.10047734475370966,
0.59952265524629034,0.046552107621106557,
0.53157289237889349,0.011929974153056295,
0.45625000000000004,-0.000000000000000027936332446572982,
0.3809271076211066,0.011929974153056277,
0.31297734475370975,0.046552107621106516,
0.25905210762110659,0.1004773447537096,
0.22442997415305632,0.16842710762110652,
0*
4,1,3,
-0.7,0.24375000000000008,
-0.21249999999999997,0.24374999999999997,
-0.21250000000000002,-0.24375000000000002,
-0.7,-0.24374999999999991,
0*
4,1,3,
-0.45625000000000004,-0.48749999999999993,
-0.45625,0.000000000000000027936332446572982,
0.45625,-0.000000000000000027936332446572982,
0.45624999999999993,-0.48750000000000004,
0*
4,1,3,
0.7,-0.24375000000000008,
0.21249999999999997,-0.24374999999999997,
0.21250000000000002,0.24375000000000002,
0.7,0.24374999999999991,
0*
4,1,3,
0.45625000000000004,0.48749999999999993,
0.45625,-0.000000000000000027936332446572982,
-0.45625,0.000000000000000027936332446572982,
-0.45624999999999993,0.48750000000000004,
0*%
%ADD14COMP19,0.24375X0.24375X0.45625X-0.24375X0.45625X-0.24375X-0.45625X0.24375X-0.45625X0*%
%AMCOMP20*
4,1,3,
0.25000000000000006,0.475,
-0.24999999999999997,0.475,
-0.25000000000000006,-0.475,
0.24999999999999997,-0.475,
0*
4,1,19,
0.000000000000000029084400903281456,0.475,
0.01223587092621165,0.55225424859373684,
0.047745751406263172,0.62194631307311821,
0.10305368692688176,0.67725424859373684,
0.17274575140626319,0.71276412907378839,
0.25,0.725,
0.32725424859373692,0.71276412907378839,
0.39694631307311828,0.67725424859373684,
0.45225424859373692,0.62194631307311832,
0.48776412907378847,0.55225424859373684,
0.5,0.475,
0.48776412907378841,0.397745751406263,
0.45225424859373686,0.32805368692688175,
0.39694631307311834,0.27274575140626311,
0.32725424859373686,0.23723587092621157,
0.25000000000000006,0.22499999999999995,
0.17274575140626322,0.23723587092621157,
0.10305368692688179,0.27274575140626311,
0.047745751406263186,0.32805368692688164,
0.012235870926211641,0.39774575140626306,
0*
4,1,19,
-0.49999999999999994,0.47500000000000003,
-0.48776412907378836,0.55225424859373684,
-0.45225424859373681,0.62194631307311821,
-0.39694631307311823,0.67725424859373684,
-0.32725424859373681,0.71276412907378839,
-0.24999999999999994,0.725,
-0.17274575140626311,0.71276412907378839,
-0.1030536869268817,0.67725424859373684,
-0.04774575140626313,0.62194631307311832,
-0.012235870926211584,0.55225424859373684,
0.000000000000000029084400903281462,0.47500000000000003,
-0.012235870926211593,0.39774575140626306,
-0.047745751406263089,0.32805368692688175,
-0.10305368692688167,0.27274575140626311,
-0.17274575140626308,0.2372358709262116,
-0.24999999999999994,0.225,
-0.32725424859373681,0.2372358709262116,
-0.39694631307311823,0.27274575140626311,
-0.45225424859373686,0.32805368692688164,
-0.48776412907378841,0.39774575140626311,
0*
4,1,19,
-0.5,-0.47499999999999992,
-0.48776412907378841,-0.39774575140626306,
-0.45225424859373686,-0.32805368692688169,
-0.39694631307311828,-0.27274575140626311,
-0.32725424859373686,-0.23723587092621157,
-0.25,-0.22499999999999995,
-0.17274575140626319,-0.23723587092621157,
-0.10305368692688176,-0.27274575140626311,
-0.047745751406263186,-0.32805368692688164,
-0.012235870926211641,-0.39774575140626311,
-0.000000000000000029084400903281456,-0.47499999999999992,
-0.01223587092621165,-0.552254248593737,
-0.047745751406263144,-0.62194631307311821,
-0.10305368692688173,-0.67725424859373684,
-0.17274575140626316,-0.71276412907378839,
-0.25,-0.725,
-0.32725424859373686,-0.71276412907378839,
-0.39694631307311828,-0.67725424859373684,
-0.45225424859373692,-0.62194631307311832,
-0.48776412907378847,-0.55225424859373684,
0*
4,1,19,
-0.000000000000000029084400903281456,-0.475,
0.012235870926211593,-0.39774575140626311,
0.047745751406263116,-0.32805368692688169,
0.1030536869268817,-0.27274575140626311,
0.17274575140626311,-0.2372358709262116,
0.24999999999999997,-0.225,
0.32725424859373686,-0.2372358709262116,
0.39694631307311823,-0.27274575140626311,
0.45225424859373686,-0.32805368692688164,
0.48776412907378841,-0.39774575140626317,
0.49999999999999994,-0.475,
0.48776412907378836,-0.552254248593737,
0.45225424859373681,-0.62194631307311821,
0.39694631307311828,-0.67725424859373684,
0.32725424859373681,-0.71276412907378839,
0.25,-0.725,
0.17274575140626314,-0.71276412907378839,
0.10305368692688173,-0.67725424859373684,
0.04774575140626313,-0.62194631307311832,
0.012235870926211584,-0.55225424859373684,
0*
4,1,3,
0.25000000000000006,0.725,
0.24999999999999997,0.22499999999999995,
-0.25,0.225,
-0.24999999999999992,0.725,
0*
4,1,3,
-0.49999999999999994,0.47500000000000003,
0.000000000000000029084400903281456,0.475,
-0.000000000000000029084400903281456,-0.475,
-0.5,-0.47499999999999992,
0*
4,1,3,
-0.25000000000000006,-0.725,
-0.24999999999999997,-0.22499999999999995,
0.25,-0.225,
0.24999999999999992,-0.725,
0*
4,1,3,
0.49999999999999994,-0.47500000000000003,
-0.000000000000000029084400903281456,-0.475,
0.000000000000000029084400903281456,0.475,
0.5,0.47499999999999992,
0*%
%ADD15COMP20,0.25X0.475X-0.25X0.475X0.25X-0.475X0.25X-0.475X-0.25X0*%
%AMCOMP21*
4,1,3,
-0.45,0.35,
-0.45,-0.35,
0.45,-0.35,
0.45,0.35,
0*
4,1,19,
-0.7,0.35000000000000003,
-0.68776412907378837,0.4272542485937369,
-0.65225424859373682,0.49694631307311832,
-0.5969463130731183,0.55225424859373684,
-0.52725424859373682,0.58776412907378839,
-0.44999999999999996,0.6,
-0.37274575140626315,0.58776412907378839,
-0.30305368692688167,0.55225424859373684,
-0.24774575140626315,0.49694631307311832,
-0.2122358709262116,0.42725424859373684,
-0.19999999999999998,0.35000000000000003,
-0.2122358709262116,0.27274575140626306,
-0.24774575140626312,0.20305368692688175,
-0.30305368692688173,0.14774575140626317,
-0.37274575140626309,0.11223587092621162,
-0.44999999999999996,0.1,
-0.52725424859373682,0.1122358709262116,
-0.5969463130731183,0.14774575140626311,
-0.65225424859373682,0.20305368692688167,
-0.68776412907378837,0.27274575140626311,
0*
4,1,19,
-0.7,-0.34999999999999992,
-0.68776412907378837,-0.27274575140626306,
-0.65225424859373682,-0.20305368692688167,
-0.5969463130731183,-0.14774575140626309,
-0.52725424859373682,-0.11223587092621157,
-0.45,-0.09999999999999995,
-0.3727457514062632,-0.11223587092621154,
-0.30305368692688173,-0.14774575140626309,
-0.24774575140626318,-0.20305368692688164,
-0.21223587092621166,-0.27274575140626311,
-0.20000000000000004,-0.34999999999999992,
-0.21223587092621166,-0.4272542485937369,
-0.24774575140626315,-0.49694631307311821,
-0.30305368692688178,-0.55225424859373684,
-0.37274575140626315,-0.58776412907378839,
-0.45,-0.6,
-0.52725424859373682,-0.58776412907378839,
-0.5969463130731183,-0.55225424859373684,
-0.65225424859373682,-0.49694631307311826,
-0.68776412907378837,-0.42725424859373684,
0*
4,1,19,
0.19999999999999998,-0.35,
0.2122358709262116,-0.27274575140626311,
0.24774575140626315,-0.20305368692688172,
0.30305368692688173,-0.14774575140626314,
0.37274575140626315,-0.11223587092621162,
0.45,-0.1,
0.52725424859373682,-0.1122358709262116,
0.5969463130731183,-0.14774575140626314,
0.65225424859373682,-0.20305368692688169,
0.68776412907378837,-0.27274575140626317,
0.7,-0.35,
0.68776412907378837,-0.42725424859373695,
0.65225424859373693,-0.49694631307311826,
0.5969463130731183,-0.55225424859373684,
0.52725424859373693,-0.58776412907378839,
0.45,-0.6,
0.37274575140626315,-0.58776412907378839,
0.30305368692688173,-0.55225424859373684,
0.24774575140626315,-0.49694631307311832,
0.2122358709262116,-0.4272542485937369,
0*
4,1,19,
0.20000000000000004,0.35,
0.21223587092621166,0.42725424859373684,
0.24774575140626318,0.49694631307311826,
0.30305368692688178,0.55225424859373684,
0.3727457514062632,0.58776412907378839,
0.45000000000000007,0.6,
0.52725424859373682,0.58776412907378839,
0.5969463130731183,0.55225424859373684,
0.65225424859373682,0.49694631307311826,
0.68776412907378837,0.42725424859373679,
0.7,0.35,
0.68776412907378837,0.272745751406263,
0.65225424859373693,0.20305368692688169,
0.5969463130731183,0.14774575140626311,
0.52725424859373693,0.11223587092621157,
0.45000000000000007,0.09999999999999995,
0.3727457514062632,0.11223587092621154,
0.30305368692688178,0.14774575140626306,
0.24774575140626318,0.20305368692688161,
0.21223587092621166,0.27274575140626306,
0*
4,1,3,
-0.7,0.35000000000000003,
-0.19999999999999998,0.35,
-0.20000000000000004,-0.35,
-0.7,-0.34999999999999992,
0*
4,1,3,
-0.45000000000000007,-0.6,
-0.45,-0.09999999999999995,
0.45,-0.1,
0.44999999999999996,-0.6,
0*
4,1,3,
0.7,-0.35000000000000003,
0.19999999999999998,-0.35,
0.20000000000000004,0.35,
0.7,0.34999999999999992,
0*
4,1,3,
0.45000000000000007,0.6,
0.45,0.09999999999999995,
-0.45,0.1,
-0.44999999999999996,0.6,
0*%
%ADD16COMP21,0.25X0.35X0.45X-0.35X0.45X-0.35X-0.45X0.35X-0.45X0*%
%AMCOMP22*
4,1,3,
0.35,0.45,
-0.35,0.45,
-0.35,-0.45,
0.35,-0.45,
0*
4,1,19,
0.1,0.45,
0.11223587092621162,0.52725424859373682,
0.14774575140626314,0.5969463130731183,
0.20305368692688172,0.65225424859373682,
0.27274575140626317,0.68776412907378837,
0.35000000000000003,0.7,
0.4272542485937369,0.68776412907378837,
0.49694631307311826,0.65225424859373682,
0.55225424859373684,0.5969463130731183,
0.58776412907378839,0.52725424859373693,
0.6,0.45,
0.58776412907378839,0.37274575140626304,
0.55225424859373684,0.30305368692688167,
0.49694631307311832,0.24774575140626315,
0.42725424859373684,0.2122358709262116,
0.35000000000000003,0.19999999999999998,
0.27274575140626317,0.21223587092621157,
0.20305368692688178,0.24774575140626312,
0.14774575140626317,0.30305368692688167,
0.11223587092621162,0.37274575140626309,
0*
4,1,19,
-0.6,0.45000000000000007,
-0.58776412907378839,0.52725424859373682,
-0.55225424859373684,0.5969463130731183,
-0.49694631307311821,0.65225424859373682,
-0.42725424859373679,0.68776412907378837,
-0.34999999999999992,0.7,
-0.27274575140626306,0.68776412907378837,
-0.20305368692688169,0.65225424859373682,
-0.14774575140626311,0.5969463130731183,
-0.11223587092621157,0.52725424859373693,
-0.09999999999999995,0.45000000000000007,
-0.11223587092621157,0.37274575140626309,
-0.14774575140626306,0.30305368692688173,
-0.20305368692688164,0.24774575140626318,
-0.27274575140626311,0.21223587092621166,
-0.34999999999999992,0.20000000000000004,
-0.42725424859373679,0.21223587092621163,
-0.49694631307311821,0.24774575140626315,
-0.55225424859373684,0.30305368692688173,
-0.58776412907378839,0.37274575140626315,
0*
4,1,19,
-0.6,-0.44999999999999996,
-0.58776412907378839,-0.37274575140626309,
-0.55225424859373684,-0.30305368692688167,
-0.49694631307311826,-0.24774575140626312,
-0.42725424859373684,-0.2122358709262116,
-0.35,-0.19999999999999998,
-0.27274575140626311,-0.21223587092621157,
-0.20305368692688175,-0.24774575140626315,
-0.14774575140626317,-0.30305368692688173,
-0.11223587092621162,-0.37274575140626315,
-0.1,-0.44999999999999996,
-0.11223587092621162,-0.52725424859373693,
-0.14774575140626311,-0.5969463130731183,
-0.20305368692688169,-0.65225424859373682,
-0.27274575140626317,-0.68776412907378837,
-0.35,-0.7,
-0.42725424859373684,-0.68776412907378837,
-0.49694631307311826,-0.65225424859373693,
-0.55225424859373684,-0.5969463130731183,
-0.58776412907378839,-0.52725424859373693,
0*
4,1,19,
0.09999999999999995,-0.45,
0.11223587092621157,-0.37274575140626315,
0.14774575140626309,-0.30305368692688173,
0.20305368692688167,-0.24774575140626315,
0.27274575140626311,-0.21223587092621166,
0.35,-0.20000000000000004,
0.42725424859373684,-0.21223587092621163,
0.49694631307311821,-0.24774575140626318,
0.55225424859373684,-0.30305368692688178,
0.58776412907378839,-0.3727457514062632,
0.6,-0.45,
0.58776412907378839,-0.52725424859373693,
0.55225424859373684,-0.5969463130731183,
0.49694631307311826,-0.65225424859373682,
0.42725424859373679,-0.68776412907378837,
0.35,-0.7,
0.27274575140626311,-0.68776412907378837,
0.20305368692688172,-0.65225424859373693,
0.14774575140626311,-0.5969463130731183,
0.11223587092621157,-0.52725424859373693,
0*
4,1,3,
0.35000000000000003,0.7,
0.35,0.19999999999999998,
-0.35,0.20000000000000004,
-0.34999999999999992,0.7,
0*
4,1,3,
-0.6,0.45000000000000007,
-0.09999999999999995,0.45,
-0.1,-0.45,
-0.6,-0.44999999999999996,
0*
4,1,3,
-0.35000000000000003,-0.7,
-0.35,-0.19999999999999998,
0.35,-0.20000000000000004,
0.34999999999999992,-0.7,
0*
4,1,3,
0.6,-0.45000000000000007,
0.09999999999999995,-0.45,
0.1,0.45,
0.6,0.44999999999999996,
0*%
%ADD17COMP22,0.25X0.45X-0.35X0.45X0.35X-0.45X0.35X-0.45X-0.35X0*%
%ADD18C,0.9*%
%ADD19R,1X1.6*%
%AMCOMP23*
4,1,21,
0.75,0.49999999999999994,
0.75,-0.000000000000000045922738268339147,
0.745033,-0.000000000000000045618607280367356,
0.743568,-0.07994100000000004,
0.701293,-0.21525600000000006,
0.622738,-0.33326600000000006,
0.514219,-0.42448600000000003,
0.38445999999999997,-0.481581,
0.24999999999999997,-0.499164,
0.24999999999999997,-0.5,
-0.25000000000000006,-0.5,
-0.25000000000000006,-0.499164,
-0.25610900000000003,-0.499963,
-0.39618600000000004,-0.478152,
-0.524511,-0.41790399999999994,
-0.630769,-0.32405999999999996,
-0.706417,-0.20416499999999996,
-0.745374,-0.06785799999999996,
-0.744959,0.000000000000000045614076236858221,
-0.75,0.000000000000000045922738268339147,
-0.75,0.5,
0.75,0.49999999999999994,
0*%
%ADD20COMP23,0*%
%AMCOMP24*
4,1,19,
-0.744959,0.000000000000000045614076236858221,
-0.744508,0.07390500000000004,
-0.703889,0.20972600000000005,
-0.626782,0.32868800000000004,
-0.519385,0.42122600000000004,
-0.39033299999999993,0.479903,
-0.24999999999999997,0.5,
0.25000000000000006,0.5,
0.26221600000000006,0.499851,
0.40201700000000007,0.476331,
0.529596,0.41451899999999997,
0.6347,0.31938399999999995,
0.708877,0.19857399999999994,
0.746166,0.061800999999999953,
0.745033,-0.000000000000000045618607280367356,
0.75,-0.000000000000000045922738268339147,
0.75,-0.5,
-0.75,-0.49999999999999994,
-0.75,0.000000000000000045922738268339147,
-0.744959,0.000000000000000045614076236858221,
0*%
%ADD21COMP24,0*%
%AMCOMP25*
4,1,3,
0.5875,0.14999999999999997,
-0.5875,0.15000000000000002,
-0.5875,-0.14999999999999997,
0.5875,-0.15000000000000002,
0*
4,1,19,
0.4375,0.14999999999999997,
0.444841522555727,0.19635254915624209,
0.46614745084375792,0.23816778784387094,
0.49933221215612905,0.271352549156242,
0.54114745084375793,0.29265847744427292,
0.5875,0.29999999999999993,
0.63385254915624212,0.292658477444273,
0.67566778784387094,0.271352549156242,
0.70885254915624207,0.23816778784387094,
0.73015847744427309,0.19635254915624206,
0.7375,0.14999999999999997,
0.73015847744427309,0.1036474508437578,
0.70885254915624218,0.061832212156128996,
0.675667787843871,0.02864745084375786,
0.63385254915624212,0.0073415225557269424,
0.5875,-0.000000000000000035972811643532336,
0.54114745084375793,0.0073415225557269207,
0.49933221215612911,0.028647450843757829,
0.46614745084375792,0.061832212156128968,
0.444841522555727,0.10364745084375782,
0*
4,1,19,
-0.7375,0.15000000000000005,
-0.73015847744427309,0.19635254915624217,
-0.70885254915624207,0.23816778784387102,
-0.675667787843871,0.27135254915624213,
-0.63385254915624212,0.29265847744427304,
-0.5875,0.30000000000000004,
-0.54114745084375793,0.29265847744427309,
-0.49933221215612905,0.27135254915624213,
-0.46614745084375792,0.23816778784387102,
-0.444841522555727,0.19635254915624215,
-0.4375,0.15000000000000005,
-0.444841522555727,0.10364745084375787,
-0.46614745084375786,0.061832212156129066,
-0.49933221215612905,0.028647450843757933,
-0.54114745084375793,0.0073415225557270144,
-0.5875,0.000000000000000035972811643532336,
-0.63385254915624212,0.0073415225557269927,
-0.67566778784387094,0.0286474508437579,
-0.70885254915624207,0.061832212156129038,
-0.73015847744427309,0.10364745084375789,
0*
4,1,19,
-0.7375,-0.14999999999999994,
-0.73015847744427309,-0.10364745084375784,
-0.70885254915624207,-0.061832212156128982,
-0.675667787843871,-0.028647450843757846,
-0.63385254915624212,-0.0073415225557269424,
-0.5875,0.000000000000000035972811643532336,
-0.54114745084375793,-0.0073415225557269207,
-0.49933221215612905,-0.028647450843757857,
-0.46614745084375792,-0.061832212156128982,
-0.444841522555727,-0.10364745084375784,
-0.4375,-0.14999999999999994,
-0.444841522555727,-0.19635254915624212,
-0.46614745084375786,-0.23816778784387091,
-0.49933221215612905,-0.271352549156242,
-0.54114745084375793,-0.29265847744427292,
-0.5875,-0.29999999999999993,
-0.63385254915624212,-0.292658477444273,
-0.67566778784387094,-0.27135254915624207,
-0.70885254915624207,-0.23816778784387094,
-0.73015847744427309,-0.19635254915624209,
0*
4,1,19,
0.4375,-0.15000000000000002,
0.444841522555727,-0.10364745084375791,
0.46614745084375792,-0.061832212156129052,
0.49933221215612905,-0.028647450843757919,
0.54114745084375793,-0.0073415225557270144,
0.5875,-0.000000000000000035972811643532336,
0.63385254915624212,-0.0073415225557269927,
0.67566778784387094,-0.028647450843757929,
0.70885254915624207,-0.061832212156129052,
0.73015847744427309,-0.10364745084375791,
0.7375,-0.15000000000000002,
0.73015847744427309,-0.1963525491562422,
0.70885254915624218,-0.238167787843871,
0.675667787843871,-0.27135254915624213,
0.63385254915624212,-0.29265847744427304,
0.5875,-0.30000000000000004,
0.54114745084375793,-0.29265847744427309,
0.49933221215612911,-0.27135254915624218,
0.46614745084375792,-0.23816778784387102,
0.444841522555727,-0.19635254915624217,
0*
4,1,3,
0.5875,0.29999999999999993,
0.5875,-0.000000000000000035972811643532336,
-0.5875,0.000000000000000035972811643532336,
-0.5875,0.30000000000000004,
0*
4,1,3,
-0.7375,0.15000000000000005,
-0.4375,0.15000000000000002,
-0.4375,-0.14999999999999997,
-0.7375,-0.14999999999999994,
0*
4,1,3,
-0.5875,-0.29999999999999993,
-0.5875,0.000000000000000035972811643532336,
0.5875,-0.000000000000000035972811643532336,
0.5875,-0.30000000000000004,
0*
4,1,3,
0.7375,-0.15000000000000005,
0.4375,-0.15000000000000002,
0.4375,0.14999999999999997,
0.7375,0.14999999999999994,
0*%
%ADD22COMP25,0.15X0.15X-0.5875X0.15X0.5875X-0.15X0.5875X-0.15X-0.5875X0*%
%ADD23R,0.8X2.7*%
%AMCOMP26*
4,1,3,
0.475,-0.25000000000000006,
0.475,0.24999999999999997,
-0.475,0.25000000000000006,
-0.475,-0.24999999999999997,
0*
4,1,19,
0.22499999999999995,-0.25,
0.2372358709262116,-0.17274575140626316,
0.27274575140626311,-0.10305368692688173,
0.32805368692688169,-0.047745751406263158,
0.39774575140626311,-0.012235870926211641,
0.475,-0.000000000000000029084400903281456,
0.55225424859373684,-0.012235870926211622,
0.62194631307311821,-0.047745751406263172,
0.67725424859373684,-0.10305368692688173,
0.71276412907378839,-0.17274575140626319,
0.725,-0.25,
0.71276412907378839,-0.327254248593737,
0.67725424859373684,-0.39694631307311828,
0.62194631307311832,-0.45225424859373692,
0.55225424859373684,-0.48776412907378847,
0.475,-0.5,
0.39774575140626311,-0.48776412907378841,
0.32805368692688175,-0.45225424859373686,
0.27274575140626311,-0.39694631307311834,
0.23723587092621157,-0.32725424859373692,
0*
4,1,19,
0.225,0.25,
0.23723587092621162,0.32725424859373686,
0.27274575140626311,0.39694631307311828,
0.32805368692688169,0.45225424859373686,
0.39774575140626317,0.48776412907378841,
0.47500000000000003,0.49999999999999994,
0.55225424859373684,0.48776412907378836,
0.62194631307311821,0.45225424859373681,
0.67725424859373684,0.39694631307311828,
0.71276412907378839,0.32725424859373681,
0.725,0.25,
0.71276412907378839,0.17274575140626303,
0.67725424859373684,0.1030536869268817,
0.62194631307311832,0.04774575140626313,
0.55225424859373684,0.012235870926211584,
0.47500000000000003,-0.000000000000000029084400903281462,
0.39774575140626317,0.012235870926211565,
0.32805368692688175,0.047745751406263089,
0.27274575140626311,0.10305368692688165,
0.2372358709262116,0.17274575140626305,
0*
4,1,19,
-0.725,0.25000000000000006,
-0.71276412907378839,0.32725424859373692,
-0.67725424859373684,0.39694631307311834,
-0.62194631307311821,0.45225424859373692,
-0.55225424859373684,0.48776412907378847,
-0.47499999999999992,0.5,
-0.39774575140626306,0.48776412907378841,
-0.32805368692688175,0.45225424859373686,
-0.27274575140626311,0.39694631307311834,
-0.23723587092621157,0.32725424859373686,
-0.22499999999999995,0.25000000000000006,
-0.2372358709262116,0.17274575140626311,
-0.27274575140626311,0.10305368692688176,
-0.32805368692688164,0.047745751406263186,
-0.39774575140626311,0.012235870926211641,
-0.47499999999999992,0.000000000000000029084400903281456,
-0.55225424859373673,0.012235870926211622,
-0.62194631307311821,0.047745751406263144,
-0.67725424859373684,0.1030536869268817,
-0.71276412907378839,0.17274575140626314,
0*
4,1,19,
-0.725,-0.24999999999999994,
-0.71276412907378839,-0.17274575140626308,
-0.67725424859373684,-0.10305368692688167,
-0.62194631307311821,-0.0477457514062631,
-0.55225424859373684,-0.012235870926211584,
-0.475,0.000000000000000029084400903281456,
-0.39774575140626311,-0.012235870926211565,
-0.32805368692688175,-0.047745751406263116,
-0.27274575140626311,-0.10305368692688167,
-0.2372358709262116,-0.17274575140626311,
-0.225,-0.24999999999999997,
-0.23723587092621162,-0.32725424859373692,
-0.27274575140626311,-0.39694631307311823,
-0.32805368692688164,-0.45225424859373686,
-0.39774575140626317,-0.48776412907378841,
-0.475,-0.49999999999999994,
-0.55225424859373673,-0.48776412907378836,
-0.62194631307311821,-0.45225424859373681,
-0.67725424859373684,-0.39694631307311828,
-0.71276412907378839,-0.32725424859373686,
0*
4,1,3,
0.725,-0.25000000000000006,
0.22499999999999995,-0.24999999999999997,
0.225,0.25,
0.725,0.24999999999999992,
0*
4,1,3,
0.47500000000000003,0.49999999999999994,
0.475,-0.000000000000000029084400903281456,
-0.475,0.000000000000000029084400903281456,
-0.47499999999999992,0.5,
0*
4,1,3,
-0.725,0.25000000000000006,
-0.22499999999999995,0.24999999999999997,
-0.225,-0.25,
-0.725,-0.24999999999999992,
0*
4,1,3,
-0.47500000000000003,-0.49999999999999994,
-0.475,0.000000000000000029084400903281456,
0.475,-0.000000000000000029084400903281456,
0.47499999999999992,-0.5,
0*%
%ADD24COMP26,0.25X-0.25X-0.475X0.25X-0.475X0.25X0.475X-0.25X0.475X0*%
%AMCOMP27*
4,1,3,
0.45,-0.35,
0.45,0.35,
-0.45,0.35,
-0.45,-0.35,
0*
4,1,19,
0.19999999999999998,-0.35,
0.2122358709262116,-0.27274575140626311,
0.24774575140626315,-0.20305368692688172,
0.30305368692688173,-0.14774575140626314,
0.37274575140626315,-0.11223587092621162,
0.45,-0.1,
0.52725424859373682,-0.1122358709262116,
0.5969463130731183,-0.14774575140626314,
0.65225424859373682,-0.20305368692688169,
0.68776412907378837,-0.27274575140626317,
0.7,-0.35,
0.68776412907378837,-0.42725424859373695,
0.65225424859373693,-0.49694631307311826,
0.5969463130731183,-0.55225424859373684,
0.52725424859373693,-0.58776412907378839,
0.45,-0.6,
0.37274575140626315,-0.58776412907378839,
0.30305368692688173,-0.55225424859373684,
0.24774575140626315,-0.49694631307311832,
0.2122358709262116,-0.4272542485937369,
0*
4,1,19,
0.20000000000000004,0.35,
0.21223587092621166,0.42725424859373684,
0.24774575140626318,0.49694631307311826,
0.30305368692688178,0.55225424859373684,
0.3727457514062632,0.58776412907378839,
0.45000000000000007,0.6,
0.52725424859373682,0.58776412907378839,
0.5969463130731183,0.55225424859373684,
0.65225424859373682,0.49694631307311826,
0.68776412907378837,0.42725424859373679,
0.7,0.35,
0.68776412907378837,0.272745751406263,
0.65225424859373693,0.20305368692688169,
0.5969463130731183,0.14774575140626311,
0.52725424859373693,0.11223587092621157,
0.45000000000000007,0.09999999999999995,
0.3727457514062632,0.11223587092621154,
0.30305368692688178,0.14774575140626306,
0.24774575140626318,0.20305368692688161,
0.21223587092621166,0.27274575140626306,
0*
4,1,19,
-0.7,0.35000000000000003,
-0.68776412907378837,0.4272542485937369,
-0.65225424859373682,0.49694631307311832,
-0.5969463130731183,0.55225424859373684,
-0.52725424859373682,0.58776412907378839,
-0.44999999999999996,0.6,
-0.37274575140626315,0.58776412907378839,
-0.30305368692688167,0.55225424859373684,
-0.24774575140626315,0.49694631307311832,
-0.2122358709262116,0.42725424859373684,
-0.19999999999999998,0.35000000000000003,
-0.2122358709262116,0.27274575140626306,
-0.24774575140626312,0.20305368692688175,
-0.30305368692688173,0.14774575140626317,
-0.37274575140626309,0.11223587092621162,
-0.44999999999999996,0.1,
-0.52725424859373682,0.1122358709262116,
-0.5969463130731183,0.14774575140626311,
-0.65225424859373682,0.20305368692688167,
-0.68776412907378837,0.27274575140626311,
0*
4,1,19,
-0.7,-0.34999999999999992,
-0.68776412907378837,-0.27274575140626306,
-0.65225424859373682,-0.20305368692688167,
-0.5969463130731183,-0.14774575140626309,
-0.52725424859373682,-0.11223587092621157,
-0.45,-0.09999999999999995,
-0.3727457514062632,-0.11223587092621154,
-0.30305368692688173,-0.14774575140626309,
-0.24774575140626318,-0.20305368692688164,
-0.21223587092621166,-0.27274575140626311,
-0.20000000000000004,-0.34999999999999992,
-0.21223587092621166,-0.4272542485937369,
-0.24774575140626315,-0.49694631307311821,
-0.30305368692688178,-0.55225424859373684,
-0.37274575140626315,-0.58776412907378839,
-0.45,-0.6,
-0.52725424859373682,-0.58776412907378839,
-0.5969463130731183,-0.55225424859373684,
-0.65225424859373682,-0.49694631307311826,
-0.68776412907378837,-0.42725424859373684,
0*
4,1,3,
0.7,-0.35000000000000003,
0.19999999999999998,-0.35,
0.20000000000000004,0.35,
0.7,0.34999999999999992,
0*
4,1,3,
0.45000000000000007,0.6,
0.45,0.09999999999999995,
-0.45,0.1,
-0.44999999999999996,0.6,
0*
4,1,3,
-0.7,0.35000000000000003,
-0.19999999999999998,0.35,
-0.20000000000000004,-0.35,
-0.7,-0.34999999999999992,
0*
4,1,3,
-0.45000000000000007,-0.6,
-0.45,-0.09999999999999995,
0.45,-0.1,
0.44999999999999996,-0.6,
0*%
%ADD25COMP27,0.25X-0.35X-0.45X0.35X-0.45X0.35X0.45X-0.35X0.45X0*%
%AMCOMP28*
4,1,3,
0.1875,0.087499999999999981,
-0.1875,0.087500000000000008,
-0.1875,-0.087499999999999981,
0.1875,-0.087500000000000008,
0*
4,1,19,
0.1,0.0875,
0.10428255482417409,0.11453898700780789,
0.11671101299219212,0.13893120957559141,
0.13606879042440861,0.15828898700780789,
0.16046101299219209,0.17071744517582593,
0.1875,0.175,
0.21453898700780788,0.17071744517582593,
0.23893120957559139,0.15828898700780786,
0.25828898700780789,0.13893120957559138,
0.27071744517582591,0.11453898700780789,
0.275,0.0875,
0.27071744517582591,0.060461012992192059,
0.25828898700780789,0.036068790424408595,
0.23893120957559141,0.01671101299219209,
0.21453898700780791,0.0042825548241740572,
0.18750000000000003,-0.000000000000000011480684567084788,
0.16046101299219212,0.0042825548241740468,
0.13606879042440861,0.016711012992192083,
0.11671101299219211,0.036068790424408574,
0.10428255482417408,0.060461012992192073,
0*
4,1,19,
-0.275,0.087500000000000008,
-0.27071744517582591,0.1145389870078079,
-0.25828898700780789,0.13893120957559144,
-0.23893120957559139,0.15828898700780791,
-0.21453898700780791,0.17071744517582593,
-0.1875,0.175,
-0.16046101299219212,0.17071744517582593,
-0.13606879042440861,0.15828898700780789,
-0.1167110129921921,0.13893120957559141,
-0.10428255482417406,0.1145389870078079,
-0.1,0.087500000000000008,
-0.10428255482417408,0.06046101299219208,
-0.1167110129921921,0.036068790424408616,
-0.13606879042440859,0.016711012992192111,
-0.16046101299219209,0.00428255482417408,
-0.18749999999999997,0.000000000000000011480684567084785,
-0.21453898700780788,0.0042825548241740693,
-0.23893120957559139,0.016711012992192104,
-0.25828898700780789,0.036068790424408595,
-0.27071744517582591,0.060461012992192094,
0*
4,1,19,
-0.275,-0.087499999999999981,
-0.27071744517582591,-0.060461012992192087,
-0.25828898700780789,-0.036068790424408581,
-0.23893120957559139,-0.01671101299219209,
-0.21453898700780791,-0.0042825548241740572,
-0.1875,0.000000000000000011480684567084787,
-0.16046101299219212,-0.0042825548241740468,
-0.13606879042440861,-0.016711012992192097,
-0.11671101299219211,-0.036068790424408581,
-0.10428255482417408,-0.06046101299219208,
-0.1,-0.087499999999999981,
-0.10428255482417409,-0.11453898700780792,
-0.11671101299219211,-0.13893120957559138,
-0.13606879042440859,-0.15828898700780789,
-0.16046101299219209,-0.17071744517582593,
-0.18749999999999997,-0.175,
-0.21453898700780788,-0.17071744517582593,
-0.23893120957559139,-0.15828898700780789,
-0.25828898700780789,-0.13893120957559138,
-0.27071744517582591,-0.11453898700780789,
0*
4,1,19,
0.1,-0.0875,
0.10428255482417408,-0.060461012992192108,
0.11671101299219211,-0.0360687904244086,
0.13606879042440861,-0.016711012992192111,
0.16046101299219209,-0.00428255482417408,
0.1875,-0.000000000000000011480684567084787,
0.21453898700780788,-0.0042825548241740693,
0.23893120957559139,-0.016711012992192117,
0.25828898700780789,-0.0360687904244086,
0.27071744517582591,-0.0604610129921921,
0.275,-0.0875,
0.27071744517582591,-0.11453898700780793,
0.25828898700780789,-0.13893120957559141,
0.23893120957559141,-0.15828898700780791,
0.21453898700780791,-0.17071744517582593,
0.18750000000000003,-0.175,
0.16046101299219212,-0.17071744517582593,
0.13606879042440861,-0.15828898700780791,
0.1167110129921921,-0.13893120957559141,
0.10428255482417406,-0.1145389870078079,
0*
4,1,3,
0.1875,0.175,
0.1875,-0.000000000000000011480684567084787,
-0.1875,0.000000000000000011480684567084787,
-0.1875,0.175,
0*
4,1,3,
-0.275,0.087500000000000008,
-0.1,0.0875,
-0.1,-0.0875,
-0.275,-0.087499999999999981,
0*
4,1,3,
-0.1875,-0.175,
-0.1875,0.000000000000000011480684567084787,
0.1875,-0.000000000000000011480684567084787,
0.1875,-0.175,
0*
4,1,3,
0.275,-0.087500000000000008,
0.1,-0.0875,
0.1,0.0875,
0.275,0.087499999999999981,
0*%
%ADD26COMP28,0.0875X0.0875X-0.1875X0.0875X0.1875X-0.0875X0.1875X-0.0875X-0.1875X0*%
%AMCOMP29*
4,1,3,
0.17500000000000002,0.625,
-0.17499999999999996,0.625,
-0.17500000000000002,-0.625,
0.17499999999999996,-0.625,
0*
4,1,19,
0.000000000000000038268948556949289,0.625,
0.008565109648348182,0.67907797401561576,
0.033422025984384249,0.72786241915118277,
0.072137580848817232,0.76657797401561578,
0.12092202598438423,0.79143489035165182,
0.17500000000000004,0.8,
0.22907797401561583,0.79143489035165193,
0.27786241915118282,0.76657797401561578,
0.31657797401561583,0.72786241915118277,
0.34143489035165192,0.67907797401561576,
0.35000000000000003,0.625,
0.34143489035165192,0.57092202598438413,
0.31657797401561588,0.52213758084881723,
0.27786241915118287,0.48342202598438422,
0.22907797401561583,0.45856510964834818,
0.17500000000000004,0.45,
0.12092202598438426,0.45856510964834812,
0.072137580848817259,0.48342202598438422,
0.033422025984384242,0.52213758084881712,
0.0085651096483481751,0.57092202598438413,
0*
4,1,19,
-0.34999999999999992,0.625,
-0.34143489035165181,0.67907797401561576,
-0.31657797401561572,0.72786241915118277,
-0.27786241915118276,0.76657797401561578,
-0.22907797401561575,0.79143489035165182,
-0.17499999999999993,0.8,
-0.12092202598438416,0.79143489035165193,
-0.072137580848817176,0.76657797401561578,
-0.033422025984384165,0.72786241915118277,
-0.0085651096483480987,0.67907797401561576,
0.000000000000000038268948556949289,0.625,
-0.0085651096483481057,0.57092202598438413,
-0.033422025984384145,0.52213758084881723,
-0.072137580848817148,0.48342202598438422,
-0.12092202598438415,0.45856510964834818,
-0.17499999999999993,0.45,
-0.22907797401561572,0.45856510964834812,
-0.2778624191511827,0.48342202598438422,
-0.31657797401561572,0.52213758084881712,
-0.34143489035165181,0.57092202598438413,
0*
4,1,19,
-0.35000000000000003,-0.625,
-0.34143489035165192,-0.57092202598438424,
-0.31657797401561583,-0.52213758084881723,
-0.27786241915118287,-0.48342202598438422,
-0.22907797401561583,-0.45856510964834818,
-0.17500000000000002,-0.45,
-0.12092202598438423,-0.45856510964834812,
-0.072137580848817245,-0.48342202598438422,
-0.033422025984384242,-0.52213758084881723,
-0.0085651096483481751,-0.57092202598438424,
-0.000000000000000038268948556949289,-0.625,
-0.008565109648348182,-0.67907797401561587,
-0.033422025984384221,-0.72786241915118277,
-0.072137580848817218,-0.76657797401561578,
-0.12092202598438422,-0.79143489035165182,
-0.17500000000000002,-0.8,
-0.2290779740156158,-0.79143489035165193,
-0.27786241915118282,-0.76657797401561578,
-0.31657797401561583,-0.72786241915118288,
-0.34143489035165192,-0.67907797401561587,
0*
4,1,19,
-0.000000000000000038268948556949289,-0.625,
0.0085651096483481057,-0.57092202598438424,
0.033422025984384172,-0.52213758084881723,
0.072137580848817162,-0.48342202598438422,
0.12092202598438416,-0.45856510964834818,
0.17499999999999996,-0.45,
0.22907797401561575,-0.45856510964834812,
0.2778624191511827,-0.48342202598438422,
0.31657797401561572,-0.52213758084881723,
0.34143489035165181,-0.57092202598438424,
0.34999999999999992,-0.625,
0.34143489035165181,-0.67907797401561587,
0.31657797401561577,-0.72786241915118277,
0.27786241915118276,-0.76657797401561578,
0.22907797401561575,-0.79143489035165182,
0.17499999999999996,-0.8,
0.12092202598438419,-0.79143489035165193,
0.07213758084881719,-0.76657797401561578,
0.033422025984384165,-0.72786241915118288,
0.0085651096483480987,-0.67907797401561587,
0*
4,1,3,
0.17500000000000004,0.8,
0.17500000000000002,0.45,
-0.17499999999999996,0.45,
-0.17499999999999993,0.8,
0*
4,1,3,
-0.34999999999999992,0.625,
0.000000000000000038268948556949289,0.625,
-0.000000000000000038268948556949289,-0.625,
-0.35000000000000003,-0.625,
0*
4,1,3,
-0.17500000000000004,-0.8,
-0.17500000000000002,-0.45,
0.17499999999999996,-0.45,
0.17499999999999993,-0.8,
0*
4,1,3,
0.34999999999999992,-0.625,
-0.000000000000000038268948556949289,-0.625,
0.000000000000000038268948556949289,0.625,
0.35000000000000003,0.625,
0*%
%ADD27COMP29,0.175X0.625X-0.175X0.625X0.175X-0.625X0.175X-0.625X-0.175X0*%
%ADD28R,2.5X1*%
%ADD29R,1X1.8*%
%ADD30R,1.56X0.65*%
%AMCOMP30*
4,1,3,
0.062499999999999979,-0.35,
0.062500000000000028,0.35,
-0.062499999999999979,0.35,
-0.062500000000000028,-0.35,
0*
4,1,19,
-0.0000000000000000214306111918916,-0.35,
0.0030589677315528839,-0.33068643785156576,
0.011936437851565765,-0.31326342173172039,
0.025763421731720412,-0.29943643785156576,
0.043186437851565763,-0.29055896773155288,
0.062499999999999972,-0.2875,
0.0818135621484342,-0.29055896773155288,
0.099236578268279543,-0.29943643785156576,
0.1130635621484342,-0.31326342173172039,
0.12194103226844709,-0.33068643785156576,
0.12499999999999997,-0.35,
0.12194103226844707,-0.36931356214843419,
0.11306356214843419,-0.38673657826827956,
0.099236578268279557,-0.40056356214843419,
0.081813562148434188,-0.40944103226844708,
0.062499999999999986,-0.4125,
0.04318643785156577,-0.40944103226844708,
0.025763421731720419,-0.40056356214843419,
0.011936437851565767,-0.38673657826827956,
0.0030589677315528817,-0.36931356214843419,
0*
4,1,19,
0.0000000000000000214306111918916,0.35,
0.0030589677315529269,0.36931356214843419,
0.011936437851565809,0.38673657826827956,
0.025763421731720453,0.40056356214843419,
0.043186437851565812,0.40944103226844708,
0.062500000000000014,0.4125,
0.081813562148434243,0.40944103226844708,
0.099236578268279585,0.40056356214843419,
0.11306356214843424,0.38673657826827956,
0.12194103226844713,0.36931356214843419,
0.12500000000000003,0.35,
0.12194103226844712,0.33068643785156576,
0.11306356214843423,0.31326342173172039,
0.0992365782682796,0.29943643785156576,
0.08181356214843423,0.29055896773155288,
0.062500000000000028,0.2875,
0.043186437851565819,0.29055896773155288,
0.02576342173172046,0.29943643785156576,
0.01193643785156581,0.31326342173172039,
0.0030589677315529247,0.33068643785156576,
0*
4,1,19,
-0.12499999999999997,0.35,
-0.12194103226844707,0.36931356214843419,
-0.11306356214843419,0.38673657826827956,
-0.099236578268279543,0.40056356214843419,
-0.081813562148434188,0.40944103226844708,
-0.062499999999999972,0.4125,
-0.043186437851565763,0.40944103226844708,
-0.025763421731720412,0.40056356214843419,
-0.011936437851565767,0.38673657826827956,
-0.0030589677315528817,0.36931356214843419,
0.0000000000000000214306111918916,0.35,
-0.0030589677315528839,0.33068643785156576,
-0.011936437851565758,0.31326342173172039,
-0.025763421731720405,0.29943643785156576,
-0.043186437851565757,0.29055896773155288,
-0.062499999999999965,0.2875,
-0.081813562148434188,0.29055896773155288,
-0.099236578268279543,0.29943643785156576,
-0.1130635621484342,0.31326342173172039,
-0.12194103226844709,0.33068643785156576,
0*
4,1,19,
-0.12500000000000003,-0.35,
-0.12194103226844712,-0.33068643785156576,
-0.11306356214843423,-0.31326342173172039,
-0.099236578268279585,-0.29943643785156576,
-0.08181356214843423,-0.29055896773155288,
-0.062500000000000014,-0.2875,
-0.043186437851565812,-0.29055896773155288,
-0.025763421731720453,-0.29943643785156576,
-0.01193643785156581,-0.31326342173172039,
-0.0030589677315529247,-0.33068643785156576,
-0.0000000000000000214306111918916,-0.35,
-0.0030589677315529269,-0.36931356214843419,
-0.011936437851565802,-0.38673657826827956,
-0.025763421731720446,-0.40056356214843419,
-0.043186437851565805,-0.40944103226844708,
-0.062500000000000014,-0.4125,
-0.08181356214843423,-0.40944103226844708,
-0.099236578268279585,-0.40056356214843419,
-0.11306356214843424,-0.38673657826827956,
-0.12194103226844713,-0.36931356214843419,
0*
4,1,3,
0.12499999999999997,-0.35,
-0.0000000000000000214306111918916,-0.35,
0.0000000000000000214306111918916,0.35,
0.12500000000000003,0.35,
0*
4,1,3,
0.062500000000000028,0.4125,
0.062500000000000014,0.2875,
-0.062499999999999979,0.2875,
-0.062499999999999965,0.4125,
0*
4,1,3,
-0.12499999999999997,0.35,
0.0000000000000000214306111918916,0.35,
-0.0000000000000000214306111918916,-0.35,
-0.12500000000000003,-0.35,
0*
4,1,3,
-0.062500000000000028,-0.4125,
-0.062500000000000014,-0.2875,
0.062499999999999979,-0.2875,
0.062499999999999965,-0.4125,
0*%
%ADD31COMP30,0.0625X-0.35X-0.0625X0.35X-0.0625X0.35X0.0625X-0.35X0.0625X0*%
%AMCOMP31*
4,1,3,
0.35,-0.062500000000000028,
0.35,0.062499999999999979,
-0.35,0.062500000000000028,
-0.35,-0.062499999999999979,
0*
4,1,19,
0.2875,-0.062500000000000014,
0.29055896773155288,-0.043186437851565805,
0.29943643785156576,-0.025763421731720446,
0.31326342173172039,-0.011936437851565803,
0.33068643785156576,-0.0030589677315529247,
0.35,-0.0000000000000000214306111918916,
0.36931356214843419,-0.00305896773155292,
0.38673657826827956,-0.011936437851565809,
0.40056356214843419,-0.025763421731720446,
0.40944103226844708,-0.043186437851565812,
0.4125,-0.062500000000000014,
0.40944103226844708,-0.081813562148434257,
0.40056356214843419,-0.099236578268279585,
0.38673657826827956,-0.11306356214843424,
0.36931356214843419,-0.12194103226844713,
0.35,-0.12500000000000003,
0.33068643785156576,-0.12194103226844712,
0.31326342173172039,-0.11306356214843423,
0.29943643785156576,-0.0992365782682796,
0.29055896773155288,-0.081813562148434243,
0*
4,1,19,
0.2875,0.062499999999999979,
0.29055896773155288,0.0818135621484342,
0.29943643785156576,0.099236578268279557,
0.31326342173172039,0.1130635621484342,
0.33068643785156576,0.12194103226844709,
0.35,0.12499999999999997,
0.36931356214843419,0.12194103226844707,
0.38673657826827956,0.11306356214843419,
0.40056356214843419,0.099236578268279557,
0.40944103226844708,0.081813562148434188,
0.4125,0.062499999999999986,
0.40944103226844708,0.043186437851565743,
0.40056356214843419,0.025763421731720412,
0.38673657826827956,0.011936437851565767,
0.36931356214843419,0.0030589677315528817,
0.35,-0.0000000000000000214306111918916,
0.33068643785156576,0.003058967731552877,
0.31326342173172039,0.011936437851565758,
0.29943643785156576,0.025763421731720398,
0.29055896773155288,0.04318643785156575,
0*
4,1,19,
-0.4125,0.062500000000000028,
-0.40944103226844708,0.081813562148434243,
-0.40056356214843419,0.0992365782682796,
-0.38673657826827956,0.11306356214843424,
-0.36931356214843419,0.12194103226844713,
-0.35,0.12500000000000003,
-0.33068643785156576,0.12194103226844712,
-0.31326342173172039,0.11306356214843423,
-0.29943643785156576,0.0992365782682796,
-0.29055896773155288,0.08181356214843423,
-0.2875,0.062500000000000028,
-0.29055896773155288,0.043186437851565791,
-0.29943643785156576,0.025763421731720453,
-0.31326342173172039,0.01193643785156581,
-0.33068643785156576,0.0030589677315529247,
-0.35,0.0000000000000000214306111918916,
-0.36931356214843419,0.00305896773155292,
-0.38673657826827956,0.011936437851565802,
-0.40056356214843419,0.025763421731720439,
-0.40944103226844708,0.0431864378515658,
0*
4,1,19,
-0.4125,-0.062499999999999972,
-0.40944103226844708,-0.043186437851565757,
-0.40056356214843419,-0.025763421731720405,
-0.38673657826827956,-0.01193643785156576,
-0.36931356214843419,-0.0030589677315528817,
-0.35,0.0000000000000000214306111918916,
-0.33068643785156576,-0.003058967731552877,
-0.31326342173172039,-0.011936437851565765,
-0.29943643785156576,-0.025763421731720405,
-0.29055896773155288,-0.043186437851565763,
-0.2875,-0.062499999999999972,
-0.29055896773155288,-0.081813562148434216,
-0.29943643785156576,-0.099236578268279543,
-0.31326342173172039,-0.1130635621484342,
-0.33068643785156576,-0.12194103226844709,
-0.35,-0.12499999999999997,
-0.36931356214843419,-0.12194103226844707,
-0.38673657826827956,-0.11306356214843419,
-0.40056356214843419,-0.099236578268279557,
-0.40944103226844708,-0.0818135621484342,
0*
4,1,3,
0.4125,-0.062500000000000028,
0.2875,-0.062500000000000014,
0.2875,0.062499999999999979,
0.4125,0.062499999999999965,
0*
4,1,3,
0.35,0.12499999999999997,
0.35,-0.0000000000000000214306111918916,
-0.35,0.0000000000000000214306111918916,
-0.35,0.12500000000000003,
0*
4,1,3,
-0.4125,0.062500000000000028,
-0.2875,0.062500000000000014,
-0.2875,-0.062499999999999979,
-0.4125,-0.062499999999999965,
0*
4,1,3,
-0.35,-0.12499999999999997,
-0.35,0.0000000000000000214306111918916,
0.35,-0.0000000000000000214306111918916,
0.35,-0.12500000000000003,
0*%
%ADD32COMP31,0.0625X-0.0625X-0.35X0.0625X-0.35X0.0625X0.35X-0.0625X0.35X0*%
%ADD33R,2.6X2.6*%
%ADD34C,0.6*%
%ADD35R,0.6X1.16*%
%ADD36R,0.3X1.16*%
%ADD37O,1X2.2*%
%ADD38R,1.1X1.8*%
%ADD39R,1.7X1.7*%
%ADD40O,1.7X1.7*%
%AMCOMP32*
4,1,3,
-0.5125,-0.14999999999999997,
0.5125,-0.15000000000000002,
0.5125,0.14999999999999997,
-0.5125,0.15000000000000002,
0*
4,1,19,
-0.6625,-0.14999999999999997,
-0.65515847744427291,-0.10364745084375784,
-0.63385254915624212,-0.061832212156128982,
-0.60066778784387087,-0.02864745084375785,
-0.558852549156242,-0.0073415225557269476,
-0.5125,0.000000000000000031380537816698416,
-0.46614745084375786,-0.007341522555726925,
-0.424332212156129,-0.028647450843757864,
-0.39114745084375785,-0.061832212156128989,
-0.36984152255572694,-0.10364745084375784,
-0.36249999999999993,-0.14999999999999994,
-0.36984152255572694,-0.19635254915624212,
-0.39114745084375779,-0.23816778784387091,
-0.424332212156129,-0.27135254915624207,
-0.4661474508437578,-0.29265847744427292,
-0.5125,-0.29999999999999993,
-0.558852549156242,-0.292658477444273,
-0.60066778784387087,-0.27135254915624207,
-0.633852549156242,-0.23816778784387097,
-0.65515847744427291,-0.19635254915624212,
0*
4,1,19,
0.36249999999999993,-0.15000000000000002,
0.36984152255572694,-0.10364745084375791,
0.39114745084375785,-0.061832212156129045,
0.424332212156129,-0.028647450843757912,
0.46614745084375786,-0.00734152255572701,
0.5125,-0.000000000000000031380537816698416,
0.558852549156242,-0.0073415225557269875,
0.60066778784387087,-0.028647450843757926,
0.633852549156242,-0.061832212156129052,
0.65515847744427291,-0.10364745084375791,
0.6625,-0.15,
0.65515847744427291,-0.19635254915624217,
0.63385254915624212,-0.23816778784387097,
0.600667787843871,-0.27135254915624213,
0.558852549156242,-0.29265847744427304,
0.5125,-0.30000000000000004,
0.46614745084375786,-0.29265847744427309,
0.42433221215612904,-0.27135254915624213,
0.39114745084375785,-0.23816778784387102,
0.36984152255572694,-0.19635254915624217,
0*
4,1,19,
0.36249999999999993,0.14999999999999997,
0.36984152255572694,0.19635254915624209,
0.39114745084375785,0.23816778784387094,
0.424332212156129,0.27135254915624207,
0.46614745084375786,0.29265847744427292,
0.5125,0.29999999999999993,
0.558852549156242,0.292658477444273,
0.60066778784387087,0.271352549156242,
0.633852549156242,0.23816778784387097,
0.65515847744427291,0.19635254915624209,
0.6625,0.15,
0.65515847744427291,0.1036474508437578,
0.63385254915624212,0.061832212156128996,
0.600667787843871,0.028647450843757864,
0.558852549156242,0.0073415225557269476,
0.5125,-0.000000000000000031380537816698416,
0.46614745084375786,0.007341522555726925,
0.42433221215612904,0.028647450843757836,
0.39114745084375785,0.061832212156128975,
0.36984152255572694,0.10364745084375782,
0*
4,1,19,
-0.6625,0.15000000000000002,
-0.65515847744427291,0.19635254915624215,
-0.63385254915624212,0.238167787843871,
-0.60066778784387087,0.27135254915624213,
-0.558852549156242,0.29265847744427304,
-0.5125,0.30000000000000004,
-0.46614745084375786,0.29265847744427309,
-0.424332212156129,0.27135254915624207,
-0.39114745084375785,0.23816778784387102,
-0.36984152255572694,0.19635254915624215,
-0.36249999999999993,0.15000000000000005,
-0.36984152255572694,0.10364745084375787,
-0.39114745084375779,0.061832212156129059,
-0.424332212156129,0.028647450843757926,
-0.4661474508437578,0.00734152255572701,
-0.5125,0.000000000000000031380537816698416,
-0.558852549156242,0.0073415225557269875,
-0.60066778784387087,0.028647450843757898,
-0.633852549156242,0.061832212156129038,
-0.65515847744427291,0.10364745084375789,
0*
4,1,3,
-0.5125,-0.29999999999999993,
-0.5125,0.000000000000000031380537816698416,
0.5125,-0.000000000000000031380537816698416,
0.5125,-0.30000000000000004,
0*
4,1,3,
0.6625,-0.15000000000000002,
0.36249999999999993,-0.15000000000000002,
0.36249999999999993,0.14999999999999997,
0.6625,0.14999999999999997,
0*
4,1,3,
0.5125,0.29999999999999993,
0.5125,-0.000000000000000031380537816698416,
-0.5125,0.000000000000000031380537816698416,
-0.5125,0.30000000000000004,
0*
4,1,3,
-0.6625,0.15000000000000002,
-0.36249999999999993,0.15000000000000002,
-0.36249999999999993,-0.14999999999999997,
-0.6625,-0.14999999999999997,
0*%
%ADD41COMP32,0.15X-0.15X0.5125X-0.15X-0.5125X0.15X-0.5125X0.15X0.5125X0*%
%ADD42C,2.286*%
%ADD43C,4*%
G04 APERTURE END LIST*
D10*
G36*
X0043700000Y0065199999D02*
G01*
X0043700000Y0064199999D01*
X0041700000Y0064199999D01*
X0041700000Y0065199999D01*
X0043700000Y0065199999D01*
G37*
X0043700000Y0065199999D02*
X0043700000Y0064199999D01*
X0041700000Y0064199999D01*
X0041700000Y0065199999D01*
X0043700000Y0065199999D01*
G36*
X0052700000Y0065199999D02*
G01*
X0052700000Y0064199999D01*
X0051600000Y0064199999D01*
X0051600000Y0065199999D01*
X0052700000Y0065199999D01*
G37*
X0052700000Y0065199999D02*
X0052700000Y0064199999D01*
X0051600000Y0064199999D01*
X0051600000Y0065199999D01*
X0052700000Y0065199999D01*
G36*
X0055700000Y0061199999D02*
G01*
X0055700000Y0060199999D01*
X0053700000Y0060199999D01*
X0053700000Y0061199999D01*
X0055700000Y0061199999D01*
G37*
X0055700000Y0061199999D02*
X0055700000Y0060199999D01*
X0053700000Y0060199999D01*
X0053700000Y0061199999D01*
X0055700000Y0061199999D01*
G36*
X0048898759Y0061198782D02*
G01*
X0048898759Y0060198782D01*
X0047698759Y0060198782D01*
X0047698759Y0061198782D01*
X0048898759Y0061198782D01*
G37*
X0048898759Y0061198782D02*
X0048898759Y0060198782D01*
X0047698759Y0060198782D01*
X0047698759Y0061198782D01*
X0048898759Y0061198782D01*
G36*
X0052400000Y0072800000D02*
G01*
X0052400000Y0069900000D01*
X0051300000Y0069900000D01*
X0051300000Y0072800000D01*
X0052400000Y0072800000D01*
G37*
X0052400000Y0072800000D02*
X0052400000Y0069900000D01*
X0051300000Y0069900000D01*
X0051300000Y0072800000D01*
X0052400000Y0072800000D01*
G36*
X0046700000Y0061199999D02*
G01*
X0046700000Y0060199999D01*
X0044700000Y0060199999D01*
X0044700000Y0061199999D01*
X0046700000Y0061199999D01*
G37*
X0046700000Y0061199999D02*
X0046700000Y0060199999D01*
X0044700000Y0060199999D01*
X0044700000Y0061199999D01*
X0046700000Y0061199999D01*
G36*
X0049200000Y0072800000D02*
G01*
X0049200000Y0069900000D01*
X0048100000Y0069900000D01*
X0048100000Y0072800000D01*
X0049200000Y0072800000D01*
G37*
X0049200000Y0072800000D02*
X0049200000Y0069900000D01*
X0048100000Y0069900000D01*
X0048100000Y0072800000D01*
X0049200000Y0072800000D01*
G36*
X0048900000Y0065199999D02*
G01*
X0048900000Y0064199999D01*
X0047700000Y0064199999D01*
X0047700000Y0065199999D01*
X0048900000Y0065199999D01*
G37*
X0048900000Y0065199999D02*
X0048900000Y0064199999D01*
X0047700000Y0064199999D01*
X0047700000Y0065199999D01*
X0048900000Y0065199999D01*
G36*
X0055700000Y0065199999D02*
G01*
X0055700000Y0064199999D01*
X0053700000Y0064199999D01*
X0053700000Y0065199999D01*
X0055700000Y0065199999D01*
G37*
X0055700000Y0065199999D02*
X0055700000Y0064199999D01*
X0053700000Y0064199999D01*
X0053700000Y0065199999D01*
X0055700000Y0065199999D01*
G36*
X0046700000Y0065199999D02*
G01*
X0046700000Y0064199999D01*
X0044700000Y0064199999D01*
X0044700000Y0065199999D01*
X0046700000Y0065199999D01*
G37*
X0046700000Y0065199999D02*
X0046700000Y0064199999D01*
X0044700000Y0064199999D01*
X0044700000Y0065199999D01*
X0046700000Y0065199999D01*
G36*
X0058700000Y0065199999D02*
G01*
X0058700000Y0064199999D01*
X0056700000Y0064199999D01*
X0056700000Y0065199999D01*
X0058700000Y0065199999D01*
G37*
X0058700000Y0065199999D02*
X0058700000Y0064199999D01*
X0056700000Y0064199999D01*
X0056700000Y0065199999D01*
X0058700000Y0065199999D01*
G36*
X0052700000Y0061199999D02*
G01*
X0052700000Y0060199999D01*
X0051600000Y0060199999D01*
X0051600000Y0061199999D01*
X0052700000Y0061199999D01*
G37*
X0052700000Y0061199999D02*
X0052700000Y0060199999D01*
X0051600000Y0060199999D01*
X0051600000Y0061199999D01*
X0052700000Y0061199999D01*
G36*
X0058700000Y0061199999D02*
G01*
X0058700000Y0060199999D01*
X0056700000Y0060199999D01*
X0056700000Y0061199999D01*
X0058700000Y0061199999D01*
G37*
X0058700000Y0061199999D02*
X0058700000Y0060199999D01*
X0056700000Y0060199999D01*
X0056700000Y0061199999D01*
X0058700000Y0061199999D01*
G36*
X0043700000Y0061199999D02*
G01*
X0043700000Y0060199999D01*
X0041700000Y0060199999D01*
X0041700000Y0061199999D01*
X0043700000Y0061199999D01*
G37*
X0043700000Y0061199999D02*
X0043700000Y0060199999D01*
X0041700000Y0060199999D01*
X0041700000Y0061199999D01*
X0043700000Y0061199999D01*
G36*
X0049200000Y0055800000D02*
G01*
X0049200000Y0052900000D01*
X0048100000Y0052900000D01*
X0048100000Y0055800000D01*
X0049200000Y0055800000D01*
G37*
X0049200000Y0055800000D02*
X0049200000Y0052900000D01*
X0048100000Y0052900000D01*
X0048100000Y0055800000D01*
X0049200000Y0055800000D01*
G36*
X0052400000Y0055699999D02*
G01*
X0052400000Y0052800000D01*
X0051300000Y0052800000D01*
X0051300000Y0055699999D01*
X0052400000Y0055699999D01*
G37*
X0052400000Y0055699999D02*
X0052400000Y0052800000D01*
X0051300000Y0052800000D01*
X0051300000Y0055699999D01*
X0052400000Y0055699999D01*
D11*
%TO.C,C7*%
X0040410000Y0053539999D03*
X0042310000Y0053539999D03*
%TD*%
D12*
%TO.C,R21*%
X0031470000Y0059110000D03*
X0033470000Y0059110000D03*
%TD*%
D11*
%TO.C,C4*%
X0077140000Y0065440000D03*
X0079040000Y0065440000D03*
%TD*%
D13*
%TO.C,H3*%
X0080000000Y0096000000D03*
%TD*%
D14*
%TO.C,D2*%
X0027900000Y0082637499D03*
X0027900000Y0080762499D03*
%TD*%
D11*
%TO.C,C3*%
X0040060000Y0035040000D03*
X0041959999Y0035040000D03*
%TD*%
D15*
%TO.C,C5*%
X0073160000Y0062090000D03*
X0071260000Y0062090000D03*
%TD*%
D16*
%TO.C,R2*%
X0077360000Y0069419999D03*
X0077360000Y0067419999D03*
%TD*%
%TO.C,R15*%
X0027900000Y0078699999D03*
X0027900000Y0076699999D03*
%TD*%
D14*
%TO.C,D1*%
X0030100000Y0082637499D03*
X0030100000Y0080762499D03*
%TD*%
D11*
%TO.C,C9*%
X0040410000Y0050539999D03*
X0042310000Y0050539999D03*
%TD*%
D12*
%TO.C,R1*%
X0073000000Y0089000000D03*
X0075000000Y0089000000D03*
%TD*%
D17*
%TO.C,R8*%
X0061970000Y0080045999D03*
X0059970000Y0080045999D03*
%TD*%
D18*
%TO.C,SW1*%
X0029299999Y0030400000D03*
X0036099999Y0030400000D03*
D19*
X0035200000Y0029200000D03*
X0035200000Y0031599999D03*
X0032700000Y0029200000D03*
X0032700000Y0031599999D03*
X0030200000Y0029200000D03*
X0030200000Y0031599999D03*
%TD*%
D20*
%TO.C,JP1*%
X0036630000Y0037310000D03*
D21*
X0036630000Y0038610000D03*
%TD*%
D22*
%TO.C,Q1*%
X0062257500Y0065145999D03*
X0062257500Y0067045999D03*
X0060382500Y0066096000D03*
%TD*%
D23*
%TO.C,L1*%
X0042400000Y0043200000D03*
X0040200000Y0043200000D03*
%TD*%
D24*
%TO.C,C1*%
X0035000000Y0054150000D03*
X0035000000Y0056050000D03*
%TD*%
D16*
%TO.C,R14*%
X0067200000Y0045300000D03*
X0067200000Y0043300000D03*
%TD*%
D13*
%TO.C,H2*%
X0020000000Y0096000000D03*
%TD*%
D17*
%TO.C,R18*%
X0061970000Y0078045999D03*
X0059970000Y0078045999D03*
%TD*%
D25*
%TO.C,R10*%
X0032900000Y0091000000D03*
X0032900000Y0093000000D03*
%TD*%
D17*
%TO.C,R7*%
X0061970000Y0084045999D03*
X0059970000Y0084045999D03*
%TD*%
D16*
%TO.C,R16*%
X0027900000Y0086699999D03*
X0027900000Y0084699999D03*
%TD*%
D12*
%TO.C,R6*%
X0066320000Y0067096000D03*
X0068320000Y0067096000D03*
%TD*%
D16*
%TO.C,R3*%
X0030100000Y0078699999D03*
X0030100000Y0076699999D03*
%TD*%
D12*
%TO.C,R20*%
X0035380000Y0059090000D03*
X0037380000Y0059090000D03*
%TD*%
D17*
%TO.C,R13*%
X0061970000Y0082045999D03*
X0059970000Y0082045999D03*
%TD*%
D26*
%TO.C,U5*%
X0064125000Y0044800000D03*
X0064125000Y0045800000D03*
X0062275000Y0045800000D03*
X0062275000Y0044800000D03*
D27*
X0063200000Y0045300000D03*
%TD*%
D28*
%TO.C,U4*%
X0041400000Y0090500000D03*
X0041400000Y0088500000D03*
X0041400000Y0086500000D03*
X0041400000Y0084500000D03*
X0041400000Y0082500000D03*
X0041400000Y0080500000D03*
X0041400000Y0078500000D03*
X0041400000Y0076500000D03*
D29*
X0044000000Y0075000000D03*
X0046000000Y0075000000D03*
X0048000000Y0075000000D03*
X0050000000Y0075000000D03*
X0052000000Y0075000000D03*
X0054000000Y0075000000D03*
D28*
X0056600000Y0076500000D03*
X0056600000Y0078500000D03*
X0056600000Y0080500000D03*
X0056600000Y0082500000D03*
X0056600000Y0084500000D03*
X0056600000Y0086500000D03*
X0056600000Y0088500000D03*
X0056600000Y0090500000D03*
%TD*%
D15*
%TO.C,C10*%
X0032850000Y0096000000D03*
X0030950000Y0096000000D03*
%TD*%
D30*
%TO.C,U1*%
X0031150000Y0052250000D03*
X0031150000Y0053199999D03*
X0031150000Y0054150000D03*
X0028450000Y0054150000D03*
X0028450000Y0052250000D03*
%TD*%
D12*
%TO.C,R11*%
X0059970000Y0090045999D03*
X0061970000Y0090045999D03*
%TD*%
D31*
%TO.C,U2*%
X0072400000Y0065712500D03*
X0072900000Y0065712500D03*
X0073400000Y0065712500D03*
X0073900000Y0065712500D03*
X0074400000Y0065712500D03*
X0074900000Y0065712500D03*
D32*
X0075587500Y0066400000D03*
X0075587500Y0066900000D03*
X0075587500Y0067400000D03*
X0075587500Y0067900000D03*
X0075587500Y0068400000D03*
X0075587500Y0068900000D03*
D31*
X0074900000Y0069587500D03*
X0074400000Y0069587500D03*
X0073900000Y0069587500D03*
X0073400000Y0069587500D03*
X0072900000Y0069587500D03*
X0072400000Y0069587500D03*
D32*
X0071712500Y0068900000D03*
X0071712500Y0068400000D03*
X0071712500Y0067900000D03*
X0071712500Y0067400000D03*
X0071712500Y0066900000D03*
X0071712500Y0066400000D03*
D33*
X0073650000Y0067650000D03*
%TD*%
D16*
%TO.C,R4*%
X0022400000Y0047700000D03*
X0022400000Y0045700000D03*
%TD*%
%TO.C,R17*%
X0070200000Y0045300000D03*
X0070200000Y0043300000D03*
%TD*%
D34*
%TO.C,P1*%
X0066110000Y0092550000D03*
X0071890000Y0092550000D03*
D35*
X0072200000Y0091490000D03*
X0071400000Y0091490000D03*
D36*
X0070250000Y0091490000D03*
X0069250000Y0091490000D03*
X0068750000Y0091490000D03*
X0067750000Y0091490000D03*
D35*
X0066600000Y0091490000D03*
X0065800000Y0091490000D03*
X0065800000Y0091490000D03*
X0066600000Y0091490000D03*
D36*
X0067250000Y0091490000D03*
X0068250000Y0091490000D03*
X0069750000Y0091490000D03*
X0070750000Y0091490000D03*
D35*
X0071400000Y0091490000D03*
X0072200000Y0091490000D03*
D37*
X0063275019Y0096032000D03*
X0063285000Y0091964307D03*
X0074732365Y0091964307D03*
X0074715000Y0096240000D03*
%TD*%
D13*
%TO.C,H4*%
X0020000000Y0029000000D03*
%TD*%
D38*
%TO.C,SW2*%
X0022549999Y0034900000D03*
X0022550000Y0041099999D03*
X0026250000Y0041099999D03*
X0026250000Y0034900000D03*
%TD*%
D24*
%TO.C,C8*%
X0042700000Y0070250000D03*
X0042700000Y0072150000D03*
%TD*%
D12*
%TO.C,R9*%
X0035970000Y0086045999D03*
X0037970000Y0086045999D03*
%TD*%
D39*
%TO.C,J2*%
X0034900000Y0069900000D03*
D40*
X0032360000Y0069900000D03*
X0029820000Y0069900000D03*
X0027280000Y0069900000D03*
X0024740000Y0069900000D03*
X0022200000Y0069900000D03*
%TD*%
D38*
%TO.C,SW3*%
X0075850000Y0085199999D03*
X0075850000Y0079000000D03*
X0079550000Y0079000000D03*
X0079550000Y0085199999D03*
%TD*%
D12*
%TO.C,R19*%
X0027900000Y0088699999D03*
X0029900000Y0088699999D03*
%TD*%
%TO.C,R12*%
X0059970000Y0088045999D03*
X0061970000Y0088045999D03*
%TD*%
D13*
%TO.C,H1*%
X0080000000Y0028999999D03*
%TD*%
D24*
%TO.C,C6*%
X0045010000Y0038040000D03*
X0045010000Y0039940000D03*
%TD*%
D41*
%TO.C,U3*%
X0040162500Y0038816000D03*
X0040162500Y0037866000D03*
X0040162499Y0036916000D03*
X0042437500Y0036916000D03*
X0042437500Y0037866000D03*
X0042437500Y0038816000D03*
%TD*%
D24*
%TO.C,C2*%
X0026400000Y0051849999D03*
X0026400000Y0053750000D03*
%TD*%
D12*
%TO.C,R5*%
X0066320000Y0071000000D03*
X0068320000Y0071000000D03*
%TD*%
D38*
%TO.C,SW4*%
X0020050000Y0084500000D03*
X0020050000Y0078300000D03*
X0023750000Y0084500000D03*
X0023750000Y0078300000D03*
%TD*%
D22*
%TO.C,Q2*%
X0062257500Y0069145999D03*
X0062257500Y0071045999D03*
X0060382500Y0070096000D03*
%TD*%
D42*
%TO.C,J1*%
X0060879999Y0035040000D03*
X0073580000Y0035039999D03*
D43*
X0022780000Y0061710000D03*
X0077580000Y0061710000D03*
%TD*%
M02*