%
M48
METRIC,000.000
T01C0.50
%
T01
X127068Y044209
X128005Y044559
X128926Y044949
X129829Y045378
X131489Y042099
X130677Y041516
X129908Y040878
X129185Y040187
X126659Y072375
X127510Y072900
X128322Y073483
X129091Y074121
X129814Y074812
X130994Y070440
X130073Y070050
X129170Y069621
X128287Y069152
X115098Y091014
X114582Y091871
X114086Y092739
X113608Y093618
X113150Y094506
X112710Y095404
X115930Y096047
X115160Y095409
X115623Y094781
X116529Y094357
X117425Y093914
X143147Y019015
X143908Y019662
X143285Y020260
X142380Y020685
X141484Y021131
X143892Y023977
X144407Y023120
X144902Y022251
X145379Y021372
X145836Y020483
X146274Y019584
X083250Y044897
X083250Y045897
X083250Y046897
X083250Y047897
X083250Y048897
X083250Y049897
X086184Y048775
X085360Y048207
X085769Y047487
X086588Y046914
X080983Y025906
X081874Y026350
X082590Y027042
X078590Y025749
X079590Y025749
X083229Y024371
X082403Y023808
X081565Y023263
X080714Y022737
X079852Y022231
M30