%MOIN*%
%OFA0B0*%
%FSLAX36Y36*%
%IPPOS*%
%LPD*%
%ADD10C,0*%
D10*
X002354330Y002437007D02*
X002354330Y002437007D01*
X002011810Y002437007D01*
X002011810Y002192913D01*
X001944881Y002192913D01*
X001944881Y002437007D01*
X001598425Y002437007D01*
X001598425Y002503937D01*
X001944881Y002503937D01*
X001944881Y002751968D01*
X002011810Y002751968D01*
X002011810Y002503937D01*
X002354330Y002503937D01*
X002354330Y002437007D01*
X003305995Y000968237D02*
X003305995Y000968237D01*
X003302256Y000965851D01*
X003298272Y000963901D01*
X003294093Y000962411D01*
X003289774Y000961401D01*
X003285369Y000960884D01*
X003280933Y000960865D01*
X003276523Y000961345D01*
X003272195Y000962318D01*
X003268005Y000963772D01*
X003264004Y000965688D01*
X003260244Y000968042D01*
X003256773Y000970804D01*
X003253635Y000973939D01*
X003250869Y000977407D01*
X003248511Y000981164D01*
X003246591Y000985163D01*
X003245132Y000989352D01*
X003244154Y000993678D01*
X003243669Y000998088D01*
X003243683Y001002523D01*
X003247537Y001067198D01*
X003247599Y001068073D01*
X003247680Y001068946D01*
X003247781Y001069817D01*
X003247901Y001070685D01*
X003248041Y001071551D01*
X003248199Y001072413D01*
X003248377Y001073271D01*
X003248574Y001074126D01*
X003248790Y001074975D01*
X003249025Y001075820D01*
X003249278Y001076659D01*
X003249550Y001077493D01*
X003249841Y001078320D01*
X003250150Y001079140D01*
X003250477Y001079954D01*
X003250822Y001080760D01*
X003251185Y001081558D01*
X003251566Y001082348D01*
X003251964Y001083129D01*
X003252380Y001083901D01*
X003256019Y001090485D01*
X003261088Y001102722D01*
X003264755Y001115449D01*
X003266973Y001128507D01*
X003267716Y001141732D01*
X003267716Y001739038D01*
X003267756Y001740815D01*
X003267876Y001742588D01*
X003268077Y001744355D01*
X003268356Y001746110D01*
X003268715Y001747851D01*
X003269152Y001749574D01*
X003269666Y001751276D01*
X003270257Y001752952D01*
X003270923Y001754600D01*
X003271662Y001756217D01*
X003272473Y001757798D01*
X003273356Y001759342D01*
X003274306Y001760844D01*
X003275324Y001762301D01*
X003276407Y001763711D01*
X003277551Y001765071D01*
X003278757Y001766377D01*
X003280020Y001767628D01*
X003281338Y001768821D01*
X003282708Y001769953D01*
X003379264Y001846091D01*
X003381237Y001847549D01*
X003383296Y001848882D01*
X003385435Y001850084D01*
X003387645Y001851150D01*
X003389916Y001852076D01*
X003392241Y001852860D01*
X003394610Y001853496D01*
X003397014Y001853985D01*
X003399444Y001854322D01*
X003401890Y001854507D01*
X003404343Y001854540D01*
X003406793Y001854420D01*
X003409231Y001854148D01*
X003411648Y001853724D01*
X003414033Y001853150D01*
X003416378Y001852430D01*
X003418673Y001851564D01*
X003420910Y001850557D01*
X003423080Y001849413D01*
X003425175Y001848136D01*
X003428082Y001846236D01*
X003438741Y001839477D01*
X003449490Y001832863D01*
X003460328Y001826395D01*
X003471252Y001820075D01*
X003482261Y001813903D01*
X003493352Y001807881D01*
X003504524Y001802009D01*
X003515775Y001796289D01*
X003527101Y001790722D01*
X003538503Y001785309D01*
X003549976Y001780051D01*
X003561520Y001774949D01*
X003573132Y001770003D01*
X003584809Y001765215D01*
X003596551Y001760586D01*
X003608353Y001756116D01*
X003620216Y001751807D01*
X003632136Y001747658D01*
X003644110Y001743671D01*
X003656138Y001739847D01*
X003668216Y001736186D01*
X003680343Y001732689D01*
X003692517Y001729356D01*
X003704733Y001726189D01*
X003716992Y001723188D01*
X003729290Y001720352D01*
X003741626Y001717684D01*
X003753997Y001715183D01*
X003766400Y001712849D01*
X003778834Y001710683D01*
X003791296Y001708687D01*
X003803784Y001706859D01*
X003816296Y001705200D01*
X003828828Y001703711D01*
X003841380Y001702392D01*
X003853949Y001701243D01*
X003866532Y001700264D01*
X003879127Y001699456D01*
X003891732Y001698819D01*
X003886768Y001687416D01*
X003881723Y001676049D01*
X003876599Y001664718D01*
X003871395Y001653423D01*
X003866111Y001642165D01*
X003860748Y001630945D01*
X003855306Y001619763D01*
X003849785Y001608619D01*
X003844186Y001597515D01*
X003838509Y001586450D01*
X003832754Y001575426D01*
X003826921Y001564443D01*
X003821011Y001553501D01*
X003815024Y001542601D01*
X003808961Y001531743D01*
X003802820Y001520929D01*
X003796604Y001510157D01*
X003790312Y001499431D01*
X003783944Y001488748D01*
X003777501Y001478111D01*
X003770984Y001467520D01*
X003764392Y001456975D01*
X003757726Y001446477D01*
X003750985Y001436025D01*
X003744171Y001425622D01*
X003737285Y001415267D01*
X003730325Y001404961D01*
X003723293Y001394704D01*
X003716188Y001384497D01*
X003709012Y001374340D01*
X003701765Y001364235D01*
X003694445Y001354180D01*
X003687056Y001344177D01*
X003679596Y001334227D01*
X003672066Y001324330D01*
X003664467Y001314486D01*
X003656798Y001304696D01*
X003649061Y001294960D01*
X003641255Y001285279D01*
X003633381Y001275653D01*
X003625439Y001266083D01*
X003617430Y001256569D01*
X003609355Y001247112D01*
X003601212Y001237712D01*
X003593004Y001228370D01*
X003584729Y001219086D01*
X003576390Y001209860D01*
X003567986Y001200693D01*
X003559517Y001191587D01*
X003550985Y001182540D01*
X003542388Y001173553D01*
X003533729Y001164627D01*
X003525007Y001155762D01*
X003516222Y001146960D01*
X003507376Y001138219D01*
X003498468Y001129541D01*
X003489500Y001120926D01*
X003480470Y001112375D01*
X003471381Y001103887D01*
X003462232Y001095464D01*
X003453024Y001087105D01*
X003443757Y001078811D01*
X003434432Y001070583D01*
X003425049Y001062422D01*
X003415609Y001054326D01*
X003406112Y001046297D01*
X003396558Y001038335D01*
X003386949Y001030441D01*
X003377285Y001022615D01*
X003367565Y001014857D01*
X003357790Y001007168D01*
X003347963Y000999548D01*
X003338081Y000991998D01*
X003328146Y000984517D01*
X003318159Y000977107D01*
X003308120Y000969767D01*
X003305995Y000968237D01*
X004598147Y003795483D02*
X004598147Y003795483D01*
X004597790Y003795216D01*
X004597429Y003794954D01*
X004597066Y003794695D01*
X004596699Y003794441D01*
X004596330Y003794191D01*
X004595958Y003793945D01*
X004595583Y003793704D01*
X004595205Y003793466D01*
X004594825Y003793233D01*
X004594442Y003793005D01*
X004594057Y003792780D01*
X004593669Y003792560D01*
X004593279Y003792345D01*
X004592886Y003792134D01*
X004592491Y003791927D01*
X004592093Y003791725D01*
X004591694Y003791527D01*
X004591292Y003791334D01*
X004590887Y003791145D01*
X004590481Y003790961D01*
X004476654Y003740182D01*
X004473821Y003739048D01*
X004470910Y003738136D01*
X004467936Y003737453D01*
X004464919Y003737002D01*
X004461875Y003736787D01*
X004458825Y003736807D01*
X004455784Y003737064D01*
X004452773Y003737555D01*
X004449809Y003738278D01*
X004446910Y003739228D01*
X004444093Y003740400D01*
X004441376Y003741787D01*
X004438774Y003743380D01*
X004436303Y003745169D01*
X004433978Y003747145D01*
X004431813Y003749294D01*
X004429821Y003751605D01*
X004428014Y003754063D01*
X004426402Y003756654D01*
X004424996Y003759362D01*
X004422789Y003764049D01*
X004417559Y003775351D01*
X004412406Y003786689D01*
X004407330Y003798062D01*
X004402331Y003809469D01*
X004397410Y003820909D01*
X004392567Y003832383D01*
X004387801Y003843889D01*
X004383114Y003855428D01*
X004378506Y003866998D01*
X004373976Y003878599D01*
X004369525Y003890230D01*
X004365153Y003901892D01*
X004360861Y003913583D01*
X004356648Y003925302D01*
X004352514Y003937051D01*
X004348461Y003948826D01*
X004344488Y003960628D01*
X004344488Y003960629D01*
X004344487Y003960629D01*
X004344488Y003960628D01*
X004346456Y001992125D01*
X004275590Y001992125D01*
X004275590Y003960629D01*
X004275590Y003960630D01*
X004271598Y003948901D01*
X004267525Y003937201D01*
X004263373Y003925528D01*
X004259141Y003913885D01*
X004254830Y003902270D01*
X004250440Y003890685D01*
X004245971Y003879129D01*
X004241423Y003867605D01*
X004236796Y003856113D01*
X004232091Y003844652D01*
X004227309Y003833223D01*
X004222448Y003821827D01*
X004217510Y003810465D01*
X004212493Y003799137D01*
X004207401Y003787843D01*
X004202230Y003776584D01*
X004196983Y003765361D01*
X004191660Y003754174D01*
X004186261Y003743024D01*
X004180786Y003731910D01*
X004175234Y003720834D01*
X004169608Y003709797D01*
X004163906Y003698798D01*
X004158129Y003687838D01*
X004152278Y003676918D01*
X004146353Y003666038D01*
X004140352Y003655198D01*
X004134279Y003644400D01*
X004128132Y003633644D01*
X004121911Y003622930D01*
X004115618Y003612258D01*
X004109251Y003601630D01*
X004102813Y003591045D01*
X004096303Y003580505D01*
X004089720Y003570009D01*
X004083066Y003559559D01*
X004076341Y003549154D01*
X004069545Y003538795D01*
X004062679Y003528483D01*
X004055742Y003518218D01*
X004048735Y003508000D01*
X004041659Y003497831D01*
X004034513Y003487710D01*
X004027299Y003477638D01*
X004020016Y003467616D01*
X004012665Y003457643D01*
X004005247Y003447721D01*
X003997760Y003437850D01*
X003990206Y003428030D01*
X003982585Y003418262D01*
X003974898Y003408546D01*
X003967145Y003398883D01*
X003959326Y003389273D01*
X003951442Y003379716D01*
X003943492Y003370214D01*
X003935478Y003360766D01*
X003927400Y003351373D01*
X003919258Y003342035D01*
X003911052Y003332753D01*
X003902783Y003323528D01*
X003894452Y003314359D01*
X003886057Y003305247D01*
X003877601Y003296192D01*
X003869084Y003287196D01*
X003860505Y003278258D01*
X003851865Y003269378D01*
X003843165Y003260558D01*
X003834405Y003251797D01*
X003825585Y003243096D01*
X003816707Y003234456D01*
X003807769Y003225877D01*
X003798773Y003217358D01*
X003789719Y003208902D01*
X003780608Y003200507D01*
X003771439Y003192174D01*
X003762214Y003183905D01*
X003752933Y003175698D01*
X003743596Y003167555D01*
X003734203Y003159476D01*
X003724756Y003151462D01*
X003715254Y003143512D01*
X003705698Y003135627D01*
X003696089Y003127807D01*
X003686426Y003120053D01*
X003676711Y003112365D01*
X003666943Y003104744D01*
X003657124Y003097190D01*
X003647253Y003089702D01*
X003637332Y003082283D01*
X003627360Y003074931D01*
X003617338Y003067647D01*
X003607267Y003060432D01*
X003597146Y003053286D01*
X003586977Y003046209D01*
X003576761Y003039202D01*
X003566496Y003032265D01*
X003556185Y003025397D01*
X003545826Y003018601D01*
X003535422Y003011875D01*
X003524971Y003005220D01*
X003514476Y002998637D01*
X003503937Y002992126D01*
X003512161Y002982831D01*
X003520582Y002973713D01*
X003529194Y002964777D01*
X003537995Y002956026D01*
X003546981Y002947464D01*
X003556146Y002939096D01*
X003565489Y002930925D01*
X003575002Y002922954D01*
X003584684Y002915188D01*
X003594529Y002907631D01*
X003604532Y002900284D01*
X003614690Y002893153D01*
X003624997Y002886239D01*
X003635449Y002879546D01*
X003646041Y002873077D01*
X003656769Y002866836D01*
X003667628Y002860825D01*
X003678611Y002855046D01*
X003689716Y002849502D01*
X003700935Y002844196D01*
X003712266Y002839131D01*
X003723702Y002834307D01*
X003735237Y002829729D01*
X003746868Y002825397D01*
X003758589Y002821314D01*
X003770393Y002817482D01*
X003782277Y002813901D01*
X003794234Y002810575D01*
X003806260Y002807504D01*
X003818347Y002804690D01*
X003830493Y002802134D01*
X003842690Y002799838D01*
X003854933Y002797802D01*
X003867216Y002796027D01*
X003879535Y002794513D01*
X003891883Y002793263D01*
X003904256Y002792276D01*
X003916645Y002791553D01*
X003929048Y002791094D01*
X003941458Y002790899D01*
X003953869Y002790968D01*
X003966276Y002791302D01*
X003978673Y002791900D01*
X003991054Y002792762D01*
X004003414Y002793887D01*
X004015748Y002795275D01*
X004012458Y002783346D01*
X004009076Y002771442D01*
X004005602Y002759565D01*
X004002036Y002747715D01*
X003998378Y002735894D01*
X003994629Y002724101D01*
X003990787Y002712337D01*
X003986855Y002700604D01*
X003982832Y002688902D01*
X003978717Y002677231D01*
X003974513Y002665592D01*
X003970219Y002653987D01*
X003965834Y002642415D01*
X003961359Y002630878D01*
X003956795Y002619375D01*
X003952142Y002607909D01*
X003947400Y002596479D01*
X003942570Y002585086D01*
X003937651Y002573731D01*
X003932644Y002562415D01*
X003927549Y002551137D01*
X003922367Y002539900D01*
X003917098Y002528703D01*
X003911742Y002517547D01*
X003906299Y002506434D01*
X003900771Y002495362D01*
X003895157Y002484335D01*
X003889458Y002473351D01*
X003883672Y002462412D01*
X003877803Y002451518D01*
X003871849Y002440669D01*
X003865811Y002429868D01*
X003859689Y002419113D01*
X003853484Y002408407D01*
X003847196Y002397749D01*
X003840825Y002387140D01*
X003834373Y002376581D01*
X003827839Y002366072D01*
X003821222Y002355614D01*
X003814526Y002345208D01*
X003807748Y002334855D01*
X003800891Y002324554D01*
X003793953Y002314307D01*
X003786936Y002304114D01*
X003779840Y002293976D01*
X003772666Y002283893D01*
X003765414Y002273866D01*
X003758084Y002263896D01*
X003750677Y002253982D01*
X003743193Y002244127D01*
X003735633Y002234330D01*
X003727997Y002224593D01*
X003720286Y002214915D01*
X003712500Y002205297D01*
X003704639Y002195739D01*
X003696704Y002186243D01*
X003688696Y002176809D01*
X003680615Y002167438D01*
X003672461Y002158129D01*
X003664235Y002148884D01*
X003655938Y002139703D01*
X003647570Y002130587D01*
X003639131Y002121536D01*
X003630622Y002112551D01*
X003622044Y002103632D01*
X003613397Y002094780D01*
X003604681Y002085996D01*
X003595897Y002077279D01*
X003587046Y002068631D01*
X003578128Y002060051D01*
X003569144Y002051542D01*
X003560094Y002043102D01*
X003550978Y002034733D01*
X003541798Y002026435D01*
X003532554Y002018209D01*
X003523246Y002010054D01*
X003513875Y002001972D01*
X003504442Y001993963D01*
X003494947Y001986027D01*
X003485390Y001978166D01*
X003475773Y001970379D01*
X003466095Y001962666D01*
X003456358Y001955029D01*
X003446562Y001947469D01*
X003436707Y001939984D01*
X003426795Y001932576D01*
X003416826Y001925245D01*
X003406800Y001917992D01*
X003404879Y001916625D01*
X003403593Y001915747D01*
X003402273Y001914921D01*
X003400922Y001914148D01*
X003399541Y001913429D01*
X003398133Y001912765D01*
X003396700Y001912158D01*
X003395244Y001911607D01*
X003393767Y001911115D01*
X003392272Y001910681D01*
X003390761Y001910306D01*
X003389237Y001909992D01*
X003387701Y001909738D01*
X003386156Y001909545D01*
X003384605Y001909414D01*
X003383050Y001909343D01*
X003381493Y001909335D01*
X003379937Y001909387D01*
X003378385Y001909502D01*
X003376838Y001909677D01*
X003375299Y001909914D01*
X003300335Y001922962D01*
X003297642Y001923528D01*
X003294994Y001924281D01*
X003292406Y001925218D01*
X003289890Y001926333D01*
X003287457Y001927621D01*
X003285121Y001929075D01*
X003282892Y001930690D01*
X003280781Y001932456D01*
X003278799Y001934366D01*
X003276955Y001936409D01*
X003275258Y001938576D01*
X003273717Y001940856D01*
X003272339Y001943239D01*
X003271130Y001945712D01*
X003270098Y001948263D01*
X003269246Y001950880D01*
X003268579Y001953550D01*
X003268100Y001956261D01*
X003267812Y001958998D01*
X003267716Y001961749D01*
X003267716Y003779527D01*
X003266973Y003792751D01*
X003264755Y003805809D01*
X003261088Y003818537D01*
X003256019Y003830773D01*
X003249612Y003842365D01*
X003241948Y003853167D01*
X003233122Y003863044D01*
X003223246Y003871869D01*
X003212444Y003879533D01*
X003200852Y003885940D01*
X003188615Y003891009D01*
X003175888Y003894676D01*
X003162830Y003896894D01*
X003149606Y003897637D01*
X000787401Y003897637D01*
X000774177Y003896894D01*
X000761119Y003894676D01*
X000748392Y003891009D01*
X000736155Y003885940D01*
X000724562Y003879533D01*
X000713761Y003871869D01*
X000703884Y003863044D01*
X000695059Y003853167D01*
X000687394Y003842365D01*
X000680987Y003830773D01*
X000675919Y003818537D01*
X000672252Y003805809D01*
X000670033Y003792751D01*
X000669291Y003779527D01*
X000669291Y001141732D01*
X000670033Y001128507D01*
X000672252Y001115449D01*
X000675919Y001102722D01*
X000680987Y001090485D01*
X000687394Y001078893D01*
X000695059Y001068091D01*
X000703884Y001058215D01*
X000713761Y001049389D01*
X000724562Y001041725D01*
X000736155Y001035318D01*
X000748392Y001030250D01*
X000761119Y001026583D01*
X000774177Y001024364D01*
X000787401Y001023622D01*
X003077620Y001023622D01*
X003079460Y001023579D01*
X003081296Y001023450D01*
X003083124Y001023235D01*
X003084940Y001022935D01*
X003086740Y001022551D01*
X003088520Y001022083D01*
X003090276Y001021532D01*
X003092005Y001020900D01*
X003093702Y001020187D01*
X003095364Y001019397D01*
X003096987Y001018529D01*
X003098568Y001017586D01*
X003100103Y001016571D01*
X003101589Y001015485D01*
X003103022Y001014330D01*
X003104400Y001013110D01*
X003105720Y001011827D01*
X003106978Y001010484D01*
X003108172Y001009083D01*
X003109299Y001007628D01*
X003167840Y000928297D01*
X003169691Y000925556D01*
X003171305Y000922668D01*
X003172670Y000919655D01*
X003173778Y000916538D01*
X003174621Y000913339D01*
X003175192Y000910081D01*
X003175487Y000906786D01*
X003175505Y000903478D01*
X003175245Y000900180D01*
X003174709Y000896915D01*
X003173901Y000893708D01*
X003172826Y000890579D01*
X003171493Y000887552D01*
X003169910Y000884647D01*
X003168089Y000881885D01*
X003166042Y000879286D01*
X003163785Y000876868D01*
X003161332Y000874648D01*
X003158702Y000872642D01*
X003155912Y000870863D01*
X003155912Y000870863D01*
X003151637Y000868384D01*
X003140836Y000862221D01*
X003129991Y000856135D01*
X003119103Y000850126D01*
X003108173Y000844192D01*
X003097202Y000838337D01*
X003086190Y000832559D01*
X003075137Y000826858D01*
X003064045Y000821236D01*
X003052913Y000815692D01*
X003041742Y000810227D01*
X003030533Y000804841D01*
X003019286Y000799533D01*
X003008002Y000794306D01*
X002996682Y000789158D01*
X002985325Y000784090D01*
X002973933Y000779102D01*
X002983471Y000771016D01*
X002993086Y000763022D01*
X003002777Y000755120D01*
X003012542Y000747310D01*
X003022381Y000739595D01*
X003032293Y000731973D01*
X003042278Y000724445D01*
X003052334Y000717014D01*
X003062460Y000709678D01*
X003072655Y000702439D01*
X003082919Y000695297D01*
X003093251Y000688255D01*
X003103649Y000681310D01*
X003114113Y000674465D01*
X003124641Y000667720D01*
X003135234Y000661075D01*
X003145889Y000654532D01*
X003156606Y000648090D01*
X003167384Y000641751D01*
X003178222Y000635515D01*
X003189118Y000629382D01*
X003200073Y000623353D01*
X003211085Y000617429D01*
X003222152Y000611611D01*
X003233275Y000605897D01*
X003244451Y000600290D01*
X003255681Y000594790D01*
X003266962Y000589398D01*
X003278294Y000584112D01*
X003289675Y000578935D01*
X003301106Y000573867D01*
X003312585Y000568907D01*
X003324110Y000564058D01*
X003335681Y000559318D01*
X003347296Y000554689D01*
X003358955Y000550170D01*
X003370657Y000545763D01*
X003382400Y000541468D01*
X003394183Y000537285D01*
X003406006Y000533214D01*
X003417867Y000529256D01*
X003429765Y000525411D01*
X003441699Y000521679D01*
X003453668Y000518062D01*
X003465671Y000514558D01*
X003477707Y000511170D01*
X003489775Y000507896D01*
X003501874Y000504737D01*
X003514002Y000501693D01*
X003526158Y000498765D01*
X003538342Y000495953D01*
X003550552Y000493257D01*
X003562786Y000490678D01*
X003575045Y000488215D01*
X003587328Y000485870D01*
X003599631Y000483641D01*
X003611956Y000481530D01*
X003624300Y000479536D01*
X003636662Y000477660D01*
X003649042Y000475902D01*
X003661438Y000474261D01*
X003673848Y000472739D01*
X003686274Y000471335D01*
X003698711Y000470050D01*
X003711160Y000468883D01*
X003723620Y000467835D01*
X003736090Y000466906D01*
X003748568Y000466095D01*
X003761052Y000465403D01*
X003773543Y000464830D01*
X003786039Y000464376D01*
X003798538Y000464042D01*
X003811040Y000463826D01*
X003823544Y000463729D01*
X003836048Y000463752D01*
X003848551Y000463894D01*
X003861052Y000464155D01*
X003873551Y000464535D01*
X003886044Y000465034D01*
X003898534Y000465652D01*
X003911015Y000466389D01*
X003923490Y000467244D01*
X003935956Y000468219D01*
X003948412Y000469312D01*
X003960857Y000470524D01*
X003973290Y000471855D01*
X003985710Y000473303D01*
X003985257Y000460781D01*
X003984760Y000448260D01*
X003984217Y000435741D01*
X003983630Y000423224D01*
X003982997Y000410709D01*
X003982319Y000398196D01*
X003981597Y000385686D01*
X003980830Y000373179D01*
X003980018Y000360674D01*
X003979161Y000348173D01*
X003978260Y000335675D01*
X003977312Y000323179D01*
X003976321Y000310688D01*
X003975285Y000298200D01*
X003974203Y000285716D01*
X003973078Y000273236D01*
X003971907Y000260760D01*
X003970691Y000248288D01*
X003969431Y000235821D01*
X003968126Y000223358D01*
X003966776Y000210900D01*
X003965382Y000198447D01*
X003963943Y000186000D01*
X003962459Y000173557D01*
X003960931Y000161120D01*
X003959357Y000148688D01*
X003957740Y000136262D01*
X003956077Y000123842D01*
X003954371Y000111427D01*
X003952619Y000099019D01*
X003950823Y000086618D01*
X003948983Y000074223D01*
X003947098Y000061835D01*
X003945169Y000049454D01*
X003943195Y000037080D01*
X003941177Y000024712D01*
X003939114Y000012353D01*
X003937007Y000000000D01*
X004685039Y000000000D01*
X004682945Y000012315D01*
X004680908Y000024639D01*
X004678927Y000036973D01*
X004677003Y000049315D01*
X004675137Y000061667D01*
X004673327Y000074027D01*
X004671574Y000086395D01*
X004669879Y000098771D01*
X004668240Y000111155D01*
X004666659Y000123546D01*
X004665135Y000135944D01*
X004663668Y000148350D01*
X004662258Y000160762D01*
X004660905Y000173180D01*
X004659610Y000185604D01*
X004658371Y000198035D01*
X004657191Y000210470D01*
X004656067Y000222911D01*
X004655001Y000235357D01*
X004653993Y000247809D01*
X004653041Y000260264D01*
X004652148Y000272724D01*
X004651311Y000285187D01*
X004650532Y000297655D01*
X004649811Y000310125D01*
X004649146Y000322599D01*
X004648540Y000335077D01*
X004647992Y000347556D01*
X004647500Y000360038D01*
X004647067Y000372522D01*
X004646690Y000385008D01*
X004646372Y000397496D01*
X004646110Y000409985D01*
X004645907Y000422475D01*
X004645761Y000434966D01*
X004645673Y000447457D01*
X004645642Y000459949D01*
X004645669Y000472440D01*
X004645669Y000472441D01*
X004658094Y000471021D01*
X004670533Y000469718D01*
X004682984Y000468534D01*
X004695445Y000467468D01*
X004707916Y000466521D01*
X004720395Y000465692D01*
X004732882Y000464982D01*
X004745374Y000464390D01*
X004757872Y000463917D01*
X004770374Y000463562D01*
X004782878Y000463327D01*
X004795385Y000463210D01*
X004807891Y000463212D01*
X004820398Y000463334D01*
X004832902Y000463574D01*
X004845403Y000463932D01*
X004857901Y000464409D01*
X004870394Y000465005D01*
X004882880Y000465720D01*
X004895359Y000466553D01*
X004907829Y000467505D01*
X004920290Y000468575D01*
X004932741Y000469763D01*
X004945178Y000471070D01*
X004957604Y000472495D01*
X004970015Y000474038D01*
X004982411Y000475698D01*
X004994791Y000477476D01*
X005007153Y000479372D01*
X005019497Y000481385D01*
X005031821Y000483516D01*
X005044124Y000485763D01*
X005056405Y000488127D01*
X005068663Y000490608D01*
X005080898Y000493205D01*
X005093106Y000495918D01*
X005105289Y000498747D01*
X005117444Y000501691D01*
X005129571Y000504751D01*
X005141668Y000507926D01*
X005153735Y000511216D01*
X005165769Y000514620D01*
X005177770Y000518138D01*
X005189738Y000521770D01*
X005201671Y000525516D01*
X005213567Y000529375D01*
X005225426Y000533347D01*
X005237248Y000537431D01*
X005249030Y000541627D01*
X005260771Y000545935D01*
X005272471Y000550355D01*
X005284128Y000554885D01*
X005295742Y000559526D01*
X005307311Y000564277D01*
X005318834Y000569138D01*
X005330311Y000574108D01*
X005341741Y000579187D01*
X005353121Y000584374D01*
X005364451Y000589669D01*
X005375732Y000595071D01*
X005386959Y000600581D01*
X005398134Y000606196D01*
X005409255Y000611918D01*
X005420322Y000617745D01*
X005431332Y000623677D01*
X005442286Y000629713D01*
X005453182Y000635853D01*
X005464019Y000642096D01*
X005474797Y000648442D01*
X005485513Y000654890D01*
X005496167Y000661440D01*
X005506760Y000668090D01*
X005517287Y000674841D01*
X005527752Y000681691D01*
X005538149Y000688640D01*
X005548481Y000695689D01*
X005558746Y000702835D01*
X005568941Y000710077D01*
X005579068Y000717417D01*
X005589125Y000724852D01*
X005598702Y000732075D01*
X005599065Y000732346D01*
X005599430Y000732611D01*
X005599799Y000732873D01*
X005600170Y000733131D01*
X005600545Y000733384D01*
X005600922Y000733633D01*
X005601303Y000733877D01*
X005601686Y000734117D01*
X005602071Y000734353D01*
X005602460Y000734584D01*
X005602851Y000734811D01*
X005603244Y000735033D01*
X005603640Y000735251D01*
X005604039Y000735464D01*
X005604440Y000735673D01*
X005604844Y000735877D01*
X005605249Y000736076D01*
X005605657Y000736271D01*
X005606067Y000736461D01*
X005606480Y000736646D01*
X005719832Y000786792D01*
X005722668Y000787918D01*
X005725582Y000788820D01*
X005728557Y000789494D01*
X005731576Y000789935D01*
X005734619Y000790142D01*
X005737670Y000790112D01*
X005740709Y000789846D01*
X005743718Y000789345D01*
X005746680Y000788614D01*
X005749576Y000787654D01*
X005752389Y000786474D01*
X005755102Y000785079D01*
X005757699Y000783479D01*
X005760164Y000781682D01*
X005762483Y000779700D01*
X005764641Y000777544D01*
X005766626Y000775227D01*
X005768426Y000772764D01*
X005770030Y000770169D01*
X005771427Y000767457D01*
X005771427Y000767457D01*
X005774750Y000760347D01*
X005779960Y000748997D01*
X005785093Y000737611D01*
X005790148Y000726191D01*
X005795125Y000714736D01*
X005800023Y000703248D01*
X005804844Y000691726D01*
X005809585Y000680172D01*
X005814247Y000668586D01*
X005818830Y000656968D01*
X005823334Y000645319D01*
X005827758Y000633640D01*
X005832103Y000621931D01*
X005836367Y000610192D01*
X005840551Y000598425D01*
X005706692Y000696850D01*
X005773621Y000484251D01*
X005602362Y000358267D01*
X005814960Y000356299D01*
X005881889Y000155511D01*
X005948819Y000356299D01*
X006161417Y000356299D01*
X005990157Y000486220D01*
X006055118Y000687007D01*
X005933070Y000598425D01*
X005937276Y000610114D01*
X005941561Y000621774D01*
X005945927Y000633405D01*
X005950372Y000645005D01*
X005954896Y000656574D01*
X005959500Y000668113D01*
X005964183Y000679619D01*
X005968944Y000691093D01*
X005973784Y000702535D01*
X005978702Y000713942D01*
X005983699Y000725316D01*
X005988773Y000736655D01*
X005993926Y000747959D01*
X005999155Y000759227D01*
X006004462Y000770460D01*
X006009845Y000781655D01*
X006015305Y000792814D01*
X006020842Y000803935D01*
X006026454Y000815018D01*
X006032143Y000826061D01*
X006037907Y000837066D01*
X006043746Y000848031D01*
X006049661Y000858955D01*
X006055651Y000869839D01*
X006061714Y000880681D01*
X006067852Y000891482D01*
X006074064Y000902240D01*
X006080349Y000912955D01*
X006086708Y000923628D01*
X006093140Y000934255D01*
X006099645Y000944839D01*
X006106221Y000955378D01*
X006112871Y000965872D01*
X006119592Y000976319D01*
X006126384Y000986721D01*
X006133248Y000997075D01*
X006140182Y001007383D01*
X006147187Y001017642D01*
X006154263Y001027853D01*
X006161407Y001038016D01*
X006168622Y001048129D01*
X006175905Y001058192D01*
X006183258Y001068205D01*
X006190679Y001078168D01*
X006198168Y001088079D01*
X006205726Y001097939D01*
X006213350Y001107747D01*
X006221041Y001117503D01*
X006228799Y001127205D01*
X006236624Y001136854D01*
X006244515Y001146449D01*
X006252471Y001155990D01*
X006260492Y001165476D01*
X006268578Y001174907D01*
X006276729Y001184281D01*
X006284944Y001193600D01*
X006293222Y001202863D01*
X006301565Y001212068D01*
X006309969Y001221216D01*
X006318436Y001230306D01*
X006326966Y001239338D01*
X006335557Y001248311D01*
X006344210Y001257225D01*
X006352923Y001266080D01*
X006361697Y001274874D01*
X006370531Y001283608D01*
X006379425Y001292282D01*
X006388378Y001300894D01*
X006397390Y001309444D01*
X006406460Y001317933D01*
X006415589Y001326359D01*
X006424774Y001334722D01*
X006434017Y001343023D01*
X006443317Y001351259D01*
X006452673Y001359432D01*
X006462085Y001367540D01*
X006471552Y001375584D01*
X006481074Y001383562D01*
X006490651Y001391475D01*
X006500281Y001399322D01*
X006509965Y001407103D01*
X006519703Y001414817D01*
X006529493Y001422465D01*
X006539335Y001430045D01*
X006549229Y001437557D01*
X006559174Y001445001D01*
X006569170Y001452377D01*
X006579216Y001459685D01*
X006589313Y001466923D01*
X006599459Y001474091D01*
X006609653Y001481190D01*
X006619896Y001488219D01*
X006630187Y001495178D01*
X006640525Y001502066D01*
X006650911Y001508882D01*
X006661343Y001515628D01*
X006671821Y001522301D01*
X006682344Y001528903D01*
X006692913Y001535432D01*
X006692913Y001535432D01*
X006684688Y001544727D01*
X006676268Y001553845D01*
X006667655Y001562781D01*
X006658854Y001571533D01*
X006649869Y001580094D01*
X006640703Y001588462D01*
X006631361Y001596633D01*
X006621847Y001604604D01*
X006612166Y001612370D01*
X006602321Y001619928D01*
X006592318Y001627274D01*
X006582160Y001634405D01*
X006571853Y001641319D01*
X006561400Y001648012D01*
X006550808Y001654481D01*
X006540080Y001660722D01*
X006529222Y001666733D01*
X006518238Y001672512D01*
X006507134Y001678056D01*
X006495914Y001683362D01*
X006484583Y001688427D01*
X006473148Y001693251D01*
X006461612Y001697829D01*
X006449981Y001702161D01*
X006438261Y001706244D01*
X006426456Y001710076D01*
X006414572Y001713657D01*
X006402615Y001716983D01*
X006390590Y001720054D01*
X006378502Y001722868D01*
X006366356Y001725424D01*
X006354160Y001727720D01*
X006341916Y001729757D01*
X006329633Y001731531D01*
X006317314Y001733045D01*
X006304966Y001734295D01*
X006292594Y001735282D01*
X006280204Y001736005D01*
X006267801Y001736464D01*
X006255392Y001736659D01*
X006242980Y001736590D01*
X006230573Y001736256D01*
X006218177Y001735658D01*
X006205795Y001734796D01*
X006193435Y001733671D01*
X006181102Y001732283D01*
X006184392Y001744212D01*
X006187773Y001756116D01*
X006191247Y001767993D01*
X006194813Y001779843D01*
X006198471Y001791664D01*
X006202221Y001803457D01*
X006206062Y001815221D01*
X006209994Y001826954D01*
X006214018Y001838656D01*
X006218132Y001850327D01*
X006222336Y001861966D01*
X006226631Y001873571D01*
X006231016Y001885143D01*
X006235490Y001896680D01*
X006240054Y001908183D01*
X006244708Y001919649D01*
X006249449Y001931079D01*
X006254280Y001942472D01*
X006259199Y001953827D01*
X006264206Y001965143D01*
X006269300Y001976421D01*
X006274483Y001987658D01*
X006279752Y001998855D01*
X006285107Y002010011D01*
X006290550Y002021124D01*
X006296078Y002032196D01*
X006301693Y002043223D01*
X006307392Y002054207D01*
X006313177Y002065146D01*
X006319047Y002076040D01*
X006325001Y002086889D01*
X006331039Y002097690D01*
X006337160Y002108445D01*
X006343365Y002119152D01*
X006349654Y002129809D01*
X006356024Y002140418D01*
X006362477Y002150978D01*
X006369011Y002161486D01*
X006375627Y002171944D01*
X006382324Y002182350D01*
X006389101Y002192703D01*
X006395959Y002203004D01*
X006402896Y002213251D01*
X006409913Y002223444D01*
X006417009Y002233583D01*
X006424183Y002243665D01*
X006431435Y002253692D01*
X006438765Y002263662D01*
X006446172Y002273576D01*
X006453656Y002283431D01*
X006461216Y002293228D01*
X006468852Y002302965D01*
X006476564Y002312643D01*
X006484350Y002322261D01*
X006492211Y002331819D01*
X006500145Y002341315D01*
X006508154Y002350749D01*
X006516234Y002360120D01*
X006524389Y002369429D01*
X006532614Y002378674D01*
X006540911Y002387855D01*
X006549279Y002396971D01*
X006557719Y002406022D01*
X006566227Y002415007D01*
X006574805Y002423926D01*
X006583453Y002432778D01*
X006592169Y002441563D01*
X006600952Y002450279D01*
X006609804Y002458928D01*
X006618721Y002467507D01*
X006627706Y002476016D01*
X006636756Y002484456D01*
X006645871Y002492825D01*
X006655051Y002501123D01*
X006664295Y002509349D01*
X006673603Y002517504D01*
X006682974Y002525586D01*
X006692408Y002533595D01*
X006701903Y002541531D01*
X006711459Y002549392D01*
X006721077Y002557179D01*
X006730754Y002564892D01*
X006740491Y002572529D01*
X006750287Y002580090D01*
X006760142Y002587574D01*
X006770054Y002594982D01*
X006780023Y002602313D01*
X006790050Y002609566D01*
X006800132Y002616742D01*
X006810269Y002623838D01*
X006820462Y002630856D01*
X006830708Y002637795D01*
X006820634Y002645397D01*
X006810457Y002652861D01*
X006800180Y002660187D01*
X006789805Y002667374D01*
X006779333Y002674419D01*
X006768767Y002681322D01*
X006758108Y002688081D01*
X006747359Y002694695D01*
X006736521Y002701163D01*
X006725598Y002707483D01*
X006714588Y002713655D01*
X006703497Y002719677D01*
X006692325Y002725549D01*
X006681075Y002731269D01*
X006669748Y002736836D01*
X006658347Y002742249D01*
X006646873Y002747507D01*
X006635329Y002752609D01*
X006623718Y002757555D01*
X006612040Y002762343D01*
X006600299Y002766972D01*
X006588496Y002771442D01*
X006576633Y002775751D01*
X006564714Y002779900D01*
X006552739Y002783887D01*
X006540711Y002787711D01*
X006528633Y002791372D01*
X006516506Y002794869D01*
X006504333Y002798202D01*
X006492116Y002801369D01*
X006479857Y002804370D01*
X006467559Y002807206D01*
X006455223Y002809874D01*
X006442853Y002812375D01*
X006430449Y002814709D01*
X006418015Y002816875D01*
X006405554Y002818871D01*
X006393066Y002820699D01*
X006380554Y002822358D01*
X006368021Y002823847D01*
X006355469Y002825166D01*
X006342901Y002826315D01*
X006330318Y002827294D01*
X006317723Y002828102D01*
X006305117Y002828739D01*
X006310082Y002840142D01*
X006315126Y002851509D01*
X006320251Y002862840D01*
X006325455Y002874135D01*
X006330738Y002885393D01*
X006336102Y002896613D01*
X006341543Y002907795D01*
X006347064Y002918939D01*
X006352663Y002930043D01*
X006358340Y002941108D01*
X006364095Y002952132D01*
X006369928Y002963115D01*
X006375838Y002974057D01*
X006381825Y002984957D01*
X006387889Y002995815D01*
X006394029Y003006629D01*
X006400246Y003017401D01*
X006406538Y003028128D01*
X006412905Y003038810D01*
X006419348Y003049447D01*
X006425865Y003060038D01*
X006432457Y003070583D01*
X006439124Y003081082D01*
X006445864Y003091533D01*
X006452678Y003101936D01*
X006459565Y003112291D01*
X006466524Y003122597D01*
X006473557Y003132854D01*
X006480661Y003143061D01*
X006487837Y003153218D01*
X006495085Y003163323D01*
X006502404Y003173378D01*
X006509793Y003183381D01*
X006517253Y003193331D01*
X006524783Y003203228D01*
X006532382Y003213072D01*
X006540051Y003222862D01*
X006547789Y003232598D01*
X006555594Y003242280D01*
X006563468Y003251905D01*
X006571410Y003261475D01*
X006579419Y003270989D01*
X006587495Y003280446D01*
X006595637Y003289846D01*
X006603846Y003299188D01*
X006612120Y003308472D01*
X006620459Y003317698D01*
X006628864Y003326865D01*
X006637332Y003335971D01*
X006645865Y003345018D01*
X006654461Y003354005D01*
X006663120Y003362931D01*
X006671843Y003371796D01*
X006680627Y003380598D01*
X006689474Y003389339D01*
X006698381Y003398017D01*
X006707350Y003406632D01*
X006716379Y003415183D01*
X006725468Y003423671D01*
X006734617Y003432094D01*
X006743826Y003440453D01*
X006753092Y003448747D01*
X006762417Y003456975D01*
X006771800Y003465137D01*
X006781241Y003473232D01*
X006790737Y003481261D01*
X006800291Y003489223D01*
X006809900Y003497117D01*
X006819565Y003504943D01*
X006829284Y003512701D01*
X006839059Y003520390D01*
X006848887Y003528010D01*
X006858768Y003535560D01*
X006868703Y003543041D01*
X006878690Y003550451D01*
X006888729Y003557791D01*
X006898820Y003565060D01*
X006908962Y003572257D01*
X006919154Y003579383D01*
X006929396Y003586436D01*
X006939688Y003593418D01*
X006950028Y003600326D01*
X006960417Y003607162D01*
X006970855Y003613924D01*
X006981339Y003620612D01*
X006991870Y003627226D01*
X007002448Y003633766D01*
X007013071Y003640231D01*
X007023741Y003646620D01*
X007034454Y003652935D01*
X007045212Y003659174D01*
X007056014Y003665337D01*
X007066859Y003671423D01*
X007077746Y003677433D01*
X007088676Y003683366D01*
X007099647Y003689221D01*
X007110659Y003694999D01*
X007121712Y003700700D01*
X007132805Y003706322D01*
X007143937Y003711866D01*
X007155107Y003717331D01*
X007166317Y003722718D01*
X007177563Y003728025D01*
X007188847Y003733252D01*
X007200168Y003738400D01*
X007211524Y003743468D01*
X007222916Y003748456D01*
X007213378Y003756542D01*
X007203763Y003764536D01*
X007194073Y003772438D01*
X007184308Y003780248D01*
X007174468Y003787964D01*
X007164556Y003795585D01*
X007154571Y003803113D01*
X007144516Y003810544D01*
X007134390Y003817880D01*
X007124194Y003825119D01*
X007113930Y003832261D01*
X007103599Y003839303D01*
X007093201Y003846248D01*
X007082736Y003853093D01*
X007072208Y003859838D01*
X007061616Y003866483D01*
X007050961Y003873026D01*
X007040243Y003879468D01*
X007029466Y003885807D01*
X007018627Y003892044D01*
X007007731Y003898176D01*
X006996776Y003904205D01*
X006985764Y003910129D01*
X006974697Y003915948D01*
X006963575Y003921661D01*
X006952398Y003927268D01*
X006941169Y003932768D01*
X006929888Y003938160D01*
X006918556Y003943446D01*
X006907174Y003948623D01*
X006895743Y003953691D01*
X006884265Y003958651D01*
X006872740Y003963500D01*
X006861169Y003968240D01*
X006849553Y003972869D01*
X006837894Y003977388D01*
X006826193Y003981795D01*
X006814449Y003986090D01*
X006802666Y003990273D01*
X006790844Y003994344D01*
X006778983Y003998302D01*
X006767084Y004002147D01*
X006755150Y004005879D01*
X006743181Y004009496D01*
X006731178Y004013000D01*
X006719142Y004016389D01*
X006707074Y004019663D01*
X006694976Y004022822D01*
X006682848Y004025865D01*
X006670692Y004028793D01*
X006658508Y004031605D01*
X006646298Y004034301D01*
X006634063Y004036880D01*
X006621804Y004039343D01*
X006609522Y004041688D01*
X006597218Y004043917D01*
X006584894Y004046028D01*
X006572550Y004048022D01*
X006560187Y004049898D01*
X006547808Y004051656D01*
X006535412Y004053297D01*
X006523001Y004054819D01*
X006510576Y004056223D01*
X006498138Y004057508D01*
X006485689Y004058675D01*
X006473229Y004059723D01*
X006460760Y004060653D01*
X006448282Y004061463D01*
X006435797Y004062155D01*
X006423306Y004062728D01*
X006410811Y004063182D01*
X006398311Y004063517D01*
X006385809Y004063732D01*
X006373306Y004063829D01*
X006360801Y004063806D01*
X006348298Y004063664D01*
X006335797Y004063403D01*
X006323299Y004063023D01*
X006310805Y004062524D01*
X006298316Y004061906D01*
X006285834Y004061169D01*
X006273359Y004060314D01*
X006260893Y004059339D01*
X006248438Y004058246D01*
X006235993Y004057034D01*
X006223559Y004055703D01*
X006211139Y004054255D01*
X006211589Y004066737D01*
X006212081Y004079217D01*
X006212614Y004091696D01*
X006213190Y004104173D01*
X006213807Y004116648D01*
X006214466Y004129121D01*
X006215167Y004141591D01*
X006215909Y004154059D01*
X006216694Y004166525D01*
X006217520Y004178988D01*
X006218388Y004191448D01*
X006219297Y004203905D01*
X006220249Y004216359D01*
X006221243Y004228809D01*
X006222277Y004241257D01*
X006223354Y004253700D01*
X006224473Y004266140D01*
X006225633Y004278577D01*
X006226835Y004291009D01*
X006228079Y004303437D01*
X006229363Y004315861D01*
X006230691Y004328281D01*
X006232060Y004340695D01*
X006233470Y004353106D01*
X006234921Y004365511D01*
X006236414Y004377912D01*
X006237949Y004390307D01*
X006239526Y004402698D01*
X006241144Y004415083D01*
X006242803Y004427462D01*
X006244505Y004439836D01*
X006246247Y004452204D01*
X006248031Y004464566D01*
X006059054Y004464566D01*
X006059054Y004527559D01*
X005921259Y004527559D01*
X005921259Y002515748D01*
X005850393Y002515748D01*
X005850393Y004527559D01*
X005712598Y004527559D01*
X005712598Y004464566D01*
X005523622Y004464566D01*
X005525318Y004452236D01*
X005526960Y004439899D01*
X005528549Y004427554D01*
X005530084Y004415203D01*
X005531566Y004402845D01*
X005532994Y004390481D01*
X005534368Y004378111D01*
X005535689Y004365735D01*
X005536956Y004353353D01*
X005538168Y004340966D01*
X005539327Y004328574D01*
X005540433Y004316177D01*
X005541484Y004303775D01*
X005542481Y004291369D01*
X005543425Y004278959D01*
X005544315Y004266544D01*
X005545151Y004254126D01*
X005545933Y004241705D01*
X005546661Y004229280D01*
X005547335Y004216851D01*
X005547955Y004204421D01*
X005548521Y004191987D01*
X005549032Y004179552D01*
X005549491Y004167114D01*
X005549894Y004154674D01*
X005550245Y004142233D01*
X005550540Y004129790D01*
X005550782Y004117346D01*
X005550970Y004104902D01*
X005551104Y004092456D01*
X005551184Y004080010D01*
X005551209Y004067564D01*
X005551181Y004055117D01*
X005538755Y004056537D01*
X005526316Y004057840D01*
X005513866Y004059024D01*
X005501405Y004060090D01*
X005488934Y004061037D01*
X005476454Y004061866D01*
X005463968Y004062576D01*
X005451475Y004063168D01*
X005438977Y004063641D01*
X005426475Y004063996D01*
X005413971Y004064231D01*
X005401465Y004064348D01*
X005388958Y004064346D01*
X005376452Y004064224D01*
X005363947Y004063985D01*
X005351446Y004063626D01*
X005338948Y004063149D01*
X005326456Y004062553D01*
X005313970Y004061838D01*
X005301490Y004061005D01*
X005289020Y004060053D01*
X005276559Y004058983D01*
X005264109Y004057795D01*
X005251671Y004056488D01*
X005239245Y004055063D01*
X005226834Y004053520D01*
X005214438Y004051860D01*
X005202058Y004050082D01*
X005189696Y004048186D01*
X005177353Y004046173D01*
X005165029Y004044042D01*
X005152726Y004041795D01*
X005140444Y004039431D01*
X005128186Y004036950D01*
X005115952Y004034353D01*
X005103743Y004031640D01*
X005091560Y004028811D01*
X005079405Y004025867D01*
X005067278Y004022807D01*
X005055182Y004019632D01*
X005043115Y004016342D01*
X005031081Y004012938D01*
X005019079Y004009420D01*
X005007111Y004005788D01*
X004995179Y004002042D01*
X004983282Y003998183D01*
X004971423Y003994211D01*
X004959602Y003990127D01*
X004947820Y003985931D01*
X004936078Y003981623D01*
X004924378Y003977203D01*
X004912721Y003972673D01*
X004901108Y003968032D01*
X004889538Y003963281D01*
X004878015Y003958420D01*
X004866538Y003953450D01*
X004855109Y003948371D01*
X004843728Y003943184D01*
X004832398Y003937889D01*
X004821118Y003932487D01*
X004809890Y003926977D01*
X004798715Y003921362D01*
X004787594Y003915640D01*
X004776527Y003909813D01*
X004765518Y003903881D01*
X004754563Y003897845D01*
X004743667Y003891705D01*
X004732831Y003885462D01*
X004722053Y003879116D01*
X004711336Y003872668D01*
X004700682Y003866118D01*
X004690090Y003859468D01*
X004679562Y003852717D01*
X004669098Y003845867D01*
X004658700Y003838918D01*
X004648368Y003831870D01*
X004638104Y003824723D01*
X004627908Y003817481D01*
X004617781Y003810141D01*
X004607725Y003802706D01*
X004598147Y003795483D01*
X005178071Y002770745D02*
X005178071Y002770745D01*
X005174996Y002769727D01*
X005171849Y002768966D01*
X005168649Y002768466D01*
X005165418Y002768230D01*
X005162180Y002768261D01*
X005158955Y002768558D01*
X005155765Y002769119D01*
X005152632Y002769941D01*
X005149577Y002771017D01*
X005146621Y002772340D01*
X005143784Y002773902D01*
X005141085Y002775692D01*
X005138542Y002777698D01*
X005136173Y002779906D01*
X005133993Y002782301D01*
X005132017Y002784868D01*
X005130259Y002787588D01*
X005128730Y002790443D01*
X005127442Y002793414D01*
X005126402Y002796482D01*
X005092481Y002911924D01*
X005091947Y002913934D01*
X005091521Y002915968D01*
X005091203Y002918023D01*
X005090993Y002920091D01*
X005090893Y002922167D01*
X005090903Y002924246D01*
X005091022Y002926322D01*
X005091251Y002928388D01*
X005091589Y002930440D01*
X005092034Y002932470D01*
X005092586Y002934474D01*
X005093243Y002936447D01*
X005094003Y002938382D01*
X005094864Y002940274D01*
X005095824Y002942118D01*
X005096880Y002943909D01*
X005098029Y002945641D01*
X005099268Y002947311D01*
X005100593Y002948913D01*
X005102001Y002950442D01*
X005109162Y002957820D01*
X005117678Y002967003D01*
X005125984Y002976378D01*
X005115388Y002982923D01*
X005104838Y002989541D01*
X005094332Y002996229D01*
X005083872Y003002989D01*
X005073459Y003009820D01*
X005063092Y003016721D01*
X005052772Y003023692D01*
X005042499Y003030734D01*
X005032275Y003037845D01*
X005022100Y003045025D01*
X005011973Y003052275D01*
X005001895Y003059593D01*
X004991868Y003066979D01*
X004981891Y003074433D01*
X004971965Y003081955D01*
X004962090Y003089544D01*
X004952267Y003097200D01*
X004942496Y003104922D01*
X004932779Y003112710D01*
X004923113Y003120564D01*
X004913502Y003128484D01*
X004903944Y003136469D01*
X004894441Y003144519D01*
X004884993Y003152633D01*
X004875600Y003160810D01*
X004866263Y003169052D01*
X004856983Y003177357D01*
X004847758Y003185724D01*
X004838591Y003194154D01*
X004829481Y003202646D01*
X004820429Y003211200D01*
X004811436Y003219815D01*
X004802501Y003228491D01*
X004793625Y003237227D01*
X004784809Y003246024D01*
X004776053Y003254880D01*
X004767357Y003263796D01*
X004758721Y003272770D01*
X004750148Y003281802D01*
X004741635Y003290893D01*
X004733185Y003300041D01*
X004724796Y003309247D01*
X004716471Y003318509D01*
X004708208Y003327827D01*
X004700009Y003337202D01*
X004691874Y003346632D01*
X004683803Y003356117D01*
X004675797Y003365656D01*
X004667856Y003375250D01*
X004659980Y003384897D01*
X004652169Y003394598D01*
X004644425Y003404351D01*
X004636747Y003414157D01*
X004629136Y003424015D01*
X004621592Y003433924D01*
X004614116Y003443884D01*
X004606707Y003453895D01*
X004599367Y003463956D01*
X004592095Y003474066D01*
X004584891Y003484226D01*
X004577758Y003494434D01*
X004570693Y003504691D01*
X004563698Y003514995D01*
X004556774Y003525346D01*
X004549919Y003535745D01*
X004543136Y003546189D01*
X004536424Y003556680D01*
X004529783Y003567215D01*
X004523213Y003577796D01*
X004520084Y003582913D01*
X004518686Y003585398D01*
X004517472Y003587976D01*
X004516447Y003590636D01*
X004515617Y003593364D01*
X004514987Y003596144D01*
X004514560Y003598962D01*
X004514338Y003601804D01*
X004514322Y003604654D01*
X004514512Y003607498D01*
X004514907Y003610321D01*
X004515506Y003613108D01*
X004516305Y003615845D01*
X004517300Y003618516D01*
X004518485Y003621108D01*
X004519855Y003623608D01*
X004521402Y003626002D01*
X004523119Y003628278D01*
X004524995Y003630424D01*
X004527022Y003632428D01*
X004529188Y003634281D01*
X004602867Y003692795D01*
X004604684Y003694155D01*
X004606577Y003695408D01*
X004608539Y003696549D01*
X004610563Y003697576D01*
X004612643Y003698484D01*
X004614772Y003699271D01*
X004616943Y003699934D01*
X004619148Y003700471D01*
X004621381Y003700880D01*
X004623634Y003701159D01*
X004625899Y003701308D01*
X004628168Y003701327D01*
X004630435Y003701214D01*
X004632692Y003700971D01*
X004634931Y003700599D01*
X004637145Y003700098D01*
X004639326Y003699470D01*
X004641468Y003698717D01*
X004643562Y003697843D01*
X004645603Y003696849D01*
X004651074Y003693986D01*
X004662031Y003688155D01*
X004672947Y003682247D01*
X004683821Y003676264D01*
X004694653Y003670204D01*
X004705442Y003664069D01*
X004716188Y003657859D01*
X004726891Y003651573D01*
X004737549Y003645213D01*
X004748162Y003638779D01*
X004758730Y003632270D01*
X004769253Y003625688D01*
X004779729Y003619032D01*
X004790159Y003612304D01*
X004800541Y003605502D01*
X004810876Y003598628D01*
X004821162Y003591683D01*
X004831399Y003584665D01*
X004841587Y003577576D01*
X004851725Y003570416D01*
X004861813Y003563185D01*
X004871850Y003555884D01*
X004881836Y003548513D01*
X004891770Y003541072D01*
X004901651Y003533562D01*
X004911481Y003525982D01*
X004921256Y003518335D01*
X004930979Y003510619D01*
X004940646Y003502836D01*
X004950259Y003494985D01*
X004959818Y003487068D01*
X004969320Y003479083D01*
X004978767Y003471032D01*
X004988157Y003462916D01*
X004997490Y003454734D01*
X005006765Y003446487D01*
X005015983Y003438175D01*
X005025142Y003429799D01*
X005034243Y003421359D01*
X005043284Y003412856D01*
X005052266Y003404290D01*
X005061187Y003395661D01*
X005070048Y003386970D01*
X005078848Y003378218D01*
X005087587Y003369404D01*
X005096264Y003360529D01*
X005104878Y003351594D01*
X005113430Y003342598D01*
X005121919Y003333544D01*
X005130344Y003324429D01*
X005138706Y003315257D01*
X005147003Y003306026D01*
X005155235Y003296737D01*
X005163403Y003287392D01*
X005171504Y003277988D01*
X005179539Y003268529D01*
X005187508Y003259014D01*
X005195411Y003249444D01*
X005203247Y003239818D01*
X005211015Y003230137D01*
X005218715Y003220403D01*
X005226347Y003210615D01*
X005233910Y003200774D01*
X005241404Y003190881D01*
X005248829Y003180935D01*
X005256185Y003170937D01*
X005263470Y003160889D01*
X005270685Y003150789D01*
X005277828Y003140640D01*
X005284902Y003130440D01*
X005291903Y003120192D01*
X005298833Y003109895D01*
X005305690Y003099549D01*
X005312475Y003089157D01*
X005319187Y003078716D01*
X005325826Y003068229D01*
X005332391Y003057696D01*
X005338883Y003047118D01*
X005345300Y003036494D01*
X005351644Y003025826D01*
X005357912Y003015113D01*
X005364105Y003004357D01*
X005370223Y002993558D01*
X005376266Y002982716D01*
X005382232Y002971833D01*
X005388122Y002960908D01*
X005393936Y002949942D01*
X005399673Y002938936D01*
X005405332Y002927890D01*
X005410915Y002916804D01*
X005416420Y002905680D01*
X005421846Y002894518D01*
X005427195Y002883318D01*
X005432465Y002872081D01*
X005437657Y002860806D01*
X005442769Y002849497D01*
X005447803Y002838152D01*
X005452755Y002826772D01*
X005440172Y002826132D01*
X005427598Y002825315D01*
X005415037Y002824320D01*
X005402491Y002823149D01*
X005389963Y002821801D01*
X005377455Y002820278D01*
X005364970Y002818577D01*
X005352510Y002816701D01*
X005340078Y002814650D01*
X005327676Y002812424D01*
X005315306Y002810024D01*
X005302972Y002807449D01*
X005290675Y002804701D01*
X005278418Y002801779D01*
X005266203Y002798686D01*
X005254033Y002795421D01*
X005241911Y002791984D01*
X005229837Y002788377D01*
X005217816Y002784601D01*
X005205850Y002780655D01*
X005193940Y002776542D01*
X005182089Y002772260D01*
X005178071Y002770745D01*
X005190482Y001654653D02*
X005190482Y001654653D01*
X005187426Y001652869D01*
X005184223Y001651366D01*
X005180897Y001650156D01*
X005177476Y001649251D01*
X005173988Y001648656D01*
X005170461Y001648376D01*
X005166923Y001648414D01*
X005163402Y001648770D01*
X005159928Y001649441D01*
X005156527Y001650421D01*
X005153229Y001651702D01*
X005150059Y001653274D01*
X005147043Y001655124D01*
X005144205Y001657238D01*
X005141568Y001659598D01*
X005139154Y001662185D01*
X005136983Y001664979D01*
X005135070Y001667956D01*
X005133433Y001671093D01*
X005132084Y001674364D01*
X005103067Y001754808D01*
X005102207Y001757487D01*
X005101541Y001760220D01*
X005101072Y001762994D01*
X005100802Y001765794D01*
X005100733Y001768607D01*
X005100865Y001771417D01*
X005101198Y001774210D01*
X005101728Y001776973D01*
X005102455Y001779691D01*
X005103374Y001782350D01*
X005104481Y001784936D01*
X005105769Y001787437D01*
X005107233Y001789839D01*
X005108865Y001792131D01*
X005110656Y001794301D01*
X005112597Y001796337D01*
X005114679Y001798229D01*
X005116891Y001799967D01*
X005119221Y001801544D01*
X005121658Y001802950D01*
X005129505Y001807111D01*
X005140552Y001813170D01*
X005151514Y001819383D01*
X005162387Y001825751D01*
X005173169Y001832271D01*
X005183858Y001838943D01*
X005194452Y001845765D01*
X005204949Y001852734D01*
X005215347Y001859852D01*
X005225643Y001867114D01*
X005235837Y001874522D01*
X005245924Y001882072D01*
X005255905Y001889763D01*
X005245658Y001896702D01*
X005235466Y001903720D01*
X005225328Y001910817D01*
X005215246Y001917992D01*
X005205220Y001925245D01*
X005195251Y001932576D01*
X005185339Y001939983D01*
X005175484Y001947469D01*
X005165688Y001955029D01*
X005155951Y001962666D01*
X005146273Y001970379D01*
X005136656Y001978166D01*
X005127099Y001986027D01*
X005117605Y001993963D01*
X005108170Y002001972D01*
X005098800Y002010054D01*
X005089492Y002018209D01*
X005080248Y002026435D01*
X005071068Y002034733D01*
X005061952Y002043102D01*
X005052902Y002051542D01*
X005043918Y002060051D01*
X005035000Y002068631D01*
X005026148Y002077279D01*
X005017365Y002085996D01*
X005008649Y002094780D01*
X005000002Y002103632D01*
X004991423Y002112551D01*
X004982915Y002121536D01*
X004974476Y002130587D01*
X004966108Y002139703D01*
X004957811Y002148884D01*
X004949585Y002158129D01*
X004941431Y002167438D01*
X004933350Y002176809D01*
X004925341Y002186243D01*
X004917407Y002195739D01*
X004909546Y002205297D01*
X004901760Y002214915D01*
X004894049Y002224593D01*
X004886413Y002234330D01*
X004878853Y002244127D01*
X004871369Y002253982D01*
X004863962Y002263896D01*
X004856632Y002273866D01*
X004849380Y002283893D01*
X004842206Y002293976D01*
X004835110Y002304114D01*
X004828093Y002314307D01*
X004821156Y002324554D01*
X004814298Y002334855D01*
X004807520Y002345208D01*
X004800824Y002355614D01*
X004794208Y002366072D01*
X004787673Y002376581D01*
X004781220Y002387140D01*
X004774850Y002397749D01*
X004768562Y002408407D01*
X004762357Y002419113D01*
X004756236Y002429868D01*
X004750197Y002440669D01*
X004744243Y002451518D01*
X004738374Y002462412D01*
X004732589Y002473351D01*
X004726889Y002484335D01*
X004721275Y002495362D01*
X004715746Y002506434D01*
X004710304Y002517547D01*
X004704948Y002528703D01*
X004699679Y002539900D01*
X004694497Y002551137D01*
X004689402Y002562415D01*
X004684395Y002573731D01*
X004679477Y002585086D01*
X004674646Y002596479D01*
X004669904Y002607909D01*
X004665251Y002619375D01*
X004660687Y002630878D01*
X004656212Y002642415D01*
X004651828Y002653987D01*
X004647533Y002665592D01*
X004643328Y002677231D01*
X004639214Y002688902D01*
X004635191Y002700604D01*
X004631259Y002712337D01*
X004627417Y002724101D01*
X004623668Y002735894D01*
X004620010Y002747715D01*
X004616443Y002759565D01*
X004612969Y002771442D01*
X004609588Y002783346D01*
X004606299Y002795276D01*
X004618631Y002793092D01*
X004631010Y002791191D01*
X004643429Y002789571D01*
X004655881Y002788233D01*
X004668361Y002787177D01*
X004680861Y002786405D01*
X004693377Y002785917D01*
X004705899Y002785713D01*
X004718423Y002785793D01*
X004730941Y002786157D01*
X004743449Y002786805D01*
X004755939Y002787736D01*
X004768404Y002788951D01*
X004780838Y002790448D01*
X004793235Y002792226D01*
X004805589Y002794286D01*
X004817893Y002796625D01*
X004830140Y002799242D01*
X004842326Y002802137D01*
X004854441Y002805307D01*
X004866483Y002808752D01*
X004878443Y002812468D01*
X004890316Y002816455D01*
X004902095Y002820711D01*
X004913774Y002825232D01*
X004925349Y002830018D01*
X004936811Y002835064D01*
X004948156Y002840369D01*
X004959377Y002845930D01*
X004961269Y002846922D01*
X004963458Y002847984D01*
X004965708Y002848909D01*
X004968011Y002849694D01*
X004970358Y002850334D01*
X004972740Y002850829D01*
X004975148Y002851175D01*
X004977572Y002851372D01*
X004980005Y002851419D01*
X004982435Y002851316D01*
X004984855Y002851063D01*
X004987254Y002850660D01*
X004989624Y002850111D01*
X004991955Y002849416D01*
X004994239Y002848578D01*
X004996467Y002847601D01*
X004998631Y002846488D01*
X005000721Y002845243D01*
X005002731Y002843872D01*
X005004652Y002842380D01*
X005006477Y002840771D01*
X005070303Y002780922D01*
X005072889Y002778258D01*
X005075212Y002775362D01*
X005077252Y002772260D01*
X005078990Y002768980D01*
X005080412Y002765550D01*
X005081505Y002762002D01*
X005082258Y002758367D01*
X005082666Y002754677D01*
X005082724Y002750965D01*
X005082433Y002747263D01*
X005081794Y002743606D01*
X005080813Y002740026D01*
X005079500Y002736553D01*
X005077865Y002733220D01*
X005075923Y002730055D01*
X005073692Y002727088D01*
X005071192Y002724344D01*
X005068444Y002721847D01*
X005065473Y002719621D01*
X005062306Y002717684D01*
X005062306Y002717684D01*
X005056297Y002714388D01*
X005045336Y002708175D01*
X005034463Y002701807D01*
X005023681Y002695287D01*
X005012991Y002688615D01*
X005002397Y002681794D01*
X004991900Y002674824D01*
X004981502Y002667707D01*
X004971206Y002660444D01*
X004961013Y002653036D01*
X004950925Y002645486D01*
X004940944Y002637795D01*
X004951191Y002630856D01*
X004961383Y002623838D01*
X004971521Y002616742D01*
X004981603Y002609566D01*
X004991629Y002602313D01*
X005001599Y002594982D01*
X005011511Y002587575D01*
X005021365Y002580090D01*
X005031162Y002572529D01*
X005040898Y002564892D01*
X005050576Y002557179D01*
X005060194Y002549392D01*
X005069750Y002541531D01*
X005079245Y002533595D01*
X005088679Y002525586D01*
X005098049Y002517504D01*
X005107357Y002509349D01*
X005116602Y002501123D01*
X005125782Y002492825D01*
X005134897Y002484456D01*
X005143947Y002476016D01*
X005152932Y002467507D01*
X005161850Y002458928D01*
X005170701Y002450279D01*
X005179484Y002441563D01*
X005188200Y002432778D01*
X005196847Y002423926D01*
X005205426Y002415007D01*
X005213934Y002406022D01*
X005222374Y002396971D01*
X005230742Y002387855D01*
X005239039Y002378674D01*
X005247265Y002369429D01*
X005255418Y002360120D01*
X005263500Y002350749D01*
X005271508Y002341315D01*
X005279443Y002331819D01*
X005287303Y002322261D01*
X005295089Y002312643D01*
X005302801Y002302965D01*
X005310437Y002293228D01*
X005317997Y002283431D01*
X005325481Y002273576D01*
X005332887Y002263662D01*
X005340218Y002253692D01*
X005347470Y002243665D01*
X005354644Y002233583D01*
X005361740Y002223444D01*
X005368756Y002213251D01*
X005375694Y002203004D01*
X005382552Y002192703D01*
X005389329Y002182350D01*
X005396026Y002171944D01*
X005402642Y002161486D01*
X005409177Y002150978D01*
X005415629Y002140418D01*
X005421999Y002129809D01*
X005428288Y002119152D01*
X005434492Y002108445D01*
X005440614Y002097690D01*
X005446652Y002086889D01*
X005452606Y002076040D01*
X005458476Y002065146D01*
X005464261Y002054207D01*
X005469961Y002043223D01*
X005475575Y002032196D01*
X005481103Y002021124D01*
X005486546Y002010011D01*
X005491901Y001998855D01*
X005497170Y001987658D01*
X005502352Y001976421D01*
X005507447Y001965143D01*
X005512454Y001953827D01*
X005517373Y001942472D01*
X005522203Y001931079D01*
X005526946Y001919649D01*
X005531599Y001908183D01*
X005536163Y001896680D01*
X005540637Y001885143D01*
X005545022Y001873571D01*
X005549317Y001861966D01*
X005553521Y001850327D01*
X005557636Y001838656D01*
X005561659Y001826954D01*
X005565591Y001815221D01*
X005569432Y001803457D01*
X005573181Y001791664D01*
X005576839Y001779843D01*
X005580406Y001767993D01*
X005583880Y001756116D01*
X005587262Y001744212D01*
X005590551Y001732283D01*
X005578219Y001734466D01*
X005565839Y001736367D01*
X005553420Y001737987D01*
X005540968Y001739325D01*
X005528488Y001740381D01*
X005515988Y001741153D01*
X005503473Y001741641D01*
X005490950Y001741845D01*
X005478427Y001741765D01*
X005465908Y001741401D01*
X005453400Y001740753D01*
X005440911Y001739822D01*
X005428446Y001738607D01*
X005416011Y001737111D01*
X005403614Y001735332D01*
X005391261Y001733272D01*
X005378956Y001730933D01*
X005366709Y001728316D01*
X005354524Y001725421D01*
X005342408Y001722251D01*
X005330367Y001718806D01*
X005318407Y001715090D01*
X005306534Y001711103D01*
X005294755Y001706847D01*
X005283075Y001702326D01*
X005271501Y001697540D01*
X005260039Y001692494D01*
X005248694Y001687189D01*
X005237472Y001681628D01*
X005226379Y001675813D01*
X005215421Y001669749D01*
X005204604Y001663438D01*
X005193932Y001656882D01*
X005190482Y001654653D01*
X004970549Y001740292D02*
X004970549Y001740292D01*
X004972786Y001740922D01*
X004975056Y001741420D01*
X004977352Y001741783D01*
X004979665Y001742010D01*
X004981988Y001742100D01*
X004984312Y001742052D01*
X004986629Y001741868D01*
X004988931Y001741547D01*
X004991210Y001741091D01*
X004993458Y001740501D01*
X004995668Y001739780D01*
X004997831Y001738929D01*
X004999940Y001737952D01*
X005001988Y001736853D01*
X005003967Y001735634D01*
X005005871Y001734301D01*
X005007693Y001732858D01*
X005009427Y001731310D01*
X005011066Y001729662D01*
X005012606Y001727920D01*
X005095507Y001628337D01*
X005097269Y001626055D01*
X005098859Y001623651D01*
X005100269Y001621137D01*
X005101492Y001618526D01*
X005102520Y001615833D01*
X005103348Y001613072D01*
X005103972Y001610258D01*
X005104389Y001607406D01*
X005104595Y001604531D01*
X005104591Y001601648D01*
X005104376Y001598774D01*
X005103951Y001595923D01*
X005103319Y001593110D01*
X005102482Y001590352D01*
X005101446Y001587662D01*
X005100216Y001585055D01*
X005098798Y001582545D01*
X005097201Y001580146D01*
X005095432Y001577870D01*
X005093502Y001575729D01*
X005087688Y001569738D01*
X005079172Y001560555D01*
X005070866Y001551180D01*
X005081491Y001544616D01*
X005092071Y001537980D01*
X005102605Y001531272D01*
X005113094Y001524491D01*
X005123536Y001517640D01*
X005133931Y001510717D01*
X005144278Y001503723D01*
X005154578Y001496659D01*
X005164828Y001489525D01*
X005175030Y001482321D01*
X005185183Y001475048D01*
X005195286Y001467705D01*
X005205338Y001460294D01*
X005215339Y001452814D01*
X005225290Y001445266D01*
X005235189Y001437650D01*
X005245035Y001429967D01*
X005254828Y001422217D01*
X005264569Y001414400D01*
X005274256Y001406517D01*
X005283889Y001398568D01*
X005293467Y001390554D01*
X005302990Y001382474D01*
X005312459Y001374329D01*
X005321871Y001366120D01*
X005331227Y001357847D01*
X005340526Y001349511D01*
X005349768Y001341111D01*
X005358953Y001332647D01*
X005368079Y001324122D01*
X005377148Y001315534D01*
X005386157Y001306885D01*
X005395107Y001298175D01*
X005403998Y001289403D01*
X005412828Y001280572D01*
X005421598Y001271679D01*
X005430307Y001262728D01*
X005438955Y001253717D01*
X005447541Y001244648D01*
X005456064Y001235519D01*
X005464526Y001226333D01*
X005472924Y001217090D01*
X005481260Y001207789D01*
X005489531Y001198431D01*
X005497738Y001189018D01*
X005505882Y001179548D01*
X005513960Y001170023D01*
X005521973Y001160444D01*
X005529920Y001150810D01*
X005537802Y001141122D01*
X005545617Y001131380D01*
X005553365Y001121585D01*
X005561047Y001111737D01*
X005568660Y001101838D01*
X005576207Y001091886D01*
X005583685Y001081883D01*
X005591095Y001071829D01*
X005598435Y001061725D01*
X005605707Y001051572D01*
X005612910Y001041368D01*
X005620042Y001031116D01*
X005627104Y001020816D01*
X005634096Y001010467D01*
X005641017Y001000071D01*
X005647867Y000989628D01*
X005654645Y000979138D01*
X005661352Y000968603D01*
X005667987Y000958022D01*
X005674549Y000947396D01*
X005676201Y000944679D01*
X005677587Y000942205D01*
X005678790Y000939637D01*
X005679806Y000936989D01*
X005680628Y000934275D01*
X005681253Y000931509D01*
X005681677Y000928705D01*
X005681898Y000925877D01*
X005681915Y000923041D01*
X005681728Y000920212D01*
X005681338Y000917403D01*
X005680747Y000914629D01*
X005679957Y000911905D01*
X005678973Y000909245D01*
X005677801Y000906663D01*
X005676445Y000904172D01*
X005674914Y000901785D01*
X005673215Y000899515D01*
X005671357Y000897372D01*
X005669349Y000895369D01*
X005667203Y000893516D01*
X005594138Y000834887D01*
X005592319Y000833512D01*
X005590424Y000832245D01*
X005588459Y000831089D01*
X005586430Y000830050D01*
X005584344Y000829129D01*
X005582209Y000828331D01*
X005580031Y000827658D01*
X005577817Y000827112D01*
X005575576Y000826695D01*
X005573314Y000826408D01*
X005571040Y000826253D01*
X005568760Y000826230D01*
X005566483Y000826339D01*
X005564216Y000826579D01*
X005561967Y000826950D01*
X005559743Y000827451D01*
X005557551Y000828079D01*
X005555400Y000828834D01*
X005553296Y000829711D01*
X005551246Y000830709D01*
X005551246Y000830709D01*
X005545775Y000833572D01*
X005534818Y000839403D01*
X005523903Y000845311D01*
X005513029Y000851294D01*
X005502196Y000857354D01*
X005491408Y000863489D01*
X005480661Y000869699D01*
X005469959Y000875985D01*
X005459300Y000882345D01*
X005448687Y000888780D01*
X005438119Y000895288D01*
X005427596Y000901870D01*
X005417120Y000908526D01*
X005406691Y000915254D01*
X005396308Y000922056D01*
X005385974Y000928930D01*
X005375688Y000935875D01*
X005365451Y000942893D01*
X005355263Y000949982D01*
X005345124Y000957142D01*
X005335036Y000964373D01*
X005324999Y000971674D01*
X005315014Y000979045D01*
X005305079Y000986487D01*
X005295198Y000993996D01*
X005285369Y001001576D01*
X005275593Y001009223D01*
X005265871Y001016939D01*
X005256203Y001024722D01*
X005246590Y001032573D01*
X005237032Y001040490D01*
X005227529Y001048475D01*
X005218082Y001056526D01*
X005208693Y001064642D01*
X005199360Y001072824D01*
X005190084Y001081071D01*
X005180867Y001089383D01*
X005171707Y001097759D01*
X005162607Y001106199D01*
X005153565Y001114702D01*
X005144584Y001123268D01*
X005135662Y001131897D01*
X005126801Y001140588D01*
X005118001Y001149340D01*
X005109263Y001158154D01*
X005100586Y001167029D01*
X005091971Y001175964D01*
X005083419Y001184960D01*
X005074930Y001194014D01*
X005066505Y001203129D01*
X005058143Y001212301D01*
X005049846Y001221532D01*
X005041615Y001230821D01*
X005033447Y001240166D01*
X005025345Y001249570D01*
X005017310Y001259029D01*
X005009341Y001268544D01*
X005001438Y001278114D01*
X004993603Y001287740D01*
X004985835Y001297421D01*
X004978134Y001307155D01*
X004970502Y001316943D01*
X004962939Y001326784D01*
X004955445Y001336678D01*
X004948020Y001346623D01*
X004940664Y001356621D01*
X004933379Y001366669D01*
X004926164Y001376769D01*
X004919021Y001386918D01*
X004911948Y001397118D01*
X004904946Y001407366D01*
X004898017Y001417663D01*
X004891159Y001428009D01*
X004884375Y001438401D01*
X004877662Y001448842D01*
X004871024Y001459329D01*
X004864458Y001469862D01*
X004857967Y001480440D01*
X004851549Y001491064D01*
X004845206Y001501732D01*
X004838938Y001512445D01*
X004832744Y001523201D01*
X004826626Y001534000D01*
X004820584Y001544842D01*
X004814617Y001555725D01*
X004808727Y001566650D01*
X004802913Y001577616D01*
X004797177Y001588622D01*
X004791517Y001599668D01*
X004785934Y001610754D01*
X004780430Y001621878D01*
X004775003Y001633040D01*
X004769654Y001644240D01*
X004764384Y001655477D01*
X004759192Y001666752D01*
X004754080Y001678061D01*
X004749046Y001689406D01*
X004744094Y001700786D01*
X004756678Y001701426D01*
X004769252Y001702243D01*
X004781813Y001703238D01*
X004794358Y001704409D01*
X004806886Y001705757D01*
X004819394Y001707280D01*
X004831879Y001708981D01*
X004844339Y001710857D01*
X004856772Y001712908D01*
X004869173Y001715134D01*
X004881543Y001717535D01*
X004893878Y001720109D01*
X004906175Y001722857D01*
X004918432Y001725779D01*
X004930647Y001728872D01*
X004942816Y001732137D01*
X004954939Y001735574D01*
X004967012Y001739181D01*
X004970549Y001740292D01*
M02*