%MOIN*%
%OFA0B0*%
%FSLAX46Y46*%
%IPPOS*%
%LPD*%
%AMRoundRect0*
4,1,4,
0.07874015748031496,0.11811023622047245,
0.15748031496062992,0.19685039370078741,
0.23622047244094491,0.27559055118110237,
0.31496062992125984,0.35433070866141736,
0.07874015748031496,0.11811023622047245,
0*
1,1,$1,$2,$3*
1,1,$1,$2,$3*
1,1,$1,$2,$3*
1,1,$1,$2,$3*
20,1,$1,$2,$3,$4,$5,0*
20,1,$1,$2,$3,$4,$5,0*
20,1,$1,$2,$3,$4,$5,0*
20,1,$1,$2,$3,$4,$5,0*%
%AMCOMP500*
4,1,3,
-0.018700787401574805,0.00984251968503937,
-0.018700787401574805,-0.00984251968503937,
0.018700787401574805,-0.00984251968503937,
0.018700787401574805,0.00984251968503937,
0*
4,1,19,
-0.018700787401574805,0.01968503937007874,
-0.015659281551427682,0.019203312168259386,
-0.012915499485310303,0.017805285377706176,
-0.010738021708907997,0.015627807601303872,
-0.0093399949183547871,0.012884025535186491,
-0.0088582677165354329,0.00984251968503937,
-0.0093399949183547871,0.0068010138348922507,
-0.010738021708907997,0.0040572317687748724,
-0.012915499485310301,0.0018797539923725657,
-0.015659281551427682,0.00048172720181935506,
-0.0187007874015748,0,
-0.021742293251721927,0.00048172720181935506,
-0.0244860753178393,0.0018797539923725635,
-0.026663553094241611,0.00405723176877487,
-0.02806157988479482,0.0068010138348922489,
-0.028543307086614175,0.0098425196850393682,
-0.02806157988479482,0.012884025535186489,
-0.026663553094241611,0.015627807601303868,
-0.024486075317839306,0.017805285377706176,
-0.021742293251721924,0.019203312168259386,
0*
4,1,19,
-0.018700787401574805,0,
-0.015659281551427682,-0.00048172720181935506,
-0.012915499485310303,-0.0018797539923725646,
-0.010738021708907997,-0.0040572317687748707,
-0.0093399949183547871,-0.00680101383489225,
-0.0088582677165354329,-0.00984251968503937,
-0.0093399949183547871,-0.012884025535186491,
-0.010738021708907997,-0.015627807601303868,
-0.012915499485310301,-0.017805285377706176,
-0.015659281551427682,-0.019203312168259386,
-0.0187007874015748,-0.01968503937007874,
-0.021742293251721927,-0.019203312168259386,
-0.0244860753178393,-0.017805285377706176,
-0.026663553094241611,-0.015627807601303872,
-0.02806157988479482,-0.012884025535186491,
-0.028543307086614175,-0.0098425196850393734,
-0.02806157988479482,-0.0068010138348922524,
-0.026663553094241611,-0.0040572317687748733,
-0.024486075317839306,-0.0018797539923725657,
-0.021742293251721924,-0.00048172720181935506,
0*
4,1,19,
0.018700787401574805,0,
0.021742293251721924,-0.00048172720181935506,
0.0244860753178393,-0.0018797539923725646,
0.026663553094241611,-0.0040572317687748707,
0.02806157988479482,-0.00680101383489225,
0.028543307086614175,-0.00984251968503937,
0.02806157988479482,-0.012884025535186491,
0.026663553094241611,-0.015627807601303868,
0.024486075317839306,-0.017805285377706176,
0.021742293251721924,-0.019203312168259386,
0.018700787401574805,-0.01968503937007874,
0.015659281551427682,-0.019203312168259386,
0.012915499485310306,-0.017805285377706176,
0.010738021708907997,-0.015627807601303872,
0.0093399949183547871,-0.012884025535186491,
0.0088582677165354329,-0.0098425196850393734,
0.0093399949183547871,-0.0068010138348922524,
0.010738021708907997,-0.0040572317687748733,
0.012915499485310301,-0.0018797539923725657,
0.015659281551427682,-0.00048172720181935506,
0*
4,1,19,
0.018700787401574805,0.01968503937007874,
0.021742293251721924,0.019203312168259386,
0.0244860753178393,0.017805285377706176,
0.026663553094241611,0.015627807601303872,
0.02806157988479482,0.012884025535186491,
0.028543307086614175,0.00984251968503937,
0.02806157988479482,0.0068010138348922507,
0.026663553094241611,0.0040572317687748724,
0.024486075317839306,0.0018797539923725657,
0.021742293251721924,0.00048172720181935506,
0.018700787401574805,0,
0.015659281551427682,0.00048172720181935506,
0.012915499485310306,0.0018797539923725635,
0.010738021708907997,0.00405723176877487,
0.0093399949183547871,0.0068010138348922489,
0.0088582677165354329,0.0098425196850393682,
0.0093399949183547871,0.012884025535186489,
0.010738021708907997,0.015627807601303868,
0.012915499485310301,0.017805285377706176,
0.015659281551427682,0.019203312168259386,
0*
4,1,3,
-0.028543307086614175,0.00984251968503937,
-0.0088582677165354329,0.00984251968503937,
-0.0088582677165354329,-0.00984251968503937,
-0.028543307086614175,-0.00984251968503937,
0*
4,1,3,
-0.018700787401574805,-0.01968503937007874,
-0.018700787401574805,0,
0.018700787401574805,0,
0.018700787401574805,-0.01968503937007874,
0*
4,1,3,
0.028543307086614175,-0.00984251968503937,
0.0088582677165354329,-0.00984251968503937,
0.0088582677165354329,0.00984251968503937,
0.028543307086614175,0.00984251968503937,
0*
4,1,3,
0.018700787401574805,0.01968503937007874,
0.018700787401574805,0,
-0.018700787401574805,0,
-0.018700787401574805,0.01968503937007874,
0*%
%AMRoundRect1*
4,1,4,
-0.078740157480314987,-0.11811023622047243,
-0.15748031496062997,-0.19685039370078738,
-0.23622047244094493,-0.27559055118110232,
-0.31496062992125995,-0.35433070866141725,
-0.078740157480314987,-0.11811023622047243,
0*
1,1,$1,$2,$3*
1,1,$1,$2,$3*
1,1,$1,$2,$3*
1,1,$1,$2,$3*
20,1,$1,$2,$3,$4,$5,180*
20,1,$1,$2,$3,$4,$5,180*
20,1,$1,$2,$3,$4,$5,180*
20,1,$1,$2,$3,$4,$5,180*%
%AMCOMP560*
4,1,3,
0.0187007874015748,-0.0098425196850393734,
0.018700787401574805,0.0098425196850393682,
-0.0187007874015748,0.0098425196850393734,
-0.018700787401574805,-0.0098425196850393682,
0*
4,1,19,
0.0187007874015748,-0.019685039370078747,
0.015659281551427682,-0.019203312168259389,
0.012915499485310301,-0.017805285377706179,
0.010738021708907995,-0.015627807601303872,
0.0093399949183547871,-0.012884025535186494,
0.0088582677165354312,-0.00984251968503937,
0.0093399949183547853,-0.0068010138348922524,
0.010738021708907997,-0.0040572317687748733,
0.012915499485310301,-0.0018797539923725672,
0.015659281551427682,-0.00048172720181935695,
0.0187007874015748,-0.0000000000000000022901103073449965,
0.021742293251721927,-0.00048172720181935771,
0.0244860753178393,-0.0018797539923725666,
0.026663553094241611,-0.0040572317687748733,
0.02806157988479482,-0.0068010138348922524,
0.028543307086614175,-0.0098425196850393734,
0.02806157988479482,-0.012884025535186494,
0.026663553094241611,-0.015627807601303872,
0.024486075317839306,-0.017805285377706179,
0.02174229325172192,-0.019203312168259389,
0*
4,1,19,
0.018700787401574805,-0.0000000000000000022901103073449965,
0.015659281551427682,0.0004817272018193531,
0.012915499485310303,0.0018797539923725629,
0.010738021708907997,0.00405723176877487,
0.0093399949183547888,0.0068010138348922489,
0.0088582677165354329,0.0098425196850393682,
0.0093399949183547871,0.012884025535186489,
0.010738021708907999,0.015627807601303865,
0.012915499485310303,0.017805285377706176,
0.015659281551427685,0.019203312168259386,
0.018700787401574805,0.01968503937007874,
0.021742293251721934,0.019203312168259386,
0.0244860753178393,0.017805285377706176,
0.026663553094241611,0.015627807601303872,
0.02806157988479482,0.012884025535186487,
0.028543307086614175,0.00984251968503937,
0.02806157988479482,0.0068010138348922489,
0.026663553094241611,0.00405723176877487,
0.024486075317839306,0.0018797539923725627,
0.021742293251721924,0.00048172720181935234,
0*
4,1,19,
-0.018700787401574805,0.0000000000000000022901103073449965,
-0.021742293251721924,0.00048172720181935771,
-0.0244860753178393,0.0018797539923725677,
-0.026663553094241611,0.0040572317687748742,
-0.02806157988479482,0.0068010138348922533,
-0.028543307086614175,0.0098425196850393734,
-0.02806157988479482,0.012884025535186496,
-0.026663553094241611,0.015627807601303872,
-0.024486075317839306,0.017805285377706179,
-0.02174229325172192,0.019203312168259389,
-0.018700787401574805,0.019685039370078747,
-0.015659281551427678,0.019203312168259389,
-0.012915499485310303,0.017805285377706179,
-0.010738021708907995,0.015627807601303875,
-0.0093399949183547871,0.012884025535186494,
-0.0088582677165354312,0.0098425196850393734,
-0.0093399949183547853,0.0068010138348922533,
-0.010738021708907997,0.0040572317687748742,
-0.012915499485310301,0.0018797539923725672,
-0.015659281551427682,0.00048172720181935695,
0*
4,1,19,
-0.018700787401574805,-0.01968503937007874,
-0.021742293251721927,-0.019203312168259386,
-0.0244860753178393,-0.017805285377706176,
-0.026663553094241611,-0.015627807601303868,
-0.02806157988479482,-0.012884025535186487,
-0.028543307086614175,-0.0098425196850393682,
-0.02806157988479482,-0.0068010138348922481,
-0.026663553094241611,-0.004057231768774869,
-0.024486075317839306,-0.0018797539923725627,
-0.021742293251721924,-0.00048172720181935234,
-0.018700787401574805,0.0000000000000000022901103073449973,
-0.015659281551427682,-0.0004817272018193531,
-0.012915499485310306,-0.0018797539923725618,
-0.010738021708907997,-0.004057231768774869,
-0.0093399949183547888,-0.0068010138348922481,
-0.0088582677165354329,-0.0098425196850393682,
-0.0093399949183547871,-0.012884025535186487,
-0.010738021708907999,-0.015627807601303865,
-0.012915499485310303,-0.017805285377706176,
-0.015659281551427682,-0.019203312168259386,
0*
4,1,3,
0.028543307086614175,-0.0098425196850393751,
0.0088582677165354312,-0.00984251968503937,
0.0088582677165354329,0.00984251968503937,
0.028543307086614175,0.0098425196850393665,
0*
4,1,3,
0.018700787401574805,0.01968503937007874,
0.018700787401574805,-0.0000000000000000022901103073449965,
-0.018700787401574805,0.0000000000000000022901103073449965,
-0.0187007874015748,0.019685039370078747,
0*
4,1,3,
-0.028543307086614175,0.0098425196850393751,
-0.0088582677165354312,0.00984251968503937,
-0.0088582677165354329,-0.00984251968503937,
-0.028543307086614175,-0.0098425196850393665,
0*
4,1,3,
-0.018700787401574805,-0.01968503937007874,
-0.018700787401574805,0.0000000000000000022901103073449965,
0.018700787401574805,-0.0000000000000000022901103073449965,
0.0187007874015748,-0.019685039370078747,
0*%
%ADD10C,0.12598425196850396*%
%ADD11C,0.035433070866141732*%
%ADD12C,0.023622047244094488*%
%ADD13O,0.03937007874015748X0.086614173228346469*%
%ADD14R,0.066929133858267723X0.066929133858267723*%
%ADD15O,0.066929133858267723X0.066929133858267723*%
%ADD16C,0.090000000000000011*%
%ADD17C,0.15748031496062992*%
%ADD28C,0.005905511811023622*%
%ADD29R,0.059055118110236227X0.03937007874015748*%
%AMCOMP62*
4,1,3,
-0.018700787401574805,0.00984251968503937,
-0.018700787401574805,-0.00984251968503937,
0.018700787401574805,-0.00984251968503937,
0.018700787401574805,0.00984251968503937,
0*
4,1,19,
-0.018700787401574805,0.01968503937007874,
-0.015659281551427682,0.019203312168259386,
-0.012915499485310303,0.017805285377706176,
-0.010738021708907997,0.015627807601303872,
-0.0093399949183547871,0.012884025535186491,
-0.0088582677165354329,0.00984251968503937,
-0.0093399949183547871,0.0068010138348922507,
-0.010738021708907997,0.0040572317687748724,
-0.012915499485310301,0.0018797539923725657,
-0.015659281551427682,0.00048172720181935506,
-0.0187007874015748,0,
-0.021742293251721927,0.00048172720181935506,
-0.0244860753178393,0.0018797539923725635,
-0.026663553094241611,0.00405723176877487,
-0.02806157988479482,0.0068010138348922489,
-0.028543307086614175,0.0098425196850393682,
-0.02806157988479482,0.012884025535186489,
-0.026663553094241611,0.015627807601303868,
-0.024486075317839306,0.017805285377706176,
-0.021742293251721924,0.019203312168259386,
0*
4,1,19,
-0.018700787401574805,0,
-0.015659281551427682,-0.00048172720181935506,
-0.012915499485310303,-0.0018797539923725646,
-0.010738021708907997,-0.0040572317687748707,
-0.0093399949183547871,-0.00680101383489225,
-0.0088582677165354329,-0.00984251968503937,
-0.0093399949183547871,-0.012884025535186491,
-0.010738021708907997,-0.015627807601303868,
-0.012915499485310301,-0.017805285377706176,
-0.015659281551427682,-0.019203312168259386,
-0.0187007874015748,-0.01968503937007874,
-0.021742293251721927,-0.019203312168259386,
-0.0244860753178393,-0.017805285377706176,
-0.026663553094241611,-0.015627807601303872,
-0.02806157988479482,-0.012884025535186491,
-0.028543307086614175,-0.0098425196850393734,
-0.02806157988479482,-0.0068010138348922524,
-0.026663553094241611,-0.0040572317687748733,
-0.024486075317839306,-0.0018797539923725657,
-0.021742293251721924,-0.00048172720181935506,
0*
4,1,19,
0.018700787401574805,0,
0.021742293251721924,-0.00048172720181935506,
0.0244860753178393,-0.0018797539923725646,
0.026663553094241611,-0.0040572317687748707,
0.02806157988479482,-0.00680101383489225,
0.028543307086614175,-0.00984251968503937,
0.02806157988479482,-0.012884025535186491,
0.026663553094241611,-0.015627807601303868,
0.024486075317839306,-0.017805285377706176,
0.021742293251721924,-0.019203312168259386,
0.018700787401574805,-0.01968503937007874,
0.015659281551427682,-0.019203312168259386,
0.012915499485310306,-0.017805285377706176,
0.010738021708907997,-0.015627807601303872,
0.0093399949183547871,-0.012884025535186491,
0.0088582677165354329,-0.0098425196850393734,
0.0093399949183547871,-0.0068010138348922524,
0.010738021708907997,-0.0040572317687748733,
0.012915499485310301,-0.0018797539923725657,
0.015659281551427682,-0.00048172720181935506,
0*
4,1,19,
0.018700787401574805,0.01968503937007874,
0.021742293251721924,0.019203312168259386,
0.0244860753178393,0.017805285377706176,
0.026663553094241611,0.015627807601303872,
0.02806157988479482,0.012884025535186491,
0.028543307086614175,0.00984251968503937,
0.02806157988479482,0.0068010138348922507,
0.026663553094241611,0.0040572317687748724,
0.024486075317839306,0.0018797539923725657,
0.021742293251721924,0.00048172720181935506,
0.018700787401574805,0,
0.015659281551427682,0.00048172720181935506,
0.012915499485310306,0.0018797539923725635,
0.010738021708907997,0.00405723176877487,
0.0093399949183547871,0.0068010138348922489,
0.0088582677165354329,0.0098425196850393682,
0.0093399949183547871,0.012884025535186489,
0.010738021708907997,0.015627807601303868,
0.012915499485310301,0.017805285377706176,
0.015659281551427682,0.019203312168259386,
0*
4,1,3,
-0.028543307086614175,0.00984251968503937,
-0.0088582677165354329,0.00984251968503937,
-0.0088582677165354329,-0.00984251968503937,
-0.028543307086614175,-0.00984251968503937,
0*
4,1,3,
-0.018700787401574805,-0.01968503937007874,
-0.018700787401574805,0,
0.018700787401574805,0,
0.018700787401574805,-0.01968503937007874,
0*
4,1,3,
0.028543307086614175,-0.00984251968503937,
0.0088582677165354329,-0.00984251968503937,
0.0088582677165354329,0.00984251968503937,
0.028543307086614175,0.00984251968503937,
0*
4,1,3,
0.018700787401574805,0.01968503937007874,
0.018700787401574805,0,
-0.018700787401574805,0,
-0.018700787401574805,0.01968503937007874,
0*%
%ADD30COMP62,0.25X-0.475X0.25X-0.475X-0.25X0.475X-0.25X0.475X0.25X0*%
%ADD31C,0.005905511811023622*%
%ADD32R,0.059055118110236227X0.03937007874015748*%
%AMCOMP68*
4,1,3,
0.0187007874015748,-0.0098425196850393734,
0.018700787401574805,0.0098425196850393682,
-0.0187007874015748,0.0098425196850393734,
-0.018700787401574805,-0.0098425196850393682,
0*
4,1,19,
0.0187007874015748,-0.019685039370078747,
0.015659281551427682,-0.019203312168259389,
0.012915499485310301,-0.017805285377706179,
0.010738021708907995,-0.015627807601303872,
0.0093399949183547871,-0.012884025535186494,
0.0088582677165354312,-0.00984251968503937,
0.0093399949183547853,-0.0068010138348922524,
0.010738021708907997,-0.0040572317687748733,
0.012915499485310301,-0.0018797539923725672,
0.015659281551427682,-0.00048172720181935695,
0.0187007874015748,-0.0000000000000000022901103073449965,
0.021742293251721927,-0.00048172720181935771,
0.0244860753178393,-0.0018797539923725666,
0.026663553094241611,-0.0040572317687748733,
0.02806157988479482,-0.0068010138348922524,
0.028543307086614175,-0.0098425196850393734,
0.02806157988479482,-0.012884025535186494,
0.026663553094241611,-0.015627807601303872,
0.024486075317839306,-0.017805285377706179,
0.02174229325172192,-0.019203312168259389,
0*
4,1,19,
0.018700787401574805,-0.0000000000000000022901103073449965,
0.015659281551427682,0.0004817272018193531,
0.012915499485310303,0.0018797539923725629,
0.010738021708907997,0.00405723176877487,
0.0093399949183547888,0.0068010138348922489,
0.0088582677165354329,0.0098425196850393682,
0.0093399949183547871,0.012884025535186489,
0.010738021708907999,0.015627807601303865,
0.012915499485310303,0.017805285377706176,
0.015659281551427685,0.019203312168259386,
0.018700787401574805,0.01968503937007874,
0.021742293251721934,0.019203312168259386,
0.0244860753178393,0.017805285377706176,
0.026663553094241611,0.015627807601303872,
0.02806157988479482,0.012884025535186487,
0.028543307086614175,0.00984251968503937,
0.02806157988479482,0.0068010138348922489,
0.026663553094241611,0.00405723176877487,
0.024486075317839306,0.0018797539923725627,
0.021742293251721924,0.00048172720181935234,
0*
4,1,19,
-0.018700787401574805,0.0000000000000000022901103073449965,
-0.021742293251721924,0.00048172720181935771,
-0.0244860753178393,0.0018797539923725677,
-0.026663553094241611,0.0040572317687748742,
-0.02806157988479482,0.0068010138348922533,
-0.028543307086614175,0.0098425196850393734,
-0.02806157988479482,0.012884025535186496,
-0.026663553094241611,0.015627807601303872,
-0.024486075317839306,0.017805285377706179,
-0.02174229325172192,0.019203312168259389,
-0.018700787401574805,0.019685039370078747,
-0.015659281551427678,0.019203312168259389,
-0.012915499485310303,0.017805285377706179,
-0.010738021708907995,0.015627807601303875,
-0.0093399949183547871,0.012884025535186494,
-0.0088582677165354312,0.0098425196850393734,
-0.0093399949183547853,0.0068010138348922533,
-0.010738021708907997,0.0040572317687748742,
-0.012915499485310301,0.0018797539923725672,
-0.015659281551427682,0.00048172720181935695,
0*
4,1,19,
-0.018700787401574805,-0.01968503937007874,
-0.021742293251721927,-0.019203312168259386,
-0.0244860753178393,-0.017805285377706176,
-0.026663553094241611,-0.015627807601303868,
-0.02806157988479482,-0.012884025535186487,
-0.028543307086614175,-0.0098425196850393682,
-0.02806157988479482,-0.0068010138348922481,
-0.026663553094241611,-0.004057231768774869,
-0.024486075317839306,-0.0018797539923725627,
-0.021742293251721924,-0.00048172720181935234,
-0.018700787401574805,0.0000000000000000022901103073449973,
-0.015659281551427682,-0.0004817272018193531,
-0.012915499485310306,-0.0018797539923725618,
-0.010738021708907997,-0.004057231768774869,
-0.0093399949183547888,-0.0068010138348922481,
-0.0088582677165354329,-0.0098425196850393682,
-0.0093399949183547871,-0.012884025535186487,
-0.010738021708907999,-0.015627807601303865,
-0.012915499485310303,-0.017805285377706176,
-0.015659281551427682,-0.019203312168259386,
0*
4,1,3,
0.028543307086614175,-0.0098425196850393751,
0.0088582677165354312,-0.00984251968503937,
0.0088582677165354329,0.00984251968503937,
0.028543307086614175,0.0098425196850393665,
0*
4,1,3,
0.018700787401574805,0.01968503937007874,
0.018700787401574805,-0.0000000000000000022901103073449965,
-0.018700787401574805,0.0000000000000000022901103073449965,
-0.0187007874015748,0.019685039370078747,
0*
4,1,3,
-0.028543307086614175,0.0098425196850393751,
-0.0088582677165354312,0.00984251968503937,
-0.0088582677165354329,-0.00984251968503937,
-0.028543307086614175,-0.0098425196850393665,
0*
4,1,3,
-0.018700787401574805,-0.01968503937007874,
-0.018700787401574805,0.0000000000000000022901103073449965,
0.018700787401574805,-0.0000000000000000022901103073449965,
0.0187007874015748,-0.019685039370078747,
0*%
%ADD33COMP68,0.25X-0.475X0.25X-0.475X-0.25X0.475X-0.25X0.475X0.25X0*%
G01*
D10*
X-0001771653Y-0003110236D02*
X0003149606Y0003779527D03*
D11*
X0001153543Y0001196850D03*
X0001421259Y0001196850D03*
D10*
X0000787401Y0003779527D03*
D12*
X0002602755Y0003643700D03*
X0002830314Y0003643700D03*
D13*
X0002491142Y0003780787D03*
X0002491535Y0003620642D03*
X0002942219Y0003620642D03*
X0002941535Y0003788976D03*
D10*
X0000787401Y0001141732D03*
D14*
X0001374015Y0002751968D03*
D15*
X0001274015Y0002751968D03*
X0001174015Y0002751968D03*
X0001074015Y0002751968D03*
X0000974015Y0002751968D03*
X0000874015Y0002751968D03*
D10*
X0003149606Y0001141732D03*
D16*
X0002396850Y0001379527D03*
X0002896850Y0001379527D03*
D17*
X0000896850Y0002429527D03*
X0003054330Y0002429527D03*
G04 next file*
G04 Gerber Fmt 4.6, Leading zero omitted, Abs format (unit mm)*
G04 Created by KiCad (PCBNEW (6.0.7)) date 2022-11-21 20:09:17*
G01*
G04 APERTURE LIST*
G04 Aperture macros list*
G04 Aperture macros list end*
G04 APERTURE END LIST*
D28*
G36*
X0004405511Y0002397637D02*
G01*
X0004366141Y0002397637D01*
X0004366141Y0002476377D01*
X0004405511Y0002476377D01*
X0004405511Y0002397637D01*
G37*
X0004405511Y0002397637D02*
X0004366141Y0002397637D01*
X0004366141Y0002476377D01*
X0004405511Y0002476377D01*
X0004405511Y0002397637D01*
G36*
X0004409448Y0000059055D02*
G01*
X0004330708Y0000059055D01*
X0004330708Y0000098425D01*
X0004409448Y0000098425D01*
X0004409448Y0000059055D01*
G37*
X0004409448Y0000059055D02*
X0004330708Y0000059055D01*
X0004330708Y0000098425D01*
X0004409448Y0000098425D01*
X0004409448Y0000059055D01*
G36*
X0004645669Y0000059055D02*
G01*
X0004566929Y0000059055D01*
X0004566929Y0000098425D01*
X0004645669Y0000098425D01*
X0004645669Y0000059055D01*
G37*
X0004645669Y0000059055D02*
X0004566929Y0000059055D01*
X0004566929Y0000098425D01*
X0004645669Y0000098425D01*
X0004645669Y0000059055D01*
G36*
X0004405511Y0002633858D02*
G01*
X0004366141Y0002633858D01*
X0004366141Y0002712598D01*
X0004405511Y0002712598D01*
X0004405511Y0002633858D01*
G37*
X0004405511Y0002633858D02*
X0004366141Y0002633858D01*
X0004366141Y0002712598D01*
X0004405511Y0002712598D01*
X0004405511Y0002633858D01*
G36*
X0004405511Y0002515748D02*
G01*
X0004366141Y0002515748D01*
X0004366141Y0002594488D01*
X0004405511Y0002594488D01*
X0004405511Y0002515748D01*
G37*
X0004405511Y0002515748D02*
X0004366141Y0002515748D01*
X0004366141Y0002594488D01*
X0004405511Y0002594488D01*
X0004405511Y0002515748D01*
G36*
X0004255905Y0002515748D02*
G01*
X0004216535Y0002515748D01*
X0004216535Y0002594488D01*
X0004255905Y0002594488D01*
X0004255905Y0002515748D01*
G37*
X0004255905Y0002515748D02*
X0004216535Y0002515748D01*
X0004216535Y0002594488D01*
X0004255905Y0002594488D01*
X0004255905Y0002515748D01*
G36*
X0004291338Y0000059055D02*
G01*
X0004212598Y0000059055D01*
X0004212598Y0000098425D01*
X0004291338Y0000098425D01*
X0004291338Y0000059055D01*
G37*
X0004291338Y0000059055D02*
X0004212598Y0000059055D01*
X0004212598Y0000098425D01*
X0004291338Y0000098425D01*
X0004291338Y0000059055D01*
G36*
X0004675800Y0000114531D02*
G01*
X0003923690Y0000114576D01*
X0003982745Y0000457096D01*
X0004671682Y0000460636D01*
X0004675800Y0000114531D01*
G37*
X0004675800Y0000114531D02*
X0003923690Y0000114576D01*
X0003982745Y0000457096D01*
X0004671682Y0000460636D01*
X0004675800Y0000114531D01*
G36*
X0004055118Y0000059055D02*
G01*
X0003976377Y0000059055D01*
X0003976377Y0000098425D01*
X0004055118Y0000098425D01*
X0004055118Y0000059055D01*
G37*
X0004055118Y0000059055D02*
X0003976377Y0000059055D01*
X0003976377Y0000098425D01*
X0004055118Y0000098425D01*
X0004055118Y0000059055D01*
G36*
X0004255905Y0002633858D02*
G01*
X0004216535Y0002633858D01*
X0004216535Y0002712598D01*
X0004255905Y0002712598D01*
X0004255905Y0002633858D01*
G37*
X0004255905Y0002633858D02*
X0004216535Y0002633858D01*
X0004216535Y0002712598D01*
X0004255905Y0002712598D01*
X0004255905Y0002633858D01*
G36*
X0004173228Y0000059055D02*
G01*
X0004094488Y0000059055D01*
X0004094488Y0000098425D01*
X0004173228Y0000098425D01*
X0004173228Y0000059055D01*
G37*
X0004173228Y0000059055D02*
X0004094488Y0000059055D01*
X0004094488Y0000098425D01*
X0004173228Y0000098425D01*
X0004173228Y0000059055D01*
G36*
X0004255905Y0002397637D02*
G01*
X0004216535Y0002397637D01*
X0004216535Y0002476377D01*
X0004255905Y0002476377D01*
X0004255905Y0002397637D01*
G37*
X0004255905Y0002397637D02*
X0004216535Y0002397637D01*
X0004216535Y0002476377D01*
X0004255905Y0002476377D01*
X0004255905Y0002397637D01*
G36*
X0004527559Y0000059055D02*
G01*
X0004448818Y0000059055D01*
X0004448818Y0000098425D01*
X0004527559Y0000098425D01*
X0004527559Y0000059055D01*
G37*
X0004527559Y0000059055D02*
X0004448818Y0000059055D01*
X0004448818Y0000098425D01*
X0004527559Y0000098425D01*
X0004527559Y0000059055D01*
G36*
X0004010755Y0000983289D02*
G01*
X0004012365Y0000982613D01*
X0004012501Y0000982519D01*
X0004014101Y0000981099D01*
X0004015047Y0000979476D01*
X0004015462Y0000977442D01*
X0004015485Y0000976996D01*
X0004015191Y0000974827D01*
X0004014284Y0000972919D01*
X0004012862Y0000971425D01*
X0004011023Y0000970497D01*
X0004009773Y0000970212D01*
X0004008059Y0000970230D01*
X0004006253Y0000970831D01*
X0004005068Y0000971519D01*
X0004003586Y0000973000D01*
X0004002653Y0000974805D01*
X0004002289Y0000976779D01*
X0004002514Y0000978769D01*
X0004003346Y0000980619D01*
X0004004806Y0000982176D01*
X0004005104Y0000982385D01*
X0004006849Y0000983160D01*
X0004008825Y0000983466D01*
X0004010755Y0000983289D01*
G37*
G36*
X0003998160Y0000853571D02*
G01*
X0003996620Y0000851709D01*
X0003994488Y0000850224D01*
X0003994471Y0000850215D01*
X0003993127Y0000849805D01*
X0003991385Y0000849629D01*
X0003989598Y0000849698D01*
X0003988116Y0000850024D01*
X0003987827Y0000850152D01*
X0003986753Y0000850821D01*
X0003985680Y0000851697D01*
X0003984408Y0000853179D01*
X0003983324Y0000855360D01*
X0003983005Y0000857169D01*
X0003987944Y0000857169D01*
X0003988458Y0000855881D01*
X0003989553Y0000854928D01*
X0003990596Y0000854475D01*
X0003991540Y0000854402D01*
X0003992519Y0000854806D01*
X0003993042Y0000855148D01*
X0003993977Y0000856268D01*
X0003994278Y0000857793D01*
X0003994270Y0000858064D01*
X0003993847Y0000859444D01*
X0003992920Y0000860427D01*
X0003991678Y0000860927D01*
X0003990314Y0000860859D01*
X0003989019Y0000860137D01*
X0003988744Y0000859861D01*
X0003988031Y0000858569D01*
X0003987944Y0000857169D01*
X0003983005Y0000857169D01*
X0003982917Y0000857673D01*
X0003983187Y0000859983D01*
X0003984133Y0000862156D01*
X0003985754Y0000864056D01*
X0003985920Y0000864199D01*
X0003988027Y0000865493D01*
X0003990305Y0000866067D01*
X0003992629Y0000865928D01*
X0003994875Y0000865081D01*
X0003996919Y0000863532D01*
X0003997948Y0000862303D01*
X0003999002Y0000860174D01*
X0003999373Y0000857927D01*
X0003999356Y0000857793D01*
X0003999085Y0000855684D01*
X0003998160Y0000853571D01*
G37*
G36*
X0003975053Y0000984124D02*
G01*
X0003977110Y0000983320D01*
X0003977712Y0000982922D01*
X0003979224Y0000981373D01*
X0003980169Y0000979470D01*
X0003980481Y0000977394D01*
X0003980093Y0000975320D01*
X0003980091Y0000975316D01*
X0003979207Y0000973802D01*
X0003977868Y0000972398D01*
X0003976377Y0000971424D01*
X0003975729Y0000971177D01*
X0003973688Y0000970893D01*
X0003971705Y0000971266D01*
X0003969919Y0000972204D01*
X0003968469Y0000973617D01*
X0003967493Y0000975412D01*
X0003967132Y0000977499D01*
X0003967307Y0000979115D01*
X0003968091Y0000981071D01*
X0003969385Y0000982625D01*
X0003971063Y0000983701D01*
X0003972995Y0000984226D01*
X0003975053Y0000984124D01*
G37*
G36*
X0004130225Y0000898470D02*
G01*
X0004129134Y0000893842D01*
X0004127365Y0000889426D01*
X0004124973Y0000885289D01*
X0004122012Y0000881503D01*
X0004118538Y0000878135D01*
X0004114606Y0000875257D01*
X0004110271Y0000872936D01*
X0004105588Y0000871244D01*
X0004105330Y0000871174D01*
X0004104730Y0000871026D01*
X0004104049Y0000870885D01*
X0004103236Y0000870747D01*
X0004102241Y0000870608D01*
X0004101014Y0000870464D01*
X0004099505Y0000870310D01*
X0004097663Y0000870142D01*
X0004095438Y0000869955D01*
X0004092779Y0000869746D01*
X0004089637Y0000869509D01*
X0004085960Y0000869242D01*
X0004081699Y0000868939D01*
X0004076804Y0000868596D01*
X0004071223Y0000868209D01*
X0004064908Y0000867773D01*
X0004062771Y0000867626D01*
X0004059017Y0000867363D01*
X0004055938Y0000867132D01*
X0004053460Y0000866919D01*
X0004051508Y0000866708D01*
X0004050009Y0000866486D01*
X0004048888Y0000866237D01*
X0004048071Y0000865946D01*
X0004047485Y0000865599D01*
X0004047054Y0000865180D01*
X0004046706Y0000864676D01*
X0004046366Y0000864071D01*
X0004046283Y0000863912D01*
X0004046055Y0000863330D01*
X0004045891Y0000862570D01*
X0004045782Y0000861510D01*
X0004045717Y0000860029D01*
X0004045688Y0000858004D01*
X0004045685Y0000855314D01*
X0004045712Y0000853090D01*
X0004045881Y0000849293D01*
X0004046220Y0000845521D01*
X0004046751Y0000841648D01*
X0004047496Y0000837549D01*
X0004048475Y0000833098D01*
X0004049710Y0000828169D01*
X0004051222Y0000822637D01*
X0004052401Y0000818623D01*
X0004053844Y0000814006D01*
X0004055482Y0000808996D01*
X0004057280Y0000803690D01*
X0004059203Y0000798184D01*
X0004061214Y0000792571D01*
X0004063279Y0000786949D01*
X0004065363Y0000781412D01*
X0004067428Y0000776055D01*
X0004069441Y0000770975D01*
X0004071365Y0000766266D01*
X0004073166Y0000762024D01*
X0004074807Y0000758344D01*
X0004076253Y0000755321D01*
X0004077465Y0000752871D01*
X0004079181Y0000749192D01*
X0004080519Y0000745973D01*
X0004081513Y0000743092D01*
X0004082198Y0000740425D01*
X0004082609Y0000737849D01*
X0004082781Y0000735242D01*
X0004082749Y0000732480D01*
X0004082450Y0000728760D01*
X0004081832Y0000725404D01*
X0004080828Y0000722235D01*
X0004079367Y0000718970D01*
X0004077135Y0000715150D01*
X0004074006Y0000711187D01*
X0004070355Y0000707796D01*
X0004066225Y0000705008D01*
X0004061657Y0000702856D01*
X0004056692Y0000701372D01*
X0004055208Y0000701105D01*
X0004051956Y0000700824D01*
X0004048436Y0000700843D01*
X0004044948Y0000701152D01*
X0004041793Y0000701746D01*
X0004039323Y0000702480D01*
X0004034881Y0000704365D01*
X0004030747Y0000706852D01*
X0004027028Y0000709861D01*
X0004023831Y0000713312D01*
X0004021262Y0000717125D01*
X0004021147Y0000717345D01*
X0004020659Y0000718354D01*
X0004019891Y0000719999D01*
X0004018870Y0000722222D01*
X0004017624Y0000724964D01*
X0004016178Y0000728165D01*
X0004014559Y0000731766D01*
X0004012794Y0000735707D01*
X0004010911Y0000739931D01*
X0004008934Y0000744377D01*
X0004006891Y0000748987D01*
X0004005959Y0000751094D01*
X0004003962Y0000755602D01*
X0004002056Y0000759902D01*
X0004000264Y0000763937D01*
X0003998613Y0000767651D01*
X0003997127Y0000770986D01*
X0003995833Y0000773886D01*
X0003994755Y0000776293D01*
X0003993919Y0000778151D01*
X0003993350Y0000779402D01*
X0003993074Y0000779991D01*
X0003992517Y0000780923D01*
X0003991903Y0000781386D01*
X0003990997Y0000781496D01*
X0003989941Y0000781318D01*
X0003989084Y0000780807D01*
X0003988949Y0000780573D01*
X0003988496Y0000779660D01*
X0003987764Y0000778118D01*
X0003986777Y0000776001D01*
X0003985560Y0000773363D01*
X0003984138Y0000770258D01*
X0003982534Y0000766739D01*
X0003980775Y0000762861D01*
X0003978883Y0000758676D01*
X0003976885Y0000754240D01*
X0003974805Y0000749606D01*
X0003973513Y0000746728D01*
X0003971448Y0000742140D01*
X0003969465Y0000737752D01*
X0003967590Y0000733622D01*
X0003965850Y0000729806D01*
X0003964272Y0000726364D01*
X0003962881Y0000723352D01*
X0003961705Y0000720829D01*
X0003960770Y0000718852D01*
X0003960103Y0000717478D01*
X0003959729Y0000716766D01*
X0003959015Y0000715676D01*
X0003957260Y0000713425D01*
X0003955161Y0000711123D01*
X0003952934Y0000709000D01*
X0003950797Y0000707286D01*
X0003947998Y0000705492D01*
X0003943602Y0000703363D01*
X0003939102Y0000701939D01*
X0003934560Y0000701192D01*
X0003930035Y0000701090D01*
X0003925587Y0000701603D01*
X0003921276Y0000702701D01*
X0003917162Y0000704353D01*
X0003913305Y0000706528D01*
X0003909764Y0000709196D01*
X0003906600Y0000712327D01*
X0003903872Y0000715891D01*
X0003901641Y0000719856D01*
X0003899966Y0000724192D01*
X0003898907Y0000728870D01*
X0003898524Y0000733858D01*
X0003898526Y0000734679D01*
X0003898683Y0000737791D01*
X0003899114Y0000740689D01*
X0003899871Y0000743584D01*
X0003901006Y0000746683D01*
X0003902571Y0000750196D01*
X0003905708Y0000756926D01*
X0003909992Y0000766513D01*
X0003914045Y0000776056D01*
X0003917842Y0000785486D01*
X0003921361Y0000794737D01*
X0003924578Y0000803742D01*
X0003927468Y0000812433D01*
X0003930008Y0000820743D01*
X0003932174Y0000828605D01*
X0003933943Y0000835952D01*
X0003935291Y0000842716D01*
X0003935397Y0000843364D01*
X0003935710Y0000845774D01*
X0003935955Y0000848478D01*
X0003936132Y0000851341D01*
X0003936238Y0000854230D01*
X0003936271Y0000857008D01*
X0003936229Y0000859543D01*
X0003936109Y0000861699D01*
X0003935910Y0000863340D01*
X0003935629Y0000864334D01*
X0003935618Y0000864356D01*
X0003935370Y0000864850D01*
X0003935130Y0000865277D01*
X0003934843Y0000865647D01*
X0003934452Y0000865969D01*
X0003933900Y0000866251D01*
X0003933130Y0000866504D01*
X0003932086Y0000866735D01*
X0003930710Y0000866954D01*
X0003928947Y0000867171D01*
X0003926739Y0000867394D01*
X0003924030Y0000867632D01*
X0003920762Y0000867895D01*
X0003916880Y0000868192D01*
X0003912326Y0000868531D01*
X0003907044Y0000868922D01*
X0003906015Y0000868999D01*
X0003900550Y0000869409D01*
X0003895798Y0000869775D01*
X0003891697Y0000870105D01*
X0003888185Y0000870407D01*
X0003885200Y0000870687D01*
X0003882681Y0000870954D01*
X0003880565Y0000871214D01*
X0003878790Y0000871476D01*
X0003877295Y0000871747D01*
X0003876018Y0000872035D01*
X0003874896Y0000872346D01*
X0003873868Y0000872689D01*
X0003872872Y0000873071D01*
X0003868924Y0000875025D01*
X0003865007Y0000877711D01*
X0003861419Y0000880938D01*
X0003858274Y0000884589D01*
X0003855685Y0000888548D01*
X0003853766Y0000892696D01*
X0003853276Y0000894123D01*
X0003852125Y0000898935D01*
X0003851762Y0000903523D01*
X0003858464Y0000903523D01*
X0003858583Y0000901463D01*
X0003859274Y0000897847D01*
X0003860507Y0000894207D01*
X0003862195Y0000890778D01*
X0003864251Y0000887795D01*
X0003865175Y0000886730D01*
X0003868330Y0000883750D01*
X0003871854Y0000881267D01*
X0003875599Y0000879378D01*
X0003879414Y0000878177D01*
X0003879523Y0000878155D01*
X0003880565Y0000878006D01*
X0003882310Y0000877809D01*
X0003884687Y0000877571D01*
X0003887625Y0000877299D01*
X0003891054Y0000876998D01*
X0003894903Y0000876675D01*
X0003899102Y0000876336D01*
X0003903580Y0000875987D01*
X0003908267Y0000875634D01*
X0003912805Y0000875296D01*
X0003917779Y0000874918D01*
X0003922046Y0000874581D01*
X0003925649Y0000874284D01*
X0003928632Y0000874021D01*
X0003931038Y0000873788D01*
X0003932910Y0000873582D01*
X0003934293Y0000873399D01*
X0003935229Y0000873234D01*
X0003935763Y0000873083D01*
X0003936207Y0000872889D01*
X0003938501Y0000871511D01*
X0003940300Y0000869680D01*
X0003941641Y0000867331D01*
X0003942562Y0000864401D01*
X0003943103Y0000860826D01*
X0003943118Y0000860654D01*
X0003943288Y0000855939D01*
X0003943030Y0000850605D01*
X0003942355Y0000844685D01*
X0003941272Y0000838215D01*
X0003939792Y0000831227D01*
X0003937924Y0000823755D01*
X0003935680Y0000815834D01*
X0003933068Y0000807497D01*
X0003930099Y0000798779D01*
X0003926784Y0000789712D01*
X0003923132Y0000780332D01*
X0003919153Y0000770671D01*
X0003914858Y0000760764D01*
X0003910256Y0000750645D01*
X0003910155Y0000750426D01*
X0003908673Y0000747183D01*
X0003907516Y0000744500D01*
X0003906649Y0000742247D01*
X0003906037Y0000740295D01*
X0003905644Y0000738511D01*
X0003905435Y0000736766D01*
X0003905375Y0000734931D01*
X0003905427Y0000732873D01*
X0003905618Y0000730496D01*
X0003906472Y0000726237D01*
X0003907995Y0000722347D01*
X0003910224Y0000718746D01*
X0003913194Y0000715354D01*
X0003913398Y0000715153D01*
X0003916339Y0000712640D01*
X0003919479Y0000710698D01*
X0003923096Y0000709152D01*
X0003923812Y0000708904D01*
X0003924983Y0000708557D01*
X0003926135Y0000708329D01*
X0003927470Y0000708195D01*
X0003929190Y0000708131D01*
X0003931496Y0000708112D01*
X0003933048Y0000708113D01*
X0003934935Y0000708148D01*
X0003936364Y0000708244D01*
X0003937534Y0000708425D01*
X0003938644Y0000708715D01*
X0003939895Y0000709140D01*
X0003941569Y0000709806D01*
X0003943453Y0000710667D01*
X0003945013Y0000711487D01*
X0003946253Y0000712318D01*
X0003948073Y0000713792D01*
X0003949957Y0000715543D01*
X0003951725Y0000717393D01*
X0003953198Y0000719161D01*
X0003954197Y0000720670D01*
X0003954298Y0000720870D01*
X0003954752Y0000721824D01*
X0003955489Y0000723413D01*
X0003956484Y0000725579D01*
X0003957710Y0000728265D01*
X0003959141Y0000731413D01*
X0003960751Y0000734964D01*
X0003962513Y0000738860D01*
X0003964401Y0000743044D01*
X0003966389Y0000747457D01*
X0003968449Y0000752041D01*
X0003969346Y0000754038D01*
X0003971378Y0000758556D01*
X0003973324Y0000762879D01*
X0003975159Y0000766947D01*
X0003976855Y0000770704D01*
X0003978388Y0000774091D01*
X0003979729Y0000777050D01*
X0003980855Y0000779522D01*
X0003981736Y0000781451D01*
X0003982349Y0000782777D01*
X0003982666Y0000783442D01*
X0003983610Y0000784923D01*
X0003985416Y0000786659D01*
X0003987592Y0000787836D01*
X0003989991Y0000788404D01*
X0003992466Y0000788316D01*
X0003994868Y0000787520D01*
X0003995207Y0000787347D01*
X0003995765Y0000787034D01*
X0003996286Y0000786671D01*
X0003996798Y0000786208D01*
X0003997327Y0000785591D01*
X0003997902Y0000784770D01*
X0003998549Y0000783694D01*
X0003999295Y0000782310D01*
X0004000168Y0000780567D01*
X0004001196Y0000778413D01*
X0004002405Y0000775797D01*
X0004003823Y0000772667D01*
X0004005477Y0000768971D01*
X0004007395Y0000764659D01*
X0004009603Y0000759677D01*
X0004010316Y0000758070D01*
X0004012250Y0000753702D01*
X0004014148Y0000749414D01*
X0004015974Y0000745286D01*
X0004017694Y0000741397D01*
X0004019271Y0000737827D01*
X0004020670Y0000734658D01*
X0004021856Y0000731967D01*
X0004022794Y0000729837D01*
X0004023448Y0000728346D01*
X0004024160Y0000726754D01*
X0004025251Y0000724432D01*
X0004026319Y0000722279D01*
X0004027272Y0000720480D01*
X0004028016Y0000719223D01*
X0004030503Y0000716038D01*
X0004033761Y0000713062D01*
X0004037527Y0000710646D01*
X0004041736Y0000708842D01*
X0004043931Y0000708209D01*
X0004046180Y0000707824D01*
X0004048818Y0000707637D01*
X0004051540Y0000707636D01*
X0004054931Y0000708011D01*
X0004058186Y0000708880D01*
X0004061614Y0000710309D01*
X0004062193Y0000710592D01*
X0004063783Y0000711460D01*
X0004065179Y0000712420D01*
X0004066614Y0000713644D01*
X0004068317Y0000715305D01*
X0004070000Y0000717124D01*
X0004072294Y0000720205D01*
X0004074009Y0000723482D01*
X0004075267Y0000727165D01*
X0004075368Y0000727566D01*
X0004075761Y0000729956D01*
X0004075946Y0000732704D01*
X0004075923Y0000735529D01*
X0004075691Y0000738153D01*
X0004075251Y0000740297D01*
X0004075124Y0000740668D01*
X0004074670Y0000741839D01*
X0004073948Y0000743614D01*
X0004072991Y0000745916D01*
X0004071829Y0000748673D01*
X0004070495Y0000751808D01*
X0004069020Y0000755247D01*
X0004067435Y0000758915D01*
X0004065772Y0000762738D01*
X0004065178Y0000764103D01*
X0004063433Y0000768132D01*
X0004061717Y0000772131D01*
X0004060071Y0000776000D01*
X0004058536Y0000779642D01*
X0004057154Y0000782957D01*
X0004055966Y0000785847D01*
X0004055013Y0000788215D01*
X0004054337Y0000789960D01*
X0004051805Y0000796921D01*
X0004048805Y0000805741D01*
X0004046175Y0000814182D01*
X0004043924Y0000822210D01*
X0004042058Y0000829789D01*
X0004040586Y0000836885D01*
X0004039515Y0000843463D01*
X0004038853Y0000849488D01*
X0004038608Y0000854924D01*
X0004038787Y0000859738D01*
X0004038891Y0000860815D01*
X0004039107Y0000862662D01*
X0004039337Y0000864235D01*
X0004039546Y0000865278D01*
X0004040064Y0000866719D01*
X0004041493Y0000869037D01*
X0004043463Y0000870986D01*
X0004045830Y0000872435D01*
X0004048447Y0000873254D01*
X0004048573Y0000873273D01*
X0004049553Y0000873382D01*
X0004051227Y0000873536D01*
X0004053521Y0000873730D01*
X0004056361Y0000873958D01*
X0004059674Y0000874213D01*
X0004063386Y0000874492D01*
X0004067424Y0000874787D01*
X0004071713Y0000875093D01*
X0004076181Y0000875404D01*
X0004077755Y0000875514D01*
X0004083120Y0000875894D01*
X0004087952Y0000876252D01*
X0004092216Y0000876583D01*
X0004095875Y0000876885D01*
X0004098893Y0000877155D01*
X0004101234Y0000877389D01*
X0004102862Y0000877585D01*
X0004103740Y0000877740D01*
X0004104681Y0000878018D01*
X0004108333Y0000879521D01*
X0004111874Y0000881600D01*
X0004115082Y0000884112D01*
X0004117738Y0000886912D01*
X0004118930Y0000888517D01*
X0004121122Y0000892257D01*
X0004122668Y0000896161D01*
X0004123544Y0000900128D01*
X0004123722Y0000904058D01*
X0004123176Y0000907848D01*
X0004122900Y0000908870D01*
X0004121317Y0000912917D01*
X0004119090Y0000916573D01*
X0004116284Y0000919774D01*
X0004112960Y0000922456D01*
X0004109183Y0000924555D01*
X0004105017Y0000926010D01*
X0004103935Y0000926268D01*
X0004102343Y0000926556D01*
X0004100737Y0000926701D01*
X0004098966Y0000926700D01*
X0004096877Y0000926552D01*
X0004094319Y0000926253D01*
X0004091141Y0000925802D01*
X0004089950Y0000925625D01*
X0004084972Y0000924916D01*
X0004080541Y0000924345D01*
X0004076472Y0000923900D01*
X0004072582Y0000923565D01*
X0004068686Y0000923327D01*
X0004064599Y0000923172D01*
X0004060138Y0000923086D01*
X0004055118Y0000923054D01*
X0004053242Y0000923053D01*
X0004049262Y0000923065D01*
X0004045910Y0000923108D01*
X0004043071Y0000923189D01*
X0004040634Y0000923319D01*
X0004038485Y0000923506D01*
X0004036511Y0000923759D01*
X0004034600Y0000924087D01*
X0004032637Y0000924499D01*
X0004030511Y0000925004D01*
X0004027719Y0000925754D01*
X0004025409Y0000926544D01*
X0004023741Y0000927362D01*
X0004022641Y0000928255D01*
X0004022035Y0000929270D01*
X0004021850Y0000930454D01*
X0004021935Y0000930974D01*
X0004022284Y0000931684D01*
X0004022974Y0000932622D01*
X0004024083Y0000933891D01*
X0004025688Y0000935596D01*
X0004025956Y0000935875D01*
X0004030072Y0000940673D01*
X0004033432Y0000945623D01*
X0004036063Y0000950783D01*
X0004037989Y0000956212D01*
X0004039235Y0000961968D01*
X0004039827Y0000968110D01*
X0004039819Y0000972427D01*
X0004039166Y0000978366D01*
X0004037799Y0000984105D01*
X0004035757Y0000989590D01*
X0004033077Y0000994767D01*
X0004029798Y0000999581D01*
X0004025959Y0001003978D01*
X0004021598Y0001007903D01*
X0004016754Y0001011302D01*
X0004011465Y0001014120D01*
X0004005770Y0001016302D01*
X0004001444Y0001017433D01*
X0003995557Y0001018298D01*
X0003989610Y0001018440D01*
X0003983699Y0001017869D01*
X0003977918Y0001016596D01*
X0003972361Y0001014631D01*
X0003967123Y0001011985D01*
X0003967034Y0001011933D01*
X0003961764Y0001008376D01*
X0003957092Y0001004332D01*
X0003953041Y0000999835D01*
X0003949631Y0000994924D01*
X0003946885Y0000989633D01*
X0003944826Y0000984000D01*
X0003943474Y0000978060D01*
X0003942852Y0000971850D01*
X0003942849Y0000971776D01*
X0003942839Y0000967130D01*
X0003943217Y0000962879D01*
X0003944027Y0000958716D01*
X0003945312Y0000954331D01*
X0003946062Y0000952229D01*
X0003948021Y0000947774D01*
X0003950421Y0000943630D01*
X0003953371Y0000939626D01*
X0003956974Y0000935591D01*
X0003957216Y0000935340D01*
X0003958612Y0000933858D01*
X0003959542Y0000932777D01*
X0003960096Y0000931968D01*
X0003960363Y0000931304D01*
X0003960433Y0000930659D01*
X0003960433Y0000930655D01*
X0003960259Y0000929456D01*
X0003959844Y0000928469D01*
X0003959840Y0000928462D01*
X0003958892Y0000927659D01*
X0003957240Y0000926865D01*
X0003954966Y0000926097D01*
X0003952152Y0000925371D01*
X0003948881Y0000924705D01*
X0003945236Y0000924114D01*
X0003941298Y0000923617D01*
X0003937149Y0000923230D01*
X0003932874Y0000922969D01*
X0003932070Y0000922939D01*
X0003928195Y0000922905D01*
X0003923714Y0000923020D01*
X0003918759Y0000923272D01*
X0003913464Y0000923652D01*
X0003907963Y0000924149D01*
X0003902387Y0000924752D01*
X0003896870Y0000925451D01*
X0003891545Y0000926235D01*
X0003890088Y0000926459D01*
X0003886636Y0000926911D01*
X0003883753Y0000927146D01*
X0003881304Y0000927166D01*
X0003879153Y0000926976D01*
X0003877165Y0000926578D01*
X0003873795Y0000925440D01*
X0003870141Y0000923526D01*
X0003866860Y0000921065D01*
X0003864021Y0000918142D01*
X0003861693Y0000914841D01*
X0003859945Y0000911248D01*
X0003858846Y0000907447D01*
X0003858464Y0000903523D01*
X0003851762Y0000903523D01*
X0003851749Y0000903694D01*
X0003852135Y0000908353D01*
X0003853275Y0000912866D01*
X0003855156Y0000917186D01*
X0003857768Y0000921267D01*
X0003861101Y0000925062D01*
X0003862254Y0000926136D01*
X0003865785Y0000928815D01*
X0003869689Y0000931008D01*
X0003873830Y0000932666D01*
X0003878072Y0000933741D01*
X0003882281Y0000934186D01*
X0003886321Y0000933952D01*
X0003886961Y0000933856D01*
X0003888735Y0000933589D01*
X0003890958Y0000933255D01*
X0003893409Y0000932887D01*
X0003895866Y0000932518D01*
X0003902990Y0000931547D01*
X0003912064Y0000930598D01*
X0003920846Y0000930004D01*
X0003929205Y0000929773D01*
X0003937007Y0000929915D01*
X0003938845Y0000930012D01*
X0003941634Y0000930219D01*
X0003944251Y0000930479D01*
X0003946575Y0000930777D01*
X0003948481Y0000931096D01*
X0003949846Y0000931419D01*
X0003950548Y0000931730D01*
X0003950552Y0000931735D01*
X0003950368Y0000932108D01*
X0003949789Y0000932899D01*
X0003948934Y0000933947D01*
X0003946494Y0000937049D01*
X0003943077Y0000942393D01*
X0003940257Y0000948167D01*
X0003938078Y0000954276D01*
X0003936584Y0000960624D01*
X0003936300Y0000962718D01*
X0003936074Y0000965834D01*
X0003935991Y0000969268D01*
X0003936051Y0000972765D01*
X0003936253Y0000976073D01*
X0003936597Y0000978936D01*
X0003937463Y0000983020D01*
X0003939102Y0000988265D01*
X0003941270Y0000993456D01*
X0003943870Y0000998367D01*
X0003946805Y0001002771D01*
X0003947437Y0001003585D01*
X0003949727Y0001006251D01*
X0003952376Y0001009000D01*
X0003955187Y0001011646D01*
X0003957967Y0001014002D01*
X0003960518Y0001015882D01*
X0003963127Y0001017508D01*
X0003968573Y0001020318D01*
X0003974322Y0001022588D01*
X0003980118Y0001024211D01*
X0003981089Y0001024400D01*
X0003983870Y0001024767D01*
X0003987105Y0001025007D01*
X0003990564Y0001025117D01*
X0003994019Y0001025091D01*
X0003997242Y0001024925D01*
X0004000002Y0001024615D01*
X0004003349Y0001023985D01*
X0004009565Y0001022230D01*
X0004015455Y0001019794D01*
X0004020976Y0001016718D01*
X0004026088Y0001013044D01*
X0004030745Y0001008811D01*
X0004034907Y0001004061D01*
X0004038530Y0000998835D01*
X0004041572Y0000993174D01*
X0004043990Y0000987118D01*
X0004045741Y0000980708D01*
X0004045954Y0000979512D01*
X0004046241Y0000976923D01*
X0004046421Y0000973881D01*
X0004046494Y0000970593D01*
X0004046460Y0000967262D01*
X0004046319Y0000964096D01*
X0004046072Y0000961298D01*
X0004045719Y0000959075D01*
X0004045552Y0000958334D01*
X0004043995Y0000952847D01*
X0004041929Y0000947507D01*
X0004039429Y0000942467D01*
X0004036570Y0000937880D01*
X0004033427Y0000933899D01*
X0004033361Y0000933826D01*
X0004032489Y0000932810D01*
X0004031908Y0000932053D01*
X0004031741Y0000931712D01*
X0004031770Y0000931695D01*
X0004032326Y0000931528D01*
X0004033417Y0000931269D01*
X0004034842Y0000930965D01*
X0004035242Y0000930886D01*
X0004039456Y0000930246D01*
X0004044334Y0000929816D01*
X0004049792Y0000929593D01*
X0004055744Y0000929576D01*
X0004062104Y0000929762D01*
X0004068789Y0000930149D01*
X0004075713Y0000930733D01*
X0004082790Y0000931514D01*
X0004089937Y0000932488D01*
X0004092864Y0000932897D01*
X0004096596Y0000933291D01*
X0004099819Y0000933440D01*
X0004102678Y0000933337D01*
X0004105317Y0000932973D01*
X0004107881Y0000932343D01*
X0004110515Y0000931437D01*
X0004114207Y0000929714D01*
X0004118217Y0000927080D01*
X0004121801Y0000923864D01*
X0004124859Y0000920157D01*
X0004127295Y0000916050D01*
X0004127853Y0000914878D01*
X0004129162Y0000911712D01*
X0004130013Y0000908798D01*
X0004130466Y0000905893D01*
X0004130533Y0000904058D01*
X0004130580Y0000902755D01*
X0004130225Y0000898470D01*
G37*
G36*
X0003974533Y0000958259D02*
G01*
X0003975327Y0000958131D01*
X0003976110Y0000957764D01*
X0003977071Y0000957051D01*
X0003978399Y0000955886D01*
X0003978807Y0000955520D01*
X0003981477Y0000953383D01*
X0003984009Y0000951878D01*
X0003986581Y0000950938D01*
X0003989369Y0000950496D01*
X0003992551Y0000950483D01*
X0003995243Y0000950785D01*
X0003998187Y0000951627D01*
X0004000889Y0000953067D01*
X0004003551Y0000955192D01*
X0004003799Y0000955419D01*
X0004005015Y0000956483D01*
X0004006072Y0000957337D01*
X0004006765Y0000957814D01*
X0004006926Y0000957895D01*
X0004008471Y0000958243D01*
X0004009950Y0000957929D01*
X0004011205Y0000957059D01*
X0004012075Y0000955739D01*
X0004012401Y0000954076D01*
X0004012386Y0000953804D01*
X0004011888Y0000952358D01*
X0004010768Y0000950770D01*
X0004009135Y0000949120D01*
X0004007095Y0000947487D01*
X0004004756Y0000945950D01*
X0004002225Y0000944589D01*
X0003999610Y0000943483D01*
X0003997018Y0000942711D01*
X0003996301Y0000942569D01*
X0003993608Y0000942292D01*
X0003990354Y0000942278D01*
X0003987574Y0000942495D01*
X0003983621Y0000943320D01*
X0003979972Y0000944781D01*
X0003976515Y0000946930D01*
X0003973136Y0000949816D01*
X0003972999Y0000949948D01*
X0003971738Y0000951197D01*
X0003970940Y0000952091D01*
X0003970500Y0000952792D01*
X0003970314Y0000953466D01*
X0003970275Y0000954275D01*
X0003970437Y0000955505D01*
X0003971197Y0000956963D01*
X0003972480Y0000957922D01*
X0003974174Y0000958267D01*
X0003974533Y0000958259D01*
G37*
G36*
X0003998041Y0000882586D02*
G01*
X0003996514Y0000880789D01*
X0003994491Y0000879474D01*
X0003992214Y0000878833D01*
X0003989810Y0000878887D01*
X0003987507Y0000879628D01*
X0003985481Y0000881024D01*
X0003984401Y0000882264D01*
X0003983347Y0000884340D01*
X0003982924Y0000886577D01*
X0003982974Y0000887168D01*
X0003987802Y0000887168D01*
X0003988021Y0000886000D01*
X0003988906Y0000884744D01*
X0003989543Y0000884236D01*
X0003990865Y0000883845D01*
X0003992260Y0000884024D01*
X0003993435Y0000884769D01*
X0003993700Y0000885087D01*
X0003994279Y0000886413D01*
X0003994228Y0000887772D01*
X0003993629Y0000888973D01*
X0003992564Y0000889827D01*
X0003991116Y0000890144D01*
X0003990076Y0000890025D01*
X0003988829Y0000889360D01*
X0003988018Y0000888061D01*
X0003987802Y0000887168D01*
X0003982974Y0000887168D01*
X0003983113Y0000888826D01*
X0003983895Y0000890941D01*
X0003985252Y0000892775D01*
X0003987164Y0000894179D01*
X0003988514Y0000894759D01*
X0003990950Y0000895220D01*
X0003993303Y0000894970D01*
X0003995452Y0000894050D01*
X0003997278Y0000892498D01*
X0003998663Y0000890354D01*
X0003999051Y0000889325D01*
X0003999368Y0000887008D01*
X0003999276Y0000886413D01*
X0003999012Y0000884710D01*
X0003998041Y0000882586D01*
G37*
D29*
X0005005905Y0001994094D03*
X0005005905Y0001868110D03*
X0004812992Y0001868110D03*
X0004812992Y0001994094D03*
D30*
X0003649606Y0000830708D03*
X0003649606Y0000755905D03*
D29*
X0003948818Y0003072834D03*
X0003948818Y0002946850D03*
X0003755905Y0002946850D03*
X0003755905Y0003072834D03*
X0003525590Y0000850393D03*
X0003525590Y0000724409D03*
X0003332677Y0000724409D03*
X0003332677Y0000850393D03*
D30*
X0004078740Y0003053149D03*
X0004078740Y0002978346D03*
X0004687007Y0001992125D03*
X0004687007Y0001917322D03*
G04 next file*
G04 Gerber Fmt 4.6, Leading zero omitted, Abs format (unit mm)*
G04 Created by KiCad (PCBNEW (6.0.7)) date 2022-11-21 20:11:54*
G01*
G04 APERTURE LIST*
G04 Aperture macros list*
G04 Aperture macros list end*
G04 APERTURE END LIST*
D31*
G36*
X0005791338Y0002129921D02*
G01*
X0005830708Y0002129921D01*
X0005830708Y0002051181D01*
X0005791338Y0002051181D01*
X0005791338Y0002129921D01*
G37*
X0005791338Y0002129921D02*
X0005830708Y0002129921D01*
X0005830708Y0002051181D01*
X0005791338Y0002051181D01*
X0005791338Y0002129921D01*
G36*
X0005528165Y0004406341D02*
G01*
X0006280275Y0004406295D01*
X0006221219Y0004063776D01*
X0005532283Y0004060236D01*
X0005528165Y0004406341D01*
G37*
X0005528165Y0004406341D02*
X0006280275Y0004406295D01*
X0006221219Y0004063776D01*
X0005532283Y0004060236D01*
X0005528165Y0004406341D01*
G36*
X0005791338Y0001893700D02*
G01*
X0005830708Y0001893700D01*
X0005830708Y0001814960D01*
X0005791338Y0001814960D01*
X0005791338Y0001893700D01*
G37*
X0005791338Y0001893700D02*
X0005830708Y0001893700D01*
X0005830708Y0001814960D01*
X0005791338Y0001814960D01*
X0005791338Y0001893700D01*
G36*
X0005791338Y0002011811D02*
G01*
X0005830708Y0002011811D01*
X0005830708Y0001933070D01*
X0005791338Y0001933070D01*
X0005791338Y0002011811D01*
G37*
X0005791338Y0002011811D02*
X0005830708Y0002011811D01*
X0005830708Y0001933070D01*
X0005791338Y0001933070D01*
X0005791338Y0002011811D01*
G36*
X0005940944Y0002011811D02*
G01*
X0005980314Y0002011811D01*
X0005980314Y0001933070D01*
X0005940944Y0001933070D01*
X0005940944Y0002011811D01*
G37*
X0005940944Y0002011811D02*
X0005980314Y0002011811D01*
X0005980314Y0001933070D01*
X0005940944Y0001933070D01*
X0005940944Y0002011811D01*
G36*
X0006059055Y0004452755D02*
G01*
X0006220472Y0004452755D01*
X0006220472Y0004413385D01*
X0006059055Y0004413385D01*
X0006059055Y0004452755D01*
G37*
X0006059055Y0004452755D02*
X0006220472Y0004452755D01*
X0006220472Y0004413385D01*
X0006059055Y0004413385D01*
X0006059055Y0004452755D01*
G36*
X0005940944Y0001893700D02*
G01*
X0005980314Y0001893700D01*
X0005980314Y0001814960D01*
X0005940944Y0001814960D01*
X0005940944Y0001893700D01*
G37*
X0005940944Y0001893700D02*
X0005980314Y0001893700D01*
X0005980314Y0001814960D01*
X0005940944Y0001814960D01*
X0005940944Y0001893700D01*
G36*
X0005344488Y0000574803D02*
G01*
X0005728346Y0000724409D01*
X0005840551Y0000584645D01*
X0005929133Y0000584645D01*
X0006066929Y0000726377D01*
X0006334645Y0000157480D01*
X0005783464Y0000135826D01*
X0005344488Y0000574803D01*
G37*
X0005344488Y0000574803D02*
X0005728346Y0000724409D01*
X0005840551Y0000584645D01*
X0005929133Y0000584645D01*
X0006066929Y0000726377D01*
X0006334645Y0000157480D01*
X0005783464Y0000135826D01*
X0005344488Y0000574803D01*
G36*
X0005940944Y0002129921D02*
G01*
X0005980314Y0002129921D01*
X0005980314Y0002051181D01*
X0005940944Y0002051181D01*
X0005940944Y0002129921D01*
G37*
X0005940944Y0002129921D02*
X0005980314Y0002129921D01*
X0005980314Y0002051181D01*
X0005940944Y0002051181D01*
X0005940944Y0002129921D01*
G36*
X0005551181Y0004452755D02*
G01*
X0005712598Y0004452755D01*
X0005712598Y0004413385D01*
X0005551181Y0004413385D01*
X0005551181Y0004452755D01*
G37*
X0005551181Y0004452755D02*
X0005712598Y0004452755D01*
X0005712598Y0004413385D01*
X0005551181Y0004413385D01*
X0005551181Y0004452755D01*
D32*
X0005190944Y0002533464D03*
X0005190944Y0002659448D03*
X0005383858Y0002659448D03*
X0005383858Y0002533464D03*
D33*
X0006547244Y0003696850D03*
X0006547244Y0003771653D03*
D32*
X0006248031Y0001454724D03*
X0006248031Y0001580708D03*
X0006440944Y0001580708D03*
X0006440944Y0001454724D03*
X0006671259Y0003677165D03*
X0006671259Y0003803149D03*
X0006864173Y0003803149D03*
X0006864173Y0003677165D03*
D33*
X0006118110Y0001474409D03*
X0006118110Y0001549212D03*
X0005509842Y0002535433D03*
X0005509842Y0002610236D03*
M02*