%MOIN*%
%OFA0B0*%
%FSLAX46Y46*%
%IPPOS*%
%LPD*%
%AMRoundRect*
4,1,4,
-0.11811023622047245,0.07874015748031496,
-0.19685039370078741,0.15748031496062992,
-0.27559055118110237,0.23622047244094491,
-0.35433070866141736,0.31496062992125984,
-0.11811023622047245,0.07874015748031496,
0*
1,1,$1,$2,$3*
1,1,$1,$2,$3*
1,1,$1,$2,$3*
1,1,$1,$2,$3*
20,1,$1,$2,$3,$4,$5,90*
20,1,$1,$2,$3,$4,$5,90*
20,1,$1,$2,$3,$4,$5,90*
20,1,$1,$2,$3,$4,$5,90*%
%AMCOMP33*
4,1,3,
-0.0098425196850393734,-0.018700787401574805,
0.00984251968503937,-0.018700787401574805,
0.0098425196850393734,0.018700787401574805,
-0.00984251968503937,0.018700787401574805,
0*
4,1,19,
-0.01968503937007874,-0.0187007874015748,
-0.019203312168259386,-0.015659281551427682,
-0.017805285377706176,-0.012915499485310303,
-0.015627807601303872,-0.010738021708907997,
-0.012884025535186491,-0.0093399949183547871,
-0.00984251968503937,-0.0088582677165354312,
-0.0068010138348922524,-0.0093399949183547871,
-0.0040572317687748724,-0.010738021708907997,
-0.0018797539923725666,-0.012915499485310301,
-0.000481727201819356,-0.015659281551427682,
-0.0000000000000000011450551536724983,-0.0187007874015748,
-0.00048172720181935636,-0.021742293251721927,
-0.0018797539923725648,-0.0244860753178393,
-0.0040572317687748716,-0.026663553094241611,
-0.0068010138348922507,-0.02806157988479482,
-0.00984251968503937,-0.028543307086614175,
-0.012884025535186491,-0.02806157988479482,
-0.015627807601303872,-0.026663553094241611,
-0.017805285377706179,-0.024486075317839306,
-0.019203312168259389,-0.021742293251721924,
0*
4,1,19,
-0.0000000000000000011450551536724983,-0.018700787401574805,
0.00048172720181935408,-0.015659281551427682,
0.0018797539923725637,-0.012915499485310303,
0.0040572317687748707,-0.010738021708907997,
0.0068010138348922489,-0.0093399949183547871,
0.00984251968503937,-0.0088582677165354329,
0.012884025535186491,-0.0093399949183547871,
0.015627807601303868,-0.010738021708907997,
0.017805285377706176,-0.012915499485310301,
0.019203312168259386,-0.015659281551427685,
0.01968503937007874,-0.018700787401574805,
0.019203312168259386,-0.021742293251721927,
0.017805285377706176,-0.0244860753178393,
0.015627807601303872,-0.026663553094241611,
0.012884025535186489,-0.02806157988479482,
0.00984251968503937,-0.028543307086614175,
0.00680101383489225,-0.02806157988479482,
0.0040572317687748716,-0.026663553094241611,
0.0018797539923725642,-0.024486075317839306,
0.00048172720181935375,-0.021742293251721924,
0*
4,1,19,
0.0000000000000000011450551536724983,0.018700787401574805,
0.00048172720181935636,0.021742293251721924,
0.0018797539923725659,0.0244860753178393,
0.0040572317687748724,0.026663553094241611,
0.0068010138348922524,0.02806157988479482,
0.00984251968503937,0.028543307086614175,
0.012884025535186494,0.02806157988479482,
0.015627807601303872,0.026663553094241611,
0.017805285377706179,0.024486075317839306,
0.019203312168259389,0.021742293251721924,
0.01968503937007874,0.018700787401574805,
0.019203312168259386,0.015659281551427678,
0.017805285377706176,0.012915499485310306,
0.015627807601303872,0.010738021708907997,
0.012884025535186491,0.0093399949183547871,
0.0098425196850393734,0.0088582677165354312,
0.0068010138348922533,0.0093399949183547871,
0.0040572317687748733,0.010738021708907997,
0.0018797539923725666,0.012915499485310301,
0.000481727201819356,0.015659281551427682,
0*
4,1,19,
-0.01968503937007874,0.018700787401574805,
-0.019203312168259386,0.021742293251721924,
-0.017805285377706176,0.0244860753178393,
-0.015627807601303868,0.026663553094241611,
-0.012884025535186489,0.02806157988479482,
-0.0098425196850393682,0.028543307086614175,
-0.0068010138348922489,0.02806157988479482,
-0.0040572317687748707,0.026663553094241611,
-0.0018797539923725642,0.024486075317839306,
-0.00048172720181935375,0.021742293251721924,
0.0000000000000000011450551536724986,0.018700787401574805,
-0.00048172720181935408,0.015659281551427682,
-0.0018797539923725627,0.012915499485310306,
-0.004057231768774869,0.010738021708907997,
-0.0068010138348922481,0.0093399949183547871,
-0.0098425196850393682,0.0088582677165354329,
-0.012884025535186489,0.0093399949183547871,
-0.015627807601303868,0.010738021708907997,
-0.017805285377706176,0.012915499485310301,
-0.019203312168259386,0.015659281551427682,
0*
4,1,3,
-0.0098425196850393734,-0.028543307086614175,
-0.00984251968503937,-0.0088582677165354312,
0.00984251968503937,-0.0088582677165354329,
0.0098425196850393682,-0.028543307086614175,
0*
4,1,3,
0.01968503937007874,-0.018700787401574805,
-0.0000000000000000011450551536724983,-0.018700787401574805,
0.0000000000000000011450551536724983,0.018700787401574805,
0.01968503937007874,0.0187007874015748,
0*
4,1,3,
0.0098425196850393734,0.028543307086614175,
0.00984251968503937,0.0088582677165354312,
-0.00984251968503937,0.0088582677165354329,
-0.0098425196850393682,0.028543307086614175,
0*
4,1,3,
-0.01968503937007874,0.018700787401574805,
0.0000000000000000011450551536724983,0.018700787401574805,
-0.0000000000000000011450551536724983,-0.018700787401574805,
-0.01968503937007874,-0.0187007874015748,
0*%
%AMCOMP34*
4,1,3,
-0.013779527559055118,-0.017716535433070866,
0.013779527559055118,-0.017716535433070866,
0.013779527559055118,0.017716535433070866,
-0.013779527559055118,0.017716535433070866,
0*
4,1,19,
-0.023622047244094488,-0.017716535433070866,
-0.023140320042275134,-0.014675029582923745,
-0.021742293251721924,-0.011931247516806366,
-0.019564815475319616,-0.00975376974040406,
-0.016821033409202237,-0.00835574294985085,
-0.013779527559055118,-0.007874015748031496,
-0.010738021708907997,-0.00835574294985085,
-0.0079942396427906213,-0.0097537697404040617,
-0.0058167618663883145,-0.011931247516806368,
-0.0044187350758351038,-0.014675029582923747,
-0.0039370078740157488,-0.017716535433070866,
-0.0044187350758351038,-0.020758041283217992,
-0.0058167618663883119,-0.023501823349335368,
-0.0079942396427906178,-0.025679301125737672,
-0.010738021708907999,-0.027077327916290882,
-0.013779527559055118,-0.027559055118110236,
-0.016821033409202237,-0.027077327916290882,
-0.019564815475319616,-0.025679301125737675,
-0.021742293251721924,-0.023501823349335368,
-0.023140320042275134,-0.020758041283217992,
0*
4,1,19,
0.0039370078740157462,-0.017716535433070866,
0.0044187350758351012,-0.014675029582923747,
0.0058167618663883111,-0.011931247516806368,
0.0079942396427906178,-0.0097537697404040617,
0.010738021708907997,-0.0083557429498508536,
0.013779527559055118,-0.0078740157480314977,
0.016821033409202237,-0.0083557429498508518,
0.019564815475319616,-0.0097537697404040634,
0.021742293251721924,-0.011931247516806369,
0.023140320042275134,-0.014675029582923748,
0.023622047244094488,-0.017716535433070866,
0.023140320042275134,-0.020758041283217992,
0.021742293251721924,-0.023501823349335368,
0.019564815475319616,-0.025679301125737672,
0.016821033409202237,-0.027077327916290882,
0.013779527559055118,-0.027559055118110236,
0.010738021708907997,-0.027077327916290882,
0.00799423964279062,-0.025679301125737675,
0.0058167618663883119,-0.023501823349335368,
0.0044187350758351012,-0.020758041283217992,
0*
4,1,19,
0.0039370078740157488,0.017716535433070866,
0.0044187350758351038,0.020758041283217985,
0.0058167618663883128,0.023501823349335368,
0.00799423964279062,0.025679301125737672,
0.010738021708907999,0.027077327916290882,
0.01377952755905512,0.027559055118110236,
0.016821033409202241,0.027077327916290882,
0.019564815475319616,0.025679301125737672,
0.021742293251721924,0.023501823349335368,
0.023140320042275134,0.020758041283217992,
0.023622047244094488,0.017716535433070866,
0.023140320042275134,0.014675029582923743,
0.021742293251721924,0.011931247516806366,
0.01956481547531962,0.0097537697404040617,
0.016821033409202237,0.00835574294985085,
0.01377952755905512,0.007874015748031496,
0.010738021708907999,0.00835574294985085,
0.0079942396427906213,0.00975376974040406,
0.0058167618663883145,0.011931247516806366,
0.0044187350758351038,0.014675029582923745,
0*
4,1,19,
-0.023622047244094488,0.017716535433070869,
-0.023140320042275134,0.020758041283217985,
-0.021742293251721924,0.023501823349335368,
-0.019564815475319616,0.025679301125737672,
-0.016821033409202237,0.027077327916290882,
-0.013779527559055116,0.027559055118110236,
-0.010738021708907995,0.027077327916290882,
-0.0079942396427906178,0.025679301125737672,
-0.0058167618663883119,0.023501823349335368,
-0.0044187350758351012,0.020758041283217992,
-0.0039370078740157462,0.017716535433070869,
-0.0044187350758351012,0.014675029582923745,
-0.0058167618663883093,0.011931247516806368,
-0.0079942396427906161,0.0097537697404040634,
-0.010738021708907997,0.0083557429498508536,
-0.013779527559055116,0.0078740157480314977,
-0.016821033409202237,0.0083557429498508518,
-0.019564815475319616,0.0097537697404040617,
-0.021742293251721924,0.011931247516806368,
-0.023140320042275134,0.014675029582923747,
0*
4,1,3,
-0.01377952755905512,-0.027559055118110236,
-0.013779527559055118,-0.007874015748031496,
0.013779527559055118,-0.0078740157480314977,
0.013779527559055116,-0.027559055118110236,
0*
4,1,3,
0.023622047244094488,-0.017716535433070869,
0.0039370078740157462,-0.017716535433070866,
0.0039370078740157488,0.017716535433070866,
0.023622047244094488,0.017716535433070866,
0*
4,1,3,
0.01377952755905512,0.027559055118110236,
0.013779527559055118,0.007874015748031496,
-0.013779527559055118,0.0078740157480314977,
-0.013779527559055116,0.027559055118110236,
0*
4,1,3,
-0.023622047244094488,0.017716535433070869,
-0.0039370078740157462,0.017716535433070866,
-0.0039370078740157488,-0.017716535433070866,
-0.023622047244094488,-0.017716535433070866,
0*%
%AMCOMP35*
4,1,3,
-0.01796259842519685,0.0095964566929133879,
-0.01796259842519685,-0.0095964566929133844,
0.01796259842519685,-0.0095964566929133879,
0.01796259842519685,0.0095964566929133844,
0*
4,1,19,
-0.027559055118110236,0.0095964566929133879,
-0.027089371096336367,0.012561924896806831,
-0.025726294975546987,0.015237112411271275,
-0.023603254143554738,0.017360153243263524,
-0.020928066629090292,0.018723229364052903,
-0.01796259842519685,0.019192913385826776,
-0.014997130221303409,0.018723229364052903,
-0.012321942706838965,0.01736015324326352,
-0.010198901874846717,0.015237112411271273,
-0.0088358257540573342,0.012561924896806831,
-0.0083661417322834636,0.0095964566929133879,
-0.0088358257540573359,0.0066309884890199408,
-0.010198901874846714,0.0039558009745555012,
-0.012321942706838963,0.0018327601425632526,
-0.014997130221303409,0.00046968402177387209,
-0.01796259842519685,0.0000000000000000010998556081327944,
-0.020928066629090292,0.00046968402177387139,
-0.023603254143554735,0.001832760142563251,
-0.025726294975546984,0.0039558009745554986,
-0.027089371096336367,0.0066309884890199443,
0*
4,1,19,
-0.027559055118110236,-0.0095964566929133844,
-0.027089371096336367,-0.0066309884890199417,
-0.025726294975546987,-0.0039558009745554977,
-0.023603254143554738,-0.0018327601425632493,
-0.020928066629090292,-0.00046968402177386987,
-0.01796259842519685,0.0000000000000000010998556081327946,
-0.014997130221303411,-0.00046968402177386922,
-0.012321942706838965,-0.00183276014256325,
-0.010198901874846717,-0.0039558009745554977,
-0.0088358257540573359,-0.0066309884890199434,
-0.0083661417322834653,-0.0095964566929133844,
-0.0088358257540573377,-0.012561924896806831,
-0.010198901874846714,-0.015237112411271273,
-0.012321942706838963,-0.01736015324326352,
-0.014997130221303411,-0.0187232293640529,
-0.01796259842519685,-0.019192913385826769,
-0.020928066629090292,-0.0187232293640529,
-0.023603254143554735,-0.01736015324326352,
-0.025726294975546984,-0.015237112411271273,
-0.027089371096336367,-0.012561924896806829,
0*
4,1,19,
0.0083661417322834636,-0.0095964566929133861,
0.0088358257540573359,-0.0066309884890199443,
0.010198901874846714,-0.0039558009745554994,
0.012321942706838963,-0.0018327601425632515,
0.014997130221303409,-0.00046968402177387209,
0.01796259842519685,-0.0000000000000000010998556081327946,
0.020928066629090292,-0.00046968402177387139,
0.023603254143554735,-0.0018327601425632521,
0.025726294975546984,-0.0039558009745554994,
0.027089371096336367,-0.0066309884890199452,
0.027559055118110236,-0.0095964566929133879,
0.027089371096336367,-0.012561924896806832,
0.025726294975546987,-0.015237112411271275,
0.023603254143554738,-0.017360153243263524,
0.020928066629090296,-0.018723229364052903,
0.01796259842519685,-0.019192913385826776,
0.014997130221303409,-0.018723229364052903,
0.012321942706838966,-0.01736015324326352,
0.010198901874846717,-0.015237112411271275,
0.0088358257540573342,-0.012561924896806831,
0*
4,1,19,
0.0083661417322834653,0.0095964566929133861,
0.0088358257540573377,0.012561924896806829,
0.010198901874846714,0.015237112411271273,
0.012321942706838963,0.01736015324326352,
0.014997130221303411,0.0187232293640529,
0.017962598425196853,0.019192913385826769,
0.020928066629090292,0.0187232293640529,
0.023603254143554735,0.01736015324326352,
0.025726294975546984,0.015237112411271271,
0.027089371096336367,0.012561924896806829,
0.027559055118110236,0.0095964566929133844,
0.027089371096336367,0.0066309884890199391,
0.025726294975546987,0.0039558009745554986,
0.023603254143554738,0.0018327601425632504,
0.020928066629090296,0.00046968402177386987,
0.017962598425196853,-0.0000000000000000010998556081327946,
0.014997130221303411,0.00046968402177386922,
0.012321942706838966,0.0018327601425632487,
0.010198901874846717,0.0039558009745554968,
0.0088358257540573359,0.0066309884890199417,
0*
4,1,3,
-0.027559055118110236,0.00959645669291339,
-0.0083661417322834636,0.0095964566929133844,
-0.0083661417322834653,-0.0095964566929133879,
-0.027559055118110236,-0.0095964566929133827,
0*
4,1,3,
-0.017962598425196853,-0.019192913385826769,
-0.01796259842519685,0.0000000000000000010998556081327946,
0.01796259842519685,-0.0000000000000000010998556081327946,
0.01796259842519685,-0.019192913385826776,
0*
4,1,3,
0.027559055118110236,-0.00959645669291339,
0.0083661417322834636,-0.0095964566929133844,
0.0083661417322834653,0.0095964566929133879,
0.027559055118110236,0.0095964566929133827,
0*
4,1,3,
0.017962598425196853,0.019192913385826769,
0.01796259842519685,-0.0000000000000000010998556081327946,
-0.01796259842519685,0.0000000000000000010998556081327946,
-0.01796259842519685,0.019192913385826776,
0*%
%AMCOMP36*
4,1,3,
0.0098425196850393734,0.018700787401574805,
-0.00984251968503937,0.018700787401574805,
-0.0098425196850393734,-0.018700787401574805,
0.00984251968503937,-0.018700787401574805,
0*
4,1,19,
0.0000000000000000011450551536724983,0.018700787401574805,
0.00048172720181935636,0.021742293251721924,
0.0018797539923725659,0.0244860753178393,
0.0040572317687748724,0.026663553094241611,
0.0068010138348922524,0.02806157988479482,
0.00984251968503937,0.028543307086614175,
0.012884025535186494,0.02806157988479482,
0.015627807601303872,0.026663553094241611,
0.017805285377706179,0.024486075317839306,
0.019203312168259389,0.021742293251721924,
0.01968503937007874,0.018700787401574805,
0.019203312168259386,0.015659281551427678,
0.017805285377706176,0.012915499485310306,
0.015627807601303872,0.010738021708907997,
0.012884025535186491,0.0093399949183547871,
0.0098425196850393734,0.0088582677165354312,
0.0068010138348922533,0.0093399949183547871,
0.0040572317687748733,0.010738021708907997,
0.0018797539923725666,0.012915499485310301,
0.000481727201819356,0.015659281551427682,
0*
4,1,19,
-0.01968503937007874,0.018700787401574805,
-0.019203312168259386,0.021742293251721924,
-0.017805285377706176,0.0244860753178393,
-0.015627807601303868,0.026663553094241611,
-0.012884025535186489,0.02806157988479482,
-0.0098425196850393682,0.028543307086614175,
-0.0068010138348922489,0.02806157988479482,
-0.0040572317687748707,0.026663553094241611,
-0.0018797539923725642,0.024486075317839306,
-0.00048172720181935375,0.021742293251721924,
0.0000000000000000011450551536724986,0.018700787401574805,
-0.00048172720181935408,0.015659281551427682,
-0.0018797539923725627,0.012915499485310306,
-0.004057231768774869,0.010738021708907997,
-0.0068010138348922481,0.0093399949183547871,
-0.0098425196850393682,0.0088582677165354329,
-0.012884025535186489,0.0093399949183547871,
-0.015627807601303868,0.010738021708907997,
-0.017805285377706176,0.012915499485310301,
-0.019203312168259386,0.015659281551427682,
0*
4,1,19,
-0.01968503937007874,-0.0187007874015748,
-0.019203312168259386,-0.015659281551427682,
-0.017805285377706176,-0.012915499485310303,
-0.015627807601303872,-0.010738021708907997,
-0.012884025535186491,-0.0093399949183547871,
-0.00984251968503937,-0.0088582677165354312,
-0.0068010138348922524,-0.0093399949183547871,
-0.0040572317687748724,-0.010738021708907997,
-0.0018797539923725666,-0.012915499485310301,
-0.000481727201819356,-0.015659281551427682,
-0.0000000000000000011450551536724983,-0.0187007874015748,
-0.00048172720181935636,-0.021742293251721927,
-0.0018797539923725648,-0.0244860753178393,
-0.0040572317687748716,-0.026663553094241611,
-0.0068010138348922507,-0.02806157988479482,
-0.00984251968503937,-0.028543307086614175,
-0.012884025535186491,-0.02806157988479482,
-0.015627807601303872,-0.026663553094241611,
-0.017805285377706179,-0.024486075317839306,
-0.019203312168259389,-0.021742293251721924,
0*
4,1,19,
-0.0000000000000000011450551536724983,-0.018700787401574805,
0.00048172720181935408,-0.015659281551427682,
0.0018797539923725637,-0.012915499485310303,
0.0040572317687748707,-0.010738021708907997,
0.0068010138348922489,-0.0093399949183547871,
0.00984251968503937,-0.0088582677165354329,
0.012884025535186491,-0.0093399949183547871,
0.015627807601303868,-0.010738021708907997,
0.017805285377706176,-0.012915499485310301,
0.019203312168259386,-0.015659281551427685,
0.01968503937007874,-0.018700787401574805,
0.019203312168259386,-0.021742293251721927,
0.017805285377706176,-0.0244860753178393,
0.015627807601303872,-0.026663553094241611,
0.012884025535186489,-0.02806157988479482,
0.00984251968503937,-0.028543307086614175,
0.00680101383489225,-0.02806157988479482,
0.0040572317687748716,-0.026663553094241611,
0.0018797539923725642,-0.024486075317839306,
0.00048172720181935375,-0.021742293251721924,
0*
4,1,3,
0.0098425196850393734,0.028543307086614175,
0.00984251968503937,0.0088582677165354312,
-0.00984251968503937,0.0088582677165354329,
-0.0098425196850393682,0.028543307086614175,
0*
4,1,3,
-0.01968503937007874,0.018700787401574805,
0.0000000000000000011450551536724983,0.018700787401574805,
-0.0000000000000000011450551536724983,-0.018700787401574805,
-0.01968503937007874,-0.0187007874015748,
0*
4,1,3,
-0.0098425196850393734,-0.028543307086614175,
-0.00984251968503937,-0.0088582677165354312,
0.00984251968503937,-0.0088582677165354329,
0.0098425196850393682,-0.028543307086614175,
0*
4,1,3,
0.01968503937007874,-0.018700787401574805,
-0.0000000000000000011450551536724983,-0.018700787401574805,
0.0000000000000000011450551536724983,0.018700787401574805,
0.01968503937007874,0.0187007874015748,
0*%
%AMCOMP37*
4,1,3,
-0.017716535433070866,0.013779527559055118,
-0.017716535433070866,-0.013779527559055118,
0.017716535433070866,-0.013779527559055118,
0.017716535433070866,0.013779527559055118,
0*
4,1,19,
-0.027559055118110236,0.01377952755905512,
-0.027077327916290882,0.016821033409202241,
-0.025679301125737672,0.01956481547531962,
-0.023501823349335368,0.021742293251721924,
-0.020758041283217985,0.023140320042275134,
-0.017716535433070866,0.023622047244094488,
-0.014675029582923747,0.023140320042275134,
-0.011931247516806366,0.021742293251721924,
-0.0097537697404040617,0.01956481547531962,
-0.00835574294985085,0.016821033409202237,
-0.007874015748031496,0.01377952755905512,
-0.00835574294985085,0.010738021708907995,
-0.00975376974040406,0.0079942396427906213,
-0.011931247516806368,0.0058167618663883145,
-0.014675029582923745,0.0044187350758351038,
-0.017716535433070866,0.0039370078740157488,
-0.020758041283217985,0.0044187350758351021,
-0.023501823349335368,0.0058167618663883119,
-0.025679301125737672,0.0079942396427906178,
-0.027077327916290882,0.010738021708907997,
0*
4,1,19,
-0.027559055118110236,-0.013779527559055116,
-0.027077327916290882,-0.010738021708907995,
-0.025679301125737672,-0.0079942396427906178,
-0.023501823349335368,-0.0058167618663883111,
-0.020758041283217985,-0.0044187350758351012,
-0.017716535433070866,-0.0039370078740157462,
-0.014675029582923748,-0.0044187350758351,
-0.011931247516806368,-0.0058167618663883111,
-0.0097537697404040634,-0.0079942396427906161,
-0.0083557429498508536,-0.010738021708907997,
-0.0078740157480314977,-0.013779527559055116,
-0.0083557429498508536,-0.016821033409202241,
-0.0097537697404040617,-0.019564815475319616,
-0.011931247516806369,-0.021742293251721924,
-0.014675029582923747,-0.023140320042275134,
-0.017716535433070866,-0.023622047244094488,
-0.020758041283217985,-0.023140320042275134,
-0.023501823349335368,-0.021742293251721924,
-0.025679301125737672,-0.019564815475319616,
-0.027077327916290882,-0.016821033409202237,
0*
4,1,19,
0.007874015748031496,-0.013779527559055118,
0.00835574294985085,-0.010738021708907997,
0.0097537697404040617,-0.00799423964279062,
0.011931247516806368,-0.0058167618663883128,
0.014675029582923747,-0.0044187350758351038,
0.017716535433070866,-0.0039370078740157488,
0.020758041283217985,-0.0044187350758351021,
0.023501823349335368,-0.0058167618663883128,
0.025679301125737672,-0.0079942396427906178,
0.027077327916290882,-0.010738021708907999,
0.027559055118110236,-0.013779527559055118,
0.027077327916290882,-0.016821033409202244,
0.025679301125737675,-0.019564815475319616,
0.023501823349335368,-0.021742293251721924,
0.020758041283217992,-0.023140320042275134,
0.017716535433070866,-0.023622047244094488,
0.014675029582923747,-0.023140320042275134,
0.011931247516806368,-0.021742293251721924,
0.0097537697404040617,-0.01956481547531962,
0.00835574294985085,-0.016821033409202241,
0*
4,1,19,
0.0078740157480314977,0.013779527559055118,
0.0083557429498508536,0.016821033409202237,
0.0097537697404040634,0.019564815475319616,
0.011931247516806369,0.021742293251721924,
0.014675029582923748,0.023140320042275134,
0.017716535433070869,0.023622047244094488,
0.020758041283217985,0.023140320042275134,
0.023501823349335368,0.021742293251721924,
0.025679301125737672,0.019564815475319616,
0.027077327916290882,0.016821033409202237,
0.027559055118110236,0.013779527559055118,
0.027077327916290882,0.010738021708907993,
0.025679301125737675,0.0079942396427906178,
0.023501823349335368,0.0058167618663883119,
0.020758041283217992,0.0044187350758351012,
0.017716535433070869,0.0039370078740157462,
0.014675029582923748,0.0044187350758351,
0.011931247516806369,0.0058167618663883093,
0.0097537697404040634,0.0079942396427906143,
0.0083557429498508536,0.010738021708907995,
0*
4,1,3,
-0.027559055118110236,0.01377952755905512,
-0.007874015748031496,0.013779527559055118,
-0.0078740157480314977,-0.013779527559055118,
-0.027559055118110236,-0.013779527559055116,
0*
4,1,3,
-0.017716535433070869,-0.023622047244094488,
-0.017716535433070866,-0.0039370078740157462,
0.017716535433070866,-0.0039370078740157488,
0.017716535433070866,-0.023622047244094488,
0*
4,1,3,
0.027559055118110236,-0.01377952755905512,
0.007874015748031496,-0.013779527559055118,
0.0078740157480314977,0.013779527559055118,
0.027559055118110236,0.013779527559055116,
0*
4,1,3,
0.017716535433070869,0.023622047244094488,
0.017716535433070866,0.0039370078740157462,
-0.017716535433070866,0.0039370078740157488,
-0.017716535433070866,0.023622047244094488,
0*%
%AMCOMP38*
4,1,3,
0.013779527559055118,0.017716535433070866,
-0.013779527559055118,0.017716535433070866,
-0.013779527559055118,-0.017716535433070866,
0.013779527559055118,-0.017716535433070866,
0*
4,1,19,
0.0039370078740157488,0.017716535433070866,
0.0044187350758351038,0.020758041283217985,
0.0058167618663883128,0.023501823349335368,
0.00799423964279062,0.025679301125737672,
0.010738021708907999,0.027077327916290882,
0.01377952755905512,0.027559055118110236,
0.016821033409202241,0.027077327916290882,
0.019564815475319616,0.025679301125737672,
0.021742293251721924,0.023501823349335368,
0.023140320042275134,0.020758041283217992,
0.023622047244094488,0.017716535433070866,
0.023140320042275134,0.014675029582923743,
0.021742293251721924,0.011931247516806366,
0.01956481547531962,0.0097537697404040617,
0.016821033409202237,0.00835574294985085,
0.01377952755905512,0.007874015748031496,
0.010738021708907999,0.00835574294985085,
0.0079942396427906213,0.00975376974040406,
0.0058167618663883145,0.011931247516806366,
0.0044187350758351038,0.014675029582923745,
0*
4,1,19,
-0.023622047244094488,0.017716535433070869,
-0.023140320042275134,0.020758041283217985,
-0.021742293251721924,0.023501823349335368,
-0.019564815475319616,0.025679301125737672,
-0.016821033409202237,0.027077327916290882,
-0.013779527559055116,0.027559055118110236,
-0.010738021708907995,0.027077327916290882,
-0.0079942396427906178,0.025679301125737672,
-0.0058167618663883119,0.023501823349335368,
-0.0044187350758351012,0.020758041283217992,
-0.0039370078740157462,0.017716535433070869,
-0.0044187350758351012,0.014675029582923745,
-0.0058167618663883093,0.011931247516806368,
-0.0079942396427906161,0.0097537697404040634,
-0.010738021708907997,0.0083557429498508536,
-0.013779527559055116,0.0078740157480314977,
-0.016821033409202237,0.0083557429498508518,
-0.019564815475319616,0.0097537697404040617,
-0.021742293251721924,0.011931247516806368,
-0.023140320042275134,0.014675029582923747,
0*
4,1,19,
-0.023622047244094488,-0.017716535433070866,
-0.023140320042275134,-0.014675029582923745,
-0.021742293251721924,-0.011931247516806366,
-0.019564815475319616,-0.00975376974040406,
-0.016821033409202237,-0.00835574294985085,
-0.013779527559055118,-0.007874015748031496,
-0.010738021708907997,-0.00835574294985085,
-0.0079942396427906213,-0.0097537697404040617,
-0.0058167618663883145,-0.011931247516806368,
-0.0044187350758351038,-0.014675029582923747,
-0.0039370078740157488,-0.017716535433070866,
-0.0044187350758351038,-0.020758041283217992,
-0.0058167618663883119,-0.023501823349335368,
-0.0079942396427906178,-0.025679301125737672,
-0.010738021708907999,-0.027077327916290882,
-0.013779527559055118,-0.027559055118110236,
-0.016821033409202237,-0.027077327916290882,
-0.019564815475319616,-0.025679301125737675,
-0.021742293251721924,-0.023501823349335368,
-0.023140320042275134,-0.020758041283217992,
0*
4,1,19,
0.0039370078740157462,-0.017716535433070866,
0.0044187350758351012,-0.014675029582923747,
0.0058167618663883111,-0.011931247516806368,
0.0079942396427906178,-0.0097537697404040617,
0.010738021708907997,-0.0083557429498508536,
0.013779527559055118,-0.0078740157480314977,
0.016821033409202237,-0.0083557429498508518,
0.019564815475319616,-0.0097537697404040634,
0.021742293251721924,-0.011931247516806369,
0.023140320042275134,-0.014675029582923748,
0.023622047244094488,-0.017716535433070866,
0.023140320042275134,-0.020758041283217992,
0.021742293251721924,-0.023501823349335368,
0.019564815475319616,-0.025679301125737672,
0.016821033409202237,-0.027077327916290882,
0.013779527559055118,-0.027559055118110236,
0.010738021708907997,-0.027077327916290882,
0.00799423964279062,-0.025679301125737675,
0.0058167618663883119,-0.023501823349335368,
0.0044187350758351012,-0.020758041283217992,
0*
4,1,3,
0.01377952755905512,0.027559055118110236,
0.013779527559055118,0.007874015748031496,
-0.013779527559055118,0.0078740157480314977,
-0.013779527559055116,0.027559055118110236,
0*
4,1,3,
-0.023622047244094488,0.017716535433070869,
-0.0039370078740157462,0.017716535433070866,
-0.0039370078740157488,-0.017716535433070866,
-0.023622047244094488,-0.017716535433070866,
0*
4,1,3,
-0.01377952755905512,-0.027559055118110236,
-0.013779527559055118,-0.007874015748031496,
0.013779527559055118,-0.0078740157480314977,
0.013779527559055116,-0.027559055118110236,
0*
4,1,3,
0.023622047244094488,-0.017716535433070869,
0.0039370078740157462,-0.017716535433070866,
0.0039370078740157488,0.017716535433070866,
0.023622047244094488,0.017716535433070866,
0*%
%AMCOMP39*
4,1,3,
0.02312992125984252,0.0059055118110236211,
-0.02312992125984252,0.0059055118110236228,
-0.02312992125984252,-0.0059055118110236211,
0.02312992125984252,-0.0059055118110236228,
0*
4,1,19,
0.017224409448818898,0.0059055118110236211,
0.017513445769910513,0.007730415321111894,
0.018352261844242438,0.0093766845607823213,
0.019658748510083823,0.010683171226623702,
0.021305017749754251,0.011521987300955628,
0.02312992125984252,0.011811023622047242,
0.024954824769930793,0.011521987300955629,
0.026601094009601218,0.010683171226623702,
0.027907580675442602,0.0093766845607823213,
0.028746396749774531,0.0077304153211118923,
0.029035433070866146,0.0059055118110236211,
0.028746396749774531,0.0040806083009353464,
0.027907580675442606,0.0024343390612649213,
0.026601094009601225,0.0011278523954235378,
0.024954824769930793,0.00028903632109161191,
0.02312992125984252,-0.0000000000000000014162524269107219,
0.021305017749754251,0.00028903632109161109,
0.019658748510083823,0.0011278523954235367,
0.018352261844242438,0.00243433906126492,
0.017513445769910513,0.0040806083009353473,
0*
4,1,19,
-0.029035433070866146,0.0059055118110236246,
-0.028746396749774531,0.0077304153211118967,
-0.027907580675442602,0.0093766845607823248,
-0.026601094009601225,0.010683171226623706,
-0.024954824769930793,0.011521987300955631,
-0.02312992125984252,0.011811023622047246,
-0.021305017749754251,0.011521987300955635,
-0.019658748510083823,0.010683171226623706,
-0.018352261844242438,0.0093766845607823248,
-0.017513445769910513,0.0077304153211118958,
-0.017224409448818898,0.0059055118110236246,
-0.017513445769910513,0.00408060830093535,
-0.018352261844242438,0.0024343390612649239,
-0.019658748510083823,0.0011278523954235406,
-0.021305017749754251,0.00028903632109161478,
-0.02312992125984252,0.0000000000000000014162524269107219,
-0.024954824769930793,0.00028903632109161391,
-0.026601094009601218,0.0011278523954235395,
-0.027907580675442602,0.002434339061264923,
-0.028746396749774531,0.00408060830093535,
0*
4,1,19,
-0.029035433070866146,-0.00590551181102362,
-0.028746396749774531,-0.0040806083009353481,
-0.027907580675442602,-0.0024343390612649209,
-0.026601094009601225,-0.0011278523954235374,
-0.024954824769930793,-0.00028903632109161191,
-0.02312992125984252,0.0000000000000000014162524269107219,
-0.021305017749754251,-0.00028903632109161109,
-0.019658748510083823,-0.0011278523954235378,
-0.018352261844242438,-0.0024343390612649209,
-0.017513445769910513,-0.0040806083009353481,
-0.017224409448818898,-0.00590551181102362,
-0.017513445769910513,-0.0077304153211118949,
-0.018352261844242438,-0.00937668456078232,
-0.019658748510083823,-0.010683171226623702,
-0.021305017749754251,-0.011521987300955628,
-0.02312992125984252,-0.011811023622047242,
-0.024954824769930793,-0.011521987300955629,
-0.026601094009601218,-0.010683171226623704,
-0.027907580675442602,-0.0093766845607823213,
-0.028746396749774531,-0.007730415321111894,
0*
4,1,19,
0.017224409448818898,-0.0059055118110236228,
0.017513445769910513,-0.0040806083009353507,
0.018352261844242438,-0.0024343390612649235,
0.019658748510083823,-0.0011278523954235402,
0.021305017749754251,-0.00028903632109161478,
0.02312992125984252,-0.0000000000000000014162524269107219,
0.024954824769930793,-0.00028903632109161391,
0.026601094009601218,-0.0011278523954235406,
0.027907580675442602,-0.0024343390612649235,
0.028746396749774531,-0.0040806083009353507,
0.029035433070866146,-0.0059055118110236228,
0.028746396749774531,-0.0077304153211118984,
0.027907580675442606,-0.0093766845607823231,
0.026601094009601225,-0.010683171226623706,
0.024954824769930793,-0.011521987300955631,
0.02312992125984252,-0.011811023622047246,
0.021305017749754251,-0.011521987300955635,
0.019658748510083823,-0.010683171226623709,
0.018352261844242438,-0.0093766845607823248,
0.017513445769910513,-0.0077304153211118967,
0*
4,1,3,
0.02312992125984252,0.011811023622047242,
0.02312992125984252,-0.0000000000000000014162524269107219,
-0.02312992125984252,0.0000000000000000014162524269107219,
-0.02312992125984252,0.011811023622047246,
0*
4,1,3,
-0.029035433070866146,0.0059055118110236246,
-0.017224409448818898,0.0059055118110236228,
-0.017224409448818898,-0.0059055118110236211,
-0.029035433070866146,-0.00590551181102362,
0*
4,1,3,
-0.02312992125984252,-0.011811023622047242,
-0.02312992125984252,0.0000000000000000014162524269107219,
0.02312992125984252,-0.0000000000000000014162524269107219,
0.02312992125984252,-0.011811023622047246,
0*
4,1,3,
0.029035433070866146,-0.0059055118110236246,
0.017224409448818898,-0.0059055118110236228,
0.017224409448818898,0.0059055118110236211,
0.029035433070866146,0.00590551181102362,
0*%
%AMCOMP40*
4,1,3,
0.018700787401574805,-0.0098425196850393734,
0.018700787401574805,0.00984251968503937,
-0.018700787401574805,0.0098425196850393734,
-0.018700787401574805,-0.00984251968503937,
0*
4,1,19,
0.0088582677165354312,-0.00984251968503937,
0.0093399949183547871,-0.0068010138348922507,
0.010738021708907997,-0.0040572317687748716,
0.012915499485310303,-0.0018797539923725655,
0.015659281551427682,-0.000481727201819356,
0.018700787401574805,-0.0000000000000000011450551536724983,
0.021742293251721924,-0.00048172720181935522,
0.0244860753178393,-0.0018797539923725659,
0.026663553094241611,-0.0040572317687748716,
0.02806157988479482,-0.0068010138348922524,
0.028543307086614175,-0.00984251968503937,
0.02806157988479482,-0.012884025535186496,
0.026663553094241611,-0.015627807601303872,
0.024486075317839306,-0.017805285377706179,
0.021742293251721924,-0.019203312168259389,
0.018700787401574805,-0.01968503937007874,
0.015659281551427682,-0.019203312168259386,
0.012915499485310306,-0.017805285377706176,
0.010738021708907997,-0.015627807601303872,
0.0093399949183547871,-0.012884025535186494,
0*
4,1,19,
0.0088582677165354329,0.00984251968503937,
0.0093399949183547888,0.012884025535186491,
0.010738021708907997,0.015627807601303872,
0.012915499485310303,0.017805285377706176,
0.015659281551427685,0.019203312168259386,
0.018700787401574805,0.01968503937007874,
0.021742293251721924,0.019203312168259386,
0.0244860753178393,0.017805285377706176,
0.026663553094241611,0.015627807601303872,
0.02806157988479482,0.012884025535186489,
0.028543307086614175,0.00984251968503937,
0.02806157988479482,0.0068010138348922455,
0.026663553094241611,0.0040572317687748707,
0.024486075317839306,0.0018797539923725642,
0.021742293251721924,0.00048172720181935375,
0.018700787401574805,-0.0000000000000000011450551536724986,
0.015659281551427685,0.000481727201819353,
0.012915499485310306,0.0018797539923725627,
0.010738021708907997,0.0040572317687748681,
0.0093399949183547871,0.0068010138348922463,
0*
4,1,19,
-0.028543307086614175,0.0098425196850393734,
-0.02806157988479482,0.012884025535186494,
-0.026663553094241611,0.015627807601303872,
-0.0244860753178393,0.017805285377706179,
-0.021742293251721924,0.019203312168259389,
-0.0187007874015748,0.01968503937007874,
-0.015659281551427682,0.019203312168259386,
-0.012915499485310306,0.017805285377706176,
-0.010738021708907997,0.015627807601303872,
-0.0093399949183547871,0.012884025535186491,
-0.0088582677165354312,0.0098425196850393734,
-0.0093399949183547871,0.0068010138348922489,
-0.010738021708907997,0.0040572317687748724,
-0.012915499485310301,0.0018797539923725666,
-0.015659281551427682,0.000481727201819356,
-0.0187007874015748,0.0000000000000000011450551536724983,
-0.02174229325172192,0.00048172720181935522,
-0.0244860753178393,0.0018797539923725648,
-0.026663553094241611,0.0040572317687748707,
-0.02806157988479482,0.00680101383489225,
0*
4,1,19,
-0.028543307086614175,-0.0098425196850393682,
-0.02806157988479482,-0.0068010138348922481,
-0.026663553094241611,-0.004057231768774869,
-0.0244860753178393,-0.0018797539923725631,
-0.021742293251721924,-0.00048172720181935375,
-0.018700787401574805,0.0000000000000000011450551536724983,
-0.015659281551427682,-0.000481727201819353,
-0.012915499485310306,-0.0018797539923725637,
-0.010738021708907997,-0.004057231768774869,
-0.0093399949183547871,-0.0068010138348922489,
-0.0088582677165354329,-0.00984251968503937,
-0.0093399949183547888,-0.012884025535186494,
-0.010738021708907997,-0.015627807601303868,
-0.012915499485310301,-0.017805285377706176,
-0.015659281551427685,-0.019203312168259386,
-0.018700787401574805,-0.01968503937007874,
-0.02174229325172192,-0.019203312168259386,
-0.0244860753178393,-0.017805285377706176,
-0.026663553094241611,-0.015627807601303872,
-0.02806157988479482,-0.012884025535186491,
0*
4,1,3,
0.028543307086614175,-0.0098425196850393734,
0.0088582677165354312,-0.00984251968503937,
0.0088582677165354329,0.00984251968503937,
0.028543307086614175,0.0098425196850393682,
0*
4,1,3,
0.018700787401574805,0.01968503937007874,
0.018700787401574805,-0.0000000000000000011450551536724983,
-0.018700787401574805,0.0000000000000000011450551536724983,
-0.0187007874015748,0.01968503937007874,
0*
4,1,3,
-0.028543307086614175,0.0098425196850393734,
-0.0088582677165354312,0.00984251968503937,
-0.0088582677165354329,-0.00984251968503937,
-0.028543307086614175,-0.0098425196850393682,
0*
4,1,3,
-0.018700787401574805,-0.01968503937007874,
-0.018700787401574805,0.0000000000000000011450551536724983,
0.018700787401574805,-0.0000000000000000011450551536724983,
0.0187007874015748,-0.01968503937007874,
0*%
%AMCOMP41*
4,1,3,
0.017716535433070866,-0.013779527559055118,
0.017716535433070866,0.013779527559055118,
-0.017716535433070866,0.013779527559055118,
-0.017716535433070866,-0.013779527559055118,
0*
4,1,19,
0.007874015748031496,-0.013779527559055118,
0.00835574294985085,-0.010738021708907997,
0.0097537697404040617,-0.00799423964279062,
0.011931247516806368,-0.0058167618663883128,
0.014675029582923747,-0.0044187350758351038,
0.017716535433070866,-0.0039370078740157488,
0.020758041283217985,-0.0044187350758351021,
0.023501823349335368,-0.0058167618663883128,
0.025679301125737672,-0.0079942396427906178,
0.027077327916290882,-0.010738021708907999,
0.027559055118110236,-0.013779527559055118,
0.027077327916290882,-0.016821033409202244,
0.025679301125737675,-0.019564815475319616,
0.023501823349335368,-0.021742293251721924,
0.020758041283217992,-0.023140320042275134,
0.017716535433070866,-0.023622047244094488,
0.014675029582923747,-0.023140320042275134,
0.011931247516806368,-0.021742293251721924,
0.0097537697404040617,-0.01956481547531962,
0.00835574294985085,-0.016821033409202241,
0*
4,1,19,
0.0078740157480314977,0.013779527559055118,
0.0083557429498508536,0.016821033409202237,
0.0097537697404040634,0.019564815475319616,
0.011931247516806369,0.021742293251721924,
0.014675029582923748,0.023140320042275134,
0.017716535433070869,0.023622047244094488,
0.020758041283217985,0.023140320042275134,
0.023501823349335368,0.021742293251721924,
0.025679301125737672,0.019564815475319616,
0.027077327916290882,0.016821033409202237,
0.027559055118110236,0.013779527559055118,
0.027077327916290882,0.010738021708907993,
0.025679301125737675,0.0079942396427906178,
0.023501823349335368,0.0058167618663883119,
0.020758041283217992,0.0044187350758351012,
0.017716535433070869,0.0039370078740157462,
0.014675029582923748,0.0044187350758351,
0.011931247516806369,0.0058167618663883093,
0.0097537697404040634,0.0079942396427906143,
0.0083557429498508536,0.010738021708907995,
0*
4,1,19,
-0.027559055118110236,0.01377952755905512,
-0.027077327916290882,0.016821033409202241,
-0.025679301125737672,0.01956481547531962,
-0.023501823349335368,0.021742293251721924,
-0.020758041283217985,0.023140320042275134,
-0.017716535433070866,0.023622047244094488,
-0.014675029582923747,0.023140320042275134,
-0.011931247516806366,0.021742293251721924,
-0.0097537697404040617,0.01956481547531962,
-0.00835574294985085,0.016821033409202237,
-0.007874015748031496,0.01377952755905512,
-0.00835574294985085,0.010738021708907995,
-0.00975376974040406,0.0079942396427906213,
-0.011931247516806368,0.0058167618663883145,
-0.014675029582923745,0.0044187350758351038,
-0.017716535433070866,0.0039370078740157488,
-0.020758041283217985,0.0044187350758351021,
-0.023501823349335368,0.0058167618663883119,
-0.025679301125737672,0.0079942396427906178,
-0.027077327916290882,0.010738021708907997,
0*
4,1,19,
-0.027559055118110236,-0.013779527559055116,
-0.027077327916290882,-0.010738021708907995,
-0.025679301125737672,-0.0079942396427906178,
-0.023501823349335368,-0.0058167618663883111,
-0.020758041283217985,-0.0044187350758351012,
-0.017716535433070866,-0.0039370078740157462,
-0.014675029582923748,-0.0044187350758351,
-0.011931247516806368,-0.0058167618663883111,
-0.0097537697404040634,-0.0079942396427906161,
-0.0083557429498508536,-0.010738021708907997,
-0.0078740157480314977,-0.013779527559055116,
-0.0083557429498508536,-0.016821033409202241,
-0.0097537697404040617,-0.019564815475319616,
-0.011931247516806369,-0.021742293251721924,
-0.014675029582923747,-0.023140320042275134,
-0.017716535433070866,-0.023622047244094488,
-0.020758041283217985,-0.023140320042275134,
-0.023501823349335368,-0.021742293251721924,
-0.025679301125737672,-0.019564815475319616,
-0.027077327916290882,-0.016821033409202237,
0*
4,1,3,
0.027559055118110236,-0.01377952755905512,
0.007874015748031496,-0.013779527559055118,
0.0078740157480314977,0.013779527559055118,
0.027559055118110236,0.013779527559055116,
0*
4,1,3,
0.017716535433070869,0.023622047244094488,
0.017716535433070866,0.0039370078740157462,
-0.017716535433070866,0.0039370078740157488,
-0.017716535433070866,0.023622047244094488,
0*
4,1,3,
-0.027559055118110236,0.01377952755905512,
-0.007874015748031496,0.013779527559055118,
-0.0078740157480314977,-0.013779527559055118,
-0.027559055118110236,-0.013779527559055116,
0*
4,1,3,
-0.017716535433070869,-0.023622047244094488,
-0.017716535433070866,-0.0039370078740157462,
0.017716535433070866,-0.0039370078740157488,
0.017716535433070866,-0.023622047244094488,
0*%
%AMCOMP42*
4,1,3,
0.0049212598425196867,0.022637795275590549,
-0.0049212598425196841,0.022637795275590549,
-0.0049212598425196867,-0.022637795275590549,
0.0049212598425196841,-0.022637795275590549,
0*
4,1,19,
0.0000000000000000013861193965509192,0.022637795275590549,
0.000240863600909679,0.024158548200664112,
0.00093987699618628383,0.0255304392337228,
0.0020286158843874371,0.026619178121923954,
0.0034005069174461266,0.027318191517200559,
0.0049212598425196867,0.027559055118110236,
0.0064420127675932481,0.027318191517200559,
0.0078139038006519359,0.026619178121923954,
0.00890264268885309,0.0255304392337228,
0.0096016560841296946,0.024158548200664112,
0.0098425196850393734,0.022637795275590549,
0.0096016560841296946,0.021117042350516989,
0.00890264268885309,0.019745151317458298,
0.0078139038006519376,0.018656412429257148,
0.0064420127675932472,0.017957399033980543,
0.0049212598425196876,0.017716535433070866,
0.0034005069174461271,0.017957399033980543,
0.0020286158843874375,0.018656412429257148,
0.000939876996186284,0.019745151317458298,
0.0002408636009096788,0.021117042350516989,
0*
4,1,19,
-0.00984251968503937,0.022637795275590549,
-0.0096016560841296929,0.024158548200664112,
-0.008902642688853088,0.0255304392337228,
-0.0078139038006519342,0.026619178121923954,
-0.0064420127675932437,0.027318191517200559,
-0.0049212598425196841,0.027559055118110236,
-0.003400506917446124,0.027318191517200559,
-0.0020286158843874345,0.026619178121923954,
-0.00093987699618628133,0.0255304392337228,
-0.00024086360090967604,0.024158548200664112,
0.0000000000000000013861193965509192,0.022637795275590549,
-0.00024086360090967623,0.021117042350516989,
-0.00093987699618628046,0.019745151317458298,
-0.0020286158843874336,0.018656412429257148,
-0.0034005069174461232,0.017957399033980543,
-0.0049212598425196832,0.017716535433070866,
-0.0064420127675932437,0.017957399033980543,
-0.0078139038006519324,0.018656412429257148,
-0.008902642688853088,0.019745151317458298,
-0.0096016560841296929,0.021117042350516989,
0*
4,1,19,
-0.0098425196850393734,-0.022637795275590549,
-0.0096016560841296946,-0.021117042350516989,
-0.00890264268885309,-0.019745151317458298,
-0.0078139038006519359,-0.018656412429257148,
-0.0064420127675932472,-0.017957399033980543,
-0.0049212598425196867,-0.017716535433070866,
-0.0034005069174461266,-0.017957399033980543,
-0.0020286158843874371,-0.018656412429257148,
-0.000939876996186284,-0.019745151317458298,
-0.0002408636009096788,-0.021117042350516989,
-0.0000000000000000013861193965509192,-0.022637795275590549,
-0.000240863600909679,-0.024158548200664112,
-0.00093987699618628328,-0.0255304392337228,
-0.0020286158843874367,-0.026619178121923954,
-0.0034005069174461262,-0.027318191517200559,
-0.0049212598425196867,-0.027559055118110236,
-0.0064420127675932472,-0.027318191517200559,
-0.0078139038006519359,-0.026619178121923954,
-0.00890264268885309,-0.0255304392337228,
-0.0096016560841296946,-0.024158548200664112,
0*
4,1,19,
-0.0000000000000000013861193965509192,-0.022637795275590549,
0.00024086360090967623,-0.021117042350516989,
0.000939876996186281,-0.019745151317458298,
0.0020286158843874345,-0.018656412429257148,
0.003400506917446124,-0.017957399033980543,
0.0049212598425196841,-0.017716535433070866,
0.0064420127675932446,-0.017957399033980543,
0.0078139038006519324,-0.018656412429257148,
0.008902642688853088,-0.019745151317458298,
0.0096016560841296929,-0.021117042350516989,
0.00984251968503937,-0.022637795275590549,
0.0096016560841296929,-0.024158548200664112,
0.008902642688853088,-0.0255304392337228,
0.0078139038006519359,-0.026619178121923954,
0.0064420127675932437,-0.027318191517200559,
0.004921259842519685,-0.027559055118110236,
0.0034005069174461245,-0.027318191517200559,
0.0020286158843874349,-0.026619178121923954,
0.00093987699618628133,-0.0255304392337228,
0.00024086360090967604,-0.024158548200664112,
0*
4,1,3,
0.0049212598425196876,0.027559055118110236,
0.004921259842519685,0.017716535433070866,
-0.0049212598425196841,0.017716535433070866,
-0.0049212598425196832,0.027559055118110236,
0*
4,1,3,
-0.00984251968503937,0.022637795275590549,
0.0000000000000000013861193965509192,0.022637795275590549,
-0.0000000000000000013861193965509192,-0.022637795275590549,
-0.0098425196850393734,-0.022637795275590549,
0*
4,1,3,
-0.0049212598425196876,-0.027559055118110236,
-0.004921259842519685,-0.017716535433070866,
0.0049212598425196841,-0.017716535433070866,
0.0049212598425196832,-0.027559055118110236,
0*
4,1,3,
0.00984251968503937,-0.022637795275590549,
-0.0000000000000000013861193965509192,-0.022637795275590549,
0.0000000000000000013861193965509192,0.022637795275590549,
0.0098425196850393734,0.022637795275590549,
0*%
%AMCOMP43*
4,1,3,
-0.0073818897637795283,-0.003444881889763779,
0.0073818897637795283,-0.00344488188976378,
0.0073818897637795283,0.003444881889763779,
-0.0073818897637795283,0.00344488188976378,
0*
4,1,19,
-0.010826771653543309,-0.003444881889763779,
-0.010658167132906533,-0.0023803548422122872,
-0.01016885775621291,-0.0014200311190712041,
-0.0094067405344721022,-0.00065791389733039726,
-0.00844641681133102,-0.00016860452063677391,
-0.0073818897637795283,0.00000000000000000045199545539703892,
-0.0063173627162280369,-0.00016860452063677351,
-0.0053570389930869535,-0.00065791389733039758,
-0.0045949217713461459,-0.0014200311190712041,
-0.0041056123946525231,-0.0023803548422122868,
-0.0039370078740157488,-0.003444881889763779,
-0.0041056123946525231,-0.0045094089373152726,
-0.0045949217713461459,-0.0054697326604563543,
-0.0053570389930869527,-0.0062318498821971611,
-0.0063173627162280352,-0.0067211592588907855,
-0.0073818897637795266,-0.006889763779527559,
-0.00844641681133102,-0.0067211592588907855,
-0.0094067405344721022,-0.0062318498821971611,
-0.01016885775621291,-0.0054697326604563543,
-0.010658167132906533,-0.0045094089373152717,
0*
4,1,19,
0.0039370078740157488,-0.0034448818897637795,
0.0041056123946525231,-0.0023803548422122876,
0.0045949217713461459,-0.0014200311190712049,
0.0053570389930869535,-0.00065791389733039812,
0.0063173627162280352,-0.00016860452063677481,
0.0073818897637795283,-0.00000000000000000045199545539703892,
0.00844641681133102,-0.0001686045206367744,
0.0094067405344721022,-0.00065791389733039834,
0.01016885775621291,-0.0014200311190712049,
0.010658167132906533,-0.0023803548422122876,
0.010826771653543309,-0.0034448818897637795,
0.010658167132906533,-0.0045094089373152735,
0.01016885775621291,-0.0054697326604563551,
0.009406740534472104,-0.0062318498821971619,
0.00844641681133102,-0.0067211592588907855,
0.0073818897637795292,-0.006889763779527559,
0.0063173627162280369,-0.0067211592588907855,
0.0053570389930869535,-0.0062318498821971619,
0.0045949217713461459,-0.0054697326604563551,
0.0041056123946525223,-0.0045094089373152717,
0*
4,1,19,
0.0039370078740157488,0.0034448818897637795,
0.0041056123946525231,0.0045094089373152717,
0.0045949217713461468,0.0054697326604563551,
0.0053570389930869535,0.0062318498821971611,
0.0063173627162280352,0.0067211592588907855,
0.0073818897637795283,0.006889763779527559,
0.00844641681133102,0.0067211592588907855,
0.0094067405344721022,0.00623184988219716,
0.01016885775621291,0.0054697326604563543,
0.010658167132906533,0.0045094089373152717,
0.010826771653543309,0.0034448818897637795,
0.010658167132906533,0.0023803548422122859,
0.01016885775621291,0.0014200311190712047,
0.009406740534472104,0.00065791389733039726,
0.00844641681133102,0.00016860452063677391,
0.0073818897637795292,-0.00000000000000000045199545539703892,
0.0063173627162280369,0.00016860452063677351,
0.0053570389930869535,0.000657913897330397,
0.0045949217713461459,0.0014200311190712038,
0.0041056123946525231,0.0023803548422122863,
0*
4,1,19,
-0.010826771653543309,0.00344488188976378,
-0.010658167132906533,0.0045094089373152717,
-0.01016885775621291,0.005469732660456356,
-0.0094067405344721022,0.0062318498821971619,
-0.00844641681133102,0.0067211592588907855,
-0.0073818897637795283,0.006889763779527559,
-0.0063173627162280369,0.0067211592588907855,
-0.0053570389930869535,0.0062318498821971611,
-0.0045949217713461459,0.0054697326604563551,
-0.0041056123946525223,0.0045094089373152717,
-0.0039370078740157488,0.00344488188976378,
-0.0041056123946525231,0.0023803548422122868,
-0.0045949217713461459,0.0014200311190712054,
-0.0053570389930869527,0.00065791389733039812,
-0.0063173627162280352,0.00016860452063677481,
-0.0073818897637795266,0.00000000000000000045199545539703883,
-0.00844641681133102,0.0001686045206367744,
-0.0094067405344721022,0.0006579138973303978,
-0.01016885775621291,0.0014200311190712047,
-0.010658167132906533,0.0023803548422122872,
0*
4,1,3,
-0.0073818897637795283,-0.006889763779527559,
-0.0073818897637795283,0.00000000000000000045199545539703892,
0.0073818897637795283,-0.00000000000000000045199545539703892,
0.0073818897637795283,-0.006889763779527559,
0*
4,1,3,
0.010826771653543309,-0.00344488188976378,
0.0039370078740157488,-0.0034448818897637795,
0.0039370078740157488,0.0034448818897637795,
0.010826771653543309,0.003444881889763779,
0*
4,1,3,
0.0073818897637795283,0.006889763779527559,
0.0073818897637795283,-0.00000000000000000045199545539703892,
-0.0073818897637795283,0.00000000000000000045199545539703892,
-0.0073818897637795283,0.006889763779527559,
0*
4,1,3,
-0.010826771653543309,0.00344488188976378,
-0.0039370078740157488,0.0034448818897637795,
-0.0039370078740157488,-0.0034448818897637795,
-0.010826771653543309,-0.003444881889763779,
0*%
%AMCOMP44*
4,1,3,
0.0073818897637795283,0.003444881889763779,
-0.0073818897637795283,0.00344488188976378,
-0.0073818897637795283,-0.003444881889763779,
0.0073818897637795283,-0.00344488188976378,
0*
4,1,19,
0.0039370078740157488,0.0034448818897637795,
0.0041056123946525231,0.0045094089373152717,
0.0045949217713461468,0.0054697326604563551,
0.0053570389930869535,0.0062318498821971611,
0.0063173627162280352,0.0067211592588907855,
0.0073818897637795283,0.006889763779527559,
0.00844641681133102,0.0067211592588907855,
0.0094067405344721022,0.00623184988219716,
0.01016885775621291,0.0054697326604563543,
0.010658167132906533,0.0045094089373152717,
0.010826771653543309,0.0034448818897637795,
0.010658167132906533,0.0023803548422122859,
0.01016885775621291,0.0014200311190712047,
0.009406740534472104,0.00065791389733039726,
0.00844641681133102,0.00016860452063677391,
0.0073818897637795292,-0.00000000000000000045199545539703892,
0.0063173627162280369,0.00016860452063677351,
0.0053570389930869535,0.000657913897330397,
0.0045949217713461459,0.0014200311190712038,
0.0041056123946525231,0.0023803548422122863,
0*
4,1,19,
-0.010826771653543309,0.00344488188976378,
-0.010658167132906533,0.0045094089373152717,
-0.01016885775621291,0.005469732660456356,
-0.0094067405344721022,0.0062318498821971619,
-0.00844641681133102,0.0067211592588907855,
-0.0073818897637795283,0.006889763779527559,
-0.0063173627162280369,0.0067211592588907855,
-0.0053570389930869535,0.0062318498821971611,
-0.0045949217713461459,0.0054697326604563551,
-0.0041056123946525223,0.0045094089373152717,
-0.0039370078740157488,0.00344488188976378,
-0.0041056123946525231,0.0023803548422122868,
-0.0045949217713461459,0.0014200311190712054,
-0.0053570389930869527,0.00065791389733039812,
-0.0063173627162280352,0.00016860452063677481,
-0.0073818897637795266,0.00000000000000000045199545539703883,
-0.00844641681133102,0.0001686045206367744,
-0.0094067405344721022,0.0006579138973303978,
-0.01016885775621291,0.0014200311190712047,
-0.010658167132906533,0.0023803548422122872,
0*
4,1,19,
-0.010826771653543309,-0.003444881889763779,
-0.010658167132906533,-0.0023803548422122872,
-0.01016885775621291,-0.0014200311190712041,
-0.0094067405344721022,-0.00065791389733039726,
-0.00844641681133102,-0.00016860452063677391,
-0.0073818897637795283,0.00000000000000000045199545539703892,
-0.0063173627162280369,-0.00016860452063677351,
-0.0053570389930869535,-0.00065791389733039758,
-0.0045949217713461459,-0.0014200311190712041,
-0.0041056123946525231,-0.0023803548422122868,
-0.0039370078740157488,-0.003444881889763779,
-0.0041056123946525231,-0.0045094089373152726,
-0.0045949217713461459,-0.0054697326604563543,
-0.0053570389930869527,-0.0062318498821971611,
-0.0063173627162280352,-0.0067211592588907855,
-0.0073818897637795266,-0.006889763779527559,
-0.00844641681133102,-0.0067211592588907855,
-0.0094067405344721022,-0.0062318498821971611,
-0.01016885775621291,-0.0054697326604563543,
-0.010658167132906533,-0.0045094089373152717,
0*
4,1,19,
0.0039370078740157488,-0.0034448818897637795,
0.0041056123946525231,-0.0023803548422122876,
0.0045949217713461459,-0.0014200311190712049,
0.0053570389930869535,-0.00065791389733039812,
0.0063173627162280352,-0.00016860452063677481,
0.0073818897637795283,-0.00000000000000000045199545539703892,
0.00844641681133102,-0.0001686045206367744,
0.0094067405344721022,-0.00065791389733039834,
0.01016885775621291,-0.0014200311190712049,
0.010658167132906533,-0.0023803548422122876,
0.010826771653543309,-0.0034448818897637795,
0.010658167132906533,-0.0045094089373152735,
0.01016885775621291,-0.0054697326604563551,
0.009406740534472104,-0.0062318498821971619,
0.00844641681133102,-0.0067211592588907855,
0.0073818897637795292,-0.006889763779527559,
0.0063173627162280369,-0.0067211592588907855,
0.0053570389930869535,-0.0062318498821971619,
0.0045949217713461459,-0.0054697326604563551,
0.0041056123946525223,-0.0045094089373152717,
0*
4,1,3,
0.0073818897637795283,0.006889763779527559,
0.0073818897637795283,-0.00000000000000000045199545539703892,
-0.0073818897637795283,0.00000000000000000045199545539703892,
-0.0073818897637795283,0.006889763779527559,
0*
4,1,3,
-0.010826771653543309,0.00344488188976378,
-0.0039370078740157488,0.0034448818897637795,
-0.0039370078740157488,-0.0034448818897637795,
-0.010826771653543309,-0.003444881889763779,
0*
4,1,3,
-0.0073818897637795283,-0.006889763779527559,
-0.0073818897637795283,0.00000000000000000045199545539703892,
0.0073818897637795283,-0.00000000000000000045199545539703892,
0.0073818897637795283,-0.006889763779527559,
0*
4,1,3,
0.010826771653543309,-0.00344488188976378,
0.0039370078740157488,-0.0034448818897637795,
0.0039370078740157488,0.0034448818897637795,
0.010826771653543309,0.003444881889763779,
0*%
%AMCOMP45*
4,1,3,
0.010826771653543309,-0.010826771653543309,
0.010826771653543309,0.010826771653543309,
-0.010826771653543309,0.010826771653543309,
-0.010826771653543309,-0.010826771653543309,
0*
4,1,19,
0.00098425196850393721,-0.010826771653543309,
0.0014659791703232924,-0.0077852658033961877,
0.0028640059608765018,-0.0050414837372788086,
0.0050414837372788086,-0.0028640059608765031,
0.0077852658033961877,-0.0014659791703232935,
0.010826771653543309,-0.00098425196850393851,
0.01386827750369043,-0.0014659791703232926,
0.016612059569807807,-0.0028640059608765036,
0.018789537346210115,-0.0050414837372788086,
0.020187564136763324,-0.0077852658033961885,
0.020669291338582679,-0.010826771653543309,
0.020187564136763324,-0.013868277503690433,
0.018789537346210115,-0.016612059569807807,
0.016612059569807807,-0.018789537346210115,
0.013868277503690428,-0.020187564136763324,
0.010826771653543309,-0.020669291338582679,
0.0077852658033961885,-0.020187564136763324,
0.00504148373727881,-0.018789537346210115,
0.0028640059608765027,-0.016612059569807811,
0.0014659791703232922,-0.013868277503690431,
0*
4,1,19,
0.00098425196850393851,0.010826771653543309,
0.0014659791703232937,0.01386827750369043,
0.0028640059608765036,0.016612059569807807,
0.00504148373727881,0.018789537346210115,
0.0077852658033961885,0.020187564136763324,
0.01082677165354331,0.020669291338582679,
0.013868277503690431,0.020187564136763324,
0.016612059569807807,0.018789537346210115,
0.018789537346210115,0.016612059569807807,
0.020187564136763324,0.013868277503690428,
0.020669291338582679,0.010826771653543309,
0.020187564136763324,0.0077852658033961842,
0.018789537346210115,0.0050414837372788086,
0.016612059569807811,0.0028640059608765027,
0.01386827750369043,0.0014659791703232922,
0.01082677165354331,0.00098425196850393721,
0.00778526580339619,0.0014659791703232913,
0.0050414837372788112,0.002864005960876501,
0.002864005960876504,0.0050414837372788068,
0.0014659791703232935,0.0077852658033961859,
0*
4,1,19,
-0.020669291338582679,0.01082677165354331,
-0.020187564136763324,0.013868277503690431,
-0.018789537346210115,0.016612059569807811,
-0.016612059569807807,0.018789537346210115,
-0.013868277503690428,0.020187564136763324,
-0.010826771653543307,0.020669291338582679,
-0.0077852658033961877,0.020187564136763324,
-0.0050414837372788086,0.018789537346210115,
-0.0028640059608765027,0.016612059569807811,
-0.0014659791703232922,0.01386827750369043,
-0.00098425196850393721,0.01082677165354331,
-0.0014659791703232924,0.0077852658033961859,
-0.002864005960876501,0.00504148373727881,
-0.0050414837372788077,0.002864005960876504,
-0.0077852658033961868,0.0014659791703232935,
-0.010826771653543307,0.00098425196850393851,
-0.013868277503690428,0.0014659791703232926,
-0.016612059569807807,0.0028640059608765027,
-0.018789537346210115,0.0050414837372788077,
-0.020187564136763324,0.0077852658033961868,
0*
4,1,19,
-0.020669291338582679,-0.010826771653543307,
-0.020187564136763324,-0.0077852658033961868,
-0.018789537346210115,-0.0050414837372788077,
-0.016612059569807807,-0.0028640059608765014,
-0.01386827750369043,-0.0014659791703232922,
-0.010826771653543309,-0.00098425196850393721,
-0.0077852658033961885,-0.0014659791703232913,
-0.00504148373727881,-0.0028640059608765018,
-0.002864005960876504,-0.0050414837372788077,
-0.0014659791703232935,-0.0077852658033961877,
-0.00098425196850393851,-0.010826771653543307,
-0.0014659791703232937,-0.013868277503690431,
-0.0028640059608765027,-0.016612059569807807,
-0.0050414837372788086,-0.018789537346210115,
-0.0077852658033961877,-0.020187564136763324,
-0.010826771653543309,-0.020669291338582679,
-0.01386827750369043,-0.020187564136763324,
-0.016612059569807807,-0.018789537346210115,
-0.018789537346210115,-0.016612059569807807,
-0.020187564136763324,-0.01386827750369043,
0*
4,1,3,
0.020669291338582679,-0.01082677165354331,
0.00098425196850393721,-0.010826771653543309,
0.00098425196850393851,0.010826771653543309,
0.020669291338582679,0.010826771653543307,
0*
4,1,3,
0.01082677165354331,0.020669291338582679,
0.010826771653543309,0.00098425196850393721,
-0.010826771653543309,0.00098425196850393851,
-0.010826771653543307,0.020669291338582679,
0*
4,1,3,
-0.020669291338582679,0.01082677165354331,
-0.00098425196850393721,0.010826771653543309,
-0.00098425196850393851,-0.010826771653543309,
-0.020669291338582679,-0.010826771653543307,
0*
4,1,3,
-0.01082677165354331,-0.020669291338582679,
-0.010826771653543309,-0.00098425196850393721,
0.010826771653543309,-0.00098425196850393851,
0.010826771653543307,-0.020669291338582679,
0*%
%AMCOMP46*
4,1,3,
0.0024606299212598421,-0.013779527559055118,
0.0024606299212598438,0.013779527559055118,
-0.0024606299212598421,0.013779527559055118,
-0.0024606299212598438,-0.013779527559055118,
0*
4,1,19,
-0.0000000000000000008437248500744725,-0.013779527559055118,
0.00012043180045483795,-0.013019151096518338,
0.00046993849809314039,-0.012333205579988992,
0.001014307942193717,-0.011788836135888417,
0.0017002534587230616,-0.011439329438250113,
0.0024606299212598416,-0.011318897637795275,
0.0032210063837966223,-0.011439329438250113,
0.0039069519003259662,-0.011788836135888417,
0.004451321344426544,-0.012333205579988992,
0.0048008280420648464,-0.013019151096518338,
0.0049212598425196841,-0.013779527559055118,
0.0048008280420648456,-0.014539904021591898,
0.0044513213444265431,-0.015225849538121243,
0.0039069519003259671,-0.01577021898222182,
0.0032210063837966219,-0.016119725679860121,
0.0024606299212598421,-0.01624015748031496,
0.001700253458723062,-0.016119725679860121,
0.0010143079421937172,-0.01577021898222182,
0.00046993849809314045,-0.015225849538121243,
0.00012043180045483787,-0.014539904021591898,
0*
4,1,19,
0.0000000000000000008437248500744725,0.013779527559055118,
0.00012043180045483964,0.014539904021591898,
0.00046993849809314208,0.015225849538121243,
0.0010143079421937188,0.01577021898222182,
0.0017002534587230635,0.016119725679860121,
0.0024606299212598434,0.01624015748031496,
0.003221006383796624,0.016119725679860121,
0.0039069519003259679,0.01577021898222182,
0.0044513213444265448,0.015225849538121243,
0.0048008280420648482,0.014539904021591898,
0.0049212598425196867,0.013779527559055118,
0.0048008280420648473,0.013019151096518338,
0.0044513213444265448,0.012333205579988992,
0.0039069519003259688,0.011788836135888417,
0.0032210063837966236,0.011439329438250113,
0.0024606299212598438,0.011318897637795275,
0.0017002534587230638,0.011439329438250113,
0.001014307942193719,0.011788836135888417,
0.00046993849809314218,0.012333205579988992,
0.00012043180045483956,0.013019151096518338,
0*
4,1,19,
-0.0049212598425196841,0.013779527559055118,
-0.0048008280420648456,0.014539904021591898,
-0.0044513213444265431,0.015225849538121243,
-0.0039069519003259662,0.01577021898222182,
-0.0032210063837966219,0.016119725679860121,
-0.0024606299212598416,0.01624015748031496,
-0.0017002534587230616,0.016119725679860121,
-0.001014307942193717,0.01577021898222182,
-0.00046993849809314045,0.015225849538121243,
-0.00012043180045483787,0.014539904021591898,
0.0000000000000000008437248500744725,0.013779527559055118,
-0.00012043180045483795,0.013019151096518338,
-0.00046993849809314012,0.012333205579988992,
-0.0010143079421937168,0.011788836135888417,
-0.0017002534587230614,0.011439329438250113,
-0.0024606299212598412,0.011318897637795275,
-0.0032210063837966219,0.011439329438250113,
-0.0039069519003259662,0.011788836135888417,
-0.004451321344426544,0.012333205579988992,
-0.0048008280420648464,0.013019151096518338,
0*
4,1,19,
-0.0049212598425196867,-0.013779527559055118,
-0.0048008280420648473,-0.013019151096518338,
-0.0044513213444265448,-0.012333205579988992,
-0.0039069519003259679,-0.011788836135888417,
-0.0032210063837966236,-0.011439329438250113,
-0.0024606299212598434,-0.011318897637795275,
-0.0017002534587230635,-0.011439329438250113,
-0.0010143079421937188,-0.011788836135888417,
-0.00046993849809314218,-0.012333205579988992,
-0.00012043180045483956,-0.013019151096518338,
-0.0000000000000000008437248500744725,-0.013779527559055118,
-0.00012043180045483964,-0.014539904021591898,
-0.0004699384980931418,-0.015225849538121243,
-0.0010143079421937183,-0.01577021898222182,
-0.0017002534587230633,-0.016119725679860121,
-0.0024606299212598434,-0.01624015748031496,
-0.0032210063837966236,-0.016119725679860121,
-0.0039069519003259679,-0.01577021898222182,
-0.0044513213444265448,-0.015225849538121243,
-0.0048008280420648482,-0.014539904021591898,
0*
4,1,3,
0.0049212598425196841,-0.013779527559055118,
-0.0000000000000000008437248500744725,-0.013779527559055118,
0.0000000000000000008437248500744725,0.013779527559055118,
0.0049212598425196867,0.013779527559055118,
0*
4,1,3,
0.0024606299212598438,0.01624015748031496,
0.0024606299212598434,0.011318897637795275,
-0.0024606299212598421,0.011318897637795275,
-0.0024606299212598412,0.01624015748031496,
0*
4,1,3,
-0.0049212598425196841,0.013779527559055118,
0.0000000000000000008437248500744725,0.013779527559055118,
-0.0000000000000000008437248500744725,-0.013779527559055118,
-0.0049212598425196867,-0.013779527559055118,
0*
4,1,3,
-0.0024606299212598438,-0.01624015748031496,
-0.0024606299212598434,-0.011318897637795275,
0.0024606299212598421,-0.011318897637795275,
0.0024606299212598412,-0.01624015748031496,
0*%
%AMCOMP47*
4,1,3,
0.013779527559055118,-0.0024606299212598438,
0.013779527559055118,0.0024606299212598421,
-0.013779527559055118,0.0024606299212598438,
-0.013779527559055118,-0.0024606299212598421,
0*
4,1,19,
0.011318897637795275,-0.0024606299212598434,
0.011439329438250113,-0.0017002534587230633,
0.011788836135888417,-0.0010143079421937183,
0.012333205579988992,-0.00046993849809314191,
0.013019151096518338,-0.00012043180045483956,
0.013779527559055118,-0.0000000000000000008437248500744725,
0.014539904021591898,-0.00012043180045483937,
0.015225849538121243,-0.00046993849809314208,
0.01577021898222182,-0.0010143079421937183,
0.016119725679860121,-0.0017002534587230635,
0.01624015748031496,-0.0024606299212598434,
0.016119725679860121,-0.0032210063837966245,
0.01577021898222182,-0.0039069519003259679,
0.015225849538121243,-0.0044513213444265448,
0.014539904021591898,-0.0048008280420648482,
0.013779527559055118,-0.0049212598425196867,
0.013019151096518338,-0.0048008280420648473,
0.012333205579988992,-0.0044513213444265448,
0.011788836135888417,-0.0039069519003259688,
0.011439329438250113,-0.003221006383796624,
0*
4,1,19,
0.011318897637795275,0.0024606299212598421,
0.011439329438250113,0.0032210063837966223,
0.011788836135888417,0.0039069519003259671,
0.012333205579988992,0.004451321344426544,
0.013019151096518338,0.0048008280420648464,
0.013779527559055118,0.0049212598425196841,
0.014539904021591898,0.0048008280420648456,
0.015225849538121243,0.0044513213444265431,
0.01577021898222182,0.0039069519003259671,
0.016119725679860121,0.0032210063837966219,
0.01624015748031496,0.0024606299212598421,
0.016119725679860121,0.0017002534587230609,
0.01577021898222182,0.001014307942193717,
0.015225849538121243,0.00046993849809314045,
0.014539904021591898,0.00012043180045483787,
0.013779527559055118,-0.0000000000000000008437248500744725,
0.013019151096518338,0.00012043180045483768,
0.012333205579988992,0.00046993849809314012,
0.011788836135888417,0.0010143079421937166,
0.011439329438250113,0.0017002534587230611,
0*
4,1,19,
-0.01624015748031496,0.0024606299212598438,
-0.016119725679860121,0.003221006383796624,
-0.01577021898222182,0.0039069519003259688,
-0.015225849538121243,0.0044513213444265448,
-0.014539904021591898,0.0048008280420648482,
-0.013779527559055118,0.0049212598425196867,
-0.013019151096518338,0.0048008280420648473,
-0.012333205579988992,0.0044513213444265448,
-0.011788836135888417,0.0039069519003259688,
-0.011439329438250113,0.0032210063837966236,
-0.011318897637795275,0.0024606299212598438,
-0.011439329438250113,0.0017002534587230627,
-0.011788836135888417,0.0010143079421937188,
-0.012333205579988992,0.00046993849809314218,
-0.013019151096518338,0.00012043180045483956,
-0.013779527559055118,0.0000000000000000008437248500744725,
-0.014539904021591898,0.00012043180045483937,
-0.015225849538121243,0.0004699384980931418,
-0.01577021898222182,0.0010143079421937181,
-0.016119725679860121,0.0017002534587230631,
0*
4,1,19,
-0.01624015748031496,-0.0024606299212598416,
-0.016119725679860121,-0.0017002534587230614,
-0.01577021898222182,-0.0010143079421937168,
-0.015225849538121243,-0.00046993849809314018,
-0.014539904021591898,-0.00012043180045483787,
-0.013779527559055118,0.0000000000000000008437248500744725,
-0.013019151096518338,-0.00012043180045483768,
-0.012333205579988992,-0.00046993849809314039,
-0.011788836135888417,-0.0010143079421937168,
-0.011439329438250113,-0.0017002534587230616,
-0.011318897637795275,-0.0024606299212598416,
-0.011439329438250113,-0.0032210063837966227,
-0.011788836135888417,-0.0039069519003259662,
-0.012333205579988992,-0.004451321344426544,
-0.013019151096518338,-0.0048008280420648464,
-0.013779527559055118,-0.0049212598425196841,
-0.014539904021591898,-0.0048008280420648456,
-0.015225849538121243,-0.0044513213444265431,
-0.01577021898222182,-0.0039069519003259671,
-0.016119725679860121,-0.0032210063837966223,
0*
4,1,3,
0.01624015748031496,-0.0024606299212598438,
0.011318897637795275,-0.0024606299212598434,
0.011318897637795275,0.0024606299212598421,
0.01624015748031496,0.0024606299212598412,
0*
4,1,3,
0.013779527559055118,0.0049212598425196841,
0.013779527559055118,-0.0000000000000000008437248500744725,
-0.013779527559055118,0.0000000000000000008437248500744725,
-0.013779527559055118,0.0049212598425196867,
0*
4,1,3,
-0.01624015748031496,0.0024606299212598438,
-0.011318897637795275,0.0024606299212598434,
-0.011318897637795275,-0.0024606299212598421,
-0.01624015748031496,-0.0024606299212598412,
0*
4,1,3,
-0.013779527559055118,-0.0049212598425196841,
-0.013779527559055118,0.0000000000000000008437248500744725,
0.013779527559055118,-0.0000000000000000008437248500744725,
0.013779527559055118,-0.0049212598425196867,
0*%
%AMCOMP48*
4,1,3,
-0.020177165354330708,-0.0059055118110236211,
0.020177165354330708,-0.0059055118110236228,
0.020177165354330708,0.0059055118110236211,
-0.020177165354330708,0.0059055118110236228,
0*
4,1,19,
-0.026082677165354333,-0.0059055118110236211,
-0.025793640844262715,-0.0040806083009353481,
-0.024954824769930793,-0.0024343390612649209,
-0.023648338104089405,-0.0011278523954235374,
-0.02200206886441898,-0.00028903632109161212,
-0.020177165354330708,0.0000000000000000012354542447519063,
-0.018352261844242438,-0.00028903632109161126,
-0.01670599260457201,-0.001127852395423538,
-0.015399505938730625,-0.0024343390612649209,
-0.0145606898643987,-0.0040806083009353481,
-0.014271653543307086,-0.00590551181102362,
-0.0145606898643987,-0.0077304153211118949,
-0.015399505938730622,-0.00937668456078232,
-0.01670599260457201,-0.010683171226623704,
-0.018352261844242435,-0.011521987300955628,
-0.020177165354330708,-0.011811023622047242,
-0.02200206886441898,-0.011521987300955629,
-0.023648338104089405,-0.010683171226623704,
-0.02495482476993079,-0.0093766845607823213,
-0.025793640844262715,-0.0077304153211118949,
0*
4,1,19,
0.014271653543307086,-0.0059055118110236228,
0.0145606898643987,-0.0040806083009353507,
0.015399505938730625,-0.002434339061264923,
0.01670599260457201,-0.00112785239542354,
0.018352261844242438,-0.00028903632109161456,
0.020177165354330708,-0.0000000000000000012354542447519063,
0.02200206886441898,-0.00028903632109161369,
0.023648338104089405,-0.0011278523954235404,
0.02495482476993079,-0.0024343390612649235,
0.025793640844262715,-0.0040806083009353507,
0.026082677165354333,-0.005905511811023622,
0.025793640844262715,-0.0077304153211118967,
0.024954824769930793,-0.0093766845607823213,
0.023648338104089409,-0.010683171226623706,
0.02200206886441898,-0.011521987300955631,
0.020177165354330708,-0.011811023622047246,
0.018352261844242438,-0.011521987300955635,
0.01670599260457201,-0.010683171226623706,
0.015399505938730625,-0.0093766845607823248,
0.0145606898643987,-0.0077304153211118967,
0*
4,1,19,
0.014271653543307086,0.0059055118110236211,
0.0145606898643987,0.007730415321111894,
0.015399505938730625,0.0093766845607823213,
0.01670599260457201,0.010683171226623704,
0.018352261844242438,0.011521987300955628,
0.020177165354330708,0.011811023622047242,
0.02200206886441898,0.011521987300955629,
0.023648338104089405,0.010683171226623702,
0.02495482476993079,0.0093766845607823213,
0.025793640844262715,0.007730415321111894,
0.026082677165354333,0.005905511811023622,
0.025793640844262715,0.0040806083009353464,
0.024954824769930793,0.0024343390612649213,
0.023648338104089409,0.001127852395423538,
0.02200206886441898,0.00028903632109161212,
0.020177165354330708,-0.0000000000000000012354542447519063,
0.018352261844242438,0.00028903632109161126,
0.01670599260457201,0.0011278523954235369,
0.015399505938730625,0.0024343390612649204,
0.0145606898643987,0.0040806083009353473,
0*
4,1,19,
-0.026082677165354333,0.0059055118110236228,
-0.025793640844262715,0.0077304153211118958,
-0.024954824769930793,0.0093766845607823231,
-0.023648338104089405,0.010683171226623706,
-0.02200206886441898,0.011521987300955631,
-0.020177165354330708,0.011811023622047246,
-0.018352261844242438,0.011521987300955635,
-0.01670599260457201,0.010683171226623704,
-0.015399505938730625,0.0093766845607823248,
-0.0145606898643987,0.0077304153211118958,
-0.014271653543307086,0.0059055118110236246,
-0.0145606898643987,0.00408060830093535,
-0.015399505938730622,0.0024343390612649239,
-0.01670599260457201,0.0011278523954235404,
-0.018352261844242435,0.00028903632109161456,
-0.020177165354330708,0.0000000000000000012354542447519063,
-0.02200206886441898,0.00028903632109161369,
-0.023648338104089405,0.0011278523954235393,
-0.02495482476993079,0.002434339061264923,
-0.025793640844262715,0.00408060830093535,
0*
4,1,3,
-0.020177165354330708,-0.011811023622047242,
-0.020177165354330708,0.0000000000000000012354542447519063,
0.020177165354330708,-0.0000000000000000012354542447519063,
0.020177165354330708,-0.011811023622047246,
0*
4,1,3,
0.026082677165354333,-0.0059055118110236228,
0.014271653543307086,-0.0059055118110236228,
0.014271653543307086,0.0059055118110236211,
0.026082677165354333,0.0059055118110236211,
0*
4,1,3,
0.020177165354330708,0.011811023622047242,
0.020177165354330708,-0.0000000000000000012354542447519063,
-0.020177165354330708,0.0000000000000000012354542447519063,
-0.020177165354330708,0.011811023622047246,
0*
4,1,3,
-0.026082677165354333,0.0059055118110236228,
-0.014271653543307086,0.0059055118110236228,
-0.014271653543307086,-0.0059055118110236211,
-0.026082677165354333,-0.0059055118110236211,
0*%
%AMRoundRect0*
4,1,4,
0.07874015748031496,0.11811023622047245,
0.15748031496062992,0.19685039370078741,
0.23622047244094491,0.27559055118110237,
0.31496062992125984,0.35433070866141736,
0.07874015748031496,0.11811023622047245,
0*
1,1,$1,$2,$3*
1,1,$1,$2,$3*
1,1,$1,$2,$3*
1,1,$1,$2,$3*
20,1,$1,$2,$3,$4,$5,0*
20,1,$1,$2,$3,$4,$5,0*
20,1,$1,$2,$3,$4,$5,0*
20,1,$1,$2,$3,$4,$5,0*%
%AMCOMP540*
4,1,3,
-0.018700787401574805,0.00984251968503937,
-0.018700787401574805,-0.00984251968503937,
0.018700787401574805,-0.00984251968503937,
0.018700787401574805,0.00984251968503937,
0*
4,1,19,
-0.018700787401574805,0.01968503937007874,
-0.015659281551427682,0.019203312168259386,
-0.012915499485310303,0.017805285377706176,
-0.010738021708907997,0.015627807601303872,
-0.0093399949183547871,0.012884025535186491,
-0.0088582677165354329,0.00984251968503937,
-0.0093399949183547871,0.0068010138348922507,
-0.010738021708907997,0.0040572317687748724,
-0.012915499485310301,0.0018797539923725657,
-0.015659281551427682,0.00048172720181935506,
-0.0187007874015748,0,
-0.021742293251721927,0.00048172720181935506,
-0.0244860753178393,0.0018797539923725635,
-0.026663553094241611,0.00405723176877487,
-0.02806157988479482,0.0068010138348922489,
-0.028543307086614175,0.0098425196850393682,
-0.02806157988479482,0.012884025535186489,
-0.026663553094241611,0.015627807601303868,
-0.024486075317839306,0.017805285377706176,
-0.021742293251721924,0.019203312168259386,
0*
4,1,19,
-0.018700787401574805,0,
-0.015659281551427682,-0.00048172720181935506,
-0.012915499485310303,-0.0018797539923725646,
-0.010738021708907997,-0.0040572317687748707,
-0.0093399949183547871,-0.00680101383489225,
-0.0088582677165354329,-0.00984251968503937,
-0.0093399949183547871,-0.012884025535186491,
-0.010738021708907997,-0.015627807601303868,
-0.012915499485310301,-0.017805285377706176,
-0.015659281551427682,-0.019203312168259386,
-0.0187007874015748,-0.01968503937007874,
-0.021742293251721927,-0.019203312168259386,
-0.0244860753178393,-0.017805285377706176,
-0.026663553094241611,-0.015627807601303872,
-0.02806157988479482,-0.012884025535186491,
-0.028543307086614175,-0.0098425196850393734,
-0.02806157988479482,-0.0068010138348922524,
-0.026663553094241611,-0.0040572317687748733,
-0.024486075317839306,-0.0018797539923725657,
-0.021742293251721924,-0.00048172720181935506,
0*
4,1,19,
0.018700787401574805,0,
0.021742293251721924,-0.00048172720181935506,
0.0244860753178393,-0.0018797539923725646,
0.026663553094241611,-0.0040572317687748707,
0.02806157988479482,-0.00680101383489225,
0.028543307086614175,-0.00984251968503937,
0.02806157988479482,-0.012884025535186491,
0.026663553094241611,-0.015627807601303868,
0.024486075317839306,-0.017805285377706176,
0.021742293251721924,-0.019203312168259386,
0.018700787401574805,-0.01968503937007874,
0.015659281551427682,-0.019203312168259386,
0.012915499485310306,-0.017805285377706176,
0.010738021708907997,-0.015627807601303872,
0.0093399949183547871,-0.012884025535186491,
0.0088582677165354329,-0.0098425196850393734,
0.0093399949183547871,-0.0068010138348922524,
0.010738021708907997,-0.0040572317687748733,
0.012915499485310301,-0.0018797539923725657,
0.015659281551427682,-0.00048172720181935506,
0*
4,1,19,
0.018700787401574805,0.01968503937007874,
0.021742293251721924,0.019203312168259386,
0.0244860753178393,0.017805285377706176,
0.026663553094241611,0.015627807601303872,
0.02806157988479482,0.012884025535186491,
0.028543307086614175,0.00984251968503937,
0.02806157988479482,0.0068010138348922507,
0.026663553094241611,0.0040572317687748724,
0.024486075317839306,0.0018797539923725657,
0.021742293251721924,0.00048172720181935506,
0.018700787401574805,0,
0.015659281551427682,0.00048172720181935506,
0.012915499485310306,0.0018797539923725635,
0.010738021708907997,0.00405723176877487,
0.0093399949183547871,0.0068010138348922489,
0.0088582677165354329,0.0098425196850393682,
0.0093399949183547871,0.012884025535186489,
0.010738021708907997,0.015627807601303868,
0.012915499485310301,0.017805285377706176,
0.015659281551427682,0.019203312168259386,
0*
4,1,3,
-0.028543307086614175,0.00984251968503937,
-0.0088582677165354329,0.00984251968503937,
-0.0088582677165354329,-0.00984251968503937,
-0.028543307086614175,-0.00984251968503937,
0*
4,1,3,
-0.018700787401574805,-0.01968503937007874,
-0.018700787401574805,0,
0.018700787401574805,0,
0.018700787401574805,-0.01968503937007874,
0*
4,1,3,
0.028543307086614175,-0.00984251968503937,
0.0088582677165354329,-0.00984251968503937,
0.0088582677165354329,0.00984251968503937,
0.028543307086614175,0.00984251968503937,
0*
4,1,3,
0.018700787401574805,0.01968503937007874,
0.018700787401574805,0,
-0.018700787401574805,0,
-0.018700787401574805,0.01968503937007874,
0*%
%AMRoundRect1*
4,1,4,
-0.078740157480314987,-0.11811023622047243,
-0.15748031496062997,-0.19685039370078738,
-0.23622047244094493,-0.27559055118110232,
-0.31496062992125995,-0.35433070866141725,
-0.078740157480314987,-0.11811023622047243,
0*
1,1,$1,$2,$3*
1,1,$1,$2,$3*
1,1,$1,$2,$3*
1,1,$1,$2,$3*
20,1,$1,$2,$3,$4,$5,180*
20,1,$1,$2,$3,$4,$5,180*
20,1,$1,$2,$3,$4,$5,180*
20,1,$1,$2,$3,$4,$5,180*%
%AMCOMP600*
4,1,3,
0.0187007874015748,-0.0098425196850393734,
0.018700787401574805,0.0098425196850393682,
-0.0187007874015748,0.0098425196850393734,
-0.018700787401574805,-0.0098425196850393682,
0*
4,1,19,
0.0187007874015748,-0.019685039370078747,
0.015659281551427682,-0.019203312168259389,
0.012915499485310301,-0.017805285377706179,
0.010738021708907995,-0.015627807601303872,
0.0093399949183547871,-0.012884025535186494,
0.0088582677165354312,-0.00984251968503937,
0.0093399949183547853,-0.0068010138348922524,
0.010738021708907997,-0.0040572317687748733,
0.012915499485310301,-0.0018797539923725672,
0.015659281551427682,-0.00048172720181935695,
0.0187007874015748,-0.0000000000000000022901103073449965,
0.021742293251721927,-0.00048172720181935771,
0.0244860753178393,-0.0018797539923725666,
0.026663553094241611,-0.0040572317687748733,
0.02806157988479482,-0.0068010138348922524,
0.028543307086614175,-0.0098425196850393734,
0.02806157988479482,-0.012884025535186494,
0.026663553094241611,-0.015627807601303872,
0.024486075317839306,-0.017805285377706179,
0.02174229325172192,-0.019203312168259389,
0*
4,1,19,
0.018700787401574805,-0.0000000000000000022901103073449965,
0.015659281551427682,0.0004817272018193531,
0.012915499485310303,0.0018797539923725629,
0.010738021708907997,0.00405723176877487,
0.0093399949183547888,0.0068010138348922489,
0.0088582677165354329,0.0098425196850393682,
0.0093399949183547871,0.012884025535186489,
0.010738021708907999,0.015627807601303865,
0.012915499485310303,0.017805285377706176,
0.015659281551427685,0.019203312168259386,
0.018700787401574805,0.01968503937007874,
0.021742293251721934,0.019203312168259386,
0.0244860753178393,0.017805285377706176,
0.026663553094241611,0.015627807601303872,
0.02806157988479482,0.012884025535186487,
0.028543307086614175,0.00984251968503937,
0.02806157988479482,0.0068010138348922489,
0.026663553094241611,0.00405723176877487,
0.024486075317839306,0.0018797539923725627,
0.021742293251721924,0.00048172720181935234,
0*
4,1,19,
-0.018700787401574805,0.0000000000000000022901103073449965,
-0.021742293251721924,0.00048172720181935771,
-0.0244860753178393,0.0018797539923725677,
-0.026663553094241611,0.0040572317687748742,
-0.02806157988479482,0.0068010138348922533,
-0.028543307086614175,0.0098425196850393734,
-0.02806157988479482,0.012884025535186496,
-0.026663553094241611,0.015627807601303872,
-0.024486075317839306,0.017805285377706179,
-0.02174229325172192,0.019203312168259389,
-0.018700787401574805,0.019685039370078747,
-0.015659281551427678,0.019203312168259389,
-0.012915499485310303,0.017805285377706179,
-0.010738021708907995,0.015627807601303875,
-0.0093399949183547871,0.012884025535186494,
-0.0088582677165354312,0.0098425196850393734,
-0.0093399949183547853,0.0068010138348922533,
-0.010738021708907997,0.0040572317687748742,
-0.012915499485310301,0.0018797539923725672,
-0.015659281551427682,0.00048172720181935695,
0*
4,1,19,
-0.018700787401574805,-0.01968503937007874,
-0.021742293251721927,-0.019203312168259386,
-0.0244860753178393,-0.017805285377706176,
-0.026663553094241611,-0.015627807601303868,
-0.02806157988479482,-0.012884025535186487,
-0.028543307086614175,-0.0098425196850393682,
-0.02806157988479482,-0.0068010138348922481,
-0.026663553094241611,-0.004057231768774869,
-0.024486075317839306,-0.0018797539923725627,
-0.021742293251721924,-0.00048172720181935234,
-0.018700787401574805,0.0000000000000000022901103073449973,
-0.015659281551427682,-0.0004817272018193531,
-0.012915499485310306,-0.0018797539923725618,
-0.010738021708907997,-0.004057231768774869,
-0.0093399949183547888,-0.0068010138348922481,
-0.0088582677165354329,-0.0098425196850393682,
-0.0093399949183547871,-0.012884025535186487,
-0.010738021708907999,-0.015627807601303865,
-0.012915499485310303,-0.017805285377706176,
-0.015659281551427682,-0.019203312168259386,
0*
4,1,3,
0.028543307086614175,-0.0098425196850393751,
0.0088582677165354312,-0.00984251968503937,
0.0088582677165354329,0.00984251968503937,
0.028543307086614175,0.0098425196850393665,
0*
4,1,3,
0.018700787401574805,0.01968503937007874,
0.018700787401574805,-0.0000000000000000022901103073449965,
-0.018700787401574805,0.0000000000000000022901103073449965,
-0.0187007874015748,0.019685039370078747,
0*
4,1,3,
-0.028543307086614175,0.0098425196850393751,
-0.0088582677165354312,0.00984251968503937,
-0.0088582677165354329,-0.00984251968503937,
-0.028543307086614175,-0.0098425196850393665,
0*
4,1,3,
-0.018700787401574805,-0.01968503937007874,
-0.018700787401574805,0.0000000000000000022901103073449965,
0.018700787401574805,-0.0000000000000000022901103073449965,
0.0187007874015748,-0.019685039370078747,
0*%
%AMCOMP64*
4,1,3,
-0.0098425196850393734,-0.018700787401574805,
0.00984251968503937,-0.018700787401574805,
0.0098425196850393734,0.018700787401574805,
-0.00984251968503937,0.018700787401574805,
0*
4,1,19,
-0.01968503937007874,-0.0187007874015748,
-0.019203312168259386,-0.015659281551427682,
-0.017805285377706176,-0.012915499485310303,
-0.015627807601303872,-0.010738021708907997,
-0.012884025535186491,-0.0093399949183547871,
-0.00984251968503937,-0.0088582677165354312,
-0.0068010138348922524,-0.0093399949183547871,
-0.0040572317687748724,-0.010738021708907997,
-0.0018797539923725666,-0.012915499485310301,
-0.000481727201819356,-0.015659281551427682,
-0.0000000000000000011450551536724983,-0.0187007874015748,
-0.00048172720181935636,-0.021742293251721927,
-0.0018797539923725648,-0.0244860753178393,
-0.0040572317687748716,-0.026663553094241611,
-0.0068010138348922507,-0.02806157988479482,
-0.00984251968503937,-0.028543307086614175,
-0.012884025535186491,-0.02806157988479482,
-0.015627807601303872,-0.026663553094241611,
-0.017805285377706179,-0.024486075317839306,
-0.019203312168259389,-0.021742293251721924,
0*
4,1,19,
-0.0000000000000000011450551536724983,-0.018700787401574805,
0.00048172720181935408,-0.015659281551427682,
0.0018797539923725637,-0.012915499485310303,
0.0040572317687748707,-0.010738021708907997,
0.0068010138348922489,-0.0093399949183547871,
0.00984251968503937,-0.0088582677165354329,
0.012884025535186491,-0.0093399949183547871,
0.015627807601303868,-0.010738021708907997,
0.017805285377706176,-0.012915499485310301,
0.019203312168259386,-0.015659281551427685,
0.01968503937007874,-0.018700787401574805,
0.019203312168259386,-0.021742293251721927,
0.017805285377706176,-0.0244860753178393,
0.015627807601303872,-0.026663553094241611,
0.012884025535186489,-0.02806157988479482,
0.00984251968503937,-0.028543307086614175,
0.00680101383489225,-0.02806157988479482,
0.0040572317687748716,-0.026663553094241611,
0.0018797539923725642,-0.024486075317839306,
0.00048172720181935375,-0.021742293251721924,
0*
4,1,19,
0.0000000000000000011450551536724983,0.018700787401574805,
0.00048172720181935636,0.021742293251721924,
0.0018797539923725659,0.0244860753178393,
0.0040572317687748724,0.026663553094241611,
0.0068010138348922524,0.02806157988479482,
0.00984251968503937,0.028543307086614175,
0.012884025535186494,0.02806157988479482,
0.015627807601303872,0.026663553094241611,
0.017805285377706179,0.024486075317839306,
0.019203312168259389,0.021742293251721924,
0.01968503937007874,0.018700787401574805,
0.019203312168259386,0.015659281551427678,
0.017805285377706176,0.012915499485310306,
0.015627807601303872,0.010738021708907997,
0.012884025535186491,0.0093399949183547871,
0.0098425196850393734,0.0088582677165354312,
0.0068010138348922533,0.0093399949183547871,
0.0040572317687748733,0.010738021708907997,
0.0018797539923725666,0.012915499485310301,
0.000481727201819356,0.015659281551427682,
0*
4,1,19,
-0.01968503937007874,0.018700787401574805,
-0.019203312168259386,0.021742293251721924,
-0.017805285377706176,0.0244860753178393,
-0.015627807601303868,0.026663553094241611,
-0.012884025535186489,0.02806157988479482,
-0.0098425196850393682,0.028543307086614175,
-0.0068010138348922489,0.02806157988479482,
-0.0040572317687748707,0.026663553094241611,
-0.0018797539923725642,0.024486075317839306,
-0.00048172720181935375,0.021742293251721924,
0.0000000000000000011450551536724986,0.018700787401574805,
-0.00048172720181935408,0.015659281551427682,
-0.0018797539923725627,0.012915499485310306,
-0.004057231768774869,0.010738021708907997,
-0.0068010138348922481,0.0093399949183547871,
-0.0098425196850393682,0.0088582677165354329,
-0.012884025535186489,0.0093399949183547871,
-0.015627807601303868,0.010738021708907997,
-0.017805285377706176,0.012915499485310301,
-0.019203312168259386,0.015659281551427682,
0*
4,1,3,
-0.0098425196850393734,-0.028543307086614175,
-0.00984251968503937,-0.0088582677165354312,
0.00984251968503937,-0.0088582677165354329,
0.0098425196850393682,-0.028543307086614175,
0*
4,1,3,
0.01968503937007874,-0.018700787401574805,
-0.0000000000000000011450551536724983,-0.018700787401574805,
0.0000000000000000011450551536724983,0.018700787401574805,
0.01968503937007874,0.0187007874015748,
0*
4,1,3,
0.0098425196850393734,0.028543307086614175,
0.00984251968503937,0.0088582677165354312,
-0.00984251968503937,0.0088582677165354329,
-0.0098425196850393682,0.028543307086614175,
0*
4,1,3,
-0.01968503937007874,0.018700787401574805,
0.0000000000000000011450551536724983,0.018700787401574805,
-0.0000000000000000011450551536724983,-0.018700787401574805,
-0.01968503937007874,-0.0187007874015748,
0*%
%ADD10COMP64,0.25X-0.475X0.25X-0.475X-0.25X0.475X-0.25X0.475X0.25X0*%
%AMCOMP70*
4,1,3,
-0.013779527559055118,-0.017716535433070866,
0.013779527559055118,-0.017716535433070866,
0.013779527559055118,0.017716535433070866,
-0.013779527559055118,0.017716535433070866,
0*
4,1,19,
-0.023622047244094488,-0.017716535433070866,
-0.023140320042275134,-0.014675029582923745,
-0.021742293251721924,-0.011931247516806366,
-0.019564815475319616,-0.00975376974040406,
-0.016821033409202237,-0.00835574294985085,
-0.013779527559055118,-0.007874015748031496,
-0.010738021708907997,-0.00835574294985085,
-0.0079942396427906213,-0.0097537697404040617,
-0.0058167618663883145,-0.011931247516806368,
-0.0044187350758351038,-0.014675029582923747,
-0.0039370078740157488,-0.017716535433070866,
-0.0044187350758351038,-0.020758041283217992,
-0.0058167618663883119,-0.023501823349335368,
-0.0079942396427906178,-0.025679301125737672,
-0.010738021708907999,-0.027077327916290882,
-0.013779527559055118,-0.027559055118110236,
-0.016821033409202237,-0.027077327916290882,
-0.019564815475319616,-0.025679301125737675,
-0.021742293251721924,-0.023501823349335368,
-0.023140320042275134,-0.020758041283217992,
0*
4,1,19,
0.0039370078740157462,-0.017716535433070866,
0.0044187350758351012,-0.014675029582923747,
0.0058167618663883111,-0.011931247516806368,
0.0079942396427906178,-0.0097537697404040617,
0.010738021708907997,-0.0083557429498508536,
0.013779527559055118,-0.0078740157480314977,
0.016821033409202237,-0.0083557429498508518,
0.019564815475319616,-0.0097537697404040634,
0.021742293251721924,-0.011931247516806369,
0.023140320042275134,-0.014675029582923748,
0.023622047244094488,-0.017716535433070866,
0.023140320042275134,-0.020758041283217992,
0.021742293251721924,-0.023501823349335368,
0.019564815475319616,-0.025679301125737672,
0.016821033409202237,-0.027077327916290882,
0.013779527559055118,-0.027559055118110236,
0.010738021708907997,-0.027077327916290882,
0.00799423964279062,-0.025679301125737675,
0.0058167618663883119,-0.023501823349335368,
0.0044187350758351012,-0.020758041283217992,
0*
4,1,19,
0.0039370078740157488,0.017716535433070866,
0.0044187350758351038,0.020758041283217985,
0.0058167618663883128,0.023501823349335368,
0.00799423964279062,0.025679301125737672,
0.010738021708907999,0.027077327916290882,
0.01377952755905512,0.027559055118110236,
0.016821033409202241,0.027077327916290882,
0.019564815475319616,0.025679301125737672,
0.021742293251721924,0.023501823349335368,
0.023140320042275134,0.020758041283217992,
0.023622047244094488,0.017716535433070866,
0.023140320042275134,0.014675029582923743,
0.021742293251721924,0.011931247516806366,
0.01956481547531962,0.0097537697404040617,
0.016821033409202237,0.00835574294985085,
0.01377952755905512,0.007874015748031496,
0.010738021708907999,0.00835574294985085,
0.0079942396427906213,0.00975376974040406,
0.0058167618663883145,0.011931247516806366,
0.0044187350758351038,0.014675029582923745,
0*
4,1,19,
-0.023622047244094488,0.017716535433070869,
-0.023140320042275134,0.020758041283217985,
-0.021742293251721924,0.023501823349335368,
-0.019564815475319616,0.025679301125737672,
-0.016821033409202237,0.027077327916290882,
-0.013779527559055116,0.027559055118110236,
-0.010738021708907995,0.027077327916290882,
-0.0079942396427906178,0.025679301125737672,
-0.0058167618663883119,0.023501823349335368,
-0.0044187350758351012,0.020758041283217992,
-0.0039370078740157462,0.017716535433070869,
-0.0044187350758351012,0.014675029582923745,
-0.0058167618663883093,0.011931247516806368,
-0.0079942396427906161,0.0097537697404040634,
-0.010738021708907997,0.0083557429498508536,
-0.013779527559055116,0.0078740157480314977,
-0.016821033409202237,0.0083557429498508518,
-0.019564815475319616,0.0097537697404040617,
-0.021742293251721924,0.011931247516806368,
-0.023140320042275134,0.014675029582923747,
0*
4,1,3,
-0.01377952755905512,-0.027559055118110236,
-0.013779527559055118,-0.007874015748031496,
0.013779527559055118,-0.0078740157480314977,
0.013779527559055116,-0.027559055118110236,
0*
4,1,3,
0.023622047244094488,-0.017716535433070869,
0.0039370078740157462,-0.017716535433070866,
0.0039370078740157488,0.017716535433070866,
0.023622047244094488,0.017716535433070866,
0*
4,1,3,
0.01377952755905512,0.027559055118110236,
0.013779527559055118,0.007874015748031496,
-0.013779527559055118,0.0078740157480314977,
-0.013779527559055116,0.027559055118110236,
0*
4,1,3,
-0.023622047244094488,0.017716535433070869,
-0.0039370078740157462,0.017716535433070866,
-0.0039370078740157488,-0.017716535433070866,
-0.023622047244094488,-0.017716535433070866,
0*%
%ADD11COMP70,0.25X-0.45X0.35X-0.45X-0.35X0.45X-0.35X0.45X0.35X0*%
%AMCOMP74*
4,1,3,
-0.01796259842519685,0.0095964566929133879,
-0.01796259842519685,-0.0095964566929133844,
0.01796259842519685,-0.0095964566929133879,
0.01796259842519685,0.0095964566929133844,
0*
4,1,19,
-0.027559055118110236,0.0095964566929133879,
-0.027089371096336367,0.012561924896806831,
-0.025726294975546987,0.015237112411271275,
-0.023603254143554738,0.017360153243263524,
-0.020928066629090292,0.018723229364052903,
-0.01796259842519685,0.019192913385826776,
-0.014997130221303409,0.018723229364052903,
-0.012321942706838965,0.01736015324326352,
-0.010198901874846717,0.015237112411271273,
-0.0088358257540573342,0.012561924896806831,
-0.0083661417322834636,0.0095964566929133879,
-0.0088358257540573359,0.0066309884890199408,
-0.010198901874846714,0.0039558009745555012,
-0.012321942706838963,0.0018327601425632526,
-0.014997130221303409,0.00046968402177387209,
-0.01796259842519685,0.0000000000000000010998556081327944,
-0.020928066629090292,0.00046968402177387139,
-0.023603254143554735,0.001832760142563251,
-0.025726294975546984,0.0039558009745554986,
-0.027089371096336367,0.0066309884890199443,
0*
4,1,19,
-0.027559055118110236,-0.0095964566929133844,
-0.027089371096336367,-0.0066309884890199417,
-0.025726294975546987,-0.0039558009745554977,
-0.023603254143554738,-0.0018327601425632493,
-0.020928066629090292,-0.00046968402177386987,
-0.01796259842519685,0.0000000000000000010998556081327946,
-0.014997130221303411,-0.00046968402177386922,
-0.012321942706838965,-0.00183276014256325,
-0.010198901874846717,-0.0039558009745554977,
-0.0088358257540573359,-0.0066309884890199434,
-0.0083661417322834653,-0.0095964566929133844,
-0.0088358257540573377,-0.012561924896806831,
-0.010198901874846714,-0.015237112411271273,
-0.012321942706838963,-0.01736015324326352,
-0.014997130221303411,-0.0187232293640529,
-0.01796259842519685,-0.019192913385826769,
-0.020928066629090292,-0.0187232293640529,
-0.023603254143554735,-0.01736015324326352,
-0.025726294975546984,-0.015237112411271273,
-0.027089371096336367,-0.012561924896806829,
0*
4,1,19,
0.0083661417322834636,-0.0095964566929133861,
0.0088358257540573359,-0.0066309884890199443,
0.010198901874846714,-0.0039558009745554994,
0.012321942706838963,-0.0018327601425632515,
0.014997130221303409,-0.00046968402177387209,
0.01796259842519685,-0.0000000000000000010998556081327946,
0.020928066629090292,-0.00046968402177387139,
0.023603254143554735,-0.0018327601425632521,
0.025726294975546984,-0.0039558009745554994,
0.027089371096336367,-0.0066309884890199452,
0.027559055118110236,-0.0095964566929133879,
0.027089371096336367,-0.012561924896806832,
0.025726294975546987,-0.015237112411271275,
0.023603254143554738,-0.017360153243263524,
0.020928066629090296,-0.018723229364052903,
0.01796259842519685,-0.019192913385826776,
0.014997130221303409,-0.018723229364052903,
0.012321942706838966,-0.01736015324326352,
0.010198901874846717,-0.015237112411271275,
0.0088358257540573342,-0.012561924896806831,
0*
4,1,19,
0.0083661417322834653,0.0095964566929133861,
0.0088358257540573377,0.012561924896806829,
0.010198901874846714,0.015237112411271273,
0.012321942706838963,0.01736015324326352,
0.014997130221303411,0.0187232293640529,
0.017962598425196853,0.019192913385826769,
0.020928066629090292,0.0187232293640529,
0.023603254143554735,0.01736015324326352,
0.025726294975546984,0.015237112411271271,
0.027089371096336367,0.012561924896806829,
0.027559055118110236,0.0095964566929133844,
0.027089371096336367,0.0066309884890199391,
0.025726294975546987,0.0039558009745554986,
0.023603254143554738,0.0018327601425632504,
0.020928066629090296,0.00046968402177386987,
0.017962598425196853,-0.0000000000000000010998556081327946,
0.014997130221303411,0.00046968402177386922,
0.012321942706838966,0.0018327601425632487,
0.010198901874846717,0.0039558009745554968,
0.0088358257540573359,0.0066309884890199417,
0*
4,1,3,
-0.027559055118110236,0.00959645669291339,
-0.0083661417322834636,0.0095964566929133844,
-0.0083661417322834653,-0.0095964566929133879,
-0.027559055118110236,-0.0095964566929133827,
0*
4,1,3,
-0.017962598425196853,-0.019192913385826769,
-0.01796259842519685,0.0000000000000000010998556081327946,
0.01796259842519685,-0.0000000000000000010998556081327946,
0.01796259842519685,-0.019192913385826776,
0*
4,1,3,
0.027559055118110236,-0.00959645669291339,
0.0083661417322834636,-0.0095964566929133844,
0.0083661417322834653,0.0095964566929133879,
0.027559055118110236,0.0095964566929133827,
0*
4,1,3,
0.017962598425196853,0.019192913385826769,
0.01796259842519685,-0.0000000000000000010998556081327946,
-0.01796259842519685,0.0000000000000000010998556081327946,
-0.01796259842519685,0.019192913385826776,
0*%
%ADD12COMP74,0.24375X0.24375X0.45625X-0.24375X0.45625X-0.24375X-0.45625X0.24375X-0.45625X0*%
%AMCOMP77*
4,1,3,
0.0098425196850393734,0.018700787401574805,
-0.00984251968503937,0.018700787401574805,
-0.0098425196850393734,-0.018700787401574805,
0.00984251968503937,-0.018700787401574805,
0*
4,1,19,
0.0000000000000000011450551536724983,0.018700787401574805,
0.00048172720181935636,0.021742293251721924,
0.0018797539923725659,0.0244860753178393,
0.0040572317687748724,0.026663553094241611,
0.0068010138348922524,0.02806157988479482,
0.00984251968503937,0.028543307086614175,
0.012884025535186494,0.02806157988479482,
0.015627807601303872,0.026663553094241611,
0.017805285377706179,0.024486075317839306,
0.019203312168259389,0.021742293251721924,
0.01968503937007874,0.018700787401574805,
0.019203312168259386,0.015659281551427678,
0.017805285377706176,0.012915499485310306,
0.015627807601303872,0.010738021708907997,
0.012884025535186491,0.0093399949183547871,
0.0098425196850393734,0.0088582677165354312,
0.0068010138348922533,0.0093399949183547871,
0.0040572317687748733,0.010738021708907997,
0.0018797539923725666,0.012915499485310301,
0.000481727201819356,0.015659281551427682,
0*
4,1,19,
-0.01968503937007874,0.018700787401574805,
-0.019203312168259386,0.021742293251721924,
-0.017805285377706176,0.0244860753178393,
-0.015627807601303868,0.026663553094241611,
-0.012884025535186489,0.02806157988479482,
-0.0098425196850393682,0.028543307086614175,
-0.0068010138348922489,0.02806157988479482,
-0.0040572317687748707,0.026663553094241611,
-0.0018797539923725642,0.024486075317839306,
-0.00048172720181935375,0.021742293251721924,
0.0000000000000000011450551536724986,0.018700787401574805,
-0.00048172720181935408,0.015659281551427682,
-0.0018797539923725627,0.012915499485310306,
-0.004057231768774869,0.010738021708907997,
-0.0068010138348922481,0.0093399949183547871,
-0.0098425196850393682,0.0088582677165354329,
-0.012884025535186489,0.0093399949183547871,
-0.015627807601303868,0.010738021708907997,
-0.017805285377706176,0.012915499485310301,
-0.019203312168259386,0.015659281551427682,
0*
4,1,19,
-0.01968503937007874,-0.0187007874015748,
-0.019203312168259386,-0.015659281551427682,
-0.017805285377706176,-0.012915499485310303,
-0.015627807601303872,-0.010738021708907997,
-0.012884025535186491,-0.0093399949183547871,
-0.00984251968503937,-0.0088582677165354312,
-0.0068010138348922524,-0.0093399949183547871,
-0.0040572317687748724,-0.010738021708907997,
-0.0018797539923725666,-0.012915499485310301,
-0.000481727201819356,-0.015659281551427682,
-0.0000000000000000011450551536724983,-0.0187007874015748,
-0.00048172720181935636,-0.021742293251721927,
-0.0018797539923725648,-0.0244860753178393,
-0.0040572317687748716,-0.026663553094241611,
-0.0068010138348922507,-0.02806157988479482,
-0.00984251968503937,-0.028543307086614175,
-0.012884025535186491,-0.02806157988479482,
-0.015627807601303872,-0.026663553094241611,
-0.017805285377706179,-0.024486075317839306,
-0.019203312168259389,-0.021742293251721924,
0*
4,1,19,
-0.0000000000000000011450551536724983,-0.018700787401574805,
0.00048172720181935408,-0.015659281551427682,
0.0018797539923725637,-0.012915499485310303,
0.0040572317687748707,-0.010738021708907997,
0.0068010138348922489,-0.0093399949183547871,
0.00984251968503937,-0.0088582677165354329,
0.012884025535186491,-0.0093399949183547871,
0.015627807601303868,-0.010738021708907997,
0.017805285377706176,-0.012915499485310301,
0.019203312168259386,-0.015659281551427685,
0.01968503937007874,-0.018700787401574805,
0.019203312168259386,-0.021742293251721927,
0.017805285377706176,-0.0244860753178393,
0.015627807601303872,-0.026663553094241611,
0.012884025535186489,-0.02806157988479482,
0.00984251968503937,-0.028543307086614175,
0.00680101383489225,-0.02806157988479482,
0.0040572317687748716,-0.026663553094241611,
0.0018797539923725642,-0.024486075317839306,
0.00048172720181935375,-0.021742293251721924,
0*
4,1,3,
0.0098425196850393734,0.028543307086614175,
0.00984251968503937,0.0088582677165354312,
-0.00984251968503937,0.0088582677165354329,
-0.0098425196850393682,0.028543307086614175,
0*
4,1,3,
-0.01968503937007874,0.018700787401574805,
0.0000000000000000011450551536724983,0.018700787401574805,
-0.0000000000000000011450551536724983,-0.018700787401574805,
-0.01968503937007874,-0.0187007874015748,
0*
4,1,3,
-0.0098425196850393734,-0.028543307086614175,
-0.00984251968503937,-0.0088582677165354312,
0.00984251968503937,-0.0088582677165354329,
0.0098425196850393682,-0.028543307086614175,
0*
4,1,3,
0.01968503937007874,-0.018700787401574805,
-0.0000000000000000011450551536724983,-0.018700787401574805,
0.0000000000000000011450551536724983,0.018700787401574805,
0.01968503937007874,0.0187007874015748,
0*%
%ADD13COMP77,0.25X0.475X-0.25X0.475X0.25X-0.475X0.25X-0.475X-0.25X0*%
%AMCOMP80*
4,1,3,
-0.017716535433070866,0.013779527559055118,
-0.017716535433070866,-0.013779527559055118,
0.017716535433070866,-0.013779527559055118,
0.017716535433070866,0.013779527559055118,
0*
4,1,19,
-0.027559055118110236,0.01377952755905512,
-0.027077327916290882,0.016821033409202241,
-0.025679301125737672,0.01956481547531962,
-0.023501823349335368,0.021742293251721924,
-0.020758041283217985,0.023140320042275134,
-0.017716535433070866,0.023622047244094488,
-0.014675029582923747,0.023140320042275134,
-0.011931247516806366,0.021742293251721924,
-0.0097537697404040617,0.01956481547531962,
-0.00835574294985085,0.016821033409202237,
-0.007874015748031496,0.01377952755905512,
-0.00835574294985085,0.010738021708907995,
-0.00975376974040406,0.0079942396427906213,
-0.011931247516806368,0.0058167618663883145,
-0.014675029582923745,0.0044187350758351038,
-0.017716535433070866,0.0039370078740157488,
-0.020758041283217985,0.0044187350758351021,
-0.023501823349335368,0.0058167618663883119,
-0.025679301125737672,0.0079942396427906178,
-0.027077327916290882,0.010738021708907997,
0*
4,1,19,
-0.027559055118110236,-0.013779527559055116,
-0.027077327916290882,-0.010738021708907995,
-0.025679301125737672,-0.0079942396427906178,
-0.023501823349335368,-0.0058167618663883111,
-0.020758041283217985,-0.0044187350758351012,
-0.017716535433070866,-0.0039370078740157462,
-0.014675029582923748,-0.0044187350758351,
-0.011931247516806368,-0.0058167618663883111,
-0.0097537697404040634,-0.0079942396427906161,
-0.0083557429498508536,-0.010738021708907997,
-0.0078740157480314977,-0.013779527559055116,
-0.0083557429498508536,-0.016821033409202241,
-0.0097537697404040617,-0.019564815475319616,
-0.011931247516806369,-0.021742293251721924,
-0.014675029582923747,-0.023140320042275134,
-0.017716535433070866,-0.023622047244094488,
-0.020758041283217985,-0.023140320042275134,
-0.023501823349335368,-0.021742293251721924,
-0.025679301125737672,-0.019564815475319616,
-0.027077327916290882,-0.016821033409202237,
0*
4,1,19,
0.007874015748031496,-0.013779527559055118,
0.00835574294985085,-0.010738021708907997,
0.0097537697404040617,-0.00799423964279062,
0.011931247516806368,-0.0058167618663883128,
0.014675029582923747,-0.0044187350758351038,
0.017716535433070866,-0.0039370078740157488,
0.020758041283217985,-0.0044187350758351021,
0.023501823349335368,-0.0058167618663883128,
0.025679301125737672,-0.0079942396427906178,
0.027077327916290882,-0.010738021708907999,
0.027559055118110236,-0.013779527559055118,
0.027077327916290882,-0.016821033409202244,
0.025679301125737675,-0.019564815475319616,
0.023501823349335368,-0.021742293251721924,
0.020758041283217992,-0.023140320042275134,
0.017716535433070866,-0.023622047244094488,
0.014675029582923747,-0.023140320042275134,
0.011931247516806368,-0.021742293251721924,
0.0097537697404040617,-0.01956481547531962,
0.00835574294985085,-0.016821033409202241,
0*
4,1,19,
0.0078740157480314977,0.013779527559055118,
0.0083557429498508536,0.016821033409202237,
0.0097537697404040634,0.019564815475319616,
0.011931247516806369,0.021742293251721924,
0.014675029582923748,0.023140320042275134,
0.017716535433070869,0.023622047244094488,
0.020758041283217985,0.023140320042275134,
0.023501823349335368,0.021742293251721924,
0.025679301125737672,0.019564815475319616,
0.027077327916290882,0.016821033409202237,
0.027559055118110236,0.013779527559055118,
0.027077327916290882,0.010738021708907993,
0.025679301125737675,0.0079942396427906178,
0.023501823349335368,0.0058167618663883119,
0.020758041283217992,0.0044187350758351012,
0.017716535433070869,0.0039370078740157462,
0.014675029582923748,0.0044187350758351,
0.011931247516806369,0.0058167618663883093,
0.0097537697404040634,0.0079942396427906143,
0.0083557429498508536,0.010738021708907995,
0*
4,1,3,
-0.027559055118110236,0.01377952755905512,
-0.007874015748031496,0.013779527559055118,
-0.0078740157480314977,-0.013779527559055118,
-0.027559055118110236,-0.013779527559055116,
0*
4,1,3,
-0.017716535433070869,-0.023622047244094488,
-0.017716535433070866,-0.0039370078740157462,
0.017716535433070866,-0.0039370078740157488,
0.017716535433070866,-0.023622047244094488,
0*
4,1,3,
0.027559055118110236,-0.01377952755905512,
0.007874015748031496,-0.013779527559055118,
0.0078740157480314977,0.013779527559055118,
0.027559055118110236,0.013779527559055116,
0*
4,1,3,
0.017716535433070869,0.023622047244094488,
0.017716535433070866,0.0039370078740157462,
-0.017716535433070866,0.0039370078740157488,
-0.017716535433070866,0.023622047244094488,
0*%
%ADD14COMP80,0.25X0.35X0.45X-0.35X0.45X-0.35X-0.45X0.35X-0.45X0*%
%AMCOMP83*
4,1,3,
0.013779527559055118,0.017716535433070866,
-0.013779527559055118,0.017716535433070866,
-0.013779527559055118,-0.017716535433070866,
0.013779527559055118,-0.017716535433070866,
0*
4,1,19,
0.0039370078740157488,0.017716535433070866,
0.0044187350758351038,0.020758041283217985,
0.0058167618663883128,0.023501823349335368,
0.00799423964279062,0.025679301125737672,
0.010738021708907999,0.027077327916290882,
0.01377952755905512,0.027559055118110236,
0.016821033409202241,0.027077327916290882,
0.019564815475319616,0.025679301125737672,
0.021742293251721924,0.023501823349335368,
0.023140320042275134,0.020758041283217992,
0.023622047244094488,0.017716535433070866,
0.023140320042275134,0.014675029582923743,
0.021742293251721924,0.011931247516806366,
0.01956481547531962,0.0097537697404040617,
0.016821033409202237,0.00835574294985085,
0.01377952755905512,0.007874015748031496,
0.010738021708907999,0.00835574294985085,
0.0079942396427906213,0.00975376974040406,
0.0058167618663883145,0.011931247516806366,
0.0044187350758351038,0.014675029582923745,
0*
4,1,19,
-0.023622047244094488,0.017716535433070869,
-0.023140320042275134,0.020758041283217985,
-0.021742293251721924,0.023501823349335368,
-0.019564815475319616,0.025679301125737672,
-0.016821033409202237,0.027077327916290882,
-0.013779527559055116,0.027559055118110236,
-0.010738021708907995,0.027077327916290882,
-0.0079942396427906178,0.025679301125737672,
-0.0058167618663883119,0.023501823349335368,
-0.0044187350758351012,0.020758041283217992,
-0.0039370078740157462,0.017716535433070869,
-0.0044187350758351012,0.014675029582923745,
-0.0058167618663883093,0.011931247516806368,
-0.0079942396427906161,0.0097537697404040634,
-0.010738021708907997,0.0083557429498508536,
-0.013779527559055116,0.0078740157480314977,
-0.016821033409202237,0.0083557429498508518,
-0.019564815475319616,0.0097537697404040617,
-0.021742293251721924,0.011931247516806368,
-0.023140320042275134,0.014675029582923747,
0*
4,1,19,
-0.023622047244094488,-0.017716535433070866,
-0.023140320042275134,-0.014675029582923745,
-0.021742293251721924,-0.011931247516806366,
-0.019564815475319616,-0.00975376974040406,
-0.016821033409202237,-0.00835574294985085,
-0.013779527559055118,-0.007874015748031496,
-0.010738021708907997,-0.00835574294985085,
-0.0079942396427906213,-0.0097537697404040617,
-0.0058167618663883145,-0.011931247516806368,
-0.0044187350758351038,-0.014675029582923747,
-0.0039370078740157488,-0.017716535433070866,
-0.0044187350758351038,-0.020758041283217992,
-0.0058167618663883119,-0.023501823349335368,
-0.0079942396427906178,-0.025679301125737672,
-0.010738021708907999,-0.027077327916290882,
-0.013779527559055118,-0.027559055118110236,
-0.016821033409202237,-0.027077327916290882,
-0.019564815475319616,-0.025679301125737675,
-0.021742293251721924,-0.023501823349335368,
-0.023140320042275134,-0.020758041283217992,
0*
4,1,19,
0.0039370078740157462,-0.017716535433070866,
0.0044187350758351012,-0.014675029582923747,
0.0058167618663883111,-0.011931247516806368,
0.0079942396427906178,-0.0097537697404040617,
0.010738021708907997,-0.0083557429498508536,
0.013779527559055118,-0.0078740157480314977,
0.016821033409202237,-0.0083557429498508518,
0.019564815475319616,-0.0097537697404040634,
0.021742293251721924,-0.011931247516806369,
0.023140320042275134,-0.014675029582923748,
0.023622047244094488,-0.017716535433070866,
0.023140320042275134,-0.020758041283217992,
0.021742293251721924,-0.023501823349335368,
0.019564815475319616,-0.025679301125737672,
0.016821033409202237,-0.027077327916290882,
0.013779527559055118,-0.027559055118110236,
0.010738021708907997,-0.027077327916290882,
0.00799423964279062,-0.025679301125737675,
0.0058167618663883119,-0.023501823349335368,
0.0044187350758351012,-0.020758041283217992,
0*
4,1,3,
0.01377952755905512,0.027559055118110236,
0.013779527559055118,0.007874015748031496,
-0.013779527559055118,0.0078740157480314977,
-0.013779527559055116,0.027559055118110236,
0*
4,1,3,
-0.023622047244094488,0.017716535433070869,
-0.0039370078740157462,0.017716535433070866,
-0.0039370078740157488,-0.017716535433070866,
-0.023622047244094488,-0.017716535433070866,
0*
4,1,3,
-0.01377952755905512,-0.027559055118110236,
-0.013779527559055118,-0.007874015748031496,
0.013779527559055118,-0.0078740157480314977,
0.013779527559055116,-0.027559055118110236,
0*
4,1,3,
0.023622047244094488,-0.017716535433070869,
0.0039370078740157462,-0.017716535433070866,
0.0039370078740157488,0.017716535433070866,
0.023622047244094488,0.017716535433070866,
0*%
%ADD15COMP83,0.25X0.45X-0.35X0.45X0.35X-0.45X0.35X-0.45X-0.35X0*%
%ADD16R,0.03937007874015748X0.062992125984251982*%
%AMCOMP88*
4,1,3,
0.02312992125984252,0.0059055118110236211,
-0.02312992125984252,0.0059055118110236228,
-0.02312992125984252,-0.0059055118110236211,
0.02312992125984252,-0.0059055118110236228,
0*
4,1,19,
0.017224409448818898,0.0059055118110236211,
0.017513445769910513,0.007730415321111894,
0.018352261844242438,0.0093766845607823213,
0.019658748510083823,0.010683171226623702,
0.021305017749754251,0.011521987300955628,
0.02312992125984252,0.011811023622047242,
0.024954824769930793,0.011521987300955629,
0.026601094009601218,0.010683171226623702,
0.027907580675442602,0.0093766845607823213,
0.028746396749774531,0.0077304153211118923,
0.029035433070866146,0.0059055118110236211,
0.028746396749774531,0.0040806083009353464,
0.027907580675442606,0.0024343390612649213,
0.026601094009601225,0.0011278523954235378,
0.024954824769930793,0.00028903632109161191,
0.02312992125984252,-0.0000000000000000014162524269107219,
0.021305017749754251,0.00028903632109161109,
0.019658748510083823,0.0011278523954235367,
0.018352261844242438,0.00243433906126492,
0.017513445769910513,0.0040806083009353473,
0*
4,1,19,
-0.029035433070866146,0.0059055118110236246,
-0.028746396749774531,0.0077304153211118967,
-0.027907580675442602,0.0093766845607823248,
-0.026601094009601225,0.010683171226623706,
-0.024954824769930793,0.011521987300955631,
-0.02312992125984252,0.011811023622047246,
-0.021305017749754251,0.011521987300955635,
-0.019658748510083823,0.010683171226623706,
-0.018352261844242438,0.0093766845607823248,
-0.017513445769910513,0.0077304153211118958,
-0.017224409448818898,0.0059055118110236246,
-0.017513445769910513,0.00408060830093535,
-0.018352261844242438,0.0024343390612649239,
-0.019658748510083823,0.0011278523954235406,
-0.021305017749754251,0.00028903632109161478,
-0.02312992125984252,0.0000000000000000014162524269107219,
-0.024954824769930793,0.00028903632109161391,
-0.026601094009601218,0.0011278523954235395,
-0.027907580675442602,0.002434339061264923,
-0.028746396749774531,0.00408060830093535,
0*
4,1,19,
-0.029035433070866146,-0.00590551181102362,
-0.028746396749774531,-0.0040806083009353481,
-0.027907580675442602,-0.0024343390612649209,
-0.026601094009601225,-0.0011278523954235374,
-0.024954824769930793,-0.00028903632109161191,
-0.02312992125984252,0.0000000000000000014162524269107219,
-0.021305017749754251,-0.00028903632109161109,
-0.019658748510083823,-0.0011278523954235378,
-0.018352261844242438,-0.0024343390612649209,
-0.017513445769910513,-0.0040806083009353481,
-0.017224409448818898,-0.00590551181102362,
-0.017513445769910513,-0.0077304153211118949,
-0.018352261844242438,-0.00937668456078232,
-0.019658748510083823,-0.010683171226623702,
-0.021305017749754251,-0.011521987300955628,
-0.02312992125984252,-0.011811023622047242,
-0.024954824769930793,-0.011521987300955629,
-0.026601094009601218,-0.010683171226623704,
-0.027907580675442602,-0.0093766845607823213,
-0.028746396749774531,-0.007730415321111894,
0*
4,1,19,
0.017224409448818898,-0.0059055118110236228,
0.017513445769910513,-0.0040806083009353507,
0.018352261844242438,-0.0024343390612649235,
0.019658748510083823,-0.0011278523954235402,
0.021305017749754251,-0.00028903632109161478,
0.02312992125984252,-0.0000000000000000014162524269107219,
0.024954824769930793,-0.00028903632109161391,
0.026601094009601218,-0.0011278523954235406,
0.027907580675442602,-0.0024343390612649235,
0.028746396749774531,-0.0040806083009353507,
0.029035433070866146,-0.0059055118110236228,
0.028746396749774531,-0.0077304153211118984,
0.027907580675442606,-0.0093766845607823231,
0.026601094009601225,-0.010683171226623706,
0.024954824769930793,-0.011521987300955631,
0.02312992125984252,-0.011811023622047246,
0.021305017749754251,-0.011521987300955635,
0.019658748510083823,-0.010683171226623709,
0.018352261844242438,-0.0093766845607823248,
0.017513445769910513,-0.0077304153211118967,
0*
4,1,3,
0.02312992125984252,0.011811023622047242,
0.02312992125984252,-0.0000000000000000014162524269107219,
-0.02312992125984252,0.0000000000000000014162524269107219,
-0.02312992125984252,0.011811023622047246,
0*
4,1,3,
-0.029035433070866146,0.0059055118110236246,
-0.017224409448818898,0.0059055118110236228,
-0.017224409448818898,-0.0059055118110236211,
-0.029035433070866146,-0.00590551181102362,
0*
4,1,3,
-0.02312992125984252,-0.011811023622047242,
-0.02312992125984252,0.0000000000000000014162524269107219,
0.02312992125984252,-0.0000000000000000014162524269107219,
0.02312992125984252,-0.011811023622047246,
0*
4,1,3,
0.029035433070866146,-0.0059055118110236246,
0.017224409448818898,-0.0059055118110236228,
0.017224409448818898,0.0059055118110236211,
0.029035433070866146,0.00590551181102362,
0*%
%ADD17COMP88,0.15X0.15X-0.5875X0.15X0.5875X-0.15X0.5875X-0.15X-0.5875X0*%
%ADD18R,0.031496062992125991X0.10629921259842522*%
%AMCOMP93*
4,1,3,
0.018700787401574805,-0.0098425196850393734,
0.018700787401574805,0.00984251968503937,
-0.018700787401574805,0.0098425196850393734,
-0.018700787401574805,-0.00984251968503937,
0*
4,1,19,
0.0088582677165354312,-0.00984251968503937,
0.0093399949183547871,-0.0068010138348922507,
0.010738021708907997,-0.0040572317687748716,
0.012915499485310303,-0.0018797539923725655,
0.015659281551427682,-0.000481727201819356,
0.018700787401574805,-0.0000000000000000011450551536724983,
0.021742293251721924,-0.00048172720181935522,
0.0244860753178393,-0.0018797539923725659,
0.026663553094241611,-0.0040572317687748716,
0.02806157988479482,-0.0068010138348922524,
0.028543307086614175,-0.00984251968503937,
0.02806157988479482,-0.012884025535186496,
0.026663553094241611,-0.015627807601303872,
0.024486075317839306,-0.017805285377706179,
0.021742293251721924,-0.019203312168259389,
0.018700787401574805,-0.01968503937007874,
0.015659281551427682,-0.019203312168259386,
0.012915499485310306,-0.017805285377706176,
0.010738021708907997,-0.015627807601303872,
0.0093399949183547871,-0.012884025535186494,
0*
4,1,19,
0.0088582677165354329,0.00984251968503937,
0.0093399949183547888,0.012884025535186491,
0.010738021708907997,0.015627807601303872,
0.012915499485310303,0.017805285377706176,
0.015659281551427685,0.019203312168259386,
0.018700787401574805,0.01968503937007874,
0.021742293251721924,0.019203312168259386,
0.0244860753178393,0.017805285377706176,
0.026663553094241611,0.015627807601303872,
0.02806157988479482,0.012884025535186489,
0.028543307086614175,0.00984251968503937,
0.02806157988479482,0.0068010138348922455,
0.026663553094241611,0.0040572317687748707,
0.024486075317839306,0.0018797539923725642,
0.021742293251721924,0.00048172720181935375,
0.018700787401574805,-0.0000000000000000011450551536724986,
0.015659281551427685,0.000481727201819353,
0.012915499485310306,0.0018797539923725627,
0.010738021708907997,0.0040572317687748681,
0.0093399949183547871,0.0068010138348922463,
0*
4,1,19,
-0.028543307086614175,0.0098425196850393734,
-0.02806157988479482,0.012884025535186494,
-0.026663553094241611,0.015627807601303872,
-0.0244860753178393,0.017805285377706179,
-0.021742293251721924,0.019203312168259389,
-0.0187007874015748,0.01968503937007874,
-0.015659281551427682,0.019203312168259386,
-0.012915499485310306,0.017805285377706176,
-0.010738021708907997,0.015627807601303872,
-0.0093399949183547871,0.012884025535186491,
-0.0088582677165354312,0.0098425196850393734,
-0.0093399949183547871,0.0068010138348922489,
-0.010738021708907997,0.0040572317687748724,
-0.012915499485310301,0.0018797539923725666,
-0.015659281551427682,0.000481727201819356,
-0.0187007874015748,0.0000000000000000011450551536724983,
-0.02174229325172192,0.00048172720181935522,
-0.0244860753178393,0.0018797539923725648,
-0.026663553094241611,0.0040572317687748707,
-0.02806157988479482,0.00680101383489225,
0*
4,1,19,
-0.028543307086614175,-0.0098425196850393682,
-0.02806157988479482,-0.0068010138348922481,
-0.026663553094241611,-0.004057231768774869,
-0.0244860753178393,-0.0018797539923725631,
-0.021742293251721924,-0.00048172720181935375,
-0.018700787401574805,0.0000000000000000011450551536724983,
-0.015659281551427682,-0.000481727201819353,
-0.012915499485310306,-0.0018797539923725637,
-0.010738021708907997,-0.004057231768774869,
-0.0093399949183547871,-0.0068010138348922489,
-0.0088582677165354329,-0.00984251968503937,
-0.0093399949183547888,-0.012884025535186494,
-0.010738021708907997,-0.015627807601303868,
-0.012915499485310301,-0.017805285377706176,
-0.015659281551427685,-0.019203312168259386,
-0.018700787401574805,-0.01968503937007874,
-0.02174229325172192,-0.019203312168259386,
-0.0244860753178393,-0.017805285377706176,
-0.026663553094241611,-0.015627807601303872,
-0.02806157988479482,-0.012884025535186491,
0*
4,1,3,
0.028543307086614175,-0.0098425196850393734,
0.0088582677165354312,-0.00984251968503937,
0.0088582677165354329,0.00984251968503937,
0.028543307086614175,0.0098425196850393682,
0*
4,1,3,
0.018700787401574805,0.01968503937007874,
0.018700787401574805,-0.0000000000000000011450551536724983,
-0.018700787401574805,0.0000000000000000011450551536724983,
-0.0187007874015748,0.01968503937007874,
0*
4,1,3,
-0.028543307086614175,0.0098425196850393734,
-0.0088582677165354312,0.00984251968503937,
-0.0088582677165354329,-0.00984251968503937,
-0.028543307086614175,-0.0098425196850393682,
0*
4,1,3,
-0.018700787401574805,-0.01968503937007874,
-0.018700787401574805,0.0000000000000000011450551536724983,
0.018700787401574805,-0.0000000000000000011450551536724983,
0.0187007874015748,-0.01968503937007874,
0*%
%ADD19COMP93,0.25X-0.25X-0.475X0.25X-0.475X0.25X0.475X-0.25X0.475X0*%
%AMCOMP96*
4,1,3,
0.017716535433070866,-0.013779527559055118,
0.017716535433070866,0.013779527559055118,
-0.017716535433070866,0.013779527559055118,
-0.017716535433070866,-0.013779527559055118,
0*
4,1,19,
0.007874015748031496,-0.013779527559055118,
0.00835574294985085,-0.010738021708907997,
0.0097537697404040617,-0.00799423964279062,
0.011931247516806368,-0.0058167618663883128,
0.014675029582923747,-0.0044187350758351038,
0.017716535433070866,-0.0039370078740157488,
0.020758041283217985,-0.0044187350758351021,
0.023501823349335368,-0.0058167618663883128,
0.025679301125737672,-0.0079942396427906178,
0.027077327916290882,-0.010738021708907999,
0.027559055118110236,-0.013779527559055118,
0.027077327916290882,-0.016821033409202244,
0.025679301125737675,-0.019564815475319616,
0.023501823349335368,-0.021742293251721924,
0.020758041283217992,-0.023140320042275134,
0.017716535433070866,-0.023622047244094488,
0.014675029582923747,-0.023140320042275134,
0.011931247516806368,-0.021742293251721924,
0.0097537697404040617,-0.01956481547531962,
0.00835574294985085,-0.016821033409202241,
0*
4,1,19,
0.0078740157480314977,0.013779527559055118,
0.0083557429498508536,0.016821033409202237,
0.0097537697404040634,0.019564815475319616,
0.011931247516806369,0.021742293251721924,
0.014675029582923748,0.023140320042275134,
0.017716535433070869,0.023622047244094488,
0.020758041283217985,0.023140320042275134,
0.023501823349335368,0.021742293251721924,
0.025679301125737672,0.019564815475319616,
0.027077327916290882,0.016821033409202237,
0.027559055118110236,0.013779527559055118,
0.027077327916290882,0.010738021708907993,
0.025679301125737675,0.0079942396427906178,
0.023501823349335368,0.0058167618663883119,
0.020758041283217992,0.0044187350758351012,
0.017716535433070869,0.0039370078740157462,
0.014675029582923748,0.0044187350758351,
0.011931247516806369,0.0058167618663883093,
0.0097537697404040634,0.0079942396427906143,
0.0083557429498508536,0.010738021708907995,
0*
4,1,19,
-0.027559055118110236,0.01377952755905512,
-0.027077327916290882,0.016821033409202241,
-0.025679301125737672,0.01956481547531962,
-0.023501823349335368,0.021742293251721924,
-0.020758041283217985,0.023140320042275134,
-0.017716535433070866,0.023622047244094488,
-0.014675029582923747,0.023140320042275134,
-0.011931247516806366,0.021742293251721924,
-0.0097537697404040617,0.01956481547531962,
-0.00835574294985085,0.016821033409202237,
-0.007874015748031496,0.01377952755905512,
-0.00835574294985085,0.010738021708907995,
-0.00975376974040406,0.0079942396427906213,
-0.011931247516806368,0.0058167618663883145,
-0.014675029582923745,0.0044187350758351038,
-0.017716535433070866,0.0039370078740157488,
-0.020758041283217985,0.0044187350758351021,
-0.023501823349335368,0.0058167618663883119,
-0.025679301125737672,0.0079942396427906178,
-0.027077327916290882,0.010738021708907997,
0*
4,1,19,
-0.027559055118110236,-0.013779527559055116,
-0.027077327916290882,-0.010738021708907995,
-0.025679301125737672,-0.0079942396427906178,
-0.023501823349335368,-0.0058167618663883111,
-0.020758041283217985,-0.0044187350758351012,
-0.017716535433070866,-0.0039370078740157462,
-0.014675029582923748,-0.0044187350758351,
-0.011931247516806368,-0.0058167618663883111,
-0.0097537697404040634,-0.0079942396427906161,
-0.0083557429498508536,-0.010738021708907997,
-0.0078740157480314977,-0.013779527559055116,
-0.0083557429498508536,-0.016821033409202241,
-0.0097537697404040617,-0.019564815475319616,
-0.011931247516806369,-0.021742293251721924,
-0.014675029582923747,-0.023140320042275134,
-0.017716535433070866,-0.023622047244094488,
-0.020758041283217985,-0.023140320042275134,
-0.023501823349335368,-0.021742293251721924,
-0.025679301125737672,-0.019564815475319616,
-0.027077327916290882,-0.016821033409202237,
0*
4,1,3,
0.027559055118110236,-0.01377952755905512,
0.007874015748031496,-0.013779527559055118,
0.0078740157480314977,0.013779527559055118,
0.027559055118110236,0.013779527559055116,
0*
4,1,3,
0.017716535433070869,0.023622047244094488,
0.017716535433070866,0.0039370078740157462,
-0.017716535433070866,0.0039370078740157488,
-0.017716535433070866,0.023622047244094488,
0*
4,1,3,
-0.027559055118110236,0.01377952755905512,
-0.007874015748031496,0.013779527559055118,
-0.0078740157480314977,-0.013779527559055118,
-0.027559055118110236,-0.013779527559055116,
0*
4,1,3,
-0.017716535433070869,-0.023622047244094488,
-0.017716535433070866,-0.0039370078740157462,
0.017716535433070866,-0.0039370078740157488,
0.017716535433070866,-0.023622047244094488,
0*%
%ADD20COMP96,0.25X-0.35X-0.45X0.35X-0.45X0.35X0.45X-0.35X0.45X0*%
%AMCOMP99*
4,1,3,
0.0049212598425196867,0.022637795275590549,
-0.0049212598425196841,0.022637795275590549,
-0.0049212598425196867,-0.022637795275590549,
0.0049212598425196841,-0.022637795275590549,
0*
4,1,19,
0.0000000000000000013861193965509192,0.022637795275590549,
0.000240863600909679,0.024158548200664112,
0.00093987699618628383,0.0255304392337228,
0.0020286158843874371,0.026619178121923954,
0.0034005069174461266,0.027318191517200559,
0.0049212598425196867,0.027559055118110236,
0.0064420127675932481,0.027318191517200559,
0.0078139038006519359,0.026619178121923954,
0.00890264268885309,0.0255304392337228,
0.0096016560841296946,0.024158548200664112,
0.0098425196850393734,0.022637795275590549,
0.0096016560841296946,0.021117042350516989,
0.00890264268885309,0.019745151317458298,
0.0078139038006519376,0.018656412429257148,
0.0064420127675932472,0.017957399033980543,
0.0049212598425196876,0.017716535433070866,
0.0034005069174461271,0.017957399033980543,
0.0020286158843874375,0.018656412429257148,
0.000939876996186284,0.019745151317458298,
0.0002408636009096788,0.021117042350516989,
0*
4,1,19,
-0.00984251968503937,0.022637795275590549,
-0.0096016560841296929,0.024158548200664112,
-0.008902642688853088,0.0255304392337228,
-0.0078139038006519342,0.026619178121923954,
-0.0064420127675932437,0.027318191517200559,
-0.0049212598425196841,0.027559055118110236,
-0.003400506917446124,0.027318191517200559,
-0.0020286158843874345,0.026619178121923954,
-0.00093987699618628133,0.0255304392337228,
-0.00024086360090967604,0.024158548200664112,
0.0000000000000000013861193965509192,0.022637795275590549,
-0.00024086360090967623,0.021117042350516989,
-0.00093987699618628046,0.019745151317458298,
-0.0020286158843874336,0.018656412429257148,
-0.0034005069174461232,0.017957399033980543,
-0.0049212598425196832,0.017716535433070866,
-0.0064420127675932437,0.017957399033980543,
-0.0078139038006519324,0.018656412429257148,
-0.008902642688853088,0.019745151317458298,
-0.0096016560841296929,0.021117042350516989,
0*
4,1,19,
-0.0098425196850393734,-0.022637795275590549,
-0.0096016560841296946,-0.021117042350516989,
-0.00890264268885309,-0.019745151317458298,
-0.0078139038006519359,-0.018656412429257148,
-0.0064420127675932472,-0.017957399033980543,
-0.0049212598425196867,-0.017716535433070866,
-0.0034005069174461266,-0.017957399033980543,
-0.0020286158843874371,-0.018656412429257148,
-0.000939876996186284,-0.019745151317458298,
-0.0002408636009096788,-0.021117042350516989,
-0.0000000000000000013861193965509192,-0.022637795275590549,
-0.000240863600909679,-0.024158548200664112,
-0.00093987699618628328,-0.0255304392337228,
-0.0020286158843874367,-0.026619178121923954,
-0.0034005069174461262,-0.027318191517200559,
-0.0049212598425196867,-0.027559055118110236,
-0.0064420127675932472,-0.027318191517200559,
-0.0078139038006519359,-0.026619178121923954,
-0.00890264268885309,-0.0255304392337228,
-0.0096016560841296946,-0.024158548200664112,
0*
4,1,19,
-0.0000000000000000013861193965509192,-0.022637795275590549,
0.00024086360090967623,-0.021117042350516989,
0.000939876996186281,-0.019745151317458298,
0.0020286158843874345,-0.018656412429257148,
0.003400506917446124,-0.017957399033980543,
0.0049212598425196841,-0.017716535433070866,
0.0064420127675932446,-0.017957399033980543,
0.0078139038006519324,-0.018656412429257148,
0.008902642688853088,-0.019745151317458298,
0.0096016560841296929,-0.021117042350516989,
0.00984251968503937,-0.022637795275590549,
0.0096016560841296929,-0.024158548200664112,
0.008902642688853088,-0.0255304392337228,
0.0078139038006519359,-0.026619178121923954,
0.0064420127675932437,-0.027318191517200559,
0.004921259842519685,-0.027559055118110236,
0.0034005069174461245,-0.027318191517200559,
0.0020286158843874349,-0.026619178121923954,
0.00093987699618628133,-0.0255304392337228,
0.00024086360090967604,-0.024158548200664112,
0*
4,1,3,
0.0049212598425196876,0.027559055118110236,
0.004921259842519685,0.017716535433070866,
-0.0049212598425196841,0.017716535433070866,
-0.0049212598425196832,0.027559055118110236,
0*
4,1,3,
-0.00984251968503937,0.022637795275590549,
0.0000000000000000013861193965509192,0.022637795275590549,
-0.0000000000000000013861193965509192,-0.022637795275590549,
-0.0098425196850393734,-0.022637795275590549,
0*
4,1,3,
-0.0049212598425196876,-0.027559055118110236,
-0.004921259842519685,-0.017716535433070866,
0.0049212598425196841,-0.017716535433070866,
0.0049212598425196832,-0.027559055118110236,
0*
4,1,3,
0.00984251968503937,-0.022637795275590549,
-0.0000000000000000013861193965509192,-0.022637795275590549,
0.0000000000000000013861193965509192,0.022637795275590549,
0.0098425196850393734,0.022637795275590549,
0*%
%ADD21COMP99,0.125X0.575X-0.125X0.575X0.125X-0.575X0.125X-0.575X-0.125X0*%
%AMCOMP102*
4,1,3,
-0.0073818897637795283,-0.003444881889763779,
0.0073818897637795283,-0.00344488188976378,
0.0073818897637795283,0.003444881889763779,
-0.0073818897637795283,0.00344488188976378,
0*
4,1,19,
-0.010826771653543309,-0.003444881889763779,
-0.010658167132906533,-0.0023803548422122872,
-0.01016885775621291,-0.0014200311190712041,
-0.0094067405344721022,-0.00065791389733039726,
-0.00844641681133102,-0.00016860452063677391,
-0.0073818897637795283,0.00000000000000000045199545539703892,
-0.0063173627162280369,-0.00016860452063677351,
-0.0053570389930869535,-0.00065791389733039758,
-0.0045949217713461459,-0.0014200311190712041,
-0.0041056123946525231,-0.0023803548422122868,
-0.0039370078740157488,-0.003444881889763779,
-0.0041056123946525231,-0.0045094089373152726,
-0.0045949217713461459,-0.0054697326604563543,
-0.0053570389930869527,-0.0062318498821971611,
-0.0063173627162280352,-0.0067211592588907855,
-0.0073818897637795266,-0.006889763779527559,
-0.00844641681133102,-0.0067211592588907855,
-0.0094067405344721022,-0.0062318498821971611,
-0.01016885775621291,-0.0054697326604563543,
-0.010658167132906533,-0.0045094089373152717,
0*
4,1,19,
0.0039370078740157488,-0.0034448818897637795,
0.0041056123946525231,-0.0023803548422122876,
0.0045949217713461459,-0.0014200311190712049,
0.0053570389930869535,-0.00065791389733039812,
0.0063173627162280352,-0.00016860452063677481,
0.0073818897637795283,-0.00000000000000000045199545539703892,
0.00844641681133102,-0.0001686045206367744,
0.0094067405344721022,-0.00065791389733039834,
0.01016885775621291,-0.0014200311190712049,
0.010658167132906533,-0.0023803548422122876,
0.010826771653543309,-0.0034448818897637795,
0.010658167132906533,-0.0045094089373152735,
0.01016885775621291,-0.0054697326604563551,
0.009406740534472104,-0.0062318498821971619,
0.00844641681133102,-0.0067211592588907855,
0.0073818897637795292,-0.006889763779527559,
0.0063173627162280369,-0.0067211592588907855,
0.0053570389930869535,-0.0062318498821971619,
0.0045949217713461459,-0.0054697326604563551,
0.0041056123946525223,-0.0045094089373152717,
0*
4,1,19,
0.0039370078740157488,0.0034448818897637795,
0.0041056123946525231,0.0045094089373152717,
0.0045949217713461468,0.0054697326604563551,
0.0053570389930869535,0.0062318498821971611,
0.0063173627162280352,0.0067211592588907855,
0.0073818897637795283,0.006889763779527559,
0.00844641681133102,0.0067211592588907855,
0.0094067405344721022,0.00623184988219716,
0.01016885775621291,0.0054697326604563543,
0.010658167132906533,0.0045094089373152717,
0.010826771653543309,0.0034448818897637795,
0.010658167132906533,0.0023803548422122859,
0.01016885775621291,0.0014200311190712047,
0.009406740534472104,0.00065791389733039726,
0.00844641681133102,0.00016860452063677391,
0.0073818897637795292,-0.00000000000000000045199545539703892,
0.0063173627162280369,0.00016860452063677351,
0.0053570389930869535,0.000657913897330397,
0.0045949217713461459,0.0014200311190712038,
0.0041056123946525231,0.0023803548422122863,
0*
4,1,19,
-0.010826771653543309,0.00344488188976378,
-0.010658167132906533,0.0045094089373152717,
-0.01016885775621291,0.005469732660456356,
-0.0094067405344721022,0.0062318498821971619,
-0.00844641681133102,0.0067211592588907855,
-0.0073818897637795283,0.006889763779527559,
-0.0063173627162280369,0.0067211592588907855,
-0.0053570389930869535,0.0062318498821971611,
-0.0045949217713461459,0.0054697326604563551,
-0.0041056123946525223,0.0045094089373152717,
-0.0039370078740157488,0.00344488188976378,
-0.0041056123946525231,0.0023803548422122868,
-0.0045949217713461459,0.0014200311190712054,
-0.0053570389930869527,0.00065791389733039812,
-0.0063173627162280352,0.00016860452063677481,
-0.0073818897637795266,0.00000000000000000045199545539703883,
-0.00844641681133102,0.0001686045206367744,
-0.0094067405344721022,0.0006579138973303978,
-0.01016885775621291,0.0014200311190712047,
-0.010658167132906533,0.0023803548422122872,
0*
4,1,3,
-0.0073818897637795283,-0.006889763779527559,
-0.0073818897637795283,0.00000000000000000045199545539703892,
0.0073818897637795283,-0.00000000000000000045199545539703892,
0.0073818897637795283,-0.006889763779527559,
0*
4,1,3,
0.010826771653543309,-0.00344488188976378,
0.0039370078740157488,-0.0034448818897637795,
0.0039370078740157488,0.0034448818897637795,
0.010826771653543309,0.003444881889763779,
0*
4,1,3,
0.0073818897637795283,0.006889763779527559,
0.0073818897637795283,-0.00000000000000000045199545539703892,
-0.0073818897637795283,0.00000000000000000045199545539703892,
-0.0073818897637795283,0.006889763779527559,
0*
4,1,3,
-0.010826771653543309,0.00344488188976378,
-0.0039370078740157488,0.0034448818897637795,
-0.0039370078740157488,-0.0034448818897637795,
-0.010826771653543309,-0.003444881889763779,
0*%
%ADD22COMP102,0.0875X-0.0875X0.1875X-0.0875X-0.1875X0.0875X-0.1875X0.0875X0.1875X0*%
%AMCOMP105*
4,1,3,
0.0073818897637795283,0.003444881889763779,
-0.0073818897637795283,0.00344488188976378,
-0.0073818897637795283,-0.003444881889763779,
0.0073818897637795283,-0.00344488188976378,
0*
4,1,19,
0.0039370078740157488,0.0034448818897637795,
0.0041056123946525231,0.0045094089373152717,
0.0045949217713461468,0.0054697326604563551,
0.0053570389930869535,0.0062318498821971611,
0.0063173627162280352,0.0067211592588907855,
0.0073818897637795283,0.006889763779527559,
0.00844641681133102,0.0067211592588907855,
0.0094067405344721022,0.00623184988219716,
0.01016885775621291,0.0054697326604563543,
0.010658167132906533,0.0045094089373152717,
0.010826771653543309,0.0034448818897637795,
0.010658167132906533,0.0023803548422122859,
0.01016885775621291,0.0014200311190712047,
0.009406740534472104,0.00065791389733039726,
0.00844641681133102,0.00016860452063677391,
0.0073818897637795292,-0.00000000000000000045199545539703892,
0.0063173627162280369,0.00016860452063677351,
0.0053570389930869535,0.000657913897330397,
0.0045949217713461459,0.0014200311190712038,
0.0041056123946525231,0.0023803548422122863,
0*
4,1,19,
-0.010826771653543309,0.00344488188976378,
-0.010658167132906533,0.0045094089373152717,
-0.01016885775621291,0.005469732660456356,
-0.0094067405344721022,0.0062318498821971619,
-0.00844641681133102,0.0067211592588907855,
-0.0073818897637795283,0.006889763779527559,
-0.0063173627162280369,0.0067211592588907855,
-0.0053570389930869535,0.0062318498821971611,
-0.0045949217713461459,0.0054697326604563551,
-0.0041056123946525223,0.0045094089373152717,
-0.0039370078740157488,0.00344488188976378,
-0.0041056123946525231,0.0023803548422122868,
-0.0045949217713461459,0.0014200311190712054,
-0.0053570389930869527,0.00065791389733039812,
-0.0063173627162280352,0.00016860452063677481,
-0.0073818897637795266,0.00000000000000000045199545539703883,
-0.00844641681133102,0.0001686045206367744,
-0.0094067405344721022,0.0006579138973303978,
-0.01016885775621291,0.0014200311190712047,
-0.010658167132906533,0.0023803548422122872,
0*
4,1,19,
-0.010826771653543309,-0.003444881889763779,
-0.010658167132906533,-0.0023803548422122872,
-0.01016885775621291,-0.0014200311190712041,
-0.0094067405344721022,-0.00065791389733039726,
-0.00844641681133102,-0.00016860452063677391,
-0.0073818897637795283,0.00000000000000000045199545539703892,
-0.0063173627162280369,-0.00016860452063677351,
-0.0053570389930869535,-0.00065791389733039758,
-0.0045949217713461459,-0.0014200311190712041,
-0.0041056123946525231,-0.0023803548422122868,
-0.0039370078740157488,-0.003444881889763779,
-0.0041056123946525231,-0.0045094089373152726,
-0.0045949217713461459,-0.0054697326604563543,
-0.0053570389930869527,-0.0062318498821971611,
-0.0063173627162280352,-0.0067211592588907855,
-0.0073818897637795266,-0.006889763779527559,
-0.00844641681133102,-0.0067211592588907855,
-0.0094067405344721022,-0.0062318498821971611,
-0.01016885775621291,-0.0054697326604563543,
-0.010658167132906533,-0.0045094089373152717,
0*
4,1,19,
0.0039370078740157488,-0.0034448818897637795,
0.0041056123946525231,-0.0023803548422122876,
0.0045949217713461459,-0.0014200311190712049,
0.0053570389930869535,-0.00065791389733039812,
0.0063173627162280352,-0.00016860452063677481,
0.0073818897637795283,-0.00000000000000000045199545539703892,
0.00844641681133102,-0.0001686045206367744,
0.0094067405344721022,-0.00065791389733039834,
0.01016885775621291,-0.0014200311190712049,
0.010658167132906533,-0.0023803548422122876,
0.010826771653543309,-0.0034448818897637795,
0.010658167132906533,-0.0045094089373152735,
0.01016885775621291,-0.0054697326604563551,
0.009406740534472104,-0.0062318498821971619,
0.00844641681133102,-0.0067211592588907855,
0.0073818897637795292,-0.006889763779527559,
0.0063173627162280369,-0.0067211592588907855,
0.0053570389930869535,-0.0062318498821971619,
0.0045949217713461459,-0.0054697326604563551,
0.0041056123946525223,-0.0045094089373152717,
0*
4,1,3,
0.0073818897637795283,0.006889763779527559,
0.0073818897637795283,-0.00000000000000000045199545539703892,
-0.0073818897637795283,0.00000000000000000045199545539703892,
-0.0073818897637795283,0.006889763779527559,
0*
4,1,3,
-0.010826771653543309,0.00344488188976378,
-0.0039370078740157488,0.0034448818897637795,
-0.0039370078740157488,-0.0034448818897637795,
-0.010826771653543309,-0.003444881889763779,
0*
4,1,3,
-0.0073818897637795283,-0.006889763779527559,
-0.0073818897637795283,0.00000000000000000045199545539703892,
0.0073818897637795283,-0.00000000000000000045199545539703892,
0.0073818897637795283,-0.006889763779527559,
0*
4,1,3,
0.010826771653543309,-0.00344488188976378,
0.0039370078740157488,-0.0034448818897637795,
0.0039370078740157488,0.0034448818897637795,
0.010826771653543309,0.003444881889763779,
0*%
%ADD23COMP105,0.0875X0.0875X-0.1875X0.0875X0.1875X-0.0875X0.1875X-0.0875X-0.1875X0*%
%ADD24R,0.0984251968503937X0.03937007874015748*%
%ADD25R,0.03937007874015748X0.070866141732283464*%
%ADD26R,0.061417322834645675X0.025590551181102365*%
%AMCOMP108*
4,1,3,
0.010826771653543309,-0.010826771653543309,
0.010826771653543309,0.010826771653543309,
-0.010826771653543309,0.010826771653543309,
-0.010826771653543309,-0.010826771653543309,
0*
4,1,19,
0.00098425196850393721,-0.010826771653543309,
0.0014659791703232924,-0.0077852658033961877,
0.0028640059608765018,-0.0050414837372788086,
0.0050414837372788086,-0.0028640059608765031,
0.0077852658033961877,-0.0014659791703232935,
0.010826771653543309,-0.00098425196850393851,
0.01386827750369043,-0.0014659791703232926,
0.016612059569807807,-0.0028640059608765036,
0.018789537346210115,-0.0050414837372788086,
0.020187564136763324,-0.0077852658033961885,
0.020669291338582679,-0.010826771653543309,
0.020187564136763324,-0.013868277503690433,
0.018789537346210115,-0.016612059569807807,
0.016612059569807807,-0.018789537346210115,
0.013868277503690428,-0.020187564136763324,
0.010826771653543309,-0.020669291338582679,
0.0077852658033961885,-0.020187564136763324,
0.00504148373727881,-0.018789537346210115,
0.0028640059608765027,-0.016612059569807811,
0.0014659791703232922,-0.013868277503690431,
0*
4,1,19,
0.00098425196850393851,0.010826771653543309,
0.0014659791703232937,0.01386827750369043,
0.0028640059608765036,0.016612059569807807,
0.00504148373727881,0.018789537346210115,
0.0077852658033961885,0.020187564136763324,
0.01082677165354331,0.020669291338582679,
0.013868277503690431,0.020187564136763324,
0.016612059569807807,0.018789537346210115,
0.018789537346210115,0.016612059569807807,
0.020187564136763324,0.013868277503690428,
0.020669291338582679,0.010826771653543309,
0.020187564136763324,0.0077852658033961842,
0.018789537346210115,0.0050414837372788086,
0.016612059569807811,0.0028640059608765027,
0.01386827750369043,0.0014659791703232922,
0.01082677165354331,0.00098425196850393721,
0.00778526580339619,0.0014659791703232913,
0.0050414837372788112,0.002864005960876501,
0.002864005960876504,0.0050414837372788068,
0.0014659791703232935,0.0077852658033961859,
0*
4,1,19,
-0.020669291338582679,0.01082677165354331,
-0.020187564136763324,0.013868277503690431,
-0.018789537346210115,0.016612059569807811,
-0.016612059569807807,0.018789537346210115,
-0.013868277503690428,0.020187564136763324,
-0.010826771653543307,0.020669291338582679,
-0.0077852658033961877,0.020187564136763324,
-0.0050414837372788086,0.018789537346210115,
-0.0028640059608765027,0.016612059569807811,
-0.0014659791703232922,0.01386827750369043,
-0.00098425196850393721,0.01082677165354331,
-0.0014659791703232924,0.0077852658033961859,
-0.002864005960876501,0.00504148373727881,
-0.0050414837372788077,0.002864005960876504,
-0.0077852658033961868,0.0014659791703232935,
-0.010826771653543307,0.00098425196850393851,
-0.013868277503690428,0.0014659791703232926,
-0.016612059569807807,0.0028640059608765027,
-0.018789537346210115,0.0050414837372788077,
-0.020187564136763324,0.0077852658033961868,
0*
4,1,19,
-0.020669291338582679,-0.010826771653543307,
-0.020187564136763324,-0.0077852658033961868,
-0.018789537346210115,-0.0050414837372788077,
-0.016612059569807807,-0.0028640059608765014,
-0.01386827750369043,-0.0014659791703232922,
-0.010826771653543309,-0.00098425196850393721,
-0.0077852658033961885,-0.0014659791703232913,
-0.00504148373727881,-0.0028640059608765018,
-0.002864005960876504,-0.0050414837372788077,
-0.0014659791703232935,-0.0077852658033961877,
-0.00098425196850393851,-0.010826771653543307,
-0.0014659791703232937,-0.013868277503690431,
-0.0028640059608765027,-0.016612059569807807,
-0.0050414837372788086,-0.018789537346210115,
-0.0077852658033961877,-0.020187564136763324,
-0.010826771653543309,-0.020669291338582679,
-0.01386827750369043,-0.020187564136763324,
-0.016612059569807807,-0.018789537346210115,
-0.018789537346210115,-0.016612059569807807,
-0.020187564136763324,-0.01386827750369043,
0*
4,1,3,
0.020669291338582679,-0.01082677165354331,
0.00098425196850393721,-0.010826771653543309,
0.00098425196850393851,0.010826771653543309,
0.020669291338582679,0.010826771653543307,
0*
4,1,3,
0.01082677165354331,0.020669291338582679,
0.010826771653543309,0.00098425196850393721,
-0.010826771653543309,0.00098425196850393851,
-0.010826771653543307,0.020669291338582679,
0*
4,1,3,
-0.020669291338582679,0.01082677165354331,
-0.00098425196850393721,0.010826771653543309,
-0.00098425196850393851,-0.010826771653543309,
-0.020669291338582679,-0.010826771653543307,
0*
4,1,3,
-0.01082677165354331,-0.020669291338582679,
-0.010826771653543309,-0.00098425196850393721,
0.010826771653543309,-0.00098425196850393851,
0.010826771653543307,-0.020669291338582679,
0*%
%ADD27COMP108,0.25X-0.275X-0.275X0.275X-0.275X0.275X0.275X-0.275X0.275X0*%
%AMCOMP111*
4,1,3,
0.0024606299212598421,-0.013779527559055118,
0.0024606299212598438,0.013779527559055118,
-0.0024606299212598421,0.013779527559055118,
-0.0024606299212598438,-0.013779527559055118,
0*
4,1,19,
-0.0000000000000000008437248500744725,-0.013779527559055118,
0.00012043180045483795,-0.013019151096518338,
0.00046993849809314039,-0.012333205579988992,
0.001014307942193717,-0.011788836135888417,
0.0017002534587230616,-0.011439329438250113,
0.0024606299212598416,-0.011318897637795275,
0.0032210063837966223,-0.011439329438250113,
0.0039069519003259662,-0.011788836135888417,
0.004451321344426544,-0.012333205579988992,
0.0048008280420648464,-0.013019151096518338,
0.0049212598425196841,-0.013779527559055118,
0.0048008280420648456,-0.014539904021591898,
0.0044513213444265431,-0.015225849538121243,
0.0039069519003259671,-0.01577021898222182,
0.0032210063837966219,-0.016119725679860121,
0.0024606299212598421,-0.01624015748031496,
0.001700253458723062,-0.016119725679860121,
0.0010143079421937172,-0.01577021898222182,
0.00046993849809314045,-0.015225849538121243,
0.00012043180045483787,-0.014539904021591898,
0*
4,1,19,
0.0000000000000000008437248500744725,0.013779527559055118,
0.00012043180045483964,0.014539904021591898,
0.00046993849809314208,0.015225849538121243,
0.0010143079421937188,0.01577021898222182,
0.0017002534587230635,0.016119725679860121,
0.0024606299212598434,0.01624015748031496,
0.003221006383796624,0.016119725679860121,
0.0039069519003259679,0.01577021898222182,
0.0044513213444265448,0.015225849538121243,
0.0048008280420648482,0.014539904021591898,
0.0049212598425196867,0.013779527559055118,
0.0048008280420648473,0.013019151096518338,
0.0044513213444265448,0.012333205579988992,
0.0039069519003259688,0.011788836135888417,
0.0032210063837966236,0.011439329438250113,
0.0024606299212598438,0.011318897637795275,
0.0017002534587230638,0.011439329438250113,
0.001014307942193719,0.011788836135888417,
0.00046993849809314218,0.012333205579988992,
0.00012043180045483956,0.013019151096518338,
0*
4,1,19,
-0.0049212598425196841,0.013779527559055118,
-0.0048008280420648456,0.014539904021591898,
-0.0044513213444265431,0.015225849538121243,
-0.0039069519003259662,0.01577021898222182,
-0.0032210063837966219,0.016119725679860121,
-0.0024606299212598416,0.01624015748031496,
-0.0017002534587230616,0.016119725679860121,
-0.001014307942193717,0.01577021898222182,
-0.00046993849809314045,0.015225849538121243,
-0.00012043180045483787,0.014539904021591898,
0.0000000000000000008437248500744725,0.013779527559055118,
-0.00012043180045483795,0.013019151096518338,
-0.00046993849809314012,0.012333205579988992,
-0.0010143079421937168,0.011788836135888417,
-0.0017002534587230614,0.011439329438250113,
-0.0024606299212598412,0.011318897637795275,
-0.0032210063837966219,0.011439329438250113,
-0.0039069519003259662,0.011788836135888417,
-0.004451321344426544,0.012333205579988992,
-0.0048008280420648464,0.013019151096518338,
0*
4,1,19,
-0.0049212598425196867,-0.013779527559055118,
-0.0048008280420648473,-0.013019151096518338,
-0.0044513213444265448,-0.012333205579988992,
-0.0039069519003259679,-0.011788836135888417,
-0.0032210063837966236,-0.011439329438250113,
-0.0024606299212598434,-0.011318897637795275,
-0.0017002534587230635,-0.011439329438250113,
-0.0010143079421937188,-0.011788836135888417,
-0.00046993849809314218,-0.012333205579988992,
-0.00012043180045483956,-0.013019151096518338,
-0.0000000000000000008437248500744725,-0.013779527559055118,
-0.00012043180045483964,-0.014539904021591898,
-0.0004699384980931418,-0.015225849538121243,
-0.0010143079421937183,-0.01577021898222182,
-0.0017002534587230633,-0.016119725679860121,
-0.0024606299212598434,-0.01624015748031496,
-0.0032210063837966236,-0.016119725679860121,
-0.0039069519003259679,-0.01577021898222182,
-0.0044513213444265448,-0.015225849538121243,
-0.0048008280420648482,-0.014539904021591898,
0*
4,1,3,
0.0049212598425196841,-0.013779527559055118,
-0.0000000000000000008437248500744725,-0.013779527559055118,
0.0000000000000000008437248500744725,0.013779527559055118,
0.0049212598425196867,0.013779527559055118,
0*
4,1,3,
0.0024606299212598438,0.01624015748031496,
0.0024606299212598434,0.011318897637795275,
-0.0024606299212598421,0.011318897637795275,
-0.0024606299212598412,0.01624015748031496,
0*
4,1,3,
-0.0049212598425196841,0.013779527559055118,
0.0000000000000000008437248500744725,0.013779527559055118,
-0.0000000000000000008437248500744725,-0.013779527559055118,
-0.0049212598425196867,-0.013779527559055118,
0*
4,1,3,
-0.0024606299212598438,-0.01624015748031496,
-0.0024606299212598434,-0.011318897637795275,
0.0024606299212598421,-0.011318897637795275,
0.0024606299212598412,-0.01624015748031496,
0*%
%ADD28COMP111,0.0625X-0.35X-0.0625X0.35X-0.0625X0.35X0.0625X-0.35X0.0625X0*%
%AMCOMP114*
4,1,3,
0.013779527559055118,-0.0024606299212598438,
0.013779527559055118,0.0024606299212598421,
-0.013779527559055118,0.0024606299212598438,
-0.013779527559055118,-0.0024606299212598421,
0*
4,1,19,
0.011318897637795275,-0.0024606299212598434,
0.011439329438250113,-0.0017002534587230633,
0.011788836135888417,-0.0010143079421937183,
0.012333205579988992,-0.00046993849809314191,
0.013019151096518338,-0.00012043180045483956,
0.013779527559055118,-0.0000000000000000008437248500744725,
0.014539904021591898,-0.00012043180045483937,
0.015225849538121243,-0.00046993849809314208,
0.01577021898222182,-0.0010143079421937183,
0.016119725679860121,-0.0017002534587230635,
0.01624015748031496,-0.0024606299212598434,
0.016119725679860121,-0.0032210063837966245,
0.01577021898222182,-0.0039069519003259679,
0.015225849538121243,-0.0044513213444265448,
0.014539904021591898,-0.0048008280420648482,
0.013779527559055118,-0.0049212598425196867,
0.013019151096518338,-0.0048008280420648473,
0.012333205579988992,-0.0044513213444265448,
0.011788836135888417,-0.0039069519003259688,
0.011439329438250113,-0.003221006383796624,
0*
4,1,19,
0.011318897637795275,0.0024606299212598421,
0.011439329438250113,0.0032210063837966223,
0.011788836135888417,0.0039069519003259671,
0.012333205579988992,0.004451321344426544,
0.013019151096518338,0.0048008280420648464,
0.013779527559055118,0.0049212598425196841,
0.014539904021591898,0.0048008280420648456,
0.015225849538121243,0.0044513213444265431,
0.01577021898222182,0.0039069519003259671,
0.016119725679860121,0.0032210063837966219,
0.01624015748031496,0.0024606299212598421,
0.016119725679860121,0.0017002534587230609,
0.01577021898222182,0.001014307942193717,
0.015225849538121243,0.00046993849809314045,
0.014539904021591898,0.00012043180045483787,
0.013779527559055118,-0.0000000000000000008437248500744725,
0.013019151096518338,0.00012043180045483768,
0.012333205579988992,0.00046993849809314012,
0.011788836135888417,0.0010143079421937166,
0.011439329438250113,0.0017002534587230611,
0*
4,1,19,
-0.01624015748031496,0.0024606299212598438,
-0.016119725679860121,0.003221006383796624,
-0.01577021898222182,0.0039069519003259688,
-0.015225849538121243,0.0044513213444265448,
-0.014539904021591898,0.0048008280420648482,
-0.013779527559055118,0.0049212598425196867,
-0.013019151096518338,0.0048008280420648473,
-0.012333205579988992,0.0044513213444265448,
-0.011788836135888417,0.0039069519003259688,
-0.011439329438250113,0.0032210063837966236,
-0.011318897637795275,0.0024606299212598438,
-0.011439329438250113,0.0017002534587230627,
-0.011788836135888417,0.0010143079421937188,
-0.012333205579988992,0.00046993849809314218,
-0.013019151096518338,0.00012043180045483956,
-0.013779527559055118,0.0000000000000000008437248500744725,
-0.014539904021591898,0.00012043180045483937,
-0.015225849538121243,0.0004699384980931418,
-0.01577021898222182,0.0010143079421937181,
-0.016119725679860121,0.0017002534587230631,
0*
4,1,19,
-0.01624015748031496,-0.0024606299212598416,
-0.016119725679860121,-0.0017002534587230614,
-0.01577021898222182,-0.0010143079421937168,
-0.015225849538121243,-0.00046993849809314018,
-0.014539904021591898,-0.00012043180045483787,
-0.013779527559055118,0.0000000000000000008437248500744725,
-0.013019151096518338,-0.00012043180045483768,
-0.012333205579988992,-0.00046993849809314039,
-0.011788836135888417,-0.0010143079421937168,
-0.011439329438250113,-0.0017002534587230616,
-0.011318897637795275,-0.0024606299212598416,
-0.011439329438250113,-0.0032210063837966227,
-0.011788836135888417,-0.0039069519003259662,
-0.012333205579988992,-0.004451321344426544,
-0.013019151096518338,-0.0048008280420648464,
-0.013779527559055118,-0.0049212598425196841,
-0.014539904021591898,-0.0048008280420648456,
-0.015225849538121243,-0.0044513213444265431,
-0.01577021898222182,-0.0039069519003259671,
-0.016119725679860121,-0.0032210063837966223,
0*
4,1,3,
0.01624015748031496,-0.0024606299212598438,
0.011318897637795275,-0.0024606299212598434,
0.011318897637795275,0.0024606299212598421,
0.01624015748031496,0.0024606299212598412,
0*
4,1,3,
0.013779527559055118,0.0049212598425196841,
0.013779527559055118,-0.0000000000000000008437248500744725,
-0.013779527559055118,0.0000000000000000008437248500744725,
-0.013779527559055118,0.0049212598425196867,
0*
4,1,3,
-0.01624015748031496,0.0024606299212598438,
-0.011318897637795275,0.0024606299212598434,
-0.011318897637795275,-0.0024606299212598421,
-0.01624015748031496,-0.0024606299212598412,
0*
4,1,3,
-0.013779527559055118,-0.0049212598425196841,
-0.013779527559055118,0.0000000000000000008437248500744725,
0.013779527559055118,-0.0000000000000000008437248500744725,
0.013779527559055118,-0.0049212598425196867,
0*%
%ADD29COMP114,0.0625X-0.0625X-0.35X0.0625X-0.35X0.0625X0.35X-0.0625X0.35X0*%
%ADD30R,0.023622047244094488X0.045669291338582677*%
%ADD31R,0.011811023622047244X0.045669291338582677*%
%ADD32R,0.043307086614173235X0.070866141732283464*%
%AMCOMP117*
4,1,3,
-0.020177165354330708,-0.0059055118110236211,
0.020177165354330708,-0.0059055118110236228,
0.020177165354330708,0.0059055118110236211,
-0.020177165354330708,0.0059055118110236228,
0*
4,1,19,
-0.026082677165354333,-0.0059055118110236211,
-0.025793640844262715,-0.0040806083009353481,
-0.024954824769930793,-0.0024343390612649209,
-0.023648338104089405,-0.0011278523954235374,
-0.02200206886441898,-0.00028903632109161212,
-0.020177165354330708,0.0000000000000000012354542447519063,
-0.018352261844242438,-0.00028903632109161126,
-0.01670599260457201,-0.001127852395423538,
-0.015399505938730625,-0.0024343390612649209,
-0.0145606898643987,-0.0040806083009353481,
-0.014271653543307086,-0.00590551181102362,
-0.0145606898643987,-0.0077304153211118949,
-0.015399505938730622,-0.00937668456078232,
-0.01670599260457201,-0.010683171226623704,
-0.018352261844242435,-0.011521987300955628,
-0.020177165354330708,-0.011811023622047242,
-0.02200206886441898,-0.011521987300955629,
-0.023648338104089405,-0.010683171226623704,
-0.02495482476993079,-0.0093766845607823213,
-0.025793640844262715,-0.0077304153211118949,
0*
4,1,19,
0.014271653543307086,-0.0059055118110236228,
0.0145606898643987,-0.0040806083009353507,
0.015399505938730625,-0.002434339061264923,
0.01670599260457201,-0.00112785239542354,
0.018352261844242438,-0.00028903632109161456,
0.020177165354330708,-0.0000000000000000012354542447519063,
0.02200206886441898,-0.00028903632109161369,
0.023648338104089405,-0.0011278523954235404,
0.02495482476993079,-0.0024343390612649235,
0.025793640844262715,-0.0040806083009353507,
0.026082677165354333,-0.005905511811023622,
0.025793640844262715,-0.0077304153211118967,
0.024954824769930793,-0.0093766845607823213,
0.023648338104089409,-0.010683171226623706,
0.02200206886441898,-0.011521987300955631,
0.020177165354330708,-0.011811023622047246,
0.018352261844242438,-0.011521987300955635,
0.01670599260457201,-0.010683171226623706,
0.015399505938730625,-0.0093766845607823248,
0.0145606898643987,-0.0077304153211118967,
0*
4,1,19,
0.014271653543307086,0.0059055118110236211,
0.0145606898643987,0.007730415321111894,
0.015399505938730625,0.0093766845607823213,
0.01670599260457201,0.010683171226623704,
0.018352261844242438,0.011521987300955628,
0.020177165354330708,0.011811023622047242,
0.02200206886441898,0.011521987300955629,
0.023648338104089405,0.010683171226623702,
0.02495482476993079,0.0093766845607823213,
0.025793640844262715,0.007730415321111894,
0.026082677165354333,0.005905511811023622,
0.025793640844262715,0.0040806083009353464,
0.024954824769930793,0.0024343390612649213,
0.023648338104089409,0.001127852395423538,
0.02200206886441898,0.00028903632109161212,
0.020177165354330708,-0.0000000000000000012354542447519063,
0.018352261844242438,0.00028903632109161126,
0.01670599260457201,0.0011278523954235369,
0.015399505938730625,0.0024343390612649204,
0.0145606898643987,0.0040806083009353473,
0*
4,1,19,
-0.026082677165354333,0.0059055118110236228,
-0.025793640844262715,0.0077304153211118958,
-0.024954824769930793,0.0093766845607823231,
-0.023648338104089405,0.010683171226623706,
-0.02200206886441898,0.011521987300955631,
-0.020177165354330708,0.011811023622047246,
-0.018352261844242438,0.011521987300955635,
-0.01670599260457201,0.010683171226623704,
-0.015399505938730625,0.0093766845607823248,
-0.0145606898643987,0.0077304153211118958,
-0.014271653543307086,0.0059055118110236246,
-0.0145606898643987,0.00408060830093535,
-0.015399505938730622,0.0024343390612649239,
-0.01670599260457201,0.0011278523954235404,
-0.018352261844242435,0.00028903632109161456,
-0.020177165354330708,0.0000000000000000012354542447519063,
-0.02200206886441898,0.00028903632109161369,
-0.023648338104089405,0.0011278523954235393,
-0.02495482476993079,0.002434339061264923,
-0.025793640844262715,0.00408060830093535,
0*
4,1,3,
-0.020177165354330708,-0.011811023622047242,
-0.020177165354330708,0.0000000000000000012354542447519063,
0.020177165354330708,-0.0000000000000000012354542447519063,
0.020177165354330708,-0.011811023622047246,
0*
4,1,3,
0.026082677165354333,-0.0059055118110236228,
0.014271653543307086,-0.0059055118110236228,
0.014271653543307086,0.0059055118110236211,
0.026082677165354333,0.0059055118110236211,
0*
4,1,3,
0.020177165354330708,0.011811023622047242,
0.020177165354330708,-0.0000000000000000012354542447519063,
-0.020177165354330708,0.0000000000000000012354542447519063,
-0.020177165354330708,0.011811023622047246,
0*
4,1,3,
-0.026082677165354333,0.0059055118110236228,
-0.014271653543307086,0.0059055118110236228,
-0.014271653543307086,-0.0059055118110236211,
-0.026082677165354333,-0.0059055118110236211,
0*%
%ADD33COMP117,0.15X-0.15X0.5125X-0.15X-0.5125X0.15X-0.5125X0.15X0.5125X0*%
%AMCOMP119*
4,1,3,
-0.018700787401574805,0.00984251968503937,
-0.018700787401574805,-0.00984251968503937,
0.018700787401574805,-0.00984251968503937,
0.018700787401574805,0.00984251968503937,
0*
4,1,19,
-0.018700787401574805,0.01968503937007874,
-0.015659281551427682,0.019203312168259386,
-0.012915499485310303,0.017805285377706176,
-0.010738021708907997,0.015627807601303872,
-0.0093399949183547871,0.012884025535186491,
-0.0088582677165354329,0.00984251968503937,
-0.0093399949183547871,0.0068010138348922507,
-0.010738021708907997,0.0040572317687748724,
-0.012915499485310301,0.0018797539923725657,
-0.015659281551427682,0.00048172720181935506,
-0.0187007874015748,0,
-0.021742293251721927,0.00048172720181935506,
-0.0244860753178393,0.0018797539923725635,
-0.026663553094241611,0.00405723176877487,
-0.02806157988479482,0.0068010138348922489,
-0.028543307086614175,0.0098425196850393682,
-0.02806157988479482,0.012884025535186489,
-0.026663553094241611,0.015627807601303868,
-0.024486075317839306,0.017805285377706176,
-0.021742293251721924,0.019203312168259386,
0*
4,1,19,
-0.018700787401574805,0,
-0.015659281551427682,-0.00048172720181935506,
-0.012915499485310303,-0.0018797539923725646,
-0.010738021708907997,-0.0040572317687748707,
-0.0093399949183547871,-0.00680101383489225,
-0.0088582677165354329,-0.00984251968503937,
-0.0093399949183547871,-0.012884025535186491,
-0.010738021708907997,-0.015627807601303868,
-0.012915499485310301,-0.017805285377706176,
-0.015659281551427682,-0.019203312168259386,
-0.0187007874015748,-0.01968503937007874,
-0.021742293251721927,-0.019203312168259386,
-0.0244860753178393,-0.017805285377706176,
-0.026663553094241611,-0.015627807601303872,
-0.02806157988479482,-0.012884025535186491,
-0.028543307086614175,-0.0098425196850393734,
-0.02806157988479482,-0.0068010138348922524,
-0.026663553094241611,-0.0040572317687748733,
-0.024486075317839306,-0.0018797539923725657,
-0.021742293251721924,-0.00048172720181935506,
0*
4,1,19,
0.018700787401574805,0,
0.021742293251721924,-0.00048172720181935506,
0.0244860753178393,-0.0018797539923725646,
0.026663553094241611,-0.0040572317687748707,
0.02806157988479482,-0.00680101383489225,
0.028543307086614175,-0.00984251968503937,
0.02806157988479482,-0.012884025535186491,
0.026663553094241611,-0.015627807601303868,
0.024486075317839306,-0.017805285377706176,
0.021742293251721924,-0.019203312168259386,
0.018700787401574805,-0.01968503937007874,
0.015659281551427682,-0.019203312168259386,
0.012915499485310306,-0.017805285377706176,
0.010738021708907997,-0.015627807601303872,
0.0093399949183547871,-0.012884025535186491,
0.0088582677165354329,-0.0098425196850393734,
0.0093399949183547871,-0.0068010138348922524,
0.010738021708907997,-0.0040572317687748733,
0.012915499485310301,-0.0018797539923725657,
0.015659281551427682,-0.00048172720181935506,
0*
4,1,19,
0.018700787401574805,0.01968503937007874,
0.021742293251721924,0.019203312168259386,
0.0244860753178393,0.017805285377706176,
0.026663553094241611,0.015627807601303872,
0.02806157988479482,0.012884025535186491,
0.028543307086614175,0.00984251968503937,
0.02806157988479482,0.0068010138348922507,
0.026663553094241611,0.0040572317687748724,
0.024486075317839306,0.0018797539923725657,
0.021742293251721924,0.00048172720181935506,
0.018700787401574805,0,
0.015659281551427682,0.00048172720181935506,
0.012915499485310306,0.0018797539923725635,
0.010738021708907997,0.00405723176877487,
0.0093399949183547871,0.0068010138348922489,
0.0088582677165354329,0.0098425196850393682,
0.0093399949183547871,0.012884025535186489,
0.010738021708907997,0.015627807601303868,
0.012915499485310301,0.017805285377706176,
0.015659281551427682,0.019203312168259386,
0*
4,1,3,
-0.028543307086614175,0.00984251968503937,
-0.0088582677165354329,0.00984251968503937,
-0.0088582677165354329,-0.00984251968503937,
-0.028543307086614175,-0.00984251968503937,
0*
4,1,3,
-0.018700787401574805,-0.01968503937007874,
-0.018700787401574805,0,
0.018700787401574805,0,
0.018700787401574805,-0.01968503937007874,
0*
4,1,3,
0.028543307086614175,-0.00984251968503937,
0.0088582677165354329,-0.00984251968503937,
0.0088582677165354329,0.00984251968503937,
0.028543307086614175,0.00984251968503937,
0*
4,1,3,
0.018700787401574805,0.01968503937007874,
0.018700787401574805,0,
-0.018700787401574805,0,
-0.018700787401574805,0.01968503937007874,
0*%
%ADD44COMP119,0.25X-0.475X0.25X-0.475X-0.25X0.475X-0.25X0.475X0.25X0*%
%ADD45R,0.059055118110236227X0.03937007874015748*%
%AMCOMP120*
4,1,3,
0.0187007874015748,-0.0098425196850393734,
0.018700787401574805,0.0098425196850393682,
-0.0187007874015748,0.0098425196850393734,
-0.018700787401574805,-0.0098425196850393682,
0*
4,1,19,
0.0187007874015748,-0.019685039370078747,
0.015659281551427682,-0.019203312168259389,
0.012915499485310301,-0.017805285377706179,
0.010738021708907995,-0.015627807601303872,
0.0093399949183547871,-0.012884025535186494,
0.0088582677165354312,-0.00984251968503937,
0.0093399949183547853,-0.0068010138348922524,
0.010738021708907997,-0.0040572317687748733,
0.012915499485310301,-0.0018797539923725672,
0.015659281551427682,-0.00048172720181935695,
0.0187007874015748,-0.0000000000000000022901103073449965,
0.021742293251721927,-0.00048172720181935771,
0.0244860753178393,-0.0018797539923725666,
0.026663553094241611,-0.0040572317687748733,
0.02806157988479482,-0.0068010138348922524,
0.028543307086614175,-0.0098425196850393734,
0.02806157988479482,-0.012884025535186494,
0.026663553094241611,-0.015627807601303872,
0.024486075317839306,-0.017805285377706179,
0.02174229325172192,-0.019203312168259389,
0*
4,1,19,
0.018700787401574805,-0.0000000000000000022901103073449965,
0.015659281551427682,0.0004817272018193531,
0.012915499485310303,0.0018797539923725629,
0.010738021708907997,0.00405723176877487,
0.0093399949183547888,0.0068010138348922489,
0.0088582677165354329,0.0098425196850393682,
0.0093399949183547871,0.012884025535186489,
0.010738021708907999,0.015627807601303865,
0.012915499485310303,0.017805285377706176,
0.015659281551427685,0.019203312168259386,
0.018700787401574805,0.01968503937007874,
0.021742293251721934,0.019203312168259386,
0.0244860753178393,0.017805285377706176,
0.026663553094241611,0.015627807601303872,
0.02806157988479482,0.012884025535186487,
0.028543307086614175,0.00984251968503937,
0.02806157988479482,0.0068010138348922489,
0.026663553094241611,0.00405723176877487,
0.024486075317839306,0.0018797539923725627,
0.021742293251721924,0.00048172720181935234,
0*
4,1,19,
-0.018700787401574805,0.0000000000000000022901103073449965,
-0.021742293251721924,0.00048172720181935771,
-0.0244860753178393,0.0018797539923725677,
-0.026663553094241611,0.0040572317687748742,
-0.02806157988479482,0.0068010138348922533,
-0.028543307086614175,0.0098425196850393734,
-0.02806157988479482,0.012884025535186496,
-0.026663553094241611,0.015627807601303872,
-0.024486075317839306,0.017805285377706179,
-0.02174229325172192,0.019203312168259389,
-0.018700787401574805,0.019685039370078747,
-0.015659281551427678,0.019203312168259389,
-0.012915499485310303,0.017805285377706179,
-0.010738021708907995,0.015627807601303875,
-0.0093399949183547871,0.012884025535186494,
-0.0088582677165354312,0.0098425196850393734,
-0.0093399949183547853,0.0068010138348922533,
-0.010738021708907997,0.0040572317687748742,
-0.012915499485310301,0.0018797539923725672,
-0.015659281551427682,0.00048172720181935695,
0*
4,1,19,
-0.018700787401574805,-0.01968503937007874,
-0.021742293251721927,-0.019203312168259386,
-0.0244860753178393,-0.017805285377706176,
-0.026663553094241611,-0.015627807601303868,
-0.02806157988479482,-0.012884025535186487,
-0.028543307086614175,-0.0098425196850393682,
-0.02806157988479482,-0.0068010138348922481,
-0.026663553094241611,-0.004057231768774869,
-0.024486075317839306,-0.0018797539923725627,
-0.021742293251721924,-0.00048172720181935234,
-0.018700787401574805,0.0000000000000000022901103073449973,
-0.015659281551427682,-0.0004817272018193531,
-0.012915499485310306,-0.0018797539923725618,
-0.010738021708907997,-0.004057231768774869,
-0.0093399949183547888,-0.0068010138348922481,
-0.0088582677165354329,-0.0098425196850393682,
-0.0093399949183547871,-0.012884025535186487,
-0.010738021708907999,-0.015627807601303865,
-0.012915499485310303,-0.017805285377706176,
-0.015659281551427682,-0.019203312168259386,
0*
4,1,3,
0.028543307086614175,-0.0098425196850393751,
0.0088582677165354312,-0.00984251968503937,
0.0088582677165354329,0.00984251968503937,
0.028543307086614175,0.0098425196850393665,
0*
4,1,3,
0.018700787401574805,0.01968503937007874,
0.018700787401574805,-0.0000000000000000022901103073449965,
-0.018700787401574805,0.0000000000000000022901103073449965,
-0.0187007874015748,0.019685039370078747,
0*
4,1,3,
-0.028543307086614175,0.0098425196850393751,
-0.0088582677165354312,0.00984251968503937,
-0.0088582677165354329,-0.00984251968503937,
-0.028543307086614175,-0.0098425196850393665,
0*
4,1,3,
-0.018700787401574805,-0.01968503937007874,
-0.018700787401574805,0.0000000000000000022901103073449965,
0.018700787401574805,-0.0000000000000000022901103073449965,
0.0187007874015748,-0.019685039370078747,
0*%
%ADD46COMP120,0.25X-0.475X0.25X-0.475X-0.25X0.475X-0.25X0.475X0.25X0*%
%ADD47R,0.059055118110236227X0.03937007874015748*%
G01*
D10*
X-0001771653Y-0003110236D02*
X0001590944Y0002107873D03*
X0001665748Y0002107873D03*
D11*
X0001238976Y0002327165D03*
X0001317716Y0002327165D03*
D10*
X0003037007Y0002576377D03*
X0003111811Y0002576377D03*
D12*
X0001098425Y0003253444D03*
X0001098425Y0003179625D03*
D10*
X0001577165Y0001379527D03*
X0001651968Y0001379527D03*
D13*
X0002880314Y0002444488D03*
X0002805511Y0002444488D03*
D14*
X0003045669Y0002733070D03*
X0003045669Y0002654330D03*
X0001098425Y0003098425D03*
X0001098425Y0003019685D03*
D12*
X0001185039Y0003253444D03*
X0001185039Y0003179625D03*
D10*
X0001590944Y0001989763D03*
X0001665748Y0001989763D03*
D11*
X0002874015Y0003503937D03*
X0002952755Y0003503937D03*
D15*
X0002439763Y0003151417D03*
X0002361023Y0003151417D03*
D16*
X0001385826Y0001149606D03*
X0001385826Y0001244094D03*
X0001287401Y0001149606D03*
X0001287401Y0001244094D03*
X0001188976Y0001149606D03*
X0001188976Y0001244094D03*
D17*
X0002451082Y0002564803D03*
X0002451082Y0002639606D03*
X0002377263Y0002602204D03*
D18*
X0001669291Y0001700787D03*
X0001582677Y0001700787D03*
D19*
X0001377952Y0002131889D03*
X0001377952Y0002206692D03*
D14*
X0002645669Y0001783464D03*
X0002645669Y0001704724D03*
D15*
X0002439763Y0003072677D03*
X0002361023Y0003072677D03*
D20*
X0001295275Y0003582677D03*
X0001295275Y0003661417D03*
D15*
X0002439763Y0003308897D03*
X0002361023Y0003308897D03*
D14*
X0001098425Y0003413385D03*
X0001098425Y0003334645D03*
D11*
X0002611023Y0002641574D03*
X0002689763Y0002641574D03*
D14*
X0001185039Y0003098425D03*
X0001185039Y0003019685D03*
D11*
X0001392913Y0002326377D03*
X0001471653Y0002326377D03*
D15*
X0002439763Y0003230157D03*
X0002361023Y0003230157D03*
D21*
X0002488188Y0001783464D03*
D22*
X0002447834Y0001803149D03*
D23*
X0002528543Y0001763779D03*
D22*
X0002447834Y0001763779D03*
D23*
X0002528543Y0001803149D03*
D24*
X0001629921Y0003562992D03*
X0001629921Y0003484251D03*
X0001629921Y0003405511D03*
X0001629921Y0003326771D03*
X0001629921Y0003248031D03*
X0001629921Y0003169291D03*
X0001629921Y0003090551D03*
X0001629921Y0003011811D03*
D25*
X0001732283Y0002952755D03*
X0001811023Y0002952755D03*
X0001889763Y0002952755D03*
X0001968503Y0002952755D03*
X0002047244Y0002952755D03*
X0002125984Y0002952755D03*
D24*
X0002228346Y0003011811D03*
X0002228346Y0003090551D03*
X0002228346Y0003169291D03*
X0002228346Y0003248031D03*
X0002228346Y0003326771D03*
X0002228346Y0003405511D03*
X0002228346Y0003484251D03*
X0002228346Y0003562992D03*
D13*
X0001293307Y0003779527D03*
X0001218503Y0003779527D03*
D26*
X0001226377Y0002057086D03*
X0001226377Y0002094488D03*
X0001226377Y0002131889D03*
X0001120078Y0002131889D03*
X0001120078Y0002057086D03*
D11*
X0002361023Y0003545118D03*
X0002439763Y0003545118D03*
D27*
X0002874015Y0002688976D03*
X0002925196Y0002637795D03*
X0002874015Y0002637795D03*
X0002925196Y0002688976D03*
D28*
X0002850393Y0002587106D03*
X0002870078Y0002587106D03*
X0002889763Y0002587106D03*
X0002909448Y0002587106D03*
X0002929133Y0002587106D03*
X0002948818Y0002587106D03*
D29*
X0002975885Y0002614173D03*
X0002975885Y0002633858D03*
X0002975885Y0002653543D03*
X0002975885Y0002673228D03*
X0002975885Y0002692913D03*
X0002975885Y0002712598D03*
D28*
X0002948818Y0002739665D03*
X0002929133Y0002739665D03*
X0002909448Y0002739665D03*
X0002889763Y0002739665D03*
X0002870078Y0002739665D03*
X0002850393Y0002739665D03*
D29*
X0002823326Y0002712598D03*
X0002823326Y0002692913D03*
X0002823326Y0002673228D03*
X0002823326Y0002653543D03*
X0002823326Y0002633858D03*
X0002823326Y0002614173D03*
D14*
X0000881889Y0001877952D03*
X0000881889Y0001799212D03*
X0002763779Y0001783464D03*
X0002763779Y0001704724D03*
D30*
X0002842519Y0003601968D03*
X0002811023Y0003601968D03*
D31*
X0002765748Y0003601968D03*
X0002726377Y0003601968D03*
X0002706692Y0003601968D03*
X0002667322Y0003601968D03*
D30*
X0002622047Y0003601968D03*
X0002590551Y0003601968D03*
X0002590551Y0003601968D03*
X0002622047Y0003601968D03*
D31*
X0002647637Y0003601968D03*
X0002687007Y0003601968D03*
X0002746062Y0003601968D03*
X0002785433Y0003601968D03*
D30*
X0002811023Y0003601968D03*
X0002842519Y0003601968D03*
D32*
X0000887795Y0001374015D03*
X0000887795Y0001618110D03*
X0001033464Y0001618110D03*
X0001033464Y0001374015D03*
D19*
X0001681102Y0002765748D03*
X0001681102Y0002840551D03*
D11*
X0001416141Y0003387637D03*
X0001494881Y0003387637D03*
D32*
X0002986220Y0003354330D03*
X0002986220Y0003110236D03*
X0003131889Y0003110236D03*
X0003131889Y0003354330D03*
D11*
X0001098425Y0003492125D03*
X0001177165Y0003492125D03*
X0002361023Y0003466377D03*
X0002439763Y0003466377D03*
D19*
X0001772047Y0001497637D03*
X0001772047Y0001572440D03*
D33*
X0001581200Y0001528188D03*
X0001581200Y0001490787D03*
X0001581200Y0001453385D03*
X0001670767Y0001453385D03*
X0001670767Y0001490787D03*
X0001670767Y0001528188D03*
D19*
X0001039370Y0002041338D03*
X0001039370Y0002116141D03*
D11*
X0002611023Y0002795275D03*
X0002689763Y0002795275D03*
D32*
X0000789370Y0003326771D03*
X0000789370Y0003082677D03*
X0000935039Y0003326771D03*
X0000935039Y0003082677D03*
D17*
X0002451082Y0002722283D03*
X0002451082Y0002797086D03*
X0002377263Y0002759685D03*
G04 next file*
G04 Gerber Fmt 4.6, Leading zero omitted, Abs format (unit mm)*
G04 Created by KiCad (PCBNEW (6.0.7)) date 2022-11-21 20:09:17*
G01*
G04 APERTURE LIST*
G04 Aperture macros list*
G04 Aperture macros list end*
G04 APERTURE END LIST*
D44*
X-0001181102Y0005118110D02*
X0004687007Y0001992125D03*
X0004687007Y0001917322D03*
D45*
X0003755905Y0003070866D03*
X0003755905Y0002944881D03*
X0003948818Y0002944881D03*
X0003948818Y0003070866D03*
D44*
X0004078740Y0003053149D03*
X0004078740Y0002978346D03*
D45*
X0003332677Y0000850393D03*
X0003332677Y0000724409D03*
X0003525590Y0000724409D03*
X0003525590Y0000850393D03*
D44*
X0003649606Y0000830708D03*
X0003649606Y0000755905D03*
D45*
X0004812992Y0001994094D03*
X0004812992Y0001868110D03*
X0005005905Y0001868110D03*
X0005005905Y0001994094D03*
G04 next file*
G04 Gerber Fmt 4.6, Leading zero omitted, Abs format (unit mm)*
G04 Created by KiCad (PCBNEW (6.0.7)) date 2022-11-21 20:11:54*
G01*
G04 APERTURE LIST*
G04 Aperture macros list*
G04 Aperture macros list end*
G04 APERTURE END LIST*
D46*
X0011377952Y-0000590551D02*
X0005509842Y0002535433D03*
X0005509842Y0002610236D03*
D47*
X0006440944Y0001456692D03*
X0006440944Y0001582677D03*
X0006248031Y0001582677D03*
X0006248031Y0001456692D03*
D46*
X0006118110Y0001474409D03*
X0006118110Y0001549212D03*
D47*
X0006864173Y0003677165D03*
X0006864173Y0003803149D03*
X0006671259Y0003803149D03*
X0006671259Y0003677165D03*
D46*
X0006547244Y0003696850D03*
X0006547244Y0003771653D03*
D47*
X0005383858Y0002533464D03*
X0005383858Y0002659448D03*
X0005190944Y0002659448D03*
X0005190944Y0002533464D03*
M02*